<svg xmlns="http://www.w3.org/2000/svg" width="730" height="99" fill="none"><rect width="729" height="98" x=".5" y=".5" fill="#FDFFFD" stroke="#C4C4C4" rx="4.5"/><path fill="#C4C4C4" d="M401.53 49.53a.75.75 0 000-1.06l-4.773-4.773a.75.75 0 10-1.06 1.06L399.939 49l-4.242 4.243a.75.75 0 001.06 1.06l4.773-4.773zm-71.53.22h71v-1.5h-71v1.5zM210.53 47.53a.75.75 0 000-1.06l-4.773-4.773a.75.75 0 10-1.06 1.06L208.939 47l-4.242 4.243a.75.75 0 001.06 1.06l4.773-4.773zm-71.53.22h71v-1.5h-71v1.5zM592.53 49.53a.75.75 0 000-1.06l-4.773-4.773a.75.75 0 10-1.06 1.06L590.939 49l-4.242 4.243a.75.75 0 001.06 1.06l4.773-4.773zm-71.53.22h71v-1.5h-71v1.5z"/><rect width="109" height="71" x="24" y="14" fill="#3884FF" rx="6"/><path fill="#fff" d="M45.303 34.402c.422 0 .773-.132 1.046-.413.272-.281.413-.624.413-1.037 0-.404-.14-.756-.413-1.037a1.411 1.411 0 00-1.046-.422c-.422 0-.774.14-1.046.422a1.412 1.412 0 00-.413 1.037c0 .413.132.756.404 1.037.273.282.624.413 1.055.413zm-1.327 13.483c.747 0 1.318-.176 1.714-.545.386-.37.588-.897.588-1.591V35.615h-1.96v9.554c0 .299-.061.519-.184.66-.123.14-.317.201-.58.201-.264 0-.501-.017-.73-.07v1.749c.229.123.607.176 1.152.176zm8.314-3.665c.527 0 1.046-.123 1.556-.37.51-.245.887-.57 1.142-.984V44h1.943v-8.385h-1.943v1.134a2.739 2.739 0 00-1.098-.993 3.395 3.395 0 00-1.547-.36c-1.275 0-2.285.421-3.041 1.256-.756.835-1.134 1.89-1.134 3.156 0 .624.088 1.204.264 1.731.175.536.44 1.002.782 1.398.334.404.773.711 1.3.94.528.228 1.117.343 1.776.343zm.281-1.75c-.756 0-1.344-.245-1.784-.746-.44-.493-.66-1.134-.66-1.916 0-.774.22-1.415.66-1.916.44-.493 1.028-.748 1.784-.748.791 0 1.407.255 1.837.765.43.51.65 1.143.65 1.899 0 .764-.22 1.397-.65 1.907-.43.51-1.046.756-1.837.756zM61.826 44h1.582l3.639-8.385h-2.11l-2.32 5.757-2.32-5.757h-2.11L61.828 44zm9.8.22c.527 0 1.046-.123 1.556-.37.51-.245.887-.57 1.142-.984V44h1.943v-8.385h-1.943v1.134a2.74 2.74 0 00-1.098-.993 3.396 3.396 0 00-1.547-.36c-1.275 0-2.285.421-3.041 1.256-.756.835-1.134 1.89-1.134 3.156 0 .624.088 1.204.264 1.731.175.536.439 1.002.782 1.398.334.404.773.711 1.3.94.528.228 1.117.343 1.776.343zm.281-1.75c-.756 0-1.344-.245-1.784-.746-.44-.493-.66-1.134-.66-1.916 0-.774.22-1.415.66-1.916.44-.493 1.028-.748 1.784-.748.791 0 1.407.255 1.837.765.43.51.65 1.143.65 1.899 0 .764-.22 1.397-.65 1.907-.43.51-1.046.756-1.837.756zM49.03 56.396c-.597 0-1.151.132-1.66.378-.52.246-.906.572-1.161.976v-1.134h-1.951V68.78h1.951v-4.913c.255.404.633.739 1.125.985s1.01.369 1.573.369c1.213 0 2.197-.405 2.971-1.23.765-.827 1.151-1.882 1.151-3.182 0-1.319-.369-2.391-1.107-3.2-.738-.808-1.696-1.212-2.892-1.212zm-.413 7.076c-.738 0-1.344-.246-1.801-.739-.458-.492-.686-1.133-.686-1.924 0-.791.228-1.433.686-1.925.457-.492 1.063-.739 1.801-.739.72 0 1.31.255 1.767.748.457.492.685 1.133.685 1.916 0 .79-.228 1.432-.685 1.924-.457.493-1.046.739-1.767.739zM54.91 65h1.969v-3.709c0-.94.193-1.67.589-2.18.386-.51.94-.773 1.643-.773.308 0 .563.017.774.035V56.58a3.32 3.32 0 00-.774-.079c-.5 0-.958.15-1.38.448-.421.299-.711.72-.852 1.283v-1.617h-1.969V65zm10.108.22c.896 0 1.687-.194 2.364-.59a3.861 3.861 0 001.538-1.581c.352-.668.527-1.415.527-2.241 0-.827-.175-1.565-.527-2.233a3.935 3.935 0 00-1.538-1.59c-.677-.387-1.468-.59-2.364-.59-1.354 0-2.426.422-3.226 1.257-.8.835-1.195 1.89-1.195 3.156 0 1.274.395 2.329 1.195 3.164s1.872 1.248 3.226 1.248zm0-1.75c-.774 0-1.38-.245-1.81-.738-.44-.492-.651-1.133-.651-1.924 0-.783.21-1.424.65-1.916.43-.493 1.037-.748 1.81-.748.774 0 1.372.255 1.811.748.44.492.66 1.133.66 1.916 0 .79-.22 1.432-.66 1.924-.44.493-1.037.739-1.81.739zm12.489-6.855v1.134a2.69 2.69 0 00-1.081-.993 3.396 3.396 0 00-1.547-.36c-.826 0-1.556.202-2.197.588a3.878 3.878 0 00-1.468 1.591c-.343.668-.51 1.415-.51 2.233 0 .835.158 1.582.475 2.24.316.66.79 1.187 1.424 1.583.632.395 1.37.589 2.223.589.528 0 1.046-.123 1.556-.37.5-.245.879-.57 1.125-.984v.914c0 .923-.202 1.582-.607 1.987-.404.404-1.02.606-1.845.606-.66 0-1.17-.123-1.538-.37a1.53 1.53 0 01-.677-1.045H70.79c.018.466.14.897.378 1.292.228.395.545.73.95.993.746.51 1.73.756 2.952.756 1.248 0 2.215-.246 2.883-.738 1.002-.73 1.512-1.934 1.512-3.621v-8.025h-1.96zm-2.4 6.856c-.738 0-1.327-.246-1.775-.747-.448-.501-.668-1.143-.668-1.916 0-.774.22-1.407.668-1.908.448-.5 1.037-.755 1.775-.755.774 0 1.38.254 1.82.764.44.51.668 1.143.668 1.899 0 .755-.229 1.388-.668 1.898-.44.51-1.046.765-1.82.765zM81.98 65h1.968v-3.709c0-.94.194-1.67.59-2.18.386-.51.94-.773 1.643-.773.307 0 .562.017.773.035V56.58a3.32 3.32 0 00-.773-.079c-.501 0-.958.15-1.38.448-.422.299-.712.72-.853 1.283v-1.617H81.98V65zm9.72.22c.528 0 1.046-.123 1.556-.37.51-.245.888-.57 1.142-.984V65h1.943v-8.385h-1.943v1.134a2.739 2.739 0 00-1.098-.993 3.396 3.396 0 00-1.547-.36c-1.275 0-2.285.421-3.041 1.256-.756.835-1.134 1.89-1.134 3.156 0 .624.088 1.204.264 1.731.176.536.44 1.002.782 1.398.334.404.773.711 1.3.94.528.229 1.117.343 1.776.343zm.281-1.75c-.755 0-1.344-.245-1.784-.746-.44-.493-.659-1.134-.659-1.916 0-.774.22-1.415.66-1.916.439-.493 1.028-.748 1.783-.748.791 0 1.407.255 1.837.765.431.51.65 1.143.65 1.899 0 .764-.219 1.397-.65 1.907-.43.51-1.046.756-1.837.756zM98.855 65h1.968v-4.447c0-.475.044-.888.132-1.222.088-.334.22-.589.396-.765.167-.175.351-.307.562-.378.202-.07.44-.114.703-.114.519 0 .905.158 1.152.475.246.316.378.817.378 1.503V65h1.968v-4.447c0-.475.044-.888.132-1.222.088-.334.211-.589.378-.765.167-.175.352-.307.554-.378.193-.07.43-.114.694-.114 1.046 0 1.573.668 1.573 1.995V65h1.96v-5.309c0-2.197-1.01-3.296-3.023-3.296-.58 0-1.108.141-1.573.422-.466.282-.8.642-1.002 1.073-.44-.993-1.319-1.495-2.646-1.495-.536 0-1.011.132-1.432.396-.422.264-.721.589-.906.993v-1.169h-1.968V65z"/><rect width="109" height="71" x="215" y="14" fill="#3884FF" rx="6"/><path fill="#fff" d="M233.303 34.402c.422 0 .773-.132 1.046-.413.272-.281.413-.624.413-1.037 0-.404-.141-.756-.413-1.037a1.412 1.412 0 00-1.046-.422c-.422 0-.774.14-1.046.422a1.413 1.413 0 00-.413 1.037c0 .413.132.756.404 1.037.273.282.624.413 1.055.413zm-1.327 13.483c.747 0 1.318-.176 1.713-.545.387-.37.589-.897.589-1.591V35.615h-1.96v9.554c0 .299-.061.519-.184.66-.123.14-.317.201-.58.201a3.22 3.22 0 01-.73-.07v1.749c.229.123.607.176 1.152.176zm8.314-3.665c.527 0 1.046-.123 1.556-.37.509-.245.887-.57 1.142-.984V44h1.943v-8.385h-1.943v1.134a2.737 2.737 0 00-1.098-.993 3.4 3.4 0 00-1.547-.36c-1.275 0-2.285.421-3.041 1.256-.756.835-1.134 1.89-1.134 3.156 0 .624.088 1.204.264 1.731a4.01 4.01 0 00.782 1.398c.334.404.773.711 1.301.94.527.228 1.116.343 1.775.343zm.281-1.75c-.756 0-1.344-.245-1.784-.746-.439-.493-.659-1.134-.659-1.916 0-.774.22-1.415.659-1.916.44-.493 1.028-.748 1.784-.748.791 0 1.407.255 1.837.765.431.51.651 1.143.651 1.899 0 .764-.22 1.397-.651 1.907-.43.51-1.046.756-1.837.756zm9.255 1.53h1.582l3.639-8.385h-2.109l-2.321 5.757-2.32-5.757h-2.109L249.826 44zm9.8.22c.527 0 1.046-.123 1.556-.37.509-.245.887-.57 1.142-.984V44h1.943v-8.385h-1.943v1.134a2.737 2.737 0 00-1.098-.993 3.4 3.4 0 00-1.547-.36c-1.275 0-2.285.421-3.041 1.256-.756.835-1.134 1.89-1.134 3.156 0 .624.088 1.204.264 1.731a4.01 4.01 0 00.782 1.398c.334.404.773.711 1.301.94.527.228 1.116.343 1.775.343zm.281-1.75c-.756 0-1.345-.245-1.784-.746-.439-.493-.659-1.134-.659-1.916 0-.774.22-1.415.659-1.916.439-.493 1.028-.748 1.784-.748.791 0 1.406.255 1.837.765.431.51.651 1.143.651 1.899 0 .764-.22 1.397-.651 1.907-.431.51-1.046.756-1.837.756zm-22.878 13.925c-.597 0-1.151.132-1.661.378-.518.246-.905.572-1.16.976v-5.352h-1.951V65h1.951v-1.134c.255.404.633.739 1.125.985s1.011.369 1.573.369c1.213 0 2.198-.405 2.971-1.23.765-.827 1.151-1.882 1.151-3.182 0-1.319-.369-2.391-1.107-3.2-.738-.808-1.696-1.212-2.892-1.212zm-.413 7.076c-.738 0-1.345-.246-1.802-.739-.457-.492-.685-1.133-.685-1.924 0-.791.228-1.433.685-1.925.457-.492 1.064-.739 1.802-.739.721 0 1.31.255 1.767.748.457.492.685 1.133.685 1.916 0 .79-.228 1.432-.685 1.924-.457.493-1.046.739-1.767.739zm12.006-6.856v4.333c0 .756-.176 1.371-.518 1.837-.343.475-.844.703-1.503.703-1.213 0-1.82-.72-1.82-2.18v-4.693h-1.96v5.107c0 1.054.264 1.898.791 2.54.528.641 1.301.958 2.303.958.615 0 1.16-.114 1.626-.352.457-.237.817-.58 1.081-1.037v1.063c0 .853-.184 1.477-.545 1.881-.369.405-.861.598-1.476.598-.607 0-1.046-.114-1.319-.343-.281-.228-.439-.589-.483-1.072h-1.978c.018.923.325 1.644.941 2.17.694.581 1.652.871 2.874.871 1.195 0 2.144-.325 2.847-.976.73-.712 1.099-1.705 1.099-2.988v-8.42h-1.96zm8.279 6.733c-.219 0-.395-.018-.527-.053a.809.809 0 01-.369-.22c-.123-.105-.202-.272-.255-.5-.053-.22-.07-.51-.07-.87V58.25h1.924v-1.635h-1.924v-2.54h-1.96v2.54h-1.424v1.635h1.424v3.902c0 .396.035.747.105 1.055.071.316.158.571.264.773.105.203.237.378.404.519.158.15.317.264.466.334.149.08.325.14.527.185.194.043.361.07.493.079.131.009.281.009.457.009.562 0 1.045-.036 1.459-.106v-1.731c-.308.052-.642.079-.994.079zm10.31-2.971c0-1.178-.378-2.136-1.116-2.874-.739-.738-1.705-1.108-2.901-1.108-1.283 0-2.302.405-3.067 1.205-.765.8-1.143 1.872-1.143 3.208 0 1.362.378 2.434 1.143 3.225.765.791 1.811 1.187 3.138 1.187 1.002 0 1.854-.246 2.575-.747.721-.492 1.142-1.134 1.274-1.925h-1.977c-.317.642-.941.958-1.872.958-.721 0-1.292-.176-1.697-.528-.404-.351-.624-.852-.641-1.52h6.222c.036-.545.062-.905.062-1.081zm-6.284-.413c.009-.598.211-1.09.606-1.46.396-.368.941-.562 1.626-.562.668 0 1.187.176 1.556.528.36.351.545.843.562 1.494h-4.35zm11.9 5.256c1.152 0 2.083-.281 2.786-.844.703-.563 1.099-1.327 1.187-2.276h-1.96c-.229.914-.905 1.37-2.013 1.37-.703 0-1.248-.228-1.635-.694-.386-.457-.58-1.116-.58-1.968 0-.844.194-1.503.58-1.97.387-.456.932-.694 1.635-.694.58 0 1.028.124 1.354.37.325.246.545.606.659 1.09h1.96c-.088-.976-.484-1.758-1.187-2.338-.703-.58-1.634-.87-2.786-.87-1.292 0-2.311.404-3.058 1.212-.748.809-1.117 1.881-1.117 3.2 0 1.327.369 2.39 1.117 3.199.747.808 1.766 1.213 3.058 1.213zm9.844 0c.896 0 1.687-.194 2.364-.59a3.856 3.856 0 001.538-1.581c.352-.668.528-1.415.528-2.241 0-.827-.176-1.565-.528-2.233a3.93 3.93 0 00-1.538-1.59c-.677-.387-1.468-.59-2.364-.59-1.354 0-2.426.422-3.226 1.257-.799.835-1.195 1.89-1.195 3.156 0 1.274.396 2.329 1.195 3.164.8.835 1.872 1.248 3.226 1.248zm0-1.75c-.774 0-1.38-.245-1.811-.738-.439-.492-.65-1.133-.65-1.924 0-.783.211-1.424.65-1.916.431-.493 1.037-.748 1.811-.748.773 0 1.371.255 1.81.748.44.492.66 1.133.66 1.916 0 .79-.22 1.432-.66 1.924-.439.493-1.037.739-1.81.739zm12.507-11.073v5.352a2.74 2.74 0 00-1.099-.993 3.396 3.396 0 00-1.547-.36c-1.274 0-2.285.421-3.041 1.256-.756.835-1.134 1.89-1.134 3.156 0 .624.088 1.204.264 1.731.176.536.44 1.002.782 1.398.334.404.774.711 1.301.94.527.229 1.116.343 1.775.343.528 0 1.046-.123 1.556-.37.51-.245.888-.57 1.143-.984V65h1.942V52.397h-1.942zm-2.417 11.074c-.756 0-1.345-.246-1.784-.747-.44-.493-.66-1.134-.66-1.916 0-.774.22-1.415.66-1.916.439-.493 1.028-.748 1.784-.748.791 0 1.406.255 1.837.765.43.51.65 1.143.65 1.899 0 .764-.22 1.397-.65 1.907-.431.51-1.046.756-1.837.756zm14.475-3.094c0-1.178-.378-2.136-1.116-2.874-.738-.738-1.705-1.108-2.9-1.108-1.283 0-2.303.405-3.068 1.205-.764.8-1.142 1.872-1.142 3.208 0 1.362.378 2.434 1.142 3.225.765.791 1.811 1.187 3.138 1.187 1.002 0 1.855-.246 2.575-.747.721-.492 1.143-1.134 1.275-1.925h-1.978c-.316.642-.94.958-1.872.958-.721 0-1.292-.176-1.696-.528-.405-.351-.624-.852-.642-1.52h6.223c.035-.545.061-.905.061-1.081zm-6.284-.413c.009-.598.211-1.09.607-1.46.395-.368.94-.562 1.626-.562.668 0 1.186.176 1.555.528.361.351.545.843.563 1.494h-4.351z"/><path fill="#000" d="M159.696 36.068c.305 0 .559-.095.756-.298.196-.203.298-.45.298-.749 0-.292-.102-.546-.298-.749a1.02 1.02 0 00-.756-.305 1.01 1.01 0 00-.755.305 1.02 1.02 0 00-.298.749c0 .298.095.546.292.749.196.203.45.298.761.298zm-.958 9.738c.539 0 .952-.127 1.238-.394.279-.267.425-.647.425-1.149v-7.319h-1.416v6.9c0 .216-.044.375-.133.476-.089.102-.228.146-.419.146-.19 0-.362-.012-.527-.05v1.263c.165.089.438.127.832.127zm6.005-2.647c.381 0 .755-.09 1.123-.267.368-.178.641-.413.825-.71V43h1.403v-6.056h-1.403v.82c-.19-.306-.45-.54-.793-.718a2.453 2.453 0 00-1.117-.26c-.921 0-1.651.304-2.197.907-.545.603-.818 1.365-.818 2.28 0 .45.063.869.19 1.25a2.9 2.9 0 00.565 1.009c.241.292.559.514.939.68a3.19 3.19 0 001.283.247zm.203-1.264c-.546 0-.971-.177-1.289-.539-.317-.355-.476-.819-.476-1.384 0-.558.159-1.022.476-1.384.318-.355.743-.54 1.289-.54.571 0 1.015.185 1.326.553.311.368.47.825.47 1.371 0 .552-.159 1.01-.47 1.378-.311.368-.755.545-1.326.545zM171.63 43h1.142l2.628-6.056h-1.523l-1.676 4.158-1.676-4.158h-1.523L171.63 43zm7.078.159c.38 0 .755-.09 1.123-.267.368-.178.641-.413.825-.71V43h1.403v-6.056h-1.403v.82c-.19-.306-.45-.54-.793-.718a2.453 2.453 0 00-1.117-.26c-.921 0-1.651.304-2.197.907s-.819 1.365-.819 2.28c0 .45.064.869.191 1.25a2.9 2.9 0 00.565 1.009c.241.292.558.514.939.68.381.164.806.247 1.283.247zm.203-1.264c-.546 0-.972-.177-1.289-.539-.317-.355-.476-.819-.476-1.384 0-.558.159-1.022.476-1.384.317-.355.743-.54 1.289-.54.571 0 1.015.185 1.326.553.311.368.47.825.47 1.371 0 .552-.159 1.01-.47 1.378-.311.368-.755.545-1.326.545zM148.562 58.16c.832 0 1.505-.203 2.013-.61.508-.406.793-.958.857-1.644h-1.416c-.165.66-.654.99-1.454.99-.507 0-.901-.165-1.18-.501-.279-.33-.419-.806-.419-1.422 0-.61.14-1.085.419-1.422.279-.33.673-.501 1.18-.501.419 0 .743.089.978.266.235.178.394.438.476.788h1.416c-.064-.705-.349-1.27-.857-1.689-.508-.419-1.181-.628-2.013-.628-.933 0-1.669.292-2.208.876-.54.584-.807 1.358-.807 2.31 0 .959.267 1.727.807 2.31.539.585 1.275.877 2.208.877zm7.11 0c.647 0 1.219-.14 1.707-.426.489-.279.857-.66 1.111-1.142a3.42 3.42 0 00.381-1.619c0-.596-.127-1.13-.381-1.612a2.842 2.842 0 00-1.111-1.15c-.488-.278-1.06-.424-1.707-.424-.978 0-1.752.304-2.33.907-.577.603-.863 1.365-.863 2.28 0 .92.286 1.681.863 2.284.578.603 1.352.902 2.33.902zm0-1.264c-.559 0-.997-.177-1.308-.533-.317-.355-.469-.819-.469-1.39 0-.565.152-1.028.469-1.384.311-.355.749-.54 1.308-.54.558 0 .99.185 1.307.54.318.356.477.82.477 1.384 0 .572-.159 1.035-.477 1.39-.317.356-.749.533-1.307.533zM160.229 58h1.422v-3.212c0-.343.032-.641.096-.882.063-.241.158-.425.285-.553.121-.126.254-.222.406-.272a1.55 1.55 0 01.508-.083c.375 0 .654.114.832.343.178.228.273.59.273 1.085V58h1.422v-3.212c0-.343.031-.641.095-.882.063-.241.152-.425.273-.553a1.02 1.02 0 01.4-.272c.139-.051.311-.083.501-.083.756 0 1.136.483 1.136 1.441V58h1.416v-3.834c0-1.587-.73-2.38-2.184-2.38-.419 0-.799.101-1.136.304a1.801 1.801 0 00-.724.775c-.317-.718-.952-1.08-1.91-1.08-.387 0-.73.096-1.035.286-.305.19-.52.426-.654.718v-.845h-1.422V58zm14.264-6.214c-.432 0-.832.095-1.2.273-.375.177-.654.412-.838.704v-.819h-1.409v8.785h1.409v-3.548c.184.292.457.533.813.711.355.178.73.267 1.136.267.876 0 1.587-.292 2.145-.889.553-.597.832-1.358.832-2.298 0-.952-.267-1.726-.8-2.31-.533-.584-1.225-.876-2.088-.876zm-.299 5.11c-.533 0-.971-.178-1.301-.534-.33-.355-.495-.819-.495-1.39s.165-1.035.495-1.39c.33-.355.768-.533 1.301-.533.521 0 .946.184 1.276.54.33.355.495.818.495 1.383 0 .572-.165 1.035-.495 1.39-.33.356-.755.533-1.276.533zm5.25-5.828c.305 0 .558-.095.755-.298.197-.203.299-.45.299-.749 0-.292-.102-.546-.299-.749a1.017 1.017 0 00-.755-.305 1.01 1.01 0 00-.756.305 1.02 1.02 0 00-.298.749c0 .298.095.546.292.749.197.203.451.298.762.298zM178.739 58h1.409v-6.056h-1.409V58zm3.225 0h1.422v-9.102h-1.422V58zm8.728-3.339c0-.85-.273-1.542-.806-2.076-.533-.533-1.232-.8-2.095-.8-.927 0-1.663.293-2.215.87-.553.578-.826 1.352-.826 2.317 0 .984.273 1.758.826 2.33.552.571 1.307.857 2.266.857.723 0 1.339-.178 1.86-.54.52-.355.825-.819.92-1.39h-1.428c-.229.463-.679.692-1.352.692-.521 0-.933-.127-1.225-.381-.292-.254-.451-.616-.464-1.098h4.494c.026-.394.045-.654.045-.78zm-4.539-.298c.007-.432.153-.787.438-1.054.286-.267.68-.406 1.175-.406.482 0 .857.127 1.123.38.26.255.394.61.406 1.08h-3.142zM192.057 58h1.422v-2.679c0-.679.139-1.206.425-1.574.279-.368.679-.559 1.187-.559a6.5 6.5 0 01.558.026v-1.295a2.395 2.395 0 00-.558-.057c-.362 0-.692.108-.997.323-.304.216-.514.521-.615.927v-1.168h-1.422V58zM355.682 44.222c.939 0 1.669-.285 2.19-.863.52-.571.787-1.346.787-2.31v-6.151h-1.498v6.15c0 .559-.127 1.01-.381 1.34-.254.33-.616.495-1.098.495-.476 0-.838-.165-1.086-.502-.254-.336-.374-.787-.374-1.345h-1.492c0 .965.26 1.739.781 2.316.52.585 1.244.87 2.171.87zm6.773-.222h1.428l3.021-9.102h-1.625l-2.107 6.747-2.108-6.748h-1.625L362.455 44zm5.427 0h1.428v-6.081L371.652 44h1.13l2.336-6.018V44h1.435v-9.102h-1.435l-2.894 6.97-2.914-6.97h-1.428V44zM548.211 44.222c1.219 0 2.228-.31 3.016-.933.787-.622 1.25-1.422 1.39-2.412h-1.638c-.146.635-.457 1.123-.927 1.479-.476.355-1.085.527-1.828.527-.996 0-1.777-.305-2.336-.927-.558-.616-.838-1.454-.838-2.507 0-1.054.28-1.886.838-2.501.559-.616 1.34-.927 2.336-.927.743 0 1.352.178 1.828.527.47.355.781.844.927 1.472h1.638c-.14-.983-.603-1.783-1.39-2.405-.788-.622-1.79-.933-3.016-.933-.971 0-1.815.21-2.532.615a3.996 3.996 0 00-1.638 1.689c-.374.717-.559 1.536-.559 2.463s.185 1.752.559 2.469a3.995 3.995 0 001.638 1.688c.717.413 1.561.616 2.532.616zm9.198-9.325h-3.351V44h1.491v-2.73h1.86c.908 0 1.657-.298 2.241-.895.584-.596.882-1.358.882-2.291 0-.927-.298-1.695-.882-2.292-.584-.596-1.333-.895-2.241-.895zm-.089 5.034h-1.771v-3.694h1.771c.495 0 .902.178 1.225.527.324.349.489.787.489 1.32s-.165.977-.489 1.327c-.323.349-.73.52-1.225.52zm7.497 4.291c1.041 0 1.866-.28 2.475-.838.604-.558.908-1.358.908-2.4v-6.087h-1.498v5.999c0 .648-.171 1.136-.508 1.479-.336.343-.793.508-1.377.508s-1.047-.165-1.384-.508c-.336-.343-.501-.831-.501-1.479v-5.998h-1.492v6.087c0 1.04.298 1.84.908 2.4.603.558 1.428.837 2.469.837z"/><rect width="109" height="71" x="406" y="14" fill="#3884FF" rx="6"/><path fill="#fff" d="M426.257 44h1.969v-4.447c0-.475.044-.888.131-1.222.088-.334.22-.589.396-.765.167-.175.351-.307.562-.378.203-.07.44-.114.704-.114.518 0 .905.158 1.151.475.246.316.378.817.378 1.503V44h1.969v-4.447c0-.475.044-.888.131-1.222.088-.334.211-.589.378-.765.167-.175.352-.307.554-.378a2.05 2.05 0 01.694-.114c1.046 0 1.574.668 1.574 1.995V44h1.96v-5.309c0-2.197-1.011-3.296-3.024-3.296-.58 0-1.107.141-1.573.422-.466.282-.8.642-1.002 1.073-.439-.993-1.318-1.495-2.646-1.495-.536 0-1.01.132-1.432.396-.422.264-.721.589-.905.993v-1.169h-1.969V44zm18.474.22c.528 0 1.046-.123 1.556-.37.51-.245.888-.57 1.143-.984V44h1.942v-8.385h-1.942v1.134a2.74 2.74 0 00-1.099-.993 3.396 3.396 0 00-1.547-.36c-1.274 0-2.285.421-3.041 1.256-.756.835-1.134 1.89-1.134 3.156 0 .624.088 1.204.264 1.731.176.536.439 1.002.782 1.398.334.404.774.711 1.301.94.527.228 1.116.343 1.775.343zm.282-1.75c-.756 0-1.345-.245-1.784-.746-.44-.493-.66-1.134-.66-1.916 0-.774.22-1.415.66-1.916.439-.493 1.028-.748 1.784-.748.791 0 1.406.255 1.837.765.43.51.65 1.143.65 1.899 0 .764-.22 1.397-.65 1.907-.431.51-1.046.756-1.837.756zm10.424 1.75c1.151 0 2.083-.282 2.786-.844.703-.563 1.098-1.327 1.186-2.276h-1.96c-.228.914-.905 1.37-2.012 1.37-.704 0-1.249-.228-1.635-.694-.387-.457-.58-1.116-.58-1.968 0-.844.193-1.503.58-1.97.386-.456.931-.694 1.635-.694.58 0 1.028.124 1.353.37.325.246.545.606.659 1.09h1.96c-.088-.976-.483-1.758-1.186-2.338-.703-.58-1.635-.87-2.786-.87-1.292 0-2.312.404-3.059 1.212-.747.809-1.116 1.881-1.116 3.2 0 1.327.369 2.39 1.116 3.199.747.808 1.767 1.213 3.059 1.213zm10.573-8.825c-.624 0-1.169.124-1.644.36a2.627 2.627 0 00-1.09 1.03v-5.388h-1.968V44h1.968v-4.605c0-.739.167-1.31.519-1.714.343-.405.835-.607 1.476-.607.668 0 1.143.202 1.424.598.273.395.413 1.046.413 1.951V44h1.96v-5.273c0-1.09-.263-1.925-.773-2.488-.519-.562-1.283-.843-2.285-.843zm6.469-.993c.421 0 .773-.132 1.045-.413.273-.281.414-.624.414-1.037 0-.404-.141-.756-.414-1.037a1.41 1.41 0 00-1.045-.422c-.422 0-.774.14-1.046.422-.282.281-.413.633-.413 1.037 0 .413.131.756.404 1.037.272.282.624.413 1.055.413zM471.503 44h1.951v-8.385h-1.951V44zm4.465 0h1.969v-4.605c0-.739.167-1.31.518-1.714.343-.405.835-.607 1.477-.607.668 0 1.142.202 1.423.598.273.395.414 1.046.414 1.951V44h1.96v-5.273c0-1.09-.264-1.925-.774-2.488-.518-.562-1.283-.843-2.285-.843-.624 0-1.169.123-1.644.36a2.618 2.618 0 00-1.089 1.028v-1.169h-1.969V44zm17.798-4.623c0-1.178-.378-2.136-1.117-2.874-.738-.738-1.705-1.108-2.9-1.108-1.283 0-2.303.405-3.067 1.205-.765.8-1.143 1.872-1.143 3.208 0 1.362.378 2.434 1.143 3.225.764.791 1.81 1.187 3.137 1.187 1.002 0 1.855-.246 2.576-.747.72-.492 1.142-1.134 1.274-1.925h-1.978c-.316.642-.94.958-1.872.958-.72 0-1.292-.176-1.696-.528-.404-.351-.624-.852-.642-1.52h6.223c.035-.545.062-.905.062-1.081zm-6.285-.413c.009-.598.211-1.09.607-1.46.395-.368.94-.562 1.626-.562.668 0 1.186.176 1.556.528.36.351.544.843.562 1.494h-4.351zM429.808 65.22c1.151 0 2.083-.281 2.786-.844.703-.563 1.098-1.327 1.186-2.276h-1.96c-.228.914-.905 1.37-2.012 1.37-.704 0-1.248-.228-1.635-.694-.387-.457-.58-1.116-.58-1.968 0-.844.193-1.503.58-1.97.387-.456.931-.694 1.635-.694.58 0 1.028.124 1.353.37.325.246.545.606.659 1.09h1.96c-.088-.976-.483-1.758-1.186-2.338-.703-.58-1.635-.87-2.786-.87-1.292 0-2.312.404-3.059 1.212-.747.809-1.116 1.881-1.116 3.2 0 1.327.369 2.39 1.116 3.199.747.808 1.767 1.213 3.059 1.213zm9.843 0c.897 0 1.688-.194 2.365-.59a3.869 3.869 0 001.538-1.581c.351-.668.527-1.415.527-2.241 0-.827-.176-1.565-.527-2.233a3.943 3.943 0 00-1.538-1.59c-.677-.387-1.468-.59-2.365-.59-1.353 0-2.425.422-3.225 1.257-.8.835-1.196 1.89-1.196 3.156 0 1.274.396 2.329 1.196 3.164.8.835 1.872 1.248 3.225 1.248zm0-1.75c-.773 0-1.38-.245-1.81-.738-.44-.492-.651-1.133-.651-1.924 0-.783.211-1.424.651-1.916.43-.493 1.037-.748 1.81-.748.774 0 1.371.255 1.811.748.439.492.659 1.133.659 1.916 0 .79-.22 1.432-.659 1.924-.44.493-1.037.739-1.811.739zm12.507-11.073v5.352a2.737 2.737 0 00-1.098-.993 3.4 3.4 0 00-1.547-.36c-1.275 0-2.285.421-3.041 1.256-.756.835-1.134 1.89-1.134 3.156 0 .624.088 1.204.264 1.731a4.01 4.01 0 00.782 1.398c.334.404.773.711 1.301.94.527.229 1.116.343 1.775.343.527 0 1.046-.123 1.556-.37.509-.245.887-.57 1.142-.984V65h1.943V52.397h-1.943zm-2.417 11.074c-.756 0-1.345-.246-1.784-.747-.439-.493-.659-1.134-.659-1.916 0-.774.22-1.415.659-1.916.439-.493 1.028-.748 1.784-.748.791 0 1.406.255 1.837.765.431.51.651 1.143.651 1.899 0 .764-.22 1.397-.651 1.907-.431.51-1.046.756-1.837.756zm14.476-3.094c0-1.178-.378-2.136-1.116-2.874-.739-.738-1.705-1.108-2.901-1.108-1.283 0-2.303.405-3.067 1.205-.765.8-1.143 1.872-1.143 3.208 0 1.362.378 2.434 1.143 3.225.764.791 1.81 1.187 3.138 1.187 1.001 0 1.854-.246 2.575-.747.72-.492 1.142-1.134 1.274-1.925h-1.977c-.317.642-.941.958-1.872.958-.721 0-1.292-.176-1.697-.528-.404-.351-.624-.852-.641-1.52h6.222c.035-.545.062-.905.062-1.081zm-6.284-.413c.008-.598.211-1.09.606-1.46.396-.368.94-.562 1.626-.562.668 0 1.187.176 1.556.528.36.351.545.843.562 1.494h-4.35z"/><rect width="109" height="71" x="597" y="14" fill="#3884FF" rx="6"/><path fill="#fff" d="M629.054 55.22c.896 0 1.687-.194 2.364-.59a3.863 3.863 0 001.538-1.581c.352-.668.527-1.415.527-2.241 0-.827-.175-1.565-.527-2.233a3.937 3.937 0 00-1.538-1.59c-.677-.387-1.468-.59-2.364-.59-1.354 0-2.426.422-3.226 1.257-.8.835-1.195 1.89-1.195 3.156 0 1.274.395 2.329 1.195 3.164s1.872 1.248 3.226 1.248zm0-1.75c-.774 0-1.38-.245-1.811-.738-.439-.492-.65-1.133-.65-1.924 0-.783.211-1.424.65-1.916.431-.493 1.037-.748 1.811-.748.773 0 1.371.255 1.81.748.44.492.659 1.133.659 1.916 0 .79-.219 1.432-.659 1.924-.439.493-1.037.739-1.81.739zm9.334 1.75c1.213 0 2.074-.457 2.592-1.389V55h1.969v-8.385h-1.969v4.729c0 .659-.167 1.186-.492 1.59-.325.405-.835.607-1.538.607-.615 0-1.054-.176-1.318-.536-.264-.36-.396-.897-.396-1.608v-4.782h-1.96v5.274c0 1.09.282 1.924.844 2.487.563.563 1.318.844 2.268.844zm10.863-1.872c-.22 0-.396-.018-.527-.053a.817.817 0 01-.37-.22c-.123-.105-.202-.272-.254-.5-.053-.22-.071-.51-.071-.87V48.25h1.925v-1.635h-1.925v-2.54h-1.96v2.54h-1.423v1.635h1.423v3.902c0 .396.035.747.106 1.055.07.316.158.571.263.773.106.203.238.378.405.519.158.15.316.264.466.334.149.08.325.14.527.185.193.044.36.07.492.079.132.008.281.008.457.008a8.78 8.78 0 001.459-.105v-1.731a5.9 5.9 0 01-.993.079zm7.567-6.953c-.597 0-1.151.132-1.661.378-.518.246-.905.572-1.16.976v-1.134h-1.951V58.78h1.951v-4.913c.255.404.633.739 1.125.985s1.011.369 1.573.369c1.213 0 2.198-.405 2.971-1.23.765-.827 1.151-1.882 1.151-3.182 0-1.319-.369-2.391-1.107-3.2-.738-.808-1.696-1.212-2.892-1.212zm-.413 7.076c-.738 0-1.344-.246-1.801-.739-.458-.492-.686-1.133-.686-1.924 0-.791.228-1.433.686-1.925.457-.492 1.063-.739 1.801-.739.721 0 1.31.255 1.767.748.457.492.685 1.133.685 1.916 0 .79-.228 1.432-.685 1.924-.457.493-1.046.739-1.767.739zm9.317 1.749c1.213 0 2.074-.457 2.592-1.389V55h1.969v-8.385h-1.969v4.729c0 .659-.167 1.186-.492 1.59-.325.405-.835.607-1.538.607-.615 0-1.055-.176-1.318-.536-.264-.36-.396-.897-.396-1.608v-4.782h-1.96v5.274c0 1.09.282 1.924.844 2.487.563.563 1.318.844 2.268.844zm10.863-1.872c-.22 0-.396-.018-.527-.053a.817.817 0 01-.37-.22c-.123-.105-.202-.272-.254-.5-.053-.22-.071-.51-.071-.87V48.25h1.925v-1.635h-1.925v-2.54h-1.96v2.54h-1.424v1.635h1.424v3.902c0 .396.035.747.106 1.055.07.316.158.571.263.773.106.203.238.378.405.519.158.15.316.264.466.334.149.08.325.14.527.185.193.044.36.07.492.079.132.008.281.008.457.008a8.78 8.78 0 001.459-.105v-1.731a5.9 5.9 0 01-.993.079z"/></svg>