<svg xmlns="http://www.w3.org/2000/svg" width="354" height="99" fill="none" viewBox="0 0 354 99"><rect width="353" height="98" x=".5" y=".5" fill="#FDFFFD" stroke="#C4C4C4" rx="4.5"/><rect width="311" height="57" x="21" y="31" fill="#B6D2FF" rx="4"/><rect width="92" height="42" x="40" y="38" fill="#3884FF" rx="3"/><path fill="#fff" d="M72.447 64.308c1.301 0 2.312-.396 3.032-1.196.721-.79 1.09-1.863 1.09-3.199v-8.516h-2.074v8.516c0 .774-.176 1.398-.527 1.855-.352.457-.853.685-1.52.685-.66 0-1.16-.228-1.504-.694-.351-.466-.518-1.09-.518-1.864H68.36c0 1.336.36 2.409 1.081 3.208.721.81 1.723 1.205 3.006 1.205zM81.825 64h1.978l4.183-12.603h-2.25l-2.918 9.342-2.918-9.342h-2.25L81.825 64zm7.515 0h1.977v-8.42L94.561 64h1.564l3.234-8.332V64h1.987V51.397h-1.987l-4.007 9.65-4.035-9.65H89.34V64z"/><path fill="#000" d="M163.006 64.616h3.12v-4.6h4.497v-2.9h-4.497v-4.629h-3.12v4.63h-4.512v2.9h4.512v4.6zM205.181 65.308c1.687 0 3.085-.431 4.174-1.292 1.09-.862 1.732-1.97 1.925-3.34h-2.267c-.202.879-.633 1.555-1.284 2.048-.659.492-1.502.73-2.531.73-1.38 0-2.461-.423-3.234-1.284-.774-.853-1.16-2.013-1.16-3.472s.386-2.61 1.16-3.463c.773-.852 1.854-1.283 3.234-1.283 1.029 0 1.872.246 2.531.73.651.492 1.082 1.169 1.284 2.039h2.267c-.193-1.363-.835-2.47-1.925-3.331-1.089-.862-2.478-1.292-4.174-1.292-1.345 0-2.514.29-3.507.852a5.538 5.538 0 00-2.268 2.338c-.518.993-.773 2.127-.773 3.41 0 1.283.255 2.426.773 3.42a5.538 5.538 0 002.268 2.337c.993.571 2.162.853 3.507.853zm7.998-.308h1.968V52.397h-1.968V65zm7.98.22c.528 0 1.046-.123 1.556-.37.51-.245.888-.57 1.142-.984V65h1.943v-8.385h-1.943v1.134a2.737 2.737 0 00-1.098-.993 3.4 3.4 0 00-1.547-.36c-1.274 0-2.285.421-3.041 1.256-.756.835-1.134 1.89-1.134 3.156 0 .624.088 1.204.264 1.731.176.536.439 1.002.782 1.398.334.404.773.711 1.301.94.527.229 1.116.343 1.775.343zm.281-1.75c-.755 0-1.344-.245-1.784-.746-.439-.493-.659-1.134-.659-1.916 0-.774.22-1.415.659-1.916.44-.493 1.029-.748 1.784-.748.791 0 1.407.255 1.837.765.431.51.651 1.143.651 1.899 0 .764-.22 1.397-.651 1.907-.43.51-1.046.756-1.837.756zm9.809 1.75c1.02 0 1.819-.229 2.417-.695.598-.457.896-1.098.896-1.916 0-.58-.175-1.08-.518-1.503-.352-.421-.826-.72-1.424-.896l-1.679-.483c-.378-.106-.641-.229-.799-.387a.792.792 0 01-.238-.589c0-.246.106-.457.334-.615.229-.159.519-.246.87-.246.457 0 .809.105 1.073.298.255.194.386.466.386.818h1.925c0-.809-.299-1.441-.888-1.907-.597-.466-1.406-.703-2.425-.703-.941 0-1.714.237-2.321.703-.606.466-.905 1.054-.905 1.766 0 .598.158 1.099.475 1.503.316.404.773.694 1.362.853l1.679.448c.422.114.712.246.87.396a.83.83 0 01.228.597.884.884 0 01-.334.72c-.219.177-.509.265-.879.265-.509 0-.914-.106-1.23-.334-.316-.229-.475-.52-.475-.888h-1.96c0 .808.334 1.476 1.011 2.004.668.527 1.521.79 2.549.79zm8.227 0c1.019 0 1.819-.229 2.417-.695.597-.457.896-1.098.896-1.916 0-.58-.176-1.08-.518-1.503-.352-.421-.827-.72-1.424-.896l-1.679-.483c-.378-.106-.642-.229-.8-.387a.795.795 0 01-.237-.589c0-.246.105-.457.334-.615.228-.159.518-.246.87-.246.457 0 .809.105 1.072.298.255.194.387.466.387.818h1.925c0-.809-.299-1.441-.888-1.907-.598-.466-1.406-.703-2.426-.703-.94 0-1.714.237-2.32.703-.606.466-.905 1.054-.905 1.766 0 .598.158 1.099.474 1.503.317.404.774.694 1.363.853l1.678.448c.422.114.712.246.87.396.15.158.229.351.229.597a.884.884 0 01-.334.72c-.22.177-.51.265-.879.265-.51 0-.914-.106-1.23-.334-.317-.229-.475-.52-.475-.888h-1.96c0 .808.334 1.476 1.011 2.004.668.527 1.52.79 2.549.79zm9.887-.22h7.128v-1.942h-5.062V52.397h-2.066V65zm10.073-9.598c.421 0 .773-.132 1.045-.413.273-.281.414-.624.414-1.037 0-.404-.141-.756-.414-1.037a1.41 1.41 0 00-1.045-.422c-.422 0-.774.14-1.046.422-.282.281-.413.633-.413 1.037 0 .413.131.756.404 1.037.272.282.624.413 1.055.413zM258.46 65h1.951v-8.385h-1.951V65zm9.237-8.605c-.597 0-1.151.132-1.661.378-.518.246-.905.572-1.16.976v-5.352h-1.951V65h1.951v-1.134c.255.404.633.739 1.125.985s1.011.369 1.573.369c1.213 0 2.197-.405 2.971-1.23.765-.827 1.151-1.882 1.151-3.182 0-1.319-.369-2.391-1.107-3.2-.738-.808-1.696-1.212-2.892-1.212zm-.413 7.076c-.738 0-1.345-.246-1.802-.739-.457-.492-.685-1.133-.685-1.924 0-.791.228-1.433.685-1.925.457-.492 1.064-.739 1.802-.739.721 0 1.31.255 1.767.748.457.492.685 1.133.685 1.916 0 .79-.228 1.432-.685 1.924-.457.493-1.046.739-1.767.739zM273.577 65h1.969v-3.709c0-.94.193-1.67.589-2.18.386-.51.94-.773 1.643-.773.308 0 .563.017.774.035V56.58a3.327 3.327 0 00-.774-.079c-.501 0-.958.15-1.38.448-.421.299-.711.72-.852 1.283v-1.617h-1.969V65zm9.721.22c.527 0 1.046-.123 1.556-.37.509-.245.887-.57 1.142-.984V65h1.942v-8.385h-1.942v1.134a2.74 2.74 0 00-1.099-.993 3.392 3.392 0 00-1.546-.36c-1.275 0-2.286.421-3.041 1.256-.756.835-1.134 1.89-1.134 3.156 0 .624.088 1.204.263 1.731.176.536.44 1.002.783 1.398.334.404.773.711 1.3.94.528.229 1.117.343 1.776.343zm.281-1.75c-.756 0-1.345-.245-1.784-.746-.44-.493-.659-1.134-.659-1.916 0-.774.219-1.415.659-1.916.439-.493 1.028-.748 1.784-.748.791 0 1.406.255 1.837.765.431.51.65 1.143.65 1.899 0 .764-.219 1.397-.65 1.907-.431.51-1.046.756-1.837.756zm6.873 1.53h1.969v-3.709c0-.94.193-1.67.589-2.18.386-.51.94-.773 1.643-.773.308 0 .563.017.774.035V56.58a3.327 3.327 0 00-.774-.079c-.501 0-.958.15-1.38.448-.421.299-.711.72-.852 1.283v-1.617h-1.969V65zm7.568-9.598c.421 0 .773-.132 1.045-.413.273-.281.414-.624.414-1.037 0-.404-.141-.756-.414-1.037a1.41 1.41 0 00-1.045-.422c-.422 0-.774.14-1.046.422-.282.281-.413.633-.413 1.037 0 .413.131.756.404 1.037.272.282.624.413 1.055.413zM297.044 65h1.951v-8.385h-1.951V65zm12.067-4.623c0-1.178-.378-2.136-1.116-2.874-.738-.738-1.705-1.108-2.9-1.108-1.283 0-2.303.405-3.068 1.205-.764.8-1.142 1.872-1.142 3.208 0 1.362.378 2.434 1.142 3.225.765.791 1.811 1.187 3.138 1.187 1.002 0 1.855-.246 2.575-.747.721-.492 1.143-1.134 1.275-1.925h-1.978c-.316.642-.94.958-1.872.958-.721 0-1.292-.176-1.696-.528-.405-.351-.624-.852-.642-1.52h6.223c.035-.545.061-.905.061-1.081zm-6.284-.413c.009-.598.211-1.09.607-1.46.395-.368.94-.562 1.626-.562.668 0 1.186.176 1.555.528.361.351.545.843.563 1.494h-4.351zm11.11 5.256c1.019 0 1.819-.229 2.417-.695.597-.457.896-1.098.896-1.916 0-.58-.176-1.08-.519-1.503-.351-.421-.826-.72-1.423-.896l-1.679-.483c-.378-.106-.642-.229-.8-.387a.795.795 0 01-.237-.589c0-.246.105-.457.334-.615.228-.159.518-.246.87-.246.457 0 .808.105 1.072.298.255.194.387.466.387.818h1.925c0-.809-.299-1.441-.888-1.907-.598-.466-1.406-.703-2.426-.703-.94 0-1.714.237-2.32.703-.607.466-.905 1.054-.905 1.766 0 .598.158 1.099.474 1.503.317.404.774.694 1.363.853l1.678.448c.422.114.712.246.87.396.15.158.229.351.229.597a.884.884 0 01-.334.72c-.22.177-.51.265-.879.265-.51 0-.914-.106-1.23-.334-.317-.229-.475-.52-.475-.888h-1.96c0 .808.334 1.476 1.011 2.004.668.527 1.52.79 2.549.79zM152.941 24.342c1.446 0 2.569-.44 3.37-1.328.8-.88 1.21-2.07 1.21-3.555V9.996h-2.304v9.463c0 .86-.196 1.553-.586 2.06-.391.508-.947.762-1.69.762-.732 0-1.289-.254-1.67-.771-.39-.518-.576-1.211-.576-2.07H148.4c0 1.484.401 2.675 1.202 3.564.8.898 1.914 1.338 3.339 1.338zm17.247-9.444c0-1.425-.459-2.607-1.358-3.525-.898-.918-2.051-1.377-3.447-1.377h-5.156V24h2.294v-4.2h2.266l2.559 4.2h2.617l-2.764-4.521a4.432 4.432 0 002.178-1.739c.537-.82.811-1.767.811-2.842zm-7.667-2.841h2.725c.762 0 1.387.273 1.885.81s.752 1.211.752 2.031c0 .82-.254 1.504-.752 2.041-.498.538-1.123.801-1.885.801h-2.725v-5.683zM172.395 24h8.076v-2.06h-5.782v-3.858h5.782v-2.06h-5.782v-3.965h5.782v-2.06h-8.076V24z"/></svg>