<svg xmlns="http://www.w3.org/2000/svg" width="411" height="346" fill="none"><rect width="410" height="345" x=".5" y=".5" fill="#FDFFFD" stroke="#C4C4C4" rx="4.5"/><rect width="368" height="290" x="21" y="39" fill="#B6D2FF" rx="5"/><rect width="220" height="118" x="93" y="60" fill="#7CAEFF" rx="3"/><rect width="169" height="37" x="119" y="129" fill="#3884FF" rx="2"/><rect width="169" height="37" x="119" y="72" fill="#3884FF" rx="2"/><rect width="220" height="105" x="93" y="207" fill="#7CAEFF" rx="3"/><path fill="#000" d="M179.941 34.342c1.446 0 2.569-.44 3.37-1.328.8-.88 1.21-2.07 1.21-3.555v-9.463h-2.304v9.463c0 .86-.196 1.553-.586 2.06-.391.508-.947.762-1.69.762-.732 0-1.289-.254-1.67-.771-.39-.518-.576-1.211-.576-2.07H175.4c0 1.484.401 2.675 1.202 3.564.8.898 1.914 1.338 3.339 1.338zm7.286-.342h4.736c.898 0 1.738-.117 2.51-.371.761-.254 1.425-.596 1.982-1.045a6.872 6.872 0 001.416-1.543c.391-.586.674-1.23.869-1.914a8.039 8.039 0 00.283-2.129c0-.732-.097-1.445-.283-2.129a6.715 6.715 0 00-.869-1.904 7.137 7.137 0 00-1.416-1.553c-.557-.44-1.221-.781-1.982-1.035a8.002 8.002 0 00-2.51-.38h-4.736V34zm2.294-2.06v-9.883h2.237c.82 0 1.553.146 2.197.42a4.002 4.002 0 011.543 1.123c.381.468.674.996.869 1.572.195.576.293 1.181.293 1.826s-.098 1.26-.293 1.836a5.048 5.048 0 01-.869 1.572c-.391.469-.898.85-1.543 1.123-.644.274-1.377.41-2.197.41h-2.237zm22.032-11.944h-2.901l-5.224 6.328v-6.328h-2.295V34h2.295v-6.28l5.205 6.28h2.92l-6.026-7.1 6.026-6.904zM47.941 119.342c1.446 0 2.569-.44 3.37-1.328.8-.879 1.21-2.071 1.21-3.555v-9.463h-2.304v9.463c0 .859-.195 1.553-.586 2.061-.39.507-.947.761-1.69.761-.732 0-1.289-.254-1.67-.771-.39-.518-.576-1.211-.576-2.071H43.4c0 1.485.4 2.676 1.202 3.565.8.898 1.914 1.338 3.34 1.338zm17.246-9.444c0-1.425-.459-2.607-1.357-3.525-.898-.918-2.05-1.377-3.447-1.377h-5.156V119h2.295v-4.199h2.265L62.346 119h2.617l-2.764-4.521a4.43 4.43 0 002.178-1.739c.537-.82.81-1.767.81-2.842zm-7.665-2.841h2.724c.762 0 1.387.273 1.885.81s.752 1.211.752 2.031c0 .821-.254 1.504-.752 2.041-.498.538-1.123.801-1.885.801h-2.724v-5.683zM67.394 119h8.077v-2.061h-5.782v-3.857h5.782v-2.061h-5.782v-3.964h5.782v-2.061h-8.077V119z"/><path fill="#E6ECF1" d="M190.447 96.308c1.301 0 2.312-.396 3.032-1.196.721-.79 1.09-1.863 1.09-3.199v-8.516h-2.074v8.516c0 .773-.176 1.398-.527 1.855-.352.457-.853.685-1.521.685-.659 0-1.16-.228-1.503-.694-.351-.466-.518-1.09-.518-1.864h-2.066c0 1.336.361 2.409 1.081 3.209.721.808 1.723 1.204 3.006 1.204zm9.378-.308h1.978l4.183-12.603h-2.25l-2.918 9.342-2.918-9.343h-2.25L199.825 96zm7.515 0h1.977v-8.42l3.244 8.42h1.564l3.234-8.332V96h1.987V83.397h-1.987l-4.007 9.65-4.035-9.65h-1.977V96zM152.181 152.308c1.687 0 3.085-.431 4.174-1.292 1.09-.862 1.732-1.969 1.925-3.34h-2.267c-.202.879-.633 1.555-1.284 2.048-.659.492-1.502.729-2.531.729-1.38 0-2.461-.422-3.234-1.283-.774-.853-1.16-2.013-1.16-3.472s.386-2.61 1.16-3.463c.773-.852 1.854-1.283 3.234-1.283 1.029 0 1.872.246 2.531.73.651.492 1.082 1.169 1.284 2.039h2.267c-.193-1.363-.835-2.47-1.925-3.331-1.089-.862-2.478-1.292-4.174-1.292-1.345 0-2.514.29-3.507.852a5.542 5.542 0 00-2.268 2.338c-.518.993-.773 2.127-.773 3.41 0 1.283.255 2.426.773 3.419a5.536 5.536 0 002.268 2.338c.993.571 2.162.853 3.507.853zm7.998-.308h1.968v-12.604h-1.968V152zm7.98.22c.528 0 1.046-.123 1.556-.369.51-.247.888-.572 1.142-.985V152h1.943v-8.385h-1.943v1.134a2.735 2.735 0 00-1.098-.993 3.403 3.403 0 00-1.547-.36c-1.274 0-2.285.421-3.041 1.256-.756.835-1.134 1.89-1.134 3.156 0 .624.088 1.204.264 1.731.176.536.439 1.002.782 1.398.334.404.773.711 1.301.94.527.228 1.116.343 1.775.343zm.281-1.749c-.755 0-1.344-.246-1.784-.747-.439-.493-.659-1.134-.659-1.916 0-.774.22-1.415.659-1.916.44-.493 1.029-.747 1.784-.747.791 0 1.407.254 1.837.764.431.51.651 1.143.651 1.899 0 .764-.22 1.397-.651 1.907-.43.51-1.046.756-1.837.756zm9.809 1.749c1.02 0 1.819-.229 2.417-.695.598-.457.896-1.098.896-1.916 0-.58-.175-1.081-.518-1.503-.352-.421-.826-.72-1.424-.896l-1.679-.483c-.378-.106-.641-.229-.799-.387a.793.793 0 01-.238-.589c0-.246.106-.457.334-.615.229-.158.519-.246.87-.246.457 0 .809.105 1.073.298.255.194.386.466.386.818h1.925c0-.809-.299-1.442-.888-1.907-.597-.466-1.406-.703-2.425-.703-.941 0-1.714.237-2.321.703-.606.465-.905 1.054-.905 1.766 0 .598.158 1.099.475 1.503.316.404.773.694 1.362.853l1.679.448c.422.114.712.246.87.395a.833.833 0 01.228.598.884.884 0 01-.334.721c-.219.176-.509.263-.879.263-.509 0-.914-.105-1.23-.334-.316-.228-.475-.518-.475-.887h-1.96c0 .808.334 1.476 1.011 2.004.668.527 1.521.791 2.549.791zm8.227 0c1.019 0 1.819-.229 2.417-.695.597-.457.896-1.098.896-1.916 0-.58-.176-1.081-.518-1.503-.352-.421-.827-.72-1.424-.896l-1.679-.483c-.378-.106-.642-.229-.8-.387a.796.796 0 01-.237-.589c0-.246.105-.457.334-.615.228-.158.518-.246.87-.246.457 0 .809.105 1.072.298.255.194.387.466.387.818h1.925c0-.809-.299-1.442-.888-1.907-.598-.466-1.406-.703-2.426-.703-.94 0-1.714.237-2.32.703-.606.465-.905 1.054-.905 1.766 0 .598.158 1.099.474 1.503.317.404.774.694 1.363.853l1.678.448c.422.114.712.246.87.395a.83.83 0 01.229.598.884.884 0 01-.334.721c-.22.176-.51.263-.879.263-.51 0-.914-.105-1.23-.334-.317-.228-.475-.518-.475-.887h-1.96c0 .808.334 1.476 1.011 2.004.668.527 1.52.791 2.549.791zm9.887-.22h7.128v-1.942h-5.062v-10.662h-2.066V152zm10.073-9.598c.421 0 .773-.131 1.045-.413a1.43 1.43 0 00.414-1.037c0-.404-.141-.756-.414-1.037a1.411 1.411 0 00-1.045-.422c-.422 0-.774.141-1.046.422-.282.281-.413.633-.413 1.037 0 .413.131.756.404 1.037.272.282.624.413 1.055.413zM205.46 152h1.951v-8.385h-1.951V152zm9.237-8.604a3.78 3.78 0 00-1.661.377c-.518.247-.905.572-1.16.976v-5.353h-1.951V152h1.951v-1.134c.255.405.633.738 1.125.985a3.454 3.454 0 001.573.369c1.213 0 2.197-.405 2.971-1.231.765-.826 1.151-1.881 1.151-3.181 0-1.319-.369-2.391-1.107-3.2-.738-.808-1.696-1.212-2.892-1.212zm-.413 7.075c-.738 0-1.345-.246-1.802-.739-.457-.492-.685-1.133-.685-1.924 0-.791.228-1.433.685-1.925.457-.492 1.064-.738 1.802-.738.721 0 1.31.254 1.767.747.457.492.685 1.133.685 1.916 0 .791-.228 1.432-.685 1.924-.457.493-1.046.739-1.767.739zm6.293 1.529h1.969v-3.709c0-.94.193-1.67.589-2.18.386-.509.94-.773 1.643-.773.308 0 .563.017.774.035v-1.793a3.316 3.316 0 00-.774-.079 2.33 2.33 0 00-1.38.448c-.421.299-.711.721-.852 1.283v-1.617h-1.969V152zm9.721.22c.527 0 1.046-.123 1.556-.369.509-.247.887-.572 1.142-.985V152h1.942v-8.385h-1.942v1.134a2.738 2.738 0 00-1.099-.993 3.395 3.395 0 00-1.546-.36c-1.275 0-2.286.421-3.041 1.256-.756.835-1.134 1.89-1.134 3.156 0 .624.088 1.204.263 1.731.176.536.44 1.002.783 1.398.334.404.773.711 1.3.94.528.228 1.117.343 1.776.343zm.281-1.749c-.756 0-1.345-.246-1.784-.747-.44-.493-.659-1.134-.659-1.916 0-.774.219-1.415.659-1.916.439-.493 1.028-.747 1.784-.747.791 0 1.406.254 1.837.764.431.51.65 1.143.65 1.899 0 .764-.219 1.397-.65 1.907-.431.51-1.046.756-1.837.756zm6.873 1.529h1.969v-3.709c0-.94.193-1.67.589-2.18.386-.509.94-.773 1.643-.773.308 0 .563.017.774.035v-1.793a3.316 3.316 0 00-.774-.079 2.33 2.33 0 00-1.38.448c-.421.299-.711.721-.852 1.283v-1.617h-1.969V152zm7.568-9.598c.421 0 .773-.131 1.045-.413a1.43 1.43 0 00.414-1.037c0-.404-.141-.756-.414-1.037a1.411 1.411 0 00-1.045-.422c-.422 0-.774.141-1.046.422-.282.281-.413.633-.413 1.037 0 .413.131.756.404 1.037.272.282.624.413 1.055.413zm-.976 9.598h1.951v-8.385h-1.951V152zm12.067-4.623c0-1.178-.378-2.136-1.116-2.874-.738-.738-1.705-1.107-2.9-1.107-1.283 0-2.303.404-3.068 1.204-.764.799-1.142 1.872-1.142 3.208 0 1.362.378 2.434 1.142 3.225.765.791 1.811 1.187 3.138 1.187 1.002 0 1.855-.246 2.575-.747.721-.493 1.143-1.134 1.275-1.925h-1.978c-.316.641-.94.958-1.872.958-.721 0-1.292-.176-1.696-.527-.405-.352-.624-.853-.642-1.521h6.223c.035-.545.061-.905.061-1.081zm-6.284-.413c.009-.598.211-1.09.607-1.459.395-.369.94-.563 1.626-.563.668 0 1.186.176 1.555.528.361.351.545.843.563 1.494h-4.351zm11.11 5.256c1.019 0 1.819-.229 2.417-.695.597-.457.896-1.098.896-1.916 0-.58-.176-1.081-.519-1.503-.351-.421-.826-.72-1.423-.896l-1.679-.483c-.378-.106-.642-.229-.8-.387a.796.796 0 01-.237-.589c0-.246.105-.457.334-.615.228-.158.518-.246.87-.246.457 0 .808.105 1.072.298.255.194.387.466.387.818h1.925c0-.809-.299-1.442-.888-1.907-.598-.466-1.406-.703-2.426-.703-.94 0-1.714.237-2.32.703-.607.465-.905 1.054-.905 1.766 0 .598.158 1.099.474 1.503.317.404.774.694 1.363.853l1.678.448c.422.114.712.246.87.395a.83.83 0 01.229.598.884.884 0 01-.334.721c-.22.176-.51.263-.879.263-.51 0-.914-.105-1.23-.334-.317-.228-.475-.518-.475-.887h-1.96c0 .808.334 1.476 1.011 2.004.668.527 1.52.791 2.549.791z"/><path fill="#fff" d="M168.181 234.308c1.687 0 3.085-.431 4.174-1.292 1.09-.862 1.732-1.969 1.925-3.34h-2.267c-.202.879-.633 1.555-1.284 2.048-.659.492-1.502.729-2.531.729-1.38 0-2.461-.422-3.234-1.283-.774-.853-1.16-2.013-1.16-3.472s.386-2.61 1.16-3.463c.773-.852 1.854-1.283 3.234-1.283 1.029 0 1.872.246 2.531.73.651.492 1.082 1.169 1.284 2.039h2.267c-.193-1.363-.835-2.47-1.925-3.331-1.089-.862-2.478-1.292-4.174-1.292-1.345 0-2.514.29-3.507.852a5.542 5.542 0 00-2.268 2.338c-.518.993-.773 2.127-.773 3.41 0 1.283.255 2.426.773 3.419a5.536 5.536 0 002.268 2.338c.993.571 2.162.853 3.507.853zm11.97-.088c.897 0 1.688-.194 2.365-.589a3.87 3.87 0 001.538-1.582c.351-.668.527-1.415.527-2.241 0-.827-.176-1.565-.527-2.233a3.947 3.947 0 00-1.538-1.591c-.677-.386-1.468-.588-2.365-.588-1.353 0-2.425.421-3.225 1.256-.8.835-1.196 1.89-1.196 3.156 0 1.274.396 2.329 1.196 3.164.8.835 1.872 1.248 3.225 1.248zm0-1.749c-.773 0-1.38-.246-1.81-.739-.44-.492-.651-1.133-.651-1.924 0-.783.211-1.424.651-1.916.43-.493 1.037-.747 1.81-.747.774 0 1.371.254 1.811.747.439.492.659 1.133.659 1.916 0 .791-.22 1.432-.659 1.924-.44.493-1.037.739-1.811.739zm6.311 1.529h1.969v-4.447c0-.475.044-.888.131-1.222.088-.334.22-.589.396-.765.167-.175.352-.307.563-.378.202-.07.439-.114.703-.114.518 0 .905.158 1.151.475.246.316.378.817.378 1.503V234h1.969v-4.447c0-.475.044-.888.132-1.222.087-.334.21-.589.377-.765.167-.175.352-.307.554-.378.194-.07.431-.114.694-.114 1.046 0 1.574.668 1.574 1.995V234h1.96v-5.309c0-2.197-1.011-3.295-3.024-3.295-.58 0-1.107.14-1.573.421-.466.282-.8.642-1.002 1.073-.439-.994-1.318-1.494-2.645-1.494-.537 0-1.011.131-1.433.395-.422.264-.721.589-.905.993v-1.169h-1.969V234zm19.749-8.604c-.598 0-1.151.131-1.661.377-.519.247-.905.572-1.16.976v-1.134h-1.952v12.164h1.952v-4.913c.255.405.632.738 1.125.985a3.45 3.45 0 001.573.369c1.213 0 2.197-.405 2.971-1.231.764-.826 1.151-1.881 1.151-3.181 0-1.319-.369-2.391-1.107-3.2-.739-.808-1.697-1.212-2.892-1.212zm-.413 7.075c-.738 0-1.345-.246-1.802-.739-.457-.492-.685-1.133-.685-1.924 0-.791.228-1.433.685-1.925.457-.492 1.064-.738 1.802-.738.721 0 1.309.254 1.766.747.457.492.686 1.133.686 1.916 0 .791-.229 1.432-.686 1.924-.457.493-1.045.739-1.766.739zm7.268-8.069c.422 0 .774-.131 1.046-.413a1.43 1.43 0 00.413-1.037c0-.404-.14-.756-.413-1.037a1.412 1.412 0 00-1.046-.422c-.421 0-.773.141-1.045.422a1.41 1.41 0 00-.414 1.037c0 .413.132.756.405 1.037.272.282.624.413 1.054.413zm-.975 9.598h1.951v-8.385h-1.951V234zm4.465 0h1.968v-12.604h-1.968V234zm12.085-4.623c0-1.178-.378-2.136-1.117-2.874-.738-.738-1.705-1.107-2.9-1.107-1.283 0-2.303.404-3.067 1.204-.765.799-1.143 1.872-1.143 3.208 0 1.362.378 2.434 1.143 3.225.764.791 1.81 1.187 3.137 1.187 1.002 0 1.855-.246 2.576-.747.72-.493 1.142-1.134 1.274-1.925h-1.978c-.316.641-.94.958-1.872.958-.72 0-1.292-.176-1.696-.527-.404-.352-.624-.853-.642-1.521h6.223c.035-.545.062-.905.062-1.081zm-6.285-.413c.009-.598.211-1.09.607-1.459.395-.369.94-.563 1.626-.563.668 0 1.186.176 1.556.528.36.351.544.843.562 1.494h-4.351zM230.53 234h1.969v-3.709c0-.94.193-1.67.589-2.18.387-.509.94-.773 1.643-.773.308 0 .563.017.774.035v-1.793a3.316 3.316 0 00-.774-.079c-.501 0-.958.149-1.379.448-.422.299-.712.721-.853 1.283v-1.617h-1.969V234zm9.352.22c1.019 0 1.819-.229 2.417-.695.597-.457.896-1.098.896-1.916 0-.58-.175-1.081-.518-1.503-.352-.421-.826-.72-1.424-.896l-1.679-.483c-.378-.106-.641-.229-.8-.387a.796.796 0 01-.237-.589c0-.246.106-.457.334-.615.229-.158.519-.246.87-.246.457 0 .809.105 1.072.298.255.194.387.466.387.818h1.925c0-.809-.299-1.442-.888-1.907-.597-.466-1.406-.703-2.425-.703-.941 0-1.714.237-2.321.703-.606.465-.905 1.054-.905 1.766 0 .598.158 1.099.475 1.503.316.404.773.694 1.362.853l1.679.448c.421.114.711.246.87.395a.833.833 0 01.228.598.884.884 0 01-.334.721c-.22.176-.51.263-.879.263-.509 0-.914-.105-1.23-.334-.317-.228-.475-.518-.475-.887h-1.96c0 .808.334 1.476 1.011 2.004.668.527 1.521.791 2.549.791zM159.354 265h4.262c.809 0 1.565-.105 2.259-.334.686-.228 1.283-.536 1.784-.94a6.217 6.217 0 001.275-1.389 6.134 6.134 0 00.782-1.723 7.3 7.3 0 000-3.832 6.094 6.094 0 00-.782-1.714 6.435 6.435 0 00-1.275-1.397c-.501-.396-1.098-.703-1.784-.932a7.212 7.212 0 00-2.259-.343h-4.262V265zm2.065-1.854v-8.895h2.013a5.02 5.02 0 011.977.378c.58.246 1.037.589 1.389 1.011.343.422.606.896.782 1.415a5.06 5.06 0 01.264 1.643c0 .58-.088 1.134-.264 1.653a4.56 4.56 0 01-.782 1.415 3.604 3.604 0 01-1.389 1.01c-.58.246-1.239.37-1.977.37h-2.013zm18.132-2.769c0-1.178-.378-2.136-1.116-2.874-.739-.738-1.706-1.107-2.901-1.107-1.283 0-2.303.404-3.067 1.204-.765.799-1.143 1.872-1.143 3.208 0 1.362.378 2.434 1.143 3.225.764.791 1.81 1.187 3.137 1.187 1.002 0 1.855-.246 2.576-.747.72-.493 1.142-1.134 1.274-1.925h-1.977c-.317.641-.941.958-1.873.958-.72 0-1.292-.176-1.696-.527-.404-.352-.624-.853-.641-1.521h6.222c.035-.545.062-.905.062-1.081zm-6.284-.413c.008-.598.211-1.09.606-1.459.396-.369.94-.563 1.626-.563.668 0 1.187.176 1.556.528.36.351.545.843.562 1.494h-4.35zm12.946-3.568c-.598 0-1.151.131-1.661.377-.519.247-.906.572-1.16.976v-5.353h-1.952V265h1.952v-1.134c.254.405.632.738 1.125.985a3.45 3.45 0 001.573.369c1.213 0 2.197-.405 2.971-1.231.764-.826 1.151-1.881 1.151-3.181 0-1.319-.369-2.391-1.108-3.2-.738-.808-1.696-1.212-2.891-1.212zm-.413 7.075c-.738 0-1.345-.246-1.802-.739-.457-.492-.686-1.133-.686-1.924 0-.791.229-1.433.686-1.925.457-.492 1.064-.738 1.802-.738.721 0 1.309.254 1.766.747.457.492.686 1.133.686 1.916 0 .791-.229 1.432-.686 1.924-.457.493-1.045.739-1.766.739zm9.316 1.749c1.213 0 2.074-.457 2.593-1.389V265h1.969v-8.385h-1.969v4.729c0 .659-.167 1.186-.492 1.591-.325.404-.835.606-1.538.606-.616 0-1.055-.176-1.319-.536-.263-.36-.395-.897-.395-1.609v-4.781h-1.96v5.274c0 1.09.281 1.924.844 2.487.562.562 1.318.844 2.267.844zm13.245-8.605v1.134a2.687 2.687 0 00-1.081-.993 3.397 3.397 0 00-1.547-.36c-.826 0-1.555.202-2.197.588a3.886 3.886 0 00-1.468 1.591c-.342.668-.509 1.415-.509 2.233 0 .835.158 1.582.474 2.241a3.753 3.753 0 001.424 1.582c.633.395 1.371.589 2.224.589a3.54 3.54 0 001.555-.369c.501-.247.879-.572 1.125-.985v.914c0 .923-.202 1.582-.606 1.987-.404.404-1.02.606-1.846.606-.659 0-1.169-.123-1.538-.369a1.531 1.531 0 01-.677-1.046h-2.048c.018.466.141.896.378 1.292.229.396.545.729.95.993.747.51 1.731.756 2.953.756 1.248 0 2.215-.246 2.883-.738 1.002-.73 1.511-1.934 1.511-3.621v-8.025h-1.96zm-2.399 6.856c-.738 0-1.327-.246-1.775-.747-.449-.501-.668-1.143-.668-1.916 0-.774.219-1.407.668-1.908.448-.501 1.037-.755 1.775-.755.773 0 1.38.254 1.819.764.44.51.668 1.143.668 1.899 0 .755-.228 1.388-.668 1.898-.439.51-1.046.765-1.819.765zm13.052-6.856v1.134a2.694 2.694 0 00-1.081-.993 3.403 3.403 0 00-1.547-.36c-.826 0-1.556.202-2.198.588a3.884 3.884 0 00-1.467 1.591c-.343.668-.51 1.415-.51 2.233 0 .835.158 1.582.475 2.241a3.75 3.75 0 001.423 1.582c.633.395 1.371.589 2.224.589.527 0 1.046-.123 1.556-.369.501-.247.879-.572 1.125-.985v.914c0 .923-.202 1.582-.607 1.987-.404.404-1.019.606-1.845.606-.66 0-1.169-.123-1.539-.369a1.53 1.53 0 01-.676-1.046h-2.048c.017.466.14.896.378 1.292.228.396.545.729.949.993.747.51 1.731.756 2.953.756 1.248 0 2.215-.246 2.883-.738 1.002-.73 1.512-1.934 1.512-3.621v-8.025h-1.96zm-2.4 6.856c-.738 0-1.327-.246-1.775-.747-.448-.501-.668-1.143-.668-1.916 0-.774.22-1.407.668-1.908.448-.501 1.037-.755 1.775-.755.774 0 1.38.254 1.82.764.439.51.668 1.143.668 1.899 0 .755-.229 1.388-.668 1.898-.44.51-1.046.765-1.82.765zm14.476-3.094c0-1.178-.378-2.136-1.116-2.874-.739-.738-1.705-1.107-2.901-1.107-1.283 0-2.302.404-3.067 1.204-.765.799-1.143 1.872-1.143 3.208 0 1.362.378 2.434 1.143 3.225.765.791 1.81 1.187 3.138 1.187 1.002 0 1.854-.246 2.575-.747.72-.493 1.142-1.134 1.274-1.925h-1.977c-.317.641-.941.958-1.872.958-.721 0-1.292-.176-1.697-.527-.404-.352-.624-.853-.641-1.521h6.222c.035-.545.062-.905.062-1.081zm-6.284-.413c.008-.598.211-1.09.606-1.459.396-.369.941-.563 1.626-.563.668 0 1.187.176 1.556.528.36.351.545.843.562 1.494h-4.35zm8.173 5.036h1.969v-3.709c0-.94.194-1.67.589-2.18.387-.509.941-.773 1.644-.773.307 0 .562.017.773.035v-1.793a3.313 3.313 0 00-.773-.079 2.33 2.33 0 00-1.38.448c-.422.299-.712.721-.853 1.283v-1.617h-1.969V265zm9.352.22c1.02 0 1.819-.229 2.417-.695.598-.457.897-1.098.897-1.916 0-.58-.176-1.081-.519-1.503-.352-.421-.826-.72-1.424-.896l-1.679-.483c-.377-.106-.641-.229-.799-.387a.793.793 0 01-.238-.589c0-.246.106-.457.334-.615.229-.158.519-.246.87-.246.457 0 .809.105 1.073.298.255.194.386.466.386.818h1.925c0-.809-.299-1.442-.887-1.907-.598-.466-1.407-.703-2.426-.703-.941 0-1.714.237-2.321.703-.606.465-.905 1.054-.905 1.766 0 .598.158 1.099.475 1.503.316.404.773.694 1.362.853l1.679.448c.422.114.712.246.87.395a.833.833 0 01.228.598.884.884 0 01-.334.721c-.219.176-.509.263-.878.263-.51 0-.915-.105-1.231-.334-.316-.228-.475-.518-.475-.887h-1.96c0 .808.334 1.476 1.011 2.004.668.527 1.521.791 2.549.791zM170.447 296.308c1.301 0 2.312-.396 3.032-1.196.721-.791 1.09-1.863 1.09-3.199v-8.517h-2.074v8.517c0 .774-.176 1.398-.527 1.855-.352.457-.853.685-1.521.685-.659 0-1.16-.228-1.503-.694-.351-.466-.518-1.09-.518-1.863h-2.066c0 1.335.361 2.408 1.081 3.208.721.808 1.723 1.204 3.006 1.204zm9.958-.088c.528 0 1.046-.123 1.556-.369.51-.247.888-.572 1.143-.985V296h1.942v-8.385h-1.942v1.134a2.745 2.745 0 00-1.099-.993 3.4 3.4 0 00-1.547-.36c-1.274 0-2.285.421-3.041 1.256-.756.835-1.134 1.89-1.134 3.156 0 .624.088 1.204.264 1.731.176.536.439 1.002.782 1.398.334.404.774.711 1.301.94.527.228 1.116.343 1.775.343zm.282-1.749c-.756 0-1.345-.246-1.785-.747-.439-.493-.659-1.134-.659-1.916 0-.774.22-1.415.659-1.916.44-.493 1.029-.747 1.785-.747.791 0 1.406.254 1.836.764.431.51.651 1.143.651 1.899 0 .764-.22 1.397-.651 1.907-.43.51-1.045.756-1.836.756zm9.254 1.529h1.582l3.639-8.385h-2.109l-2.321 5.757-2.32-5.757h-2.109l3.638 8.385zm9.8.22c.528 0 1.046-.123 1.556-.369.51-.247.888-.572 1.142-.985V296h1.943v-8.385h-1.943v1.134a2.735 2.735 0 00-1.098-.993 3.403 3.403 0 00-1.547-.36c-1.274 0-2.285.421-3.041 1.256-.756.835-1.134 1.89-1.134 3.156 0 .624.088 1.204.264 1.731.176.536.439 1.002.782 1.398.334.404.773.711 1.301.94.527.228 1.116.343 1.775.343zm.281-1.749c-.755 0-1.344-.246-1.784-.747-.439-.493-.659-1.134-.659-1.916 0-.774.22-1.415.659-1.916.44-.493 1.029-.747 1.784-.747.791 0 1.407.254 1.837.764.431.51.651 1.143.651 1.899 0 .764-.22 1.397-.651 1.907-.43.51-1.046.756-1.837.756zm6.97 1.529h4.263c.808 0 1.564-.105 2.259-.334.685-.228 1.283-.536 1.784-.94a6.189 6.189 0 001.274-1.389 6.078 6.078 0 00.782-1.723 7.3 7.3 0 000-3.832 6.038 6.038 0 00-.782-1.714 6.405 6.405 0 00-1.274-1.397c-.501-.396-1.099-.703-1.784-.932a7.22 7.22 0 00-2.259-.343h-4.263V296zm2.066-1.854v-8.895h2.012c.739 0 1.398.132 1.978.378.58.246 1.037.589 1.389 1.011.342.422.606.896.782 1.415a5.06 5.06 0 01.263 1.643c0 .58-.087 1.134-.263 1.653a4.58 4.58 0 01-.782 1.415 3.604 3.604 0 01-1.389 1.01c-.58.246-1.239.37-1.978.37h-2.012zm14.326 2.074c.896 0 1.687-.194 2.364-.589a3.857 3.857 0 001.538-1.582c.352-.668.527-1.415.527-2.241 0-.827-.175-1.565-.527-2.233a3.934 3.934 0 00-1.538-1.591c-.677-.386-1.468-.588-2.364-.588-1.354 0-2.426.421-3.226 1.256-.8.835-1.195 1.89-1.195 3.156 0 1.274.395 2.329 1.195 3.164s1.872 1.248 3.226 1.248zm0-1.749c-.774 0-1.38-.246-1.811-.739-.439-.492-.65-1.133-.65-1.924 0-.783.211-1.424.65-1.916.431-.493 1.037-.747 1.811-.747.773 0 1.371.254 1.81.747.44.492.66 1.133.66 1.916 0 .791-.22 1.432-.66 1.924-.439.493-1.037.739-1.81.739zm10.037 1.749c1.151 0 2.083-.282 2.786-.844.703-.563 1.099-1.327 1.187-2.276h-1.96c-.229.914-.906 1.371-2.013 1.371-.703 0-1.248-.229-1.635-.695-.387-.457-.58-1.116-.58-1.968 0-.844.193-1.503.58-1.969.387-.457.932-.694 1.635-.694.58 0 1.028.123 1.353.369.326.246.545.606.66 1.09h1.96c-.088-.976-.484-1.758-1.187-2.338-.703-.58-1.635-.87-2.786-.87-1.292 0-2.312.404-3.059 1.212-.747.809-1.116 1.881-1.116 3.2 0 1.327.369 2.39 1.116 3.199.747.808 1.767 1.213 3.059 1.213z"/><path fill="#000" d="M201.604 121.97h1.872v-2.76h2.698v-1.74h-2.698v-2.778h-1.872v2.778h-2.708v1.74h2.708v2.76zM200.805 196.293h2.496v-3.68h3.597v-2.32h-3.597v-3.703h-2.496v3.703h-3.61v2.32h3.61v3.68z"/></svg>