<svg xmlns="http://www.w3.org/2000/svg" width="411" height="346" fill="none" viewBox="0 0 411 346">
    <rect width="410" height="345" x=".5" y=".5" fill="#FDFFFD" stroke="#C4C4C4" rx="4.5" />
    <rect width="368" height="290" x="21" y="39" fill="#B6D2FF" rx="5" />
    <rect width="220" height="118" x="93" y="60" fill="#7CAEFF" rx="3" />
    <rect width="169" height="37" x="119" y="129" fill="#3884FF" rx="2" />
    <rect width="169" height="37" x="119" y="72" fill="#3884FF" rx="2" />
    <rect width="220" height="105" x="93" y="207" fill="#7CAEFF" rx="3" />
    <path fill="#000"
        d="M179.941 34.3418C181.387 34.3418 182.51 33.9023 183.311 33.0137C184.111 32.1348 184.521 30.9434 184.521 29.459V19.9961H182.217V29.459C182.217 30.3184 182.021 31.0117 181.631 31.5195C181.24 32.0273 180.684 32.2812 179.941 32.2812C179.209 32.2812 178.652 32.0273 178.271 31.5098C177.881 30.9922 177.695 30.2988 177.695 29.4395H175.4C175.4 30.9238 175.801 32.1152 176.602 33.0039C177.402 33.9023 178.516 34.3418 179.941 34.3418ZM187.227 34H191.963C192.861 34 193.701 33.8828 194.473 33.6289C195.234 33.375 195.898 33.0332 196.455 32.584C197.002 32.1445 197.48 31.627 197.871 31.041C198.262 30.4551 198.545 29.8105 198.74 29.127C198.926 28.4434 199.023 27.7402 199.023 26.998C199.023 26.2656 198.926 25.5527 198.74 24.8691C198.545 24.1855 198.262 23.5508 197.871 22.9648C197.48 22.3789 197.002 21.8613 196.455 21.4121C195.898 20.9727 195.234 20.6309 194.473 20.377C193.701 20.123 192.861 19.9961 191.963 19.9961H187.227V34ZM189.521 31.9395V22.0566H191.758C192.578 22.0566 193.311 22.2031 193.955 22.4766C194.6 22.75 195.107 23.1309 195.498 23.5996C195.879 24.0684 196.172 24.5957 196.367 25.1719C196.562 25.748 196.66 26.3535 196.66 26.998C196.66 27.6426 196.562 28.2578 196.367 28.834C196.172 29.4102 195.879 29.9375 195.498 30.4062C195.107 30.875 194.6 31.2559 193.955 31.5293C193.311 31.8027 192.578 31.9395 191.758 31.9395H189.521ZM211.553 19.9961H208.652L203.428 26.3242V19.9961H201.133V34H203.428V27.7207L208.633 34H211.553L205.527 26.9004L211.553 19.9961Z" />
    <path fill="#000"
        d="M47.9414 119.342C49.3867 119.342 50.5098 118.902 51.3105 118.014C52.1113 117.135 52.5215 115.943 52.5215 114.459V104.996H50.2168V114.459C50.2168 115.318 50.0215 116.012 49.6309 116.52C49.2402 117.027 48.6836 117.281 47.9414 117.281C47.209 117.281 46.6523 117.027 46.2715 116.51C45.8809 115.992 45.6953 115.299 45.6953 114.439H43.4004C43.4004 115.924 43.8008 117.115 44.6016 118.004C45.4023 118.902 46.5156 119.342 47.9414 119.342ZM65.1875 109.898C65.1875 108.473 64.7285 107.291 63.8301 106.373C62.9316 105.455 61.7793 104.996 60.3828 104.996H55.2266V119H57.5215V114.801H59.7871L62.3457 119H64.9629L62.1992 114.479C63.1074 114.137 63.8301 113.561 64.377 112.74C64.9141 111.92 65.1875 110.973 65.1875 109.898ZM57.5215 107.057H60.2461C61.0078 107.057 61.6328 107.33 62.1309 107.867C62.6289 108.404 62.8828 109.078 62.8828 109.898C62.8828 110.719 62.6289 111.402 62.1309 111.939C61.6328 112.477 61.0078 112.74 60.2461 112.74H57.5215V107.057ZM67.3945 119H75.4707V116.939H69.6895V113.082H75.4707V111.021H69.6895V107.057H75.4707V104.996H67.3945V119Z" />
    <path fill="#E6ECF1"
        d="M190.447 96.3076C191.748 96.3076 192.759 95.9121 193.479 95.1123C194.2 94.3213 194.569 93.249 194.569 91.9131V83.3965H192.495V91.9131C192.495 92.6865 192.319 93.3105 191.968 93.7676C191.616 94.2246 191.115 94.4531 190.447 94.4531C189.788 94.4531 189.287 94.2246 188.944 93.7588C188.593 93.293 188.426 92.6689 188.426 91.8955H186.36C186.36 93.2314 186.721 94.3037 187.441 95.1035C188.162 95.9121 189.164 96.3076 190.447 96.3076ZM199.825 96H201.803L205.986 83.3965H203.736L200.818 92.7393L197.9 83.3965H195.65L199.825 96ZM207.34 96H209.317V87.5801L212.561 96H214.125L217.359 87.668V96H219.346V83.3965H217.359L213.352 93.0469L209.317 83.3965H207.34V96Z" />
    <path fill="#E6ECF1"
        d="M152.181 152.308C153.868 152.308 155.266 151.877 156.355 151.016C157.445 150.154 158.087 149.047 158.28 147.676H156.013C155.811 148.555 155.38 149.231 154.729 149.724C154.07 150.216 153.227 150.453 152.198 150.453C150.818 150.453 149.737 150.031 148.964 149.17C148.19 148.317 147.804 147.157 147.804 145.698C147.804 144.239 148.19 143.088 148.964 142.235C149.737 141.383 150.818 140.952 152.198 140.952C153.227 140.952 154.07 141.198 154.729 141.682C155.38 142.174 155.811 142.851 156.013 143.721H158.28C158.087 142.358 157.445 141.251 156.355 140.39C155.266 139.528 153.877 139.098 152.181 139.098C150.836 139.098 149.667 139.388 148.674 139.95C147.672 140.513 146.916 141.295 146.406 142.288C145.888 143.281 145.633 144.415 145.633 145.698C145.633 146.981 145.888 148.124 146.406 149.117C146.916 150.11 147.672 150.893 148.674 151.455C149.667 152.026 150.836 152.308 152.181 152.308ZM160.179 152H162.147V139.396H160.179V152ZM168.159 152.22C168.687 152.22 169.205 152.097 169.715 151.851C170.225 151.604 170.603 151.279 170.857 150.866V152H172.8V143.615H170.857V144.749C170.594 144.327 170.233 144.002 169.759 143.756C169.284 143.519 168.774 143.396 168.212 143.396C166.938 143.396 165.927 143.817 165.171 144.652C164.415 145.487 164.037 146.542 164.037 147.808C164.037 148.432 164.125 149.012 164.301 149.539C164.477 150.075 164.74 150.541 165.083 150.937C165.417 151.341 165.856 151.648 166.384 151.877C166.911 152.105 167.5 152.22 168.159 152.22ZM168.44 150.471C167.685 150.471 167.096 150.225 166.656 149.724C166.217 149.231 165.997 148.59 165.997 147.808C165.997 147.034 166.217 146.393 166.656 145.892C167.096 145.399 167.685 145.145 168.44 145.145C169.231 145.145 169.847 145.399 170.277 145.909C170.708 146.419 170.928 147.052 170.928 147.808C170.928 148.572 170.708 149.205 170.277 149.715C169.847 150.225 169.231 150.471 168.44 150.471ZM178.249 152.22C179.269 152.22 180.068 151.991 180.666 151.525C181.264 151.068 181.562 150.427 181.562 149.609C181.562 149.029 181.387 148.528 181.044 148.106C180.692 147.685 180.218 147.386 179.62 147.21L177.941 146.727C177.563 146.621 177.3 146.498 177.142 146.34C176.983 146.182 176.904 145.988 176.904 145.751C176.904 145.505 177.01 145.294 177.238 145.136C177.467 144.978 177.757 144.89 178.108 144.89C178.565 144.89 178.917 144.995 179.181 145.188C179.436 145.382 179.567 145.654 179.567 146.006H181.492C181.492 145.197 181.193 144.564 180.604 144.099C180.007 143.633 179.198 143.396 178.179 143.396C177.238 143.396 176.465 143.633 175.858 144.099C175.252 144.564 174.953 145.153 174.953 145.865C174.953 146.463 175.111 146.964 175.428 147.368C175.744 147.772 176.201 148.062 176.79 148.221L178.469 148.669C178.891 148.783 179.181 148.915 179.339 149.064C179.488 149.223 179.567 149.416 179.567 149.662C179.567 149.961 179.453 150.207 179.233 150.383C179.014 150.559 178.724 150.646 178.354 150.646C177.845 150.646 177.44 150.541 177.124 150.312C176.808 150.084 176.649 149.794 176.649 149.425H174.689C174.689 150.233 175.023 150.901 175.7 151.429C176.368 151.956 177.221 152.22 178.249 152.22ZM186.476 152.22C187.495 152.22 188.295 151.991 188.893 151.525C189.49 151.068 189.789 150.427 189.789 149.609C189.789 149.029 189.613 148.528 189.271 148.106C188.919 147.685 188.444 147.386 187.847 147.21L186.168 146.727C185.79 146.621 185.526 146.498 185.368 146.34C185.21 146.182 185.131 145.988 185.131 145.751C185.131 145.505 185.236 145.294 185.465 145.136C185.693 144.978 185.983 144.89 186.335 144.89C186.792 144.89 187.144 144.995 187.407 145.188C187.662 145.382 187.794 145.654 187.794 146.006H189.719C189.719 145.197 189.42 144.564 188.831 144.099C188.233 143.633 187.425 143.396 186.405 143.396C185.465 143.396 184.691 143.633 184.085 144.099C183.479 144.564 183.18 145.153 183.18 145.865C183.18 146.463 183.338 146.964 183.654 147.368C183.971 147.772 184.428 148.062 185.017 148.221L186.695 148.669C187.117 148.783 187.407 148.915 187.565 149.064C187.715 149.223 187.794 149.416 187.794 149.662C187.794 149.961 187.68 150.207 187.46 150.383C187.24 150.559 186.95 150.646 186.581 150.646C186.071 150.646 185.667 150.541 185.351 150.312C185.034 150.084 184.876 149.794 184.876 149.425H182.916C182.916 150.233 183.25 150.901 183.927 151.429C184.595 151.956 185.447 152.22 186.476 152.22ZM196.363 152H203.491V150.058H198.429V139.396H196.363V152ZM206.436 142.402C206.857 142.402 207.209 142.271 207.481 141.989C207.754 141.708 207.895 141.365 207.895 140.952C207.895 140.548 207.754 140.196 207.481 139.915C207.2 139.634 206.857 139.493 206.436 139.493C206.014 139.493 205.662 139.634 205.39 139.915C205.108 140.196 204.977 140.548 204.977 140.952C204.977 141.365 205.108 141.708 205.381 141.989C205.653 142.271 206.005 142.402 206.436 142.402ZM205.46 152H207.411V143.615H205.46V152ZM214.697 143.396C214.1 143.396 213.546 143.527 213.036 143.773C212.518 144.02 212.131 144.345 211.876 144.749V139.396H209.925V152H211.876V150.866C212.131 151.271 212.509 151.604 213.001 151.851C213.493 152.097 214.012 152.22 214.574 152.22C215.787 152.22 216.771 151.815 217.545 150.989C218.31 150.163 218.696 149.108 218.696 147.808C218.696 146.489 218.327 145.417 217.589 144.608C216.851 143.8 215.893 143.396 214.697 143.396ZM214.284 150.471C213.546 150.471 212.939 150.225 212.482 149.732C212.025 149.24 211.797 148.599 211.797 147.808C211.797 147.017 212.025 146.375 212.482 145.883C212.939 145.391 213.546 145.145 214.284 145.145C215.005 145.145 215.594 145.399 216.051 145.892C216.508 146.384 216.736 147.025 216.736 147.808C216.736 148.599 216.508 149.24 216.051 149.732C215.594 150.225 215.005 150.471 214.284 150.471ZM220.577 152H222.546V148.291C222.546 147.351 222.739 146.621 223.135 146.111C223.521 145.602 224.075 145.338 224.778 145.338C225.086 145.338 225.341 145.355 225.552 145.373V143.58C225.332 143.527 225.077 143.501 224.778 143.501C224.277 143.501 223.82 143.65 223.398 143.949C222.977 144.248 222.687 144.67 222.546 145.232V143.615H220.577V152ZM230.298 152.22C230.825 152.22 231.344 152.097 231.854 151.851C232.363 151.604 232.741 151.279 232.996 150.866V152H234.938V143.615H232.996V144.749C232.732 144.327 232.372 144.002 231.897 143.756C231.423 143.519 230.913 143.396 230.351 143.396C229.076 143.396 228.065 143.817 227.31 144.652C226.554 145.487 226.176 146.542 226.176 147.808C226.176 148.432 226.264 149.012 226.439 149.539C226.615 150.075 226.879 150.541 227.222 150.937C227.556 151.341 227.995 151.648 228.522 151.877C229.05 152.105 229.639 152.22 230.298 152.22ZM230.579 150.471C229.823 150.471 229.234 150.225 228.795 149.724C228.355 149.231 228.136 148.59 228.136 147.808C228.136 147.034 228.355 146.393 228.795 145.892C229.234 145.399 229.823 145.145 230.579 145.145C231.37 145.145 231.985 145.399 232.416 145.909C232.847 146.419 233.066 147.052 233.066 147.808C233.066 148.572 232.847 149.205 232.416 149.715C231.985 150.225 231.37 150.471 230.579 150.471ZM237.452 152H239.421V148.291C239.421 147.351 239.614 146.621 240.01 146.111C240.396 145.602 240.95 145.338 241.653 145.338C241.961 145.338 242.216 145.355 242.427 145.373V143.58C242.207 143.527 241.952 143.501 241.653 143.501C241.152 143.501 240.695 143.65 240.273 143.949C239.852 144.248 239.562 144.67 239.421 145.232V143.615H237.452V152ZM245.02 142.402C245.441 142.402 245.793 142.271 246.065 141.989C246.338 141.708 246.479 141.365 246.479 140.952C246.479 140.548 246.338 140.196 246.065 139.915C245.784 139.634 245.441 139.493 245.02 139.493C244.598 139.493 244.246 139.634 243.974 139.915C243.692 140.196 243.561 140.548 243.561 140.952C243.561 141.365 243.692 141.708 243.965 141.989C244.237 142.271 244.589 142.402 245.02 142.402ZM244.044 152H245.995V143.615H244.044V152ZM256.111 147.377C256.111 146.199 255.733 145.241 254.995 144.503C254.257 143.765 253.29 143.396 252.095 143.396C250.812 143.396 249.792 143.8 249.027 144.6C248.263 145.399 247.885 146.472 247.885 147.808C247.885 149.17 248.263 150.242 249.027 151.033C249.792 151.824 250.838 152.22 252.165 152.22C253.167 152.22 254.02 151.974 254.74 151.473C255.461 150.98 255.883 150.339 256.015 149.548H254.037C253.721 150.189 253.097 150.506 252.165 150.506C251.444 150.506 250.873 150.33 250.469 149.979C250.064 149.627 249.845 149.126 249.827 148.458H256.05C256.085 147.913 256.111 147.553 256.111 147.377ZM249.827 146.964C249.836 146.366 250.038 145.874 250.434 145.505C250.829 145.136 251.374 144.942 252.06 144.942C252.728 144.942 253.246 145.118 253.615 145.47C253.976 145.821 254.16 146.313 254.178 146.964H249.827ZM260.937 152.22C261.956 152.22 262.756 151.991 263.354 151.525C263.951 151.068 264.25 150.427 264.25 149.609C264.25 149.029 264.074 148.528 263.731 148.106C263.38 147.685 262.905 147.386 262.308 147.21L260.629 146.727C260.251 146.621 259.987 146.498 259.829 146.34C259.671 146.182 259.592 145.988 259.592 145.751C259.592 145.505 259.697 145.294 259.926 145.136C260.154 144.978 260.444 144.89 260.796 144.89C261.253 144.89 261.604 144.995 261.868 145.188C262.123 145.382 262.255 145.654 262.255 146.006H264.18C264.18 145.197 263.881 144.564 263.292 144.099C262.694 143.633 261.886 143.396 260.866 143.396C259.926 143.396 259.152 143.633 258.546 144.099C257.939 144.564 257.641 145.153 257.641 145.865C257.641 146.463 257.799 146.964 258.115 147.368C258.432 147.772 258.889 148.062 259.478 148.221L261.156 148.669C261.578 148.783 261.868 148.915 262.026 149.064C262.176 149.223 262.255 149.416 262.255 149.662C262.255 149.961 262.141 150.207 261.921 150.383C261.701 150.559 261.411 150.646 261.042 150.646C260.532 150.646 260.128 150.541 259.812 150.312C259.495 150.084 259.337 149.794 259.337 149.425H257.377C257.377 150.233 257.711 150.901 258.388 151.429C259.056 151.956 259.908 152.22 260.937 152.22Z" />
    <path fill="#fff"
        d="M168.181 234.308C169.868 234.308 171.266 233.877 172.355 233.016C173.445 232.154 174.087 231.047 174.28 229.676H172.013C171.811 230.555 171.38 231.231 170.729 231.724C170.07 232.216 169.227 232.453 168.198 232.453C166.818 232.453 165.737 232.031 164.964 231.17C164.19 230.317 163.804 229.157 163.804 227.698C163.804 226.239 164.19 225.088 164.964 224.235C165.737 223.383 166.818 222.952 168.198 222.952C169.227 222.952 170.07 223.198 170.729 223.682C171.38 224.174 171.811 224.851 172.013 225.721H174.28C174.087 224.358 173.445 223.251 172.355 222.39C171.266 221.528 169.877 221.098 168.181 221.098C166.836 221.098 165.667 221.388 164.674 221.95C163.672 222.513 162.916 223.295 162.406 224.288C161.888 225.281 161.633 226.415 161.633 227.698C161.633 228.981 161.888 230.124 162.406 231.117C162.916 232.11 163.672 232.893 164.674 233.455C165.667 234.026 166.836 234.308 168.181 234.308ZM180.151 234.22C181.048 234.22 181.839 234.026 182.516 233.631C183.192 233.244 183.702 232.717 184.054 232.049C184.405 231.381 184.581 230.634 184.581 229.808C184.581 228.981 184.405 228.243 184.054 227.575C183.702 226.907 183.192 226.38 182.516 225.984C181.839 225.598 181.048 225.396 180.151 225.396C178.798 225.396 177.726 225.817 176.926 226.652C176.126 227.487 175.73 228.542 175.73 229.808C175.73 231.082 176.126 232.137 176.926 232.972C177.726 233.807 178.798 234.22 180.151 234.22ZM180.151 232.471C179.378 232.471 178.771 232.225 178.341 231.732C177.901 231.24 177.69 230.599 177.69 229.808C177.69 229.025 177.901 228.384 178.341 227.892C178.771 227.399 179.378 227.145 180.151 227.145C180.925 227.145 181.522 227.399 181.962 227.892C182.401 228.384 182.621 229.025 182.621 229.808C182.621 230.599 182.401 231.24 181.962 231.732C181.522 232.225 180.925 232.471 180.151 232.471ZM186.462 234H188.431V229.553C188.431 229.078 188.475 228.665 188.562 228.331C188.65 227.997 188.782 227.742 188.958 227.566C189.125 227.391 189.31 227.259 189.521 227.188C189.723 227.118 189.96 227.074 190.224 227.074C190.742 227.074 191.129 227.232 191.375 227.549C191.621 227.865 191.753 228.366 191.753 229.052V234H193.722V229.553C193.722 229.078 193.766 228.665 193.854 228.331C193.941 227.997 194.064 227.742 194.231 227.566C194.398 227.391 194.583 227.259 194.785 227.188C194.979 227.118 195.216 227.074 195.479 227.074C196.525 227.074 197.053 227.742 197.053 229.069V234H199.013V228.691C199.013 226.494 198.002 225.396 195.989 225.396C195.409 225.396 194.882 225.536 194.416 225.817C193.95 226.099 193.616 226.459 193.414 226.89C192.975 225.896 192.096 225.396 190.769 225.396C190.232 225.396 189.758 225.527 189.336 225.791C188.914 226.055 188.615 226.38 188.431 226.784V225.615H186.462V234ZM206.211 225.396C205.613 225.396 205.06 225.527 204.55 225.773C204.031 226.02 203.645 226.345 203.39 226.749V225.615H201.438V237.779H203.39V232.866C203.645 233.271 204.022 233.604 204.515 233.851C205.007 234.097 205.525 234.22 206.088 234.22C207.301 234.22 208.285 233.815 209.059 232.989C209.823 232.163 210.21 231.108 210.21 229.808C210.21 228.489 209.841 227.417 209.103 226.608C208.364 225.8 207.406 225.396 206.211 225.396ZM205.798 232.471C205.06 232.471 204.453 232.225 203.996 231.732C203.539 231.24 203.311 230.599 203.311 229.808C203.311 229.017 203.539 228.375 203.996 227.883C204.453 227.391 205.06 227.145 205.798 227.145C206.519 227.145 207.107 227.399 207.564 227.892C208.021 228.384 208.25 229.025 208.25 229.808C208.25 230.599 208.021 231.24 207.564 231.732C207.107 232.225 206.519 232.471 205.798 232.471ZM213.066 224.402C213.488 224.402 213.84 224.271 214.112 223.989C214.385 223.708 214.525 223.365 214.525 222.952C214.525 222.548 214.385 222.196 214.112 221.915C213.831 221.634 213.488 221.493 213.066 221.493C212.645 221.493 212.293 221.634 212.021 221.915C211.739 222.196 211.607 222.548 211.607 222.952C211.607 223.365 211.739 223.708 212.012 223.989C212.284 224.271 212.636 224.402 213.066 224.402ZM212.091 234H214.042V225.615H212.091V234ZM216.556 234H218.524V221.396H216.556V234ZM228.641 229.377C228.641 228.199 228.263 227.241 227.524 226.503C226.786 225.765 225.819 225.396 224.624 225.396C223.341 225.396 222.321 225.8 221.557 226.6C220.792 227.399 220.414 228.472 220.414 229.808C220.414 231.17 220.792 232.242 221.557 233.033C222.321 233.824 223.367 234.22 224.694 234.22C225.696 234.22 226.549 233.974 227.27 233.473C227.99 232.98 228.412 232.339 228.544 231.548H226.566C226.25 232.189 225.626 232.506 224.694 232.506C223.974 232.506 223.402 232.33 222.998 231.979C222.594 231.627 222.374 231.126 222.356 230.458H228.579C228.614 229.913 228.641 229.553 228.641 229.377ZM222.356 228.964C222.365 228.366 222.567 227.874 222.963 227.505C223.358 227.136 223.903 226.942 224.589 226.942C225.257 226.942 225.775 227.118 226.145 227.47C226.505 227.821 226.689 228.313 226.707 228.964H222.356ZM230.53 234H232.499V230.291C232.499 229.351 232.692 228.621 233.088 228.111C233.475 227.602 234.028 227.338 234.731 227.338C235.039 227.338 235.294 227.355 235.505 227.373V225.58C235.285 225.527 235.03 225.501 234.731 225.501C234.23 225.501 233.773 225.65 233.352 225.949C232.93 226.248 232.64 226.67 232.499 227.232V225.615H230.53V234ZM239.882 234.22C240.901 234.22 241.701 233.991 242.299 233.525C242.896 233.068 243.195 232.427 243.195 231.609C243.195 231.029 243.02 230.528 242.677 230.106C242.325 229.685 241.851 229.386 241.253 229.21L239.574 228.727C239.196 228.621 238.933 228.498 238.774 228.34C238.616 228.182 238.537 227.988 238.537 227.751C238.537 227.505 238.643 227.294 238.871 227.136C239.1 226.978 239.39 226.89 239.741 226.89C240.198 226.89 240.55 226.995 240.813 227.188C241.068 227.382 241.2 227.654 241.2 228.006H243.125C243.125 227.197 242.826 226.564 242.237 226.099C241.64 225.633 240.831 225.396 239.812 225.396C238.871 225.396 238.098 225.633 237.491 226.099C236.885 226.564 236.586 227.153 236.586 227.865C236.586 228.463 236.744 228.964 237.061 229.368C237.377 229.772 237.834 230.062 238.423 230.221L240.102 230.669C240.523 230.783 240.813 230.915 240.972 231.064C241.121 231.223 241.2 231.416 241.2 231.662C241.2 231.961 241.086 232.207 240.866 232.383C240.646 232.559 240.356 232.646 239.987 232.646C239.478 232.646 239.073 232.541 238.757 232.312C238.44 232.084 238.282 231.794 238.282 231.425H236.322C236.322 232.233 236.656 232.901 237.333 233.429C238.001 233.956 238.854 234.22 239.882 234.22Z" />
    <path fill="#fff"
        d="M159.354 265H163.616C164.425 265 165.181 264.895 165.875 264.666C166.561 264.438 167.158 264.13 167.659 263.726C168.151 263.33 168.582 262.864 168.934 262.337C169.285 261.81 169.54 261.229 169.716 260.614C169.883 259.999 169.971 259.366 169.971 258.698C169.971 258.039 169.883 257.397 169.716 256.782C169.54 256.167 169.285 255.596 168.934 255.068C168.582 254.541 168.151 254.075 167.659 253.671C167.158 253.275 166.561 252.968 165.875 252.739C165.181 252.511 164.425 252.396 163.616 252.396H159.354V265ZM161.419 263.146V254.251H163.432C164.17 254.251 164.829 254.383 165.409 254.629C165.989 254.875 166.446 255.218 166.798 255.64C167.141 256.062 167.404 256.536 167.58 257.055C167.756 257.573 167.844 258.118 167.844 258.698C167.844 259.278 167.756 259.832 167.58 260.351C167.404 260.869 167.141 261.344 166.798 261.766C166.446 262.188 165.989 262.53 165.409 262.776C164.829 263.022 164.17 263.146 163.432 263.146H161.419ZM179.551 260.377C179.551 259.199 179.173 258.241 178.435 257.503C177.696 256.765 176.729 256.396 175.534 256.396C174.251 256.396 173.231 256.8 172.467 257.6C171.702 258.399 171.324 259.472 171.324 260.808C171.324 262.17 171.702 263.242 172.467 264.033C173.231 264.824 174.277 265.22 175.604 265.22C176.606 265.22 177.459 264.974 178.18 264.473C178.9 263.98 179.322 263.339 179.454 262.548H177.477C177.16 263.189 176.536 263.506 175.604 263.506C174.884 263.506 174.312 263.33 173.908 262.979C173.504 262.627 173.284 262.126 173.267 261.458H179.489C179.524 260.913 179.551 260.553 179.551 260.377ZM173.267 259.964C173.275 259.366 173.478 258.874 173.873 258.505C174.269 258.136 174.813 257.942 175.499 257.942C176.167 257.942 176.686 258.118 177.055 258.47C177.415 258.821 177.6 259.313 177.617 259.964H173.267ZM186.213 256.396C185.615 256.396 185.062 256.527 184.552 256.773C184.033 257.02 183.646 257.345 183.392 257.749V252.396H181.44V265H183.392V263.866C183.646 264.271 184.024 264.604 184.517 264.851C185.009 265.097 185.527 265.22 186.09 265.22C187.303 265.22 188.287 264.815 189.061 263.989C189.825 263.163 190.212 262.108 190.212 260.808C190.212 259.489 189.843 258.417 189.104 257.608C188.366 256.8 187.408 256.396 186.213 256.396ZM185.8 263.471C185.062 263.471 184.455 263.225 183.998 262.732C183.541 262.24 183.312 261.599 183.312 260.808C183.312 260.017 183.541 259.375 183.998 258.883C184.455 258.391 185.062 258.145 185.8 258.145C186.521 258.145 187.109 258.399 187.566 258.892C188.023 259.384 188.252 260.025 188.252 260.808C188.252 261.599 188.023 262.24 187.566 262.732C187.109 263.225 186.521 263.471 185.8 263.471ZM195.116 265.22C196.329 265.22 197.19 264.763 197.709 263.831V265H199.678V256.615H197.709V261.344C197.709 262.003 197.542 262.53 197.217 262.935C196.892 263.339 196.382 263.541 195.679 263.541C195.063 263.541 194.624 263.365 194.36 263.005C194.097 262.645 193.965 262.108 193.965 261.396V256.615H192.005V261.889C192.005 262.979 192.286 263.813 192.849 264.376C193.411 264.938 194.167 265.22 195.116 265.22ZM208.361 256.615V257.749C208.106 257.327 207.746 257.002 207.28 256.756C206.806 256.519 206.296 256.396 205.733 256.396C204.907 256.396 204.178 256.598 203.536 256.984C202.895 257.38 202.402 257.907 202.068 258.575C201.726 259.243 201.559 259.99 201.559 260.808C201.559 261.643 201.717 262.39 202.033 263.049C202.35 263.708 202.824 264.235 203.457 264.631C204.09 265.026 204.828 265.22 205.681 265.22C206.208 265.22 206.727 265.097 207.236 264.851C207.737 264.604 208.115 264.279 208.361 263.866V264.78C208.361 265.703 208.159 266.362 207.755 266.767C207.351 267.171 206.735 267.373 205.909 267.373C205.25 267.373 204.74 267.25 204.371 267.004C204.002 266.758 203.773 266.406 203.694 265.958H201.646C201.664 266.424 201.787 266.854 202.024 267.25C202.253 267.646 202.569 267.979 202.974 268.243C203.721 268.753 204.705 268.999 205.927 268.999C207.175 268.999 208.142 268.753 208.81 268.261C209.812 267.531 210.321 266.327 210.321 264.64V256.615H208.361ZM205.962 263.471C205.224 263.471 204.635 263.225 204.187 262.724C203.738 262.223 203.519 261.581 203.519 260.808C203.519 260.034 203.738 259.401 204.187 258.9C204.635 258.399 205.224 258.145 205.962 258.145C206.735 258.145 207.342 258.399 207.781 258.909C208.221 259.419 208.449 260.052 208.449 260.808C208.449 261.563 208.221 262.196 207.781 262.706C207.342 263.216 206.735 263.471 205.962 263.471ZM219.014 256.615V257.749C218.759 257.327 218.398 257.002 217.933 256.756C217.458 256.519 216.948 256.396 216.386 256.396C215.56 256.396 214.83 256.598 214.188 256.984C213.547 257.38 213.055 257.907 212.721 258.575C212.378 259.243 212.211 259.99 212.211 260.808C212.211 261.643 212.369 262.39 212.686 263.049C213.002 263.708 213.477 264.235 214.109 264.631C214.742 265.026 215.48 265.22 216.333 265.22C216.86 265.22 217.379 265.097 217.889 264.851C218.39 264.604 218.768 264.279 219.014 263.866V264.78C219.014 265.703 218.812 266.362 218.407 266.767C218.003 267.171 217.388 267.373 216.562 267.373C215.902 267.373 215.393 267.25 215.023 267.004C214.654 266.758 214.426 266.406 214.347 265.958H212.299C212.316 266.424 212.439 266.854 212.677 267.25C212.905 267.646 213.222 267.979 213.626 268.243C214.373 268.753 215.357 268.999 216.579 268.999C217.827 268.999 218.794 268.753 219.462 268.261C220.464 267.531 220.974 266.327 220.974 264.64V256.615H219.014ZM216.614 263.471C215.876 263.471 215.287 263.225 214.839 262.724C214.391 262.223 214.171 261.581 214.171 260.808C214.171 260.034 214.391 259.401 214.839 258.9C215.287 258.399 215.876 258.145 216.614 258.145C217.388 258.145 217.994 258.399 218.434 258.909C218.873 259.419 219.102 260.052 219.102 260.808C219.102 261.563 218.873 262.196 218.434 262.706C217.994 263.216 217.388 263.471 216.614 263.471ZM231.09 260.377C231.09 259.199 230.712 258.241 229.974 257.503C229.235 256.765 228.269 256.396 227.073 256.396C225.79 256.396 224.771 256.8 224.006 257.6C223.241 258.399 222.863 259.472 222.863 260.808C222.863 262.17 223.241 263.242 224.006 264.033C224.771 264.824 225.816 265.22 227.144 265.22C228.146 265.22 228.998 264.974 229.719 264.473C230.439 263.98 230.861 263.339 230.993 262.548H229.016C228.699 263.189 228.075 263.506 227.144 263.506C226.423 263.506 225.852 263.33 225.447 262.979C225.043 262.627 224.823 262.126 224.806 261.458H231.028C231.063 260.913 231.09 260.553 231.09 260.377ZM224.806 259.964C224.814 259.366 225.017 258.874 225.412 258.505C225.808 258.136 226.353 257.942 227.038 257.942C227.706 257.942 228.225 258.118 228.594 258.47C228.954 258.821 229.139 259.313 229.156 259.964H224.806ZM232.979 265H234.948V261.291C234.948 260.351 235.142 259.621 235.537 259.111C235.924 258.602 236.478 258.338 237.181 258.338C237.488 258.338 237.743 258.355 237.954 258.373V256.58C237.734 256.527 237.479 256.501 237.181 256.501C236.68 256.501 236.223 256.65 235.801 256.949C235.379 257.248 235.089 257.67 234.948 258.232V256.615H232.979V265ZM242.331 265.22C243.351 265.22 244.15 264.991 244.748 264.525C245.346 264.068 245.645 263.427 245.645 262.609C245.645 262.029 245.469 261.528 245.126 261.106C244.774 260.685 244.3 260.386 243.702 260.21L242.023 259.727C241.646 259.621 241.382 259.498 241.224 259.34C241.065 259.182 240.986 258.988 240.986 258.751C240.986 258.505 241.092 258.294 241.32 258.136C241.549 257.978 241.839 257.89 242.19 257.89C242.647 257.89 242.999 257.995 243.263 258.188C243.518 258.382 243.649 258.654 243.649 259.006H245.574C245.574 258.197 245.275 257.564 244.687 257.099C244.089 256.633 243.28 256.396 242.261 256.396C241.32 256.396 240.547 256.633 239.94 257.099C239.334 257.564 239.035 258.153 239.035 258.865C239.035 259.463 239.193 259.964 239.51 260.368C239.826 260.772 240.283 261.062 240.872 261.221L242.551 261.669C242.973 261.783 243.263 261.915 243.421 262.064C243.57 262.223 243.649 262.416 243.649 262.662C243.649 262.961 243.535 263.207 243.315 263.383C243.096 263.559 242.806 263.646 242.437 263.646C241.927 263.646 241.522 263.541 241.206 263.312C240.89 263.084 240.731 262.794 240.731 262.425H238.771C238.771 263.233 239.105 263.901 239.782 264.429C240.45 264.956 241.303 265.22 242.331 265.22Z" />
    <path fill="#fff"
        d="M170.447 296.308C171.748 296.308 172.759 295.912 173.479 295.112C174.2 294.321 174.569 293.249 174.569 291.913V283.396H172.495V291.913C172.495 292.687 172.319 293.311 171.968 293.768C171.616 294.225 171.115 294.453 170.447 294.453C169.788 294.453 169.287 294.225 168.944 293.759C168.593 293.293 168.426 292.669 168.426 291.896H166.36C166.36 293.231 166.721 294.304 167.441 295.104C168.162 295.912 169.164 296.308 170.447 296.308ZM180.405 296.22C180.933 296.22 181.451 296.097 181.961 295.851C182.471 295.604 182.849 295.279 183.104 294.866V296H185.046V287.615H183.104V288.749C182.84 288.327 182.479 288.002 182.005 287.756C181.53 287.519 181.021 287.396 180.458 287.396C179.184 287.396 178.173 287.817 177.417 288.652C176.661 289.487 176.283 290.542 176.283 291.808C176.283 292.432 176.371 293.012 176.547 293.539C176.723 294.075 176.986 294.541 177.329 294.937C177.663 295.341 178.103 295.648 178.63 295.877C179.157 296.105 179.746 296.22 180.405 296.22ZM180.687 294.471C179.931 294.471 179.342 294.225 178.902 293.724C178.463 293.231 178.243 292.59 178.243 291.808C178.243 291.034 178.463 290.393 178.902 289.892C179.342 289.399 179.931 289.145 180.687 289.145C181.478 289.145 182.093 289.399 182.523 289.909C182.954 290.419 183.174 291.052 183.174 291.808C183.174 292.572 182.954 293.205 182.523 293.715C182.093 294.225 181.478 294.471 180.687 294.471ZM189.941 296H191.523L195.162 287.615H193.053L190.732 293.372L188.412 287.615H186.303L189.941 296ZM199.741 296.22C200.269 296.22 200.787 296.097 201.297 295.851C201.807 295.604 202.185 295.279 202.439 294.866V296H204.382V287.615H202.439V288.749C202.176 288.327 201.815 288.002 201.341 287.756C200.866 287.519 200.356 287.396 199.794 287.396C198.52 287.396 197.509 287.817 196.753 288.652C195.997 289.487 195.619 290.542 195.619 291.808C195.619 292.432 195.707 293.012 195.883 293.539C196.059 294.075 196.322 294.541 196.665 294.937C196.999 295.341 197.438 295.648 197.966 295.877C198.493 296.105 199.082 296.22 199.741 296.22ZM200.022 294.471C199.267 294.471 198.678 294.225 198.238 293.724C197.799 293.231 197.579 292.59 197.579 291.808C197.579 291.034 197.799 290.393 198.238 289.892C198.678 289.399 199.267 289.145 200.022 289.145C200.813 289.145 201.429 289.399 201.859 289.909C202.29 290.419 202.51 291.052 202.51 291.808C202.51 292.572 202.29 293.205 201.859 293.715C201.429 294.225 200.813 294.471 200.022 294.471ZM206.992 296H211.255C212.063 296 212.819 295.895 213.514 295.666C214.199 295.438 214.797 295.13 215.298 294.726C215.79 294.33 216.221 293.864 216.572 293.337C216.924 292.81 217.179 292.229 217.354 291.614C217.521 290.999 217.609 290.366 217.609 289.698C217.609 289.039 217.521 288.397 217.354 287.782C217.179 287.167 216.924 286.596 216.572 286.068C216.221 285.541 215.79 285.075 215.298 284.671C214.797 284.275 214.199 283.968 213.514 283.739C212.819 283.511 212.063 283.396 211.255 283.396H206.992V296ZM209.058 294.146V285.251H211.07C211.809 285.251 212.468 285.383 213.048 285.629C213.628 285.875 214.085 286.218 214.437 286.64C214.779 287.062 215.043 287.536 215.219 288.055C215.395 288.573 215.482 289.118 215.482 289.698C215.482 290.278 215.395 290.832 215.219 291.351C215.043 291.869 214.779 292.344 214.437 292.766C214.085 293.188 213.628 293.53 213.048 293.776C212.468 294.022 211.809 294.146 211.07 294.146H209.058ZM223.384 296.22C224.28 296.22 225.071 296.026 225.748 295.631C226.425 295.244 226.935 294.717 227.286 294.049C227.638 293.381 227.813 292.634 227.813 291.808C227.813 290.981 227.638 290.243 227.286 289.575C226.935 288.907 226.425 288.38 225.748 287.984C225.071 287.598 224.28 287.396 223.384 287.396C222.03 287.396 220.958 287.817 220.158 288.652C219.358 289.487 218.963 290.542 218.963 291.808C218.963 293.082 219.358 294.137 220.158 294.972C220.958 295.807 222.03 296.22 223.384 296.22ZM223.384 294.471C222.61 294.471 222.004 294.225 221.573 293.732C221.134 293.24 220.923 292.599 220.923 291.808C220.923 291.025 221.134 290.384 221.573 289.892C222.004 289.399 222.61 289.145 223.384 289.145C224.157 289.145 224.755 289.399 225.194 289.892C225.634 290.384 225.854 291.025 225.854 291.808C225.854 292.599 225.634 293.24 225.194 293.732C224.755 294.225 224.157 294.471 223.384 294.471ZM233.421 296.22C234.572 296.22 235.504 295.938 236.207 295.376C236.91 294.813 237.306 294.049 237.394 293.1H235.434C235.205 294.014 234.528 294.471 233.421 294.471C232.718 294.471 232.173 294.242 231.786 293.776C231.399 293.319 231.206 292.66 231.206 291.808C231.206 290.964 231.399 290.305 231.786 289.839C232.173 289.382 232.718 289.145 233.421 289.145C234.001 289.145 234.449 289.268 234.774 289.514C235.1 289.76 235.319 290.12 235.434 290.604H237.394C237.306 289.628 236.91 288.846 236.207 288.266C235.504 287.686 234.572 287.396 233.421 287.396C232.129 287.396 231.109 287.8 230.362 288.608C229.615 289.417 229.246 290.489 229.246 291.808C229.246 293.135 229.615 294.198 230.362 295.007C231.109 295.815 232.129 296.22 233.421 296.22Z" />
    <path fill="#000"
        d="M201.604 121.97H203.476V119.21H206.174V117.47H203.476V114.692H201.604V117.47H198.896V119.21H201.604V121.97Z" />
    <path fill="#000"
        d="M200.805 196.293H203.301V192.613H206.898V190.293H203.301V186.59H200.805V190.293H197.195V192.613H200.805V196.293Z" />
</svg>