<svg width="1145" height="620" fill="none" xmlns="http://www.w3.org/2000/svg"><rect width="1145" height="620" rx="15" fill="url(#prefix__paint0_linear_846_139)"/><g filter="url(#prefix__filter0_d_846_139)"><rect x="49" y="52" width="1046" height="516" rx="15" fill="#fff"/><path d="M719.77 138.724c-.895-6.463-5.867-10.213-12.315-10.213-7.6 0-13.324 5.54-13.324 14.944 0 9.389 5.653 14.943 13.324 14.943 6.917 0 11.505-4.475 12.315-10.029l-5.313-.028c-.667 3.409-3.451 5.327-6.931 5.327-4.716 0-8.097-3.537-8.097-10.213 0-6.563 3.352-10.214 8.111-10.214 3.537 0 6.307 2.003 6.917 5.483h5.313zm14.116 19.702c6.392 0 10.454-4.503 10.454-11.25 0-6.761-4.062-11.278-10.454-11.278s-10.455 4.517-10.455 11.278c0 6.747 4.063 11.25 10.455 11.25zm.028-4.119c-3.537 0-5.27-3.154-5.27-7.145 0-3.992 1.733-7.188 5.27-7.188 3.48 0 5.213 3.196 5.213 7.188 0 3.991-1.733 7.145-5.213 7.145zm19.933-9.091c0-3.154 1.903-4.972 4.616-4.972 2.656 0 4.247 1.747 4.247 4.659V158h5.142v-13.892c.014-5.227-2.968-8.21-7.471-8.21-3.267 0-5.512 1.562-6.506 3.991h-.256v-3.707h-4.914V158h5.142v-12.784zm27.329 13.168c3.75 0 5.44-2.231 6.25-3.822h.313V158h5.056v-29.091h-5.156v10.881h-.213c-.781-1.577-2.386-3.892-6.236-3.892-5.042 0-9.005 3.949-9.005 11.221 0 7.188 3.849 11.265 8.991 11.265zm1.435-4.219c-3.395 0-5.185-2.983-5.185-7.074 0-4.063 1.762-6.975 5.185-6.975 3.309 0 5.128 2.742 5.128 6.975s-1.847 7.074-5.128 7.074zM798.275 158h5.142v-21.818h-5.142V158zm2.585-24.915c1.634 0 2.969-1.25 2.969-2.784 0-1.548-1.335-2.798-2.969-2.798-1.648 0-2.983 1.25-2.983 2.798 0 1.534 1.335 2.784 2.983 2.784zm18.739 3.097h-4.304v-5.227h-5.142v5.227h-3.096v3.977h3.096v12.131c-.028 4.105 2.955 6.122 6.819 6.008 1.463-.042 2.471-.326 3.025-.511l-.866-4.02a6.415 6.415 0 01-1.506.199c-1.293 0-2.33-.455-2.33-2.528v-11.279h4.304v-3.977zM823.9 158h5.142v-21.818H823.9V158zm2.585-24.915c1.634 0 2.969-1.25 2.969-2.784 0-1.548-1.335-2.798-2.969-2.798-1.648 0-2.983 1.25-2.983 2.798 0 1.534 1.335 2.784 2.983 2.784zm17.362 25.341c6.392 0 10.454-4.503 10.454-11.25 0-6.761-4.062-11.278-10.454-11.278s-10.455 4.517-10.455 11.278c0 6.747 4.063 11.25 10.455 11.25zm.028-4.119c-3.537 0-5.27-3.154-5.27-7.145 0-3.992 1.733-7.188 5.27-7.188 3.48 0 5.213 3.196 5.213 7.188 0 3.991-1.733 7.145-5.213 7.145zm19.933-9.091c0-3.154 1.903-4.972 4.616-4.972 2.656 0 4.247 1.747 4.247 4.659V158h5.142v-13.892c.014-5.227-2.969-8.21-7.471-8.21-3.267 0-5.512 1.562-6.506 3.991h-.256v-3.707h-4.915V158h5.143v-12.784zM892.962 158h5.142v-21.818h-5.142V158zm2.586-24.915c1.633 0 2.968-1.25 2.968-2.784 0-1.548-1.335-2.798-2.968-2.798-1.648 0-2.983 1.25-2.983 2.798 0 1.534 1.335 2.784 2.983 2.784zm25.088 8.864c-.71-3.693-3.664-6.051-8.778-6.051-5.256 0-8.835 2.585-8.821 6.619-.014 3.182 1.946 5.284 6.136 6.151l3.722.781c2.003.44 2.94 1.25 2.94 2.486 0 1.491-1.619 2.613-4.062 2.613-2.358 0-3.892-1.022-4.333-2.983l-5.014.483c.639 4.006 4.006 6.378 9.361 6.378 5.454 0 9.304-2.827 9.318-6.96-.014-3.111-2.017-5.014-6.136-5.909l-3.722-.796c-2.216-.497-3.096-1.264-3.082-2.528-.014-1.477 1.619-2.5 3.764-2.5 2.372 0 3.622 1.293 4.02 2.727l4.687-.511zm25.682-5.767h-4.531v-1.719c0-1.704.71-2.656 2.628-2.656.809 0 1.491.184 1.917.312l1.037-3.977c-.667-.227-2.13-.597-3.906-.597-3.793 0-6.818 2.174-6.818 6.577v2.06h-3.225v3.977h3.225V158h5.142v-17.841h4.531v-3.977zm9.563 22.258c3.424 0 5.469-1.605 6.407-3.437h.17V158h4.943v-14.602c0-5.767-4.701-7.5-8.863-7.5-4.588 0-8.111 2.045-9.248 6.022l4.802.682c.511-1.491 1.96-2.77 4.474-2.77 2.386 0 3.693 1.222 3.693 3.367v.085c0 1.477-1.548 1.548-5.397 1.96-4.233.455-8.282 1.719-8.282 6.634 0 4.29 3.139 6.562 7.301 6.562zm1.336-3.778c-2.145 0-3.679-.98-3.679-2.869 0-1.975 1.718-2.799 4.02-3.125 1.349-.185 4.048-.526 4.715-1.066v2.571c0 2.429-1.96 4.489-5.056 4.489zm20.497-25.753h-5.142V158h5.142v-29.091zm22.536 13.04c-.714-3.693-3.669-6.051-8.783-6.051-5.255 0-8.835 2.585-8.821 6.619-.014 3.182 1.946 5.284 6.137 6.151l3.721.781c2.003.44 2.941 1.25 2.941 2.486 0 1.491-1.62 2.613-4.063 2.613-2.358 0-3.892-1.022-4.332-2.983l-5.014.483c.639 4.006 4.005 6.378 9.36 6.378 5.455 0 9.304-2.827 9.314-6.96-.01-3.111-2.013-5.014-6.132-5.909l-3.721-.796c-2.216-.497-3.097-1.264-3.083-2.528-.014-1.477 1.619-2.5 3.764-2.5 2.373 0 3.623 1.293 4.02 2.727l4.692-.511zm14.36 16.477c5.09 0 8.58-2.486 9.49-6.278l-4.8-.54c-.69 1.847-2.4 2.812-4.62 2.812-3.32 0-5.52-2.187-5.56-5.923h15.2v-1.577c0-7.656-4.61-11.022-9.98-11.022-6.25 0-10.32 4.588-10.32 11.321 0 6.846 4.02 11.207 10.59 11.207zm-5.48-13.395c.16-2.784 2.22-5.128 5.28-5.128 2.96 0 4.95 2.159 4.98 5.128h-10.26z" fill="#000"/><path d="M750.88 265v-2.296h5.46v-10.808h-4.76V249.6h7.28v13.104h5.18V265h-13.16zm6.44-18.172c-.616 0-1.101-.159-1.456-.476-.355-.317-.532-.747-.532-1.288 0-.56.177-.999.532-1.316.355-.336.84-.504 1.456-.504s1.101.168 1.456.504c.355.317.532.756.532 1.316 0 .541-.177.971-.532 1.288-.355.317-.84.476-1.456.476zM767.865 265v-15.4h2.52v2.94h.028c.131-1.027.551-1.82 1.26-2.38.709-.56 1.652-.84 2.828-.84 1.549 0 2.781.476 3.696 1.428s1.372 2.249 1.372 3.892V265h-2.52v-10.08c0-1.101-.299-1.941-.896-2.52-.579-.597-1.372-.896-2.38-.896-1.045 0-1.876.317-2.492.952-.597.635-.896 1.549-.896 2.744v9.8h-2.52zm24.293 0c-1.325 0-2.361-.355-3.108-1.064-.728-.709-1.092-1.708-1.092-2.996v-9.044h-4.34V249.6h4.34v-4.34h2.52v4.34h6.16v2.296h-6.16v9.044c0 1.176.56 1.764 1.68 1.764h4.2V265h-4.2z" fill="#973FFA"/><path d="M818.232 265v-15.4h2.52v2.94h.028c.131-1.027.551-1.82 1.26-2.38.71-.56 1.652-.84 2.828-.84 1.55 0 2.782.476 3.696 1.428.915.952 1.372 2.249 1.372 3.892V265h-2.52v-10.08c0-1.101-.298-1.941-.896-2.52-.578-.597-1.372-.896-2.38-.896-1.045 0-1.876.317-2.492.952-.597.635-.896 1.549-.896 2.744v9.8h-2.52zm22.585.28c-1.773 0-3.192-.523-4.256-1.568-1.064-1.064-1.596-2.501-1.596-4.312v-9.8h2.52v9.8c0 1.157.299 2.063.896 2.716.598.635 1.41.952 2.436.952 1.046 0 1.867-.317 2.464-.952.616-.653.924-1.559.924-2.716v-9.8h2.52v9.8c0 1.811-.541 3.248-1.624 4.312-1.082 1.045-2.51 1.568-4.284 1.568zm10.265-.28v-15.4h2.212v1.848h.168c.112-.653.383-1.167.812-1.54.448-.392 1.008-.588 1.68-.588 1.326 0 2.166.709 2.52 2.128h.112c.112-.653.392-1.167.84-1.54.467-.392 1.036-.588 1.708-.588.971 0 1.718.364 2.24 1.092.542.728.812 1.689.812 2.884V265h-2.324v-11.732c0-.635-.14-1.129-.42-1.484-.261-.355-.653-.532-1.176-.532-.504 0-.905.177-1.204.532-.28.336-.42.821-.42 1.456V265h-2.016v-11.732c0-.653-.149-1.148-.448-1.484-.28-.355-.681-.532-1.204-.532-.522 0-.914.177-1.176.532-.261.336-.392.821-.392 1.456V265h-2.324zm24.237.28c-1.157 0-2.109-.28-2.856-.84-.746-.579-1.185-1.372-1.316-2.38h-.028V265h-2.52v-20.44h2.52v4.48l-.056 3.5h.084c.131-.989.57-1.773 1.316-2.352.747-.579 1.699-.868 2.856-.868 1.55 0 2.791.513 3.724 1.54.934 1.027 1.4 2.427 1.4 4.2v4.508c0 1.755-.466 3.145-1.4 4.172-.933 1.027-2.174 1.54-3.724 1.54zm-.84-2.184c1.064 0 1.904-.317 2.52-.952.616-.635.924-1.549.924-2.744v-4.2c0-1.195-.308-2.109-.924-2.744-.616-.635-1.456-.952-2.52-.952-1.026 0-1.848.327-2.464.98-.597.653-.896 1.559-.896 2.716v4.2c0 1.157.299 2.063.896 2.716.616.653 1.438.98 2.464.98zm16.734 2.184c-1.214 0-2.278-.243-3.192-.728a5.268 5.268 0 01-2.1-2.044c-.486-.896-.728-1.932-.728-3.108v-4.2c0-1.195.242-2.231.728-3.108a5.268 5.268 0 012.1-2.044c.914-.485 1.978-.728 3.192-.728 1.213 0 2.268.243 3.164.728a5.049 5.049 0 012.1 2.044c.504.877.756 1.913.756 3.108v2.716h-9.576v1.484c0 1.213.308 2.147.924 2.8.616.635 1.493.952 2.632.952.97 0 1.754-.168 2.352-.504a2.226 2.226 0 001.092-1.568h2.52c-.168 1.288-.803 2.315-1.904 3.08-1.083.747-2.436 1.12-4.06 1.12zm-3.556-9.268h7.112v-.812c0-1.213-.308-2.147-.924-2.8-.598-.653-1.475-.98-2.632-.98-1.139 0-2.016.327-2.632.98-.616.653-.924 1.587-.924 2.8v.812zM902.71 265v-15.4h2.464v2.744c.504-2.016 1.857-3.024 4.06-3.024 1.624 0 2.912.513 3.864 1.54.97 1.008 1.456 2.38 1.456 4.116v.924h-2.52v-.7c0-1.213-.299-2.137-.896-2.772-.579-.653-1.41-.98-2.492-.98-1.064 0-1.904.327-2.52.98-.598.653-.896 1.577-.896 2.772v9.8h-2.52zm32.85-11.48v-2.24h12.04v2.24h-12.04zm0 6.72V258h12.04v2.24h-12.04zm33.718 4.76v-2.296h5.544V246.66l-5.544 4.144v-2.8l4.62-3.444h3.444v18.144h4.536V265h-12.6zm22.669.28c-1.885 0-3.388-.541-4.508-1.624-1.101-1.101-1.652-2.567-1.652-4.396v-8.96c0-1.829.551-3.285 1.652-4.368 1.12-1.101 2.623-1.652 4.508-1.652 1.885 0 3.379.551 4.48 1.652 1.12 1.083 1.68 2.539 1.68 4.368v8.96c0 1.213-.252 2.277-.756 3.192a5.313 5.313 0 01-2.156 2.1c-.915.485-1.997.728-3.248.728zm0-2.156c1.12 0 2.016-.355 2.688-1.064.691-.728 1.036-1.661 1.036-2.8v-8.96c0-1.139-.345-2.063-1.036-2.772-.672-.728-1.568-1.092-2.688-1.092s-2.025.364-2.716 1.092c-.672.709-1.008 1.633-1.008 2.772v8.96c0 1.139.336 2.072 1.008 2.8.691.709 1.596 1.064 2.716 1.064zm0-6.692c-.504 0-.915-.159-1.232-.476-.299-.317-.448-.737-.448-1.26 0-.504.149-.905.448-1.204.317-.317.728-.476 1.232-.476s.905.159 1.204.476c.317.299.476.7.476 1.204 0 .523-.159.943-.476 1.26-.299.317-.7.476-1.204.476zm16.513-2.912c-.62 0-1.12-.196-1.52-.588-.39-.392-.58-.896-.58-1.512 0-.597.19-1.092.58-1.484.41-.411.92-.616 1.52-.616h.56c.59 0 1.09.205 1.48.616.41.392.62.887.62 1.484 0 .616-.2 1.12-.59 1.512-.39.392-.9.588-1.51.588h-.56zm-3.36 15.96l2.24-8.708h3.64l-3.64 8.708h-2.24z" fill="#000"/><path d="M750.88 345v-2.296h5.46v-10.808h-4.76V329.6h7.28v13.104h5.18V345h-13.16zm6.44-18.172c-.616 0-1.101-.159-1.456-.476-.355-.317-.532-.747-.532-1.288 0-.56.177-.999.532-1.316.355-.336.84-.504 1.456-.504s1.101.168 1.456.504c.355.317.532.756.532 1.316 0 .541-.177.971-.532 1.288-.355.317-.84.476-1.456.476zM771.449 345v-11.564h-4.48v-2.296h4.48v-2.66c0-1.213.383-2.165 1.148-2.856.765-.709 1.82-1.064 3.164-1.064h4.508v2.296h-4.508c-1.195 0-1.792.541-1.792 1.624v2.66h6.3v2.296h-6.3V345h-2.52z" fill="#973FFA"/><path d="M795.658 348.36c-2.651-.653-4.713-1.941-6.188-3.864-1.475-1.923-2.212-4.275-2.212-7.056v-5.04c0-1.829.336-3.481 1.008-4.956a10.561 10.561 0 012.912-3.78c1.269-1.027 2.763-1.755 4.48-2.184v2.38a6.825 6.825 0 00-3.108 1.624c-.877.784-1.559 1.764-2.044 2.94-.485 1.176-.728 2.501-.728 3.976v5.04c0 1.437.233 2.744.7 3.92.485 1.176 1.167 2.156 2.044 2.94a7.326 7.326 0 003.136 1.568v2.492zm5.785-3.36v-15.4h2.52v2.94h.028c.131-1.027.551-1.82 1.26-2.38.71-.56 1.652-.84 2.828-.84 1.55 0 2.782.476 3.696 1.428.915.952 1.372 2.249 1.372 3.892V345h-2.52v-10.08c0-1.101-.298-1.941-.896-2.52-.578-.597-1.372-.896-2.38-.896-1.045 0-1.876.317-2.492.952-.597.635-.896 1.549-.896 2.744v9.8h-2.52zm22.585.28c-1.773 0-3.192-.523-4.256-1.568-1.064-1.064-1.596-2.501-1.596-4.312v-9.8h2.52v9.8c0 1.157.299 2.063.896 2.716.598.635 1.41.952 2.436.952 1.046 0 1.867-.317 2.464-.952.616-.653.924-1.559.924-2.716v-9.8h2.52v9.8c0 1.811-.541 3.248-1.624 4.312-1.082 1.045-2.51 1.568-4.284 1.568zm10.265-.28v-15.4h2.212v1.848h.168c.112-.653.383-1.167.812-1.54.448-.392 1.008-.588 1.68-.588 1.326 0 2.166.709 2.52 2.128h.112c.112-.653.392-1.167.84-1.54.467-.392 1.036-.588 1.708-.588.971 0 1.718.364 2.24 1.092.542.728.812 1.689.812 2.884V345h-2.324v-11.732c0-.635-.14-1.129-.42-1.484-.261-.355-.653-.532-1.176-.532-.504 0-.905.177-1.204.532-.28.336-.42.821-.42 1.456V345h-2.016v-11.732c0-.653-.149-1.148-.448-1.484-.28-.355-.681-.532-1.204-.532-.522 0-.914.177-1.176.532-.261.336-.392.821-.392 1.456V345h-2.324zm24.237.28c-1.157 0-2.109-.28-2.856-.84-.746-.579-1.185-1.372-1.316-2.38h-.028V345h-2.52v-20.44h2.52v4.48l-.056 3.5h.084c.131-.989.57-1.773 1.316-2.352.747-.579 1.699-.868 2.856-.868 1.55 0 2.791.513 3.724 1.54.934 1.027 1.4 2.427 1.4 4.2v4.508c0 1.755-.466 3.145-1.4 4.172-.933 1.027-2.174 1.54-3.724 1.54zm-.84-2.184c1.064 0 1.904-.317 2.52-.952.616-.635.924-1.549.924-2.744v-4.2c0-1.195-.308-2.109-.924-2.744-.616-.635-1.456-.952-2.52-.952-1.026 0-1.848.327-2.464.98-.597.653-.896 1.559-.896 2.716v4.2c0 1.157.299 2.063.896 2.716.616.653 1.438.98 2.464.98zm16.733 2.184c-1.213 0-2.277-.243-3.192-.728a5.268 5.268 0 01-2.1-2.044c-.485-.896-.728-1.932-.728-3.108v-4.2c0-1.195.243-2.231.728-3.108a5.268 5.268 0 012.1-2.044c.915-.485 1.979-.728 3.192-.728 1.214 0 2.268.243 3.164.728a5.037 5.037 0 012.1 2.044c.504.877.756 1.913.756 3.108v2.716h-9.576v1.484c0 1.213.308 2.147.924 2.8.616.635 1.494.952 2.632.952.971 0 1.755-.168 2.352-.504a2.22 2.22 0 001.092-1.568h2.52c-.168 1.288-.802 2.315-1.904 3.08-1.082.747-2.436 1.12-4.06 1.12zm-3.556-9.268h7.112v-.812c0-1.213-.308-2.147-.924-2.8-.597-.653-1.474-.98-2.632-.98-1.138 0-2.016.327-2.632.98-.616.653-.924 1.587-.924 2.8v.812zM885.921 345v-15.4h2.464v2.744c.504-2.016 1.857-3.024 4.06-3.024 1.624 0 2.912.513 3.864 1.54.97 1.008 1.456 2.38 1.456 4.116v.924h-2.52v-.7c0-1.213-.299-2.137-.896-2.772-.579-.653-1.41-.98-2.492-.98-1.064 0-1.904.327-2.52.98-.598.653-.896 1.577-.896 2.772v9.8h-2.52zm61.679-1.82l-12.04-6.02v-2.8l12.04-6.02v2.436l-8.68 4.256c-.355.168-.691.317-1.008.448a6.839 6.839 0 01-.672.224c.168.037.41.121.728.252.317.112.634.252.952.42l8.68 4.284v2.52zm27.558 2.1c-1.886 0-3.388-.541-4.508-1.624-1.102-1.101-1.652-2.567-1.652-4.396v-8.96c0-1.829.55-3.285 1.652-4.368 1.12-1.101 2.622-1.652 4.508-1.652 1.885 0 3.378.551 4.48 1.652 1.12 1.083 1.68 2.539 1.68 4.368v8.96c0 1.213-.252 2.277-.756 3.192a5.313 5.313 0 01-2.156 2.1c-.915.485-1.998.728-3.248.728zm0-2.156c1.12 0 2.016-.355 2.688-1.064.69-.728 1.036-1.661 1.036-2.8v-8.96c0-1.139-.346-2.063-1.036-2.772-.672-.728-1.568-1.092-2.688-1.092s-2.026.364-2.716 1.092c-.672.709-1.008 1.633-1.008 2.772v8.96c0 1.139.336 2.072 1.008 2.8.69.709 1.596 1.064 2.716 1.064zm0-6.692c-.504 0-.915-.159-1.232-.476-.299-.317-.448-.737-.448-1.26 0-.504.149-.905.448-1.204.317-.317.728-.476 1.232-.476s.905.159 1.204.476c.317.299.476.7.476 1.204 0 .523-.159.943-.476 1.26-.299.317-.7.476-1.204.476zm11.609 11.928v-2.492c1.213-.28 2.259-.803 3.136-1.568.877-.784 1.549-1.764 2.016-2.94.485-1.176.728-2.483.728-3.92v-5.04c0-1.475-.243-2.8-.728-3.976-.485-1.176-1.167-2.156-2.044-2.94a6.825 6.825 0 00-3.108-1.624v-2.38c1.736.429 3.229 1.157 4.48 2.184a10.281 10.281 0 012.884 3.78c.691 1.475 1.036 3.127 1.036 4.956v5.04c0 2.781-.737 5.133-2.212 7.056s-3.537 3.211-6.188 3.864zm43.523-.28c-1.65 0-2.94-.411-3.9-1.232-.93-.803-1.36-1.941-1.28-3.416l.28-4.592c.05-.989-.1-1.699-.45-2.128-.36-.448-1.14-.672-2.35-.672h-3.08v-2.24h3.08c1.21 0 1.99-.215 2.35-.644.35-.448.5-1.167.45-2.156l-.28-4.592c-.08-1.475.35-2.613 1.28-3.416.96-.821 2.25-1.232 3.9-1.232h1.26V324h-1.26c-.88 0-1.55.205-2.02.616-.47.392-.68.989-.64 1.792l.28 4.592c.05 1.064-.17 1.941-.68 2.632-.48.691-1.19 1.12-2.12 1.288.91.168 1.62.597 2.12 1.288.51.691.73 1.568.68 2.632l-.28 4.592c-.04.803.17 1.4.64 1.792.47.411 1.14.616 2.02.616h1.26v2.24h-1.26zm-279.41 74v-2.24h1.26c.877 0 1.549-.205 2.016-.616.467-.392.681-.989.644-1.792l-.28-4.592c-.056-1.064.168-1.941.672-2.632.504-.691 1.213-1.12 2.128-1.288-.933-.168-1.652-.597-2.156-1.288-.485-.691-.7-1.568-.644-2.632l.28-4.592c.037-.803-.177-1.4-.644-1.792-.467-.411-1.139-.616-2.016-.616h-1.26v-2.24h1.26c1.661 0 2.959.411 3.892 1.232.952.803 1.381 1.941 1.288 3.416l-.28 4.592c-.056.989.093 1.708.448 2.156.355.429 1.139.644 2.352.644h3.08v2.24h-3.08c-1.195 0-1.979.224-2.352.672-.355.429-.504 1.139-.448 2.128l.28 4.592c.093 1.475-.336 2.613-1.288 3.416-.933.821-2.231 1.232-3.892 1.232h-1.26z" fill="#000"/><path d="M798.867 385.08l9.94-26.32h2.66l-9.94 26.32h-2.66zm-12.6 0l9.94-26.32h2.66l-9.94 26.32h-2.66zm37.901-2.8c-1.866 0-3.36-.523-4.48-1.568-1.101-1.045-1.652-2.483-1.652-4.312v-4.2c0-1.829.551-3.267 1.652-4.312 1.12-1.045 2.614-1.568 4.48-1.568 1.774 0 3.202.476 4.284 1.428 1.083.952 1.652 2.249 1.708 3.892h-2.52c-.056-.989-.392-1.745-1.008-2.268-.597-.541-1.418-.812-2.464-.812-1.101 0-1.978.317-2.632.952-.653.616-.98 1.503-.98 2.66v4.228c0 1.157.327 2.053.98 2.688.654.635 1.531.952 2.632.952 1.046 0 1.867-.271 2.464-.812.616-.541.952-1.297 1.008-2.268h2.52c-.056 1.643-.625 2.94-1.708 3.892-1.082.952-2.51 1.428-4.284 1.428zm16.677-.056c-1.829 0-3.294-.523-4.396-1.568-1.082-1.045-1.624-2.483-1.624-4.312v-4.088c0-1.829.542-3.267 1.624-4.312 1.102-1.045 2.567-1.568 4.396-1.568 1.83 0 3.286.523 4.368 1.568 1.102 1.027 1.652 2.455 1.652 4.284v4.116c0 1.829-.55 3.267-1.652 4.312-1.082 1.045-2.538 1.568-4.368 1.568zm0-2.24c1.102 0 1.96-.308 2.576-.924.616-.616.924-1.521.924-2.716v-4.088c0-1.195-.308-2.1-.924-2.716-.616-.616-1.474-.924-2.576-.924-1.082 0-1.941.308-2.576.924-.616.616-.924 1.521-.924 2.716v4.088c0 1.195.308 2.1.924 2.716.635.616 1.494.924 2.576.924zm15.893 2.296c-1.53 0-2.772-.513-3.724-1.54-.933-1.027-1.4-2.417-1.4-4.172v-4.508c0-1.773.467-3.173 1.4-4.2.934-1.027 2.175-1.54 3.724-1.54 1.158 0 2.11.289 2.856.868.747.579 1.186 1.363 1.316 2.352h.084l-.056-3.5v-4.48h2.52V382h-2.52v-2.94h-.028c-.13 1.008-.569 1.801-1.316 2.38-.746.56-1.698.84-2.856.84zm.84-2.184c1.046 0 1.867-.327 2.464-.98.598-.653.896-1.559.896-2.716v-4.2c0-1.157-.298-2.063-.896-2.716-.597-.653-1.418-.98-2.464-.98-1.064 0-1.904.317-2.52.952-.616.635-.924 1.549-.924 2.744v4.2c0 1.195.308 2.109.924 2.744.616.635 1.456.952 2.52.952zm16.845 2.184c-1.213 0-2.277-.243-3.192-.728a5.268 5.268 0 01-2.1-2.044c-.485-.896-.728-1.932-.728-3.108v-4.2c0-1.195.243-2.231.728-3.108a5.268 5.268 0 012.1-2.044c.915-.485 1.979-.728 3.192-.728 1.214 0 2.268.243 3.164.728a5.037 5.037 0 012.1 2.044c.504.877.756 1.913.756 3.108v2.716h-9.576v1.484c0 1.213.308 2.147.924 2.8.616.635 1.494.952 2.632.952.971 0 1.755-.168 2.352-.504a2.22 2.22 0 001.092-1.568h2.52c-.168 1.288-.802 2.315-1.904 3.08-1.082.747-2.436 1.12-4.06 1.12zm-3.556-9.268h7.112v-.812c0-1.213-.308-2.147-.924-2.8-.597-.653-1.474-.98-2.632-.98-1.138 0-2.016.327-2.632.98-.616.653-.924 1.587-.924 2.8v.812zM765.289 496.08l9.94-26.32h2.66l-9.94 26.32h-2.66zm-12.6 0l9.94-26.32h2.66l-9.94 26.32h-2.66zm37.901-2.8c-1.867 0-3.36-.523-4.48-1.568-1.101-1.045-1.652-2.483-1.652-4.312v-4.2c0-1.829.551-3.267 1.652-4.312 1.12-1.045 2.613-1.568 4.48-1.568 1.773 0 3.201.476 4.284 1.428 1.083.952 1.652 2.249 1.708 3.892h-2.52c-.056-.989-.392-1.745-1.008-2.268-.597-.541-1.419-.812-2.464-.812-1.101 0-1.979.317-2.632.952-.653.616-.98 1.503-.98 2.66v4.228c0 1.157.327 2.053.98 2.688.653.635 1.531.952 2.632.952 1.045 0 1.867-.271 2.464-.812.616-.541.952-1.297 1.008-2.268h2.52c-.056 1.643-.625 2.94-1.708 3.892s-2.511 1.428-4.284 1.428zm16.677-.056c-1.829 0-3.294-.523-4.396-1.568-1.082-1.045-1.624-2.483-1.624-4.312v-4.088c0-1.829.542-3.267 1.624-4.312 1.102-1.045 2.567-1.568 4.396-1.568 1.83 0 3.286.523 4.368 1.568 1.102 1.027 1.652 2.455 1.652 4.284v4.116c0 1.829-.55 3.267-1.652 4.312-1.082 1.045-2.538 1.568-4.368 1.568zm0-2.24c1.102 0 1.96-.308 2.576-.924.616-.616.924-1.521.924-2.716v-4.088c0-1.195-.308-2.1-.924-2.716-.616-.616-1.474-.924-2.576-.924-1.082 0-1.941.308-2.576.924-.616.616-.924 1.521-.924 2.716v4.088c0 1.195.308 2.1.924 2.716.635.616 1.494.924 2.576.924zm15.893 2.296c-1.53 0-2.772-.513-3.724-1.54-.933-1.027-1.4-2.417-1.4-4.172v-4.508c0-1.773.467-3.173 1.4-4.2.934-1.027 2.175-1.54 3.724-1.54 1.158 0 2.11.289 2.856.868.747.579 1.186 1.363 1.316 2.352h.084l-.056-3.5v-4.48h2.52V493h-2.52v-2.94h-.028c-.13 1.008-.569 1.801-1.316 2.38-.746.56-1.698.84-2.856.84zm.84-2.184c1.046 0 1.867-.327 2.464-.98.598-.653.896-1.559.896-2.716v-4.2c0-1.157-.298-2.063-.896-2.716-.597-.653-1.418-.98-2.464-.98-1.064 0-1.904.317-2.52.952-.616.635-.924 1.549-.924 2.744v4.2c0 1.195.308 2.109.924 2.744.616.635 1.456.952 2.52.952zm16.845 2.184c-1.213 0-2.277-.243-3.192-.728a5.268 5.268 0 01-2.1-2.044c-.485-.896-.728-1.932-.728-3.108v-4.2c0-1.195.243-2.231.728-3.108a5.268 5.268 0 012.1-2.044c.915-.485 1.979-.728 3.192-.728 1.214 0 2.268.243 3.164.728a5.037 5.037 0 012.1 2.044c.504.877.756 1.913.756 3.108v2.716h-9.576v1.484c0 1.213.308 2.147.924 2.8.616.635 1.494.952 2.632.952.971 0 1.755-.168 2.352-.504a2.22 2.22 0 001.092-1.568h2.52c-.168 1.288-.802 2.315-1.904 3.08-1.082.747-2.436 1.12-4.06 1.12zm-3.556-9.268h7.112v-.812c0-1.213-.308-2.147-.924-2.8-.597-.653-1.474-.98-2.632-.98-1.138 0-2.016.327-2.632.98-.616.653-.924 1.587-.924 2.8v.812zm35.79 9.268c-1.624 0-2.902-.411-3.836-1.232-.933-.84-1.4-1.969-1.4-3.388 0-1.437.467-2.567 1.4-3.388.934-.821 2.194-1.232 3.78-1.232h4.76v-1.54c0-.952-.289-1.68-.868-2.184-.56-.523-1.362-.784-2.408-.784-.914 0-1.68.196-2.296.588-.616.373-.97.887-1.064 1.54h-2.52c.168-1.325.794-2.38 1.876-3.164 1.083-.784 2.436-1.176 4.06-1.176 1.774 0 3.174.457 4.2 1.372 1.027.915 1.54 2.156 1.54 3.724V493h-2.464v-2.94h-.028c-.112.989-.597 1.773-1.456 2.352-.84.579-1.932.868-3.276.868zm.616-1.988c1.195 0 2.175-.299 2.94-.896.766-.597 1.148-1.363 1.148-2.296v-2.184h-4.704c-.84 0-1.502.233-1.988.7-.485.467-.728 1.101-.728 1.904 0 .859.29 1.54.868 2.044.598.485 1.419.728 2.464.728zM888.973 493v-11.564h-4.48v-2.296h4.48v-2.66c0-1.213.382-2.165 1.148-2.856.765-.709 1.82-1.064 3.164-1.064h4.508v2.296h-4.508c-1.195 0-1.792.541-1.792 1.624v2.66h6.3v2.296h-6.3V493h-2.52zm20.709 0c-1.326 0-2.362-.355-3.108-1.064-.728-.709-1.092-1.708-1.092-2.996v-9.044h-4.34V477.6h4.34v-4.34h2.52v4.34h6.16v2.296h-6.16v9.044c0 1.176.56 1.764 1.68 1.764h4.2V493h-4.2zm15.109.28c-1.214 0-2.278-.243-3.192-.728a5.268 5.268 0 01-2.1-2.044c-.486-.896-.728-1.932-.728-3.108v-4.2c0-1.195.242-2.231.728-3.108a5.268 5.268 0 012.1-2.044c.914-.485 1.978-.728 3.192-.728 1.213 0 2.268.243 3.164.728a5.049 5.049 0 012.1 2.044c.504.877.756 1.913.756 3.108v2.716h-9.576v1.484c0 1.213.308 2.147.924 2.8.616.635 1.493.952 2.632.952.97 0 1.754-.168 2.352-.504a2.226 2.226 0 001.092-1.568h2.52c-.168 1.288-.803 2.315-1.904 3.08-1.083.747-2.436 1.12-4.06 1.12zm-3.556-9.268h7.112v-.812c0-1.213-.308-2.147-.924-2.8-.598-.653-1.475-.98-2.632-.98-1.139 0-2.016.327-2.632.98-.616.653-.924 1.587-.924 2.8v.812zM936.288 493v-15.4h2.464v2.744c.504-2.016 1.857-3.024 4.06-3.024 1.624 0 2.912.513 3.864 1.54.97 1.008 1.456 2.38 1.456 4.116v.924h-2.52v-.7c0-1.213-.299-2.137-.896-2.772-.579-.653-1.41-.98-2.492-.98-1.064 0-1.904.327-2.52.98-.598.653-.896 1.577-.896 2.772v9.8h-2.52zm32.85 0v-2.296h5.46v-10.808h-4.76V477.6h7.28v13.104h5.18V493h-13.16zm6.44-18.172c-.616 0-1.102-.159-1.456-.476-.355-.317-.532-.747-.532-1.288 0-.56.177-.999.532-1.316.354-.336.84-.504 1.456-.504s1.101.168 1.456.504c.354.317.532.756.532 1.316 0 .541-.178.971-.532 1.288-.355.317-.84.476-1.456.476zM989.707 493v-11.564h-4.48v-2.296h4.48v-2.66c0-1.213.383-2.165 1.148-2.856.765-.709 1.82-1.064 3.164-1.064h4.508v2.296h-4.508c-1.195 0-1.792.541-1.792 1.624v2.66h6.3v2.296h-6.3V493h-2.52z" fill="#DB6A05"/><path d="M738 338.5a1.5 1.5 0 000-3v3zm-.939 146.561a1.502 1.502 0 000-2.122l-9.546-9.546a1.502 1.502 0 00-2.122 0 1.502 1.502 0 000 2.122l8.486 8.485-8.486 8.485a1.502 1.502 0 000 2.122 1.502 1.502 0 002.122 0l9.546-9.546zM738 335.5h-47v3h47v-3zm-54.5 7.5v135h3V343h-3zm7.5 142.5h45v-3h-45v3zm-7.5-7.5a7.5 7.5 0 007.5 7.5v-3a4.5 4.5 0 01-4.5-4.5h-3zm7.5-142.5a7.5 7.5 0 00-7.5 7.5h3a4.5 4.5 0 014.5-4.5v-3z" fill="#3884FF"/><path d="M154.77 138.724c-.895-6.463-5.867-10.213-12.315-10.213-7.6 0-13.324 5.54-13.324 14.944 0 9.389 5.653 14.943 13.324 14.943 6.917 0 11.505-4.475 12.315-10.029l-5.313-.028c-.667 3.409-3.451 5.327-6.931 5.327-4.716 0-8.097-3.537-8.097-10.213 0-6.563 3.352-10.214 8.111-10.214 3.537 0 6.307 2.003 6.917 5.483h5.313zm14.116 19.702c6.392 0 10.454-4.503 10.454-11.25 0-6.761-4.062-11.278-10.454-11.278s-10.455 4.517-10.455 11.278c0 6.747 4.063 11.25 10.455 11.25zm.028-4.119c-3.537 0-5.27-3.154-5.27-7.145 0-3.992 1.733-7.188 5.27-7.188 3.48 0 5.213 3.196 5.213 7.188 0 3.991-1.733 7.145-5.213 7.145zm19.933-9.091c0-3.154 1.903-4.972 4.616-4.972 2.656 0 4.247 1.747 4.247 4.659V158h5.142v-13.892c.014-5.227-2.968-8.21-7.471-8.21-3.267 0-5.512 1.562-6.506 3.991h-.256v-3.707h-4.914V158h5.142v-12.784zm27.329 13.168c3.75 0 5.44-2.231 6.25-3.822h.313V158h5.056v-29.091h-5.156v10.881h-.213c-.781-1.577-2.386-3.892-6.236-3.892-5.042 0-9.005 3.949-9.005 11.221 0 7.188 3.849 11.265 8.991 11.265zm1.435-4.219c-3.395 0-5.185-2.983-5.185-7.074 0-4.063 1.762-6.975 5.185-6.975 3.309 0 5.128 2.742 5.128 6.975s-1.847 7.074-5.128 7.074zM233.275 158h5.142v-21.818h-5.142V158zm2.585-24.915c1.634 0 2.969-1.25 2.969-2.784 0-1.548-1.335-2.798-2.969-2.798-1.648 0-2.983 1.25-2.983 2.798 0 1.534 1.335 2.784 2.983 2.784zm18.739 3.097h-4.304v-5.227h-5.142v5.227h-3.096v3.977h3.096v12.131c-.028 4.105 2.955 6.122 6.819 6.008 1.463-.042 2.471-.326 3.025-.511l-.866-4.02a6.415 6.415 0 01-1.506.199c-1.293 0-2.33-.455-2.33-2.528v-11.279h4.304v-3.977zM258.9 158h5.142v-21.818H258.9V158zm2.585-24.915c1.634 0 2.969-1.25 2.969-2.784 0-1.548-1.335-2.798-2.969-2.798-1.648 0-2.983 1.25-2.983 2.798 0 1.534 1.335 2.784 2.983 2.784zm17.362 25.341c6.392 0 10.454-4.503 10.454-11.25 0-6.761-4.062-11.278-10.454-11.278s-10.455 4.517-10.455 11.278c0 6.747 4.063 11.25 10.455 11.25zm.028-4.119c-3.537 0-5.27-3.154-5.27-7.145 0-3.992 1.733-7.188 5.27-7.188 3.48 0 5.213 3.196 5.213 7.188 0 3.991-1.733 7.145-5.213 7.145zm19.933-9.091c0-3.154 1.903-4.972 4.616-4.972 2.656 0 4.247 1.747 4.247 4.659V158h5.142v-13.892c.014-5.227-2.969-8.21-7.471-8.21-3.267 0-5.512 1.562-6.506 3.991h-.256v-3.707h-4.915V158h5.143v-12.784zM327.962 158h5.142v-21.818h-5.142V158zm2.586-24.915c1.633 0 2.968-1.25 2.968-2.784 0-1.548-1.335-2.798-2.968-2.798-1.648 0-2.983 1.25-2.983 2.798 0 1.534 1.335 2.784 2.983 2.784zm25.088 8.864c-.71-3.693-3.664-6.051-8.778-6.051-5.256 0-8.835 2.585-8.821 6.619-.014 3.182 1.946 5.284 6.136 6.151l3.722.781c2.003.44 2.94 1.25 2.94 2.486 0 1.491-1.619 2.613-4.062 2.613-2.358 0-3.892-1.022-4.333-2.983l-5.014.483c.639 4.006 4.006 6.378 9.361 6.378 5.454 0 9.304-2.827 9.318-6.96-.014-3.111-2.017-5.014-6.136-5.909l-3.722-.796c-2.216-.497-3.096-1.264-3.082-2.528-.014-1.477 1.619-2.5 3.764-2.5 2.372 0 3.622 1.293 4.02 2.727l4.687-.511zm25.526-5.767h-4.304v-5.227h-5.142v5.227h-3.097v3.977h3.097v12.131c-.028 4.105 2.954 6.122 6.818 6.008 1.463-.042 2.472-.326 3.026-.511l-.867-4.02a6.405 6.405 0 01-1.505.199c-1.293 0-2.33-.455-2.33-2.528v-11.279h4.304v-3.977zm4.3 21.818h5.142v-12.827c0-2.77 2.088-4.73 4.915-4.73.867 0 1.946.156 2.387.298v-4.73c-.469-.085-1.279-.142-1.847-.142-2.5 0-4.588 1.421-5.384 3.949h-.227v-3.636h-4.986V158zm29.766-9.176c0 3.324-2.372 4.971-4.645 4.971-2.471 0-4.119-1.747-4.119-4.517v-13.096h-5.142v13.892c0 5.241 2.983 8.21 7.272 8.21 3.268 0 5.569-1.719 6.563-4.162h.227V158h4.986v-21.818h-5.142v12.642zm20.089 9.602c5.085 0 8.579-2.486 9.488-6.278l-4.801-.54c-.696 1.847-2.4 2.812-4.616 2.812-3.324 0-5.526-2.187-5.568-5.923h15.198v-1.577c0-7.656-4.602-11.022-9.971-11.022-6.25 0-10.327 4.588-10.327 11.321 0 6.846 4.02 11.207 10.597 11.207zm-5.483-13.395c.156-2.784 2.216-5.128 5.284-5.128 2.954 0 4.943 2.159 4.971 5.128h-10.255z" fill="#000"/><path d="M181.88 265v-2.296h5.46v-10.808h-4.76V249.6h7.28v13.104h5.18V265h-13.16zm6.44-18.172c-.616 0-1.101-.159-1.456-.476-.355-.317-.532-.747-.532-1.288 0-.56.177-.999.532-1.316.355-.336.84-.504 1.456-.504s1.101.168 1.456.504c.355.317.532.756.532 1.316 0 .541-.177.971-.532 1.288-.355.317-.84.476-1.456.476zM198.865 265v-15.4h2.52v2.94h.028c.131-1.027.551-1.82 1.26-2.38.709-.56 1.652-.84 2.828-.84 1.549 0 2.781.476 3.696 1.428s1.372 2.249 1.372 3.892V265h-2.52v-10.08c0-1.101-.299-1.941-.896-2.52-.579-.597-1.372-.896-2.38-.896-1.045 0-1.876.317-2.492.952-.597.635-.896 1.549-.896 2.744v9.8h-2.52zm24.293 0c-1.325 0-2.361-.355-3.108-1.064-.728-.709-1.092-1.708-1.092-2.996v-9.044h-4.34V249.6h4.34v-4.34h2.52v4.34h6.16v2.296h-6.16v9.044c0 1.176.56 1.764 1.68 1.764h4.2V265h-4.2z" fill="#973FFA"/><path d="M249.232 265v-15.4h2.52v2.94h.028c.131-1.027.551-1.82 1.26-2.38.71-.56 1.652-.84 2.828-.84 1.55 0 2.782.476 3.696 1.428.915.952 1.372 2.249 1.372 3.892V265h-2.52v-10.08c0-1.101-.298-1.941-.896-2.52-.578-.597-1.372-.896-2.38-.896-1.045 0-1.876.317-2.492.952-.597.635-.896 1.549-.896 2.744v9.8h-2.52zm22.585.28c-1.773 0-3.192-.523-4.256-1.568-1.064-1.064-1.596-2.501-1.596-4.312v-9.8h2.52v9.8c0 1.157.299 2.063.896 2.716.598.635 1.41.952 2.436.952 1.046 0 1.867-.317 2.464-.952.616-.653.924-1.559.924-2.716v-9.8h2.52v9.8c0 1.811-.541 3.248-1.624 4.312-1.082 1.045-2.51 1.568-4.284 1.568zm10.265-.28v-15.4h2.212v1.848h.168c.112-.653.383-1.167.812-1.54.448-.392 1.008-.588 1.68-.588 1.326 0 2.166.709 2.52 2.128h.112c.112-.653.392-1.167.84-1.54.467-.392 1.036-.588 1.708-.588.971 0 1.718.364 2.24 1.092.542.728.812 1.689.812 2.884V265h-2.324v-11.732c0-.635-.14-1.129-.42-1.484-.261-.355-.653-.532-1.176-.532-.504 0-.905.177-1.204.532-.28.336-.42.821-.42 1.456V265h-2.016v-11.732c0-.653-.149-1.148-.448-1.484-.28-.355-.681-.532-1.204-.532-.522 0-.914.177-1.176.532-.261.336-.392.821-.392 1.456V265h-2.324zm24.237.28c-1.157 0-2.109-.28-2.856-.84-.746-.579-1.185-1.372-1.316-2.38h-.028V265h-2.52v-20.44h2.52v4.48l-.056 3.5h.084c.131-.989.57-1.773 1.316-2.352.747-.579 1.699-.868 2.856-.868 1.55 0 2.791.513 3.724 1.54.934 1.027 1.4 2.427 1.4 4.2v4.508c0 1.755-.466 3.145-1.4 4.172-.933 1.027-2.174 1.54-3.724 1.54zm-.84-2.184c1.064 0 1.904-.317 2.52-.952.616-.635.924-1.549.924-2.744v-4.2c0-1.195-.308-2.109-.924-2.744-.616-.635-1.456-.952-2.52-.952-1.026 0-1.848.327-2.464.98-.597.653-.896 1.559-.896 2.716v4.2c0 1.157.299 2.063.896 2.716.616.653 1.438.98 2.464.98zm16.734 2.184c-1.214 0-2.278-.243-3.192-.728a5.268 5.268 0 01-2.1-2.044c-.486-.896-.728-1.932-.728-3.108v-4.2c0-1.195.242-2.231.728-3.108a5.268 5.268 0 012.1-2.044c.914-.485 1.978-.728 3.192-.728 1.213 0 2.268.243 3.164.728a5.049 5.049 0 012.1 2.044c.504.877.756 1.913.756 3.108v2.716h-9.576v1.484c0 1.213.308 2.147.924 2.8.616.635 1.493.952 2.632.952.97 0 1.754-.168 2.352-.504a2.226 2.226 0 001.092-1.568h2.52c-.168 1.288-.803 2.315-1.904 3.08-1.083.747-2.436 1.12-4.06 1.12zm-3.556-9.268h7.112v-.812c0-1.213-.308-2.147-.924-2.8-.598-.653-1.475-.98-2.632-.98-1.139 0-2.016.327-2.632.98-.616.653-.924 1.587-.924 2.8v.812zM333.71 265v-15.4h2.464v2.744c.504-2.016 1.857-3.024 4.06-3.024 1.624 0 2.912.513 3.864 1.54.97 1.008 1.456 2.38 1.456 4.116v.924h-2.52v-.7c0-1.213-.299-2.137-.896-2.772-.579-.653-1.41-.98-2.492-.98-1.064 0-1.904.327-2.52.98-.598.653-.896 1.577-.896 2.772v9.8h-2.52zm32.85-11.48v-2.24h12.04v2.24h-12.04zm0 6.72V258h12.04v2.24h-12.04zm33.718 4.76v-2.296h5.544V246.66l-5.544 4.144v-2.8l4.62-3.444h3.444v18.144h4.536V265h-12.6zm22.669.28c-1.885 0-3.388-.541-4.508-1.624-1.101-1.101-1.652-2.567-1.652-4.396v-8.96c0-1.829.551-3.285 1.652-4.368 1.12-1.101 2.623-1.652 4.508-1.652 1.885 0 3.379.551 4.48 1.652 1.12 1.083 1.68 2.539 1.68 4.368v8.96c0 1.213-.252 2.277-.756 3.192a5.313 5.313 0 01-2.156 2.1c-.915.485-1.997.728-3.248.728zm0-2.156c1.12 0 2.016-.355 2.688-1.064.691-.728 1.036-1.661 1.036-2.8v-8.96c0-1.139-.345-2.063-1.036-2.772-.672-.728-1.568-1.092-2.688-1.092s-2.025.364-2.716 1.092c-.672.709-1.008 1.633-1.008 2.772v8.96c0 1.139.336 2.072 1.008 2.8.691.709 1.596 1.064 2.716 1.064zm0-6.692c-.504 0-.915-.159-1.232-.476-.299-.317-.448-.737-.448-1.26 0-.504.149-.905.448-1.204.317-.317.728-.476 1.232-.476s.905.159 1.204.476c.317.299.476.7.476 1.204 0 .523-.159.943-.476 1.26-.299.317-.7.476-1.204.476zm16.509-2.912c-.616 0-1.12-.196-1.512-.588-.392-.392-.588-.896-.588-1.512 0-.597.196-1.092.588-1.484a2.055 2.055 0 011.512-.616h.56c.597 0 1.092.205 1.484.616.411.392.616.887.616 1.484 0 .616-.196 1.12-.588 1.512-.392.392-.896.588-1.512.588h-.56zm-3.36 15.96l2.24-8.708h3.64l-3.64 8.708h-2.24z" fill="#000"/><path d="M181.88 345v-2.296h5.46v-10.808h-4.76V329.6h7.28v13.104h5.18V345h-13.16zm6.44-18.172c-.616 0-1.101-.159-1.456-.476-.355-.317-.532-.747-.532-1.288 0-.56.177-.999.532-1.316.355-.336.84-.504 1.456-.504s1.101.168 1.456.504c.355.317.532.756.532 1.316 0 .541-.177.971-.532 1.288-.355.317-.84.476-1.456.476zM202.449 345v-11.564h-4.48v-2.296h4.48v-2.66c0-1.213.383-2.165 1.148-2.856.765-.709 1.82-1.064 3.164-1.064h4.508v2.296h-4.508c-1.195 0-1.792.541-1.792 1.624v2.66h6.3v2.296h-6.3V345h-2.52z" fill="#973FFA"/><path d="M226.658 348.36c-2.651-.653-4.713-1.941-6.188-3.864-1.475-1.923-2.212-4.275-2.212-7.056v-5.04c0-1.829.336-3.481 1.008-4.956a10.561 10.561 0 012.912-3.78c1.269-1.027 2.763-1.755 4.48-2.184v2.38a6.825 6.825 0 00-3.108 1.624c-.877.784-1.559 1.764-2.044 2.94-.485 1.176-.728 2.501-.728 3.976v5.04c0 1.437.233 2.744.7 3.92.485 1.176 1.167 2.156 2.044 2.94a7.326 7.326 0 003.136 1.568v2.492zm5.785-3.36v-15.4h2.52v2.94h.028c.131-1.027.551-1.82 1.26-2.38.71-.56 1.652-.84 2.828-.84 1.55 0 2.782.476 3.696 1.428.915.952 1.372 2.249 1.372 3.892V345h-2.52v-10.08c0-1.101-.298-1.941-.896-2.52-.578-.597-1.372-.896-2.38-.896-1.045 0-1.876.317-2.492.952-.597.635-.896 1.549-.896 2.744v9.8h-2.52zm22.585.28c-1.773 0-3.192-.523-4.256-1.568-1.064-1.064-1.596-2.501-1.596-4.312v-9.8h2.52v9.8c0 1.157.299 2.063.896 2.716.598.635 1.41.952 2.436.952 1.046 0 1.867-.317 2.464-.952.616-.653.924-1.559.924-2.716v-9.8h2.52v9.8c0 1.811-.541 3.248-1.624 4.312-1.082 1.045-2.51 1.568-4.284 1.568zm10.265-.28v-15.4h2.212v1.848h.168c.112-.653.383-1.167.812-1.54.448-.392 1.008-.588 1.68-.588 1.326 0 2.166.709 2.52 2.128h.112c.112-.653.392-1.167.84-1.54.467-.392 1.036-.588 1.708-.588.971 0 1.718.364 2.24 1.092.542.728.812 1.689.812 2.884V345h-2.324v-11.732c0-.635-.14-1.129-.42-1.484-.261-.355-.653-.532-1.176-.532-.504 0-.905.177-1.204.532-.28.336-.42.821-.42 1.456V345h-2.016v-11.732c0-.653-.149-1.148-.448-1.484-.28-.355-.681-.532-1.204-.532-.522 0-.914.177-1.176.532-.261.336-.392.821-.392 1.456V345h-2.324zm24.237.28c-1.157 0-2.109-.28-2.856-.84-.746-.579-1.185-1.372-1.316-2.38h-.028V345h-2.52v-20.44h2.52v4.48l-.056 3.5h.084c.131-.989.57-1.773 1.316-2.352.747-.579 1.699-.868 2.856-.868 1.55 0 2.791.513 3.724 1.54.934 1.027 1.4 2.427 1.4 4.2v4.508c0 1.755-.466 3.145-1.4 4.172-.933 1.027-2.174 1.54-3.724 1.54zm-.84-2.184c1.064 0 1.904-.317 2.52-.952.616-.635.924-1.549.924-2.744v-4.2c0-1.195-.308-2.109-.924-2.744-.616-.635-1.456-.952-2.52-.952-1.026 0-1.848.327-2.464.98-.597.653-.896 1.559-.896 2.716v4.2c0 1.157.299 2.063.896 2.716.616.653 1.438.98 2.464.98zm16.733 2.184c-1.213 0-2.277-.243-3.192-.728a5.268 5.268 0 01-2.1-2.044c-.485-.896-.728-1.932-.728-3.108v-4.2c0-1.195.243-2.231.728-3.108a5.268 5.268 0 012.1-2.044c.915-.485 1.979-.728 3.192-.728 1.214 0 2.268.243 3.164.728a5.037 5.037 0 012.1 2.044c.504.877.756 1.913.756 3.108v2.716h-9.576v1.484c0 1.213.308 2.147.924 2.8.616.635 1.494.952 2.632.952.971 0 1.755-.168 2.352-.504a2.22 2.22 0 001.092-1.568h2.52c-.168 1.288-.802 2.315-1.904 3.08-1.082.747-2.436 1.12-4.06 1.12zm-3.556-9.268h7.112v-.812c0-1.213-.308-2.147-.924-2.8-.597-.653-1.474-.98-2.632-.98-1.138 0-2.016.327-2.632.98-.616.653-.924 1.587-.924 2.8v.812zM316.921 345v-15.4h2.464v2.744c.504-2.016 1.857-3.024 4.06-3.024 1.624 0 2.912.513 3.864 1.54.97 1.008 1.456 2.38 1.456 4.116v.924h-2.52v-.7c0-1.213-.299-2.137-.896-2.772-.579-.653-1.41-.98-2.492-.98-1.064 0-1.904.327-2.52.98-.598.653-.896 1.577-.896 2.772v9.8h-2.52zm49.639-1.82v-2.436l8.68-4.256c.354-.168.681-.308.98-.42.317-.131.55-.215.7-.252a6.764 6.764 0 01-.728-.224c-.318-.131-.635-.28-.952-.448l-8.68-4.284v-2.52l12.04 6.02v2.8l-12.04 6.02zm39.598 2.1c-1.886 0-3.388-.541-4.508-1.624-1.102-1.101-1.652-2.567-1.652-4.396v-8.96c0-1.829.55-3.285 1.652-4.368 1.12-1.101 2.622-1.652 4.508-1.652 1.885 0 3.378.551 4.48 1.652 1.12 1.083 1.68 2.539 1.68 4.368v8.96c0 1.213-.252 2.277-.756 3.192a5.313 5.313 0 01-2.156 2.1c-.915.485-1.998.728-3.248.728zm0-2.156c1.12 0 2.016-.355 2.688-1.064.69-.728 1.036-1.661 1.036-2.8v-8.96c0-1.139-.346-2.063-1.036-2.772-.672-.728-1.568-1.092-2.688-1.092s-2.026.364-2.716 1.092c-.672.709-1.008 1.633-1.008 2.772v8.96c0 1.139.336 2.072 1.008 2.8.69.709 1.596 1.064 2.716 1.064zm0-6.692c-.504 0-.915-.159-1.232-.476-.299-.317-.448-.737-.448-1.26 0-.504.149-.905.448-1.204.317-.317.728-.476 1.232-.476s.905.159 1.204.476c.317.299.476.7.476 1.204 0 .523-.159.943-.476 1.26-.299.317-.7.476-1.204.476zm11.609 11.928v-2.492c1.213-.28 2.259-.803 3.136-1.568.877-.784 1.549-1.764 2.016-2.94.485-1.176.728-2.483.728-3.92v-5.04c0-1.475-.243-2.8-.728-3.976-.485-1.176-1.167-2.156-2.044-2.94a6.825 6.825 0 00-3.108-1.624v-2.38c1.736.429 3.229 1.157 4.48 2.184a10.281 10.281 0 012.884 3.78c.691 1.475 1.036 3.127 1.036 4.956v5.04c0 2.781-.737 5.133-2.212 7.056s-3.537 3.211-6.188 3.864zm43.518-.28c-1.643 0-2.94-.411-3.892-1.232-.933-.803-1.363-1.941-1.288-3.416l.28-4.592c.056-.989-.093-1.699-.448-2.128-.355-.448-1.139-.672-2.352-.672h-3.08v-2.24h3.08c1.213 0 1.997-.215 2.352-.644.355-.448.504-1.167.448-2.156l-.28-4.592c-.075-1.475.355-2.613 1.288-3.416.952-.821 2.249-1.232 3.892-1.232h1.26V324h-1.26c-.877 0-1.549.205-2.016.616-.467.392-.681.989-.644 1.792l.28 4.592c.056 1.064-.168 1.941-.672 2.632-.485.691-1.195 1.12-2.128 1.288.915.168 1.624.597 2.128 1.288.504.691.728 1.568.672 2.632l-.28 4.592c-.037.803.177 1.4.644 1.792.467.411 1.139.616 2.016.616h1.26v2.24h-1.26zm-279.405 74v-2.24h1.26c.877 0 1.549-.205 2.016-.616.467-.392.681-.989.644-1.792l-.28-4.592c-.056-1.064.168-1.941.672-2.632.504-.691 1.213-1.12 2.128-1.288-.933-.168-1.652-.597-2.156-1.288-.485-.691-.7-1.568-.644-2.632l.28-4.592c.037-.803-.177-1.4-.644-1.792-.467-.411-1.139-.616-2.016-.616h-1.26v-2.24h1.26c1.661 0 2.959.411 3.892 1.232.952.803 1.381 1.941 1.288 3.416l-.28 4.592c-.056.989.093 1.708.448 2.156.355.429 1.139.644 2.352.644h3.08v2.24h-3.08c-1.195 0-1.979.224-2.352.672-.355.429-.504 1.139-.448 2.128l.28 4.592c.093 1.475-.336 2.613-1.288 3.416-.933.821-2.231 1.232-3.892 1.232h-1.26z" fill="#000"/><path d="M229.867 385.08l9.94-26.32h2.66l-9.94 26.32h-2.66zm-12.6 0l9.94-26.32h2.66l-9.94 26.32h-2.66zm37.901-2.8c-1.866 0-3.36-.523-4.48-1.568-1.101-1.045-1.652-2.483-1.652-4.312v-4.2c0-1.829.551-3.267 1.652-4.312 1.12-1.045 2.614-1.568 4.48-1.568 1.774 0 3.202.476 4.284 1.428 1.083.952 1.652 2.249 1.708 3.892h-2.52c-.056-.989-.392-1.745-1.008-2.268-.597-.541-1.418-.812-2.464-.812-1.101 0-1.978.317-2.632.952-.653.616-.98 1.503-.98 2.66v4.228c0 1.157.327 2.053.98 2.688.654.635 1.531.952 2.632.952 1.046 0 1.867-.271 2.464-.812.616-.541.952-1.297 1.008-2.268h2.52c-.056 1.643-.625 2.94-1.708 3.892-1.082.952-2.51 1.428-4.284 1.428zm16.677-.056c-1.829 0-3.294-.523-4.396-1.568-1.082-1.045-1.624-2.483-1.624-4.312v-4.088c0-1.829.542-3.267 1.624-4.312 1.102-1.045 2.567-1.568 4.396-1.568 1.83 0 3.286.523 4.368 1.568 1.102 1.027 1.652 2.455 1.652 4.284v4.116c0 1.829-.55 3.267-1.652 4.312-1.082 1.045-2.538 1.568-4.368 1.568zm0-2.24c1.102 0 1.96-.308 2.576-.924.616-.616.924-1.521.924-2.716v-4.088c0-1.195-.308-2.1-.924-2.716-.616-.616-1.474-.924-2.576-.924-1.082 0-1.941.308-2.576.924-.616.616-.924 1.521-.924 2.716v4.088c0 1.195.308 2.1.924 2.716.635.616 1.494.924 2.576.924zm15.893 2.296c-1.53 0-2.772-.513-3.724-1.54-.933-1.027-1.4-2.417-1.4-4.172v-4.508c0-1.773.467-3.173 1.4-4.2.934-1.027 2.175-1.54 3.724-1.54 1.158 0 2.11.289 2.856.868.747.579 1.186 1.363 1.316 2.352h.084l-.056-3.5v-4.48h2.52V382h-2.52v-2.94h-.028c-.13 1.008-.569 1.801-1.316 2.38-.746.56-1.698.84-2.856.84zm.84-2.184c1.046 0 1.867-.327 2.464-.98.598-.653.896-1.559.896-2.716v-4.2c0-1.157-.298-2.063-.896-2.716-.597-.653-1.418-.98-2.464-.98-1.064 0-1.904.317-2.52.952-.616.635-.924 1.549-.924 2.744v4.2c0 1.195.308 2.109.924 2.744.616.635 1.456.952 2.52.952zm16.845 2.184c-1.213 0-2.277-.243-3.192-.728a5.268 5.268 0 01-2.1-2.044c-.485-.896-.728-1.932-.728-3.108v-4.2c0-1.195.243-2.231.728-3.108a5.268 5.268 0 012.1-2.044c.915-.485 1.979-.728 3.192-.728 1.214 0 2.268.243 3.164.728a5.037 5.037 0 012.1 2.044c.504.877.756 1.913.756 3.108v2.716h-9.576v1.484c0 1.213.308 2.147.924 2.8.616.635 1.494.952 2.632.952.971 0 1.755-.168 2.352-.504a2.22 2.22 0 001.092-1.568h2.52c-.168 1.288-.802 2.315-1.904 3.08-1.082.747-2.436 1.12-4.06 1.12zm-3.556-9.268h7.112v-.812c0-1.213-.308-2.147-.924-2.8-.597-.653-1.474-.98-2.632-.98-1.138 0-2.016.327-2.632.98-.616.653-.924 1.587-.924 2.8v.812zM196.289 496.08l9.94-26.32h2.66l-9.94 26.32h-2.66zm-12.6 0l9.94-26.32h2.66l-9.94 26.32h-2.66zm37.901-2.8c-1.867 0-3.36-.523-4.48-1.568-1.101-1.045-1.652-2.483-1.652-4.312v-4.2c0-1.829.551-3.267 1.652-4.312 1.12-1.045 2.613-1.568 4.48-1.568 1.773 0 3.201.476 4.284 1.428 1.083.952 1.652 2.249 1.708 3.892h-2.52c-.056-.989-.392-1.745-1.008-2.268-.597-.541-1.419-.812-2.464-.812-1.101 0-1.979.317-2.632.952-.653.616-.98 1.503-.98 2.66v4.228c0 1.157.327 2.053.98 2.688.653.635 1.531.952 2.632.952 1.045 0 1.867-.271 2.464-.812.616-.541.952-1.297 1.008-2.268h2.52c-.056 1.643-.625 2.94-1.708 3.892s-2.511 1.428-4.284 1.428zm16.677-.056c-1.829 0-3.294-.523-4.396-1.568-1.082-1.045-1.624-2.483-1.624-4.312v-4.088c0-1.829.542-3.267 1.624-4.312 1.102-1.045 2.567-1.568 4.396-1.568 1.83 0 3.286.523 4.368 1.568 1.102 1.027 1.652 2.455 1.652 4.284v4.116c0 1.829-.55 3.267-1.652 4.312-1.082 1.045-2.538 1.568-4.368 1.568zm0-2.24c1.102 0 1.96-.308 2.576-.924.616-.616.924-1.521.924-2.716v-4.088c0-1.195-.308-2.1-.924-2.716-.616-.616-1.474-.924-2.576-.924-1.082 0-1.941.308-2.576.924-.616.616-.924 1.521-.924 2.716v4.088c0 1.195.308 2.1.924 2.716.635.616 1.494.924 2.576.924zm15.893 2.296c-1.53 0-2.772-.513-3.724-1.54-.933-1.027-1.4-2.417-1.4-4.172v-4.508c0-1.773.467-3.173 1.4-4.2.934-1.027 2.175-1.54 3.724-1.54 1.158 0 2.11.289 2.856.868.747.579 1.186 1.363 1.316 2.352h.084l-.056-3.5v-4.48h2.52V493h-2.52v-2.94h-.028c-.13 1.008-.569 1.801-1.316 2.38-.746.56-1.698.84-2.856.84zm.84-2.184c1.046 0 1.867-.327 2.464-.98.598-.653.896-1.559.896-2.716v-4.2c0-1.157-.298-2.063-.896-2.716-.597-.653-1.418-.98-2.464-.98-1.064 0-1.904.317-2.52.952-.616.635-.924 1.549-.924 2.744v4.2c0 1.195.308 2.109.924 2.744.616.635 1.456.952 2.52.952zm16.845 2.184c-1.213 0-2.277-.243-3.192-.728a5.268 5.268 0 01-2.1-2.044c-.485-.896-.728-1.932-.728-3.108v-4.2c0-1.195.243-2.231.728-3.108a5.268 5.268 0 012.1-2.044c.915-.485 1.979-.728 3.192-.728 1.214 0 2.268.243 3.164.728a5.037 5.037 0 012.1 2.044c.504.877.756 1.913.756 3.108v2.716h-9.576v1.484c0 1.213.308 2.147.924 2.8.616.635 1.494.952 2.632.952.971 0 1.755-.168 2.352-.504a2.22 2.22 0 001.092-1.568h2.52c-.168 1.288-.802 2.315-1.904 3.08-1.082.747-2.436 1.12-4.06 1.12zm-3.556-9.268h7.112v-.812c0-1.213-.308-2.147-.924-2.8-.597-.653-1.474-.98-2.632-.98-1.138 0-2.016.327-2.632.98-.616.653-.924 1.587-.924 2.8v.812zm35.79 9.268c-1.624 0-2.902-.411-3.836-1.232-.933-.84-1.4-1.969-1.4-3.388 0-1.437.467-2.567 1.4-3.388.934-.821 2.194-1.232 3.78-1.232h4.76v-1.54c0-.952-.289-1.68-.868-2.184-.56-.523-1.362-.784-2.408-.784-.914 0-1.68.196-2.296.588-.616.373-.97.887-1.064 1.54h-2.52c.168-1.325.794-2.38 1.876-3.164 1.083-.784 2.436-1.176 4.06-1.176 1.774 0 3.174.457 4.2 1.372 1.027.915 1.54 2.156 1.54 3.724V493h-2.464v-2.94h-.028c-.112.989-.597 1.773-1.456 2.352-.84.579-1.932.868-3.276.868zm.616-1.988c1.195 0 2.175-.299 2.94-.896.766-.597 1.148-1.363 1.148-2.296v-2.184h-4.704c-.84 0-1.502.233-1.988.7-.485.467-.728 1.101-.728 1.904 0 .859.29 1.54.868 2.044.598.485 1.419.728 2.464.728zM319.973 493v-11.564h-4.48v-2.296h4.48v-2.66c0-1.213.382-2.165 1.148-2.856.765-.709 1.82-1.064 3.164-1.064h4.508v2.296h-4.508c-1.195 0-1.792.541-1.792 1.624v2.66h6.3v2.296h-6.3V493h-2.52zm20.709 0c-1.326 0-2.362-.355-3.108-1.064-.728-.709-1.092-1.708-1.092-2.996v-9.044h-4.34V477.6h4.34v-4.34h2.52v4.34h6.16v2.296h-6.16v9.044c0 1.176.56 1.764 1.68 1.764h4.2V493h-4.2zm15.109.28c-1.214 0-2.278-.243-3.192-.728a5.268 5.268 0 01-2.1-2.044c-.486-.896-.728-1.932-.728-3.108v-4.2c0-1.195.242-2.231.728-3.108a5.268 5.268 0 012.1-2.044c.914-.485 1.978-.728 3.192-.728 1.213 0 2.268.243 3.164.728a5.049 5.049 0 012.1 2.044c.504.877.756 1.913.756 3.108v2.716h-9.576v1.484c0 1.213.308 2.147.924 2.8.616.635 1.493.952 2.632.952.97 0 1.754-.168 2.352-.504a2.226 2.226 0 001.092-1.568h2.52c-.168 1.288-.803 2.315-1.904 3.08-1.083.747-2.436 1.12-4.06 1.12zm-3.556-9.268h7.112v-.812c0-1.213-.308-2.147-.924-2.8-.598-.653-1.475-.98-2.632-.98-1.139 0-2.016.327-2.632.98-.616.653-.924 1.587-.924 2.8v.812zM367.288 493v-15.4h2.464v2.744c.504-2.016 1.857-3.024 4.06-3.024 1.624 0 2.912.513 3.864 1.54.97 1.008 1.456 2.38 1.456 4.116v.924h-2.52v-.7c0-1.213-.299-2.137-.896-2.772-.579-.653-1.41-.98-2.492-.98-1.064 0-1.904.327-2.52.98-.598.653-.896 1.577-.896 2.772v9.8h-2.52zm32.85 0v-2.296h5.46v-10.808h-4.76V477.6h7.28v13.104h5.18V493h-13.16zm6.44-18.172c-.616 0-1.102-.159-1.456-.476-.355-.317-.532-.747-.532-1.288 0-.56.177-.999.532-1.316.354-.336.84-.504 1.456-.504s1.101.168 1.456.504c.354.317.532.756.532 1.316 0 .541-.178.971-.532 1.288-.355.317-.84.476-1.456.476zM420.707 493v-11.564h-4.48v-2.296h4.48v-2.66c0-1.213.383-2.165 1.148-2.856.765-.709 1.82-1.064 3.164-1.064h4.508v2.296h-4.508c-1.195 0-1.792.541-1.792 1.624v2.66h6.3v2.296h-6.3V493h-2.52z" fill="#DB6A05"/><path d="M169 339.5a1.5 1.5 0 000-3v3zm33.061 35.561a1.502 1.502 0 000-2.122l-9.546-9.546a1.502 1.502 0 00-2.122 0 1.502 1.502 0 000 2.122l8.486 8.485-8.486 8.485a1.502 1.502 0 000 2.122 1.502 1.502 0 002.122 0l9.546-9.546zM169 336.5h-54v3h54v-3zm-61.5 7.5v24h3v-24h-3zm7.5 31.5h86v-3h-86v3zm-7.5-7.5a7.5 7.5 0 007.5 7.5v-3a4.5 4.5 0 01-4.5-4.5h-3zm7.5-31.5a7.5 7.5 0 00-7.5 7.5h3a4.5 4.5 0 014.5-4.5v-3zM578 102v-3h-6v3h6zm-6 417v3h6v-3h-6zm0-405.417a3 3 0 106 0h-6zm6 23.167a3 3 0 10-6 0h6zm-6 23.167a3 3 0 106 0h-6zm6 23.166a3 3 0 10-6 0h6zm-6 23.167a3 3 0 106 0h-6zm6 23.167a3 3 0 10-6 0h6zm-6 23.166a3 3 0 106 0h-6zm6 23.167a3 3 0 10-6 0h6zm-6 23.167a3 3 0 106 0h-6zm6 23.166a3 3 0 10-6 0h6zm-6 23.167a3 3 0 106 0h-6zm6 23.167a3 3 0 10-6 0h6zm-6 23.166a3 3 0 106 0h-6zm6 23.167a3 3 0 10-6 0h6zm-6 23.167a3 3 0 006 0h-6zm6 23.166a3 3 0 10-6 0h6zm-6 23.167a3 3 0 106 0h-6zm6 23.167a3 3 0 10-6 0h6zM572 102v11.583h6V102h-6zm0 34.75v23.167h6V136.75h-6zm0 46.333v23.167h6v-23.167h-6zm0 46.334v23.166h6v-23.166h-6zm0 46.333v23.167h6V275.75h-6zm0 46.333v23.167h6v-23.167h-6zm0 46.334v23.166h6v-23.166h-6zm0 46.333v23.167h6V414.75h-6zm0 46.333v23.167h6v-23.167h-6zm0 46.334V519h6v-11.583h-6z" fill="#3884FF"/></g><defs><linearGradient id="prefix__paint0_linear_846_139" x1="0" y1="0" x2="519.207" y2="958.858" gradientUnits="userSpaceOnUse"><stop stop-color="#38BDF8"/><stop offset="1" stop-color="#6366F1"/></linearGradient><filter id="prefix__filter0_d_846_139" x="24" y="43" width="1096" height="566" filterUnits="userSpaceOnUse" color-interpolation-filters="sRGB"><feFlood flood-opacity="0" result="BackgroundImageFix"/><feColorMatrix in="SourceAlpha" values="0 0 0 0 0 0 0 0 0 0 0 0 0 0 0 0 0 0 127 0" result="hardAlpha"/><feOffset dy="16"/><feGaussianBlur stdDeviation="12.5"/><feComposite in2="hardAlpha" operator="out"/><feColorMatrix values="0 0 0 0 0 0 0 0 0 0 0 0 0 0 0 0 0 0 0.15 0"/><feBlend in2="BackgroundImageFix" result="effect1_dropShadow_846_139"/><feBlend in="SourceGraphic" in2="effect1_dropShadow_846_139" result="shape"/></filter></defs></svg>