<svg width="1213" height="1023" fill="none" xmlns="http://www.w3.org/2000/svg"><g filter="url(#prefix__filter0_d_1026_337)"><g clip-path="url(#prefix__clip0_1026_337)"><rect x="40" y="24" width="1133" height="943" rx="40" fill="url(#prefix__paint0_linear_1026_337)"/><g filter="url(#prefix__filter1_d_1026_337)"><path d="M1395.46 187H236.281c-23.422 0-42.409 18.966-42.409 42.362v734.276c0 23.396 18.987 42.362 42.409 42.362H1395.46c23.42 0 42.41-18.966 42.41-42.362V229.362c0-23.396-18.99-42.362-42.41-42.362z" fill="#fff"/><g opacity=".8"><g opacity=".8" filter="url(#prefix__filter2_dd_1026_337)"><path opacity=".8" d="M1395.46 187H236.282c-23.422 0-42.409 18.966-42.409 42.362v734.276c0 23.394 18.987 42.362 42.409 42.362H1395.46c23.42 0 42.41-18.968 42.41-42.362V229.362c0-23.396-18.99-42.362-42.41-42.362z" fill="#fff"/></g><path opacity=".8" d="M572.021 282.315h735.089v3.53H572.021v-3.53z" fill="#DDD6FE"/><path opacity=".8" d="M444.793 338.797h-74.216a7.064 7.064 0 00-7.068 7.061 7.064 7.064 0 007.068 7.06h74.216a7.064 7.064 0 007.068-7.06c0-3.9-3.164-7.061-7.068-7.061z" fill="#C4B5FD"/><path opacity=".8" d="M1176.35 338.797h-74.22a7.06 7.06 0 00-7.06 7.061 7.06 7.06 0 007.06 7.06h74.22c3.9 0 7.07-3.161 7.07-7.06 0-3.9-3.17-7.061-7.07-7.061zM1201.09 367.039h-98.96c-3.9 0-7.06 3.16-7.06 7.06a7.06 7.06 0 007.06 7.06h98.96c3.9 0 7.07-3.161 7.07-7.06 0-3.9-3.17-7.06-7.07-7.06zM1172.82 395.28h-70.69a7.06 7.06 0 00-7.06 7.061 7.06 7.06 0 007.06 7.06h70.69a7.06 7.06 0 007.06-7.06 7.06 7.06 0 00-7.06-7.061zM1211.69 423.521h-109.56a7.06 7.06 0 00-7.06 7.061 7.06 7.06 0 007.06 7.06h109.56a7.062 7.062 0 100-14.121zM1165.75 451.763h-63.62a7.06 7.06 0 00-7.06 7.061 7.06 7.06 0 007.06 7.06h63.62c3.9 0 7.07-3.161 7.07-7.06 0-3.9-3.17-7.061-7.07-7.061z" fill="#DDD6FE"/><path opacity=".8" d="M759.327 335.267h-173.17c-7.807 0-14.136 6.322-14.136 14.121 0 7.798 6.329 14.12 14.136 14.12h173.17c7.807 0 14.137-6.322 14.137-14.12 0-7.799-6.33-14.121-14.137-14.121z" fill="#A78BFA"/><path opacity=".8" d="M992.577 377.629H579.089a7.063 7.063 0 00-7.068 7.061 7.063 7.063 0 007.068 7.06h413.488a7.063 7.063 0 007.068-7.06c0-3.9-3.163-7.061-7.068-7.061z" fill="#C4B5FD"/><path opacity=".8" d="M787.599 225.832H628.565a7.063 7.063 0 00-7.068 7.06c0 3.9 3.163 7.061 7.068 7.061h159.034a7.063 7.063 0 007.068-7.061 7.063 7.063 0 00-7.068-7.06zM1020.85 434.112H579.089a7.063 7.063 0 00-7.068 7.06c0 3.9 3.163 7.06 7.068 7.06h441.761a7.061 7.061 0 100-14.12zM1020.85 811.84H579.089a7.063 7.063 0 00-7.068 7.061 7.062 7.062 0 007.068 7.06h441.761a7.06 7.06 0 100-14.121zM1049.12 642.393H579.089a7.062 7.062 0 00-7.068 7.06 7.062 7.062 0 007.068 7.06h470.031a7.06 7.06 0 100-14.12zM1049.12 670.634H579.089a7.062 7.062 0 00-7.068 7.06 7.062 7.062 0 007.068 7.06h470.031a7.06 7.06 0 100-14.12zM1020.85 931.866H579.089a7.063 7.063 0 00-7.068 7.061 7.062 7.062 0 007.068 7.06h441.761a7.06 7.06 0 100-14.121zM1020.85 462.354H579.089a7.063 7.063 0 00-7.068 7.06 7.063 7.063 0 007.068 7.06h441.761a7.061 7.061 0 100-14.12zM992.577 840.082H579.089a7.063 7.063 0 00-7.068 7.06 7.063 7.063 0 007.068 7.061h413.488a7.063 7.063 0 007.068-7.061c0-3.9-3.163-7.06-7.068-7.06zM992.577 960.108H579.089a7.062 7.062 0 00-7.068 7.06 7.063 7.063 0 007.068 7.061h413.488a7.063 7.063 0 007.068-7.061 7.062 7.062 0 00-7.068-7.06zM992.577 490.595H579.089a7.063 7.063 0 00-7.068 7.061 7.063 7.063 0 007.068 7.06h413.488a7.063 7.063 0 007.068-7.06c0-3.9-3.163-7.061-7.068-7.061zM992.577 518.836H579.089a7.063 7.063 0 00-7.068 7.061 7.063 7.063 0 007.068 7.06h413.488a7.063 7.063 0 007.068-7.06c0-3.9-3.163-7.061-7.068-7.061zM1020.85 547.078H579.089a7.062 7.062 0 00-7.068 7.06 7.062 7.062 0 007.068 7.06h441.761a7.06 7.06 0 100-14.12z" fill="#DDD6FE"/><path opacity=".8" d="M762.861 603.561H582.623c-5.856 0-10.602 4.741-10.602 10.59s4.746 10.59 10.602 10.59h180.238c5.856 0 10.603-4.741 10.603-10.59s-4.747-10.59-10.603-10.59zM762.861 896.564H582.623c-5.856 0-10.602 4.742-10.602 10.591 0 5.85 4.746 10.591 10.602 10.591h180.238c5.856 0 10.603-4.741 10.603-10.591 0-5.849-4.747-10.591-10.603-10.591z" fill="#A78BFA"/><path opacity=".8" d="M430.657 374.099h-60.08a7.064 7.064 0 00-7.068 7.06c0 3.9 3.164 7.061 7.068 7.061h60.08a7.065 7.065 0 007.068-7.061c0-3.899-3.165-7.06-7.068-7.06zM420.054 409.401h-49.477a7.064 7.064 0 00-7.068 7.06c0 3.9 3.164 7.061 7.068 7.061h49.477a7.064 7.064 0 007.068-7.061 7.064 7.064 0 00-7.068-7.06zM402.384 444.703h-31.807a7.064 7.064 0 00-7.068 7.06 7.064 7.064 0 007.068 7.06h31.807a7.064 7.064 0 007.068-7.06 7.064 7.064 0 00-7.068-7.06zM423.588 480.004h-53.011a7.064 7.064 0 00-7.068 7.061 7.064 7.064 0 007.068 7.06h53.011c3.904 0 7.069-3.161 7.069-7.06 0-3.9-3.165-7.061-7.069-7.061zM437.725 515.306h-67.148a7.064 7.064 0 00-7.068 7.06c0 3.9 3.164 7.061 7.068 7.061h67.148a7.065 7.065 0 007.068-7.061c0-3.899-3.165-7.06-7.068-7.06z" fill="#C4B5FD"/><path opacity=".8" d="M400.617 582.379h-70.682a5.3 5.3 0 00-5.301 5.296 5.299 5.299 0 005.301 5.295h70.682a5.3 5.3 0 005.301-5.295 5.3 5.3 0 00-5.301-5.296zM400.617 822.431h-70.682a5.299 5.299 0 00-5.301 5.295 5.3 5.3 0 005.301 5.296h70.682a5.3 5.3 0 005.301-5.296 5.3 5.3 0 00-5.301-5.295z" fill="#A78BFA"/><path opacity=".8" d="M381.179 610.621h-49.477a7.063 7.063 0 00-7.068 7.06 7.063 7.063 0 007.068 7.061h49.477a7.063 7.063 0 007.068-7.061c0-3.9-3.164-7.06-7.068-7.06zM381.179 850.672h-49.477a7.063 7.063 0 00-7.068 7.061 7.063 7.063 0 007.068 7.06h49.477a7.063 7.063 0 007.068-7.06 7.063 7.063 0 00-7.068-7.061zM381.179 638.862h-49.477a7.063 7.063 0 00-7.068 7.06 7.063 7.063 0 007.068 7.061h49.477a7.063 7.063 0 007.068-7.061 7.063 7.063 0 00-7.068-7.06zM381.179 878.914h-49.477a7.063 7.063 0 00-7.068 7.06 7.063 7.063 0 007.068 7.06h49.477a7.063 7.063 0 007.068-7.06 7.063 7.063 0 00-7.068-7.06zM391.781 667.104h-60.079a7.063 7.063 0 00-7.068 7.06 7.063 7.063 0 007.068 7.06h60.079c3.904 0 7.069-3.159 7.069-7.06s-3.165-7.06-7.069-7.06zM391.781 907.155h-60.079a7.063 7.063 0 00-7.068 7.061c0 3.9 3.164 7.06 7.068 7.06h60.079c3.904 0 7.069-3.16 7.069-7.06a7.064 7.064 0 00-7.069-7.061zM391.781 695.345h-60.079a7.063 7.063 0 00-7.068 7.061c0 3.9 3.164 7.06 7.068 7.06h60.079c3.904 0 7.069-3.16 7.069-7.06a7.064 7.064 0 00-7.069-7.061zM391.781 935.396h-60.079a7.063 7.063 0 00-7.068 7.061 7.063 7.063 0 007.068 7.06h60.079c3.904 0 7.069-3.159 7.069-7.06a7.064 7.064 0 00-7.069-7.061zM423.588 723.586h-91.886a7.063 7.063 0 00-7.068 7.061 7.063 7.063 0 007.068 7.06h91.886a7.063 7.063 0 007.068-7.06 7.063 7.063 0 00-7.068-7.061zM423.588 963.638h-91.886a7.063 7.063 0 00-7.068 7.061c0 3.9 3.164 7.06 7.068 7.06h91.886a7.063 7.063 0 007.068-7.06 7.063 7.063 0 00-7.068-7.061zM423.588 751.828h-91.886a7.063 7.063 0 00-7.068 7.06 7.063 7.063 0 007.068 7.06h91.886a7.063 7.063 0 007.068-7.06 7.063 7.063 0 00-7.068-7.06zM402.384 780.069h-70.682a7.063 7.063 0 00-7.068 7.06 7.063 7.063 0 007.068 7.061h70.682a7.063 7.063 0 007.068-7.061 7.063 7.063 0 00-7.068-7.06z" fill="#DDD6FE"/><path opacity=".8" d="M335.236 356.448c5.856 0 10.602-4.741 10.602-10.59 0-5.85-4.746-10.591-10.602-10.591s-10.602 4.741-10.602 10.591c0 5.849 4.746 10.59 10.602 10.59zM335.236 391.75c5.856 0 10.602-4.741 10.602-10.59s-4.746-10.591-10.602-10.591-10.602 4.742-10.602 10.591c0 5.849 4.746 10.59 10.602 10.59zM335.236 427.052c5.856 0 10.602-4.741 10.602-10.59 0-5.85-4.746-10.591-10.602-10.591s-10.602 4.741-10.602 10.591c0 5.849 4.746 10.59 10.602 10.59zM335.236 462.353c5.856 0 10.602-4.741 10.602-10.59s-4.746-10.591-10.602-10.591-10.602 4.742-10.602 10.591c0 5.849 4.746 10.59 10.602 10.59zM335.236 497.655c5.856 0 10.602-4.741 10.602-10.59s-4.746-10.591-10.602-10.591-10.602 4.742-10.602 10.591c0 5.849 4.746 10.59 10.602 10.59zM335.236 532.957c5.856 0 10.602-4.741 10.602-10.591 0-5.849-4.746-10.59-10.602-10.59s-10.602 4.741-10.602 10.59c0 5.85 4.746 10.591 10.602 10.591z" fill="#A78BFA"/><path opacity=".8" d="M600.293 248.778l-8.407-8.398 8.407 8.398zm-8.407-8.398a10.638 10.638 0 002.336-3.437c.544-1.288.827-2.671.83-4.069a10.552 10.552 0 00-.798-4.076 10.541 10.541 0 00-2.305-3.456 10.611 10.611 0 00-15.055.059 10.576 10.576 0 00.06 14.916 10.61 10.61 0 0014.932.063z" stroke="#C4B5FD" stroke-width="3.735"/><path opacity=".8" d="M1024.38 705.936H586.157c-7.807 0-14.136 6.322-14.136 14.12v52.953c0 7.798 6.329 14.12 14.136 14.12h438.223c7.81 0 14.14-6.322 14.14-14.12v-52.953c0-7.798-6.33-14.12-14.14-14.12z" fill="#A78BFA"/></g><path d="M358.482 215.789l13.591 7.854a4.085 4.085 0 012.038 3.533v15.708a4.08 4.08 0 01-2.038 3.538l-13.591 7.854a4.078 4.078 0 01-4.082 0l-13.591-7.854a4.081 4.081 0 01-2.038-3.538v-15.708c0-1.457.778-2.804 2.038-3.533l13.591-7.854a4.077 4.077 0 014.082 0zm6.351 11.844l-6.647-3.834a4.08 4.08 0 00-4.072 0l-6.648 3.834a4.083 4.083 0 00-2.043 3.538v7.653c0 1.458.778 2.814 2.043 3.538l6.648 3.834a4.074 4.074 0 004.072 0l6.647-3.834a4.086 4.086 0 002.043-3.538v-7.653a4.09 4.09 0 00-2.043-3.538z" fill="#A78BFA"/><path d="M361.79 234.992a5.21 5.21 0 01-5.214 5.208 5.21 5.21 0 01-5.214-5.208 5.21 5.21 0 015.214-5.207 5.21 5.21 0 015.214 5.207z" fill="#A78BFA"/></g></g></g><defs><filter id="prefix__filter0_d_1026_337" x="0" y="0" width="1213" height="1023" filterUnits="userSpaceOnUse" color-interpolation-filters="sRGB"><feFlood flood-opacity="0" result="BackgroundImageFix"/><feColorMatrix in="SourceAlpha" values="0 0 0 0 0 0 0 0 0 0 0 0 0 0 0 0 0 0 127 0" result="hardAlpha"/><feOffset dy="16"/><feGaussianBlur stdDeviation="20"/><feComposite in2="hardAlpha" operator="out"/><feColorMatrix values="0 0 0 0 0 0 0 0 0 0 0 0 0 0 0 0 0 0 0.08 0"/><feBlend in2="BackgroundImageFix" result="effect1_dropShadow_1026_337"/><feBlend in="SourceGraphic" in2="effect1_dropShadow_1026_337" result="shape"/></filter><filter id="prefix__filter1_d_1026_337" x="165" y="178" width="1297.87" height="869" filterUnits="userSpaceOnUse" color-interpolation-filters="sRGB"><feFlood flood-opacity="0" result="BackgroundImageFix"/><feColorMatrix in="SourceAlpha" values="0 0 0 0 0 0 0 0 0 0 0 0 0 0 0 0 0 0 127 0" result="hardAlpha"/><feOffset dy="16"/><feGaussianBlur stdDeviation="12.5"/><feComposite in2="hardAlpha" operator="out"/><feColorMatrix values="0 0 0 0 0 0 0 0 0 0 0 0 0 0 0 0 0 0 0.15 0"/><feBlend in2="BackgroundImageFix" result="effect1_dropShadow_1026_337"/><feBlend in="SourceGraphic" in2="effect1_dropShadow_1026_337" result="shape"/></filter><filter id="prefix__filter2_dd_1026_337" x="137.846" y="160.854" width="1356.05" height="931.053" filterUnits="userSpaceOnUse" color-interpolation-filters="sRGB"><feFlood flood-opacity="0" result="BackgroundImageFix"/><feColorMatrix in="SourceAlpha" values="0 0 0 0 0 0 0 0 0 0 0 0 0 0 0 0 0 0 127 0" result="hardAlpha"/><feOffset dy="11.205"/><feGaussianBlur stdDeviation="11.205"/><feColorMatrix values="0 0 0 0 0 0 0 0 0 0 0 0 0 0 0 0 0 0 0.05 0"/><feBlend in2="BackgroundImageFix" result="effect1_dropShadow_1026_337"/><feColorMatrix in="SourceAlpha" values="0 0 0 0 0 0 0 0 0 0 0 0 0 0 0 0 0 0 127 0" result="hardAlpha"/><feOffset dy="29.881"/><feGaussianBlur stdDeviation="28.013"/><feColorMatrix values="0 0 0 0 0 0 0 0 0 0 0 0 0 0 0 0 0 0 0.1 0"/><feBlend in2="effect1_dropShadow_1026_337" result="effect2_dropShadow_1026_337"/><feBlend in="SourceGraphic" in2="effect2_dropShadow_1026_337" result="shape"/></filter><linearGradient id="prefix__paint0_linear_1026_337" x1="40" y1="24" x2="967.334" y2="1138.18" gradientUnits="userSpaceOnUse"><stop stop-color="#A855F7"/><stop offset="1" stop-color="#6366F1"/></linearGradient><clipPath id="prefix__clip0_1026_337"><rect x="40" y="24" width="1133" height="943" rx="40" fill="#fff"/></clipPath></defs></svg>