<svg width="1133" height="943" viewBox="0 0 1133 943" fill="none" xmlns="http://www.w3.org/2000/svg">
<g clip-path="url(#clip0_1026_274)">
<rect width="1133" height="943" rx="50" fill="url(#paint0_linear_1026_274)"/>
<path d="M1355.46 163H196.281C172.859 163 153.872 181.966 153.872 205.362V939.638C153.872 963.034 172.859 982 196.281 982H1355.46C1378.88 982 1397.87 963.034 1397.87 939.638V205.362C1397.87 181.966 1378.88 163 1355.46 163Z" fill="white"/>
<g opacity="0.8">
<g opacity="0.8" filter="url(#filter0_dd_1026_274)">
<path opacity="0.8" d="M1355.46 163H196.282C172.86 163 153.873 181.966 153.873 205.362V939.638C153.873 963.032 172.86 982 196.282 982H1355.46C1378.88 982 1397.87 963.032 1397.87 939.638V205.362C1397.87 181.966 1378.88 163 1355.46 163Z" fill="white"/>
</g>
<path opacity="0.8" d="M532.021 258.314H1267.11V261.845H532.021V258.314Z" fill="#DDD6FE"/>
<path opacity="0.8" d="M404.793 314.797H330.577C326.673 314.797 323.509 317.958 323.509 321.858C323.509 325.757 326.673 328.918 330.577 328.918H404.793C408.697 328.918 411.861 325.757 411.861 321.858C411.861 317.958 408.697 314.797 404.793 314.797Z" fill="#C4B5FD"/>
<path opacity="0.8" d="M1136.35 314.797H1062.13C1058.23 314.797 1055.07 317.958 1055.07 321.858C1055.07 325.757 1058.23 328.918 1062.13 328.918H1136.35C1140.25 328.918 1143.42 325.757 1143.42 321.858C1143.42 317.958 1140.25 314.797 1136.35 314.797Z" fill="#DDD6FE"/>
<path opacity="0.8" d="M1161.09 343.039H1062.13C1058.23 343.039 1055.07 346.199 1055.07 350.099C1055.07 353.998 1058.23 357.159 1062.13 357.159H1161.09C1164.99 357.159 1168.16 353.998 1168.16 350.099C1168.16 346.199 1164.99 343.039 1161.09 343.039Z" fill="#DDD6FE"/>
<path opacity="0.8" d="M1132.82 371.28H1062.13C1058.23 371.28 1055.07 374.441 1055.07 378.34C1055.07 382.24 1058.23 385.401 1062.13 385.401H1132.82C1136.72 385.401 1139.88 382.24 1139.88 378.34C1139.88 374.441 1136.72 371.28 1132.82 371.28Z" fill="#DDD6FE"/>
<path opacity="0.8" d="M1171.69 399.521H1062.13C1058.23 399.521 1055.07 402.682 1055.07 406.582C1055.07 410.481 1058.23 413.642 1062.13 413.642H1171.69C1175.6 413.642 1178.76 410.481 1178.76 406.582C1178.76 402.682 1175.6 399.521 1171.69 399.521Z" fill="#DDD6FE"/>
<path opacity="0.8" d="M1125.75 427.763H1062.13C1058.23 427.763 1055.07 430.924 1055.07 434.823C1055.07 438.723 1058.23 441.884 1062.13 441.884H1125.75C1129.65 441.884 1132.82 438.723 1132.82 434.823C1132.82 430.924 1129.65 427.763 1125.75 427.763Z" fill="#DDD6FE"/>
<path opacity="0.8" d="M719.327 311.267H546.157C538.35 311.267 532.021 317.589 532.021 325.388C532.021 333.186 538.35 339.508 546.157 339.508H719.327C727.134 339.508 733.464 333.186 733.464 325.388C733.464 317.589 727.134 311.267 719.327 311.267Z" fill="#A78BFA"/>
<path opacity="0.8" d="M952.577 353.629H539.089C535.184 353.629 532.021 356.79 532.021 360.689C532.021 364.589 535.184 367.75 539.089 367.75H952.577C956.482 367.75 959.645 364.589 959.645 360.689C959.645 356.79 956.482 353.629 952.577 353.629Z" fill="#C4B5FD"/>
<path opacity="0.8" d="M747.599 201.832H588.565C584.66 201.832 581.497 204.992 581.497 208.892C581.497 212.791 584.66 215.952 588.565 215.952H747.599C751.504 215.952 754.667 212.791 754.667 208.892C754.667 204.992 751.504 201.832 747.599 201.832Z" fill="#DDD6FE"/>
<path opacity="0.8" d="M980.85 410.112H539.089C535.184 410.112 532.021 413.273 532.021 417.172C532.021 421.072 535.184 424.232 539.089 424.232H980.85C984.755 424.232 987.918 421.072 987.918 417.172C987.918 413.273 984.755 410.112 980.85 410.112Z" fill="#DDD6FE"/>
<path opacity="0.8" d="M980.85 787.84H539.089C535.184 787.84 532.021 791 532.021 794.9C532.021 798.801 535.184 801.961 539.089 801.961H980.85C984.755 801.961 987.918 798.801 987.918 794.9C987.918 791 984.755 787.84 980.85 787.84Z" fill="#DDD6FE"/>
<path opacity="0.8" d="M1009.12 618.392H539.089C535.184 618.392 532.021 621.552 532.021 625.452C532.021 629.353 535.184 632.513 539.089 632.513H1009.12C1013.03 632.513 1016.19 629.353 1016.19 625.452C1016.19 621.552 1013.03 618.392 1009.12 618.392Z" fill="#DDD6FE"/>
<path opacity="0.8" d="M1009.12 646.634H539.089C535.184 646.634 532.021 649.793 532.021 653.694C532.021 657.595 535.184 660.754 539.089 660.754H1009.12C1013.03 660.754 1016.19 657.595 1016.19 653.694C1016.19 649.793 1013.03 646.634 1009.12 646.634Z" fill="#DDD6FE"/>
<path opacity="0.8" d="M980.85 907.866H539.089C535.184 907.866 532.021 911.026 532.021 914.926C532.021 918.827 535.184 921.987 539.089 921.987H980.85C984.755 921.987 987.918 918.827 987.918 914.926C987.918 911.026 984.755 907.866 980.85 907.866Z" fill="#DDD6FE"/>
<path opacity="0.8" d="M980.85 438.353H539.089C535.184 438.353 532.021 441.514 532.021 445.414C532.021 449.313 535.184 452.474 539.089 452.474H980.85C984.755 452.474 987.918 449.313 987.918 445.414C987.918 441.514 984.755 438.353 980.85 438.353Z" fill="#DDD6FE"/>
<path opacity="0.8" d="M952.577 816.082H539.089C535.184 816.082 532.021 819.241 532.021 823.142C532.021 827.043 535.184 830.202 539.089 830.202H952.577C956.482 830.202 959.645 827.043 959.645 823.142C959.645 819.241 956.482 816.082 952.577 816.082Z" fill="#DDD6FE"/>
<path opacity="0.8" d="M952.577 936.107H539.089C535.184 936.107 532.021 939.267 532.021 943.168C532.021 947.069 535.184 950.228 539.089 950.228H952.577C956.482 950.228 959.645 947.069 959.645 943.168C959.645 939.267 956.482 936.107 952.577 936.107Z" fill="#DDD6FE"/>
<path opacity="0.8" d="M952.577 466.595H539.089C535.184 466.595 532.021 469.756 532.021 473.655C532.021 477.554 535.184 480.715 539.089 480.715H952.577C956.482 480.715 959.645 477.554 959.645 473.655C959.645 469.756 956.482 466.595 952.577 466.595Z" fill="#DDD6FE"/>
<path opacity="0.8" d="M952.577 494.836H539.089C535.184 494.836 532.021 497.997 532.021 501.897C532.021 505.796 535.184 508.957 539.089 508.957H952.577C956.482 508.957 959.645 505.796 959.645 501.897C959.645 497.997 956.482 494.836 952.577 494.836Z" fill="#DDD6FE"/>
<path opacity="0.8" d="M980.85 523.077H539.089C535.184 523.077 532.021 526.237 532.021 530.138C532.021 534.039 535.184 537.198 539.089 537.198H980.85C984.755 537.198 987.918 534.039 987.918 530.138C987.918 526.237 984.755 523.077 980.85 523.077Z" fill="#DDD6FE"/>
<path opacity="0.8" d="M722.861 579.56H542.623C536.767 579.56 532.021 584.301 532.021 590.151C532.021 596 536.767 600.741 542.623 600.741H722.861C728.717 600.741 733.464 596 733.464 590.151C733.464 584.301 728.717 579.56 722.861 579.56Z" fill="#A78BFA"/>
<path opacity="0.8" d="M722.861 872.564H542.623C536.767 872.564 532.021 877.306 532.021 883.155C532.021 889.005 536.767 893.746 542.623 893.746H722.861C728.717 893.746 733.464 889.005 733.464 883.155C733.464 877.306 728.717 872.564 722.861 872.564Z" fill="#A78BFA"/>
<path opacity="0.8" d="M390.657 350.099H330.577C326.673 350.099 323.509 353.26 323.509 357.159C323.509 361.059 326.673 364.22 330.577 364.22H390.657C394.56 364.22 397.725 361.059 397.725 357.159C397.725 353.26 394.56 350.099 390.657 350.099Z" fill="#C4B5FD"/>
<path opacity="0.8" d="M380.054 385.401H330.577C326.673 385.401 323.509 388.562 323.509 392.461C323.509 396.36 326.673 399.521 330.577 399.521H380.054C383.958 399.521 387.122 396.36 387.122 392.461C387.122 388.562 383.958 385.401 380.054 385.401Z" fill="#C4B5FD"/>
<path opacity="0.8" d="M362.384 420.702H330.577C326.673 420.702 323.509 423.863 323.509 427.763C323.509 431.662 326.673 434.823 330.577 434.823H362.384C366.288 434.823 369.452 431.662 369.452 427.763C369.452 423.863 366.288 420.702 362.384 420.702Z" fill="#C4B5FD"/>
<path opacity="0.8" d="M383.588 456.004H330.577C326.673 456.004 323.509 459.165 323.509 463.064C323.509 466.964 326.673 470.125 330.577 470.125H383.588C387.492 470.125 390.657 466.964 390.657 463.064C390.657 459.165 387.492 456.004 383.588 456.004Z" fill="#C4B5FD"/>
<path opacity="0.8" d="M397.725 491.306H330.577C326.673 491.306 323.509 494.467 323.509 498.366C323.509 502.265 326.673 505.426 330.577 505.426H397.725C401.628 505.426 404.793 502.265 404.793 498.366C404.793 494.467 401.628 491.306 397.725 491.306Z" fill="#C4B5FD"/>
<path opacity="0.8" d="M360.617 558.379H289.935C287.008 558.379 284.634 560.751 284.634 563.674C284.634 566.597 287.008 568.97 289.935 568.97H360.617C363.545 568.97 365.918 566.597 365.918 563.674C365.918 560.751 363.545 558.379 360.617 558.379Z" fill="#A78BFA"/>
<path opacity="0.8" d="M360.617 798.431H289.935C287.008 798.431 284.634 800.803 284.634 803.726C284.634 806.649 287.008 809.021 289.935 809.021H360.617C363.545 809.021 365.918 806.649 365.918 803.726C365.918 800.803 363.545 798.431 360.617 798.431Z" fill="#A78BFA"/>
<path opacity="0.8" d="M341.18 586.621H291.702C287.799 586.621 284.634 589.78 284.634 593.681C284.634 597.582 287.799 600.741 291.702 600.741H341.18C345.083 600.741 348.248 597.582 348.248 593.681C348.248 589.78 345.083 586.621 341.18 586.621Z" fill="#DDD6FE"/>
<path opacity="0.8" d="M341.18 826.672H291.702C287.799 826.672 284.634 829.832 284.634 833.733C284.634 837.634 287.799 840.793 291.702 840.793H341.18C345.083 840.793 348.248 837.634 348.248 833.733C348.248 829.832 345.083 826.672 341.18 826.672Z" fill="#DDD6FE"/>
<path opacity="0.8" d="M341.18 614.862H291.702C287.799 614.862 284.634 618.021 284.634 621.922C284.634 625.823 287.799 628.983 291.702 628.983H341.18C345.083 628.983 348.248 625.823 348.248 621.922C348.248 618.021 345.083 614.862 341.18 614.862Z" fill="#DDD6FE"/>
<path opacity="0.8" d="M341.18 854.914H291.702C287.799 854.914 284.634 858.073 284.634 861.974C284.634 865.875 287.799 869.034 291.702 869.034H341.18C345.083 869.034 348.248 865.875 348.248 861.974C348.248 858.073 345.083 854.914 341.18 854.914Z" fill="#DDD6FE"/>
<path opacity="0.8" d="M351.782 643.103H291.702C287.799 643.103 284.634 646.263 284.634 650.163C284.634 654.064 287.799 657.224 291.702 657.224H351.782C355.686 657.224 358.85 654.064 358.85 650.163C358.85 646.263 355.686 643.103 351.782 643.103Z" fill="#DDD6FE"/>
<path opacity="0.8" d="M351.782 883.155H291.702C287.799 883.155 284.634 886.314 284.634 890.215C284.634 894.116 287.799 897.276 291.702 897.276H351.782C355.686 897.276 358.85 894.116 358.85 890.215C358.85 886.314 355.686 883.155 351.782 883.155Z" fill="#DDD6FE"/>
<path opacity="0.8" d="M351.782 671.345H291.702C287.799 671.345 284.634 674.504 284.634 678.405C284.634 682.306 287.799 685.465 291.702 685.465H351.782C355.686 685.465 358.85 682.306 358.85 678.405C358.85 674.504 355.686 671.345 351.782 671.345Z" fill="#DDD6FE"/>
<path opacity="0.8" d="M351.782 911.396H291.702C287.799 911.396 284.634 914.556 284.634 918.457C284.634 922.358 287.799 925.517 291.702 925.517H351.782C355.686 925.517 358.85 922.358 358.85 918.457C358.85 914.556 355.686 911.396 351.782 911.396Z" fill="#DDD6FE"/>
<path opacity="0.8" d="M383.589 699.586H291.702C287.799 699.586 284.634 702.745 284.634 706.646C284.634 710.547 287.799 713.707 291.702 713.707H383.589C387.493 713.707 390.657 710.547 390.657 706.646C390.657 702.745 387.493 699.586 383.589 699.586Z" fill="#DDD6FE"/>
<path opacity="0.8" d="M383.589 939.638H291.702C287.799 939.638 284.634 942.797 284.634 946.698C284.634 950.599 287.799 953.758 291.702 953.758H383.589C387.493 953.758 390.657 950.599 390.657 946.698C390.657 942.797 387.493 939.638 383.589 939.638Z" fill="#DDD6FE"/>
<path opacity="0.8" d="M383.589 727.827H291.702C287.799 727.827 284.634 730.987 284.634 734.888C284.634 738.788 287.799 741.948 291.702 741.948H383.589C387.493 741.948 390.657 738.788 390.657 734.888C390.657 730.987 387.493 727.827 383.589 727.827Z" fill="#DDD6FE"/>
<path opacity="0.8" d="M362.384 756.069H291.702C287.799 756.069 284.634 759.228 284.634 763.129C284.634 767.03 287.799 770.19 291.702 770.19H362.384C366.288 770.19 369.452 767.03 369.452 763.129C369.452 759.228 366.288 756.069 362.384 756.069Z" fill="#DDD6FE"/>
<path opacity="0.8" d="M295.237 332.448C301.092 332.448 305.839 327.707 305.839 321.858C305.839 316.008 301.092 311.267 295.237 311.267C289.381 311.267 284.634 316.008 284.634 321.858C284.634 327.707 289.381 332.448 295.237 332.448Z" fill="#A78BFA"/>
<path opacity="0.8" d="M295.237 367.75C301.092 367.75 305.839 363.009 305.839 357.159C305.839 351.31 301.092 346.569 295.237 346.569C289.381 346.569 284.634 351.31 284.634 357.159C284.634 363.009 289.381 367.75 295.237 367.75Z" fill="#A78BFA"/>
<path opacity="0.8" d="M295.237 403.052C301.092 403.052 305.839 398.31 305.839 392.461C305.839 386.612 301.092 381.871 295.237 381.871C289.381 381.871 284.634 386.612 284.634 392.461C284.634 398.31 289.381 403.052 295.237 403.052Z" fill="#A78BFA"/>
<path opacity="0.8" d="M295.237 438.353C301.092 438.353 305.839 433.612 305.839 427.763C305.839 421.914 301.092 417.172 295.237 417.172C289.381 417.172 284.634 421.914 284.634 427.763C284.634 433.612 289.381 438.353 295.237 438.353Z" fill="#A78BFA"/>
<path opacity="0.8" d="M295.237 473.655C301.092 473.655 305.839 468.914 305.839 463.065C305.839 457.216 301.092 452.474 295.237 452.474C289.381 452.474 284.634 457.216 284.634 463.065C284.634 468.914 289.381 473.655 295.237 473.655Z" fill="#A78BFA"/>
<path opacity="0.8" d="M295.237 508.957C301.092 508.957 305.839 504.215 305.839 498.366C305.839 492.517 301.092 487.776 295.237 487.776C289.381 487.776 284.634 492.517 284.634 498.366C284.634 504.215 289.381 508.957 295.237 508.957Z" fill="#A78BFA"/>
<path opacity="0.8" d="M560.293 224.778L551.886 216.379L560.293 224.778ZM551.886 216.379C552.882 215.399 553.678 214.231 554.222 212.943C554.766 211.655 555.049 210.271 555.052 208.873C555.059 207.475 554.787 206.09 554.254 204.797C553.723 203.505 552.939 202.33 551.949 201.341C550.96 200.353 549.783 199.569 548.49 199.037C547.196 198.504 545.807 198.233 544.408 198.239C543.008 198.244 541.626 198.526 540.336 199.069C539.046 199.612 537.877 200.404 536.894 201.401C534.933 203.392 533.837 206.077 533.848 208.871C533.858 211.665 534.975 214.341 536.954 216.317C538.93 218.293 541.609 219.408 544.408 219.419C547.203 219.431 549.893 218.339 551.886 216.379Z" stroke="#C4B5FD" stroke-width="3.73511"/>
<path opacity="0.8" d="M984.384 681.935H546.157C538.35 681.935 532.021 688.258 532.021 696.056V749.008C532.021 756.806 538.35 763.129 546.157 763.129H984.384C992.191 763.129 998.52 756.806 998.52 749.008V696.056C998.52 688.258 992.191 681.935 984.384 681.935Z" fill="#A78BFA"/>
</g>
<path d="M318.481 191.789L332.072 199.643C332.692 200.001 333.206 200.516 333.564 201.136C333.922 201.756 334.11 202.459 334.111 203.175V218.884C334.111 220.341 333.338 221.693 332.072 222.422L318.481 230.276C317.861 230.634 317.157 230.823 316.44 230.823C315.724 230.823 315.02 230.634 314.4 230.276L300.808 222.422C300.189 222.063 299.674 221.547 299.316 220.926C298.958 220.305 298.77 219.601 298.77 218.884V203.175C298.77 201.718 299.548 200.371 300.808 199.643L314.4 191.789C315.02 191.43 315.724 191.241 316.44 191.241C317.157 191.241 317.861 191.43 318.481 191.789ZM324.833 203.633L318.185 199.799C317.566 199.442 316.864 199.254 316.149 199.254C315.435 199.254 314.733 199.442 314.113 199.799L307.466 203.633C306.845 203.991 306.329 204.507 305.97 205.128C305.612 205.748 305.423 206.453 305.423 207.17V214.824C305.423 216.281 306.201 217.638 307.466 218.361L314.113 222.196C314.733 222.552 315.435 222.74 316.149 222.74C316.864 222.74 317.566 222.552 318.185 222.196L324.833 218.361C325.453 218.003 325.969 217.488 326.328 216.867C326.687 216.245 326.876 215.541 326.876 214.824V207.17C326.876 205.713 326.093 204.357 324.833 203.633Z" fill="#A78BFA"/>
<path d="M321.79 210.992C321.79 213.868 319.455 216.2 316.576 216.2C313.696 216.2 311.362 213.868 311.362 210.992C311.362 208.116 313.696 205.784 316.576 205.784C319.455 205.784 321.79 208.116 321.79 210.992Z" fill="#A78BFA"/>
</g>
<defs>
<filter id="filter0_dd_1026_274" x="97.8464" y="136.854" width="1356.05" height="931.053" filterUnits="userSpaceOnUse" color-interpolation-filters="sRGB">
<feFlood flood-opacity="0" result="BackgroundImageFix"/>
<feColorMatrix in="SourceAlpha" type="matrix" values="0 0 0 0 0 0 0 0 0 0 0 0 0 0 0 0 0 0 127 0" result="hardAlpha"/>
<feOffset dy="11.2053"/>
<feGaussianBlur stdDeviation="11.2053"/>
<feColorMatrix type="matrix" values="0 0 0 0 0 0 0 0 0 0 0 0 0 0 0 0 0 0 0.05 0"/>
<feBlend mode="normal" in2="BackgroundImageFix" result="effect1_dropShadow_1026_274"/>
<feColorMatrix in="SourceAlpha" type="matrix" values="0 0 0 0 0 0 0 0 0 0 0 0 0 0 0 0 0 0 127 0" result="hardAlpha"/>
<feOffset dy="29.8809"/>
<feGaussianBlur stdDeviation="28.0133"/>
<feColorMatrix type="matrix" values="0 0 0 0 0 0 0 0 0 0 0 0 0 0 0 0 0 0 0.1 0"/>
<feBlend mode="normal" in2="effect1_dropShadow_1026_274" result="effect2_dropShadow_1026_274"/>
<feBlend mode="normal" in="SourceGraphic" in2="effect2_dropShadow_1026_274" result="shape"/>
</filter>
<linearGradient id="paint0_linear_1026_274" x1="0" y1="0" x2="927.334" y2="1114.18" gradientUnits="userSpaceOnUse">
<stop stop-color="#A855F7"/>
<stop offset="1" stop-color="#6366F1"/>
</linearGradient>
<clipPath id="clip0_1026_274">
<rect width="1133" height="943" rx="50" fill="white"/>
</clipPath>
</defs>
</svg>
