<svg width="613" height="521" fill="none" xmlns="http://www.w3.org/2000/svg"><g clip-path="url(#prefix__clip0_802_58)"><path d="M602.5.5h-592C4.977.5.5 4.977.5 10.5v500c0 5.523 4.477 10 10 10h592c5.523 0 10-4.477 10-10v-500c0-5.523-4.477-10-10-10z" fill="#F5F5F5" stroke="#111"/><path d="M20 25a4 4 0 100-8 4 4 0 000 8zM34 25a4 4 0 100-8 4 4 0 000 8zM48 25a4 4 0 100-8 4 4 0 000 8z" fill="#111"/><path d="M0 50c0-5.523 4.477-10 10-10h593c5.523 0 10 4.477 10 10v461c0 5.523-4.477 10-10 10H10c-5.523 0-10-4.477-10-10V50z" fill="#0D1117"/><path d="M0 52c0-6.627 5.373-12 12-12h589c6.627 0 12 5.373 12 12v457c0 6.627-5.373 12-12 12H12c-6.627 0-12-5.373-12-12V52z" fill="#0D1117"/><path d="M0 40h613v60.152H0V40z" fill="#0D1117"/><path fill-rule="evenodd" clip-rule="evenodd" d="M0 100.152V73.357h613v26.795H0zm0-.547V73.357h613v26.248H0z" fill="#21262D"/><path fill-rule="evenodd" clip-rule="evenodd" d="M14.218 53.944a1.354 1.354 0 01.4-.967 1.353 1.353 0 01.967-.4h4.785c.113 0 .21.04.29.12.08.08.12.177.12.29v6.836c0 .113-.04.21-.12.29a.395.395 0 01-.29.12h-1.367a.395.395 0 01-.29-.12.395.395 0 01-.12-.29c0-.114.04-.21.12-.29.08-.08.176-.12.29-.12h.956v-1.094h-4.374a.506.506 0 00-.504.335.506.506 0 00.113.594c.08.081.119.178.117.292a.395.395 0 01-.123.289.395.395 0 01-.291.117.395.395 0 01-.289-.123 1.316 1.316 0 01-.39-.957v-4.922zm5.741-.547V57.5h-4.374c-.195 0-.38.04-.547.113v-3.668c0-.15.053-.28.16-.387a.527.527 0 01.387-.16h4.374zm-4.1 5.879v1.777c0 .056.024.097.075.122.05.026.098.021.143-.013l.793-.594c.054-.041.11-.041.164 0l.793.594a.127.127 0 00.143.013.127.127 0 00.076-.122v-1.777c0-.091-.046-.137-.137-.137h-1.914c-.091 0-.137.046-.137.137z" fill="#8B949E"/><path d="M13.124 99.058h48.668v1.094H13.124v-1.094z" fill="#F78166"/><path fill-rule="evenodd" clip-rule="evenodd" d="M24.454 83.867a.395.395 0 01.287-.11c.11.002.205.042.283.12a.396.396 0 01.12.283.396.396 0 01-.11.287L23 86.48l2.034 2.034c.085.08.129.177.13.293a.394.394 0 01-.12.297.395.395 0 01-.297.12.394.394 0 01-.293-.13L22.13 86.77a.395.395 0 01-.12-.29c0-.113.04-.21.12-.29l2.324-2.324zm3.588 0a.395.395 0 00-.293-.13.395.395 0 00-.297.12.395.395 0 00-.12.297.395.395 0 00.13.293l2.034 2.034-2.034 2.034a.395.395 0 00-.13.293.395.395 0 00.12.297.395.395 0 00.297.12.394.394 0 00.293-.13l2.324-2.324c.08-.08.12-.177.12-.29 0-.113-.04-.21-.12-.29l-2.324-2.324z" fill="#C9D1D9"/><path d="M74.916 87.3a.813.813 0 00.58-.24.812.812 0 00.24-.58.813.813 0 00-.24-.58.812.812 0 00-.58-.24.813.813 0 00-.58.24.813.813 0 00-.24.58.813.813 0 00.24.58.813.813 0 00.58.24z" fill="#484F58"/><path fill-rule="evenodd" clip-rule="evenodd" d="M74.916 82.106a4.36 4.36 0 00-2.43.738 4.36 4.36 0 00-1.612 1.963 4.361 4.361 0 00-.248 2.528 4.364 4.364 0 001.86 2.784 4.37 4.37 0 004.104.404 4.366 4.366 0 002.368-2.368 4.365 4.365 0 000-3.348 4.364 4.364 0 00-2.368-2.368 4.364 4.364 0 00-1.674-.333zm-3.554 4.375a3.541 3.541 0 01.599-1.975 3.545 3.545 0 012.262-1.511 3.549 3.549 0 013.207.973 3.551 3.551 0 010 5.026 3.551 3.551 0 01-5.027 0 3.545 3.545 0 01-1.041-2.513zM145.008 83.787l1.31-1.31a.126.126 0 01.149-.03.127.127 0 01.084.126v2.62a.127.127 0 01-.084.127.126.126 0 01-.149-.03l-1.31-1.31c-.065-.064-.065-.129 0-.193zm-1.874-.314c-.114 0-.21.04-.29.12a.396.396 0 00-.121.29c0 .114.041.21.121.29.08.08.176.12.29.12.113 0 .21-.04.29-.12.08-.08.12-.176.12-.29 0-.113-.04-.21-.12-.29a.395.395 0 00-.29-.12zm-1.231.41a1.217 1.217 0 01.313-.819 1.226 1.226 0 011.224-.372 1.217 1.217 0 01.715.507 1.207 1.207 0 01.197.854 1.228 1.228 0 01-.808.99v2.875c.184.065.343.168.478.31a1.226 1.226 0 01.101 1.583c-.116.157-.261.279-.435.367a1.217 1.217 0 01-.554.132 1.218 1.218 0 01-.99-.5 1.216 1.216 0 01-.187-1.092c.057-.186.153-.35.288-.49.135-.142.294-.245.478-.31v-2.874a1.202 1.202 0 01-.594-.45 1.2 1.2 0 01-.226-.71zm5.195-.41h-.547v.82h.547c.151 0 .28.054.387.16.107.108.16.237.16.388v3.077a1.216 1.216 0 00-.479.31 1.216 1.216 0 00-.324 1.06 1.227 1.227 0 001.213 1.023c.195-.001.38-.045.554-.133.175-.088.32-.21.436-.367.116-.157.19-.332.223-.524a1.216 1.216 0 00-.036-.569 1.212 1.212 0 00-.288-.49 1.216 1.216 0 00-.479-.31v-3.077c0-.182-.034-.356-.104-.524a1.35 1.35 0 00-.74-.74 1.352 1.352 0 00-.523-.103zm.547 5.606c0-.114.04-.21.12-.29.08-.08.177-.12.29-.12.113 0 .21.04.29.12.08.08.12.176.12.29 0 .113-.04.21-.12.29a.395.395 0 01-.29.12.395.395 0 01-.29-.12.395.395 0 01-.12-.29zm-4.511-.41c-.114 0-.21.04-.29.12a.396.396 0 00-.121.29c0 .113.041.21.121.29.08.08.176.12.29.12.113 0 .21-.04.29-.12.08-.08.12-.177.12-.29 0-.114-.04-.21-.12-.29a.396.396 0 00-.29-.12zM236.505 83.61c0-.091.046-.137.137-.137h4.648c.091 0 .137.046.137.137v3.007c0 .091-.046.137-.137.137h-1.914c-.113 0-.21.04-.29.12l-1.487 1.488v-1.198c0-.113-.04-.21-.12-.29a.395.395 0 00-.29-.12h-.547c-.091 0-.137-.046-.137-.137V83.61zm.137-.957a.945.945 0 00-.677.28.964.964 0 00-.28.677v3.007c0 .529.429.957.957.957h.137v.844c0 .161.045.309.134.443.09.133.209.231.358.293a.779.779 0 00.46.045.78.78 0 00.408-.218l1.407-1.407h1.744a.947.947 0 00.677-.28.934.934 0 00.207-.31.94.94 0 00.073-.367V83.61a.94.94 0 00-.073-.366.944.944 0 00-.884-.59h-4.648zm6.972 2.05c0-.09-.045-.136-.137-.136h-.273a.395.395 0 01-.29-.12.395.395 0 01-.12-.29c0-.114.04-.21.12-.29.08-.08.177-.12.29-.12h.273c.529 0 .957.428.957.956v3.008a.957.957 0 01-.957.957h-.136v.844a.776.776 0 01-.135.442.775.775 0 01-.357.294.78.78 0 01-.46.045.78.78 0 01-.408-.218l-1.254-1.254a.395.395 0 01-.131-.293.392.392 0 01.121-.297.394.394 0 01.297-.12.396.396 0 01.293.13l1.214 1.214v-1.197c0-.113.04-.21.12-.29.08-.08.176-.12.29-.12h.546c.092 0 .137-.046.137-.137v-3.008zM310.328 86.481a3.587 3.587 0 01.27-1.36 3.572 3.572 0 011.31-1.595 3.522 3.522 0 011.281-.531 3.547 3.547 0 012.668.53 3.548 3.548 0 011.511 3.65 3.529 3.529 0 01-.53 1.28 3.569 3.569 0 01-1.596 1.31 3.521 3.521 0 01-1.36.27 3.548 3.548 0 01-2.513-1.04 3.569 3.569 0 01-.973-1.82 3.586 3.586 0 01-.068-.694zm3.554-4.375a4.359 4.359 0 00-2.43.738 4.347 4.347 0 00-1.207 1.207 4.342 4.342 0 00-.653 1.577 4.367 4.367 0 00.653 3.284 4.337 4.337 0 001.207 1.206 4.385 4.385 0 002.43.738 4.369 4.369 0 003.638-1.944 4.406 4.406 0 00.653-1.578 4.367 4.367 0 00-.653-3.283 4.397 4.397 0 00-1.207-1.207 4.351 4.351 0 00-1.577-.653 4.361 4.361 0 00-.854-.085zm-.886 2.859a.128.128 0 00-.138-.002.125.125 0 00-.069.12v2.797c0 .054.023.093.069.12a.129.129 0 00.138-.002l2.332-1.4a.129.129 0 00.066-.117.129.129 0 00-.066-.117l-2.332-1.4zM367.882 82.106a.947.947 0 00-.677.28.95.95 0 00-.28.677V89.9c0 .528.429.957.957.957h6.835a.953.953 0 00.957-.957v-6.836a.958.958 0 00-.59-.884.955.955 0 00-.367-.073h-6.835zm-.137.957c0-.09.046-.136.137-.136h6.835c.092 0 .137.045.137.136V89.9c0 .09-.045.136-.137.136h-6.835c-.091 0-.137-.045-.137-.136v-6.836zm5.605.684c-.113 0-.21.04-.29.12a.395.395 0 00-.12.29v4.101c0 .114.04.21.12.29.08.08.177.12.29.12.114 0 .21-.04.29-.12.08-.08.12-.177.12-.29v-4.101c0-.113-.04-.21-.12-.29a.394.394 0 00-.29-.12zm-4.511.41c0-.113.04-.21.12-.29.08-.08.177-.12.29-.12.113 0 .21.04.29.12.08.08.12.177.12.29v3.008c0 .113-.04.21-.12.29a.395.395 0 01-.29.12.395.395 0 01-.29-.12.395.395 0 01-.12-.29v-3.008zm2.461-.41c-.114 0-.21.04-.29.12a.395.395 0 00-.12.29v1.914c0 .113.04.21.12.29.08.08.176.12.29.12.113 0 .21-.04.29-.12.08-.08.12-.177.12-.29v-1.914c0-.113-.04-.21-.12-.29a.395.395 0 00-.29-.12zM430.613 82.179a.935.935 0 01.583 0l2.871.919a.93.93 0 01.481.347.932.932 0 01.184.564v1.925c0 .856-.175 1.74-.712 2.56-.538.82-1.414 1.538-2.752 2.108a.893.893 0 01-.727 0c-1.338-.57-2.214-1.288-2.752-2.108-.537-.82-.712-1.704-.712-2.56v-1.925c0-.208.061-.396.184-.564a.93.93 0 01.481-.347l2.871-.92zm.334.781a.135.135 0 00-.084 0l-2.871.919c-.063.02-.095.064-.095.13v1.925c0 .743.15 1.458.578 2.11.429.654 1.16 1.28 2.387 1.804a.107.107 0 00.085 0c1.227-.523 1.958-1.15 2.387-1.804.428-.652.578-1.366.578-2.11v-1.925c0-.066-.032-.11-.095-.13l-2.871-.918h.001zm.504 4.888c0 .15-.053.28-.16.387a.526.526 0 01-.386.16.528.528 0 01-.387-.16.526.526 0 01-.16-.387c0-.151.053-.28.16-.387a.528.528 0 01.387-.16c.151 0 .279.053.386.16.107.107.16.236.16.387zm-.136-3.144c0-.114-.04-.21-.12-.29a.397.397 0 00-.29-.12c-.114 0-.21.04-.29.12a.392.392 0 00-.121.29v1.64c0 .113.04.21.121.29.08.08.176.12.29.12.113 0 .209-.04.29-.12.08-.08.12-.177.12-.29v-1.64zM501.173 83.063c0-.113-.04-.21-.121-.29a.394.394 0 00-.29-.12.397.397 0 00-.29.12.395.395 0 00-.12.29v6.835c0 .227.184.41.41.41h7.93c.113 0 .209-.04.29-.12.08-.08.12-.176.12-.29 0-.113-.04-.21-.12-.29a.397.397 0 00-.29-.12h-7.519v-6.425zm7.808 1.383a.393.393 0 00.11-.286.396.396 0 00-.12-.283.394.394 0 00-.282-.12.395.395 0 00-.287.11l-2.581 2.58-1.351-1.35a.396.396 0 00-.29-.12c-.113 0-.21.04-.29.12l-1.777 1.777a.397.397 0 00-.11.287c.002.11.042.205.12.283a.397.397 0 00.283.12.397.397 0 00.287-.11l1.487-1.487 1.351 1.35c.08.08.177.12.29.12.113 0 .209-.04.289-.12l2.871-2.87zM562.926 82.94c.208-.018.416-.018.624 0 .02.002.059.02.075.08l.158.604c.081.307.301.53.546.65.095.048.186.1.274.16.228.151.53.23.836.147l.603-.166c.06-.016.095.009.106.025.12.17.225.35.314.541.007.017.012.06-.033.104l-.445.44a1.02 1.02 0 00-.29.797c.007.106.007.212 0 .318a1.02 1.02 0 00.29.796l.445.441c.044.044.04.087.033.104a3.54 3.54 0 01-.314.541c-.011.016-.047.04-.106.025l-.603-.166a1.023 1.023 0 00-.836.148 2.484 2.484 0 01-.274.159 1.026 1.026 0 00-.546.65l-.158.604c-.016.06-.055.078-.075.08a3.612 3.612 0 01-.624 0c-.02-.002-.059-.02-.075-.08l-.158-.604a1.027 1.027 0 00-.545-.65 2.437 2.437 0 01-.274-.159 1.025 1.025 0 00-.837-.148l-.602.166c-.061.016-.096-.009-.107-.025a3.528 3.528 0 01-.313-.541c-.008-.017-.012-.06.032-.104l.446-.44c.224-.223.307-.524.289-.797a2.817 2.817 0 010-.318 1.022 1.022 0 00-.289-.796l-.446-.441c-.044-.044-.04-.087-.032-.104.088-.19.192-.37.313-.541.011-.016.047-.041.107-.025l.603.166c.305.084.608.004.836-.148.087-.058.179-.111.273-.158a1.02 1.02 0 00.546-.65l.158-.605c.016-.06.055-.078.075-.08zm.312-.834c-.129 0-.257.006-.383.017a.913.913 0 00-.797.69l-.159.604c-.009.036-.043.087-.115.123a3.29 3.29 0 00-.366.21c-.067.046-.127.05-.164.04l-.602-.166a.914.914 0 00-.996.345c-.148.21-.276.432-.385.665a.915.915 0 00.199 1.034l.446.441c.027.026.053.08.048.161-.009.14-.009.281 0 .422.005.08-.021.135-.048.16l-.446.442a.914.914 0 00-.199 1.034c.11.234.239.456.385.666.234.333.643.44.996.344l.603-.165c.036-.01.096-.006.163.038.117.079.239.15.366.212.072.036.106.086.116.122l.158.605a.913.913 0 00.797.689c.255.022.511.022.766 0a.913.913 0 00.798-.69l.158-.604c.01-.036.043-.086.116-.123.126-.062.248-.132.365-.21.067-.045.127-.05.164-.04l.603.166a.913.913 0 00.995-.345c.146-.209.276-.431.385-.665a.913.913 0 00-.199-1.034l-.445-.441c-.028-.026-.054-.08-.048-.16.009-.142.009-.282 0-.423-.006-.08.021-.135.048-.16l.445-.442a.913.913 0 00.199-1.034 4.38 4.38 0 00-.385-.666.915.915 0 00-.995-.344l-.603.166c-.037.01-.097.006-.164-.04a3.277 3.277 0 00-.365-.21c-.073-.036-.106-.087-.116-.123l-.158-.605a.914.914 0 00-.798-.689 4.403 4.403 0 00-.383-.017zm.82 4.375a.805.805 0 01-.24.58.807.807 0 01-.58.24.814.814 0 01-.58-.24.817.817 0 010-1.16.816.816 0 01.894-.178.806.806 0 01.444.444c.042.1.062.205.062.314zm.821 0a1.63 1.63 0 01-.481 1.16 1.627 1.627 0 01-1.16.48 1.629 1.629 0 01-1.16-.48 1.618 1.618 0 01-.355-.532 1.612 1.612 0 01-.125-.628c0-.218.041-.427.125-.628a1.625 1.625 0 011.515-1.013 1.625 1.625 0 011.16.481 1.63 1.63 0 01.481 1.16z" fill="#484F58"/><path d="M13.397 757.992V147.179a2.993 2.993 0 01.507-1.671 2.974 2.974 0 01.83-.829 2.945 2.945 0 011.084-.449c.194-.039.39-.058.587-.058h431.451a2.966 2.966 0 011.151.229 2.966 2.966 0 011.35 1.107 3.057 3.057 0 01.449 1.085c.039.193.058.389.058.586v610.813a2.973 2.973 0 01-.229 1.151 3.02 3.02 0 01-1.628 1.628 3.06 3.06 0 01-1.151.229H16.405a3.08 3.08 0 01-1.151-.229 3.055 3.055 0 01-1.35-1.108 3.013 3.013 0 01-.507-1.671z" fill="#0D1117"/><path d="M13.397 757.992V147.179a2.993 2.993 0 01.507-1.671 2.974 2.974 0 01.83-.829 2.945 2.945 0 011.084-.449c.194-.039.39-.058.587-.058h431.451a2.966 2.966 0 011.151.229 2.966 2.966 0 011.35 1.107 3.057 3.057 0 01.449 1.085c.039.193.058.389.058.586v610.813a2.973 2.973 0 01-.229 1.151 3.02 3.02 0 01-1.628 1.628 3.06 3.06 0 01-1.151.229H16.405a3.08 3.08 0 01-1.151-.229 3.055 3.055 0 01-1.35-1.108 3.013 3.013 0 01-.507-1.671z" stroke="#30363D" stroke-miterlimit="10"/><path d="M459.887 376.302h139.989v.547H459.887v-.547zM459.887 307.948h139.989v.547H459.887v-.547zM459.887 239.594h139.989v.547H459.887v-.547z" fill="#21262D"/><path fill-rule="evenodd" clip-rule="evenodd" d="M595.189 120.672c.208-.018.416-.018.625 0 .019.001.059.019.075.079l.158.605c.08.306.3.528.545.65.095.047.186.1.274.158.228.152.53.232.836.148l.603-.166c.06-.016.096.009.107.026.119.169.224.35.313.54.008.017.012.061-.032.104l-.446.441a1.022 1.022 0 00-.29.796 2.41 2.41 0 010 .318c-.017.273.065.575.29.797l.446.44c.043.044.04.087.032.104a3.65 3.65 0 01-.313.542c-.011.016-.047.04-.107.024l-.603-.165a1.022 1.022 0 00-.836.147 2.41 2.41 0 01-.274.159 1.02 1.02 0 00-.545.65l-.158.604c-.016.06-.056.078-.075.08a3.624 3.624 0 01-.625 0c-.02-.002-.059-.02-.075-.08l-.158-.604a1.026 1.026 0 00-.545-.65 2.41 2.41 0 01-.274-.159 1.023 1.023 0 00-.837-.147l-.602.165c-.06.017-.096-.008-.107-.025a3.506 3.506 0 01-.313-.541c-.008-.017-.012-.06.032-.104l.446-.44c.224-.222.307-.524.29-.797a2.41 2.41 0 010-.318 1.026 1.026 0 00-.29-.796l-.446-.441c-.044-.043-.04-.087-.032-.104.088-.189.193-.37.313-.541.011-.016.047-.041.107-.025l.603.166c.306.084.608.004.836-.148.087-.058.179-.111.273-.158.246-.122.466-.344.546-.65l.158-.605c.016-.06.055-.078.075-.079zm.312-.834c-.129 0-.257.005-.383.016a.914.914 0 00-.797.69l-.159.604c-.009.037-.043.087-.115.123a3.244 3.244 0 00-.366.211c-.067.045-.127.049-.164.039l-.602-.165a.913.913 0 00-.995.344 4.33 4.33 0 00-.385.666.913.913 0 00.198 1.034l.446.44c.027.027.053.081.048.161a3.301 3.301 0 000 .422c.005.081-.021.135-.048.161l-.446.441a.912.912 0 00-.198 1.034c.109.234.238.457.385.666a.916.916 0 00.995.345l.603-.166c.036-.011.096-.006.163.039.117.078.239.148.366.211.072.036.106.086.116.122l.158.605a.913.913 0 00.797.689c.256.022.511.022.767 0a.913.913 0 00.797-.689l.159-.605c.009-.036.042-.086.115-.122a3.39 3.39 0 00.365-.211c.067-.045.128-.05.164-.039l.603.165a.912.912 0 00.995-.345c.147-.208.276-.431.385-.665a.913.913 0 00-.199-1.034l-.445-.441c-.027-.026-.054-.08-.048-.161.009-.14.009-.281 0-.422-.006-.08.021-.134.048-.161l.445-.44a.913.913 0 00.199-1.034 4.318 4.318 0 00-.385-.666.916.916 0 00-.995-.345l-.603.166c-.036.01-.097.006-.164-.039a3.231 3.231 0 00-.365-.211c-.073-.036-.106-.086-.116-.123l-.157-.605a.914.914 0 00-.798-.688 4.11 4.11 0 00-.384-.017zm.821 4.374a.804.804 0 01-.063.314.797.797 0 01-.178.266.797.797 0 01-.266.178.804.804 0 01-.628 0 .807.807 0 01-.443-.444.804.804 0 010-.628.805.805 0 01.443-.443.811.811 0 01.628 0 .807.807 0 01.507.757zm.82 0a1.629 1.629 0 01-.481 1.16 1.629 1.629 0 01-1.787.356 1.624 1.624 0 01-.888-.888 1.61 1.61 0 01-.125-.628 1.637 1.637 0 012.8-1.16 1.628 1.628 0 01.481 1.16z" fill="#8B949E"/><path fill-rule="evenodd" clip-rule="evenodd" d="M464.138 177.952a.398.398 0 00-.11.287.396.396 0 00.12.283.397.397 0 00.283.12.397.397 0 00.287-.11l.684-.684a1.084 1.084 0 01.773-.32 1.095 1.095 0 01.774 1.868l-1.367 1.367a1.074 1.074 0 01-.355.237 1.077 1.077 0 01-.838 0 1.074 1.074 0 01-.355-.237.394.394 0 00-.286-.11.396.396 0 00-.283.12.396.396 0 00-.12.283.398.398 0 00.11.287c.179.179.386.318.621.415.234.097.478.145.732.145a1.901 1.901 0 001.354-.56l1.367-1.367a1.91 1.91 0 00.56-1.354 1.901 1.901 0 00-.561-1.353 1.889 1.889 0 00-.621-.414 1.894 1.894 0 00-.732-.146c-.254 0-.498.048-.732.145a1.891 1.891 0 00-.621.415l-.684.683zm-2.564 5.272a1.092 1.092 0 010-1.548l1.367-1.367c.102-.102.221-.182.355-.237a1.074 1.074 0 01.837 0c.134.055.253.135.355.237a.394.394 0 00.287.11.396.396 0 00.283-.12.396.396 0 00.12-.283.394.394 0 00-.11-.286 1.886 1.886 0 00-.621-.415 1.897 1.897 0 00-1.465 0 1.897 1.897 0 00-.621.415l-1.367 1.367a1.889 1.889 0 00-.414.621 1.894 1.894 0 000 1.464c.097.234.235.441.415.621a1.898 1.898 0 001.353.56 1.9 1.9 0 001.353-.56l.683-.683a.392.392 0 00.11-.287.397.397 0 00-.12-.283.395.395 0 00-.282-.12.397.397 0 00-.287.11l-.684.684a1.064 1.064 0 01-.355.237 1.074 1.074 0 01-.837 0 1.064 1.064 0 01-.355-.237z" fill="#C9D1D9"/><path fill-rule="evenodd" clip-rule="evenodd" d="M459.887 197.351c0-.113.04-.21.12-.29.08-.08.177-.12.29-.12h2.325c.671 0 1.267.323 1.641.821.194-.259.435-.46.724-.605.289-.144.595-.216.918-.216h2.321c.114 0 .21.04.29.12.081.08.121.177.121.29v5.742c0 .113-.041.21-.121.29a.394.394 0 01-.29.12h-2.464c-.34 0-.63.12-.87.361l-.34.339a.396.396 0 01-.29.12.396.396 0 01-.29-.12l-.34-.339a1.182 1.182 0 00-.87-.361h-2.465a.396.396 0 01-.29-.12.396.396 0 01-.12-.29v-5.742zm4.787 1.641c0-.163.031-.32.094-.471.062-.151.151-.284.267-.399a1.222 1.222 0 01.87-.361h1.911v4.922h-2.055c-.388 0-.765.11-1.089.313l.002-4.004zm-.822 4.005l.002-2.774-.001-1.232a1.23 1.23 0 00-1.231-1.23h-1.915v4.922h2.054c.394 0 .757.105 1.091.314zM464.671 217.037c0-.113-.04-.21-.12-.29a.394.394 0 00-.29-.12c-.113 0-.21.04-.29.12a.396.396 0 00-.12.29v.684h-.538a.964.964 0 00-.475.126l-.704.403a.14.14 0 01-.069.018h-1.221c-.114 0-.21.04-.29.12a.396.396 0 00-.12.29c0 .113.04.21.12.29.08.08.176.12.29.12h.234l-1.155 2.566a.377.377 0 00.084.458l.29-.29-.29.29.001.002.001.001.003.003.009.008.025.022c.115.097.24.179.375.246.349.17.718.253 1.106.248.481 0 .851-.12 1.106-.248.135-.067.26-.149.376-.246l.024-.022.009-.008.003-.003.001-.001.001-.002-.289-.29.289.29a.377.377 0 00.085-.458l-1.155-2.566h.088a.961.961 0 00.475-.126l.705-.403a.136.136 0 01.068-.018h.538v5.195h-1.367c-.113 0-.21.04-.29.12a.396.396 0 00-.12.29c0 .113.04.21.12.29.08.08.177.12.29.12h3.555c.113 0 .209-.04.29-.12.08-.08.12-.177.12-.29 0-.113-.04-.21-.12-.29a.397.397 0 00-.29-.12h-1.368v-5.195h.539c.024 0 .046.006.067.018l.706.403a.95.95 0 00.474.126h.089l-1.155 2.566a.378.378 0 00.084.458l.29-.29-.29.29.001.002.002.001.003.003.009.008.024.022c.116.097.241.179.375.246.349.17.718.253 1.107.248.481 0 .85-.12 1.106-.248.134-.067.26-.149.375-.246l.025-.022.005-.005.003-.003.004-.003.001-.001v-.002l-.289-.29.29.29a.378.378 0 00.084-.458l-1.154-2.566h.233c.113 0 .21-.04.29-.12.08-.08.12-.177.12-.29 0-.113-.04-.21-.12-.29a.396.396 0 00-.29-.12h-1.222a.132.132 0 01-.067-.018l-.706-.403a.94.94 0 00-.474-.126h-.539v-.684zm-3.857 4.636c.155.074.392.149.713.149.321 0 .558-.075.714-.149l-.714-1.586-.713 1.586zm5.468 0c.156.074.393.149.714.149.321 0 .557-.075.713-.149l-.713-1.586-.714 1.586z" fill="#8B949E"/><path d="M13.397 131.868v-10.937a2.993 2.993 0 01.507-1.671 2.974 2.974 0 01.83-.829 2.945 2.945 0 011.084-.449c.194-.039.39-.058.587-.058H67.26a2.965 2.965 0 011.151.229c.183.075.356.168.52.278a2.97 2.97 0 011.108 1.349 3.01 3.01 0 01.229 1.151v10.937a3.003 3.003 0 01-1.857 2.779 3.078 3.078 0 01-1.15.229H16.404a3.042 3.042 0 01-1.151-.229 3.055 3.055 0 01-1.35-1.108 3.013 3.013 0 01-.507-1.671z" stroke="#F0F6FC" stroke-opacity=".102" stroke-miterlimit="10"/><path fill-rule="evenodd" clip-rule="evenodd" d="M28.845 123.392c-.113 0-.21.04-.29.12a.396.396 0 00-.12.29c0 .113.04.21.12.29.08.08.177.12.29.12.114 0 .21-.04.29-.12.08-.08.12-.177.12-.29 0-.113-.04-.21-.12-.29a.396.396 0 00-.29-.12zm-1.23.41a1.217 1.217 0 01.313-.819c.1-.113.218-.204.352-.273a1.212 1.212 0 01.871-.099 1.214 1.214 0 01.716.506 1.227 1.227 0 01-.225 1.623 1.23 1.23 0 01-.386.223v.343c0 .181-.035.356-.105.523a1.36 1.36 0 01-.74.74 1.36 1.36 0 01-.523.104h-2.187a.526.526 0 00-.387.16.528.528 0 00-.16.387v.617c.184.065.344.168.479.309s.231.304.288.491c.057.187.07.376.036.568a1.212 1.212 0 01-.223.524c-.116.157-.261.28-.436.367a1.213 1.213 0 01-.554.132c-.195 0-.38-.044-.554-.132a1.204 1.204 0 01-.435-.367 1.212 1.212 0 01-.224-.524 1.214 1.214 0 01.036-.568c.057-.187.154-.35.288-.491.136-.141.295-.244.48-.309v-2.874a1.212 1.212 0 01-.48-.309 1.218 1.218 0 01-.287-.491 1.215 1.215 0 01-.037-.568c.034-.193.108-.367.224-.524.116-.157.261-.279.435-.367.174-.088.36-.132.554-.132.195 0 .38.044.554.132.174.088.32.21.435.367.116.157.19.331.224.524a1.218 1.218 0 01-.324 1.059 1.212 1.212 0 01-.479.309v1.004c.175-.077.357-.114.547-.114h2.188a.53.53 0 00.386-.16.528.528 0 00.16-.387v-.343a1.203 1.203 0 01-.594-.45 1.203 1.203 0 01-.226-.711zm-2.87 4.785c-.114 0-.21.04-.29.12a.395.395 0 00-.12.29c0 .113.04.21.12.29.08.08.176.12.29.12.113 0 .21-.04.29-.12.08-.08.12-.177.12-.29 0-.113-.04-.21-.12-.29a.395.395 0 00-.29-.12zm-.41-4.785c0-.113.04-.21.12-.29.08-.08.176-.12.29-.12.113 0 .21.04.29.12.08.08.12.177.12.29 0 .113-.04.21-.12.29a.395.395 0 01-.29.12.395.395 0 01-.29-.12.395.395 0 01-.12-.29z" fill="#8B949E"/><path opacity=".8" d="M56.87 125.853l2.188 2.187 2.186-2.187" fill="#C9D1D9"/><path d="M292.282 131.868v-10.937a3.032 3.032 0 01.507-1.671 3.028 3.028 0 011.35-1.107 2.966 2.966 0 011.151-.229h44.84a2.966 2.966 0 011.151.229 2.966 2.966 0 011.35 1.107 3.057 3.057 0 01.449 1.085c.039.193.058.389.058.586v10.937a2.973 2.973 0 01-.229 1.151 3.02 3.02 0 01-1.628 1.628 3.06 3.06 0 01-1.151.229h-44.84a3.043 3.043 0 01-1.151-.229 3.09 3.09 0 01-.52-.278 3.087 3.087 0 01-.456-.374 3.02 3.02 0 01-.881-2.127zM348.059 131.868v-10.937a3.032 3.032 0 01.507-1.671 3.028 3.028 0 011.35-1.107 2.966 2.966 0 011.151-.229h45.934a2.973 2.973 0 011.151.229 2.952 2.952 0 01.975.652 2.975 2.975 0 01.824 1.54c.038.193.057.389.057.586v10.937c0 .197-.019.393-.057.587a3.032 3.032 0 01-1.279 1.914 3.09 3.09 0 01-.52.278 3.05 3.05 0 01-1.151.229h-45.934a3.043 3.043 0 01-1.151-.229 3.052 3.052 0 01-.976-.652 3.02 3.02 0 01-.881-2.127z" stroke="#F0F6FC" stroke-opacity=".102" stroke-miterlimit="10"/><path opacity=".8" d="M386.611 125.306l2.187 2.187 2.187-2.187" fill="#C9D1D9"/><path d="M404.93 131.868v-10.937c0-.197.019-.393.058-.586a2.944 2.944 0 01.449-1.085 2.968 2.968 0 01.83-.829c.164-.11.337-.203.52-.278a2.958 2.958 0 011.151-.229h39.918a2.966 2.966 0 011.151.229 2.966 2.966 0 011.35 1.107 3.057 3.057 0 01.449 1.085c.039.193.058.389.058.586v10.937a2.973 2.973 0 01-.229 1.151 3.02 3.02 0 01-1.628 1.628 3.06 3.06 0 01-1.151.229h-39.918a3.035 3.035 0 01-1.151-.229 3.052 3.052 0 01-.976-.652 3.025 3.025 0 01-.823-1.54 2.973 2.973 0 01-.058-.587z" stroke="#F0F6FC" stroke-opacity=".102" stroke-miterlimit="10"/><path opacity=".8" d="M437.467 125.853l2.186 2.187 2.187-2.187" fill="#C9D1D9"/><path d="M13.397 173.701v-26.522a2.993 2.993 0 01.507-1.671 2.974 2.974 0 01.83-.829 2.945 2.945 0 011.084-.449c.194-.039.39-.058.587-.058h431.451a2.966 2.966 0 011.151.229 2.966 2.966 0 011.35 1.107 3.057 3.057 0 01.449 1.085c.039.193.058.389.058.586v26.522H13.397z" fill="#6E7681" fill-opacity=".102"/><path d="M13.397 173.701v-26.522a2.993 2.993 0 01.507-1.671 2.974 2.974 0 01.83-.829 2.945 2.945 0 011.084-.449c.194-.039.39-.058.587-.058h431.451a2.966 2.966 0 011.151.229 2.966 2.966 0 011.35 1.107 3.057 3.057 0 01.449 1.085c.039.193.058.389.058.586v26.522H13.397z" stroke="#30363D" stroke-miterlimit="10"/><path fill-rule="evenodd" clip-rule="evenodd" d="M414.851 156.554l-.665-.665a.127.127 0 00-.149-.03.127.127 0 00-.084.127v1.993c0 .076.061.137.136.137h1.994a.128.128 0 00.127-.084.129.129 0 00-.03-.15l-.743-.742a3.582 3.582 0 011.229-1.073 3.568 3.568 0 011.579-.411 3.57 3.57 0 012.294.771 3.51 3.51 0 011.01 1.281 3.52 3.52 0 01.331 1.598 3.5 3.5 0 01-.117.813 3.507 3.507 0 01-.768 1.439 3.542 3.542 0 01-2.943 1.195 3.529 3.529 0 01-1.554-.496 3.554 3.554 0 01-1.706-2.679.394.394 0 00-.149-.277.4.4 0 00-.301-.09.4.4 0 00-.277.15.395.395 0 00-.089.301 4.337 4.337 0 00.654 1.887 4.365 4.365 0 001.425 1.4 4.396 4.396 0 001.899.62 4.333 4.333 0 001.977-.289 4.343 4.343 0 001.642-1.136 4.37 4.37 0 001.125-2.742 4.37 4.37 0 00-4.358-4.568 4.37 4.37 0 00-3.489 1.72zm3.34.468c.113 0 .21.04.29.12.08.081.12.177.12.29v1.637l1.109.444a.394.394 0 01.215.22.397.397 0 01.002.308.395.395 0 01-.214.222.397.397 0 01-.308.011l-1.367-.547a.378.378 0 01-.257-.381v-1.914c0-.113.04-.209.12-.29.08-.08.176-.12.29-.12z" fill="#C9D1D9"/><path fill-rule="evenodd" clip-rule="evenodd" d="M360.79 157.143c.08.08.12.176.12.289 0 .114-.04.21-.12.29l-3.965 3.965a.396.396 0 01-.29.12.396.396 0 01-.29-.12l-1.777-1.777a.398.398 0 01-.11-.287.396.396 0 01.12-.283.397.397 0 01.283-.12.398.398 0 01.287.11l1.487 1.487 3.675-3.674c.08-.08.177-.12.29-.12.113 0 .21.04.29.12z" fill="#3FB950"/><path d="M13.67 173.427h436.921v20.78H13.671v-20.78z" fill="#161B22"/><path d="M13.67 173.427h436.921v.547H13.671v-.547z" fill="#21262D"/><path fill-rule="evenodd" clip-rule="evenodd" d="M23.377 180.536a.965.965 0 00-.884.591.945.945 0 00-.073.366v5.742c0 .528.429.957.957.957h6.835a.965.965 0 00.884-.591.947.947 0 00.073-.366v-4.648a.947.947 0 00-.28-.677.934.934 0 00-.31-.207.94.94 0 00-.367-.073h-3.554a.129.129 0 01-.11-.055l-.491-.656a.957.957 0 00-.766-.383h-1.914z" fill="#8B949E"/><path d="M13.67 193.66h436.921v.547H13.671v-.547z" fill="#21262D"/><path fill-rule="evenodd" clip-rule="evenodd" d="M23.377 200.769a.95.95 0 00-.884.591.945.945 0 00-.073.366v5.742c0 .528.429.957.957.957h6.835a.96.96 0 00.957-.957v-4.648a.955.955 0 00-.957-.957h-3.554a.131.131 0 01-.11-.055l-.491-.656a.957.957 0 00-.766-.383h-1.914z" fill="#8B949E"/><path d="M13.67 213.893h436.921v.547H13.671v-.547z" fill="#21262D"/><path fill-rule="evenodd" clip-rule="evenodd" d="M23.377 221.002a.94.94 0 00-.366.073.945.945 0 00-.59.884v5.742c0 .528.428.956.956.956h6.835a.958.958 0 00.885-.59.954.954 0 00.072-.366v-4.649a.95.95 0 00-.28-.676.952.952 0 00-.677-.281h-3.554a.13.13 0 01-.11-.054l-.491-.656a.957.957 0 00-.766-.383h-1.914z" fill="#8B949E"/><path d="M13.67 234.126h436.921v.547H13.671v-.547z" fill="#21262D"/><path fill-rule="evenodd" clip-rule="evenodd" d="M23.377 241.235a.958.958 0 00-.884.59.953.953 0 00-.073.367v5.741c0 .529.429.957.957.957h6.835a.94.94 0 00.367-.073.953.953 0 00.59-.884v-4.648a.947.947 0 00-.28-.676.952.952 0 00-.677-.281h-3.554a.13.13 0 01-.11-.054l-.491-.657a.96.96 0 00-.766-.382h-1.914z" fill="#8B949E"/><path d="M13.67 254.359h436.921v.546H13.671v-.546z" fill="#21262D"/><path fill-rule="evenodd" clip-rule="evenodd" d="M23.377 261.467a.959.959 0 00-.957.957v5.742c0 .528.429.957.957.957h6.835a.94.94 0 00.367-.073.946.946 0 00.59-.884v-4.648a.947.947 0 00-.28-.677.965.965 0 00-.677-.28h-3.554a.129.129 0 01-.11-.055l-.491-.656a.96.96 0 00-.766-.383h-1.914z" fill="#8B949E"/><path d="M13.67 274.591h436.921v.547H13.671v-.547z" fill="#21262D"/><path fill-rule="evenodd" clip-rule="evenodd" d="M23.377 281.7a.959.959 0 00-.957.957v5.742c0 .528.429.957.957.957h6.835a.95.95 0 00.884-.591.947.947 0 00.073-.366v-4.648a.947.947 0 00-.28-.677.95.95 0 00-.677-.28h-3.554a.129.129 0 01-.11-.055l-.491-.656a.957.957 0 00-.766-.383h-1.914z" fill="#8B949E"/><path d="M13.67 294.824h436.921v.547H13.671v-.547z" fill="#21262D"/><path fill-rule="evenodd" clip-rule="evenodd" d="M23.377 301.933a.965.965 0 00-.884.591.945.945 0 00-.073.366v5.742c0 .528.429.957.957.957h6.835a.965.965 0 00.884-.591.947.947 0 00.073-.366v-4.648a.947.947 0 00-.28-.677.934.934 0 00-.31-.207.94.94 0 00-.367-.073h-3.554a.129.129 0 01-.11-.055l-.491-.656a.957.957 0 00-.766-.383h-1.914z" fill="#8B949E"/><path d="M13.67 315.057h436.921v.547H13.671v-.547z" fill="#21262D"/><path fill-rule="evenodd" clip-rule="evenodd" d="M23.377 322.166a.95.95 0 00-.884.591.945.945 0 00-.073.366v5.742c0 .528.429.957.957.957h6.835a.96.96 0 00.957-.957v-4.648a.955.955 0 00-.957-.957h-3.554a.131.131 0 01-.11-.055l-.491-.656a.957.957 0 00-.766-.383h-1.914z" fill="#8B949E"/><path d="M13.67 335.29h436.921v.547H13.671v-.547z" fill="#21262D"/><path fill-rule="evenodd" clip-rule="evenodd" d="M23.377 342.399a.94.94 0 00-.366.073.95.95 0 00-.59.884v5.741c0 .529.428.957.956.957h6.835a.958.958 0 00.885-.59.955.955 0 00.072-.367v-4.648a.947.947 0 00-.28-.676.952.952 0 00-.677-.281h-3.554a.13.13 0 01-.11-.054l-.491-.656a.957.957 0 00-.766-.383h-1.914z" fill="#8B949E"/><path d="M13.67 355.523h436.921v.547H13.671v-.547z" fill="#21262D"/><path fill-rule="evenodd" clip-rule="evenodd" d="M23.377 362.632a.958.958 0 00-.884.59.953.953 0 00-.073.367v5.741c0 .529.429.957.957.957h6.835a.94.94 0 00.367-.073.946.946 0 00.59-.884v-4.648a.947.947 0 00-.28-.676.952.952 0 00-.677-.281h-3.554a.13.13 0 01-.11-.054l-.491-.657a.96.96 0 00-.766-.382h-1.914z" fill="#8B949E"/><path d="M13.67 375.756h436.921v.546H13.671v-.546z" fill="#21262D"/><path fill-rule="evenodd" clip-rule="evenodd" d="M24.47 383.138c-.09 0-.136.045-.136.137v6.288c0 .076.061.137.137.137h4.648c.091 0 .137-.046.137-.137v-3.964h-1.504a.958.958 0 01-.957-.957v-1.504H24.47zm3.145.306v1.198c0 .075.061.136.137.136h1.197l-1.334-1.334zm-4.101-.169c0-.529.429-.957.957-.957h2.781c.254 0 .497.1.676.28l1.867 1.867c.18.179.28.423.28.676v4.422a.945.945 0 01-.28.677.935.935 0 01-.31.207.94.94 0 01-.366.073H24.47a.94.94 0 01-.366-.073.946.946 0 01-.59-.884v-6.288z" fill="#8B949E"/><path d="M13.67 395.988h436.921v.547H13.671v-.547z" fill="#21262D"/><path fill-rule="evenodd" clip-rule="evenodd" d="M24.47 403.371c-.09 0-.136.045-.136.136v6.289c0 .075.061.137.137.137h4.648c.091 0 .137-.046.137-.137v-3.965h-1.504a.957.957 0 01-.957-.957v-1.503H24.47zm3.145.306v1.197c0 .076.061.137.137.137h1.197l-1.334-1.334zm-4.101-.17c0-.528.429-.957.957-.957h2.781c.254 0 .497.101.676.281l1.867 1.867c.18.179.28.423.28.676v4.422a.945.945 0 01-.28.677.95.95 0 01-.676.28H24.47a.95.95 0 01-.957-.957v-6.289z" fill="#8B949E"/><path d="M13.67 416.221h436.921v.547H13.671v-.547z" fill="#21262D"/><path fill-rule="evenodd" clip-rule="evenodd" d="M24.47 423.604c-.09 0-.136.045-.136.136v6.289c0 .075.061.137.137.137h4.648c.091 0 .137-.046.137-.137v-3.965h-1.504a.94.94 0 01-.366-.073.952.952 0 01-.59-.884v-1.503H24.47zm3.145.306v1.197c0 .076.061.137.137.137h1.197l-1.334-1.334zm-4.101-.17c0-.528.429-.957.957-.957h2.781c.254 0 .497.101.676.281l1.867 1.867c.18.179.28.422.28.676v4.422a.945.945 0 01-.28.676.953.953 0 01-.676.281H24.47a.958.958 0 01-.957-.957v-6.289z" fill="#8B949E"/><path d="M13.67 436.454h436.921v.547H13.671v-.547z" fill="#21262D"/><path fill-rule="evenodd" clip-rule="evenodd" d="M24.47 443.836c-.09 0-.136.046-.136.137v6.289c0 .075.061.136.137.136h4.648c.091 0 .137-.045.137-.136v-3.965h-1.504a.94.94 0 01-.366-.073.946.946 0 01-.59-.884v-1.504H24.47zm3.145.307v1.197c0 .076.061.137.137.137h1.197l-1.334-1.334zm-4.101-.17c0-.528.429-.957.957-.957h2.781c.254 0 .497.101.676.281l1.867 1.867c.18.179.28.422.28.676v4.422a.945.945 0 01-.28.676.953.953 0 01-.676.281H24.47a.958.958 0 01-.957-.957v-6.289z" fill="#8B949E"/><path d="M13.67 456.687h436.921v.547H13.671v-.547z" fill="#21262D"/><path fill-rule="evenodd" clip-rule="evenodd" d="M24.47 464.069c-.09 0-.136.046-.136.137v6.288c0 .076.061.137.137.137h4.648c.091 0 .137-.045.137-.137v-3.964h-1.504a.95.95 0 01-.957-.957v-1.504H24.47zm3.145.306v1.198c0 .075.061.137.137.137h1.197l-1.334-1.335zm-4.101-.169c0-.528.429-.957.957-.957h2.781c.254 0 .497.101.676.28l1.867 1.867c.18.18.28.423.28.677v4.421a.954.954 0 01-.956.957H24.47a.957.957 0 01-.957-.957v-6.288z" fill="#8B949E"/><path d="M33.904 159.21a7.098 7.098 0 01-2.083 5.026 7.077 7.077 0 01-2.306 1.541 7.06 7.06 0 01-2.72.541 7.096 7.096 0 01-5.911-3.159 7.096 7.096 0 01-1.198-3.949 7.09 7.09 0 011.198-3.95 7.094 7.094 0 013.19-2.618 7.06 7.06 0 012.72-.541 7.096 7.096 0 015.912 3.159 7.096 7.096 0 011.198 3.95z" fill="#F0F6FC" fill-opacity=".102"/><path d="M33.357 159.21a6.55 6.55 0 01-1.922 4.64 6.579 6.579 0 01-5.92 1.796 6.534 6.534 0 01-2.366-.98 6.53 6.53 0 01-2.417-2.945 6.567 6.567 0 01.607-6.157 6.523 6.523 0 011.81-1.81 6.512 6.512 0 012.366-.98 6.55 6.55 0 013.791.373 6.515 6.515 0 012.129 1.423 6.516 6.516 0 011.422 2.129 6.538 6.538 0 01.5 2.511z" fill="#0D1117"/><path d="M55.76 82.094H35.534v8.747H55.76v-8.747z" fill="#959595"/><path d="M51.387 122.001H35.534v8.747h15.853v-8.747zM403.443 155.348h-34.987v8.747h34.987v-8.747zM443.897 179.948H408.91v8.747h34.987v-8.747z" fill="#707070"/><path d="M55.214 155.348H39.36v8.747h15.854v-8.747zM443.896 155.348h-15.853v8.747h15.853v-8.747zM426.404 122.001H410.55v8.747h15.854v-8.747zM382.67 122.001h-30.067v8.747h30.067v-8.747zM339.483 122.547h-43.187v8.747h43.187v-8.747z" fill="#959595"/><path d="M195.708 155.348H59.588v8.747h136.12v-8.747zM279.349 179.948H159.081v8.747h120.268v-8.747zM443.897 200.175h-42.094v8.747h42.094v-8.747zM254.202 200.175h-95.121v8.747h95.121v-8.747zM443.897 220.401H415.47v8.747h28.427v-8.747zM260.762 220.401H159.081v8.747h101.681v-8.747zM443.897 240.628h-50.294v8.747h50.294v-8.747zM237.802 240.628h-78.721v8.747h78.721v-8.747zM443.897 260.855h-40.454v8.747h40.454v-8.747zM265.682 260.855H159.081v8.747h106.601v-8.747zM443.897 281.082H408.91v8.747h34.987v-8.747zM230.695 281.082h-71.614v8.747h71.614v-8.747zM443.897 301.309H413.83v8.747h30.067v-8.747zM260.762 301.309H159.081v8.747h101.681v-8.747zM443.897 321.535h-40.454v8.747h40.454v-8.747zM211.561 321.535h-52.48v8.747h52.48v-8.747zM443.897 341.762h-42.094v8.747h42.094v-8.747zM254.202 341.762h-95.121v8.747h95.121v-8.747zM443.897 361.989h-38.814v8.747h38.814v-8.747zM264.042 361.989H159.081v8.747h104.961v-8.747zM443.897 382.216H408.91v8.747h34.987v-8.747zM303.949 382.216H159.081v8.747h144.868v-8.747zM443.897 402.443H413.83v8.747h30.067v-8.747zM242.175 402.443h-83.094v8.747h83.094v-8.747zM443.897 422.669H410.55v8.747h33.347v-8.747zM195.708 422.669h-36.627v8.747h36.627v-8.747zM443.897 442.896h-38.814v8.747h38.814v-8.747zM209.375 442.896h-50.294v8.747h50.294v-8.747zM443.896 463.123h-44.28v8.747h44.28v-8.747zM225.228 463.123h-66.147v8.747h66.147v-8.747zM69.974 179.948H39.36v8.747h30.614v-8.747zM61.774 200.175H39.36v8.747h22.414v-8.747zM83.094 220.401H39.36v8.747h43.734v-8.747zM54.12 240.628H39.36v8.747h14.76v-8.747zM56.854 260.855H39.36v8.747h17.494v-8.747zM61.774 281.082H39.36v8.747h22.414v-8.747zM73.8 301.309H39.36v8.747H73.8v-8.747zM90.747 321.535H39.36v8.747h51.387v-8.747zM71.614 341.762H39.36v8.747h32.254v-8.747zM61.774 361.989H39.36v8.747h22.414v-8.747zM56.854 382.216H39.36v8.747h17.494v-8.747zM61.774 402.443H39.36v8.747h22.414v-8.747z" fill="#707070"/><path d="M85.28 402.443H39.36v8.747h45.92v-8.747zM97.307 422.669H39.36v8.747h57.947v-8.747zM77.08 442.896H39.36v8.747h37.72v-8.747zM61.774 463.123H39.36v8.747h22.414v-8.747z" fill="#707070"/><path d="M48.107 52.573H27.88v8.747h20.227v-8.747zM211.561 155.348h-11.48v8.747h11.48v-8.747zM296.295 179.948h-11.48v8.747h11.48v-8.747zM271.149 200.175h-11.48v8.747h11.48v-8.747zM278.255 220.401h-11.48v8.747h11.48v-8.747zM254.748 240.628h-11.48v8.747h11.48v-8.747zM283.175 260.855h-11.48v8.747h11.48v-8.747zM247.642 281.082h-11.48v8.747h11.48v-8.747zM277.709 301.309h-11.48v8.747h11.48v-8.747zM228.508 321.535h-11.48v8.747h11.48v-8.747zM270.055 341.762h-11.48v8.747h11.48v-8.747zM281.535 361.989h-11.48v8.747h11.48v-8.747zM319.256 382.216h-11.48v8.747h11.48v-8.747zM258.029 402.443h-11.48v8.747h11.48v-8.747zM211.561 422.669h-11.48v8.747h11.48v-8.747zM225.775 442.896h-11.48v8.747h11.48v-8.747zM241.082 463.123h-11.48v8.747h11.48v-8.747zM71.614 52.573H51.387v8.747h20.227v-8.747zM497.47 177.761h-25.147v5.467h25.147v-5.467zM516.604 287.095h-54.667v5.467h54.667v-5.467z" fill="#69A6F8"/><path d="M105.507 82.094H85.281v8.747h20.226v-8.747zM194.068 82.094h-36.627v8.747h36.627v-8.747zM296.296 82.094h-44.827v8.747h44.827v-8.747zM356.976 82.094h-33.894v8.747h33.894v-8.747zM415.47 82.094h-33.894v8.747h33.894v-8.747zM473.417 82.094h-33.894v8.747h33.894v-8.747zM548.858 82.094h-33.894v8.747h33.894v-8.747zM607.352 82.094h-33.894v8.747h33.894v-8.747z" fill="#707070"/><path d="M607.352 82.094h-33.894v8.747h33.894v-8.747z" fill="#707070"/><path d="M495.831 122.001h-33.894v8.747h33.894v-8.747z" fill="#959595"/><path d="M523.164 143.867h-61.227v5.467h61.227v-5.467z" fill="#707070"/><path d="M523.164 143.867h-61.227v5.467h61.227v-5.467zM495.831 255.388h-33.894v8.747h33.894v-8.747zM523.164 277.255h-61.227v5.467h61.227v-5.467z" fill="#707070"/><path d="M516.604 287.095h-54.667v5.467h54.667v-5.467z" fill="#69A6F8"/><path d="M495.831 255.388h-33.894v8.747h33.894v-8.747z" fill="#959595"/><path d="M523.164 277.255h-61.227v5.467h61.227v-5.467z" fill="#707070"/><path d="M516.604 352.696h-54.667v5.467h54.667v-5.467zM516.604 458.75h-54.667v5.467h54.667v-5.467z" fill="#69A6F8"/><path d="M495.831 320.989h-33.894v8.747h33.894v-8.747z" fill="#959595"/><path d="M529.724 393.149h-67.787v8.747h67.787v-8.747zM523.164 342.856h-61.227v5.467h61.227v-5.467zM490.91 152.068h-28.973v5.467h28.973v-5.467zM490.91 197.441h-18.587v5.467h18.587v-5.467zM495.83 217.668h-23.507v5.467h23.507v-5.467z" fill="#707070"/><path d="M471.5 430a9.5 9.5 0 009.5-9.5 9.5 9.5 0 00-9.5-9.5 9.5 9.5 0 00-9.5 9.5 9.5 9.5 0 009.5 9.5zM494.5 430a9.5 9.5 0 009.5-9.5 9.5 9.5 0 00-9.5-9.5 9.5 9.5 0 00-9.5 9.5 9.5 9.5 0 009.5 9.5z" fill="#616161"/><path d="M471.5 430a9.5 9.5 0 009.5-9.5 9.5 9.5 0 00-9.5-9.5 9.5 9.5 0 00-9.5 9.5 9.5 9.5 0 009.5 9.5zM494.5 430a9.5 9.5 0 009.5-9.5 9.5 9.5 0 00-9.5-9.5 9.5 9.5 0 00-9.5 9.5 9.5 9.5 0 009.5 9.5zM518.5 430a9.5 9.5 0 009.5-9.5 9.5 9.5 0 00-9.5-9.5 9.5 9.5 0 00-9.5 9.5 9.5 9.5 0 009.5 9.5zM541.5 430a9.5 9.5 0 009.5-9.5 9.5 9.5 0 00-9.5-9.5 9.5 9.5 0 00-9.5 9.5 9.5 9.5 0 009.5 9.5z" fill="#616161"/><path d="M471.5 430a9.5 9.5 0 009.5-9.5 9.5 9.5 0 00-9.5-9.5 9.5 9.5 0 00-9.5 9.5 9.5 9.5 0 009.5 9.5zM494.5 430a9.5 9.5 0 009.5-9.5 9.5 9.5 0 00-9.5-9.5 9.5 9.5 0 00-9.5 9.5 9.5 9.5 0 009.5 9.5zM518.5 453a9.5 9.5 0 009.5-9.5 9.5 9.5 0 00-9.5-9.5 9.5 9.5 0 00-9.5 9.5 9.5 9.5 0 009.5 9.5zM541.5 453a9.5 9.5 0 009.5-9.5 9.5 9.5 0 00-9.5-9.5 9.5 9.5 0 00-9.5 9.5 9.5 9.5 0 009.5 9.5zM471.5 453a9.5 9.5 0 009.5-9.5 9.5 9.5 0 00-9.5-9.5 9.5 9.5 0 00-9.5 9.5 9.5 9.5 0 009.5 9.5zM494.5 453a9.5 9.5 0 009.5-9.5 9.5 9.5 0 00-9.5-9.5 9.5 9.5 0 00-9.5 9.5 9.5 9.5 0 009.5 9.5z" fill="#616161"/></g><defs><clipPath id="prefix__clip0_802_58"><path fill="#fff" d="M0 0h613v521H0z"/></clipPath></defs></svg>