<svg width="852" height="1266" viewBox="0 0 852 1266" fill="none" xmlns="http://www.w3.org/2000/svg">
<rect width="852" height="1266" rx="15" fill="url(#paint0_linear_906_260)"/>
<rect x="33" y="32" width="786" height="1203" rx="15" fill="#D9DEE7"/>
<rect x="92" y="148" width="216" height="58" rx="5" fill="white"/>
<path d="M201.5 71C201.5 70.1716 200.828 69.5 200 69.5C199.172 69.5 198.5 70.1716 198.5 71H201.5ZM198.939 145.061C199.525 145.646 200.475 145.646 201.061 145.061L210.607 135.515C211.192 134.929 211.192 133.979 210.607 133.393C210.021 132.808 209.071 132.808 208.485 133.393L200 141.879L191.515 133.393C190.929 132.808 189.979 132.808 189.393 133.393C188.808 133.979 188.808 134.929 189.393 135.515L198.939 145.061ZM198.5 71V144H201.5V71H198.5Z" fill="#3884FF"/>
<path d="M201.5 211C201.5 210.172 200.828 209.5 200 209.5C199.172 209.5 198.5 210.172 198.5 211H201.5ZM198.939 277.061C199.525 277.646 200.475 277.646 201.061 277.061L210.607 267.515C211.192 266.929 211.192 265.979 210.607 265.393C210.021 264.808 209.071 264.808 208.485 265.393L200 273.879L191.515 265.393C190.929 264.808 189.979 264.808 189.393 265.393C188.808 265.979 188.808 266.929 189.393 267.515L198.939 277.061ZM198.5 211V276H201.5V211H198.5Z" fill="#3884FF"/>
<path d="M201.5 438C201.5 437.172 200.828 436.5 200 436.5C199.172 436.5 198.5 437.172 198.5 438H201.5ZM198.939 512.061C199.525 512.646 200.475 512.646 201.061 512.061L210.607 502.515C211.192 501.929 211.192 500.979 210.607 500.393C210.021 499.808 209.071 499.808 208.485 500.393L200 508.879L191.515 500.393C190.929 499.808 189.979 499.808 189.393 500.393C188.808 500.979 188.808 501.929 189.393 502.515L198.939 512.061ZM198.5 438V511H201.5V438H198.5Z" fill="#3884FF"/>
<path d="M201.5 674C201.5 673.172 200.828 672.5 200 672.5C199.172 672.5 198.5 673.172 198.5 674H201.5ZM198.939 748.061C199.525 748.646 200.475 748.646 201.061 748.061L210.607 738.515C211.192 737.929 211.192 736.979 210.607 736.393C210.021 735.808 209.071 735.808 208.485 736.393L200 744.879L191.515 736.393C190.929 735.808 189.979 735.808 189.393 736.393C188.808 736.979 188.808 737.929 189.393 738.515L198.939 748.061ZM198.5 674V747H201.5V674H198.5Z" fill="#3884FF"/>
<path d="M201.5 909C201.5 908.172 200.828 907.5 200 907.5C199.172 907.5 198.5 908.172 198.5 909L201.5 909ZM375.061 1012.06C375.646 1011.47 375.646 1010.53 375.061 1009.94L365.515 1000.39C364.929 999.808 363.979 999.808 363.393 1000.39C362.808 1000.98 362.808 1001.93 363.393 1002.51L371.879 1011L363.393 1019.49C362.808 1020.07 362.808 1021.02 363.393 1021.61C363.979 1022.19 364.929 1022.19 365.515 1021.61L375.061 1012.06ZM200 1011L198.5 1011L198.5 1012.5L200 1012.5L200 1011ZM198.5 909L198.5 1011L201.5 1011L201.5 909L198.5 909ZM200 1012.5L374 1012.5L374 1009.5L200 1009.5L200 1012.5Z" fill="#3884FF"/>
<path d="M280 826.5C279.172 826.5 278.5 827.172 278.5 828C278.5 828.828 279.172 829.5 280 829.5V826.5ZM376.061 829.061C376.646 828.475 376.646 827.525 376.061 826.939L366.515 817.393C365.929 816.808 364.979 816.808 364.393 817.393C363.808 817.979 363.808 818.929 364.393 819.515L372.879 828L364.393 836.485C363.808 837.071 363.808 838.021 364.393 838.607C364.979 839.192 365.929 839.192 366.515 838.607L376.061 829.061ZM280 829.5H375V826.5H280V829.5Z" fill="#3884FF"/>
<path d="M280 590.5C279.172 590.5 278.5 591.172 278.5 592C278.5 592.828 279.172 593.5 280 593.5V590.5ZM376.061 593.061C376.646 592.475 376.646 591.525 376.061 590.939L366.515 581.393C365.929 580.808 364.979 580.808 364.393 581.393C363.808 581.979 363.808 582.929 364.393 583.515L372.879 592L364.393 600.485C363.808 601.071 363.808 602.021 364.393 602.607C364.979 603.192 365.929 603.192 366.515 602.607L376.061 593.061ZM280 593.5H375V590.5H280V593.5Z" fill="#3884FF"/>
<rect x="200" y="277" width="112" height="112" rx="10" transform="rotate(45 200 277)" fill="white"/>
<path d="M159.544 351H162.115V344.366C162.115 343.024 163.01 342.115 164.118 342.115C165.204 342.115 165.95 342.847 165.95 343.969V351H168.471V344.196C168.471 342.967 169.203 342.115 170.446 342.115C171.483 342.115 172.306 342.726 172.306 344.075V351H174.885V343.678C174.885 341.241 173.478 339.949 171.475 339.949C169.892 339.949 168.684 340.73 168.201 341.945H168.088C167.669 340.709 166.61 339.949 165.14 339.949C163.677 339.949 162.583 340.702 162.129 341.945H162.001V340.091H159.544V351ZM180.632 351.22C182.344 351.22 183.366 350.418 183.835 349.501H183.92V351H186.392V343.699C186.392 340.815 184.041 339.949 181.96 339.949C179.666 339.949 177.905 340.972 177.337 342.96L179.737 343.301C179.993 342.555 180.717 341.916 181.974 341.916C183.168 341.916 183.821 342.527 183.821 343.599V343.642C183.821 344.381 183.047 344.416 181.122 344.622C179.006 344.849 176.982 345.482 176.982 347.939C176.982 350.084 178.551 351.22 180.632 351.22ZM181.3 349.331C180.227 349.331 179.46 348.841 179.46 347.896C179.46 346.909 180.32 346.497 181.47 346.334C182.145 346.241 183.494 346.071 183.828 345.801V347.087C183.828 348.301 182.848 349.331 181.3 349.331ZM194.425 340.091H192.273V337.477H189.702V340.091H188.153V342.08H189.702V348.145C189.688 350.197 191.179 351.206 193.111 351.149C193.842 351.128 194.347 350.986 194.624 350.893L194.19 348.884C194.048 348.919 193.757 348.983 193.438 348.983C192.791 348.983 192.273 348.756 192.273 347.719V342.08H194.425V340.091ZM201.216 351.213C203.958 351.213 205.705 349.587 205.89 347.271H203.432C203.212 348.443 202.367 349.118 201.238 349.118C199.632 349.118 198.596 347.776 198.596 345.545C198.596 343.344 199.654 342.023 201.238 342.023C202.473 342.023 203.233 342.818 203.432 343.869H205.89C205.712 341.504 203.865 339.949 201.202 339.949C198.006 339.949 195.989 342.257 195.989 345.588C195.989 348.891 197.956 351.213 201.216 351.213ZM210.572 344.608C210.572 343.031 211.552 342.122 212.93 342.122C214.279 342.122 215.075 342.982 215.075 344.452V351H217.646V344.054C217.646 341.419 216.154 339.949 213.888 339.949C212.212 339.949 211.147 340.709 210.643 341.945H210.515V336.455H208.001V351H210.572V344.608ZM225.096 351.213C227.638 351.213 229.386 349.97 229.84 348.074L227.44 347.804C227.092 348.727 226.239 349.21 225.131 349.21C223.469 349.21 222.369 348.116 222.347 346.249H229.947V345.46C229.947 341.632 227.646 339.949 224.961 339.949C221.836 339.949 219.798 342.243 219.798 345.609C219.798 349.033 221.808 351.213 225.096 351.213ZM222.354 344.516C222.433 343.124 223.462 341.952 224.996 341.952C226.474 341.952 227.468 343.031 227.482 344.516H222.354ZM240.744 342.974C240.389 341.128 238.912 339.949 236.355 339.949C233.727 339.949 231.937 341.241 231.944 343.259C231.937 344.849 232.917 345.901 235.012 346.334L236.873 346.724C237.875 346.945 238.343 347.349 238.343 347.967C238.343 348.713 237.534 349.274 236.312 349.274C235.133 349.274 234.366 348.763 234.146 347.783L231.639 348.024C231.958 350.027 233.642 351.213 236.319 351.213C239.047 351.213 240.971 349.8 240.978 347.733C240.971 346.178 239.97 345.226 237.91 344.778L236.049 344.381C234.941 344.132 234.501 343.749 234.508 343.116C234.501 342.378 235.318 341.866 236.39 341.866C237.576 341.866 238.201 342.513 238.4 343.23L240.744 342.974ZM180.294 364.091H177.559L175.045 372.195H174.932L172.425 364.091H169.683L173.568 375H176.409L180.294 364.091ZM184.9 375.22C186.611 375.22 187.634 374.418 188.103 373.501H188.188V375H190.66V367.699C190.66 364.815 188.309 363.949 186.228 363.949C183.934 363.949 182.172 364.972 181.604 366.96L184.005 367.301C184.26 366.555 184.985 365.916 186.242 365.916C187.435 365.916 188.089 366.527 188.089 367.599V367.642C188.089 368.381 187.314 368.416 185.39 368.622C183.273 368.849 181.249 369.482 181.249 371.939C181.249 374.084 182.819 375.22 184.9 375.22ZM185.567 373.331C184.495 373.331 183.728 372.841 183.728 371.896C183.728 370.909 184.587 370.497 185.738 370.334C186.412 370.241 187.762 370.071 188.096 369.801V371.087C188.096 372.301 187.116 373.331 185.567 373.331ZM195.816 360.455H193.245V375H195.816V360.455ZM205.413 370.412C205.413 372.074 204.227 372.898 203.09 372.898C201.855 372.898 201.031 372.024 201.031 370.639V364.091H198.46V371.037C198.46 373.658 199.951 375.142 202.096 375.142C203.73 375.142 204.88 374.283 205.377 373.061H205.491V375H207.984V364.091H205.413V370.412ZM215.457 375.213C218 375.213 219.747 373.97 220.202 372.074L217.801 371.804C217.453 372.727 216.601 373.21 215.493 373.21C213.831 373.21 212.73 372.116 212.709 370.249H220.308V369.46C220.308 365.632 218.007 363.949 215.322 363.949C212.197 363.949 210.159 366.243 210.159 369.609C210.159 373.033 212.169 375.213 215.457 375.213ZM212.716 368.516C212.794 367.124 213.824 365.952 215.358 365.952C216.835 365.952 217.829 367.031 217.844 368.516H212.716ZM228.371 360.455H225.864L222.249 362.777V365.192L225.651 363.018H225.736V375H228.371V360.455ZM198.339 394.724H200.704V394.54C200.718 393.034 201.208 392.345 202.366 391.635C203.673 390.854 204.49 389.788 204.49 388.162C204.49 385.761 202.622 384.256 199.909 384.256C197.423 384.256 195.406 385.634 195.335 388.332H197.863C197.927 386.997 198.893 386.358 199.894 386.358C200.981 386.358 201.855 387.082 201.855 388.197C201.855 389.192 201.194 389.874 200.335 390.413C199.078 391.195 198.353 391.983 198.339 394.54V394.724ZM199.582 399.156C200.42 399.156 201.137 398.46 201.144 397.594C201.137 396.741 200.42 396.045 199.582 396.045C198.715 396.045 198.012 396.741 198.019 397.594C198.012 398.46 198.715 399.156 199.582 399.156Z" fill="black"/>
<rect x="200" y="513" width="112" height="112" rx="10" transform="rotate(45 200 513)" fill="white"/>
<path d="M159.544 583H162.115V576.366C162.115 575.024 163.01 574.115 164.118 574.115C165.204 574.115 165.95 574.847 165.95 575.969V583H168.471V576.196C168.471 574.967 169.203 574.115 170.446 574.115C171.483 574.115 172.306 574.726 172.306 576.075V583H174.885V575.678C174.885 573.241 173.478 571.949 171.475 571.949C169.892 571.949 168.684 572.73 168.201 573.945H168.088C167.669 572.709 166.61 571.949 165.14 571.949C163.677 571.949 162.583 572.702 162.129 573.945H162.001V572.091H159.544V583ZM180.632 583.22C182.344 583.22 183.366 582.418 183.835 581.501H183.92V583H186.392V575.699C186.392 572.815 184.041 571.949 181.96 571.949C179.666 571.949 177.905 572.972 177.337 574.96L179.737 575.301C179.993 574.555 180.717 573.916 181.974 573.916C183.168 573.916 183.821 574.527 183.821 575.599V575.642C183.821 576.381 183.047 576.416 181.122 576.622C179.006 576.849 176.982 577.482 176.982 579.939C176.982 582.084 178.551 583.22 180.632 583.22ZM181.3 581.331C180.227 581.331 179.46 580.841 179.46 579.896C179.46 578.909 180.32 578.497 181.47 578.334C182.145 578.241 183.494 578.071 183.828 577.801V579.087C183.828 580.301 182.848 581.331 181.3 581.331ZM194.425 572.091H192.273V569.477H189.702V572.091H188.153V574.08H189.702V580.145C189.688 582.197 191.179 583.206 193.111 583.149C193.842 583.128 194.347 582.986 194.624 582.893L194.19 580.884C194.048 580.919 193.757 580.983 193.438 580.983C192.791 580.983 192.273 580.756 192.273 579.719V574.08H194.425V572.091ZM201.216 583.213C203.958 583.213 205.705 581.587 205.89 579.271H203.432C203.212 580.443 202.367 581.118 201.238 581.118C199.632 581.118 198.596 579.776 198.596 577.545C198.596 575.344 199.654 574.023 201.238 574.023C202.473 574.023 203.233 574.818 203.432 575.869H205.89C205.712 573.504 203.865 571.949 201.202 571.949C198.006 571.949 195.989 574.257 195.989 577.588C195.989 580.891 197.956 583.213 201.216 583.213ZM210.572 576.608C210.572 575.031 211.552 574.122 212.93 574.122C214.279 574.122 215.075 574.982 215.075 576.452V583H217.646V576.054C217.646 573.419 216.154 571.949 213.888 571.949C212.212 571.949 211.147 572.709 210.643 573.945H210.515V568.455H208.001V583H210.572V576.608ZM225.096 583.213C227.638 583.213 229.386 581.97 229.84 580.074L227.44 579.804C227.092 580.727 226.239 581.21 225.131 581.21C223.469 581.21 222.369 580.116 222.347 578.249H229.947V577.46C229.947 573.632 227.646 571.949 224.961 571.949C221.836 571.949 219.798 574.243 219.798 577.609C219.798 581.033 221.808 583.213 225.096 583.213ZM222.354 576.516C222.433 575.124 223.462 573.952 224.996 573.952C226.474 573.952 227.468 575.031 227.482 576.516H222.354ZM240.744 574.974C240.389 573.128 238.912 571.949 236.355 571.949C233.727 571.949 231.937 573.241 231.944 575.259C231.937 576.849 232.917 577.901 235.012 578.334L236.873 578.724C237.875 578.945 238.343 579.349 238.343 579.967C238.343 580.713 237.534 581.274 236.312 581.274C235.133 581.274 234.366 580.763 234.146 579.783L231.639 580.024C231.958 582.027 233.642 583.213 236.319 583.213C239.047 583.213 240.971 581.8 240.978 579.733C240.971 578.178 239.97 577.226 237.91 576.778L236.049 576.381C234.941 576.132 234.501 575.749 234.508 575.116C234.501 574.378 235.318 573.866 236.39 573.866C237.576 573.866 238.201 574.513 238.4 575.23L240.744 574.974ZM178.888 596.091H176.153L173.639 604.195H173.525L171.018 596.091H168.277L172.162 607H175.003L178.888 596.091ZM183.493 607.22C185.205 607.22 186.228 606.418 186.697 605.501H186.782V607H189.253V599.699C189.253 596.815 186.903 595.949 184.822 595.949C182.528 595.949 180.766 596.972 180.198 598.96L182.599 599.301C182.854 598.555 183.579 597.916 184.836 597.916C186.029 597.916 186.682 598.527 186.682 599.599V599.642C186.682 600.381 185.908 600.416 183.983 600.622C181.867 600.849 179.843 601.482 179.843 603.939C179.843 606.084 181.412 607.22 183.493 607.22ZM184.161 605.331C183.089 605.331 182.322 604.841 182.322 603.896C182.322 602.909 183.181 602.497 184.331 602.334C185.006 602.241 186.356 602.071 186.689 601.801V603.087C186.689 604.301 185.709 605.331 184.161 605.331ZM194.41 592.455H191.839V607H194.41V592.455ZM204.007 602.412C204.007 604.074 202.82 604.898 201.684 604.898C200.448 604.898 199.624 604.024 199.624 602.639V596.091H197.053V603.037C197.053 605.658 198.545 607.142 200.69 607.142C202.323 607.142 203.474 606.283 203.971 605.061H204.085V607H206.578V596.091H204.007V602.412ZM214.051 607.213C216.594 607.213 218.341 605.97 218.795 604.074L216.395 603.804C216.047 604.727 215.194 605.21 214.086 605.21C212.425 605.21 211.324 604.116 211.302 602.249H218.902V601.46C218.902 597.632 216.601 595.949 213.916 595.949C210.791 595.949 208.753 598.243 208.753 601.609C208.753 605.033 210.763 607.213 214.051 607.213ZM211.309 600.516C211.388 599.124 212.417 597.952 213.952 597.952C215.429 597.952 216.423 599.031 216.437 600.516H211.309ZM221.048 607H231.02V604.798H224.685V604.699L227.192 602.149C230.019 599.436 230.8 598.115 230.8 596.474C230.8 594.038 228.818 592.256 225.892 592.256C223.009 592.256 220.963 594.045 220.963 596.808H223.47C223.47 595.324 224.408 594.393 225.857 594.393C227.242 594.393 228.271 595.239 228.271 596.609C228.271 597.824 227.533 598.69 226.098 600.146L221.048 605.097V607ZM198.339 626.724H200.704V626.54C200.718 625.034 201.208 624.345 202.366 623.635C203.673 622.854 204.49 621.788 204.49 620.162C204.49 617.761 202.622 616.256 199.909 616.256C197.423 616.256 195.406 617.634 195.335 620.332H197.863C197.927 618.997 198.893 618.358 199.894 618.358C200.981 618.358 201.855 619.082 201.855 620.197C201.855 621.192 201.194 621.874 200.335 622.413C199.078 623.195 198.353 623.983 198.339 626.54V626.724ZM199.582 631.156C200.42 631.156 201.137 630.46 201.144 629.594C201.137 628.741 200.42 628.045 199.582 628.045C198.715 628.045 198.012 628.741 198.019 629.594C198.012 630.46 198.715 631.156 199.582 631.156Z" fill="black"/>
<rect x="200" y="749" width="112" height="112" rx="10" transform="rotate(45 200 749)" fill="white"/>
<path d="M159.544 819H162.115V812.366C162.115 811.024 163.01 810.115 164.118 810.115C165.204 810.115 165.95 810.847 165.95 811.969V819H168.471V812.196C168.471 810.967 169.203 810.115 170.446 810.115C171.483 810.115 172.306 810.726 172.306 812.075V819H174.885V811.678C174.885 809.241 173.478 807.949 171.475 807.949C169.892 807.949 168.684 808.73 168.201 809.945H168.088C167.669 808.709 166.61 807.949 165.14 807.949C163.677 807.949 162.583 808.702 162.129 809.945H162.001V808.091H159.544V819ZM180.632 819.22C182.344 819.22 183.366 818.418 183.835 817.501H183.92V819H186.392V811.699C186.392 808.815 184.041 807.949 181.96 807.949C179.666 807.949 177.905 808.972 177.337 810.96L179.737 811.301C179.993 810.555 180.717 809.916 181.974 809.916C183.168 809.916 183.821 810.527 183.821 811.599V811.642C183.821 812.381 183.047 812.416 181.122 812.622C179.006 812.849 176.982 813.482 176.982 815.939C176.982 818.084 178.551 819.22 180.632 819.22ZM181.3 817.331C180.227 817.331 179.46 816.841 179.46 815.896C179.46 814.909 180.32 814.497 181.47 814.334C182.145 814.241 183.494 814.071 183.828 813.801V815.087C183.828 816.301 182.848 817.331 181.3 817.331ZM194.425 808.091H192.273V805.477H189.702V808.091H188.153V810.08H189.702V816.145C189.688 818.197 191.179 819.206 193.111 819.149C193.842 819.128 194.347 818.986 194.624 818.893L194.19 816.884C194.048 816.919 193.757 816.983 193.438 816.983C192.791 816.983 192.273 816.756 192.273 815.719V810.08H194.425V808.091ZM201.216 819.213C203.958 819.213 205.705 817.587 205.89 815.271H203.432C203.212 816.443 202.367 817.118 201.238 817.118C199.632 817.118 198.596 815.776 198.596 813.545C198.596 811.344 199.654 810.023 201.238 810.023C202.473 810.023 203.233 810.818 203.432 811.869H205.89C205.712 809.504 203.865 807.949 201.202 807.949C198.006 807.949 195.989 810.257 195.989 813.588C195.989 816.891 197.956 819.213 201.216 819.213ZM210.572 812.608C210.572 811.031 211.552 810.122 212.93 810.122C214.279 810.122 215.075 810.982 215.075 812.452V819H217.646V812.054C217.646 809.419 216.154 807.949 213.888 807.949C212.212 807.949 211.147 808.709 210.643 809.945H210.515V804.455H208.001V819H210.572V812.608ZM225.096 819.213C227.638 819.213 229.386 817.97 229.84 816.074L227.44 815.804C227.092 816.727 226.239 817.21 225.131 817.21C223.469 817.21 222.369 816.116 222.347 814.249H229.947V813.46C229.947 809.632 227.646 807.949 224.961 807.949C221.836 807.949 219.798 810.243 219.798 813.609C219.798 817.033 221.808 819.213 225.096 819.213ZM222.354 812.516C222.433 811.124 223.462 809.952 224.996 809.952C226.474 809.952 227.468 811.031 227.482 812.516H222.354ZM240.744 810.974C240.389 809.128 238.912 807.949 236.355 807.949C233.727 807.949 231.937 809.241 231.944 811.259C231.937 812.849 232.917 813.901 235.012 814.334L236.873 814.724C237.875 814.945 238.343 815.349 238.343 815.967C238.343 816.713 237.534 817.274 236.312 817.274C235.133 817.274 234.366 816.763 234.146 815.783L231.639 816.024C231.958 818.027 233.642 819.213 236.319 819.213C239.047 819.213 240.971 817.8 240.978 815.733C240.971 814.178 239.97 813.226 237.91 812.778L236.049 812.381C234.941 812.132 234.501 811.749 234.508 811.116C234.501 810.378 235.318 809.866 236.39 809.866C237.576 809.866 238.201 810.513 238.4 811.23L240.744 810.974ZM178.585 832.091H175.85L173.336 840.195H173.223L170.716 832.091H167.974L171.859 843H174.7L178.585 832.091ZM183.191 843.22C184.902 843.22 185.925 842.418 186.394 841.501H186.479V843H188.951V835.699C188.951 832.815 186.6 831.949 184.519 831.949C182.225 831.949 180.463 832.972 179.895 834.96L182.296 835.301C182.551 834.555 183.276 833.916 184.533 833.916C185.726 833.916 186.38 834.527 186.38 835.599V835.642C186.38 836.381 185.605 836.416 183.681 836.622C181.564 836.849 179.54 837.482 179.54 839.939C179.54 842.084 181.11 843.22 183.191 843.22ZM183.858 841.331C182.786 841.331 182.019 840.841 182.019 839.896C182.019 838.909 182.878 838.497 184.029 838.334C184.703 838.241 186.053 838.071 186.387 837.801V839.087C186.387 840.301 185.407 841.331 183.858 841.331ZM194.107 828.455H191.536V843H194.107V828.455ZM203.704 838.412C203.704 840.074 202.518 840.898 201.381 840.898C200.146 840.898 199.322 840.024 199.322 838.639V832.091H196.751V839.037C196.751 841.658 198.242 843.142 200.387 843.142C202.021 843.142 203.171 842.283 203.668 841.061H203.782V843H206.275V832.091H203.704V838.412ZM213.748 843.213C216.291 843.213 218.038 841.97 218.493 840.074L216.092 839.804C215.744 840.727 214.892 841.21 213.784 841.21C212.122 841.21 211.021 840.116 211 838.249H218.599V837.46C218.599 833.632 216.298 831.949 213.613 831.949C210.488 831.949 208.45 834.243 208.45 837.609C208.45 841.033 210.46 843.213 213.748 843.213ZM211.007 836.516C211.085 835.124 212.115 833.952 213.649 833.952C215.126 833.952 216.12 835.031 216.135 836.516H211.007ZM225.966 843.199C229.077 843.199 231.342 841.416 231.335 838.959C231.342 837.141 230.206 835.834 228.168 835.543V835.429C229.744 835.088 230.803 833.916 230.795 832.283C230.803 830.067 228.913 828.256 226.009 828.256C223.182 828.256 220.994 829.939 220.938 832.375H223.473C223.516 831.153 224.652 830.393 225.994 830.393C227.351 830.393 228.253 831.217 228.246 832.439C228.253 833.71 227.202 834.555 225.696 834.555H224.411V836.587H225.696C227.536 836.587 228.629 837.51 228.622 838.824C228.629 840.109 227.514 840.99 225.959 840.99C224.496 840.99 223.366 840.23 223.303 839.044H220.632C220.703 841.501 222.898 843.199 225.966 843.199ZM198.339 862.724H200.704V862.54C200.718 861.034 201.208 860.345 202.366 859.635C203.673 858.854 204.49 857.788 204.49 856.162C204.49 853.761 202.622 852.256 199.909 852.256C197.423 852.256 195.406 853.634 195.335 856.332H197.863C197.927 854.997 198.893 854.358 199.894 854.358C200.981 854.358 201.855 855.082 201.855 856.197C201.855 857.192 201.194 857.874 200.335 858.413C199.078 859.195 198.353 859.983 198.339 862.54V862.724ZM199.582 867.156C200.42 867.156 201.137 866.46 201.144 865.594C201.137 864.741 200.42 864.045 199.582 864.045C198.715 864.045 198.012 864.741 198.019 865.594C198.012 866.46 198.715 867.156 199.582 867.156Z" fill="black"/>
<path d="M280 354.5C279.172 354.5 278.5 355.172 278.5 356C278.5 356.828 279.172 357.5 280 357.5V354.5ZM376.061 357.061C376.646 356.475 376.646 355.525 376.061 354.939L366.515 345.393C365.929 344.808 364.979 344.808 364.393 345.393C363.808 345.979 363.808 346.929 364.393 347.515L372.879 356L364.393 364.485C363.808 365.071 363.808 366.021 364.393 366.607C364.979 367.192 365.929 367.192 366.515 366.607L376.061 357.061ZM280 357.5H375V354.5H280V357.5Z" fill="#3884FF"/>
<path fill-rule="evenodd" clip-rule="evenodd" d="M695.5 361.5V363L695.5 587.14C699.201 587.842 702 591.094 702 595C702 598.906 699.201 602.158 695.5 602.86V820.14C699.201 820.842 702 824.094 702 828C702 831.906 699.201 835.158 695.5 835.86L695.5 1001.4C698.694 1002.45 701 1005.45 701 1009C701 1012.55 698.694 1015.55 695.5 1016.6L695.5 1128.38L702.485 1121.39C703.071 1120.81 704.021 1120.81 704.607 1121.39C705.192 1121.98 705.192 1122.93 704.607 1123.51L695.061 1133.06C694.475 1133.65 693.525 1133.65 692.939 1133.06L683.393 1123.51C682.808 1122.93 682.808 1121.98 683.393 1121.39C683.979 1120.81 684.929 1120.81 685.515 1121.39L692.5 1128.38L692.5 1016.98C688.819 1016.76 685.812 1014.04 685.14 1010.5H645.75H599.5C598.672 1010.5 598 1009.83 598 1009C598 1008.17 598.672 1007.5 599.5 1007.5H645.75H685.14C685.812 1003.96 688.819 1001.24 692.5 1001.02L692.5 835.86C689.285 835.25 686.75 832.715 686.14 829.5H598C597.172 829.5 596.5 828.828 596.5 828C596.5 827.172 597.172 826.5 598 826.5H686.14C686.75 823.285 689.285 820.75 692.5 820.14V602.86C689.453 602.282 687.018 599.976 686.252 597H598C597.172 597 596.5 596.328 596.5 595.5C596.5 594.672 597.172 594 598 594H686.062C686.492 590.55 689.12 587.782 692.5 587.14L692.5 364.5L594 364.5C593.171 364.5 592.5 363.828 592.5 363C592.5 362.171 593.171 361.5 594 361.5L694 361.5L695.5 361.5Z" fill="#3884FF"/>
<path d="M143.381 185.256C146.432 185.256 148.528 183.764 149.074 181.489L146.193 181.165C145.776 182.273 144.753 182.852 143.423 182.852C141.429 182.852 140.108 181.54 140.082 179.298H149.202V178.352C149.202 173.759 146.44 171.739 143.219 171.739C139.469 171.739 137.023 174.491 137.023 178.531C137.023 182.639 139.435 185.256 143.381 185.256ZM140.091 177.219C140.185 175.548 141.42 174.142 143.261 174.142C145.034 174.142 146.227 175.438 146.244 177.219H140.091ZM154.077 171.909H150.804L154.69 178.455L150.702 185H153.974L156.719 180.287L159.489 185H162.736L158.722 178.455L162.668 171.909H159.403L156.719 176.741L154.077 171.909ZM165.054 189.909H168.139V182.938H168.267C168.753 183.892 169.767 185.23 172.017 185.23C175.102 185.23 177.412 182.784 177.412 178.472C177.412 174.108 175.034 171.739 172.009 171.739C169.699 171.739 168.736 173.128 168.267 174.074H168.088V171.909H165.054V189.909ZM168.08 178.455C168.08 175.915 169.17 174.27 171.156 174.27C173.21 174.27 174.267 176.017 174.267 178.455C174.267 180.909 173.193 182.699 171.156 182.699C169.188 182.699 168.08 180.994 168.08 178.455ZM180.054 185H183.139V177.304C183.139 175.642 184.392 174.466 186.088 174.466C186.608 174.466 187.256 174.56 187.52 174.645V171.807C187.239 171.756 186.753 171.722 186.412 171.722C184.912 171.722 183.659 172.574 183.182 174.091H183.045V171.909H180.054V185ZM194.826 185.256C197.877 185.256 199.974 183.764 200.519 181.489L197.638 181.165C197.221 182.273 196.198 182.852 194.869 182.852C192.874 182.852 191.553 181.54 191.528 179.298H200.647V178.352C200.647 173.759 197.886 171.739 194.664 171.739C190.914 171.739 188.468 174.491 188.468 178.531C188.468 182.639 190.88 185.256 194.826 185.256ZM191.536 177.219C191.63 175.548 192.866 174.142 194.707 174.142C196.479 174.142 197.673 175.438 197.69 177.219H191.536ZM213.604 175.369C213.178 173.153 211.405 171.739 208.337 171.739C205.183 171.739 203.036 173.29 203.044 175.71C203.036 177.619 204.212 178.881 206.726 179.401L208.959 179.869C210.161 180.134 210.723 180.619 210.723 181.361C210.723 182.256 209.751 182.929 208.286 182.929C206.871 182.929 205.95 182.315 205.686 181.139L202.678 181.429C203.061 183.832 205.081 185.256 208.294 185.256C211.567 185.256 213.876 183.56 213.885 181.08C213.876 179.213 212.675 178.071 210.203 177.534L207.97 177.057C206.641 176.759 206.112 176.298 206.121 175.54C206.112 174.653 207.092 174.04 208.379 174.04C209.803 174.04 210.553 174.815 210.791 175.676L213.604 175.369ZM226.776 175.369C226.349 173.153 224.577 171.739 221.509 171.739C218.355 171.739 216.207 173.29 216.216 175.71C216.207 177.619 217.384 178.881 219.898 179.401L222.131 179.869C223.332 180.134 223.895 180.619 223.895 181.361C223.895 182.256 222.923 182.929 221.457 182.929C220.043 182.929 219.122 182.315 218.858 181.139L215.849 181.429C216.233 183.832 218.253 185.256 221.466 185.256C224.739 185.256 227.048 183.56 227.057 181.08C227.048 179.213 225.847 178.071 223.375 177.534L221.142 177.057C219.812 176.759 219.284 176.298 219.293 175.54C219.284 174.653 220.264 174.04 221.551 174.04C222.974 174.04 223.724 174.815 223.963 175.676L226.776 175.369ZM229.601 185H232.686V171.909H229.601V185ZM231.152 170.051C232.132 170.051 232.933 169.301 232.933 168.381C232.933 167.452 232.132 166.702 231.152 166.702C230.163 166.702 229.362 167.452 229.362 168.381C229.362 169.301 230.163 170.051 231.152 170.051ZM241.569 185.256C245.404 185.256 247.842 182.554 247.842 178.506C247.842 174.449 245.404 171.739 241.569 171.739C237.734 171.739 235.296 174.449 235.296 178.506C235.296 182.554 237.734 185.256 241.569 185.256ZM241.586 182.784C239.464 182.784 238.424 180.892 238.424 178.497C238.424 176.102 239.464 174.185 241.586 174.185C243.674 174.185 244.714 176.102 244.714 178.497C244.714 180.892 243.674 182.784 241.586 182.784ZM253.545 177.33C253.545 175.438 254.688 174.347 256.315 174.347C257.909 174.347 258.864 175.395 258.864 177.142V185H261.949V176.665C261.957 173.528 260.168 171.739 257.466 171.739C255.506 171.739 254.159 172.676 253.562 174.134H253.409V171.909H250.46V185H253.545V177.33Z" fill="black"/>
<rect x="379" y="327" width="216" height="58" rx="5" fill="white"/>
<path d="M422.295 365.256C425.585 365.256 427.682 363.304 427.903 360.526H424.955C424.69 361.932 423.676 362.741 422.321 362.741C420.395 362.741 419.151 361.131 419.151 358.455C419.151 355.812 420.42 354.227 422.321 354.227C423.804 354.227 424.716 355.182 424.955 356.443H427.903C427.69 353.605 425.474 351.739 422.278 351.739C418.443 351.739 416.023 354.509 416.023 358.506C416.023 362.469 418.384 365.256 422.295 365.256ZM436.147 365.256C439.982 365.256 442.42 362.554 442.42 358.506C442.42 354.449 439.982 351.739 436.147 351.739C432.312 351.739 429.874 354.449 429.874 358.506C429.874 362.554 432.312 365.256 436.147 365.256ZM436.164 362.784C434.042 362.784 433.002 360.892 433.002 358.497C433.002 356.102 434.042 354.185 436.164 354.185C438.252 354.185 439.292 356.102 439.292 358.497C439.292 360.892 438.252 362.784 436.164 362.784ZM449.896 365.23C452.146 365.23 453.161 363.892 453.646 362.938H453.834V365H456.868V347.545H453.774V354.074H453.646C453.178 353.128 452.214 351.739 449.905 351.739C446.879 351.739 444.501 354.108 444.501 358.472C444.501 362.784 446.811 365.23 449.896 365.23ZM450.757 362.699C448.72 362.699 447.646 360.909 447.646 358.455C447.646 356.017 448.703 354.27 450.757 354.27C452.743 354.27 453.834 355.915 453.834 358.455C453.834 360.994 452.726 362.699 450.757 362.699ZM465.951 365.256C469.002 365.256 471.099 363.764 471.644 361.489L468.763 361.165C468.346 362.273 467.323 362.852 465.994 362.852C463.999 362.852 462.678 361.54 462.653 359.298H471.772V358.352C471.772 353.759 469.011 351.739 465.789 351.739C462.039 351.739 459.593 354.491 459.593 358.531C459.593 362.639 462.005 365.256 465.951 365.256ZM462.661 357.219C462.755 355.548 463.991 354.142 465.832 354.142C467.604 354.142 468.798 355.438 468.815 357.219H462.661ZM480.472 365H483.506V362.938H483.685C484.17 363.892 485.185 365.23 487.435 365.23C490.52 365.23 492.83 362.784 492.83 358.472C492.83 354.108 490.452 351.739 487.426 351.739C485.116 351.739 484.153 353.128 483.685 354.074H483.557V347.545H480.472V365ZM483.497 358.455C483.497 355.915 484.588 354.27 486.574 354.27C488.628 354.27 489.685 356.017 489.685 358.455C489.685 360.909 488.611 362.699 486.574 362.699C484.605 362.699 483.497 360.994 483.497 358.455ZM498.538 347.545H495.452V365H498.538V347.545ZM507.42 365.256C511.256 365.256 513.693 362.554 513.693 358.506C513.693 354.449 511.256 351.739 507.42 351.739C503.585 351.739 501.148 354.449 501.148 358.506C501.148 362.554 503.585 365.256 507.42 365.256ZM507.438 362.784C505.315 362.784 504.276 360.892 504.276 358.497C504.276 356.102 505.315 354.185 507.438 354.185C509.526 354.185 510.565 356.102 510.565 358.497C510.565 360.892 509.526 362.784 507.438 362.784ZM522.022 365.256C525.312 365.256 527.408 363.304 527.63 360.526H524.681C524.417 361.932 523.403 362.741 522.048 362.741C520.121 362.741 518.877 361.131 518.877 358.455C518.877 355.812 520.147 354.227 522.048 354.227C523.531 354.227 524.442 355.182 524.681 356.443H527.63C527.417 353.605 525.201 351.739 522.005 351.739C518.17 351.739 515.749 354.509 515.749 358.506C515.749 362.469 518.11 365.256 522.022 365.256ZM530.163 365H533.249V360.602L534.374 359.401L538.379 365H542.07L536.7 357.56L541.771 351.909H538.166L533.462 357.168H533.249V347.545H530.163V365ZM556.846 347.545H553.837L549.499 350.332V353.23L553.582 350.622H553.684V365H556.846V347.545Z" fill="black"/>
<path d="M670.401 1152.37C669.974 1150.15 668.202 1148.74 665.134 1148.74C661.98 1148.74 659.832 1150.29 659.841 1152.71C659.832 1154.62 661.009 1155.88 663.523 1156.4L665.756 1156.87C666.957 1157.13 667.52 1157.62 667.52 1158.36C667.52 1159.26 666.548 1159.93 665.082 1159.93C663.668 1159.93 662.747 1159.32 662.483 1158.14L659.474 1158.43C659.858 1160.83 661.878 1162.26 665.091 1162.26C668.364 1162.26 670.673 1160.56 670.682 1158.08C670.673 1156.21 669.472 1155.07 667 1154.53L664.767 1154.06C663.438 1153.76 662.909 1153.3 662.918 1152.54C662.909 1151.65 663.889 1151.04 665.176 1151.04C666.599 1151.04 667.349 1151.82 667.588 1152.68L670.401 1152.37ZM675.928 1162H679.149L681.604 1153.15H681.783L684.237 1162H687.45L691.158 1148.91H688.004L685.737 1158.06H685.609L683.257 1148.91H680.146L677.794 1158.11H677.675L675.374 1148.91H672.229L675.928 1162ZM693.312 1162H696.397V1148.91H693.312V1162ZM694.863 1147.05C695.843 1147.05 696.644 1146.3 696.644 1145.38C696.644 1144.45 695.843 1143.7 694.863 1143.7C693.874 1143.7 693.073 1144.45 693.073 1145.38C693.073 1146.3 693.874 1147.05 694.863 1147.05ZM706.107 1148.91H703.524V1145.77H700.439V1148.91H698.581V1151.3H700.439V1158.57C700.422 1161.04 702.212 1162.25 704.53 1162.18C705.408 1162.15 706.013 1161.98 706.345 1161.87L705.825 1159.46C705.655 1159.5 705.305 1159.58 704.922 1159.58C704.146 1159.58 703.524 1159.31 703.524 1158.06V1151.3H706.107V1148.91ZM714.256 1162.26C717.546 1162.26 719.643 1160.3 719.864 1157.53H716.915C716.651 1158.93 715.637 1159.74 714.282 1159.74C712.356 1159.74 711.112 1158.13 711.112 1155.45C711.112 1152.81 712.381 1151.23 714.282 1151.23C715.765 1151.23 716.677 1152.18 716.915 1153.44H719.864C719.651 1150.61 717.435 1148.74 714.239 1148.74C710.404 1148.74 707.984 1151.51 707.984 1155.51C707.984 1159.47 710.344 1162.26 714.256 1162.26ZM725.483 1154.33C725.483 1152.44 726.659 1151.35 728.312 1151.35C729.932 1151.35 730.886 1152.38 730.886 1154.14V1162H733.972V1153.66C733.972 1150.5 732.182 1148.74 729.463 1148.74C727.452 1148.74 726.173 1149.65 725.568 1151.13H725.415V1144.55H722.398V1162H725.483V1154.33ZM642.474 1177.91H639.891V1174.77H636.806V1177.91H634.948V1180.3H636.806V1187.57C636.789 1190.04 638.579 1191.25 640.897 1191.18C641.775 1191.15 642.38 1190.98 642.712 1190.87L642.192 1188.46C642.022 1188.5 641.673 1188.58 641.289 1188.58C640.513 1188.58 639.891 1188.31 639.891 1187.06V1180.3H642.474V1177.91ZM650.709 1191.26C653.76 1191.26 655.857 1189.76 656.402 1187.49L653.521 1187.16C653.104 1188.27 652.081 1188.85 650.751 1188.85C648.757 1188.85 647.436 1187.54 647.411 1185.3H656.53V1184.35C656.53 1179.76 653.768 1177.74 650.547 1177.74C646.797 1177.74 644.351 1180.49 644.351 1184.53C644.351 1188.64 646.763 1191.26 650.709 1191.26ZM647.419 1183.22C647.513 1181.55 648.749 1180.14 650.589 1180.14C652.362 1180.14 653.555 1181.44 653.572 1183.22H647.419ZM659.14 1191H662.225V1183.3C662.225 1181.64 663.478 1180.47 665.174 1180.47C665.694 1180.47 666.342 1180.56 666.606 1180.64V1177.81C666.325 1177.76 665.839 1177.72 665.498 1177.72C663.998 1177.72 662.745 1178.57 662.268 1180.09H662.131V1177.91H659.14V1191ZM668.656 1191H671.741V1183.04C671.741 1181.43 672.815 1180.34 674.144 1180.34C675.448 1180.34 676.343 1181.22 676.343 1182.56V1191H679.369V1182.84C679.369 1181.36 680.246 1180.34 681.738 1180.34C682.982 1180.34 683.971 1181.07 683.971 1182.69V1191H687.065V1182.21C687.065 1179.29 685.377 1177.74 682.974 1177.74C681.073 1177.74 679.624 1178.68 679.045 1180.13H678.908C678.406 1178.65 677.136 1177.74 675.371 1177.74C673.616 1177.74 672.303 1178.64 671.758 1180.13H671.604V1177.91H668.656V1191ZM690.195 1191H693.28V1177.91H690.195V1191ZM691.746 1176.05C692.726 1176.05 693.527 1175.3 693.527 1174.38C693.527 1173.45 692.726 1172.7 691.746 1172.7C690.757 1172.7 689.956 1173.45 689.956 1174.38C689.956 1175.3 690.757 1176.05 691.746 1176.05ZM699.538 1183.33C699.538 1181.44 700.68 1180.35 702.308 1180.35C703.901 1180.35 704.856 1181.39 704.856 1183.14V1191H707.941V1182.66C707.95 1179.53 706.16 1177.74 703.458 1177.74C701.498 1177.74 700.151 1178.68 699.555 1180.13H699.401V1177.91H696.452V1191H699.538V1183.33ZM714.844 1191.26C716.898 1191.26 718.126 1190.3 718.688 1189.2H718.79V1191H721.756V1182.24C721.756 1178.78 718.935 1177.74 716.438 1177.74C713.685 1177.74 711.572 1178.97 710.89 1181.35L713.771 1181.76C714.077 1180.87 714.947 1180.1 716.455 1180.1C717.887 1180.1 718.671 1180.83 718.671 1182.12V1182.17C718.671 1183.06 717.742 1183.1 715.433 1183.35C712.893 1183.62 710.464 1184.38 710.464 1187.33C710.464 1189.9 712.347 1191.26 714.844 1191.26ZM715.646 1189C714.359 1189 713.438 1188.41 713.438 1187.28C713.438 1186.09 714.469 1185.6 715.85 1185.4C716.66 1185.29 718.279 1185.09 718.68 1184.76V1186.3C718.68 1187.76 717.504 1189 715.646 1189ZM731.396 1177.91H728.813V1174.77H725.728V1177.91H723.87V1180.3H725.728V1187.57C725.711 1190.04 727.501 1191.25 729.819 1191.18C730.697 1191.15 731.302 1190.98 731.634 1190.87L731.114 1188.46C730.944 1188.5 730.594 1188.58 730.211 1188.58C729.435 1188.58 728.813 1188.31 728.813 1187.06V1180.3H731.396V1177.91ZM739.631 1191.26C742.682 1191.26 744.778 1189.76 745.324 1187.49L742.443 1187.16C742.026 1188.27 741.003 1188.85 739.673 1188.85C737.679 1188.85 736.358 1187.54 736.332 1185.3H745.452V1184.35C745.452 1179.76 742.69 1177.74 739.469 1177.74C735.719 1177.74 733.273 1180.49 733.273 1184.53C733.273 1188.64 735.685 1191.26 739.631 1191.26ZM736.341 1183.22C736.435 1181.55 737.67 1180.14 739.511 1180.14C741.284 1180.14 742.477 1181.44 742.494 1183.22H736.341ZM758.408 1181.37C757.982 1179.15 756.21 1177.74 753.141 1177.74C749.988 1177.74 747.84 1179.29 747.849 1181.71C747.84 1183.62 749.016 1184.88 751.531 1185.4L753.763 1185.87C754.965 1186.13 755.528 1186.62 755.528 1187.36C755.528 1188.26 754.556 1188.93 753.09 1188.93C751.675 1188.93 750.755 1188.32 750.491 1187.14L747.482 1187.43C747.866 1189.83 749.886 1191.26 753.099 1191.26C756.371 1191.26 758.681 1189.56 758.69 1187.08C758.681 1185.21 757.479 1184.07 755.008 1183.53L752.775 1183.06C751.445 1182.76 750.917 1182.3 750.925 1181.54C750.917 1180.65 751.897 1180.04 753.184 1180.04C754.607 1180.04 755.357 1180.82 755.596 1181.68L758.408 1181.37Z" fill="black"/>
<path d="M328.37 982.545H325.225V994.443H325.072L316.856 982.545H314.026V1000H317.188V988.111H317.333L325.558 1000H328.37V982.545ZM337.389 1000.26C341.224 1000.26 343.662 997.554 343.662 993.506C343.662 989.449 341.224 986.739 337.389 986.739C333.554 986.739 331.116 989.449 331.116 993.506C331.116 997.554 333.554 1000.26 337.389 1000.26ZM337.406 997.784C335.284 997.784 334.244 995.892 334.244 993.497C334.244 991.102 335.284 989.185 337.406 989.185C339.494 989.185 340.534 991.102 340.534 993.497C340.534 995.892 339.494 997.784 337.406 997.784Z" fill="black"/>
<path d="M312.599 798.545L318.948 809.489V816H322.102V809.489L328.451 798.545H324.88L320.61 806.267H320.44L316.17 798.545H312.599ZM333.912 816.256C336.963 816.256 339.06 814.764 339.605 812.489L336.724 812.165C336.307 813.273 335.284 813.852 333.955 813.852C331.96 813.852 330.639 812.54 330.614 810.298H339.733V809.352C339.733 804.759 336.972 802.739 333.75 802.739C330 802.739 327.554 805.491 327.554 809.531C327.554 813.639 329.966 816.256 333.912 816.256ZM330.622 808.219C330.716 806.548 331.952 805.142 333.793 805.142C335.565 805.142 336.759 806.438 336.776 808.219H330.622ZM352.69 806.369C352.263 804.153 350.491 802.739 347.423 802.739C344.269 802.739 342.121 804.29 342.13 806.71C342.121 808.619 343.298 809.881 345.812 810.401L348.045 810.869C349.246 811.134 349.809 811.619 349.809 812.361C349.809 813.256 348.837 813.929 347.371 813.929C345.957 813.929 345.036 813.315 344.772 812.139L341.763 812.429C342.147 814.832 344.167 816.256 347.38 816.256C350.653 816.256 352.962 814.56 352.971 812.08C352.962 810.213 351.761 809.071 349.289 808.534L347.056 808.057C345.727 807.759 345.198 807.298 345.207 806.54C345.198 805.653 346.178 805.04 347.465 805.04C348.888 805.04 349.638 805.815 349.877 806.676L352.69 806.369Z" fill="black"/>
<path d="M308.599 559.545L314.948 570.489V577H318.102V570.489L324.451 559.545H320.88L316.61 567.267H316.44L312.17 559.545H308.599ZM329.912 577.256C332.963 577.256 335.06 575.764 335.605 573.489L332.724 573.165C332.307 574.273 331.284 574.852 329.955 574.852C327.96 574.852 326.639 573.54 326.614 571.298H335.733V570.352C335.733 565.759 332.972 563.739 329.75 563.739C326 563.739 323.554 566.491 323.554 570.531C323.554 574.639 325.966 577.256 329.912 577.256ZM326.622 569.219C326.716 567.548 327.952 566.142 329.793 566.142C331.565 566.142 332.759 567.438 332.776 569.219H326.622ZM348.69 567.369C348.263 565.153 346.491 563.739 343.423 563.739C340.269 563.739 338.121 565.29 338.13 567.71C338.121 569.619 339.298 570.881 341.812 571.401L344.045 571.869C345.246 572.134 345.809 572.619 345.809 573.361C345.809 574.256 344.837 574.929 343.371 574.929C341.957 574.929 341.036 574.315 340.772 573.139L337.763 573.429C338.147 575.832 340.167 577.256 343.38 577.256C346.653 577.256 348.962 575.56 348.971 573.08C348.962 571.213 347.761 570.071 345.289 569.534L343.056 569.057C341.727 568.759 341.198 568.298 341.207 567.54C341.198 566.653 342.178 566.04 343.465 566.04C344.888 566.04 345.638 566.815 345.877 567.676L348.69 567.369Z" fill="black"/>
<path d="M307.599 324.545L313.948 335.489V342H317.102V335.489L323.451 324.545H319.88L315.61 332.267H315.44L311.17 324.545H307.599ZM328.912 342.256C331.963 342.256 334.06 340.764 334.605 338.489L331.724 338.165C331.307 339.273 330.284 339.852 328.955 339.852C326.96 339.852 325.639 338.54 325.614 336.298H334.733V335.352C334.733 330.759 331.972 328.739 328.75 328.739C325 328.739 322.554 331.491 322.554 335.531C322.554 339.639 324.966 342.256 328.912 342.256ZM325.622 334.219C325.716 332.548 326.952 331.142 328.793 331.142C330.565 331.142 331.759 332.438 331.776 334.219H325.622ZM347.69 332.369C347.263 330.153 345.491 328.739 342.423 328.739C339.269 328.739 337.121 330.29 337.13 332.71C337.121 334.619 338.298 335.881 340.812 336.401L343.045 336.869C344.246 337.134 344.809 337.619 344.809 338.361C344.809 339.256 343.837 339.929 342.371 339.929C340.957 339.929 340.036 339.315 339.772 338.139L336.763 338.429C337.147 340.832 339.167 342.256 342.38 342.256C345.653 342.256 347.962 340.56 347.971 338.08C347.962 336.213 346.761 335.071 344.289 334.534L342.056 334.057C340.727 333.759 340.198 333.298 340.207 332.54C340.198 331.653 341.178 331.04 342.465 331.04C343.888 331.04 344.638 331.815 344.877 332.676L347.69 332.369Z" fill="black"/>
<path d="M225.37 461.545H222.225V473.443H222.072L213.856 461.545H211.026V479H214.188V467.111H214.333L222.558 479H225.37V461.545ZM234.389 479.256C238.224 479.256 240.662 476.554 240.662 472.506C240.662 468.449 238.224 465.739 234.389 465.739C230.554 465.739 228.116 468.449 228.116 472.506C228.116 476.554 230.554 479.256 234.389 479.256ZM234.406 476.784C232.284 476.784 231.244 474.892 231.244 472.497C231.244 470.102 232.284 468.185 234.406 468.185C236.494 468.185 237.534 470.102 237.534 472.497C237.534 474.892 236.494 476.784 234.406 476.784Z" fill="black"/>
<path d="M225.37 697.545H222.225V709.443H222.072L213.856 697.545H211.026V715H214.188V703.111H214.333L222.558 715H225.37V697.545ZM234.389 715.256C238.224 715.256 240.662 712.554 240.662 708.506C240.662 704.449 238.224 701.739 234.389 701.739C230.554 701.739 228.116 704.449 228.116 708.506C228.116 712.554 230.554 715.256 234.389 715.256ZM234.406 712.784C232.284 712.784 231.244 710.892 231.244 708.497C231.244 706.102 232.284 704.185 234.406 704.185C236.494 704.185 237.534 706.102 237.534 708.497C237.534 710.892 236.494 712.784 234.406 712.784Z" fill="black"/>
<rect x="379" y="563" width="216" height="58" rx="5" fill="white"/>
<path d="M420.295 601.256C423.585 601.256 425.682 599.304 425.903 596.526H422.955C422.69 597.932 421.676 598.741 420.321 598.741C418.395 598.741 417.151 597.131 417.151 594.455C417.151 591.812 418.42 590.227 420.321 590.227C421.804 590.227 422.716 591.182 422.955 592.443H425.903C425.69 589.605 423.474 587.739 420.278 587.739C416.443 587.739 414.023 590.509 414.023 594.506C414.023 598.469 416.384 601.256 420.295 601.256ZM434.147 601.256C437.982 601.256 440.42 598.554 440.42 594.506C440.42 590.449 437.982 587.739 434.147 587.739C430.312 587.739 427.874 590.449 427.874 594.506C427.874 598.554 430.312 601.256 434.147 601.256ZM434.164 598.784C432.042 598.784 431.002 596.892 431.002 594.497C431.002 592.102 432.042 590.185 434.164 590.185C436.252 590.185 437.292 592.102 437.292 594.497C437.292 596.892 436.252 598.784 434.164 598.784ZM447.896 601.23C450.146 601.23 451.161 599.892 451.646 598.938H451.834V601H454.868V583.545H451.774V590.074H451.646C451.178 589.128 450.214 587.739 447.905 587.739C444.879 587.739 442.501 590.108 442.501 594.472C442.501 598.784 444.811 601.23 447.896 601.23ZM448.757 598.699C446.72 598.699 445.646 596.909 445.646 594.455C445.646 592.017 446.703 590.27 448.757 590.27C450.743 590.27 451.834 591.915 451.834 594.455C451.834 596.994 450.726 598.699 448.757 598.699ZM463.951 601.256C467.002 601.256 469.099 599.764 469.644 597.489L466.763 597.165C466.346 598.273 465.323 598.852 463.994 598.852C461.999 598.852 460.678 597.54 460.653 595.298H469.772V594.352C469.772 589.759 467.011 587.739 463.789 587.739C460.039 587.739 457.593 590.491 457.593 594.531C457.593 598.639 460.005 601.256 463.951 601.256ZM460.661 593.219C460.755 591.548 461.991 590.142 463.832 590.142C465.604 590.142 466.798 591.438 466.815 593.219H460.661ZM478.472 601H481.506V598.938H481.685C482.17 599.892 483.185 601.23 485.435 601.23C488.52 601.23 490.83 598.784 490.83 594.472C490.83 590.108 488.452 587.739 485.426 587.739C483.116 587.739 482.153 589.128 481.685 590.074H481.557V583.545H478.472V601ZM481.497 594.455C481.497 591.915 482.588 590.27 484.574 590.27C486.628 590.27 487.685 592.017 487.685 594.455C487.685 596.909 486.611 598.699 484.574 598.699C482.605 598.699 481.497 596.994 481.497 594.455ZM496.538 583.545H493.452V601H496.538V583.545ZM505.42 601.256C509.256 601.256 511.693 598.554 511.693 594.506C511.693 590.449 509.256 587.739 505.42 587.739C501.585 587.739 499.148 590.449 499.148 594.506C499.148 598.554 501.585 601.256 505.42 601.256ZM505.438 598.784C503.315 598.784 502.276 596.892 502.276 594.497C502.276 592.102 503.315 590.185 505.438 590.185C507.526 590.185 508.565 592.102 508.565 594.497C508.565 596.892 507.526 598.784 505.438 598.784ZM520.022 601.256C523.312 601.256 525.408 599.304 525.63 596.526H522.681C522.417 597.932 521.403 598.741 520.048 598.741C518.121 598.741 516.877 597.131 516.877 594.455C516.877 591.812 518.147 590.227 520.048 590.227C521.531 590.227 522.442 591.182 522.681 592.443H525.63C525.417 589.605 523.201 587.739 520.005 587.739C516.17 587.739 513.749 590.509 513.749 594.506C513.749 598.469 516.11 601.256 520.022 601.256ZM528.163 601H531.249V596.602L532.374 595.401L536.379 601H540.07L534.7 593.56L539.771 587.909H536.166L531.462 593.168H531.249V583.545H528.163V601ZM547.746 601H559.712V598.358H552.11V598.239L555.119 595.179C558.511 591.923 559.448 590.338 559.448 588.369C559.448 585.446 557.07 583.307 553.559 583.307C550.099 583.307 547.644 585.455 547.644 588.77H550.653C550.653 586.989 551.778 585.872 553.516 585.872C555.178 585.872 556.414 586.886 556.414 588.531C556.414 589.989 555.528 591.028 553.806 592.776L547.746 598.716V601Z" fill="black"/>
<rect x="379" y="799" width="216" height="58" rx="5" fill="white"/>
<path d="M420.295 837.256C423.585 837.256 425.682 835.304 425.903 832.526H422.955C422.69 833.932 421.676 834.741 420.321 834.741C418.395 834.741 417.151 833.131 417.151 830.455C417.151 827.812 418.42 826.227 420.321 826.227C421.804 826.227 422.716 827.182 422.955 828.443H425.903C425.69 825.605 423.474 823.739 420.278 823.739C416.443 823.739 414.023 826.509 414.023 830.506C414.023 834.469 416.384 837.256 420.295 837.256ZM434.147 837.256C437.982 837.256 440.42 834.554 440.42 830.506C440.42 826.449 437.982 823.739 434.147 823.739C430.312 823.739 427.874 826.449 427.874 830.506C427.874 834.554 430.312 837.256 434.147 837.256ZM434.164 834.784C432.042 834.784 431.002 832.892 431.002 830.497C431.002 828.102 432.042 826.185 434.164 826.185C436.252 826.185 437.292 828.102 437.292 830.497C437.292 832.892 436.252 834.784 434.164 834.784ZM447.896 837.23C450.146 837.23 451.161 835.892 451.646 834.938H451.834V837H454.868V819.545H451.774V826.074H451.646C451.178 825.128 450.214 823.739 447.905 823.739C444.879 823.739 442.501 826.108 442.501 830.472C442.501 834.784 444.811 837.23 447.896 837.23ZM448.757 834.699C446.72 834.699 445.646 832.909 445.646 830.455C445.646 828.017 446.703 826.27 448.757 826.27C450.743 826.27 451.834 827.915 451.834 830.455C451.834 832.994 450.726 834.699 448.757 834.699ZM463.951 837.256C467.002 837.256 469.099 835.764 469.644 833.489L466.763 833.165C466.346 834.273 465.323 834.852 463.994 834.852C461.999 834.852 460.678 833.54 460.653 831.298H469.772V830.352C469.772 825.759 467.011 823.739 463.789 823.739C460.039 823.739 457.593 826.491 457.593 830.531C457.593 834.639 460.005 837.256 463.951 837.256ZM460.661 829.219C460.755 827.548 461.991 826.142 463.832 826.142C465.604 826.142 466.798 827.438 466.815 829.219H460.661ZM478.472 837H481.506V834.938H481.685C482.17 835.892 483.185 837.23 485.435 837.23C488.52 837.23 490.83 834.784 490.83 830.472C490.83 826.108 488.452 823.739 485.426 823.739C483.116 823.739 482.153 825.128 481.685 826.074H481.557V819.545H478.472V837ZM481.497 830.455C481.497 827.915 482.588 826.27 484.574 826.27C486.628 826.27 487.685 828.017 487.685 830.455C487.685 832.909 486.611 834.699 484.574 834.699C482.605 834.699 481.497 832.994 481.497 830.455ZM496.538 819.545H493.452V837H496.538V819.545ZM505.42 837.256C509.256 837.256 511.693 834.554 511.693 830.506C511.693 826.449 509.256 823.739 505.42 823.739C501.585 823.739 499.148 826.449 499.148 830.506C499.148 834.554 501.585 837.256 505.42 837.256ZM505.438 834.784C503.315 834.784 502.276 832.892 502.276 830.497C502.276 828.102 503.315 826.185 505.438 826.185C507.526 826.185 508.565 828.102 508.565 830.497C508.565 832.892 507.526 834.784 505.438 834.784ZM520.022 837.256C523.312 837.256 525.408 835.304 525.63 832.526H522.681C522.417 833.932 521.403 834.741 520.048 834.741C518.121 834.741 516.877 833.131 516.877 830.455C516.877 827.812 518.147 826.227 520.048 826.227C521.531 826.227 522.442 827.182 522.681 828.443H525.63C525.417 825.605 523.201 823.739 520.005 823.739C516.17 823.739 513.749 826.509 513.749 830.506C513.749 834.469 516.11 837.256 520.022 837.256ZM528.163 837H531.249V832.602L532.374 831.401L536.379 837H540.07L534.7 829.56L539.771 823.909H536.166L531.462 829.168H531.249V819.545H528.163V837ZM554.011 837.239C557.744 837.239 560.462 835.099 560.454 832.151C560.462 829.969 559.099 828.401 556.653 828.051V827.915C558.545 827.506 559.815 826.099 559.806 824.139C559.815 821.48 557.548 819.307 554.062 819.307C550.67 819.307 548.045 821.327 547.977 824.25H551.019C551.07 822.784 552.434 821.872 554.045 821.872C555.673 821.872 556.755 822.861 556.746 824.327C556.755 825.852 555.494 826.866 553.687 826.866H552.144V829.304H553.687C555.894 829.304 557.207 830.412 557.198 831.989C557.207 833.531 555.869 834.588 554.002 834.588C552.246 834.588 550.891 833.676 550.815 832.253H547.61C547.695 835.202 550.329 837.239 554.011 837.239Z" fill="black"/>
<rect x="379" y="980" width="216" height="58" rx="5" fill="white"/>
<path d="M420.443 1018.23C422.693 1018.23 423.707 1016.89 424.193 1015.94H424.381V1018H427.415V1000.55H424.321V1007.07H424.193C423.724 1006.13 422.761 1004.74 420.452 1004.74C417.426 1004.74 415.048 1007.11 415.048 1011.47C415.048 1015.78 417.358 1018.23 420.443 1018.23ZM421.304 1015.7C419.267 1015.7 418.193 1013.91 418.193 1011.45C418.193 1009.02 419.25 1007.27 421.304 1007.27C423.29 1007.27 424.381 1008.91 424.381 1011.45C424.381 1013.99 423.273 1015.7 421.304 1015.7ZM436.498 1018.26C439.549 1018.26 441.646 1016.76 442.191 1014.49L439.31 1014.16C438.893 1015.27 437.87 1015.85 436.54 1015.85C434.546 1015.85 433.225 1014.54 433.2 1012.3H442.319V1011.35C442.319 1006.76 439.558 1004.74 436.336 1004.74C432.586 1004.74 430.14 1007.49 430.14 1011.53C430.14 1015.64 432.552 1018.26 436.498 1018.26ZM433.208 1010.22C433.302 1008.55 434.538 1007.14 436.379 1007.14C438.151 1007.14 439.344 1008.44 439.362 1010.22H433.208ZM451.56 1004.91H448.841V1003.88C448.841 1002.86 449.267 1002.28 450.418 1002.28C450.903 1002.28 451.312 1002.39 451.568 1002.47L452.19 1000.09C451.79 999.949 450.912 999.727 449.847 999.727C447.571 999.727 445.756 1001.03 445.756 1003.67V1004.91H443.821V1007.3H445.756V1018H448.841V1007.3H451.56V1004.91ZM457.298 1018.26C459.352 1018.26 460.579 1017.3 461.141 1016.2H461.244V1018H464.21V1009.24C464.21 1005.78 461.388 1004.74 458.891 1004.74C456.138 1004.74 454.025 1005.97 453.343 1008.35L456.224 1008.76C456.531 1007.87 457.4 1007.1 458.908 1007.1C460.34 1007.1 461.124 1007.83 461.124 1009.12V1009.17C461.124 1010.06 460.195 1010.1 457.886 1010.35C455.346 1010.62 452.917 1011.38 452.917 1014.33C452.917 1016.9 454.8 1018.26 457.298 1018.26ZM458.099 1016C456.812 1016 455.891 1015.41 455.891 1014.28C455.891 1013.09 456.923 1012.6 458.303 1012.4C459.113 1012.29 460.732 1012.09 461.133 1011.76V1013.3C461.133 1014.76 459.957 1016 458.099 1016ZM475.656 1012.49C475.656 1014.49 474.232 1015.48 472.869 1015.48C471.386 1015.48 470.397 1014.43 470.397 1012.77V1004.91H467.312V1013.24C467.312 1016.39 469.102 1018.17 471.675 1018.17C473.636 1018.17 475.016 1017.14 475.613 1015.67H475.749V1018H478.741V1004.91H475.656V1012.49ZM484.999 1000.55H481.913V1018H484.999V1000.55ZM494.708 1004.91H492.126V1001.77H489.04V1004.91H487.183V1007.3H489.04V1014.57C489.023 1017.04 490.813 1018.25 493.131 1018.18C494.009 1018.15 494.614 1017.98 494.947 1017.87L494.427 1015.46C494.256 1015.5 493.907 1015.58 493.523 1015.58C492.748 1015.58 492.126 1015.31 492.126 1014.06V1007.3H494.708V1004.91ZM508.952 1018.26C512.241 1018.26 514.338 1016.3 514.56 1013.53H511.611C511.347 1014.93 510.332 1015.74 508.977 1015.74C507.051 1015.74 505.807 1014.13 505.807 1011.45C505.807 1008.81 507.077 1007.23 508.977 1007.23C510.46 1007.23 511.372 1008.18 511.611 1009.44H514.56C514.347 1006.61 512.131 1004.74 508.935 1004.74C505.099 1004.74 502.679 1007.51 502.679 1011.51C502.679 1015.47 505.04 1018.26 508.952 1018.26ZM522.803 1018.26C526.638 1018.26 529.076 1015.55 529.076 1011.51C529.076 1007.45 526.638 1004.74 522.803 1004.74C518.968 1004.74 516.531 1007.45 516.531 1011.51C516.531 1015.55 518.968 1018.26 522.803 1018.26ZM522.82 1015.78C520.698 1015.78 519.658 1013.89 519.658 1011.5C519.658 1009.1 520.698 1007.18 522.82 1007.18C524.908 1007.18 525.948 1009.1 525.948 1011.5C525.948 1013.89 524.908 1015.78 522.82 1015.78ZM536.553 1018.23C538.803 1018.23 539.817 1016.89 540.303 1015.94H540.49V1018H543.524V1000.55H540.43V1007.07H540.303C539.834 1006.13 538.871 1004.74 536.561 1004.74C533.536 1004.74 531.158 1007.11 531.158 1011.47C531.158 1015.78 533.467 1018.23 536.553 1018.23ZM537.413 1015.7C535.376 1015.7 534.303 1013.91 534.303 1011.45C534.303 1009.02 535.359 1007.27 537.413 1007.27C539.399 1007.27 540.49 1008.91 540.49 1011.45C540.49 1013.99 539.382 1015.7 537.413 1015.7ZM552.607 1018.26C555.658 1018.26 557.755 1016.76 558.3 1014.49L555.42 1014.16C555.002 1015.27 553.979 1015.85 552.65 1015.85C550.656 1015.85 549.335 1014.54 549.309 1012.3H558.428V1011.35C558.428 1006.76 555.667 1004.74 552.445 1004.74C548.695 1004.74 546.249 1007.49 546.249 1011.53C546.249 1015.64 548.661 1018.26 552.607 1018.26ZM549.317 1010.22C549.411 1008.55 550.647 1007.14 552.488 1007.14C554.261 1007.14 555.454 1008.44 555.471 1010.22H549.317Z" fill="black"/>
<defs>
<linearGradient id="paint0_linear_906_260" x1="0" y1="0" x2="1172.82" y2="789.29" gradientUnits="userSpaceOnUse">
<stop stop-color="#38BDF8"/>
<stop offset="1" stop-color="#6366F1"/>
</linearGradient>
</defs>
</svg>
