<svg width="876" height="1307" viewBox="0 0 876 1307" fill="none" xmlns="http://www.w3.org/2000/svg">
<rect width="876" height="1307" rx="14" fill="url(#paint0_linear_1085_424)"/>
<path d="M48 68.218C48 60.3656 54.3656 54 62.218 54H811.782C819.634 54 826 60.3656 826 68.218V1239.78C826 1247.63 819.634 1254 811.782 1254H62.218C54.3656 1254 48 1247.63 48 1239.78V68.218Z" fill="#E9E9E9"/>
<path d="M98.0728 1216.37H100.521V1214.1H98.0728V1216.37ZM95.9473 1229.94H97.1184C99.1126 1229.94 100.521 1228.53 100.521 1226.55V1217.58H98.0728V1226.36C98.0728 1227.23 97.6045 1227.69 96.7351 1227.69H95.9438V1229.94H95.9473ZM110.233 1217.58L109.981 1218.44C109.158 1217.71 108.097 1217.32 107.001 1217.33C104.286 1217.33 102.26 1219.38 102.26 1222.12C102.26 1224.86 104.282 1226.93 107.001 1226.93C108.154 1226.93 109.158 1226.53 109.932 1225.84L110.148 1226.66H112.057V1217.58H110.233ZM107.199 1224.61C106.872 1224.62 106.546 1224.56 106.242 1224.44C105.938 1224.31 105.663 1224.13 105.432 1223.9C105.202 1223.66 105.021 1223.39 104.902 1223.08C104.782 1222.78 104.726 1222.45 104.737 1222.12C104.724 1221.8 104.78 1221.47 104.899 1221.16C105.018 1220.86 105.198 1220.58 105.429 1220.35C105.66 1220.11 105.936 1219.93 106.24 1219.81C106.545 1219.68 106.871 1219.62 107.199 1219.63C107.527 1219.62 107.854 1219.68 108.158 1219.81C108.463 1219.93 108.739 1220.11 108.97 1220.35C109.201 1220.58 109.381 1220.86 109.5 1221.16C109.619 1221.47 109.674 1221.8 109.662 1222.12C109.674 1222.45 109.618 1222.78 109.499 1223.08C109.38 1223.39 109.199 1223.67 108.968 1223.9C108.738 1224.13 108.462 1224.32 108.158 1224.44C107.853 1224.56 107.527 1224.62 107.199 1224.61ZM120.357 1217.58L118.178 1223.67L115.967 1217.58H113.352L117.039 1226.66H119.299L122.883 1217.58H120.353H120.357ZM131.25 1217.58L130.998 1218.44C130.175 1217.71 129.114 1217.32 128.018 1217.33C125.303 1217.33 123.277 1219.38 123.277 1222.12C123.277 1224.86 125.303 1226.93 128.018 1226.93C129.171 1226.93 130.179 1226.53 130.949 1225.84L131.165 1226.66H133.074V1217.58H131.25ZM128.216 1224.61C127.889 1224.62 127.563 1224.56 127.259 1224.44C126.956 1224.31 126.68 1224.13 126.449 1223.9C126.219 1223.66 126.038 1223.39 125.919 1223.08C125.799 1222.78 125.743 1222.45 125.754 1222.12C125.742 1221.8 125.797 1221.47 125.916 1221.16C126.035 1220.86 126.215 1220.58 126.446 1220.35C126.677 1220.11 126.953 1219.93 127.257 1219.81C127.562 1219.68 127.888 1219.62 128.216 1219.63C128.545 1219.62 128.871 1219.68 129.176 1219.81C129.48 1219.93 129.756 1220.11 129.987 1220.35C130.218 1220.58 130.398 1220.86 130.517 1221.16C130.636 1221.47 130.691 1221.8 130.679 1222.12C130.691 1222.45 130.635 1222.78 130.516 1223.08C130.397 1223.39 130.216 1223.67 129.986 1223.9C129.755 1224.13 129.479 1224.32 129.175 1224.44C128.871 1224.56 128.544 1224.62 128.216 1224.61ZM135.444 1216.37H137.872V1214.1H135.444V1216.37ZM135.444 1226.66H137.889V1217.58H135.441V1226.67L135.444 1226.66ZM143.435 1226.93C145.731 1226.93 147.236 1225.72 147.236 1223.87C147.236 1221.65 145.345 1221.35 143.872 1221.08C142.932 1220.91 142.161 1220.76 142.161 1220.16C142.161 1219.63 142.616 1219.3 143.368 1219.3C144.22 1219.3 144.723 1219.65 144.741 1220.37H147.069C147.051 1218.55 145.614 1217.33 143.435 1217.33C141.257 1217.33 139.802 1218.52 139.802 1220.24C139.802 1222.38 141.643 1222.76 143.084 1223.01C144.039 1223.17 144.823 1223.35 144.823 1223.97C144.823 1224.58 144.205 1224.9 143.535 1224.9C142.665 1224.9 142.045 1224.49 142.027 1223.69H139.649C139.649 1225.62 141.175 1226.93 143.435 1226.93ZM153.374 1224.48C152.47 1224.48 151.969 1223.97 151.969 1223.09V1219.56H154.432V1217.58H151.934V1215.23H151.465L147.899 1219.03V1219.56H149.524V1223.44C149.524 1225.44 150.745 1226.66 152.739 1226.66H154.478V1224.48H153.378H153.374ZM156.149 1216.37H158.58V1214.1H156.149V1216.37ZM156.149 1226.66H158.598V1217.58H156.149V1226.67V1226.66ZM165.148 1226.93C167.508 1226.93 169.367 1225.38 169.786 1223.1H167.323C166.904 1224.07 166.134 1224.61 165.148 1224.61C163.839 1224.61 162.82 1223.52 162.82 1222.12C162.82 1220.71 163.825 1219.63 165.148 1219.63C165.612 1219.63 166.068 1219.76 166.456 1220.01C166.844 1220.27 167.146 1220.64 167.323 1221.06H169.754C169.317 1218.82 167.508 1217.33 165.162 1217.33C162.416 1217.33 160.336 1219.38 160.336 1222.11C160.336 1224.83 162.416 1226.93 165.148 1226.93Z" fill="#C1C1C1"/>
<path d="M80.9719 1208.39L90.6056 1213.94C91.0446 1214.2 91.4092 1214.56 91.6628 1215C91.9162 1215.44 92.05 1215.94 92.0506 1216.44V1227.55C92.0506 1228.59 91.5025 1229.54 90.6056 1230.06L80.9719 1235.61C80.5321 1235.87 80.0331 1236 79.5253 1236C79.0174 1236 78.5184 1235.87 78.0786 1235.61L68.4449 1230.06C68.0054 1229.8 67.6405 1229.44 67.3869 1229C67.1333 1228.56 66.9999 1228.06 67 1227.55V1216.44C67 1215.41 67.5516 1214.46 68.4449 1213.94L78.0786 1208.39C78.5184 1208.13 79.0174 1208 79.5253 1208C80.0331 1208 80.5321 1208.13 80.9719 1208.39ZM85.4738 1216.77L80.762 1214.05C80.3229 1213.8 79.8253 1213.67 79.3189 1213.67C78.8124 1213.67 78.3147 1213.8 77.8757 1214.05L73.1639 1216.77C72.7237 1217.02 72.3582 1217.38 72.1039 1217.82C71.8496 1218.26 71.7157 1218.76 71.7154 1219.27V1224.68C71.7154 1225.71 72.267 1226.67 73.1639 1227.18L77.8757 1229.9C78.3147 1230.15 78.8124 1230.28 79.3189 1230.28C79.8253 1230.28 80.3229 1230.15 80.762 1229.9L85.4738 1227.18C85.914 1226.93 86.2795 1226.57 86.5337 1226.13C86.7881 1225.69 86.9221 1225.19 86.9223 1224.68V1219.27C86.9223 1218.24 86.3671 1217.28 85.4738 1216.77Z" fill="#C1C1C1"/>
<path d="M79.6204 1225.66C81.6615 1225.66 83.3161 1224.01 83.3161 1221.97C83.3161 1219.94 81.6615 1218.29 79.6204 1218.29C77.5794 1218.29 75.9248 1219.94 75.9248 1221.97C75.9248 1224.01 77.5794 1225.66 79.6204 1225.66Z" fill="#C1C1C1"/>
<path d="M474.612 1117V1095.18H478.564V1113.69H488.174V1117H474.612ZM498.571 1117.32C496.973 1117.32 495.589 1116.97 494.417 1116.26C493.245 1115.56 492.336 1114.58 491.689 1113.31C491.05 1112.05 490.731 1110.57 490.731 1108.88C490.731 1107.19 491.05 1105.71 491.689 1104.44C492.336 1103.17 493.245 1102.18 494.417 1101.48C495.589 1100.77 496.973 1100.42 498.571 1100.42C500.169 1100.42 501.554 1100.77 502.726 1101.48C503.898 1102.18 504.804 1103.17 505.443 1104.44C506.089 1105.71 506.412 1107.19 506.412 1108.88C506.412 1110.57 506.089 1112.05 505.443 1113.31C504.804 1114.58 503.898 1115.56 502.726 1116.26C501.554 1116.97 500.169 1117.32 498.571 1117.32ZM498.593 1114.23C499.459 1114.23 500.184 1113.99 500.766 1113.52C501.348 1113.03 501.782 1112.39 502.066 1111.58C502.357 1110.77 502.503 1109.87 502.503 1108.87C502.503 1107.87 502.357 1106.96 502.066 1106.15C501.782 1105.34 501.348 1104.69 500.766 1104.21C500.184 1103.72 499.459 1103.48 498.593 1103.48C497.705 1103.48 496.966 1103.72 496.377 1104.21C495.794 1104.69 495.358 1105.34 495.066 1106.15C494.782 1106.96 494.64 1107.87 494.64 1108.87C494.64 1109.87 494.782 1110.77 495.066 1111.58C495.358 1112.39 495.794 1113.03 496.377 1113.52C496.966 1113.99 497.705 1114.23 498.593 1114.23ZM516.823 1117.32C515.225 1117.32 513.84 1116.97 512.669 1116.26C511.497 1115.56 510.588 1114.58 509.941 1113.31C509.302 1112.05 508.983 1110.57 508.983 1108.88C508.983 1107.19 509.302 1105.71 509.941 1104.44C510.588 1103.17 511.497 1102.18 512.669 1101.48C513.84 1100.77 515.225 1100.42 516.823 1100.42C518.421 1100.42 519.806 1100.77 520.978 1101.48C522.15 1102.18 523.056 1103.17 523.695 1104.44C524.341 1105.71 524.664 1107.19 524.664 1108.88C524.664 1110.57 524.341 1112.05 523.695 1113.31C523.056 1114.58 522.15 1115.56 520.978 1116.26C519.806 1116.97 518.421 1117.32 516.823 1117.32ZM516.845 1114.23C517.711 1114.23 518.436 1113.99 519.018 1113.52C519.6 1113.03 520.034 1112.39 520.318 1111.58C520.609 1110.77 520.755 1109.87 520.755 1108.87C520.755 1107.87 520.609 1106.96 520.318 1106.15C520.034 1105.34 519.6 1104.69 519.018 1104.21C518.436 1103.72 517.711 1103.48 516.845 1103.48C515.957 1103.48 515.218 1103.72 514.629 1104.21C514.046 1104.69 513.61 1105.34 513.318 1106.15C513.034 1106.96 512.892 1107.87 512.892 1108.87C512.892 1109.87 513.034 1110.77 513.318 1111.58C513.61 1112.39 514.046 1113.03 514.629 1113.52C515.218 1113.99 515.957 1114.23 516.845 1114.23ZM527.938 1123.14V1100.64H531.73V1103.34H531.954C532.153 1102.94 532.433 1102.52 532.796 1102.07C533.158 1101.62 533.648 1101.23 534.266 1100.91C534.884 1100.59 535.672 1100.42 536.631 1100.42C537.895 1100.42 539.035 1100.75 540.051 1101.39C541.073 1102.03 541.883 1102.98 542.479 1104.24C543.083 1105.49 543.385 1107.02 543.385 1108.84C543.385 1110.64 543.09 1112.16 542.501 1113.42C541.911 1114.68 541.109 1115.64 540.093 1116.3C539.078 1116.96 537.927 1117.29 536.641 1117.29C535.704 1117.29 534.926 1117.13 534.308 1116.82C533.69 1116.51 533.193 1116.13 532.817 1115.69C532.448 1115.24 532.16 1114.82 531.954 1114.42H531.794V1123.14H527.938ZM531.72 1108.82C531.72 1109.88 531.869 1110.8 532.167 1111.6C532.472 1112.39 532.909 1113.02 533.477 1113.46C534.053 1113.9 534.749 1114.12 535.565 1114.12C536.418 1114.12 537.131 1113.9 537.707 1113.44C538.282 1112.98 538.715 1112.35 539.006 1111.56C539.305 1110.75 539.454 1109.84 539.454 1108.82C539.454 1107.8 539.308 1106.9 539.017 1106.11C538.726 1105.32 538.293 1104.71 537.717 1104.26C537.142 1103.81 536.425 1103.59 535.565 1103.59C534.742 1103.59 534.042 1103.8 533.467 1104.24C532.891 1104.67 532.455 1105.28 532.156 1106.06C531.865 1106.84 531.72 1107.76 531.72 1108.82ZM553.341 1098.5V1095.18H570.748V1098.5H564.005V1117H560.084V1098.5H553.341ZM578.805 1117.32C577.164 1117.32 575.747 1116.98 574.554 1116.3C573.368 1115.61 572.456 1114.63 571.816 1113.38C571.177 1112.11 570.858 1110.63 570.858 1108.91C570.858 1107.23 571.177 1105.75 571.816 1104.48C572.463 1103.2 573.365 1102.21 574.522 1101.5C575.68 1100.78 577.04 1100.42 578.603 1100.42C579.611 1100.42 580.563 1100.59 581.458 1100.91C582.36 1101.23 583.155 1101.73 583.844 1102.4C584.54 1103.08 585.087 1103.94 585.485 1104.98C585.882 1106.02 586.081 1107.26 586.081 1108.69V1109.87H572.669V1107.27H582.384C582.377 1106.53 582.218 1105.88 581.905 1105.3C581.593 1104.72 581.156 1104.26 580.595 1103.93C580.041 1103.59 579.394 1103.43 578.656 1103.43C577.867 1103.43 577.175 1103.62 576.578 1104C575.982 1104.38 575.517 1104.88 575.183 1105.49C574.856 1106.11 574.689 1106.78 574.682 1107.51V1109.78C574.682 1110.73 574.856 1111.55 575.204 1112.23C575.552 1112.9 576.039 1113.42 576.664 1113.78C577.289 1114.14 578.02 1114.32 578.858 1114.32C579.419 1114.32 579.927 1114.24 580.382 1114.08C580.836 1113.92 581.23 1113.68 581.564 1113.37C581.898 1113.05 582.15 1112.67 582.321 1112.21L585.921 1112.61C585.694 1113.56 585.261 1114.39 584.622 1115.1C583.99 1115.81 583.18 1116.35 582.193 1116.74C581.206 1117.13 580.076 1117.32 578.805 1117.32ZM589.344 1117V1100.64H593.083V1103.36H593.254C593.552 1102.42 594.063 1101.69 594.788 1101.18C595.519 1100.66 596.354 1100.4 597.291 1100.4C597.504 1100.4 597.742 1100.41 598.005 1100.43C598.275 1100.45 598.499 1100.47 598.676 1100.51V1104.06C598.513 1104 598.254 1103.95 597.899 1103.91C597.551 1103.86 597.213 1103.83 596.886 1103.83C596.183 1103.83 595.551 1103.99 594.99 1104.29C594.436 1104.59 593.999 1105 593.68 1105.54C593.36 1106.07 593.2 1106.68 593.2 1107.38V1117H589.344ZM601.238 1117V1100.64H604.924V1103.42H605.116C605.457 1102.48 606.022 1101.75 606.81 1101.22C607.598 1100.69 608.54 1100.42 609.633 1100.42C610.741 1100.42 611.675 1100.69 612.435 1101.23C613.202 1101.77 613.742 1102.49 614.054 1103.42H614.225C614.587 1102.51 615.198 1101.78 616.057 1101.24C616.924 1100.7 617.95 1100.42 619.136 1100.42C620.642 1100.42 621.87 1100.9 622.822 1101.85C623.774 1102.8 624.25 1104.19 624.25 1106.02V1117H620.383V1106.61C620.383 1105.6 620.113 1104.86 619.573 1104.39C619.033 1103.91 618.373 1103.67 617.591 1103.67C616.661 1103.67 615.933 1103.96 615.407 1104.55C614.889 1105.12 614.63 1105.87 614.63 1106.79V1117H610.848V1106.45C610.848 1105.61 610.592 1104.93 610.081 1104.43C609.576 1103.92 608.916 1103.67 608.099 1103.67C607.545 1103.67 607.041 1103.81 606.586 1104.1C606.132 1104.38 605.77 1104.77 605.5 1105.28C605.23 1105.79 605.095 1106.37 605.095 1107.05V1117H601.238ZM628.162 1117V1100.64H632.019V1117H628.162ZM630.101 1098.31C629.49 1098.31 628.965 1098.11 628.524 1097.71C628.084 1097.29 627.864 1096.8 627.864 1096.23C627.864 1095.64 628.084 1095.15 628.524 1094.75C628.965 1094.33 629.49 1094.13 630.101 1094.13C630.719 1094.13 631.245 1094.33 631.678 1094.75C632.118 1095.15 632.338 1095.64 632.338 1096.23C632.338 1096.8 632.118 1097.29 631.678 1097.71C631.245 1098.11 630.719 1098.31 630.101 1098.31ZM639.841 1107.41V1117H635.984V1100.64H639.671V1103.42H639.862C640.239 1102.5 640.839 1101.77 641.663 1101.23C642.494 1100.69 643.52 1100.42 644.742 1100.42C645.871 1100.42 646.854 1100.66 647.693 1101.15C648.538 1101.63 649.191 1102.33 649.653 1103.25C650.122 1104.16 650.352 1105.27 650.345 1106.58V1117H646.489V1107.18C646.489 1106.08 646.205 1105.23 645.636 1104.61C645.075 1103.99 644.298 1103.68 643.303 1103.68C642.629 1103.68 642.028 1103.83 641.503 1104.13C640.984 1104.42 640.576 1104.84 640.278 1105.4C639.987 1105.95 639.841 1106.62 639.841 1107.41ZM658.975 1117.33C657.938 1117.33 657.004 1117.15 656.173 1116.78C655.349 1116.4 654.695 1115.85 654.212 1115.11C653.737 1114.38 653.499 1113.48 653.499 1112.41C653.499 1111.49 653.669 1110.72 654.01 1110.12C654.351 1109.51 654.816 1109.03 655.406 1108.67C655.995 1108.31 656.659 1108.03 657.398 1107.85C658.144 1107.66 658.914 1107.52 659.71 1107.43C660.668 1107.33 661.446 1107.25 662.043 1107.17C662.639 1107.08 663.073 1106.95 663.342 1106.78C663.619 1106.61 663.758 1106.33 663.758 1105.96V1105.9C663.758 1105.1 663.52 1104.48 663.044 1104.03C662.568 1103.59 661.883 1103.37 660.988 1103.37C660.043 1103.37 659.294 1103.58 658.74 1103.99C658.193 1104.4 657.824 1104.89 657.632 1105.45L654.031 1104.94C654.315 1103.95 654.784 1103.12 655.438 1102.45C656.091 1101.77 656.89 1101.27 657.835 1100.93C658.779 1100.59 659.823 1100.42 660.967 1100.42C661.755 1100.42 662.54 1100.52 663.321 1100.7C664.102 1100.88 664.816 1101.19 665.462 1101.62C666.109 1102.04 666.627 1102.61 667.018 1103.33C667.416 1104.06 667.614 1104.96 667.614 1106.05V1117H663.907V1114.75H663.779C663.545 1115.21 663.215 1115.63 662.788 1116.03C662.369 1116.42 661.84 1116.74 661.201 1116.98C660.569 1117.21 659.827 1117.33 658.975 1117.33ZM659.976 1114.5C660.75 1114.5 661.421 1114.34 661.989 1114.04C662.558 1113.73 662.994 1113.31 663.3 1112.8C663.612 1112.29 663.769 1111.73 663.769 1111.13V1109.2C663.648 1109.3 663.442 1109.39 663.151 1109.48C662.867 1109.56 662.547 1109.64 662.192 1109.7C661.837 1109.77 661.485 1109.82 661.137 1109.87C660.789 1109.92 660.487 1109.97 660.232 1110C659.656 1110.08 659.141 1110.21 658.687 1110.38C658.232 1110.56 657.874 1110.81 657.611 1111.13C657.348 1111.44 657.217 1111.85 657.217 1112.34C657.217 1113.05 657.476 1113.59 657.994 1113.95C658.513 1114.32 659.173 1114.5 659.976 1114.5ZM679.663 1100.64V1103.62H670.256V1100.64H679.663ZM672.579 1096.72H676.435V1112.08C676.435 1112.6 676.514 1112.99 676.67 1113.27C676.833 1113.54 677.046 1113.73 677.309 1113.83C677.572 1113.92 677.863 1113.97 678.183 1113.97C678.424 1113.97 678.644 1113.96 678.843 1113.92C679.049 1113.89 679.205 1113.85 679.312 1113.83L679.962 1116.84C679.756 1116.91 679.461 1116.99 679.078 1117.07C678.701 1117.16 678.239 1117.21 677.693 1117.22C676.727 1117.25 675.857 1117.11 675.082 1116.79C674.308 1116.46 673.694 1115.96 673.239 1115.27C672.792 1114.59 672.572 1113.74 672.579 1112.72V1096.72ZM689.957 1117.32C688.317 1117.32 686.9 1116.98 685.707 1116.3C684.521 1115.61 683.608 1114.63 682.969 1113.38C682.329 1112.11 682.01 1110.63 682.01 1108.91C682.01 1107.23 682.329 1105.75 682.969 1104.48C683.615 1103.2 684.517 1102.21 685.675 1101.5C686.832 1100.78 688.192 1100.42 689.755 1100.42C690.763 1100.42 691.715 1100.59 692.61 1100.91C693.512 1101.23 694.307 1101.73 694.996 1102.4C695.692 1103.08 696.239 1103.94 696.637 1104.98C697.035 1106.02 697.234 1107.26 697.234 1108.69V1109.87H683.821V1107.27H693.537C693.53 1106.53 693.37 1105.88 693.057 1105.3C692.745 1104.72 692.308 1104.26 691.747 1103.93C691.193 1103.59 690.547 1103.43 689.808 1103.43C689.02 1103.43 688.327 1103.62 687.731 1104C687.134 1104.38 686.669 1104.88 686.335 1105.49C686.008 1106.11 685.842 1106.78 685.834 1107.51V1109.78C685.834 1110.73 686.008 1111.55 686.356 1112.23C686.704 1112.9 687.191 1113.42 687.816 1113.78C688.441 1114.14 689.172 1114.32 690.011 1114.32C690.572 1114.32 691.079 1114.24 691.534 1114.08C691.989 1113.92 692.383 1113.68 692.717 1113.37C693.05 1113.05 693.302 1112.67 693.473 1112.21L697.074 1112.61C696.847 1113.56 696.413 1114.39 695.774 1115.1C695.142 1115.81 694.332 1116.35 693.345 1116.74C692.358 1117.13 691.229 1117.32 689.957 1117.32ZM713.429 1104.96L709.914 1105.35C709.814 1104.99 709.64 1104.66 709.392 1104.34C709.15 1104.03 708.824 1103.78 708.412 1103.59C708 1103.4 707.495 1103.3 706.899 1103.3C706.096 1103.3 705.422 1103.47 704.875 1103.82C704.335 1104.17 704.069 1104.62 704.076 1105.17C704.069 1105.65 704.243 1106.04 704.598 1106.34C704.96 1106.63 705.557 1106.88 706.388 1107.07L709.179 1107.67C710.727 1108 711.878 1108.53 712.63 1109.25C713.39 1109.98 713.774 1110.93 713.781 1112.1C713.774 1113.13 713.472 1114.04 712.875 1114.83C712.286 1115.61 711.466 1116.22 710.415 1116.66C709.363 1117.1 708.156 1117.32 706.792 1117.32C704.79 1117.32 703.177 1116.9 701.956 1116.06C700.734 1115.22 700.006 1114.04 699.772 1112.54L703.532 1112.17C703.703 1112.91 704.065 1113.47 704.619 1113.85C705.173 1114.22 705.894 1114.41 706.782 1114.41C707.698 1114.41 708.433 1114.22 708.987 1113.85C709.548 1113.47 709.829 1113 709.829 1112.45C709.829 1111.98 709.647 1111.6 709.285 1111.29C708.93 1110.98 708.376 1110.75 707.623 1110.59L704.832 1110C703.263 1109.67 702.101 1109.12 701.348 1108.35C700.596 1107.57 700.223 1106.58 700.23 1105.39C700.223 1104.38 700.496 1103.51 701.05 1102.77C701.611 1102.02 702.389 1101.45 703.383 1101.04C704.385 1100.63 705.539 1100.42 706.846 1100.42C708.763 1100.42 710.272 1100.83 711.373 1101.65C712.481 1102.47 713.167 1103.57 713.429 1104.96Z" fill="black"/>
<path d="M480.613 628.636V631.619H471.206V628.636H480.613ZM473.528 624.716H477.385V640.078C477.385 640.597 477.463 640.994 477.619 641.271C477.782 641.541 477.995 641.726 478.258 641.825C478.521 641.925 478.812 641.974 479.132 641.974C479.373 641.974 479.593 641.957 479.792 641.921C479.998 641.886 480.155 641.854 480.261 641.825L480.911 644.84C480.705 644.911 480.41 644.989 480.027 645.075C479.65 645.16 479.189 645.21 478.642 645.224C477.676 645.252 476.806 645.107 476.032 644.787C475.258 644.46 474.643 643.956 474.189 643.274C473.741 642.592 473.521 641.74 473.528 640.717V624.716ZM483.838 645V628.636H487.577V631.364H487.748C488.046 630.419 488.557 629.691 489.282 629.18C490.013 628.661 490.848 628.402 491.785 628.402C491.998 628.402 492.236 628.413 492.499 628.434C492.769 628.448 492.993 628.473 493.17 628.509V632.056C493.007 631.999 492.748 631.95 492.393 631.907C492.045 631.857 491.707 631.832 491.381 631.832C490.677 631.832 490.045 631.985 489.484 632.29C488.93 632.589 488.494 633.004 488.174 633.537C487.854 634.07 487.695 634.684 487.695 635.38V645H483.838ZM506.162 638.118V628.636H510.019V645H506.279V642.092H506.109C505.74 643.008 505.132 643.757 504.287 644.339C503.449 644.922 502.416 645.213 501.187 645.213C500.115 645.213 499.166 644.975 498.343 644.499C497.526 644.016 496.887 643.317 496.425 642.401C495.963 641.477 495.733 640.362 495.733 639.055V628.636H499.589V638.459C499.589 639.496 499.873 640.32 500.441 640.93C501.009 641.541 501.755 641.847 502.679 641.847C503.247 641.847 503.797 641.708 504.33 641.431C504.862 641.154 505.299 640.742 505.64 640.195C505.988 639.641 506.162 638.949 506.162 638.118ZM521.229 645.32C519.588 645.32 518.171 644.979 516.978 644.297C515.792 643.608 514.879 642.635 514.24 641.378C513.601 640.114 513.281 638.626 513.281 636.914C513.281 635.231 513.601 633.754 514.24 632.482C514.886 631.204 515.788 630.21 516.946 629.499C518.104 628.782 519.464 628.423 521.026 628.423C522.035 628.423 522.987 628.587 523.881 628.913C524.783 629.233 525.579 629.73 526.268 630.405C526.964 631.08 527.511 631.939 527.908 632.983C528.306 634.02 528.505 635.256 528.505 636.69V637.873H515.092V635.273H524.808C524.801 634.535 524.641 633.878 524.329 633.303C524.016 632.72 523.58 632.262 523.019 631.928C522.465 631.594 521.818 631.428 521.08 631.428C520.291 631.428 519.599 631.619 519.002 632.003C518.406 632.379 517.94 632.876 517.607 633.494C517.28 634.105 517.113 634.776 517.106 635.508V637.777C517.106 638.729 517.28 639.545 517.628 640.227C517.976 640.902 518.462 641.42 519.087 641.783C519.712 642.138 520.444 642.315 521.282 642.315C521.843 642.315 522.351 642.237 522.805 642.081C523.26 641.918 523.654 641.68 523.988 641.367C524.322 641.055 524.574 640.668 524.744 640.206L528.345 640.611C528.118 641.562 527.685 642.393 527.046 643.104C526.413 643.807 525.604 644.354 524.617 644.744C523.629 645.128 522.5 645.32 521.229 645.32Z" fill="black"/>
<path d="M627.73 444.636V447.619H618.057V444.636H627.73ZM620.475 461V443.092C620.475 441.991 620.702 441.075 621.157 440.343C621.618 439.612 622.236 439.065 623.01 438.702C623.785 438.34 624.644 438.159 625.589 438.159C626.256 438.159 626.849 438.212 627.368 438.319C627.886 438.425 628.27 438.521 628.518 438.607L627.751 441.589C627.588 441.54 627.382 441.49 627.133 441.44C626.885 441.384 626.608 441.355 626.302 441.355C625.585 441.355 625.077 441.529 624.779 441.877C624.488 442.218 624.342 442.708 624.342 443.347V461H620.475ZM634.902 461.33C633.865 461.33 632.931 461.146 632.1 460.776C631.277 460.4 630.623 459.846 630.14 459.114C629.664 458.383 629.426 457.481 629.426 456.408C629.426 455.485 629.597 454.722 629.938 454.118C630.279 453.514 630.744 453.031 631.333 452.669C631.923 452.307 632.587 452.033 633.326 451.849C634.071 451.657 634.842 451.518 635.637 451.433C636.596 451.334 637.374 451.245 637.97 451.167C638.567 451.082 639 450.954 639.27 450.783C639.547 450.606 639.686 450.332 639.686 449.963V449.899C639.686 449.097 639.448 448.475 638.972 448.035C638.496 447.594 637.811 447.374 636.916 447.374C635.971 447.374 635.222 447.58 634.668 447.992C634.121 448.404 633.752 448.891 633.56 449.452L629.959 448.94C630.243 447.946 630.712 447.115 631.365 446.447C632.019 445.773 632.818 445.268 633.762 444.935C634.707 444.594 635.751 444.423 636.894 444.423C637.683 444.423 638.468 444.516 639.249 444.7C640.03 444.885 640.744 445.19 641.39 445.616C642.036 446.036 642.555 446.607 642.946 447.332C643.343 448.056 643.542 448.962 643.542 450.048V461H639.835V458.752H639.707C639.473 459.207 639.142 459.633 638.716 460.031C638.297 460.421 637.768 460.737 637.129 460.979C636.497 461.213 635.755 461.33 634.902 461.33ZM635.904 458.496C636.678 458.496 637.349 458.344 637.917 458.038C638.485 457.726 638.922 457.314 639.228 456.803C639.54 456.291 639.696 455.734 639.696 455.13V453.202C639.576 453.301 639.37 453.393 639.078 453.479C638.794 453.564 638.475 453.638 638.12 453.702C637.764 453.766 637.413 453.823 637.065 453.873C636.717 453.923 636.415 453.965 636.159 454.001C635.584 454.079 635.069 454.207 634.615 454.384C634.16 454.562 633.801 454.81 633.539 455.13C633.276 455.442 633.144 455.847 633.144 456.344C633.144 457.055 633.404 457.591 633.922 457.953C634.441 458.315 635.101 458.496 635.904 458.496ZM651.277 439.182V461H647.42V439.182H651.277ZM668.176 448.962L664.66 449.345C664.56 448.99 664.386 448.656 664.138 448.344C663.896 448.031 663.57 447.779 663.158 447.587C662.746 447.396 662.242 447.3 661.645 447.3C660.842 447.3 660.168 447.474 659.621 447.822C659.081 448.17 658.815 448.621 658.822 449.175C658.815 449.651 658.989 450.038 659.344 450.336C659.706 450.634 660.303 450.879 661.134 451.071L663.925 451.668C665.473 452.001 666.624 452.531 667.377 453.255C668.136 453.979 668.52 454.928 668.527 456.099C668.52 457.129 668.218 458.038 667.622 458.827C667.032 459.608 666.212 460.219 665.161 460.659C664.109 461.099 662.902 461.32 661.538 461.32C659.536 461.32 657.923 460.901 656.702 460.062C655.48 459.217 654.752 458.042 654.518 456.536L658.278 456.174C658.449 456.913 658.811 457.47 659.365 457.847C659.919 458.223 660.64 458.411 661.528 458.411C662.444 458.411 663.179 458.223 663.733 457.847C664.294 457.47 664.575 457.005 664.575 456.451C664.575 455.982 664.394 455.595 664.031 455.29C663.676 454.984 663.122 454.75 662.369 454.587L659.578 454.001C658.009 453.674 656.847 453.124 656.095 452.349C655.342 451.568 654.969 450.581 654.976 449.388C654.969 448.379 655.242 447.506 655.796 446.767C656.357 446.021 657.135 445.446 658.129 445.041C659.131 444.629 660.285 444.423 661.592 444.423C663.509 444.423 665.019 444.832 666.119 445.648C667.227 446.465 667.913 447.57 668.176 448.962ZM678.951 461.32C677.311 461.32 675.894 460.979 674.701 460.297C673.515 459.608 672.602 458.635 671.963 457.378C671.324 456.114 671.004 454.626 671.004 452.914C671.004 451.231 671.324 449.754 671.963 448.482C672.609 447.204 673.511 446.21 674.669 445.499C675.826 444.782 677.187 444.423 678.749 444.423C679.758 444.423 680.709 444.587 681.604 444.913C682.506 445.233 683.302 445.73 683.991 446.405C684.687 447.08 685.233 447.939 685.631 448.983C686.029 450.02 686.228 451.256 686.228 452.69V453.873H672.815V451.273H682.531C682.524 450.535 682.364 449.878 682.052 449.303C681.739 448.72 681.302 448.262 680.741 447.928C680.187 447.594 679.541 447.428 678.802 447.428C678.014 447.428 677.321 447.619 676.725 448.003C676.128 448.379 675.663 448.876 675.329 449.494C675.003 450.105 674.836 450.776 674.829 451.508V453.777C674.829 454.729 675.003 455.545 675.351 456.227C675.699 456.902 676.185 457.42 676.81 457.783C677.435 458.138 678.167 458.315 679.005 458.315C679.566 458.315 680.074 458.237 680.528 458.081C680.983 457.918 681.377 457.68 681.711 457.367C682.044 457.055 682.297 456.668 682.467 456.206L686.068 456.611C685.841 457.562 685.407 458.393 684.768 459.104C684.136 459.807 683.326 460.354 682.339 460.744C681.352 461.128 680.223 461.32 678.951 461.32Z" fill="black"/>
<rect x="210" y="161" width="448" height="97" rx="8.37963" fill="white"/>
<path d="M257.511 197.727V221H253.295V197.727H257.511ZM266.009 210.773V221H261.895V203.545H265.827V206.511H266.031C266.433 205.534 267.073 204.758 267.952 204.182C268.838 203.606 269.933 203.318 271.236 203.318C272.44 203.318 273.49 203.576 274.384 204.091C275.285 204.606 275.982 205.352 276.474 206.33C276.974 207.307 277.221 208.492 277.213 209.886V221H273.099V210.523C273.099 209.356 272.796 208.443 272.19 207.784C271.592 207.125 270.762 206.795 269.702 206.795C268.982 206.795 268.342 206.955 267.781 207.273C267.228 207.583 266.793 208.034 266.474 208.625C266.164 209.216 266.009 209.932 266.009 210.773ZM281.395 221V203.545H285.509V221H281.395ZM283.463 201.068C282.812 201.068 282.251 200.852 281.781 200.42C281.312 199.981 281.077 199.455 281.077 198.841C281.077 198.22 281.312 197.693 281.781 197.261C282.251 196.822 282.812 196.602 283.463 196.602C284.122 196.602 284.683 196.822 285.145 197.261C285.615 197.693 285.849 198.22 285.849 198.841C285.849 199.455 285.615 199.981 285.145 200.42C284.683 200.852 284.122 201.068 283.463 201.068ZM298.455 203.545V206.727H288.42V203.545H298.455ZM290.898 199.364H295.011V215.75C295.011 216.303 295.095 216.727 295.261 217.023C295.436 217.311 295.663 217.508 295.943 217.614C296.223 217.72 296.534 217.773 296.875 217.773C297.133 217.773 297.367 217.754 297.58 217.716C297.799 217.678 297.966 217.644 298.08 217.614L298.773 220.83C298.553 220.905 298.239 220.989 297.83 221.08C297.428 221.17 296.936 221.223 296.352 221.239C295.322 221.269 294.394 221.114 293.568 220.773C292.742 220.424 292.087 219.886 291.602 219.159C291.125 218.432 290.89 217.523 290.898 216.432V199.364ZM301.895 221V203.545H306.009V221H301.895ZM303.963 201.068C303.312 201.068 302.751 200.852 302.281 200.42C301.812 199.981 301.577 199.455 301.577 198.841C301.577 198.22 301.812 197.693 302.281 197.261C302.751 196.822 303.312 196.602 303.963 196.602C304.622 196.602 305.183 196.822 305.645 197.261C306.115 197.693 306.349 198.22 306.349 198.841C306.349 199.455 306.115 199.981 305.645 200.42C305.183 200.852 304.622 201.068 303.963 201.068ZM315.261 221.352C314.155 221.352 313.159 221.155 312.273 220.761C311.394 220.36 310.697 219.769 310.182 218.989C309.674 218.208 309.42 217.246 309.42 216.102C309.42 215.117 309.602 214.303 309.966 213.659C310.33 213.015 310.826 212.5 311.455 212.114C312.083 211.727 312.792 211.436 313.58 211.239C314.375 211.034 315.197 210.886 316.045 210.795C317.068 210.689 317.898 210.595 318.534 210.511C319.17 210.42 319.633 210.284 319.92 210.102C320.216 209.913 320.364 209.621 320.364 209.227V209.159C320.364 208.303 320.11 207.64 319.602 207.17C319.095 206.701 318.364 206.466 317.409 206.466C316.402 206.466 315.602 206.686 315.011 207.125C314.428 207.564 314.034 208.083 313.83 208.682L309.989 208.136C310.292 207.076 310.792 206.189 311.489 205.477C312.186 204.758 313.038 204.22 314.045 203.864C315.053 203.5 316.167 203.318 317.386 203.318C318.227 203.318 319.064 203.417 319.898 203.614C320.731 203.811 321.492 204.136 322.182 204.591C322.871 205.038 323.424 205.648 323.841 206.42C324.265 207.193 324.477 208.159 324.477 209.318V221H320.523V218.602H320.386C320.136 219.087 319.784 219.542 319.33 219.966C318.883 220.383 318.318 220.72 317.636 220.977C316.962 221.227 316.17 221.352 315.261 221.352ZM316.33 218.33C317.155 218.33 317.871 218.167 318.477 217.841C319.083 217.508 319.549 217.068 319.875 216.523C320.208 215.977 320.375 215.383 320.375 214.739V212.682C320.246 212.788 320.027 212.886 319.716 212.977C319.413 213.068 319.072 213.148 318.693 213.216C318.314 213.284 317.939 213.345 317.568 213.398C317.197 213.451 316.875 213.496 316.602 213.534C315.989 213.617 315.439 213.754 314.955 213.943C314.47 214.133 314.087 214.398 313.807 214.739C313.527 215.072 313.386 215.504 313.386 216.034C313.386 216.792 313.663 217.364 314.216 217.75C314.769 218.136 315.473 218.33 316.33 218.33ZM332.727 197.727V221H328.614V197.727H332.727ZM336.957 221V203.545H341.071V221H336.957ZM339.026 201.068C338.374 201.068 337.813 200.852 337.344 200.42C336.874 199.981 336.639 199.455 336.639 198.841C336.639 198.22 336.874 197.693 337.344 197.261C337.813 196.822 338.374 196.602 339.026 196.602C339.685 196.602 340.245 196.822 340.707 197.261C341.177 197.693 341.412 198.22 341.412 198.841C341.412 199.455 341.177 199.981 340.707 200.42C340.245 200.852 339.685 201.068 339.026 201.068ZM345.074 221V218.386L354.074 207.102V206.955H345.369V203.545H359.108V206.352L350.54 217.443V217.591H359.403V221H345.074ZM368.293 221.352C367.187 221.352 366.19 221.155 365.304 220.761C364.425 220.36 363.728 219.769 363.213 218.989C362.705 218.208 362.452 217.246 362.452 216.102C362.452 215.117 362.634 214.303 362.997 213.659C363.361 213.015 363.857 212.5 364.486 212.114C365.115 211.727 365.823 211.436 366.611 211.239C367.406 211.034 368.228 210.886 369.077 210.795C370.099 210.689 370.929 210.595 371.565 210.511C372.202 210.42 372.664 210.284 372.952 210.102C373.247 209.913 373.395 209.621 373.395 209.227V209.159C373.395 208.303 373.141 207.64 372.634 207.17C372.126 206.701 371.395 206.466 370.44 206.466C369.433 206.466 368.634 206.686 368.043 207.125C367.459 207.564 367.065 208.083 366.861 208.682L363.02 208.136C363.323 207.076 363.823 206.189 364.52 205.477C365.217 204.758 366.069 204.22 367.077 203.864C368.084 203.5 369.198 203.318 370.418 203.318C371.259 203.318 372.096 203.417 372.929 203.614C373.762 203.811 374.524 204.136 375.213 204.591C375.902 205.038 376.455 205.648 376.872 206.42C377.296 207.193 377.509 208.159 377.509 209.318V221H373.554V218.602H373.418C373.168 219.087 372.815 219.542 372.361 219.966C371.914 220.383 371.349 220.72 370.668 220.977C369.993 221.227 369.202 221.352 368.293 221.352ZM369.361 218.33C370.187 218.33 370.902 218.167 371.509 217.841C372.115 217.508 372.58 217.068 372.906 216.523C373.24 215.977 373.406 215.383 373.406 214.739V212.682C373.277 212.788 373.058 212.886 372.747 212.977C372.444 213.068 372.103 213.148 371.724 213.216C371.346 213.284 370.971 213.345 370.599 213.398C370.228 213.451 369.906 213.496 369.634 213.534C369.02 213.617 368.471 213.754 367.986 213.943C367.501 214.133 367.118 214.398 366.838 214.739C366.558 215.072 366.418 215.504 366.418 216.034C366.418 216.792 366.694 217.364 367.247 217.75C367.8 218.136 368.505 218.33 369.361 218.33ZM390.361 203.545V206.727H380.327V203.545H390.361ZM382.804 199.364H386.918V215.75C386.918 216.303 387.001 216.727 387.168 217.023C387.342 217.311 387.569 217.508 387.849 217.614C388.13 217.72 388.44 217.773 388.781 217.773C389.039 217.773 389.274 217.754 389.486 217.716C389.705 217.678 389.872 217.644 389.986 217.614L390.679 220.83C390.459 220.905 390.145 220.989 389.736 221.08C389.334 221.17 388.842 221.223 388.259 221.239C387.228 221.269 386.3 221.114 385.474 220.773C384.649 220.424 383.993 219.886 383.509 219.159C383.031 218.432 382.796 217.523 382.804 216.432V199.364ZM393.801 221V203.545H397.915V221H393.801ZM395.869 201.068C395.218 201.068 394.657 200.852 394.188 200.42C393.718 199.981 393.483 199.455 393.483 198.841C393.483 198.22 393.718 197.693 394.188 197.261C394.657 196.822 395.218 196.602 395.869 196.602C396.528 196.602 397.089 196.822 397.551 197.261C398.021 197.693 398.256 198.22 398.256 198.841C398.256 199.455 398.021 199.981 397.551 200.42C397.089 200.852 396.528 201.068 395.869 201.068ZM409.759 221.341C408.054 221.341 406.577 220.966 405.327 220.216C404.077 219.466 403.107 218.417 402.418 217.068C401.736 215.72 401.395 214.144 401.395 212.341C401.395 210.538 401.736 208.958 402.418 207.602C403.107 206.246 404.077 205.193 405.327 204.443C406.577 203.693 408.054 203.318 409.759 203.318C411.463 203.318 412.94 203.693 414.19 204.443C415.44 205.193 416.406 206.246 417.088 207.602C417.777 208.958 418.122 210.538 418.122 212.341C418.122 214.144 417.777 215.72 417.088 217.068C416.406 218.417 415.44 219.466 414.19 220.216C412.94 220.966 411.463 221.341 409.759 221.341ZM409.781 218.045C410.705 218.045 411.478 217.792 412.099 217.284C412.721 216.769 413.183 216.08 413.486 215.216C413.796 214.352 413.952 213.39 413.952 212.33C413.952 211.261 413.796 210.295 413.486 209.432C413.183 208.561 412.721 207.867 412.099 207.352C411.478 206.837 410.705 206.58 409.781 206.58C408.834 206.58 408.046 206.837 407.418 207.352C406.796 207.867 406.33 208.561 406.02 209.432C405.717 210.295 405.565 211.261 405.565 212.33C405.565 213.39 405.717 214.352 406.02 215.216C406.33 216.08 406.796 216.769 407.418 217.284C408.046 217.792 408.834 218.045 409.781 218.045ZM425.727 210.773V221H421.614V203.545H425.545V206.511H425.75C426.152 205.534 426.792 204.758 427.67 204.182C428.557 203.606 429.652 203.318 430.955 203.318C432.159 203.318 433.208 203.576 434.102 204.091C435.004 204.606 435.701 205.352 436.193 206.33C436.693 207.307 436.939 208.492 436.932 209.886V221H432.818V210.523C432.818 209.356 432.515 208.443 431.909 207.784C431.311 207.125 430.481 206.795 429.42 206.795C428.701 206.795 428.061 206.955 427.5 207.273C426.947 207.583 426.511 208.034 426.193 208.625C425.883 209.216 425.727 209.932 425.727 210.773ZM449.233 221V197.727H464.369V201.261H453.449V207.58H463.585V211.114H453.449V217.466H464.46V221H449.233ZM471.852 203.545L475.375 209.989L478.955 203.545H483.307L478.045 212.273L483.398 221H479.068L475.375 214.716L471.716 221H467.352L472.67 212.273L467.489 203.545H471.852ZM486.489 227.545V203.545H490.534V206.432H490.773C490.985 206.008 491.284 205.557 491.67 205.08C492.057 204.595 492.58 204.182 493.239 203.841C493.898 203.492 494.739 203.318 495.761 203.318C497.11 203.318 498.326 203.663 499.409 204.352C500.5 205.034 501.364 206.045 502 207.386C502.644 208.72 502.966 210.356 502.966 212.295C502.966 214.212 502.652 215.841 502.023 217.182C501.394 218.523 500.538 219.545 499.455 220.25C498.371 220.955 497.144 221.307 495.773 221.307C494.773 221.307 493.943 221.14 493.284 220.807C492.625 220.473 492.095 220.072 491.693 219.602C491.299 219.125 490.992 218.674 490.773 218.25H490.602V227.545H486.489ZM490.523 212.273C490.523 213.402 490.682 214.39 491 215.239C491.326 216.087 491.792 216.75 492.398 217.227C493.011 217.697 493.754 217.932 494.625 217.932C495.534 217.932 496.295 217.689 496.909 217.205C497.523 216.712 497.985 216.042 498.295 215.193C498.614 214.337 498.773 213.364 498.773 212.273C498.773 211.189 498.617 210.227 498.307 209.386C497.996 208.545 497.534 207.886 496.92 207.409C496.307 206.932 495.542 206.693 494.625 206.693C493.746 206.693 493 206.924 492.386 207.386C491.773 207.848 491.307 208.496 490.989 209.33C490.678 210.163 490.523 211.144 490.523 212.273ZM506.489 221V203.545H510.477V206.455H510.659C510.977 205.447 511.523 204.67 512.295 204.125C513.076 203.572 513.966 203.295 514.966 203.295C515.193 203.295 515.447 203.307 515.727 203.33C516.015 203.345 516.254 203.371 516.443 203.409V207.193C516.269 207.133 515.992 207.08 515.614 207.034C515.242 206.981 514.883 206.955 514.534 206.955C513.784 206.955 513.11 207.117 512.511 207.443C511.92 207.761 511.455 208.205 511.114 208.773C510.773 209.341 510.602 209.996 510.602 210.739V221H506.489ZM526.185 221.341C524.435 221.341 522.923 220.977 521.651 220.25C520.385 219.515 519.412 218.477 518.73 217.136C518.048 215.788 517.707 214.201 517.707 212.375C517.707 210.58 518.048 209.004 518.73 207.648C519.42 206.284 520.382 205.223 521.616 204.466C522.851 203.701 524.302 203.318 525.969 203.318C527.045 203.318 528.06 203.492 529.014 203.841C529.976 204.182 530.825 204.712 531.56 205.432C532.302 206.152 532.885 207.068 533.31 208.182C533.734 209.288 533.946 210.606 533.946 212.136V213.398H519.639V210.625H530.003C529.995 209.837 529.825 209.136 529.491 208.523C529.158 207.902 528.692 207.413 528.094 207.057C527.503 206.701 526.813 206.523 526.026 206.523C525.185 206.523 524.446 206.727 523.81 207.136C523.173 207.538 522.677 208.068 522.321 208.727C521.973 209.379 521.795 210.095 521.787 210.875V213.295C521.787 214.311 521.973 215.182 522.344 215.909C522.715 216.629 523.234 217.182 523.901 217.568C524.567 217.947 525.348 218.136 526.241 218.136C526.84 218.136 527.382 218.053 527.866 217.886C528.351 217.712 528.772 217.458 529.128 217.125C529.484 216.792 529.753 216.379 529.935 215.886L533.776 216.318C533.533 217.333 533.071 218.22 532.389 218.977C531.715 219.727 530.851 220.311 529.798 220.727C528.745 221.136 527.541 221.341 526.185 221.341ZM551.222 208.159L547.472 208.568C547.366 208.189 547.18 207.833 546.915 207.5C546.657 207.167 546.309 206.898 545.869 206.693C545.43 206.489 544.892 206.386 544.256 206.386C543.4 206.386 542.68 206.572 542.097 206.943C541.521 207.314 541.237 207.795 541.244 208.386C541.237 208.894 541.422 209.307 541.801 209.625C542.188 209.943 542.824 210.205 543.71 210.409L546.688 211.045C548.339 211.402 549.566 211.966 550.369 212.739C551.18 213.511 551.589 214.523 551.597 215.773C551.589 216.871 551.267 217.841 550.631 218.682C550.002 219.515 549.127 220.167 548.006 220.636C546.884 221.106 545.597 221.341 544.142 221.341C542.006 221.341 540.286 220.894 538.983 220C537.68 219.098 536.903 217.845 536.653 216.239L540.665 215.852C540.847 216.64 541.233 217.235 541.824 217.636C542.415 218.038 543.184 218.239 544.131 218.239C545.108 218.239 545.892 218.038 546.483 217.636C547.081 217.235 547.381 216.739 547.381 216.148C547.381 215.648 547.188 215.235 546.801 214.909C546.422 214.583 545.831 214.333 545.028 214.159L542.051 213.534C540.377 213.186 539.138 212.598 538.335 211.773C537.532 210.939 537.134 209.886 537.142 208.614C537.134 207.538 537.426 206.606 538.017 205.818C538.616 205.023 539.445 204.409 540.506 203.977C541.574 203.538 542.805 203.318 544.199 203.318C546.244 203.318 547.854 203.754 549.028 204.625C550.21 205.496 550.941 206.674 551.222 208.159ZM568.784 208.159L565.034 208.568C564.928 208.189 564.742 207.833 564.477 207.5C564.22 207.167 563.871 206.898 563.432 206.693C562.992 206.489 562.455 206.386 561.818 206.386C560.962 206.386 560.242 206.572 559.659 206.943C559.083 207.314 558.799 207.795 558.807 208.386C558.799 208.894 558.985 209.307 559.364 209.625C559.75 209.943 560.386 210.205 561.273 210.409L564.25 211.045C565.902 211.402 567.129 211.966 567.932 212.739C568.742 213.511 569.152 214.523 569.159 215.773C569.152 216.871 568.83 217.841 568.193 218.682C567.564 219.515 566.689 220.167 565.568 220.636C564.447 221.106 563.159 221.341 561.705 221.341C559.568 221.341 557.848 220.894 556.545 220C555.242 219.098 554.466 217.845 554.216 216.239L558.227 215.852C558.409 216.64 558.795 217.235 559.386 217.636C559.977 218.038 560.746 218.239 561.693 218.239C562.67 218.239 563.455 218.038 564.045 217.636C564.644 217.235 564.943 216.739 564.943 216.148C564.943 215.648 564.75 215.235 564.364 214.909C563.985 214.583 563.394 214.333 562.591 214.159L559.614 213.534C557.939 213.186 556.701 212.598 555.898 211.773C555.095 210.939 554.697 209.886 554.705 208.614C554.697 207.538 554.989 206.606 555.58 205.818C556.178 205.023 557.008 204.409 558.068 203.977C559.136 203.538 560.367 203.318 561.761 203.318C563.807 203.318 565.417 203.754 566.591 204.625C567.773 205.496 568.504 206.674 568.784 208.159ZM572.551 221V203.545H576.665V221H572.551ZM574.619 201.068C573.968 201.068 573.407 200.852 572.938 200.42C572.468 199.981 572.233 199.455 572.233 198.841C572.233 198.22 572.468 197.693 572.938 197.261C573.407 196.822 573.968 196.602 574.619 196.602C575.278 196.602 575.839 196.822 576.301 197.261C576.771 197.693 577.006 198.22 577.006 198.841C577.006 199.455 576.771 199.981 576.301 200.42C575.839 200.852 575.278 201.068 574.619 201.068ZM588.509 221.341C586.804 221.341 585.327 220.966 584.077 220.216C582.827 219.466 581.857 218.417 581.168 217.068C580.486 215.72 580.145 214.144 580.145 212.341C580.145 210.538 580.486 208.958 581.168 207.602C581.857 206.246 582.827 205.193 584.077 204.443C585.327 203.693 586.804 203.318 588.509 203.318C590.213 203.318 591.69 203.693 592.94 204.443C594.19 205.193 595.156 206.246 595.838 207.602C596.527 208.958 596.872 210.538 596.872 212.341C596.872 214.144 596.527 215.72 595.838 217.068C595.156 218.417 594.19 219.466 592.94 220.216C591.69 220.966 590.213 221.341 588.509 221.341ZM588.531 218.045C589.455 218.045 590.228 217.792 590.849 217.284C591.471 216.769 591.933 216.08 592.236 215.216C592.546 214.352 592.702 213.39 592.702 212.33C592.702 211.261 592.546 210.295 592.236 209.432C591.933 208.561 591.471 207.867 590.849 207.352C590.228 206.837 589.455 206.58 588.531 206.58C587.584 206.58 586.796 206.837 586.168 207.352C585.546 207.867 585.08 208.561 584.77 209.432C584.467 210.295 584.315 211.261 584.315 212.33C584.315 213.39 584.467 214.352 584.77 215.216C585.08 216.08 585.546 216.769 586.168 217.284C586.796 217.792 587.584 218.045 588.531 218.045ZM604.477 210.773V221H600.364V203.545H604.295V206.511H604.5C604.902 205.534 605.542 204.758 606.42 204.182C607.307 203.606 608.402 203.318 609.705 203.318C610.909 203.318 611.958 203.576 612.852 204.091C613.754 204.606 614.451 205.352 614.943 206.33C615.443 207.307 615.689 208.492 615.682 209.886V221H611.568V210.523C611.568 209.356 611.265 208.443 610.659 207.784C610.061 207.125 609.231 206.795 608.17 206.795C607.451 206.795 606.811 206.955 606.25 207.273C605.697 207.583 605.261 208.034 604.943 208.625C604.633 209.216 604.477 209.932 604.477 210.773Z" fill="black"/>
<rect x="210.46" y="692" width="448" height="97" rx="8.37963" fill="white"/>
<path d="M330.639 734.455V737.835H319.676V734.455H330.639ZM322.417 753V732.704C322.417 731.456 322.674 730.418 323.19 729.589C323.713 728.76 324.413 728.14 325.29 727.729C326.168 727.319 327.142 727.114 328.212 727.114C328.969 727.114 329.641 727.174 330.229 727.295C330.816 727.415 331.251 727.524 331.533 727.621L330.663 731.001C330.478 730.945 330.245 730.889 329.963 730.832C329.681 730.768 329.367 730.736 329.021 730.736C328.208 730.736 327.633 730.933 327.295 731.327C326.965 731.714 326.8 732.269 326.8 732.994V753H322.417ZM341.454 753.362C339.643 753.362 338.074 752.964 336.746 752.167C335.417 751.37 334.387 750.255 333.655 748.822C332.93 747.39 332.568 745.715 332.568 743.8C332.568 741.884 332.93 740.206 333.655 738.765C334.387 737.324 335.417 736.205 336.746 735.408C338.074 734.612 339.643 734.213 341.454 734.213C343.265 734.213 344.835 734.612 346.163 735.408C347.491 736.205 348.518 737.324 349.242 738.765C349.974 740.206 350.341 741.884 350.341 743.8C350.341 745.715 349.974 747.39 349.242 748.822C348.518 750.255 347.491 751.37 346.163 752.167C344.835 752.964 343.265 753.362 341.454 753.362ZM341.479 749.861C342.461 749.861 343.282 749.591 343.942 749.052C344.602 748.504 345.093 747.772 345.415 746.854C345.745 745.937 345.91 744.915 345.91 743.788C345.91 742.653 345.745 741.626 345.415 740.709C345.093 739.783 344.602 739.047 343.942 738.499C343.282 737.952 342.461 737.678 341.479 737.678C340.472 737.678 339.635 737.952 338.967 738.499C338.307 739.047 337.812 739.783 337.482 740.709C337.16 741.626 336.999 742.653 336.999 743.788C336.999 744.915 337.16 745.937 337.482 746.854C337.812 747.772 338.307 748.504 338.967 749.052C339.635 749.591 340.472 749.861 341.479 749.861ZM354.05 753V734.455H358.288V737.545H358.482C358.82 736.475 359.399 735.65 360.22 735.07C361.049 734.483 361.995 734.189 363.058 734.189C363.299 734.189 363.569 734.201 363.866 734.225C364.172 734.241 364.426 734.269 364.627 734.31V738.33C364.442 738.266 364.148 738.21 363.746 738.161C363.351 738.105 362.969 738.077 362.599 738.077C361.802 738.077 361.085 738.25 360.45 738.596C359.822 738.934 359.327 739.405 358.964 740.009C358.602 740.612 358.421 741.308 358.421 742.097V753H354.05ZM376.158 753V728.273H380.637V749.245H391.528V753H376.158ZM403.312 753.362C401.501 753.362 399.931 752.964 398.603 752.167C397.275 751.37 396.245 750.255 395.512 748.822C394.788 747.39 394.425 745.715 394.425 743.8C394.425 741.884 394.788 740.206 395.512 738.765C396.245 737.324 397.275 736.205 398.603 735.408C399.931 734.612 401.501 734.213 403.312 734.213C405.123 734.213 406.692 734.612 408.021 735.408C409.349 736.205 410.375 737.324 411.099 738.765C411.832 740.206 412.198 741.884 412.198 743.8C412.198 745.715 411.832 747.39 411.099 748.822C410.375 750.255 409.349 751.37 408.021 752.167C406.692 752.964 405.123 753.362 403.312 753.362ZM403.336 749.861C404.318 749.861 405.139 749.591 405.799 749.052C406.459 748.504 406.95 747.772 407.272 746.854C407.602 745.937 407.767 744.915 407.767 743.788C407.767 742.653 407.602 741.626 407.272 740.709C406.95 739.783 406.459 739.047 405.799 738.499C405.139 737.952 404.318 737.678 403.336 737.678C402.33 737.678 401.493 737.952 400.825 738.499C400.165 739.047 399.67 739.783 399.339 740.709C399.018 741.626 398.857 742.653 398.857 743.788C398.857 744.915 399.018 745.937 399.339 746.854C399.67 747.772 400.165 748.504 400.825 749.052C401.493 749.591 402.33 749.861 403.336 749.861ZM423.997 753.362C422.186 753.362 420.617 752.964 419.289 752.167C417.96 751.37 416.93 750.255 416.198 748.822C415.473 747.39 415.111 745.715 415.111 743.8C415.111 741.884 415.473 740.206 416.198 738.765C416.93 737.324 417.96 736.205 419.289 735.408C420.617 734.612 422.186 734.213 423.997 734.213C425.808 734.213 427.378 734.612 428.706 735.408C430.034 736.205 431.061 737.324 431.785 738.765C432.517 740.206 432.884 741.884 432.884 743.8C432.884 745.715 432.517 747.39 431.785 748.822C431.061 750.255 430.034 751.37 428.706 752.167C427.378 752.964 425.808 753.362 423.997 753.362ZM424.021 749.861C425.003 749.861 425.825 749.591 426.485 749.052C427.145 748.504 427.636 747.772 427.958 746.854C428.288 745.937 428.453 744.915 428.453 743.788C428.453 742.653 428.288 741.626 427.958 740.709C427.636 739.783 427.145 739.047 426.485 738.499C425.825 737.952 425.003 737.678 424.021 737.678C423.015 737.678 422.178 737.952 421.51 738.499C420.85 739.047 420.355 739.783 420.025 740.709C419.703 741.626 419.542 742.653 419.542 743.788C419.542 744.915 419.703 745.937 420.025 746.854C420.355 747.772 420.85 748.504 421.51 749.052C422.178 749.591 423.015 749.861 424.021 749.861ZM436.593 759.955V734.455H440.892V737.521H441.145C441.371 737.071 441.689 736.592 442.099 736.085C442.51 735.569 443.065 735.131 443.765 734.768C444.466 734.398 445.359 734.213 446.446 734.213C447.878 734.213 449.17 734.579 450.321 735.312C451.48 736.036 452.398 737.111 453.074 738.536C453.758 739.952 454.1 741.691 454.1 743.751C454.1 745.788 453.766 747.518 453.098 748.943C452.43 750.368 451.521 751.455 450.37 752.203C449.219 752.952 447.915 753.326 446.458 753.326C445.395 753.326 444.514 753.149 443.814 752.795C443.113 752.441 442.55 752.014 442.123 751.515C441.705 751.008 441.379 750.529 441.145 750.078H440.964V759.955H436.593ZM440.88 743.727C440.88 744.927 441.049 745.977 441.387 746.879C441.733 747.78 442.228 748.484 442.872 748.991C443.524 749.491 444.313 749.74 445.238 749.74C446.204 749.74 447.013 749.482 447.665 748.967C448.317 748.444 448.808 747.732 449.138 746.83C449.476 745.921 449.645 744.886 449.645 743.727C449.645 742.576 449.48 741.554 449.15 740.661C448.82 739.767 448.329 739.067 447.677 738.56C447.025 738.053 446.212 737.799 445.238 737.799C444.305 737.799 443.512 738.045 442.86 738.536C442.208 739.027 441.713 739.715 441.375 740.6C441.045 741.486 440.88 742.528 440.88 743.727ZM466.47 753V728.273H475.936C477.723 728.273 479.208 728.554 480.391 729.118C481.583 729.673 482.472 730.434 483.06 731.4C483.655 732.366 483.953 733.46 483.953 734.684C483.953 735.69 483.76 736.551 483.374 737.268C482.987 737.976 482.468 738.552 481.816 738.994C481.164 739.437 480.436 739.755 479.631 739.948V740.19C480.508 740.238 481.349 740.508 482.154 740.999C482.967 741.482 483.631 742.166 484.146 743.051C484.661 743.937 484.919 745.007 484.919 746.263C484.919 747.543 484.609 748.694 483.989 749.716C483.37 750.73 482.436 751.531 481.188 752.119C479.941 752.706 478.371 753 476.479 753H466.47ZM470.95 749.257H475.767C477.393 749.257 478.564 748.947 479.281 748.327C480.005 747.7 480.367 746.895 480.367 745.913C480.367 745.18 480.186 744.52 479.824 743.933C479.462 743.337 478.946 742.87 478.278 742.532C477.61 742.186 476.813 742.013 475.888 742.013H470.95V749.257ZM470.95 738.789H475.381C476.153 738.789 476.85 738.648 477.469 738.366C478.089 738.077 478.576 737.67 478.93 737.147C479.293 736.616 479.474 735.988 479.474 735.263C479.474 734.306 479.136 733.517 478.46 732.897C477.791 732.277 476.797 731.967 475.477 731.967H470.95V738.789ZM496.712 753.362C494.901 753.362 493.331 752.964 492.003 752.167C490.675 751.37 489.645 750.255 488.912 748.822C488.188 747.39 487.826 745.715 487.826 743.8C487.826 741.884 488.188 740.206 488.912 738.765C489.645 737.324 490.675 736.205 492.003 735.408C493.331 734.612 494.901 734.213 496.712 734.213C498.523 734.213 500.093 734.612 501.421 735.408C502.749 736.205 503.775 737.324 504.5 738.765C505.232 740.206 505.599 741.884 505.599 743.8C505.599 745.715 505.232 747.39 504.5 748.822C503.775 750.255 502.749 751.37 501.421 752.167C500.093 752.964 498.523 753.362 496.712 753.362ZM496.736 749.861C497.718 749.861 498.539 749.591 499.199 749.052C499.859 748.504 500.35 747.772 500.672 746.854C501.002 745.937 501.167 744.915 501.167 743.788C501.167 742.653 501.002 741.626 500.672 740.709C500.35 739.783 499.859 739.047 499.199 738.499C498.539 737.952 497.718 737.678 496.736 737.678C495.73 737.678 494.893 737.952 494.225 738.499C493.565 739.047 493.07 739.783 492.74 740.709C492.418 741.626 492.257 742.653 492.257 743.788C492.257 744.915 492.418 745.937 492.74 746.854C493.07 747.772 493.565 748.504 494.225 749.052C494.893 749.591 495.73 749.861 496.736 749.861ZM516.19 753.326C514.733 753.326 513.429 752.952 512.278 752.203C511.127 751.455 510.218 750.368 509.55 748.943C508.882 747.518 508.548 745.788 508.548 743.751C508.548 741.691 508.886 739.952 509.562 738.536C510.246 737.111 511.168 736.036 512.327 735.312C513.486 734.579 514.778 734.213 516.202 734.213C517.289 734.213 518.183 734.398 518.883 734.768C519.583 735.131 520.138 735.569 520.549 736.085C520.96 736.592 521.277 737.071 521.503 737.521H521.684V728.273H526.067V753H521.768V750.078H521.503C521.277 750.529 520.951 751.008 520.525 751.515C520.098 752.014 519.535 752.441 518.835 752.795C518.134 753.149 517.253 753.326 516.19 753.326ZM517.41 749.74C518.335 749.74 519.124 749.491 519.776 748.991C520.428 748.484 520.923 747.78 521.261 746.879C521.599 745.977 521.768 744.927 521.768 743.727C521.768 742.528 521.599 741.486 521.261 740.6C520.931 739.715 520.44 739.027 519.788 738.536C519.144 738.045 518.352 737.799 517.41 737.799C516.436 737.799 515.623 738.053 514.971 738.56C514.319 739.067 513.828 739.767 513.498 740.661C513.168 741.554 513.003 742.576 513.003 743.727C513.003 744.886 513.168 745.921 513.498 746.83C513.836 747.732 514.331 748.444 514.983 748.967C515.643 749.482 516.452 749.74 517.41 749.74ZM533.441 759.955C532.845 759.955 532.294 759.906 531.787 759.81C531.288 759.721 530.889 759.616 530.591 759.496L531.606 756.091C532.242 756.276 532.809 756.365 533.308 756.357C533.807 756.348 534.246 756.192 534.624 755.886C535.01 755.588 535.336 755.089 535.602 754.388L535.976 753.386L529.251 734.455H533.888L538.162 748.46H538.355L542.641 734.455H547.29L539.864 755.246C539.518 756.228 539.059 757.069 538.488 757.769C537.916 758.478 537.216 759.017 536.387 759.387C535.566 759.765 534.584 759.955 533.441 759.955Z" fill="black"/>
<rect x="210.46" y="877" width="448" height="97" rx="8.37963" fill="white"/>
<path d="M297.026 913.273H301.506V929.428C301.506 931.198 301.087 932.756 300.25 934.1C299.421 935.444 298.254 936.495 296.749 937.251C295.243 938 293.485 938.374 291.472 938.374C289.452 938.374 287.689 938 286.184 937.251C284.679 936.495 283.512 935.444 282.683 934.1C281.853 932.756 281.439 931.198 281.439 929.428V913.273H285.918V929.053C285.918 930.084 286.144 931.001 286.594 931.806C287.053 932.611 287.697 933.243 288.526 933.702C289.355 934.152 290.337 934.378 291.472 934.378C292.607 934.378 293.589 934.152 294.418 933.702C295.255 933.243 295.899 932.611 296.35 931.806C296.801 931.001 297.026 930.084 297.026 929.053V913.273ZM306.181 944.955V919.455H310.48V922.521H310.733C310.959 922.071 311.276 921.592 311.687 921.085C312.097 920.569 312.653 920.131 313.353 919.768C314.053 919.398 314.947 919.213 316.034 919.213C317.466 919.213 318.758 919.579 319.909 920.312C321.068 921.036 321.986 922.111 322.662 923.536C323.346 924.952 323.688 926.691 323.688 928.751C323.688 930.788 323.354 932.518 322.686 933.943C322.018 935.368 321.109 936.455 319.958 937.203C318.807 937.952 317.503 938.326 316.046 938.326C314.983 938.326 314.102 938.149 313.401 937.795C312.701 937.441 312.138 937.014 311.711 936.515C311.293 936.008 310.967 935.529 310.733 935.078H310.552V944.955H306.181ZM310.468 928.727C310.468 929.927 310.637 930.977 310.975 931.879C311.321 932.78 311.816 933.484 312.46 933.991C313.112 934.491 313.901 934.74 314.826 934.74C315.792 934.74 316.601 934.482 317.253 933.967C317.905 933.444 318.396 932.732 318.726 931.83C319.064 930.921 319.233 929.886 319.233 928.727C319.233 927.576 319.068 926.554 318.738 925.661C318.408 924.767 317.917 924.067 317.265 923.56C316.613 923.053 315.8 922.799 314.826 922.799C313.892 922.799 313.1 923.045 312.448 923.536C311.796 924.027 311.301 924.715 310.963 925.6C310.633 926.486 310.468 927.528 310.468 928.727ZM334.313 938.326C332.856 938.326 331.552 937.952 330.401 937.203C329.25 936.455 328.341 935.368 327.673 933.943C327.005 932.518 326.671 930.788 326.671 928.751C326.671 926.691 327.009 924.952 327.685 923.536C328.369 922.111 329.291 921.036 330.45 920.312C331.609 919.579 332.901 919.213 334.325 919.213C335.412 919.213 336.306 919.398 337.006 919.768C337.706 920.131 338.262 920.569 338.672 921.085C339.083 921.592 339.401 922.071 339.626 922.521H339.807V913.273H344.19V938H339.892V935.078H339.626C339.401 935.529 339.075 936.008 338.648 936.515C338.221 937.014 337.658 937.441 336.958 937.795C336.257 938.149 335.376 938.326 334.313 938.326ZM335.533 934.74C336.459 934.74 337.247 934.491 337.899 933.991C338.551 933.484 339.046 932.78 339.384 931.879C339.722 930.977 339.892 929.927 339.892 928.727C339.892 927.528 339.722 926.486 339.384 925.6C339.054 924.715 338.563 924.027 337.911 923.536C337.267 923.045 336.475 922.799 335.533 922.799C334.559 922.799 333.746 923.053 333.094 923.56C332.442 924.067 331.951 924.767 331.621 925.661C331.291 926.554 331.126 927.576 331.126 928.727C331.126 929.886 331.291 930.921 331.621 931.83C331.959 932.732 332.454 933.444 333.106 933.967C333.766 934.482 334.575 934.74 335.533 934.74ZM354.184 938.374C353.009 938.374 351.95 938.165 351.009 937.746C350.075 937.32 349.334 936.692 348.787 935.863C348.248 935.034 347.978 934.012 347.978 932.796C347.978 931.75 348.171 930.884 348.558 930.2C348.944 929.516 349.471 928.969 350.139 928.558C350.807 928.148 351.56 927.838 352.397 927.629C353.242 927.411 354.116 927.254 355.017 927.158C356.104 927.045 356.985 926.944 357.661 926.856C358.337 926.759 358.828 926.614 359.134 926.421C359.448 926.22 359.605 925.91 359.605 925.491V925.419C359.605 924.509 359.335 923.805 358.796 923.306C358.257 922.807 357.48 922.558 356.466 922.558C355.395 922.558 354.546 922.791 353.918 923.258C353.299 923.725 352.88 924.276 352.663 924.912L348.582 924.332C348.904 923.205 349.435 922.264 350.175 921.507C350.916 920.742 351.821 920.171 352.892 919.793C353.963 919.406 355.146 919.213 356.442 919.213C357.335 919.213 358.225 919.318 359.11 919.527C359.996 919.736 360.804 920.082 361.537 920.565C362.269 921.04 362.857 921.688 363.3 922.509C363.75 923.33 363.976 924.357 363.976 925.588V938H359.774V935.452H359.629C359.364 935.968 358.989 936.451 358.506 936.901C358.031 937.344 357.432 937.702 356.707 937.976C355.991 938.241 355.15 938.374 354.184 938.374ZM355.319 935.163C356.196 935.163 356.957 934.99 357.601 934.643C358.245 934.289 358.74 933.822 359.086 933.243C359.44 932.663 359.617 932.031 359.617 931.347V929.162C359.48 929.275 359.247 929.379 358.917 929.476C358.595 929.572 358.233 929.657 357.83 929.729C357.428 929.802 357.029 929.866 356.635 929.923C356.241 929.979 355.898 930.027 355.609 930.067C354.957 930.156 354.373 930.301 353.858 930.502C353.343 930.703 352.936 930.985 352.638 931.347C352.341 931.701 352.192 932.16 352.192 932.724C352.192 933.529 352.486 934.136 353.073 934.547C353.661 934.957 354.409 935.163 355.319 935.163ZM377.631 919.455V922.835H366.97V919.455H377.631ZM369.602 915.011H373.973V932.422C373.973 933.009 374.062 933.46 374.239 933.774C374.424 934.08 374.665 934.289 374.963 934.402C375.261 934.515 375.591 934.571 375.953 934.571C376.227 934.571 376.476 934.551 376.702 934.511C376.935 934.47 377.112 934.434 377.233 934.402L377.969 937.819C377.736 937.899 377.402 937.988 376.967 938.085C376.541 938.181 376.018 938.237 375.398 938.254C374.303 938.286 373.317 938.121 372.44 937.759C371.562 937.388 370.866 936.817 370.351 936.044C369.844 935.271 369.594 934.305 369.602 933.146V915.011ZM389.298 938.362C387.438 938.362 385.833 937.976 384.48 937.203C383.136 936.422 382.102 935.32 381.377 933.895C380.653 932.462 380.291 930.776 380.291 928.836C380.291 926.928 380.653 925.254 381.377 923.813C382.11 922.364 383.132 921.237 384.444 920.433C385.756 919.62 387.298 919.213 389.068 919.213C390.211 919.213 391.29 919.398 392.304 919.768C393.326 920.131 394.228 920.694 395.009 921.459C395.798 922.223 396.417 923.197 396.868 924.381C397.319 925.556 397.544 926.956 397.544 928.582V929.923H382.343V926.977H393.355C393.347 926.139 393.165 925.395 392.811 924.743C392.457 924.083 391.962 923.564 391.326 923.185C390.698 922.807 389.966 922.618 389.129 922.618C388.235 922.618 387.45 922.835 386.774 923.27C386.098 923.696 385.571 924.26 385.193 924.96C384.822 925.652 384.633 926.413 384.625 927.242V929.814C384.625 930.893 384.822 931.818 385.217 932.591C385.611 933.356 386.163 933.943 386.871 934.354C387.579 934.756 388.408 934.957 389.358 934.957C389.994 934.957 390.57 934.869 391.085 934.692C391.6 934.507 392.047 934.237 392.425 933.883C392.803 933.529 393.089 933.09 393.282 932.567L397.363 933.026C397.106 934.104 396.615 935.046 395.89 935.851C395.174 936.648 394.256 937.268 393.137 937.71C392.018 938.145 390.739 938.362 389.298 938.362ZM409.869 938V913.273H425.951V917.028H414.348V923.741H425.118V927.496H414.348V934.245H426.048V938H409.869ZM433.902 919.455L437.645 926.3L441.448 919.455H446.072L440.482 928.727L446.169 938H441.569L437.645 931.323L433.757 938H429.12L434.771 928.727L429.265 919.455H433.902ZM449.453 944.955V919.455H453.751V922.521H454.005C454.23 922.071 454.548 921.592 454.958 921.085C455.369 920.569 455.924 920.131 456.625 919.768C457.325 919.398 458.218 919.213 459.305 919.213C460.738 919.213 462.03 919.579 463.181 920.312C464.34 921.036 465.257 922.111 465.934 923.536C466.618 924.952 466.96 926.691 466.96 928.751C466.96 930.788 466.626 932.518 465.958 933.943C465.29 935.368 464.38 936.455 463.229 937.203C462.078 937.952 460.774 938.326 459.317 938.326C458.255 938.326 457.373 938.149 456.673 937.795C455.973 937.441 455.409 937.014 454.983 936.515C454.564 936.008 454.238 935.529 454.005 935.078H453.824V944.955H449.453ZM453.739 928.727C453.739 929.927 453.908 930.977 454.246 931.879C454.592 932.78 455.087 933.484 455.731 933.991C456.383 934.491 457.172 934.74 458.098 934.74C459.064 934.74 459.873 934.482 460.525 933.967C461.176 933.444 461.667 932.732 461.998 931.83C462.336 930.921 462.505 929.886 462.505 928.727C462.505 927.576 462.34 926.554 462.01 925.661C461.68 924.767 461.189 924.067 460.537 923.56C459.885 923.053 459.072 922.799 458.098 922.799C457.164 922.799 456.371 923.045 455.719 923.536C455.067 924.027 454.572 924.715 454.234 925.6C453.904 926.486 453.739 927.528 453.739 928.727ZM470.703 938V919.455H474.941V922.545H475.134C475.472 921.475 476.051 920.65 476.873 920.07C477.702 919.483 478.647 919.189 479.71 919.189C479.951 919.189 480.221 919.201 480.519 919.225C480.825 919.241 481.078 919.269 481.279 919.31V923.33C481.094 923.266 480.801 923.21 480.398 923.161C480.004 923.105 479.621 923.077 479.251 923.077C478.454 923.077 477.738 923.25 477.102 923.596C476.474 923.934 475.979 924.405 475.617 925.009C475.255 925.612 475.074 926.308 475.074 927.097V938H470.703ZM491.63 938.362C489.77 938.362 488.165 937.976 486.812 937.203C485.468 936.422 484.434 935.32 483.709 933.895C482.985 932.462 482.623 930.776 482.623 928.836C482.623 926.928 482.985 925.254 483.709 923.813C484.442 922.364 485.464 921.237 486.776 920.433C488.088 919.62 489.63 919.213 491.4 919.213C492.543 919.213 493.622 919.398 494.636 919.768C495.658 920.131 496.56 920.694 497.341 921.459C498.13 922.223 498.749 923.197 499.2 924.381C499.651 925.556 499.876 926.956 499.876 928.582V929.923H484.675V926.977H495.687C495.679 926.139 495.497 925.395 495.143 924.743C494.789 924.083 494.294 923.564 493.658 923.185C493.03 922.807 492.298 922.618 491.461 922.618C490.567 922.618 489.782 922.835 489.106 923.27C488.43 923.696 487.903 924.26 487.525 924.96C487.154 925.652 486.965 926.413 486.957 927.242V929.814C486.957 930.893 487.154 931.818 487.549 932.591C487.943 933.356 488.495 933.943 489.203 934.354C489.911 934.756 490.74 934.957 491.69 934.957C492.326 934.957 492.902 934.869 493.417 934.692C493.932 934.507 494.379 934.237 494.757 933.883C495.135 933.529 495.421 933.09 495.614 932.567L499.695 933.026C499.438 934.104 498.947 935.046 498.222 935.851C497.506 936.648 496.588 937.268 495.469 937.71C494.35 938.145 493.071 938.362 491.63 938.362ZM518.232 924.357L514.247 924.791C514.134 924.389 513.937 924.01 513.656 923.656C513.382 923.302 513.012 923.016 512.545 922.799C512.078 922.582 511.506 922.473 510.83 922.473C509.921 922.473 509.156 922.67 508.536 923.065C507.924 923.459 507.623 923.97 507.631 924.598C507.623 925.137 507.82 925.576 508.222 925.914C508.633 926.252 509.309 926.53 510.251 926.747L513.414 927.423C515.169 927.802 516.473 928.401 517.326 929.222C518.187 930.043 518.622 931.118 518.63 932.446C518.622 933.613 518.28 934.643 517.604 935.537C516.936 936.422 516.006 937.115 514.815 937.614C513.623 938.113 512.255 938.362 510.71 938.362C508.44 938.362 506.612 937.887 505.228 936.938C503.844 935.98 503.018 934.647 502.753 932.941L507.015 932.531C507.208 933.368 507.619 934 508.246 934.426C508.874 934.853 509.691 935.066 510.697 935.066C511.736 935.066 512.569 934.853 513.197 934.426C513.833 934 514.151 933.472 514.151 932.844C514.151 932.313 513.945 931.875 513.535 931.528C513.132 931.182 512.504 930.917 511.651 930.732L508.488 930.067C506.709 929.697 505.393 929.073 504.54 928.196C503.687 927.311 503.264 926.192 503.272 924.839C503.264 923.696 503.574 922.706 504.202 921.869C504.838 921.024 505.719 920.372 506.846 919.913C507.981 919.446 509.289 919.213 510.77 919.213C512.943 919.213 514.654 919.676 515.901 920.602C517.157 921.527 517.934 922.779 518.232 924.357ZM536.892 924.357L532.907 924.791C532.795 924.389 532.597 924.01 532.316 923.656C532.042 923.302 531.672 923.016 531.205 922.799C530.738 922.582 530.167 922.473 529.49 922.473C528.581 922.473 527.816 922.67 527.196 923.065C526.585 923.459 526.283 923.97 526.291 924.598C526.283 925.137 526.48 925.576 526.882 925.914C527.293 926.252 527.969 926.53 528.911 926.747L532.074 927.423C533.829 927.802 535.133 928.401 535.986 929.222C536.847 930.043 537.282 931.118 537.29 932.446C537.282 933.613 536.94 934.643 536.264 935.537C535.596 936.422 534.666 937.115 533.475 937.614C532.283 938.113 530.915 938.362 529.37 938.362C527.1 938.362 525.273 937.887 523.888 936.938C522.504 935.98 521.679 934.647 521.413 932.941L525.675 932.531C525.868 933.368 526.279 934 526.907 934.426C527.534 934.853 528.351 935.066 529.358 935.066C530.396 935.066 531.229 934.853 531.857 934.426C532.493 934 532.811 933.472 532.811 932.844C532.811 932.313 532.605 931.875 532.195 931.528C531.792 931.182 531.165 930.917 530.311 930.732L527.148 930.067C525.369 929.697 524.053 929.073 523.2 928.196C522.347 927.311 521.924 926.192 521.932 924.839C521.924 923.696 522.234 922.706 522.862 921.869C523.498 921.024 524.379 920.372 525.506 919.913C526.641 919.446 527.949 919.213 529.43 919.213C531.603 919.213 533.314 919.676 534.561 920.602C535.817 921.527 536.594 922.779 536.892 924.357ZM540.894 938V919.455H545.265V938H540.894ZM543.092 916.822C542.399 916.822 541.804 916.593 541.305 916.134C540.806 915.667 540.556 915.108 540.556 914.456C540.556 913.796 540.806 913.237 541.305 912.778C541.804 912.311 542.399 912.077 543.092 912.077C543.792 912.077 544.388 912.311 544.879 912.778C545.378 913.237 545.627 913.796 545.627 914.456C545.627 915.108 545.378 915.667 544.879 916.134C544.388 916.593 543.792 916.822 543.092 916.822ZM557.849 938.362C556.038 938.362 554.468 937.964 553.14 937.167C551.812 936.37 550.782 935.255 550.049 933.822C549.325 932.39 548.963 930.715 548.963 928.8C548.963 926.884 549.325 925.206 550.049 923.765C550.782 922.324 551.812 921.205 553.14 920.408C554.468 919.612 556.038 919.213 557.849 919.213C559.66 919.213 561.23 919.612 562.558 920.408C563.886 921.205 564.912 922.324 565.637 923.765C566.369 925.206 566.735 926.884 566.735 928.8C566.735 930.715 566.369 932.39 565.637 933.822C564.912 935.255 563.886 936.37 562.558 937.167C561.23 937.964 559.66 938.362 557.849 938.362ZM557.873 934.861C558.855 934.861 559.676 934.591 560.336 934.052C560.996 933.504 561.487 932.772 561.809 931.854C562.139 930.937 562.304 929.915 562.304 928.788C562.304 927.653 562.139 926.626 561.809 925.709C561.487 924.783 560.996 924.047 560.336 923.499C559.676 922.952 558.855 922.678 557.873 922.678C556.867 922.678 556.03 922.952 555.362 923.499C554.702 924.047 554.207 924.783 553.877 925.709C553.555 926.626 553.394 927.653 553.394 928.788C553.394 929.915 553.555 930.937 553.877 931.854C554.207 932.772 554.702 933.504 555.362 934.052C556.03 934.591 556.867 934.861 557.873 934.861ZM574.816 927.134V938H570.445V919.455H574.623V922.606H574.84C575.266 921.567 575.947 920.742 576.88 920.131C577.822 919.519 578.985 919.213 580.37 919.213C581.65 919.213 582.764 919.487 583.714 920.034C584.672 920.581 585.413 921.374 585.936 922.413C586.467 923.451 586.729 924.711 586.721 926.192V938H582.35V926.868C582.35 925.628 582.028 924.658 581.384 923.958C580.748 923.258 579.867 922.908 578.74 922.908C577.975 922.908 577.295 923.077 576.699 923.415C576.112 923.745 575.649 924.224 575.311 924.852C574.981 925.479 574.816 926.24 574.816 927.134Z" fill="black"/>
<rect x="434.46" y="346" width="182.434" height="182.434" rx="16.2887" transform="rotate(45 434.46 346)" fill="white"/>
<path d="M402.132 447.261V443.727H420.7V447.261H413.507V467H409.325V447.261H402.132ZM429.294 467.341C427.544 467.341 426.033 466.977 424.76 466.25C423.495 465.515 422.521 464.477 421.839 463.136C421.158 461.788 420.817 460.201 420.817 458.375C420.817 456.58 421.158 455.004 421.839 453.648C422.529 452.284 423.491 451.223 424.726 450.466C425.961 449.701 427.411 449.318 429.078 449.318C430.154 449.318 431.169 449.492 432.124 449.841C433.086 450.182 433.934 450.712 434.669 451.432C435.411 452.152 435.995 453.068 436.419 454.182C436.843 455.288 437.055 456.606 437.055 458.136V459.398H422.749V456.625H433.112C433.105 455.837 432.934 455.136 432.601 454.523C432.268 453.902 431.802 453.413 431.203 453.057C430.612 452.701 429.923 452.523 429.135 452.523C428.294 452.523 427.555 452.727 426.919 453.136C426.283 453.538 425.786 454.068 425.43 454.727C425.082 455.379 424.904 456.095 424.896 456.875V459.295C424.896 460.311 425.082 461.182 425.453 461.909C425.824 462.629 426.343 463.182 427.01 463.568C427.677 463.947 428.457 464.136 429.351 464.136C429.949 464.136 430.491 464.053 430.976 463.886C431.461 463.712 431.881 463.458 432.237 463.125C432.593 462.792 432.862 462.379 433.044 461.886L436.885 462.318C436.643 463.333 436.18 464.22 435.499 464.977C434.824 465.727 433.961 466.311 432.908 466.727C431.855 467.136 430.65 467.341 429.294 467.341ZM454.331 454.159L450.581 454.568C450.475 454.189 450.289 453.833 450.024 453.5C449.767 453.167 449.418 452.898 448.979 452.693C448.539 452.489 448.001 452.386 447.365 452.386C446.509 452.386 445.789 452.572 445.206 452.943C444.63 453.314 444.346 453.795 444.354 454.386C444.346 454.894 444.532 455.307 444.911 455.625C445.297 455.943 445.933 456.205 446.82 456.409L449.797 457.045C451.448 457.402 452.676 457.966 453.479 458.739C454.289 459.511 454.698 460.523 454.706 461.773C454.698 462.871 454.376 463.841 453.74 464.682C453.111 465.515 452.236 466.167 451.115 466.636C449.994 467.106 448.706 467.341 447.251 467.341C445.115 467.341 443.395 466.894 442.092 466C440.789 465.098 440.013 463.845 439.763 462.239L443.774 461.852C443.956 462.64 444.342 463.235 444.933 463.636C445.524 464.038 446.293 464.239 447.24 464.239C448.217 464.239 449.001 464.038 449.592 463.636C450.191 463.235 450.49 462.739 450.49 462.148C450.49 461.648 450.297 461.235 449.911 460.909C449.532 460.583 448.941 460.333 448.138 460.159L445.161 459.534C443.486 459.186 442.248 458.598 441.445 457.773C440.642 456.939 440.244 455.886 440.251 454.614C440.244 453.538 440.536 452.606 441.126 451.818C441.725 451.023 442.554 450.409 443.615 449.977C444.683 449.538 445.914 449.318 447.308 449.318C449.354 449.318 450.964 449.754 452.138 450.625C453.32 451.496 454.051 452.674 454.331 454.159ZM466.814 449.545V452.727H456.78V449.545H466.814ZM459.257 445.364H463.371V461.75C463.371 462.303 463.454 462.727 463.621 463.023C463.795 463.311 464.022 463.508 464.303 463.614C464.583 463.72 464.893 463.773 465.234 463.773C465.492 463.773 465.727 463.754 465.939 463.716C466.159 463.678 466.325 463.644 466.439 463.614L467.132 466.83C466.912 466.905 466.598 466.989 466.189 467.08C465.787 467.17 465.295 467.223 464.712 467.239C463.681 467.269 462.753 467.114 461.928 466.773C461.102 466.424 460.446 465.886 459.962 465.159C459.484 464.432 459.25 463.523 459.257 462.432V445.364ZM381.357 490.58H377.107C376.985 489.883 376.762 489.265 376.436 488.727C376.11 488.182 375.705 487.72 375.22 487.341C374.735 486.962 374.182 486.678 373.561 486.489C372.947 486.292 372.285 486.193 371.572 486.193C370.307 486.193 369.186 486.511 368.209 487.148C367.232 487.777 366.466 488.701 365.913 489.92C365.36 491.133 365.084 492.614 365.084 494.364C365.084 496.144 365.36 497.644 365.913 498.864C366.474 500.076 367.239 500.992 368.209 501.614C369.186 502.227 370.304 502.534 371.561 502.534C372.258 502.534 372.91 502.443 373.516 502.261C374.129 502.072 374.679 501.795 375.163 501.432C375.656 501.068 376.069 500.621 376.402 500.091C376.743 499.561 376.978 498.955 377.107 498.273L381.357 498.295C381.197 499.402 380.853 500.439 380.322 501.409C379.8 502.379 379.114 503.235 378.266 503.977C377.417 504.712 376.425 505.288 375.288 505.705C374.152 506.114 372.891 506.318 371.504 506.318C369.459 506.318 367.633 505.845 366.027 504.898C364.421 503.951 363.156 502.583 362.232 500.795C361.307 499.008 360.845 496.864 360.845 494.364C360.845 491.856 361.311 489.712 362.243 487.932C363.175 486.144 364.444 484.777 366.05 483.83C367.656 482.883 369.474 482.409 371.504 482.409C372.8 482.409 374.004 482.591 375.118 482.955C376.232 483.318 377.224 483.852 378.095 484.557C378.966 485.254 379.682 486.11 380.243 487.125C380.811 488.133 381.182 489.284 381.357 490.58ZM392.649 506.341C390.945 506.341 389.467 505.966 388.217 505.216C386.967 504.466 385.998 503.417 385.308 502.068C384.626 500.72 384.286 499.144 384.286 497.341C384.286 495.538 384.626 493.958 385.308 492.602C385.998 491.246 386.967 490.193 388.217 489.443C389.467 488.693 390.945 488.318 392.649 488.318C394.354 488.318 395.831 488.693 397.081 489.443C398.331 490.193 399.297 491.246 399.979 492.602C400.668 493.958 401.013 495.538 401.013 497.341C401.013 499.144 400.668 500.72 399.979 502.068C399.297 503.417 398.331 504.466 397.081 505.216C395.831 505.966 394.354 506.341 392.649 506.341ZM392.672 503.045C393.596 503.045 394.369 502.792 394.99 502.284C395.611 501.769 396.073 501.08 396.376 500.216C396.687 499.352 396.842 498.39 396.842 497.33C396.842 496.261 396.687 495.295 396.376 494.432C396.073 493.561 395.611 492.867 394.99 492.352C394.369 491.837 393.596 491.58 392.672 491.58C391.725 491.58 390.937 491.837 390.308 492.352C389.687 492.867 389.221 493.561 388.911 494.432C388.607 495.295 388.456 496.261 388.456 497.33C388.456 498.39 388.607 499.352 388.911 500.216C389.221 501.08 389.687 501.769 390.308 502.284C390.937 502.792 391.725 503.045 392.672 503.045ZM408.618 495.773V506H404.504V488.545H408.436V491.511H408.641C409.042 490.534 409.682 489.758 410.561 489.182C411.447 488.606 412.542 488.318 413.845 488.318C415.05 488.318 416.099 488.576 416.993 489.091C417.894 489.606 418.591 490.352 419.084 491.33C419.584 492.307 419.83 493.492 419.822 494.886V506H415.709V495.523C415.709 494.356 415.406 493.443 414.8 492.784C414.201 492.125 413.372 491.795 412.311 491.795C411.591 491.795 410.951 491.955 410.391 492.273C409.838 492.583 409.402 493.034 409.084 493.625C408.773 494.216 408.618 494.932 408.618 495.773ZM430.482 506.307C429.11 506.307 427.883 505.955 426.8 505.25C425.716 504.545 424.86 503.523 424.232 502.182C423.603 500.841 423.288 499.212 423.288 497.295C423.288 495.356 423.607 493.72 424.243 492.386C424.887 491.045 425.754 490.034 426.845 489.352C427.936 488.663 429.152 488.318 430.493 488.318C431.516 488.318 432.357 488.492 433.016 488.841C433.675 489.182 434.197 489.595 434.584 490.08C434.97 490.557 435.269 491.008 435.482 491.432H435.652V482.727H439.777V506H435.732V503.25H435.482C435.269 503.674 434.963 504.125 434.561 504.602C434.16 505.072 433.629 505.473 432.97 505.807C432.311 506.14 431.482 506.307 430.482 506.307ZM431.629 502.932C432.5 502.932 433.243 502.697 433.857 502.227C434.47 501.75 434.936 501.087 435.254 500.239C435.572 499.39 435.732 498.402 435.732 497.273C435.732 496.144 435.572 495.163 435.254 494.33C434.944 493.496 434.482 492.848 433.868 492.386C433.262 491.924 432.516 491.693 431.629 491.693C430.713 491.693 429.947 491.932 429.334 492.409C428.72 492.886 428.258 493.545 427.947 494.386C427.637 495.227 427.482 496.189 427.482 497.273C427.482 498.364 427.637 499.337 427.947 500.193C428.266 501.042 428.732 501.712 429.345 502.205C429.966 502.689 430.728 502.932 431.629 502.932ZM444.161 506V488.545H448.274V506H444.161ZM446.229 486.068C445.577 486.068 445.017 485.852 444.547 485.42C444.077 484.981 443.842 484.455 443.842 483.841C443.842 483.22 444.077 482.693 444.547 482.261C445.017 481.822 445.577 481.602 446.229 481.602C446.888 481.602 447.448 481.822 447.911 482.261C448.38 482.693 448.615 483.22 448.615 483.841C448.615 484.455 448.38 484.981 447.911 485.42C447.448 485.852 446.888 486.068 446.229 486.068ZM461.22 488.545V491.727H451.186V488.545H461.22ZM453.663 484.364H457.777V500.75C457.777 501.303 457.86 501.727 458.027 502.023C458.201 502.311 458.429 502.508 458.709 502.614C458.989 502.72 459.3 502.773 459.641 502.773C459.898 502.773 460.133 502.754 460.345 502.716C460.565 502.678 460.732 502.644 460.845 502.614L461.538 505.83C461.319 505.905 461.004 505.989 460.595 506.08C460.194 506.17 459.701 506.223 459.118 506.239C458.088 506.269 457.16 506.114 456.334 505.773C455.508 505.424 454.853 504.886 454.368 504.159C453.891 503.432 453.656 502.523 453.663 501.432V484.364ZM464.661 506V488.545H468.774V506H464.661ZM466.729 486.068C466.077 486.068 465.517 485.852 465.047 485.42C464.577 484.981 464.342 484.455 464.342 483.841C464.342 483.22 464.577 482.693 465.047 482.261C465.517 481.822 466.077 481.602 466.729 481.602C467.388 481.602 467.948 481.822 468.411 482.261C468.88 482.693 469.115 483.22 469.115 483.841C469.115 484.455 468.88 484.981 468.411 485.42C467.948 485.852 467.388 486.068 466.729 486.068ZM480.618 506.341C478.913 506.341 477.436 505.966 476.186 505.216C474.936 504.466 473.966 503.417 473.277 502.068C472.595 500.72 472.254 499.144 472.254 497.341C472.254 495.538 472.595 493.958 473.277 492.602C473.966 491.246 474.936 490.193 476.186 489.443C477.436 488.693 478.913 488.318 480.618 488.318C482.322 488.318 483.8 488.693 485.05 489.443C486.3 490.193 487.266 491.246 487.947 492.602C488.637 493.958 488.982 495.538 488.982 497.341C488.982 499.144 488.637 500.72 487.947 502.068C487.266 503.417 486.3 504.466 485.05 505.216C483.8 505.966 482.322 506.341 480.618 506.341ZM480.641 503.045C481.565 503.045 482.338 502.792 482.959 502.284C483.58 501.769 484.042 501.08 484.345 500.216C484.656 499.352 484.811 498.39 484.811 497.33C484.811 496.261 484.656 495.295 484.345 494.432C484.042 493.561 483.58 492.867 482.959 492.352C482.338 491.837 481.565 491.58 480.641 491.58C479.694 491.58 478.906 491.837 478.277 492.352C477.656 492.867 477.19 493.561 476.879 494.432C476.576 495.295 476.425 496.261 476.425 497.33C476.425 498.39 476.576 499.352 476.879 500.216C477.19 501.08 477.656 501.769 478.277 502.284C478.906 502.792 479.694 503.045 480.641 503.045ZM496.587 495.773V506H492.473V488.545H496.405V491.511H496.609C497.011 490.534 497.651 489.758 498.53 489.182C499.416 488.606 500.511 488.318 501.814 488.318C503.018 488.318 504.068 488.576 504.962 489.091C505.863 489.606 506.56 490.352 507.053 491.33C507.553 492.307 507.799 493.492 507.791 494.886V506H503.678V495.523C503.678 494.356 503.375 493.443 502.768 492.784C502.17 492.125 501.34 491.795 500.28 491.795C499.56 491.795 498.92 491.955 498.359 492.273C497.806 492.583 497.371 493.034 497.053 493.625C496.742 494.216 496.587 494.932 496.587 495.773Z" fill="black"/>
<path d="M562.46 473.492C561.355 473.492 560.46 474.387 560.46 475.492C560.46 476.597 561.355 477.492 562.46 477.492L562.46 473.492ZM776.862 475.492L778.862 475.492L778.861 473.492L776.862 473.492L776.862 475.492ZM777.001 1052.27L777 1054.27L779.001 1054.27L779.001 1052.27L777.001 1052.27ZM436.593 1052.19L436.594 1050.19L434.593 1050.19L434.593 1052.19L436.593 1052.19ZM435.209 1176.27C435.99 1177.05 437.257 1177.05 438.037 1176.27L450.762 1163.53C451.543 1162.75 451.543 1161.49 450.762 1160.71C449.98 1159.93 448.714 1159.93 447.933 1160.71L436.622 1172.02L425.306 1160.71C424.524 1159.93 423.258 1159.93 422.477 1160.71C421.696 1161.49 421.697 1162.76 422.478 1163.54L435.209 1176.27ZM562.46 477.492L776.862 477.492L776.862 473.492L562.46 473.492L562.46 477.492ZM774.862 475.493L775.001 1052.27L779.001 1052.27L778.862 475.492L774.862 475.493ZM777.001 1050.27L436.594 1050.19L436.593 1054.19L777 1054.27L777.001 1050.27ZM434.593 1052.19L434.623 1174.85L438.623 1174.85L438.593 1052.19L434.593 1052.19Z" fill="#3884FF"/>
<path d="M202.461 925.999C203.566 925.999 204.461 925.104 204.461 923.999C204.461 922.895 203.566 921.999 202.461 921.999L202.461 925.999ZM97.4614 923.999L95.4614 923.999L95.4614 925.999L97.4614 925.999L97.4614 923.999ZM97.46 474.999L97.46 472.999L95.46 472.999L95.46 474.999L97.46 474.999ZM306.877 476.413C307.658 475.632 307.658 474.365 306.877 473.584L294.149 460.856C293.368 460.075 292.102 460.075 291.321 460.856C290.54 461.637 290.54 462.904 291.321 463.685L302.634 474.998L291.321 486.312C290.54 487.093 290.54 488.36 291.321 489.141C292.102 489.922 293.368 489.922 294.149 489.141L306.877 476.413ZM202.461 921.999L97.4614 921.999L97.4614 925.999L202.461 925.999L202.461 921.999ZM99.4614 923.999L99.46 474.999L95.46 474.999L95.4614 923.999L99.4614 923.999ZM97.46 476.999L305.463 476.998L305.463 472.998L97.46 472.999L97.46 476.999Z" fill="#3884FF"/>
<path d="M435.46 79C435.46 77.8954 434.565 77 433.46 77C432.355 77 431.46 77.8954 431.46 79H435.46ZM432.046 157.414C432.827 158.195 434.093 158.195 434.874 157.414L447.602 144.686C448.383 143.905 448.383 142.639 447.602 141.858C446.821 141.077 445.555 141.077 444.774 141.858L433.46 153.172L422.146 141.858C421.365 141.077 420.099 141.077 419.318 141.858C418.537 142.639 418.537 143.905 419.318 144.686L432.046 157.414ZM431.46 79V156H435.46V79H431.46Z" fill="#3884FF"/>
<path d="M435.46 268C435.46 266.895 434.565 266 433.46 266C432.355 266 431.46 266.895 431.46 268H435.46ZM432.046 346.414C432.827 347.195 434.093 347.195 434.874 346.414L447.602 333.686C448.383 332.905 448.383 331.639 447.602 330.858C446.821 330.077 445.555 330.077 444.774 330.858L433.46 342.172L422.146 330.858C421.365 330.077 420.099 330.077 419.318 330.858C418.537 331.639 418.537 332.905 419.318 333.686L432.046 346.414ZM431.46 268V345H435.46V268H431.46Z" fill="#3884FF"/>
<path d="M435.46 608C435.46 606.895 434.565 606 433.46 606C432.355 606 431.46 606.895 431.46 608H435.46ZM432.046 686.414C432.827 687.195 434.093 687.195 434.874 686.414L447.602 673.686C448.383 672.905 448.383 671.639 447.602 670.858C446.821 670.077 445.555 670.077 444.774 670.858L433.46 682.172L422.146 670.858C421.365 670.077 420.099 670.077 419.318 670.858C418.537 671.639 418.537 672.905 419.318 673.686L432.046 686.414ZM431.46 608V685H435.46V608H431.46Z" fill="#3884FF"/>
<path d="M437.46 795C437.46 793.895 436.565 793 435.46 793C434.355 793 433.46 793.895 433.46 795H437.46ZM434.046 873.414C434.827 874.195 436.093 874.195 436.874 873.414L449.602 860.686C450.383 859.905 450.383 858.639 449.602 857.858C448.821 857.077 447.555 857.077 446.774 857.858L435.46 869.172L424.146 857.858C423.365 857.077 422.099 857.077 421.318 857.858C420.537 858.639 420.537 859.905 421.318 860.686L434.046 873.414ZM433.46 795V872H437.46V795H433.46Z" fill="#3884FF"/>
<defs>
<linearGradient id="paint0_linear_1085_424" x1="0" y1="0" x2="1208.93" y2="810.268" gradientUnits="userSpaceOnUse">
<stop stop-color="#38BDF8"/>
<stop offset="1" stop-color="#6366F1"/>
</linearGradient>
</defs>
</svg>