<svg width="1314" height="690" fill="none" xmlns="http://www.w3.org/2000/svg"><rect width="1314" height="690" rx="15" fill="url(#prefix__paint0_linear_855_160)"/><g filter="url(#prefix__filter0_d_855_160)"><rect x="50" y="50" width="1214" height="590" rx="15" fill="#fff"/><path d="M661.5 137a2.5 2.5 0 10-5 0h5zm-5 417a2.5 2.5 0 105 0h-5zm0-409.554a2.5 2.5 0 105 0h-5zm5 14.893a2.5 2.5 0 00-5 0h5zm-5 14.893a2.5 2.5 0 105 0h-5zm5 14.893a2.5 2.5 0 10-5 0h5zm-5 14.893a2.5 2.5 0 105 0h-5zm5 14.893a2.5 2.5 0 10-5 0h5zm-5 14.893a2.5 2.5 0 005 0h-5zm5 14.892a2.5 2.5 0 00-5 0h5zm-5 14.893a2.5 2.5 0 105 0h-5zm5 14.893a2.5 2.5 0 10-5 0h5zm-5 14.893a2.5 2.5 0 105 0h-5zm5 14.893a2.5 2.5 0 10-5 0h5zm-5 14.893a2.5 2.5 0 005 0h-5zm5 14.893a2.5 2.5 0 10-5 0h5zm-5 14.892a2.5 2.5 0 105 0h-5zm5 14.893a2.5 2.5 0 00-5 0h5zm-5 14.893a2.5 2.5 0 105 0h-5zm5 14.893a2.5 2.5 0 10-5 0h5zm-5 14.893a2.5 2.5 0 105 0h-5zm5 14.893a2.5 2.5 0 10-5 0h5zm-5 14.893a2.5 2.5 0 005 0h-5zm5 14.892a2.5 2.5 0 00-5 0h5zm-5 14.893a2.5 2.5 0 105 0h-5zm5 14.893a2.5 2.5 0 10-5 0h5zm-5 14.893a2.5 2.5 0 105 0h-5zm5 14.893a2.5 2.5 0 10-5 0h5zm-5 14.893a2.5 2.5 0 005 0h-5zm5 14.893a2.5 2.5 0 10-5 0h5zM656.5 137v7.446h5V137h-5zm0 22.339v14.893h5v-14.893h-5zm0 29.786v14.893h5v-14.893h-5zm0 29.786v14.893h5v-14.893h-5zm0 29.785v14.893h5v-14.893h-5zm0 29.786v14.893h5v-14.893h-5zm0 29.786v14.893h5v-14.893h-5zm0 29.786v14.892h5v-14.892h-5zm0 29.785v14.893h5v-14.893h-5zm0 29.786v14.893h5v-14.893h-5zm0 29.786v14.893h5v-14.893h-5zm0 29.785v14.893h5v-14.893h-5zm0 29.786v14.893h5v-14.893h-5zm0 29.786v14.893h5v-14.893h-5zm0 29.786V554h5v-7.446h-5zM178 303.5a1.5 1.5 0 000-3v3zm1.061 37.561a1.502 1.502 0 000-2.122l-9.546-9.546a1.502 1.502 0 00-2.122 0 1.502 1.502 0 000 2.122l8.486 8.485-8.486 8.485a1.502 1.502 0 000 2.122 1.502 1.502 0 002.122 0l9.546-9.546zM178 300.5h-58v3h58v-3zm-65.5 7.5v26h3v-26h-3zm7.5 33.5h58v-3h-58v3zm-7.5-7.5a7.5 7.5 0 007.5 7.5v-3a4.5 4.5 0 01-4.5-4.5h-3zm7.5-33.5a7.5 7.5 0 00-7.5 7.5h3a4.5 4.5 0 014.5-4.5v-3zM175 415.5a1.5 1.5 0 000-3v3zm3.061 143.561a1.502 1.502 0 000-2.122l-9.546-9.546a1.502 1.502 0 00-2.122 0 1.502 1.502 0 000 2.122l8.486 8.485-8.486 8.485a1.502 1.502 0 000 2.122 1.502 1.502 0 002.122 0l9.546-9.546zM175 412.5h-56v3h56v-3zm-63.5 7.5v132h3V420h-3zm7.5 139.5h58v-3h-58v3zm-7.5-7.5a7.5 7.5 0 007.5 7.5v-3a4.5 4.5 0 01-4.5-4.5h-3zm7.5-139.5a7.5 7.5 0 00-7.5 7.5h3a4.5 4.5 0 014.5-4.5v-3z" fill="#3884FF"/><path d="M184.38 237v-2.296h5.46v-10.808h-4.76V221.6h7.28v13.104h5.18V237h-13.16zm6.44-18.172c-.616 0-1.101-.159-1.456-.476-.355-.317-.532-.747-.532-1.288 0-.56.177-.999.532-1.316.355-.336.84-.504 1.456-.504s1.101.168 1.456.504c.355.317.532.756.532 1.316 0 .541-.177.971-.532 1.288-.355.317-.84.476-1.456.476zM201.365 237v-15.4h2.52v2.94h.028c.131-1.027.551-1.82 1.26-2.38.709-.56 1.652-.84 2.828-.84 1.549 0 2.781.476 3.696 1.428s1.372 2.249 1.372 3.892V237h-2.52v-10.08c0-1.101-.299-1.941-.896-2.52-.579-.597-1.372-.896-2.38-.896-1.045 0-1.876.317-2.492.952-.597.635-.896 1.549-.896 2.744v9.8h-2.52zm24.293 0c-1.325 0-2.361-.355-3.108-1.064-.728-.709-1.092-1.708-1.092-2.996v-9.044h-4.34V221.6h4.34v-4.34h2.52v4.34h6.16v2.296h-6.16v9.044c0 1.176.56 1.764 1.68 1.764h4.2V237h-4.2z" fill="#973FFA"/><path d="M251.732 237v-15.4h2.52v2.94h.028c.131-1.027.551-1.82 1.26-2.38.71-.56 1.652-.84 2.828-.84 1.55 0 2.782.476 3.696 1.428.915.952 1.372 2.249 1.372 3.892V237h-2.52v-10.08c0-1.101-.298-1.941-.896-2.52-.578-.597-1.372-.896-2.38-.896-1.045 0-1.876.317-2.492.952-.597.635-.896 1.549-.896 2.744v9.8h-2.52zm22.585.28c-1.773 0-3.192-.523-4.256-1.568-1.064-1.064-1.596-2.501-1.596-4.312v-9.8h2.52v9.8c0 1.157.299 2.063.896 2.716.598.635 1.41.952 2.436.952 1.046 0 1.867-.317 2.464-.952.616-.653.924-1.559.924-2.716v-9.8h2.52v9.8c0 1.811-.541 3.248-1.624 4.312-1.082 1.045-2.51 1.568-4.284 1.568zm10.265-.28v-15.4h2.212v1.848h.168c.112-.653.383-1.167.812-1.54.448-.392 1.008-.588 1.68-.588 1.326 0 2.166.709 2.52 2.128h.112c.112-.653.392-1.167.84-1.54.467-.392 1.036-.588 1.708-.588.971 0 1.718.364 2.24 1.092.542.728.812 1.689.812 2.884V237h-2.324v-11.732c0-.635-.14-1.129-.42-1.484-.261-.355-.653-.532-1.176-.532-.504 0-.905.177-1.204.532-.28.336-.42.821-.42 1.456V237h-2.016v-11.732c0-.653-.149-1.148-.448-1.484-.28-.355-.681-.532-1.204-.532-.522 0-.914.177-1.176.532-.261.336-.392.821-.392 1.456V237h-2.324zm24.237.28c-1.157 0-2.109-.28-2.856-.84-.746-.579-1.185-1.372-1.316-2.38h-.028V237h-2.52v-20.44h2.52v4.48l-.056 3.5h.084c.131-.989.57-1.773 1.316-2.352.747-.579 1.699-.868 2.856-.868 1.55 0 2.791.513 3.724 1.54.934 1.027 1.4 2.427 1.4 4.2v4.508c0 1.755-.466 3.145-1.4 4.172-.933 1.027-2.174 1.54-3.724 1.54zm-.84-2.184c1.064 0 1.904-.317 2.52-.952.616-.635.924-1.549.924-2.744v-4.2c0-1.195-.308-2.109-.924-2.744-.616-.635-1.456-.952-2.52-.952-1.026 0-1.848.327-2.464.98-.597.653-.896 1.559-.896 2.716v4.2c0 1.157.299 2.063.896 2.716.616.653 1.438.98 2.464.98zm16.734 2.184c-1.214 0-2.278-.243-3.192-.728a5.268 5.268 0 01-2.1-2.044c-.486-.896-.728-1.932-.728-3.108v-4.2c0-1.195.242-2.231.728-3.108a5.268 5.268 0 012.1-2.044c.914-.485 1.978-.728 3.192-.728 1.213 0 2.268.243 3.164.728a5.049 5.049 0 012.1 2.044c.504.877.756 1.913.756 3.108v2.716h-9.576v1.484c0 1.213.308 2.147.924 2.8.616.635 1.493.952 2.632.952.97 0 1.754-.168 2.352-.504a2.226 2.226 0 001.092-1.568h2.52c-.168 1.288-.803 2.315-1.904 3.08-1.083.747-2.436 1.12-4.06 1.12zm-3.556-9.268h7.112v-.812c0-1.213-.308-2.147-.924-2.8-.598-.653-1.475-.98-2.632-.98-1.139 0-2.016.327-2.632.98-.616.653-.924 1.587-.924 2.8v.812zM336.21 237v-15.4h2.464v2.744c.504-2.016 1.857-3.024 4.06-3.024 1.624 0 2.912.513 3.864 1.54.97 1.008 1.456 2.38 1.456 4.116v.924h-2.52v-.7c0-1.213-.299-2.137-.896-2.772-.579-.653-1.41-.98-2.492-.98-1.064 0-1.904.327-2.52.98-.598.653-.896 1.577-.896 2.772v9.8h-2.52zm32.85-11.48v-2.24h12.04v2.24h-12.04zm0 6.72V230h12.04v2.24h-12.04zm39.542 5.04c-1.662 0-3.024-.429-4.088-1.288s-1.69-2.016-1.876-3.472h2.52c.093.803.438 1.428 1.036 1.876.597.429 1.409.644 2.436.644 1.176 0 2.053-.317 2.632-.952.597-.635.896-1.531.896-2.688v-1.988c0-1.157-.299-2.053-.896-2.688-.579-.635-1.447-.952-2.604-.952-.728 0-1.363.196-1.904.588a3.15 3.15 0 00-1.176 1.512h-2.52l.14-11.312h10.752v2.296h-8.316l-.084 6.804h.112c.168-.653.578-1.167 1.232-1.54.672-.373 1.512-.56 2.52-.56 1.661-.019 2.949.495 3.864 1.54.933 1.027 1.4 2.464 1.4 4.312v1.988c0 1.811-.532 3.248-1.596 4.312-1.064 1.045-2.558 1.568-4.48 1.568zm16.565-11.76c-.616 0-1.12-.196-1.512-.588-.392-.392-.588-.896-.588-1.512 0-.597.196-1.092.588-1.484a2.055 2.055 0 011.512-.616h.56c.597 0 1.092.205 1.484.616.411.392.616.887.616 1.484 0 .616-.196 1.12-.588 1.512-.392.392-.896.588-1.512.588h-.56zm-3.36 15.96l2.24-8.708h3.64l-3.64 8.708h-2.24z" fill="#000"/><path d="M184.38 309v-2.296h5.46v-10.808h-4.76V293.6h7.28v13.104h5.18V309h-13.16zm6.44-18.172c-.616 0-1.101-.159-1.456-.476-.355-.317-.532-.747-.532-1.288 0-.56.177-.999.532-1.316.355-.336.84-.504 1.456-.504s1.101.168 1.456.504c.355.317.532.756.532 1.316 0 .541-.177.971-.532 1.288-.355.317-.84.476-1.456.476zM204.949 309v-11.564h-4.48v-2.296h4.48v-2.66c0-1.213.383-2.165 1.148-2.856.765-.709 1.82-1.064 3.164-1.064h4.508v2.296h-4.508c-1.195 0-1.792.541-1.792 1.624v2.66h6.3v2.296h-6.3V309h-2.52zM190.4 420.28c-1.213 0-2.277-.243-3.192-.728a5.268 5.268 0 01-2.1-2.044c-.485-.896-.728-1.932-.728-3.108v-4.2c0-1.195.243-2.231.728-3.108a5.268 5.268 0 012.1-2.044c.915-.485 1.979-.728 3.192-.728s2.268.243 3.164.728a5.037 5.037 0 012.1 2.044c.504.877.756 1.913.756 3.108v2.716h-9.576v1.484c0 1.213.308 2.147.924 2.8.616.635 1.493.952 2.632.952.971 0 1.755-.168 2.352-.504a2.226 2.226 0 001.092-1.568h2.52c-.168 1.288-.803 2.315-1.904 3.08-1.083.747-2.436 1.12-4.06 1.12zm-3.556-9.268h7.112v-.812c0-1.213-.308-2.147-.924-2.8-.597-.653-1.475-.98-2.632-.98-1.139 0-2.016.327-2.632.98-.616.653-.924 1.587-.924 2.8v.812zM209.429 420c-1.363 0-2.455-.392-3.276-1.176-.803-.803-1.204-1.857-1.204-3.164v-13.804h-5.32v-2.296h7.84v16.1c0 .635.177 1.139.532 1.512.355.355.831.532 1.428.532h4.76V420h-4.76zm14.073.224c-1.587 0-2.847-.355-3.78-1.064-.933-.728-1.475-1.708-1.624-2.94h2.52c.112.541.411.971.896 1.288.504.317 1.167.476 1.988.476h1.176c.989 0 1.727-.196 2.212-.588.485-.411.728-.952.728-1.624 0-1.269-.868-2.044-2.604-2.324l-2.072-.336c-1.512-.261-2.641-.728-3.388-1.4-.728-.691-1.092-1.689-1.092-2.996 0-1.381.439-2.445 1.316-3.192.877-.765 2.193-1.148 3.948-1.148h1.064c1.475 0 2.66.345 3.556 1.036.896.691 1.437 1.624 1.624 2.8h-2.52c-.112-.485-.392-.868-.84-1.148-.448-.299-1.055-.448-1.82-.448h-1.064c-.952 0-1.652.177-2.1.532-.429.355-.644.887-.644 1.596 0 .635.187 1.101.56 1.4.373.299.961.513 1.764.644l2.072.336c1.661.261 2.865.747 3.612 1.456.765.709 1.148 1.736 1.148 3.08 0 1.419-.457 2.539-1.372 3.36-.896.803-2.259 1.204-4.088 1.204h-1.176zm17.265.056c-1.213 0-2.277-.243-3.192-.728a5.268 5.268 0 01-2.1-2.044c-.485-.896-.728-1.932-.728-3.108v-4.2c0-1.195.243-2.231.728-3.108a5.268 5.268 0 012.1-2.044c.915-.485 1.979-.728 3.192-.728 1.214 0 2.268.243 3.164.728a5.037 5.037 0 012.1 2.044c.504.877.756 1.913.756 3.108v2.716h-9.576v1.484c0 1.213.308 2.147.924 2.8.616.635 1.494.952 2.632.952.971 0 1.755-.168 2.352-.504a2.22 2.22 0 001.092-1.568h2.52c-.168 1.288-.802 2.315-1.904 3.08-1.082.747-2.436 1.12-4.06 1.12zm-3.556-9.268h7.112v-.812c0-1.213-.308-2.147-.924-2.8-.597-.653-1.474-.98-2.632-.98-1.138 0-2.016.327-2.632.98-.616.653-.924 1.587-.924 2.8v.812z" fill="#973FFA"/><path d="M229.158 312.36c-2.651-.653-4.713-1.941-6.188-3.864-1.475-1.923-2.212-4.275-2.212-7.056v-5.04c0-1.829.336-3.481 1.008-4.956a10.561 10.561 0 012.912-3.78c1.269-1.027 2.763-1.755 4.48-2.184v2.38a6.825 6.825 0 00-3.108 1.624c-.877.784-1.559 1.764-2.044 2.94-.485 1.176-.728 2.501-.728 3.976v5.04c0 1.437.233 2.744.7 3.92.485 1.176 1.167 2.156 2.044 2.94a7.326 7.326 0 003.136 1.568v2.492zm5.785-3.36v-15.4h2.52v2.94h.028c.131-1.027.551-1.82 1.26-2.38.71-.56 1.652-.84 2.828-.84 1.55 0 2.782.476 3.696 1.428.915.952 1.372 2.249 1.372 3.892V309h-2.52v-10.08c0-1.101-.298-1.941-.896-2.52-.578-.597-1.372-.896-2.38-.896-1.045 0-1.876.317-2.492.952-.597.635-.896 1.549-.896 2.744v9.8h-2.52zm22.585.28c-1.773 0-3.192-.523-4.256-1.568-1.064-1.064-1.596-2.501-1.596-4.312v-9.8h2.52v9.8c0 1.157.299 2.063.896 2.716.598.635 1.41.952 2.436.952 1.046 0 1.867-.317 2.464-.952.616-.653.924-1.559.924-2.716v-9.8h2.52v9.8c0 1.811-.541 3.248-1.624 4.312-1.082 1.045-2.51 1.568-4.284 1.568zm10.265-.28v-15.4h2.212v1.848h.168c.112-.653.383-1.167.812-1.54.448-.392 1.008-.588 1.68-.588 1.326 0 2.166.709 2.52 2.128h.112c.112-.653.392-1.167.84-1.54.467-.392 1.036-.588 1.708-.588.971 0 1.718.364 2.24 1.092.542.728.812 1.689.812 2.884V309h-2.324v-11.732c0-.635-.14-1.129-.42-1.484-.261-.355-.653-.532-1.176-.532-.504 0-.905.177-1.204.532-.28.336-.42.821-.42 1.456V309h-2.016v-11.732c0-.653-.149-1.148-.448-1.484-.28-.355-.681-.532-1.204-.532-.522 0-.914.177-1.176.532-.261.336-.392.821-.392 1.456V309h-2.324zm24.237.28c-1.157 0-2.109-.28-2.856-.84-.746-.579-1.185-1.372-1.316-2.38h-.028V309h-2.52v-20.44h2.52v4.48l-.056 3.5h.084c.131-.989.57-1.773 1.316-2.352.747-.579 1.699-.868 2.856-.868 1.55 0 2.791.513 3.724 1.54.934 1.027 1.4 2.427 1.4 4.2v4.508c0 1.755-.466 3.145-1.4 4.172-.933 1.027-2.174 1.54-3.724 1.54zm-.84-2.184c1.064 0 1.904-.317 2.52-.952.616-.635.924-1.549.924-2.744v-4.2c0-1.195-.308-2.109-.924-2.744-.616-.635-1.456-.952-2.52-.952-1.026 0-1.848.327-2.464.98-.597.653-.896 1.559-.896 2.716v4.2c0 1.157.299 2.063.896 2.716.616.653 1.438.98 2.464.98zm16.733 2.184c-1.213 0-2.277-.243-3.192-.728a5.268 5.268 0 01-2.1-2.044c-.485-.896-.728-1.932-.728-3.108v-4.2c0-1.195.243-2.231.728-3.108a5.268 5.268 0 012.1-2.044c.915-.485 1.979-.728 3.192-.728 1.214 0 2.268.243 3.164.728a5.037 5.037 0 012.1 2.044c.504.877.756 1.913.756 3.108v2.716h-9.576v1.484c0 1.213.308 2.147.924 2.8.616.635 1.494.952 2.632.952.971 0 1.755-.168 2.352-.504a2.22 2.22 0 001.092-1.568h2.52c-.168 1.288-.802 2.315-1.904 3.08-1.082.747-2.436 1.12-4.06 1.12zm-3.556-9.268h7.112v-.812c0-1.213-.308-2.147-.924-2.8-.597-.653-1.474-.98-2.632-.98-1.138 0-2.016.327-2.632.98-.616.653-.924 1.587-.924 2.8v.812zM319.421 309v-15.4h2.464v2.744c.504-2.016 1.857-3.024 4.06-3.024 1.624 0 2.912.513 3.864 1.54.97 1.008 1.456 2.38 1.456 4.116v.924h-2.52v-.7c0-1.213-.299-2.137-.896-2.772-.579-.653-1.41-.98-2.492-.98-1.064 0-1.904.327-2.52.98-.598.653-.896 1.577-.896 2.772v9.8h-2.52zm32.85-1.82v-2.436l8.68-4.256c.354-.168.681-.308.98-.42.317-.131.55-.215.7-.252a6.764 6.764 0 01-.728-.224c-.318-.131-.635-.28-.952-.448l-8.68-4.284v-2.52l12.04 6.02v2.8l-12.04 6.02zm39.598 2.1c-1.886 0-3.388-.541-4.508-1.624-1.102-1.101-1.652-2.567-1.652-4.396v-8.96c0-1.829.55-3.285 1.652-4.368 1.12-1.101 2.622-1.652 4.508-1.652 1.885 0 3.378.551 4.48 1.652 1.12 1.083 1.68 2.539 1.68 4.368v8.96c0 1.213-.252 2.277-.756 3.192a5.313 5.313 0 01-2.156 2.1c-.915.485-1.998.728-3.248.728zm0-2.156c1.12 0 2.016-.355 2.688-1.064.69-.728 1.036-1.661 1.036-2.8v-8.96c0-1.139-.346-2.063-1.036-2.772-.672-.728-1.568-1.092-2.688-1.092s-2.026.364-2.716 1.092c-.672.709-1.008 1.633-1.008 2.772v8.96c0 1.139.336 2.072 1.008 2.8.69.709 1.596 1.064 2.716 1.064zm0-6.692c-.504 0-.915-.159-1.232-.476-.299-.317-.448-.737-.448-1.26 0-.504.149-.905.448-1.204.317-.317.728-.476 1.232-.476s.905.159 1.204.476c.317.299.476.7.476 1.204 0 .523-.159.943-.476 1.26-.299.317-.7.476-1.204.476zm11.609 11.928v-2.492c1.213-.28 2.258-.803 3.136-1.568.877-.784 1.549-1.764 2.016-2.94.485-1.176.728-2.483.728-3.92v-5.04c0-1.475-.243-2.8-.728-3.976-.486-1.176-1.167-2.156-2.044-2.94a6.835 6.835 0 00-3.108-1.624v-2.38c1.736.429 3.229 1.157 4.48 2.184a10.292 10.292 0 012.884 3.78c.69 1.475 1.036 3.127 1.036 4.956v5.04c0 2.781-.738 5.133-2.212 7.056-1.475 1.923-3.538 3.211-6.188 3.864zm43.518-.28c-1.643 0-2.94-.411-3.892-1.232-.933-.803-1.363-1.941-1.288-3.416l.28-4.592c.056-.989-.093-1.699-.448-2.128-.355-.448-1.139-.672-2.352-.672h-3.08v-2.24h3.08c1.213 0 1.997-.215 2.352-.644.355-.448.504-1.167.448-2.156l-.28-4.592c-.075-1.475.355-2.613 1.288-3.416.952-.821 2.249-1.232 3.892-1.232h1.26V288h-1.26c-.877 0-1.549.205-2.016.616-.467.392-.681.989-.644 1.792l.28 4.592c.056 1.064-.168 1.941-.672 2.632-.485.691-1.195 1.12-2.128 1.288.915.168 1.624.597 2.128 1.288.504.691.728 1.568.672 2.632l-.28 4.592c-.037.803.177 1.4.644 1.792.467.411 1.139.616 2.016.616h1.26v2.24h-1.26zm-262.616 74v-2.24h1.26c.877 0 1.549-.205 2.016-.616.467-.392.681-.989.644-1.792l-.28-4.592c-.056-1.064.168-1.941.672-2.632.504-.691 1.213-1.12 2.128-1.288-.933-.168-1.652-.597-2.156-1.288-.485-.691-.7-1.568-.644-2.632l.28-4.592c.037-.803-.177-1.4-.644-1.792-.467-.411-1.139-.616-2.016-.616h-1.26v-2.24h1.26c1.661 0 2.959.411 3.892 1.232.952.803 1.381 1.941 1.288 3.416l-.28 4.592c-.056.989.093 1.708.448 2.156.355.429 1.139.644 2.352.644h3.08v2.24h-3.08c-1.195 0-1.979.224-2.352.672-.355.429-.504 1.139-.448 2.128l.28 4.592c.093 1.475-.336 2.613-1.288 3.416-.933.821-2.231 1.232-3.892 1.232h-1.26zm94.725 37c-1.642 0-2.94-.411-3.892-1.232-.933-.803-1.362-1.941-1.288-3.416l.28-4.592c.056-.989-.093-1.699-.448-2.128-.354-.448-1.138-.672-2.352-.672h-3.08v-2.24h3.08c1.214 0 1.998-.215 2.352-.644.355-.448.504-1.167.448-2.156l-.28-4.592c-.074-1.475.355-2.613 1.288-3.416.952-.821 2.25-1.232 3.892-1.232h1.26V399h-1.26c-.877 0-1.549.205-2.016.616-.466.392-.681.989-.644 1.792l.28 4.592c.056 1.064-.168 1.941-.672 2.632-.485.691-1.194 1.12-2.128 1.288.915.168 1.624.597 2.128 1.288.504.691.728 1.568.672 2.632l-.28 4.592c-.037.803.178 1.4.644 1.792.467.411 1.139.616 2.016.616h1.26v2.24h-1.26zm-94.725 74v-2.24h1.26c.877 0 1.549-.205 2.016-.616.467-.392.681-.989.644-1.792l-.28-4.592c-.056-1.064.168-1.941.672-2.632.504-.691 1.213-1.12 2.128-1.288-.933-.168-1.652-.597-2.156-1.288-.485-.691-.7-1.568-.644-2.632l.28-4.592c.037-.803-.177-1.4-.644-1.792-.467-.411-1.139-.616-2.016-.616h-1.26v-2.24h1.26c1.661 0 2.959.411 3.892 1.232.952.803 1.381 1.941 1.288 3.416l-.28 4.592c-.056.989.093 1.708.448 2.156.355.429 1.139.644 2.352.644h3.08v2.24h-3.08c-1.195 0-1.979.224-2.352.672-.355.429-.504 1.139-.448 2.128l.28 4.592c.093 1.475-.336 2.613-1.288 3.416-.933.821-2.231 1.232-3.892 1.232h-1.26z" fill="#000"/><path d="M232.367 349.08l9.94-26.32h2.66l-9.94 26.32h-2.66zm-12.6 0l9.94-26.32h2.66l-9.94 26.32h-2.66zm37.901-2.8c-1.866 0-3.36-.523-4.48-1.568-1.101-1.045-1.652-2.483-1.652-4.312v-4.2c0-1.829.551-3.267 1.652-4.312 1.12-1.045 2.614-1.568 4.48-1.568 1.774 0 3.202.476 4.284 1.428 1.083.952 1.652 2.249 1.708 3.892h-2.52c-.056-.989-.392-1.745-1.008-2.268-.597-.541-1.418-.812-2.464-.812-1.101 0-1.978.317-2.632.952-.653.616-.98 1.503-.98 2.66v4.228c0 1.157.327 2.053.98 2.688.654.635 1.531.952 2.632.952 1.046 0 1.867-.271 2.464-.812.616-.541.952-1.297 1.008-2.268h2.52c-.056 1.643-.625 2.94-1.708 3.892-1.082.952-2.51 1.428-4.284 1.428zm16.677-.056c-1.829 0-3.294-.523-4.396-1.568-1.082-1.045-1.624-2.483-1.624-4.312v-4.088c0-1.829.542-3.267 1.624-4.312 1.102-1.045 2.567-1.568 4.396-1.568 1.83 0 3.286.523 4.368 1.568 1.102 1.027 1.652 2.455 1.652 4.284v4.116c0 1.829-.55 3.267-1.652 4.312-1.082 1.045-2.538 1.568-4.368 1.568zm0-2.24c1.102 0 1.96-.308 2.576-.924.616-.616.924-1.521.924-2.716v-4.088c0-1.195-.308-2.1-.924-2.716-.616-.616-1.474-.924-2.576-.924-1.082 0-1.941.308-2.576.924-.616.616-.924 1.521-.924 2.716v4.088c0 1.195.308 2.1.924 2.716.635.616 1.494.924 2.576.924zm15.893 2.296c-1.53 0-2.772-.513-3.724-1.54-.933-1.027-1.4-2.417-1.4-4.172v-4.508c0-1.773.467-3.173 1.4-4.2.934-1.027 2.175-1.54 3.724-1.54 1.158 0 2.11.289 2.856.868.747.579 1.186 1.363 1.316 2.352h.084l-.056-3.5v-4.48h2.52V346h-2.52v-2.94h-.028c-.13 1.008-.569 1.801-1.316 2.38-.746.56-1.698.84-2.856.84zm.84-2.184c1.046 0 1.867-.327 2.464-.98.598-.653.896-1.559.896-2.716v-4.2c0-1.157-.298-2.063-.896-2.716-.597-.653-1.418-.98-2.464-.98-1.064 0-1.904.317-2.52.952-.616.635-.924 1.549-.924 2.744v4.2c0 1.195.308 2.109.924 2.744.616.635 1.456.952 2.52.952zm16.845 2.184c-1.213 0-2.277-.243-3.192-.728a5.268 5.268 0 01-2.1-2.044c-.485-.896-.728-1.932-.728-3.108v-4.2c0-1.195.243-2.231.728-3.108a5.268 5.268 0 012.1-2.044c.915-.485 1.979-.728 3.192-.728 1.214 0 2.268.243 3.164.728a5.037 5.037 0 012.1 2.044c.504.877.756 1.913.756 3.108v2.716h-9.576v1.484c0 1.213.308 2.147.924 2.8.616.635 1.494.952 2.632.952.971 0 1.755-.168 2.352-.504a2.22 2.22 0 001.092-1.568h2.52c-.168 1.288-.802 2.315-1.904 3.08-1.082.747-2.436 1.12-4.06 1.12zm-3.556-9.268h7.112v-.812c0-1.213-.308-2.147-.924-2.8-.597-.653-1.474-.98-2.632-.98-1.138 0-2.016.327-2.632.98-.616.653-.924 1.587-.924 2.8v.812zm-72 123.068l9.94-26.32h2.66l-9.94 26.32h-2.66zm-12.6 0l9.94-26.32h2.66l-9.94 26.32h-2.66zm37.901-2.8c-1.866 0-3.36-.523-4.48-1.568-1.101-1.045-1.652-2.483-1.652-4.312v-4.2c0-1.829.551-3.267 1.652-4.312 1.12-1.045 2.614-1.568 4.48-1.568 1.774 0 3.202.476 4.284 1.428 1.083.952 1.652 2.249 1.708 3.892h-2.52c-.056-.989-.392-1.745-1.008-2.268-.597-.541-1.418-.812-2.464-.812-1.101 0-1.978.317-2.632.952-.653.616-.98 1.503-.98 2.66v4.228c0 1.157.327 2.053.98 2.688.654.635 1.531.952 2.632.952 1.046 0 1.867-.271 2.464-.812.616-.541.952-1.297 1.008-2.268h2.52c-.056 1.643-.625 2.94-1.708 3.892-1.082.952-2.51 1.428-4.284 1.428zm16.677-.056c-1.829 0-3.294-.523-4.396-1.568-1.082-1.045-1.624-2.483-1.624-4.312v-4.088c0-1.829.542-3.267 1.624-4.312 1.102-1.045 2.567-1.568 4.396-1.568 1.83 0 3.286.523 4.368 1.568 1.102 1.027 1.652 2.455 1.652 4.284v4.116c0 1.829-.55 3.267-1.652 4.312-1.082 1.045-2.538 1.568-4.368 1.568zm0-2.24c1.102 0 1.96-.308 2.576-.924.616-.616.924-1.521.924-2.716v-4.088c0-1.195-.308-2.1-.924-2.716-.616-.616-1.474-.924-2.576-.924-1.082 0-1.941.308-2.576.924-.616.616-.924 1.521-.924 2.716v4.088c0 1.195.308 2.1.924 2.716.635.616 1.494.924 2.576.924zm15.893 2.296c-1.53 0-2.772-.513-3.724-1.54-.933-1.027-1.4-2.417-1.4-4.172v-4.508c0-1.773.467-3.173 1.4-4.2.934-1.027 2.175-1.54 3.724-1.54 1.158 0 2.11.289 2.856.868.747.579 1.186 1.363 1.316 2.352h.084l-.056-3.5v-4.48h2.52V457h-2.52v-2.94h-.028c-.13 1.008-.569 1.801-1.316 2.38-.746.56-1.698.84-2.856.84zm.84-2.184c1.046 0 1.867-.327 2.464-.98.598-.653.896-1.559.896-2.716v-4.2c0-1.157-.298-2.063-.896-2.716-.597-.653-1.418-.98-2.464-.98-1.064 0-1.904.317-2.52.952-.616.635-.924 1.549-.924 2.744v4.2c0 1.195.308 2.109.924 2.744.616.635 1.456.952 2.52.952zm16.845 2.184c-1.213 0-2.277-.243-3.192-.728a5.268 5.268 0 01-2.1-2.044c-.485-.896-.728-1.932-.728-3.108v-4.2c0-1.195.243-2.231.728-3.108a5.268 5.268 0 012.1-2.044c.915-.485 1.979-.728 3.192-.728 1.214 0 2.268.243 3.164.728a5.037 5.037 0 012.1 2.044c.504.877.756 1.913.756 3.108v2.716h-9.576v1.484c0 1.213.308 2.147.924 2.8.616.635 1.494.952 2.632.952.971 0 1.755-.168 2.352-.504a2.22 2.22 0 001.092-1.568h2.52c-.168 1.288-.802 2.315-1.904 3.08-1.082.747-2.436 1.12-4.06 1.12zm-3.556-9.268h7.112v-.812c0-1.213-.308-2.147-.924-2.8-.597-.653-1.474-.98-2.632-.98-1.138 0-2.016.327-2.632.98-.616.653-.924 1.587-.924 2.8v.812zM198.789 571.08l9.94-26.32h2.66l-9.94 26.32h-2.66zm-12.6 0l9.94-26.32h2.66l-9.94 26.32h-2.66zm37.901-2.8c-1.867 0-3.36-.523-4.48-1.568-1.101-1.045-1.652-2.483-1.652-4.312v-4.2c0-1.829.551-3.267 1.652-4.312 1.12-1.045 2.613-1.568 4.48-1.568 1.773 0 3.201.476 4.284 1.428 1.083.952 1.652 2.249 1.708 3.892h-2.52c-.056-.989-.392-1.745-1.008-2.268-.597-.541-1.419-.812-2.464-.812-1.101 0-1.979.317-2.632.952-.653.616-.98 1.503-.98 2.66v4.228c0 1.157.327 2.053.98 2.688.653.635 1.531.952 2.632.952 1.045 0 1.867-.271 2.464-.812.616-.541.952-1.297 1.008-2.268h2.52c-.056 1.643-.625 2.94-1.708 3.892s-2.511 1.428-4.284 1.428zm16.677-.056c-1.829 0-3.294-.523-4.396-1.568-1.082-1.045-1.624-2.483-1.624-4.312v-4.088c0-1.829.542-3.267 1.624-4.312 1.102-1.045 2.567-1.568 4.396-1.568 1.83 0 3.286.523 4.368 1.568 1.102 1.027 1.652 2.455 1.652 4.284v4.116c0 1.829-.55 3.267-1.652 4.312-1.082 1.045-2.538 1.568-4.368 1.568zm0-2.24c1.102 0 1.96-.308 2.576-.924.616-.616.924-1.521.924-2.716v-4.088c0-1.195-.308-2.1-.924-2.716-.616-.616-1.474-.924-2.576-.924-1.082 0-1.941.308-2.576.924-.616.616-.924 1.521-.924 2.716v4.088c0 1.195.308 2.1.924 2.716.635.616 1.494.924 2.576.924zm15.893 2.296c-1.53 0-2.772-.513-3.724-1.54-.933-1.027-1.4-2.417-1.4-4.172v-4.508c0-1.773.467-3.173 1.4-4.2.934-1.027 2.175-1.54 3.724-1.54 1.158 0 2.11.289 2.856.868.747.579 1.186 1.363 1.316 2.352h.084l-.056-3.5v-4.48h2.52V568h-2.52v-2.94h-.028c-.13 1.008-.569 1.801-1.316 2.38-.746.56-1.698.84-2.856.84zm.84-2.184c1.046 0 1.867-.327 2.464-.98.598-.653.896-1.559.896-2.716v-4.2c0-1.157-.298-2.063-.896-2.716-.597-.653-1.418-.98-2.464-.98-1.064 0-1.904.317-2.52.952-.616.635-.924 1.549-.924 2.744v4.2c0 1.195.308 2.109.924 2.744.616.635 1.456.952 2.52.952zm16.845 2.184c-1.213 0-2.277-.243-3.192-.728a5.268 5.268 0 01-2.1-2.044c-.485-.896-.728-1.932-.728-3.108v-4.2c0-1.195.243-2.231.728-3.108a5.268 5.268 0 012.1-2.044c.915-.485 1.979-.728 3.192-.728 1.214 0 2.268.243 3.164.728a5.037 5.037 0 012.1 2.044c.504.877.756 1.913.756 3.108v2.716h-9.576v1.484c0 1.213.308 2.147.924 2.8.616.635 1.494.952 2.632.952.971 0 1.755-.168 2.352-.504a2.22 2.22 0 001.092-1.568h2.52c-.168 1.288-.802 2.315-1.904 3.08-1.082.747-2.436 1.12-4.06 1.12zm-3.556-9.268h7.112v-.812c0-1.213-.308-2.147-.924-2.8-.597-.653-1.474-.98-2.632-.98-1.138 0-2.016.327-2.632.98-.616.653-.924 1.587-.924 2.8v.812zm35.79 9.268c-1.624 0-2.902-.411-3.836-1.232-.933-.84-1.4-1.969-1.4-3.388 0-1.437.467-2.567 1.4-3.388.934-.821 2.194-1.232 3.78-1.232h4.76v-1.54c0-.952-.289-1.68-.868-2.184-.56-.523-1.362-.784-2.408-.784-.914 0-1.68.196-2.296.588-.616.373-.97.887-1.064 1.54h-2.52c.168-1.325.794-2.38 1.876-3.164 1.083-.784 2.436-1.176 4.06-1.176 1.774 0 3.174.457 4.2 1.372 1.027.915 1.54 2.156 1.54 3.724V568h-2.464v-2.94h-.028c-.112.989-.597 1.773-1.456 2.352-.84.579-1.932.868-3.276.868zm.616-1.988c1.195 0 2.175-.299 2.94-.896.766-.597 1.148-1.363 1.148-2.296v-2.184h-4.704c-.84 0-1.502.233-1.988.7-.485.467-.728 1.101-.728 1.904 0 .859.29 1.54.868 2.044.598.485 1.419.728 2.464.728zM322.473 568v-11.564h-4.48v-2.296h4.48v-2.66c0-1.213.382-2.165 1.148-2.856.765-.709 1.82-1.064 3.164-1.064h4.508v2.296h-4.508c-1.195 0-1.792.541-1.792 1.624v2.66h6.3v2.296h-6.3V568h-2.52zm20.709 0c-1.326 0-2.362-.355-3.108-1.064-.728-.709-1.092-1.708-1.092-2.996v-9.044h-4.34V552.6h4.34v-4.34h2.52v4.34h6.16v2.296h-6.16v9.044c0 1.176.56 1.764 1.68 1.764h4.2V568h-4.2zm15.109.28c-1.214 0-2.278-.243-3.192-.728a5.268 5.268 0 01-2.1-2.044c-.486-.896-.728-1.932-.728-3.108v-4.2c0-1.195.242-2.231.728-3.108a5.268 5.268 0 012.1-2.044c.914-.485 1.978-.728 3.192-.728 1.213 0 2.268.243 3.164.728a5.049 5.049 0 012.1 2.044c.504.877.756 1.913.756 3.108v2.716h-9.576v1.484c0 1.213.308 2.147.924 2.8.616.635 1.493.952 2.632.952.97 0 1.754-.168 2.352-.504a2.226 2.226 0 001.092-1.568h2.52c-.168 1.288-.803 2.315-1.904 3.08-1.083.747-2.436 1.12-4.06 1.12zm-3.556-9.268h7.112v-.812c0-1.213-.308-2.147-.924-2.8-.598-.653-1.475-.98-2.632-.98-1.139 0-2.016.327-2.632.98-.616.653-.924 1.587-.924 2.8v.812zM369.788 568v-15.4h2.464v2.744c.504-2.016 1.857-3.024 4.06-3.024 1.624 0 2.912.513 3.864 1.54.97 1.008 1.456 2.38 1.456 4.116v.924h-2.52v-.7c0-1.213-.299-2.137-.896-2.772-.579-.653-1.41-.98-2.492-.98-1.064 0-1.904.327-2.52.98-.598.653-.896 1.577-.896 2.772v9.8h-2.52zm32.85 0v-2.296h5.46v-10.808h-4.76V552.6h7.28v13.104h5.18V568h-13.16zm6.44-18.172c-.616 0-1.102-.159-1.456-.476-.355-.317-.532-.747-.532-1.288 0-.56.177-.999.532-1.316.354-.336.84-.504 1.456-.504s1.101.168 1.456.504c.354.317.532.756.532 1.316 0 .541-.178.971-.532 1.288-.355.317-.84.476-1.456.476zM423.207 568v-11.564h-4.48v-2.296h4.48v-2.66c0-1.213.383-2.165 1.148-2.856.765-.709 1.82-1.064 3.164-1.064h4.508v2.296h-4.508c-1.195 0-1.792.541-1.792 1.624v2.66h6.3v2.296h-6.3V568h-2.52zm21.863.28c-.709 0-1.269-.205-1.68-.616-.429-.411-.644-.961-.644-1.652 0-.728.215-1.307.644-1.736.411-.429.971-.644 1.68-.644s1.279.215 1.708.644c.411.429.616 1.008.616 1.736 0 .691-.205 1.241-.616 1.652-.429.411-.999.616-1.708.616zm13.972 0c-.709 0-1.269-.205-1.68-.616-.429-.411-.644-.961-.644-1.652 0-.728.215-1.307.644-1.736.411-.429.971-.644 1.68-.644s1.279.215 1.708.644c.411.429.616 1.008.616 1.736 0 .691-.205 1.241-.616 1.652-.429.411-.999.616-1.708.616zm13.972 0c-.709 0-1.279-.205-1.708-.616-.411-.411-.616-.961-.616-1.652 0-.728.205-1.307.616-1.736.429-.429.999-.644 1.708-.644s1.269.215 1.68.644c.429.429.644 1.008.644 1.736 0 .691-.215 1.241-.644 1.652-.411.411-.971.616-1.68.616zm19.589 0c-1.213 0-2.277-.243-3.192-.728a5.268 5.268 0 01-2.1-2.044c-.485-.896-.728-1.932-.728-3.108v-4.2c0-1.195.243-2.231.728-3.108a5.268 5.268 0 012.1-2.044c.915-.485 1.979-.728 3.192-.728s2.268.243 3.164.728a5.037 5.037 0 012.1 2.044c.504.877.756 1.913.756 3.108v2.716h-9.576v1.484c0 1.213.308 2.147.924 2.8.616.635 1.493.952 2.632.952.971 0 1.755-.168 2.352-.504a2.226 2.226 0 001.092-1.568h2.52c-.168 1.288-.803 2.315-1.904 3.08-1.083.747-2.436 1.12-4.06 1.12zm-3.556-9.268h7.112v-.812c0-1.213-.308-2.147-.924-2.8-.597-.653-1.475-.98-2.632-.98-1.139 0-2.016.327-2.632.98-.616.653-.924 1.587-.924 2.8v.812zM511.632 568c-1.362 0-2.454-.392-3.276-1.176-.802-.803-1.204-1.857-1.204-3.164v-13.804h-5.32v-2.296h7.84v16.1c0 .635.178 1.139.532 1.512.355.355.831.532 1.428.532h4.76V568h-4.76zm14.073.224c-1.586 0-2.846-.355-3.78-1.064-.933-.728-1.474-1.708-1.624-2.94h2.52c.112.541.411.971.896 1.288.504.317 1.167.476 1.988.476h1.176c.99 0 1.727-.196 2.212-.588.486-.411.728-.952.728-1.624 0-1.269-.868-2.044-2.604-2.324l-2.072-.336c-1.512-.261-2.641-.728-3.388-1.4-.728-.691-1.092-1.689-1.092-2.996 0-1.381.439-2.445 1.316-3.192.878-.765 2.194-1.148 3.948-1.148h1.064c1.475 0 2.66.345 3.556 1.036.896.691 1.438 1.624 1.624 2.8h-2.52c-.112-.485-.392-.868-.84-1.148-.448-.299-1.054-.448-1.82-.448h-1.064c-.952 0-1.652.177-2.1.532-.429.355-.644.887-.644 1.596 0 .635.187 1.101.56 1.4.374.299.962.513 1.764.644l2.072.336c1.662.261 2.866.747 3.612 1.456.766.709 1.148 1.736 1.148 3.08 0 1.419-.457 2.539-1.372 3.36-.896.803-2.258 1.204-4.088 1.204h-1.176zm17.265.056c-1.213 0-2.277-.243-3.192-.728a5.268 5.268 0 01-2.1-2.044c-.485-.896-.728-1.932-.728-3.108v-4.2c0-1.195.243-2.231.728-3.108a5.268 5.268 0 012.1-2.044c.915-.485 1.979-.728 3.192-.728 1.214 0 2.268.243 3.164.728a5.037 5.037 0 012.1 2.044c.504.877.756 1.913.756 3.108v2.716h-9.576v1.484c0 1.213.308 2.147.924 2.8.616.635 1.494.952 2.632.952.971 0 1.755-.168 2.352-.504a2.22 2.22 0 001.092-1.568h2.52c-.168 1.288-.802 2.315-1.904 3.08-1.082.747-2.436 1.12-4.06 1.12zm-3.556-9.268h7.112v-.812c0-1.213-.308-2.147-.924-2.8-.597-.653-1.474-.98-2.632-.98-1.138 0-2.016.327-2.632.98-.616.653-.924 1.587-.924 2.8v.812z" fill="#DB6A05"/><path d="M198.38 156.546c5.124 0 8.904-1.974 11.13-4.662l-4.284-3.654c-1.722 1.89-3.864 2.856-6.72 2.856-5.796 0-9.366-4.368-9.366-9.744 0-5.376 3.57-9.828 9.24-9.828 2.646 0 4.83.924 6.594 2.772l4.158-3.612c-2.646-3.15-5.964-4.62-10.752-4.62-9.072 0-15.33 6.846-15.33 15.288 0 8.4 6.594 15.204 15.33 15.204zm22.672 0c6.762 0 11.634-5.124 11.634-11.424s-4.872-11.466-11.634-11.466c-6.762 0-11.634 5.166-11.634 11.466 0 6.3 4.872 11.424 11.634 11.424zm-5.964-11.424c0-3.402 2.352-6.3 5.964-6.3 3.612 0 5.964 2.898 5.964 6.3 0 3.402-2.352 6.258-5.964 6.258-3.612 0-5.964-2.856-5.964-6.258zM235.196 156h5.67v-11.97c0-3.78 2.142-5.418 4.536-5.418 2.814 0 4.704 1.638 4.704 5.418V156h5.67v-13.356c0-5.502-3.612-8.988-8.316-8.988-3.36 0-5.544 1.26-6.678 3.696v-3.192h-5.586V156zm33.702.546c3.906 0 5.88-1.638 7.056-4.116V156h5.502v-30.66h-5.67v12.18c-1.176-2.31-3.15-3.822-6.888-3.822-6.006 0-10.794 5.166-10.794 11.466 0 6.3 4.788 11.382 10.794 11.382zm-5.124-11.424c0-3.402 2.436-6.3 6.048-6.3 3.738 0 6.132 2.94 6.132 6.342 0 3.402-2.394 6.258-6.132 6.258-3.612 0-6.048-2.982-6.048-6.3zM284.825 156h5.67v-21.84h-5.67V156zm-.588-27.006c0 1.848 1.47 3.36 3.402 3.36 1.974 0 3.402-1.47 3.402-3.36 0-1.806-1.428-3.318-3.402-3.318-1.932 0-3.402 1.512-3.402 3.318zM302.122 156h3.108v-5.04h-2.352c-1.092 0-1.764-.63-1.764-2.016v-9.954h4.62v-4.83h-4.62v-4.998l-5.67.588v4.41h-3.066v4.83h3.066v10.248c0 4.746 2.352 6.762 6.678 6.762zm5.507 0h5.67v-21.84h-5.67V156zm-.588-27.006c0 1.848 1.47 3.36 3.402 3.36 1.974 0 3.402-1.47 3.402-3.36 0-1.806-1.428-3.318-3.402-3.318-1.932 0-3.402 1.512-3.402 3.318zm20.406 27.552c6.762 0 11.634-5.124 11.634-11.424s-4.872-11.466-11.634-11.466c-6.762 0-11.634 5.166-11.634 11.466 0 6.3 4.872 11.424 11.634 11.424zm-5.964-11.424c0-3.402 2.352-6.3 5.964-6.3 3.612 0 5.964 2.898 5.964 6.3 0 3.402-2.352 6.258-5.964 6.258-3.612 0-5.964-2.856-5.964-6.258zM341.59 156h5.67v-11.97c0-3.78 2.142-5.418 4.536-5.418 2.814 0 4.704 1.638 4.704 5.418V156h5.67v-13.356c0-5.502-3.612-8.988-8.316-8.988-3.36 0-5.544 1.26-6.678 3.696v-3.192h-5.586V156zm30.639 0h5.67v-21.84h-5.67V156zm-.588-27.006c0 1.848 1.47 3.36 3.402 3.36 1.974 0 3.402-1.47 3.402-3.36 0-1.806-1.428-3.318-3.402-3.318-1.932 0-3.402 1.512-3.402 3.318zm17.087 27.552c4.83 0 8.484-3.024 8.484-7.056 0-3.276-1.47-5.628-7.812-7.266-2.604-.672-2.94-1.344-2.94-2.1 0-1.344 1.176-1.932 2.73-1.932 1.47 0 2.814.672 3.864 2.352l4.116-3.15c-2.226-2.898-4.578-3.78-8.106-3.78-5.124 0-8.148 2.856-8.148 6.678 0 2.772.882 5.418 6.72 6.804 3.444.798 3.99 1.428 3.99 2.562 0 1.302-1.092 2.268-3.024 2.268-1.848 0-3.528-.882-5.124-2.688l-3.822 3.486c2.394 2.562 5.376 3.822 9.072 3.822zm25.859-.546h3.108v-5.04h-2.352c-1.092 0-1.764-.63-1.764-2.016v-9.954h4.62v-4.83h-4.62v-4.998l-5.67.588v4.41h-3.066v4.83h3.066v10.248c0 4.746 2.352 6.762 6.678 6.762zm5.507 0h5.67v-11.172c0-3.654 2.52-5.838 5.796-5.838h.798v-5.334c-3.78-.21-6.006 1.512-6.762 4.662v-4.158h-5.502V156zm22.256.504c3.402 0 5.376-1.26 6.426-3.78V156h5.502v-21.84h-5.67v11.97c0 3.78-2.142 5.418-4.536 5.418-2.814 0-4.368-1.638-4.368-5.418v-11.97h-5.67v13.356c0 5.502 3.612 8.988 8.316 8.988zm25.731.042c4.326 0 7.98-1.932 9.744-4.662l-4.41-3.318c-1.008 1.68-2.898 2.94-5.334 2.94-2.856 0-4.788-1.806-5.418-4.368h16.338c.126-.714.168-1.386.168-2.016 0-6.3-4.536-11.508-11.088-11.508s-11.298 5.208-11.298 11.508c0 6.3 4.536 11.424 11.298 11.424zm-5.418-13.65c.63-2.604 2.646-4.41 5.334-4.41 2.772 0 4.83 1.974 5.46 4.41h-10.794z" fill="#000"/><path d="M827 302.5a1.5 1.5 0 000-3v3zm1.061 111.561a1.502 1.502 0 000-2.122l-9.546-9.546a1.502 1.502 0 00-2.122 0 1.502 1.502 0 000 2.122l8.486 8.485-8.486 8.485a1.502 1.502 0 000 2.122 1.502 1.502 0 002.122 0l9.546-9.546zM827 299.5h-54v3h54v-3zm-61.5 7.5v100h3V307h-3zm7.5 107.5h54v-3h-54v3zm-7.5-7.5a7.5 7.5 0 007.5 7.5v-3a4.5 4.5 0 01-4.5-4.5h-3zm7.5-107.5a7.5 7.5 0 00-7.5 7.5h3a4.5 4.5 0 014.5-4.5v-3zM830 485.5a1.5 1.5 0 000-3v3zm1.061 73.561a1.502 1.502 0 000-2.122l-9.546-9.546a1.502 1.502 0 00-2.122 0 1.502 1.502 0 000 2.122l8.486 8.485-8.486 8.485a1.502 1.502 0 000 2.122 1.502 1.502 0 002.122 0l9.546-9.546zM830 482.5h-58v3h58v-3zm-65.5 7.5v62h3v-62h-3zm7.5 69.5h58v-3h-58v3zm-7.5-7.5a7.5 7.5 0 007.5 7.5v-3a4.5 4.5 0 01-4.5-4.5h-3zm7.5-69.5a7.5 7.5 0 00-7.5 7.5h3a4.5 4.5 0 014.5-4.5v-3z" fill="#3884FF"/><path d="M833.38 237v-2.296h5.46v-10.808h-4.76V221.6h7.28v13.104h5.18V237h-13.16zm6.44-18.172c-.616 0-1.101-.159-1.456-.476-.355-.317-.532-.747-.532-1.288 0-.56.177-.999.532-1.316.355-.336.84-.504 1.456-.504s1.101.168 1.456.504c.355.317.532.756.532 1.316 0 .541-.177.971-.532 1.288-.355.317-.84.476-1.456.476zM850.365 237v-15.4h2.52v2.94h.028c.131-1.027.551-1.82 1.26-2.38.709-.56 1.652-.84 2.828-.84 1.549 0 2.781.476 3.696 1.428s1.372 2.249 1.372 3.892V237h-2.52v-10.08c0-1.101-.299-1.941-.896-2.52-.579-.597-1.372-.896-2.38-.896-1.045 0-1.876.317-2.492.952-.597.635-.896 1.549-.896 2.744v9.8h-2.52zm24.293 0c-1.325 0-2.361-.355-3.108-1.064-.728-.709-1.092-1.708-1.092-2.996v-9.044h-4.34V221.6h4.34v-4.34h2.52v4.34h6.16v2.296h-6.16v9.044c0 1.176.56 1.764 1.68 1.764h4.2V237h-4.2z" fill="#973FFA"/><path d="M900.732 237v-15.4h2.52v2.94h.028c.131-1.027.551-1.82 1.26-2.38.71-.56 1.652-.84 2.828-.84 1.55 0 2.782.476 3.696 1.428.915.952 1.372 2.249 1.372 3.892V237h-2.52v-10.08c0-1.101-.298-1.941-.896-2.52-.578-.597-1.372-.896-2.38-.896-1.045 0-1.876.317-2.492.952-.597.635-.896 1.549-.896 2.744v9.8h-2.52zm22.585.28c-1.773 0-3.192-.523-4.256-1.568-1.064-1.064-1.596-2.501-1.596-4.312v-9.8h2.52v9.8c0 1.157.299 2.063.896 2.716.598.635 1.41.952 2.436.952 1.046 0 1.867-.317 2.464-.952.616-.653.924-1.559.924-2.716v-9.8h2.52v9.8c0 1.811-.541 3.248-1.624 4.312-1.082 1.045-2.51 1.568-4.284 1.568zm10.265-.28v-15.4h2.212v1.848h.168c.112-.653.383-1.167.812-1.54.448-.392 1.008-.588 1.68-.588 1.326 0 2.166.709 2.52 2.128h.112c.112-.653.392-1.167.84-1.54.467-.392 1.036-.588 1.708-.588.971 0 1.718.364 2.24 1.092.542.728.812 1.689.812 2.884V237h-2.324v-11.732c0-.635-.14-1.129-.42-1.484-.261-.355-.653-.532-1.176-.532-.504 0-.905.177-1.204.532-.28.336-.42.821-.42 1.456V237h-2.016v-11.732c0-.653-.149-1.148-.448-1.484-.28-.355-.681-.532-1.204-.532-.522 0-.914.177-1.176.532-.261.336-.392.821-.392 1.456V237h-2.324zm24.237.28c-1.157 0-2.109-.28-2.856-.84-.746-.579-1.185-1.372-1.316-2.38h-.028V237h-2.52v-20.44h2.52v4.48l-.056 3.5h.084c.131-.989.57-1.773 1.316-2.352.747-.579 1.699-.868 2.856-.868 1.55 0 2.791.513 3.724 1.54.934 1.027 1.4 2.427 1.4 4.2v4.508c0 1.755-.466 3.145-1.4 4.172-.933 1.027-2.174 1.54-3.724 1.54zm-.84-2.184c1.064 0 1.904-.317 2.52-.952.616-.635.924-1.549.924-2.744v-4.2c0-1.195-.308-2.109-.924-2.744-.616-.635-1.456-.952-2.52-.952-1.026 0-1.848.327-2.464.98-.597.653-.896 1.559-.896 2.716v4.2c0 1.157.299 2.063.896 2.716.616.653 1.438.98 2.464.98zm16.734 2.184c-1.214 0-2.278-.243-3.192-.728a5.268 5.268 0 01-2.1-2.044c-.486-.896-.728-1.932-.728-3.108v-4.2c0-1.195.242-2.231.728-3.108a5.268 5.268 0 012.1-2.044c.914-.485 1.978-.728 3.192-.728 1.213 0 2.268.243 3.164.728a5.049 5.049 0 012.1 2.044c.504.877.756 1.913.756 3.108v2.716h-9.576v1.484c0 1.213.308 2.147.924 2.8.616.635 1.493.952 2.632.952.97 0 1.754-.168 2.352-.504a2.226 2.226 0 001.092-1.568h2.52c-.168 1.288-.803 2.315-1.904 3.08-1.083.747-2.436 1.12-4.06 1.12zm-3.556-9.268h7.112v-.812c0-1.213-.308-2.147-.924-2.8-.598-.653-1.475-.98-2.632-.98-1.139 0-2.016.327-2.632.98-.616.653-.924 1.587-.924 2.8v.812zM985.21 237v-15.4h2.464v2.744c.504-2.016 1.857-3.024 4.06-3.024 1.624 0 2.912.513 3.864 1.54.97 1.008 1.456 2.38 1.456 4.116v.924h-2.52v-.7c0-1.213-.299-2.137-.896-2.772-.579-.653-1.41-.98-2.492-.98-1.064 0-1.904.327-2.52.98-.598.653-.896 1.577-.896 2.772v9.8h-2.52zm32.85-11.48v-2.24h12.04v2.24h-12.04zm0 6.72V230h12.04v2.24h-12.04zm39.54 5.04c-1.66 0-3.02-.429-4.09-1.288-1.06-.859-1.69-2.016-1.87-3.472h2.52c.09.803.44 1.428 1.03 1.876.6.429 1.41.644 2.44.644 1.18 0 2.05-.317 2.63-.952.6-.635.9-1.531.9-2.688v-1.988c0-1.157-.3-2.053-.9-2.688-.58-.635-1.44-.952-2.6-.952-.73 0-1.36.196-1.91.588-.54.373-.93.877-1.17 1.512h-2.52l.14-11.312h10.75v2.296h-8.32l-.08 6.804h.11c.17-.653.58-1.167 1.23-1.54.68-.373 1.52-.56 2.52-.56 1.67-.019 2.95.495 3.87 1.54.93 1.027 1.4 2.464 1.4 4.312v1.988c0 1.811-.53 3.248-1.6 4.312-1.06 1.045-2.56 1.568-4.48 1.568zm16.57-11.76c-.62 0-1.12-.196-1.52-.588-.39-.392-.58-.896-.58-1.512 0-.597.19-1.092.58-1.484.42-.411.92-.616 1.52-.616h.56c.59 0 1.09.205 1.48.616.41.392.62.887.62 1.484 0 .616-.2 1.12-.59 1.512-.39.392-.9.588-1.51.588h-.56zm-3.36 15.96l2.24-8.708h3.64l-3.64 8.708h-2.24z" fill="#000"/><path d="M833.38 309v-2.296h5.46v-10.808h-4.76V293.6h7.28v13.104h5.18V309h-13.16zm6.44-18.172c-.616 0-1.101-.159-1.456-.476-.355-.317-.532-.747-.532-1.288 0-.56.177-.999.532-1.316.355-.336.84-.504 1.456-.504s1.101.168 1.456.504c.355.317.532.756.532 1.316 0 .541-.177.971-.532 1.288-.355.317-.84.476-1.456.476zM853.949 309v-11.564h-4.48v-2.296h4.48v-2.66c0-1.213.383-2.165 1.148-2.856.765-.709 1.82-1.064 3.164-1.064h4.508v2.296h-4.508c-1.195 0-1.792.541-1.792 1.624v2.66h6.3v2.296h-6.3V309h-2.52zM839.4 420.28c-1.213 0-2.277-.243-3.192-.728a5.268 5.268 0 01-2.1-2.044c-.485-.896-.728-1.932-.728-3.108v-4.2c0-1.195.243-2.231.728-3.108a5.268 5.268 0 012.1-2.044c.915-.485 1.979-.728 3.192-.728s2.268.243 3.164.728a5.037 5.037 0 012.1 2.044c.504.877.756 1.913.756 3.108v2.716h-9.576v1.484c0 1.213.308 2.147.924 2.8.616.635 1.493.952 2.632.952.971 0 1.755-.168 2.352-.504a2.226 2.226 0 001.092-1.568h2.52c-.168 1.288-.803 2.315-1.904 3.08-1.083.747-2.436 1.12-4.06 1.12zm-3.556-9.268h7.112v-.812c0-1.213-.308-2.147-.924-2.8-.597-.653-1.475-.98-2.632-.98-1.139 0-2.016.327-2.632.98-.616.653-.924 1.587-.924 2.8v.812zM858.429 420c-1.363 0-2.455-.392-3.276-1.176-.803-.803-1.204-1.857-1.204-3.164v-13.804h-5.32v-2.296h7.84v16.1c0 .635.177 1.139.532 1.512.355.355.831.532 1.428.532h4.76V420h-4.76zm14.073.224c-1.587 0-2.847-.355-3.78-1.064-.933-.728-1.475-1.708-1.624-2.94h2.52c.112.541.411.971.896 1.288.504.317 1.167.476 1.988.476h1.176c.989 0 1.727-.196 2.212-.588.485-.411.728-.952.728-1.624 0-1.269-.868-2.044-2.604-2.324l-2.072-.336c-1.512-.261-2.641-.728-3.388-1.4-.728-.691-1.092-1.689-1.092-2.996 0-1.381.439-2.445 1.316-3.192.877-.765 2.193-1.148 3.948-1.148h1.064c1.475 0 2.66.345 3.556 1.036.896.691 1.437 1.624 1.624 2.8h-2.52c-.112-.485-.392-.868-.84-1.148-.448-.299-1.055-.448-1.82-.448h-1.064c-.952 0-1.652.177-2.1.532-.429.355-.644.887-.644 1.596 0 .635.187 1.101.56 1.4.373.299.961.513 1.764.644l2.072.336c1.661.261 2.865.747 3.612 1.456.765.709 1.148 1.736 1.148 3.08 0 1.419-.457 2.539-1.372 3.36-.896.803-2.259 1.204-4.088 1.204h-1.176zm17.265.056c-1.213 0-2.277-.243-3.192-.728a5.268 5.268 0 01-2.1-2.044c-.485-.896-.728-1.932-.728-3.108v-4.2c0-1.195.243-2.231.728-3.108a5.268 5.268 0 012.1-2.044c.915-.485 1.979-.728 3.192-.728 1.214 0 2.268.243 3.164.728a5.037 5.037 0 012.1 2.044c.504.877.756 1.913.756 3.108v2.716h-9.576v1.484c0 1.213.308 2.147.924 2.8.616.635 1.494.952 2.632.952.971 0 1.755-.168 2.352-.504a2.22 2.22 0 001.092-1.568h2.52c-.168 1.288-.802 2.315-1.904 3.08-1.082.747-2.436 1.12-4.06 1.12zm-3.556-9.268h7.112v-.812c0-1.213-.308-2.147-.924-2.8-.597-.653-1.474-.98-2.632-.98-1.138 0-2.016.327-2.632.98-.616.653-.924 1.587-.924 2.8v.812z" fill="#973FFA"/><path d="M878.158 312.36c-2.651-.653-4.713-1.941-6.188-3.864-1.475-1.923-2.212-4.275-2.212-7.056v-5.04c0-1.829.336-3.481 1.008-4.956a10.561 10.561 0 012.912-3.78c1.269-1.027 2.763-1.755 4.48-2.184v2.38a6.825 6.825 0 00-3.108 1.624c-.877.784-1.559 1.764-2.044 2.94-.485 1.176-.728 2.501-.728 3.976v5.04c0 1.437.233 2.744.7 3.92.485 1.176 1.167 2.156 2.044 2.94a7.326 7.326 0 003.136 1.568v2.492zm5.785-3.36v-15.4h2.52v2.94h.028c.131-1.027.551-1.82 1.26-2.38.71-.56 1.652-.84 2.828-.84 1.55 0 2.782.476 3.696 1.428.915.952 1.372 2.249 1.372 3.892V309h-2.52v-10.08c0-1.101-.298-1.941-.896-2.52-.578-.597-1.372-.896-2.38-.896-1.045 0-1.876.317-2.492.952-.597.635-.896 1.549-.896 2.744v9.8h-2.52zm22.585.28c-1.773 0-3.192-.523-4.256-1.568-1.064-1.064-1.596-2.501-1.596-4.312v-9.8h2.52v9.8c0 1.157.299 2.063.896 2.716.598.635 1.41.952 2.436.952 1.046 0 1.867-.317 2.464-.952.616-.653.924-1.559.924-2.716v-9.8h2.52v9.8c0 1.811-.541 3.248-1.624 4.312-1.082 1.045-2.51 1.568-4.284 1.568zm10.265-.28v-15.4h2.212v1.848h.168c.112-.653.383-1.167.812-1.54.448-.392 1.008-.588 1.68-.588 1.326 0 2.166.709 2.52 2.128h.112c.112-.653.392-1.167.84-1.54.467-.392 1.036-.588 1.708-.588.971 0 1.718.364 2.24 1.092.542.728.812 1.689.812 2.884V309h-2.324v-11.732c0-.635-.14-1.129-.42-1.484-.261-.355-.653-.532-1.176-.532-.504 0-.905.177-1.204.532-.28.336-.42.821-.42 1.456V309h-2.016v-11.732c0-.653-.149-1.148-.448-1.484-.28-.355-.681-.532-1.204-.532-.522 0-.914.177-1.176.532-.261.336-.392.821-.392 1.456V309h-2.324zm24.237.28c-1.157 0-2.109-.28-2.856-.84-.746-.579-1.185-1.372-1.316-2.38h-.028V309h-2.52v-20.44h2.52v4.48l-.056 3.5h.084c.131-.989.57-1.773 1.316-2.352.747-.579 1.699-.868 2.856-.868 1.55 0 2.791.513 3.724 1.54.934 1.027 1.4 2.427 1.4 4.2v4.508c0 1.755-.466 3.145-1.4 4.172-.933 1.027-2.174 1.54-3.724 1.54zm-.84-2.184c1.064 0 1.904-.317 2.52-.952.616-.635.924-1.549.924-2.744v-4.2c0-1.195-.308-2.109-.924-2.744-.616-.635-1.456-.952-2.52-.952-1.026 0-1.848.327-2.464.98-.597.653-.896 1.559-.896 2.716v4.2c0 1.157.299 2.063.896 2.716.616.653 1.438.98 2.464.98zm16.733 2.184c-1.213 0-2.277-.243-3.192-.728a5.268 5.268 0 01-2.1-2.044c-.485-.896-.728-1.932-.728-3.108v-4.2c0-1.195.243-2.231.728-3.108a5.268 5.268 0 012.1-2.044c.915-.485 1.979-.728 3.192-.728 1.214 0 2.268.243 3.164.728a5.037 5.037 0 012.1 2.044c.504.877.756 1.913.756 3.108v2.716h-9.576v1.484c0 1.213.308 2.147.924 2.8.616.635 1.494.952 2.632.952.971 0 1.755-.168 2.352-.504a2.22 2.22 0 001.092-1.568h2.52c-.168 1.288-.802 2.315-1.904 3.08-1.082.747-2.436 1.12-4.06 1.12zm-3.556-9.268h7.112v-.812c0-1.213-.308-2.147-.924-2.8-.597-.653-1.474-.98-2.632-.98-1.138 0-2.016.327-2.632.98-.616.653-.924 1.587-.924 2.8v.812zM968.421 309v-15.4h2.464v2.744c.504-2.016 1.857-3.024 4.06-3.024 1.624 0 2.912.513 3.864 1.54.97 1.008 1.456 2.38 1.456 4.116v.924h-2.52v-.7c0-1.213-.299-2.137-.896-2.772-.579-.653-1.41-.98-2.492-.98-1.064 0-1.904.327-2.52.98-.598.653-.896 1.577-.896 2.772v9.8h-2.52zm44.889-1.82l-12.04-6.02v-2.8l12.04-6.02v2.436l-8.68 4.256c-.35.168-.69.317-1.01.448-.3.112-.52.187-.67.224.17.037.41.121.73.252.32.112.63.252.95.42l8.68 4.284v2.52zm27.56 2.1c-1.89 0-3.39-.541-4.51-1.624-1.1-1.101-1.65-2.567-1.65-4.396v-8.96c0-1.829.55-3.285 1.65-4.368 1.12-1.101 2.62-1.652 4.51-1.652 1.88 0 3.38.551 4.48 1.652 1.12 1.083 1.68 2.539 1.68 4.368v8.96c0 1.213-.25 2.277-.76 3.192a5.292 5.292 0 01-2.15 2.1c-.92.485-2 .728-3.25.728zm0-2.156c1.12 0 2.01-.355 2.69-1.064.69-.728 1.03-1.661 1.03-2.8v-8.96c0-1.139-.34-2.063-1.03-2.772-.68-.728-1.57-1.092-2.69-1.092-1.12 0-2.03.364-2.72 1.092-.67.709-1.01 1.633-1.01 2.772v8.96c0 1.139.34 2.072 1.01 2.8.69.709 1.6 1.064 2.72 1.064zm0-6.692c-.51 0-.92-.159-1.23-.476-.3-.317-.45-.737-.45-1.26 0-.504.15-.905.45-1.204.31-.317.72-.476 1.23-.476.5 0 .9.159 1.2.476.32.299.48.7.48 1.204 0 .523-.16.943-.48 1.26-.3.317-.7.476-1.2.476zm11.61 11.928v-2.492c1.21-.28 2.26-.803 3.13-1.568.88-.784 1.55-1.764 2.02-2.94.49-1.176.73-2.483.73-3.92v-5.04c0-1.475-.24-2.8-.73-3.976-.49-1.176-1.17-2.156-2.04-2.94a6.872 6.872 0 00-3.11-1.624v-2.38c1.73.429 3.23 1.157 4.48 2.184a10.26 10.26 0 012.88 3.78c.69 1.475 1.04 3.127 1.04 4.956v5.04c0 2.781-.74 5.133-2.21 7.056-1.48 1.923-3.54 3.211-6.19 3.864zm43.52-.28c-1.65 0-2.94-.411-3.9-1.232-.93-.803-1.36-1.941-1.28-3.416l.28-4.592c.05-.989-.1-1.699-.45-2.128-.36-.448-1.14-.672-2.35-.672h-3.08v-2.24h3.08c1.21 0 1.99-.215 2.35-.644.35-.448.5-1.167.45-2.156l-.28-4.592c-.08-1.475.35-2.613 1.28-3.416.96-.821 2.25-1.232 3.9-1.232h1.26V288H1096c-.88 0-1.55.205-2.02.616-.47.392-.68.989-.64 1.792l.28 4.592c.05 1.064-.17 1.941-.68 2.632-.48.691-1.19 1.12-2.12 1.288.91.168 1.62.597 2.12 1.288.51.691.73 1.568.68 2.632l-.28 4.592c-.04.803.17 1.4.64 1.792.47.411 1.14.616 2.02.616h1.26v2.24H1096zm-262.62 74v-2.24h1.26c.877 0 1.549-.205 2.016-.616.467-.392.681-.989.644-1.792l-.28-4.592c-.056-1.064.168-1.941.672-2.632.504-.691 1.213-1.12 2.128-1.288-.933-.168-1.652-.597-2.156-1.288-.485-.691-.7-1.568-.644-2.632l.28-4.592c.037-.803-.177-1.4-.644-1.792-.467-.411-1.139-.616-2.016-.616h-1.26v-2.24h1.26c1.661 0 2.959.411 3.892 1.232.952.803 1.381 1.941 1.288 3.416l-.28 4.592c-.056.989.093 1.708.448 2.156.355.429 1.139.644 2.352.644h3.08v2.24h-3.08c-1.195 0-1.979.224-2.352.672-.355.429-.504 1.139-.448 2.128l.28 4.592c.093 1.475-.336 2.613-1.288 3.416-.933.821-2.231 1.232-3.892 1.232h-1.26zm94.725 37c-1.642 0-2.94-.411-3.892-1.232-.933-.803-1.362-1.941-1.288-3.416l.28-4.592c.056-.989-.093-1.699-.448-2.128-.354-.448-1.138-.672-2.352-.672h-3.08v-2.24h3.08c1.214 0 1.998-.215 2.352-.644.355-.448.504-1.167.448-2.156l-.28-4.592c-.074-1.475.355-2.613 1.288-3.416.952-.821 2.25-1.232 3.892-1.232h1.26V399h-1.26c-.877 0-1.549.205-2.016.616-.466.392-.681.989-.644 1.792l.28 4.592c.056 1.064-.168 1.941-.672 2.632-.485.691-1.194 1.12-2.128 1.288.915.168 1.624.597 2.128 1.288.504.691.728 1.568.672 2.632l-.28 4.592c-.037.803.178 1.4.644 1.792.467.411 1.139.616 2.016.616h1.26v2.24h-1.26zm-94.725 74v-2.24h1.26c.877 0 1.549-.205 2.016-.616.467-.392.681-.989.644-1.792l-.28-4.592c-.056-1.064.168-1.941.672-2.632.504-.691 1.213-1.12 2.128-1.288-.933-.168-1.652-.597-2.156-1.288-.485-.691-.7-1.568-.644-2.632l.28-4.592c.037-.803-.177-1.4-.644-1.792-.467-.411-1.139-.616-2.016-.616h-1.26v-2.24h1.26c1.661 0 2.959.411 3.892 1.232.952.803 1.381 1.941 1.288 3.416l-.28 4.592c-.056.989.093 1.708.448 2.156.355.429 1.139.644 2.352.644h3.08v2.24h-3.08c-1.195 0-1.979.224-2.352.672-.355.429-.504 1.139-.448 2.128l.28 4.592c.093 1.475-.336 2.613-1.288 3.416-.933.821-2.231 1.232-3.892 1.232h-1.26z" fill="#000"/><path d="M881.367 349.08l9.94-26.32h2.66l-9.94 26.32h-2.66zm-12.6 0l9.94-26.32h2.66l-9.94 26.32h-2.66zm37.901-2.8c-1.866 0-3.36-.523-4.48-1.568-1.101-1.045-1.652-2.483-1.652-4.312v-4.2c0-1.829.551-3.267 1.652-4.312 1.12-1.045 2.614-1.568 4.48-1.568 1.774 0 3.202.476 4.284 1.428 1.083.952 1.652 2.249 1.708 3.892h-2.52c-.056-.989-.392-1.745-1.008-2.268-.597-.541-1.418-.812-2.464-.812-1.101 0-1.978.317-2.632.952-.653.616-.98 1.503-.98 2.66v4.228c0 1.157.327 2.053.98 2.688.654.635 1.531.952 2.632.952 1.046 0 1.867-.271 2.464-.812.616-.541.952-1.297 1.008-2.268h2.52c-.056 1.643-.625 2.94-1.708 3.892-1.082.952-2.51 1.428-4.284 1.428zm16.677-.056c-1.829 0-3.294-.523-4.396-1.568-1.082-1.045-1.624-2.483-1.624-4.312v-4.088c0-1.829.542-3.267 1.624-4.312 1.102-1.045 2.567-1.568 4.396-1.568 1.83 0 3.286.523 4.368 1.568 1.102 1.027 1.652 2.455 1.652 4.284v4.116c0 1.829-.55 3.267-1.652 4.312-1.082 1.045-2.538 1.568-4.368 1.568zm0-2.24c1.102 0 1.96-.308 2.576-.924.616-.616.924-1.521.924-2.716v-4.088c0-1.195-.308-2.1-.924-2.716-.616-.616-1.474-.924-2.576-.924-1.082 0-1.941.308-2.576.924-.616.616-.924 1.521-.924 2.716v4.088c0 1.195.308 2.1.924 2.716.635.616 1.494.924 2.576.924zm15.893 2.296c-1.53 0-2.772-.513-3.724-1.54-.933-1.027-1.4-2.417-1.4-4.172v-4.508c0-1.773.467-3.173 1.4-4.2.934-1.027 2.175-1.54 3.724-1.54 1.158 0 2.11.289 2.856.868.747.579 1.186 1.363 1.316 2.352h.084l-.056-3.5v-4.48h2.52V346h-2.52v-2.94h-.028c-.13 1.008-.569 1.801-1.316 2.38-.746.56-1.698.84-2.856.84zm.84-2.184c1.046 0 1.867-.327 2.464-.98.598-.653.896-1.559.896-2.716v-4.2c0-1.157-.298-2.063-.896-2.716-.597-.653-1.418-.98-2.464-.98-1.064 0-1.904.317-2.52.952-.616.635-.924 1.549-.924 2.744v4.2c0 1.195.308 2.109.924 2.744.616.635 1.456.952 2.52.952zm16.845 2.184c-1.213 0-2.277-.243-3.192-.728a5.268 5.268 0 01-2.1-2.044c-.485-.896-.728-1.932-.728-3.108v-4.2c0-1.195.243-2.231.728-3.108a5.268 5.268 0 012.1-2.044c.915-.485 1.979-.728 3.192-.728 1.214 0 2.268.243 3.164.728a5.037 5.037 0 012.1 2.044c.504.877.756 1.913.756 3.108v2.716h-9.576v1.484c0 1.213.308 2.147.924 2.8.616.635 1.494.952 2.632.952.971 0 1.755-.168 2.352-.504a2.22 2.22 0 001.092-1.568h2.52c-.168 1.288-.802 2.315-1.904 3.08-1.082.747-2.436 1.12-4.06 1.12zm-3.556-9.268h7.112v-.812c0-1.213-.308-2.147-.924-2.8-.597-.653-1.474-.98-2.632-.98-1.138 0-2.016.327-2.632.98-.616.653-.924 1.587-.924 2.8v.812zm-72 123.068l9.94-26.32h2.66l-9.94 26.32h-2.66zm-12.6 0l9.94-26.32h2.66l-9.94 26.32h-2.66zm37.901-2.8c-1.866 0-3.36-.523-4.48-1.568-1.101-1.045-1.652-2.483-1.652-4.312v-4.2c0-1.829.551-3.267 1.652-4.312 1.12-1.045 2.614-1.568 4.48-1.568 1.774 0 3.202.476 4.284 1.428 1.083.952 1.652 2.249 1.708 3.892h-2.52c-.056-.989-.392-1.745-1.008-2.268-.597-.541-1.418-.812-2.464-.812-1.101 0-1.978.317-2.632.952-.653.616-.98 1.503-.98 2.66v4.228c0 1.157.327 2.053.98 2.688.654.635 1.531.952 2.632.952 1.046 0 1.867-.271 2.464-.812.616-.541.952-1.297 1.008-2.268h2.52c-.056 1.643-.625 2.94-1.708 3.892-1.082.952-2.51 1.428-4.284 1.428zm16.677-.056c-1.829 0-3.294-.523-4.396-1.568-1.082-1.045-1.624-2.483-1.624-4.312v-4.088c0-1.829.542-3.267 1.624-4.312 1.102-1.045 2.567-1.568 4.396-1.568 1.83 0 3.286.523 4.368 1.568 1.102 1.027 1.652 2.455 1.652 4.284v4.116c0 1.829-.55 3.267-1.652 4.312-1.082 1.045-2.538 1.568-4.368 1.568zm0-2.24c1.102 0 1.96-.308 2.576-.924.616-.616.924-1.521.924-2.716v-4.088c0-1.195-.308-2.1-.924-2.716-.616-.616-1.474-.924-2.576-.924-1.082 0-1.941.308-2.576.924-.616.616-.924 1.521-.924 2.716v4.088c0 1.195.308 2.1.924 2.716.635.616 1.494.924 2.576.924zm15.893 2.296c-1.53 0-2.772-.513-3.724-1.54-.933-1.027-1.4-2.417-1.4-4.172v-4.508c0-1.773.467-3.173 1.4-4.2.934-1.027 2.175-1.54 3.724-1.54 1.158 0 2.11.289 2.856.868.747.579 1.186 1.363 1.316 2.352h.084l-.056-3.5v-4.48h2.52V457h-2.52v-2.94h-.028c-.13 1.008-.569 1.801-1.316 2.38-.746.56-1.698.84-2.856.84zm.84-2.184c1.046 0 1.867-.327 2.464-.98.598-.653.896-1.559.896-2.716v-4.2c0-1.157-.298-2.063-.896-2.716-.597-.653-1.418-.98-2.464-.98-1.064 0-1.904.317-2.52.952-.616.635-.924 1.549-.924 2.744v4.2c0 1.195.308 2.109.924 2.744.616.635 1.456.952 2.52.952zm16.845 2.184c-1.213 0-2.277-.243-3.192-.728a5.268 5.268 0 01-2.1-2.044c-.485-.896-.728-1.932-.728-3.108v-4.2c0-1.195.243-2.231.728-3.108a5.268 5.268 0 012.1-2.044c.915-.485 1.979-.728 3.192-.728 1.214 0 2.268.243 3.164.728a5.037 5.037 0 012.1 2.044c.504.877.756 1.913.756 3.108v2.716h-9.576v1.484c0 1.213.308 2.147.924 2.8.616.635 1.494.952 2.632.952.971 0 1.755-.168 2.352-.504a2.22 2.22 0 001.092-1.568h2.52c-.168 1.288-.802 2.315-1.904 3.08-1.082.747-2.436 1.12-4.06 1.12zm-3.556-9.268h7.112v-.812c0-1.213-.308-2.147-.924-2.8-.597-.653-1.474-.98-2.632-.98-1.138 0-2.016.327-2.632.98-.616.653-.924 1.587-.924 2.8v.812zM847.789 571.08l9.94-26.32h2.66l-9.94 26.32h-2.66zm-12.6 0l9.94-26.32h2.66l-9.94 26.32h-2.66zm37.901-2.8c-1.867 0-3.36-.523-4.48-1.568-1.101-1.045-1.652-2.483-1.652-4.312v-4.2c0-1.829.551-3.267 1.652-4.312 1.12-1.045 2.613-1.568 4.48-1.568 1.773 0 3.201.476 4.284 1.428 1.083.952 1.652 2.249 1.708 3.892h-2.52c-.056-.989-.392-1.745-1.008-2.268-.597-.541-1.419-.812-2.464-.812-1.101 0-1.979.317-2.632.952-.653.616-.98 1.503-.98 2.66v4.228c0 1.157.327 2.053.98 2.688.653.635 1.531.952 2.632.952 1.045 0 1.867-.271 2.464-.812.616-.541.952-1.297 1.008-2.268h2.52c-.056 1.643-.625 2.94-1.708 3.892s-2.511 1.428-4.284 1.428zm16.677-.056c-1.829 0-3.294-.523-4.396-1.568-1.082-1.045-1.624-2.483-1.624-4.312v-4.088c0-1.829.542-3.267 1.624-4.312 1.102-1.045 2.567-1.568 4.396-1.568 1.83 0 3.286.523 4.368 1.568 1.102 1.027 1.652 2.455 1.652 4.284v4.116c0 1.829-.55 3.267-1.652 4.312-1.082 1.045-2.538 1.568-4.368 1.568zm0-2.24c1.102 0 1.96-.308 2.576-.924.616-.616.924-1.521.924-2.716v-4.088c0-1.195-.308-2.1-.924-2.716-.616-.616-1.474-.924-2.576-.924-1.082 0-1.941.308-2.576.924-.616.616-.924 1.521-.924 2.716v4.088c0 1.195.308 2.1.924 2.716.635.616 1.494.924 2.576.924zm15.893 2.296c-1.53 0-2.772-.513-3.724-1.54-.933-1.027-1.4-2.417-1.4-4.172v-4.508c0-1.773.467-3.173 1.4-4.2.934-1.027 2.175-1.54 3.724-1.54 1.158 0 2.11.289 2.856.868.747.579 1.186 1.363 1.316 2.352h.084l-.056-3.5v-4.48h2.52V568h-2.52v-2.94h-.028c-.13 1.008-.569 1.801-1.316 2.38-.746.56-1.698.84-2.856.84zm.84-2.184c1.046 0 1.867-.327 2.464-.98.598-.653.896-1.559.896-2.716v-4.2c0-1.157-.298-2.063-.896-2.716-.597-.653-1.418-.98-2.464-.98-1.064 0-1.904.317-2.52.952-.616.635-.924 1.549-.924 2.744v4.2c0 1.195.308 2.109.924 2.744.616.635 1.456.952 2.52.952zm16.845 2.184c-1.213 0-2.277-.243-3.192-.728a5.268 5.268 0 01-2.1-2.044c-.485-.896-.728-1.932-.728-3.108v-4.2c0-1.195.243-2.231.728-3.108a5.268 5.268 0 012.1-2.044c.915-.485 1.979-.728 3.192-.728 1.214 0 2.268.243 3.164.728a5.037 5.037 0 012.1 2.044c.504.877.756 1.913.756 3.108v2.716h-9.576v1.484c0 1.213.308 2.147.924 2.8.616.635 1.494.952 2.632.952.971 0 1.755-.168 2.352-.504a2.22 2.22 0 001.092-1.568h2.52c-.168 1.288-.802 2.315-1.904 3.08-1.082.747-2.436 1.12-4.06 1.12zm-3.556-9.268h7.112v-.812c0-1.213-.308-2.147-.924-2.8-.597-.653-1.474-.98-2.632-.98-1.138 0-2.016.327-2.632.98-.616.653-.924 1.587-.924 2.8v.812zm35.79 9.268c-1.624 0-2.902-.411-3.836-1.232-.933-.84-1.4-1.969-1.4-3.388 0-1.437.467-2.567 1.4-3.388.934-.821 2.194-1.232 3.78-1.232h4.76v-1.54c0-.952-.289-1.68-.868-2.184-.56-.523-1.362-.784-2.408-.784-.914 0-1.68.196-2.296.588-.616.373-.97.887-1.064 1.54h-2.52c.168-1.325.794-2.38 1.876-3.164 1.083-.784 2.436-1.176 4.06-1.176 1.774 0 3.174.457 4.2 1.372 1.027.915 1.54 2.156 1.54 3.724V568h-2.464v-2.94h-.028c-.112.989-.597 1.773-1.456 2.352-.84.579-1.932.868-3.276.868zm.616-1.988c1.195 0 2.175-.299 2.94-.896.766-.597 1.148-1.363 1.148-2.296v-2.184h-4.704c-.84 0-1.502.233-1.988.7-.485.467-.728 1.101-.728 1.904 0 .859.29 1.54.868 2.044.598.485 1.419.728 2.464.728zM971.473 568v-11.564h-4.48v-2.296h4.48v-2.66c0-1.213.382-2.165 1.148-2.856.765-.709 1.82-1.064 3.164-1.064h4.508v2.296h-4.508c-1.195 0-1.792.541-1.792 1.624v2.66h6.3v2.296h-6.3V568h-2.52zm20.709 0c-1.326 0-2.362-.355-3.108-1.064-.728-.709-1.092-1.708-1.092-2.996v-9.044h-4.34V552.6h4.34v-4.34h2.52v4.34h6.16v2.296h-6.16v9.044c0 1.176.56 1.764 1.68 1.764h4.2V568h-4.2zm15.108.28c-1.21 0-2.28-.243-3.19-.728a5.218 5.218 0 01-2.1-2.044c-.49-.896-.73-1.932-.73-3.108v-4.2c0-1.195.24-2.231.73-3.108.5-.877 1.2-1.559 2.1-2.044.91-.485 1.98-.728 3.19-.728s2.27.243 3.16.728c.92.485 1.62 1.167 2.1 2.044.51.877.76 1.913.76 3.108v2.716h-9.58v1.484c0 1.213.31 2.147.93 2.8.61.635 1.49.952 2.63.952.97 0 1.76-.168 2.35-.504.6-.355.96-.877 1.09-1.568h2.52c-.16 1.288-.8 2.315-1.9 3.08-1.08.747-2.44 1.12-4.06 1.12zm-3.56-9.268h7.12v-.812c0-1.213-.31-2.147-.93-2.8-.59-.653-1.47-.98-2.63-.98-1.14 0-2.02.327-2.63.98-.62.653-.93 1.587-.93 2.8v.812zm15.06 8.988v-15.4h2.46v2.744c.51-2.016 1.86-3.024 4.06-3.024 1.63 0 2.91.513 3.87 1.54.97 1.008 1.45 2.38 1.45 4.116v.924h-2.52v-.7c0-1.213-.3-2.137-.89-2.772-.58-.653-1.41-.98-2.5-.98-1.06 0-1.9.327-2.52.98-.59.653-.89 1.577-.89 2.772v9.8h-2.52zm32.85 0v-2.296h5.46v-10.808h-4.76V552.6h7.28v13.104h5.18V568h-13.16zm6.44-18.172c-.62 0-1.1-.159-1.46-.476-.35-.317-.53-.747-.53-1.288 0-.56.18-.999.53-1.316.36-.336.84-.504 1.46-.504.61 0 1.1.168 1.45.504.36.317.54.756.54 1.316 0 .541-.18.971-.54 1.288-.35.317-.84.476-1.45.476zM1072.21 568v-11.564h-4.48v-2.296h4.48v-2.66c0-1.213.38-2.165 1.14-2.856.77-.709 1.82-1.064 3.17-1.064h4.51v2.296h-4.51c-1.2 0-1.79.541-1.79 1.624v2.66h6.3v2.296h-6.3V568h-2.52zm21.86.28c-.71 0-1.27-.205-1.68-.616-.43-.411-.64-.961-.64-1.652 0-.728.21-1.307.64-1.736.41-.429.97-.644 1.68-.644s1.28.215 1.71.644c.41.429.61 1.008.61 1.736 0 .691-.2 1.241-.61 1.652-.43.411-1 .616-1.71.616zm13.97 0c-.71 0-1.27-.205-1.68-.616-.43-.411-.64-.961-.64-1.652 0-.728.21-1.307.64-1.736.41-.429.97-.644 1.68-.644s1.28.215 1.71.644c.41.429.62 1.008.62 1.736 0 .691-.21 1.241-.62 1.652-.43.411-1 .616-1.71.616zm13.97 0c-.71 0-1.27-.205-1.7-.616-.41-.411-.62-.961-.62-1.652 0-.728.21-1.307.62-1.736.43-.429.99-.644 1.7-.644s1.27.215 1.68.644c.43.429.65 1.008.65 1.736 0 .691-.22 1.241-.65 1.652-.41.411-.97.616-1.68.616zm19.59 0c-1.21 0-2.27-.243-3.19-.728a5.346 5.346 0 01-2.1-2.044c-.48-.896-.73-1.932-.73-3.108v-4.2c0-1.195.25-2.231.73-3.108a5.346 5.346 0 012.1-2.044c.92-.485 1.98-.728 3.19-.728 1.22 0 2.27.243 3.17.728a5.096 5.096 0 012.1 2.044c.5.877.75 1.913.75 3.108v2.716h-9.57v1.484c0 1.213.31 2.147.92 2.8.62.635 1.49.952 2.63.952.97 0 1.76-.168 2.36-.504.59-.355.96-.877 1.09-1.568h2.52c-.17 1.288-.81 2.315-1.91 3.08-1.08.747-2.43 1.12-4.06 1.12zm-3.55-9.268h7.11v-.812c0-1.213-.31-2.147-.92-2.8-.6-.653-1.48-.98-2.64-.98-1.14 0-2.01.327-2.63.98-.61.653-.92 1.587-.92 2.8v.812zm22.58 8.988c-1.36 0-2.45-.392-3.27-1.176-.81-.803-1.21-1.857-1.21-3.164v-13.804h-5.32v-2.296h7.84v16.1c0 .635.18 1.139.53 1.512.36.355.83.532 1.43.532h4.76V568h-4.76zm14.08.224c-1.59 0-2.85-.355-3.78-1.064-.94-.728-1.48-1.708-1.63-2.94h2.52c.11.541.41.971.9 1.288.5.317 1.16.476 1.99.476h1.17c.99 0 1.73-.196 2.21-.588.49-.411.73-.952.73-1.624 0-1.269-.87-2.044-2.6-2.324l-2.07-.336c-1.52-.261-2.65-.728-3.39-1.4-.73-.691-1.09-1.689-1.09-2.996 0-1.381.43-2.445 1.31-3.192.88-.765 2.19-1.148 3.95-1.148h1.06c1.48 0 2.66.345 3.56 1.036.9.691 1.44 1.624 1.62 2.8h-2.52c-.11-.485-.39-.868-.84-1.148-.44-.299-1.05-.448-1.82-.448h-1.06c-.95 0-1.65.177-2.1.532-.43.355-.64.887-.64 1.596 0 .635.18 1.101.56 1.4.37.299.96.513 1.76.644l2.07.336c1.66.261 2.87.747 3.61 1.456.77.709 1.15 1.736 1.15 3.08 0 1.419-.46 2.539-1.37 3.36-.9.803-2.26 1.204-4.09 1.204h-1.17zm17.26.056c-1.21 0-2.28-.243-3.19-.728a5.218 5.218 0 01-2.1-2.044c-.49-.896-.73-1.932-.73-3.108v-4.2c0-1.195.24-2.231.73-3.108.5-.877 1.2-1.559 2.1-2.044.91-.485 1.98-.728 3.19-.728s2.27.243 3.16.728c.92.485 1.62 1.167 2.1 2.044.51.877.76 1.913.76 3.108v2.716h-9.58v1.484c0 1.213.31 2.147.93 2.8.61.635 1.49.952 2.63.952.97 0 1.75-.168 2.35-.504.6-.355.96-.877 1.09-1.568h2.52c-.16 1.288-.8 2.315-1.9 3.08-1.08.747-2.44 1.12-4.06 1.12zm-3.56-9.268h7.12v-.812c0-1.213-.31-2.147-.93-2.8-.6-.653-1.47-.98-2.63-.98-1.14 0-2.02.327-2.63.98-.62.653-.93 1.587-.93 2.8v.812z" fill="#DB6A05"/><path d="M847.38 156.546c5.124 0 8.904-1.974 11.13-4.662l-4.284-3.654c-1.722 1.89-3.864 2.856-6.72 2.856-5.796 0-9.366-4.368-9.366-9.744 0-5.376 3.57-9.828 9.24-9.828 2.646 0 4.83.924 6.594 2.772l4.158-3.612c-2.646-3.15-5.964-4.62-10.752-4.62-9.072 0-15.33 6.846-15.33 15.288 0 8.4 6.594 15.204 15.33 15.204zm22.672 0c6.762 0 11.634-5.124 11.634-11.424s-4.872-11.466-11.634-11.466c-6.762 0-11.634 5.166-11.634 11.466 0 6.3 4.872 11.424 11.634 11.424zm-5.964-11.424c0-3.402 2.352-6.3 5.964-6.3 3.612 0 5.964 2.898 5.964 6.3 0 3.402-2.352 6.258-5.964 6.258-3.612 0-5.964-2.856-5.964-6.258zM884.196 156h5.67v-11.97c0-3.78 2.142-5.418 4.536-5.418 2.814 0 4.704 1.638 4.704 5.418V156h5.67v-13.356c0-5.502-3.612-8.988-8.316-8.988-3.36 0-5.544 1.26-6.678 3.696v-3.192h-5.586V156zm33.702.546c3.906 0 5.88-1.638 7.056-4.116V156h5.502v-30.66h-5.67v12.18c-1.176-2.31-3.15-3.822-6.888-3.822-6.006 0-10.794 5.166-10.794 11.466 0 6.3 4.788 11.382 10.794 11.382zm-5.124-11.424c0-3.402 2.436-6.3 6.048-6.3 3.738 0 6.132 2.94 6.132 6.342 0 3.402-2.394 6.258-6.132 6.258-3.612 0-6.048-2.982-6.048-6.3zM933.825 156h5.67v-21.84h-5.67V156zm-.588-27.006c0 1.848 1.47 3.36 3.402 3.36 1.974 0 3.402-1.47 3.402-3.36 0-1.806-1.428-3.318-3.402-3.318-1.932 0-3.402 1.512-3.402 3.318zM951.122 156h3.108v-5.04h-2.352c-1.092 0-1.764-.63-1.764-2.016v-9.954h4.62v-4.83h-4.62v-4.998l-5.67.588v4.41h-3.066v4.83h3.066v10.248c0 4.746 2.352 6.762 6.678 6.762zm5.507 0h5.67v-21.84h-5.67V156zm-.588-27.006c0 1.848 1.47 3.36 3.402 3.36 1.974 0 3.402-1.47 3.402-3.36 0-1.806-1.428-3.318-3.402-3.318-1.932 0-3.402 1.512-3.402 3.318zm20.406 27.552c6.762 0 11.634-5.124 11.634-11.424s-4.872-11.466-11.634-11.466c-6.762 0-11.634 5.166-11.634 11.466 0 6.3 4.872 11.424 11.634 11.424zm-5.964-11.424c0-3.402 2.352-6.3 5.964-6.3 3.612 0 5.964 2.898 5.964 6.3 0 3.402-2.352 6.258-5.964 6.258-3.612 0-5.964-2.856-5.964-6.258zM990.59 156h5.67v-11.97c0-3.78 2.142-5.418 4.54-5.418 2.81 0 4.7 1.638 4.7 5.418V156h5.67v-13.356c0-5.502-3.61-8.988-8.32-8.988-3.356 0-5.54 1.26-6.674 3.696v-3.192h-5.586V156zm30.64 0h5.67v-21.84h-5.67V156zm-.59-27.006c0 1.848 1.47 3.36 3.4 3.36 1.98 0 3.4-1.47 3.4-3.36 0-1.806-1.42-3.318-3.4-3.318-1.93 0-3.4 1.512-3.4 3.318zm17.09 27.552c4.83 0 8.48-3.024 8.48-7.056 0-3.276-1.47-5.628-7.81-7.266-2.6-.672-2.94-1.344-2.94-2.1 0-1.344 1.18-1.932 2.73-1.932 1.47 0 2.81.672 3.86 2.352l4.12-3.15c-2.23-2.898-4.58-3.78-8.11-3.78-5.12 0-8.14 2.856-8.14 6.678 0 2.772.88 5.418 6.72 6.804 3.44.798 3.99 1.428 3.99 2.562 0 1.302-1.1 2.268-3.03 2.268-1.85 0-3.53-.882-5.12-2.688l-3.82 3.486c2.39 2.562 5.37 3.822 9.07 3.822zm19.18-23.856v1.47h-3.07v4.83h3.07V156h5.67v-17.01h4.45v-4.83h-4.45v-1.386c0-1.722.8-2.604 2.48-2.604h1.47v-4.83h-2.36c-4.41 0-7.26 2.94-7.26 7.35zm20.7 23.856c3.91 0 5.88-1.638 7.06-4.116V156h5.5v-21.84h-5.63v3.444c-1.17-2.352-3.15-3.906-6.93-3.906-6 0-10.79 5.166-10.79 11.466 0 6.3 4.79 11.382 10.79 11.382zm-5.12-11.424c0-3.402 2.43-6.3 6.05-6.3 3.73 0 6.13 2.94 6.13 6.342 0 3.402-2.4 6.258-6.13 6.258-3.62 0-6.05-2.982-6.05-6.3zM1093.54 156h5.67v-30.66h-5.67V156zm16.5.546c4.83 0 8.48-3.024 8.48-7.056 0-3.276-1.47-5.628-7.81-7.266-2.6-.672-2.94-1.344-2.94-2.1 0-1.344 1.18-1.932 2.73-1.932 1.47 0 2.81.672 3.86 2.352l4.12-3.15c-2.23-2.898-4.58-3.78-8.11-3.78-5.12 0-8.14 2.856-8.14 6.678 0 2.772.88 5.418 6.72 6.804 3.44.798 3.99 1.428 3.99 2.562 0 1.302-1.1 2.268-3.03 2.268-1.85 0-3.53-.882-5.12-2.688l-3.82 3.486c2.39 2.562 5.37 3.822 9.07 3.822zm21.15 0c4.33 0 7.98-1.932 9.74-4.662l-4.41-3.318c-1 1.68-2.89 2.94-5.33 2.94-2.86 0-4.79-1.806-5.42-4.368h16.34c.13-.714.17-1.386.17-2.016 0-6.3-4.54-11.508-11.09-11.508s-11.3 5.208-11.3 11.508c0 6.3 4.54 11.424 11.3 11.424zm-5.42-13.65c.63-2.604 2.65-4.41 5.34-4.41 2.77 0 4.83 1.974 5.46 4.41h-10.8z" fill="#000"/></g><defs><linearGradient id="prefix__paint0_linear_855_160" x1="0" y1="0" x2="568.027" y2="1081.72" gradientUnits="userSpaceOnUse"><stop stop-color="#38BDF8"/><stop offset="1" stop-color="#6366F1"/></linearGradient><filter id="prefix__filter0_d_855_160" x="25" y="41" width="1264" height="640" filterUnits="userSpaceOnUse" color-interpolation-filters="sRGB"><feFlood flood-opacity="0" result="BackgroundImageFix"/><feColorMatrix in="SourceAlpha" values="0 0 0 0 0 0 0 0 0 0 0 0 0 0 0 0 0 0 127 0" result="hardAlpha"/><feOffset dy="16"/><feGaussianBlur stdDeviation="12.5"/><feComposite in2="hardAlpha" operator="out"/><feColorMatrix values="0 0 0 0 0 0 0 0 0 0 0 0 0 0 0 0 0 0 0.15 0"/><feBlend in2="BackgroundImageFix" result="effect1_dropShadow_855_160"/><feBlend in="SourceGraphic" in2="effect1_dropShadow_855_160" result="shape"/></filter></defs></svg>