<svg width="1141" height="596" fill="none" xmlns="http://www.w3.org/2000/svg"><rect width="1141" height="596" rx="15" fill="url(#prefix__paint0_linear_846_139)"/><g filter="url(#prefix__filter0_d_846_139)"><rect x="50" y="50" width="1041" height="496" rx="15" fill="#fff"/><path d="M730.38 148.546c5.124 0 8.904-1.974 11.13-4.662l-4.284-3.654c-1.722 1.89-3.864 2.856-6.72 2.856-5.796 0-9.366-4.368-9.366-9.744 0-5.376 3.57-9.828 9.24-9.828 2.646 0 4.83.924 6.594 2.772l4.158-3.612c-2.646-3.15-5.964-4.62-10.752-4.62-9.072 0-15.33 6.846-15.33 15.288 0 8.4 6.594 15.204 15.33 15.204zm22.672 0c6.762 0 11.634-5.124 11.634-11.424s-4.872-11.466-11.634-11.466c-6.762 0-11.634 5.166-11.634 11.466 0 6.3 4.872 11.424 11.634 11.424zm-5.964-11.424c0-3.402 2.352-6.3 5.964-6.3 3.612 0 5.964 2.898 5.964 6.3 0 3.402-2.352 6.258-5.964 6.258-3.612 0-5.964-2.856-5.964-6.258zM767.196 148h5.67v-11.97c0-3.78 2.142-5.418 4.536-5.418 2.814 0 4.704 1.638 4.704 5.418V148h5.67v-13.356c0-5.502-3.612-8.988-8.316-8.988-3.36 0-5.544 1.26-6.678 3.696v-3.192h-5.586V148zm33.702.546c3.906 0 5.88-1.638 7.056-4.116V148h5.502v-30.66h-5.67v12.18c-1.176-2.31-3.15-3.822-6.888-3.822-6.006 0-10.794 5.166-10.794 11.466 0 6.3 4.788 11.382 10.794 11.382zm-5.124-11.424c0-3.402 2.436-6.3 6.048-6.3 3.738 0 6.132 2.94 6.132 6.342 0 3.402-2.394 6.258-6.132 6.258-3.612 0-6.048-2.982-6.048-6.3zM816.825 148h5.67v-21.84h-5.67V148zm-.588-27.006c0 1.848 1.47 3.36 3.402 3.36 1.974 0 3.402-1.47 3.402-3.36 0-1.806-1.428-3.318-3.402-3.318-1.932 0-3.402 1.512-3.402 3.318zM834.122 148h3.108v-5.04h-2.352c-1.092 0-1.764-.63-1.764-2.016v-9.954h4.62v-4.83h-4.62v-4.998l-5.67.588v4.41h-3.066v4.83h3.066v10.248c0 4.746 2.352 6.762 6.678 6.762zm5.507 0h5.67v-21.84h-5.67V148zm-.588-27.006c0 1.848 1.47 3.36 3.402 3.36 1.974 0 3.402-1.47 3.402-3.36 0-1.806-1.428-3.318-3.402-3.318-1.932 0-3.402 1.512-3.402 3.318zm20.406 27.552c6.762 0 11.634-5.124 11.634-11.424s-4.872-11.466-11.634-11.466c-6.762 0-11.634 5.166-11.634 11.466 0 6.3 4.872 11.424 11.634 11.424zm-5.964-11.424c0-3.402 2.352-6.3 5.964-6.3 3.612 0 5.964 2.898 5.964 6.3 0 3.402-2.352 6.258-5.964 6.258-3.612 0-5.964-2.856-5.964-6.258zM873.59 148h5.67v-11.97c0-3.78 2.142-5.418 4.536-5.418 2.814 0 4.704 1.638 4.704 5.418V148h5.67v-13.356c0-5.502-3.612-8.988-8.316-8.988-3.36 0-5.544 1.26-6.678 3.696v-3.192h-5.586V148zm30.639 0h5.67v-21.84h-5.67V148zm-.588-27.006c0 1.848 1.47 3.36 3.402 3.36 1.974 0 3.402-1.47 3.402-3.36 0-1.806-1.428-3.318-3.402-3.318-1.932 0-3.402 1.512-3.402 3.318zm17.087 27.552c4.83 0 8.484-3.024 8.484-7.056 0-3.276-1.47-5.628-7.812-7.266-2.604-.672-2.94-1.344-2.94-2.1 0-1.344 1.176-1.932 2.73-1.932 1.47 0 2.814.672 3.864 2.352l4.116-3.15c-2.226-2.898-4.578-3.78-8.106-3.78-5.124 0-8.148 2.856-8.148 6.678 0 2.772.882 5.418 6.72 6.804 3.444.798 3.99 1.428 3.99 2.562 0 1.302-1.092 2.268-3.024 2.268-1.848 0-3.528-.882-5.124-2.688l-3.822 3.486c2.394 2.562 5.376 3.822 9.072 3.822zm19.181-23.856v1.47h-3.066v4.83h3.066V148h5.67v-17.01h4.452v-4.83h-4.452v-1.386c0-1.722.798-2.604 2.478-2.604h1.47v-4.83h-2.352c-4.41 0-7.266 2.94-7.266 7.35zm20.704 23.856c3.906 0 5.88-1.638 7.056-4.116V148h5.502v-21.84h-5.628v3.444c-1.176-2.352-3.15-3.906-6.93-3.906-6.006 0-10.794 5.166-10.794 11.466 0 6.3 4.788 11.382 10.794 11.382zm-5.124-11.424c0-3.402 2.436-6.3 6.048-6.3 3.738 0 6.132 2.94 6.132 6.342 0 3.402-2.394 6.258-6.132 6.258-3.612 0-6.048-2.982-6.048-6.3zM976.539 148h5.67v-30.66h-5.67V148zm16.5.546c4.83 0 8.481-3.024 8.481-7.056 0-3.276-1.47-5.628-7.809-7.266-2.604-.672-2.94-1.344-2.94-2.1 0-1.344 1.176-1.932 2.73-1.932 1.47 0 2.814.672 3.864 2.352l4.115-3.15c-2.225-2.898-4.577-3.78-8.105-3.78-5.124 0-8.148 2.856-8.148 6.678 0 2.772.882 5.418 6.72 6.804 3.444.798 3.99 1.428 3.99 2.562 0 1.302-1.092 2.268-3.024 2.268-1.848 0-3.528-.882-5.124-2.688l-3.822 3.486c2.394 2.562 5.376 3.822 9.072 3.822zm21.151 0c4.33 0 7.98-1.932 9.74-4.662l-4.41-3.318c-1 1.68-2.89 2.94-5.33 2.94-2.86 0-4.79-1.806-5.42-4.368h16.34c.13-.714.17-1.386.17-2.016 0-6.3-4.54-11.508-11.09-11.508s-11.3 5.208-11.3 11.508c0 6.3 4.54 11.424 11.3 11.424zm-5.42-13.65c.63-2.604 2.65-4.41 5.34-4.41 2.77 0 4.83 1.974 5.46 4.41h-10.8z" fill="#000"/><path d="M716.38 250.796V248.5h5.46v-10.808h-4.76v-2.296h7.28V248.5h5.18v2.296h-13.16zm6.44-18.172c-.616 0-1.101-.159-1.456-.476-.355-.318-.532-.747-.532-1.288 0-.56.177-.999.532-1.316.355-.336.84-.504 1.456-.504s1.101.168 1.456.504c.355.317.532.756.532 1.316 0 .541-.177.97-.532 1.288-.355.317-.84.476-1.456.476zm10.545 18.172v-15.4h2.52v2.94h.028c.131-1.027.551-1.82 1.26-2.38.709-.56 1.652-.84 2.828-.84 1.549 0 2.781.476 3.696 1.428s1.372 2.249 1.372 3.892v10.36h-2.52v-10.08c0-1.102-.299-1.942-.896-2.52-.579-.598-1.372-.896-2.38-.896-1.045 0-1.876.317-2.492.952-.597.634-.896 1.549-.896 2.744v9.8h-2.52zm24.293 0c-1.325 0-2.361-.355-3.108-1.064-.728-.71-1.092-1.708-1.092-2.996v-9.044h-4.34v-2.296h4.34v-4.34h2.52v4.34h6.16v2.296h-6.16v9.044c0 1.176.56 1.764 1.68 1.764h4.2v2.296h-4.2z" fill="#973FFA"/><path d="M783.732 250.796v-15.4h2.52v2.94h.028c.131-1.027.551-1.82 1.26-2.38.71-.56 1.652-.84 2.828-.84 1.55 0 2.782.476 3.696 1.428.915.952 1.372 2.249 1.372 3.892v10.36h-2.52v-10.08c0-1.102-.298-1.942-.896-2.52-.578-.598-1.372-.896-2.38-.896-1.045 0-1.876.317-2.492.952-.597.634-.896 1.549-.896 2.744v9.8h-2.52zm22.585.28c-1.773 0-3.192-.523-4.256-1.568-1.064-1.064-1.596-2.502-1.596-4.312v-9.8h2.52v9.8c0 1.157.299 2.062.896 2.716.598.634 1.41.952 2.436.952 1.046 0 1.867-.318 2.464-.952.616-.654.924-1.559.924-2.716v-9.8h2.52v9.8c0 1.81-.541 3.248-1.624 4.312-1.082 1.045-2.51 1.568-4.284 1.568zm10.265-.28v-15.4h2.212v1.848h.168c.112-.654.383-1.167.812-1.54.448-.392 1.008-.588 1.68-.588 1.326 0 2.166.709 2.52 2.128h.112c.112-.654.392-1.167.84-1.54.467-.392 1.036-.588 1.708-.588.971 0 1.718.364 2.24 1.092.542.728.812 1.689.812 2.884v11.704h-2.324v-11.732c0-.635-.14-1.13-.42-1.484-.261-.355-.653-.532-1.176-.532-.504 0-.905.177-1.204.532-.28.336-.42.821-.42 1.456v11.76h-2.016v-11.732c0-.654-.149-1.148-.448-1.484-.28-.355-.681-.532-1.204-.532-.522 0-.914.177-1.176.532-.261.336-.392.821-.392 1.456v11.76h-2.324zm24.237.28c-1.157 0-2.109-.28-2.856-.84-.746-.579-1.185-1.372-1.316-2.38h-.028v2.94h-2.52v-20.44h2.52v4.48l-.056 3.5h.084c.131-.99.57-1.774 1.316-2.352.747-.579 1.699-.868 2.856-.868 1.55 0 2.791.513 3.724 1.54.934 1.026 1.4 2.426 1.4 4.2v4.508c0 1.754-.466 3.145-1.4 4.172-.933 1.026-2.174 1.54-3.724 1.54zm-.84-2.184c1.064 0 1.904-.318 2.52-.952.616-.635.924-1.55.924-2.744v-4.2c0-1.195-.308-2.11-.924-2.744-.616-.635-1.456-.952-2.52-.952-1.026 0-1.848.326-2.464.98-.597.653-.896 1.558-.896 2.716v4.2c0 1.157.299 2.062.896 2.716.616.653 1.438.98 2.464.98zm16.734 2.184c-1.214 0-2.278-.243-3.192-.728a5.275 5.275 0 01-2.1-2.044c-.486-.896-.728-1.932-.728-3.108v-4.2c0-1.195.242-2.231.728-3.108a5.262 5.262 0 012.1-2.044c.914-.486 1.978-.728 3.192-.728 1.213 0 2.268.242 3.164.728a5.043 5.043 0 012.1 2.044c.504.877.756 1.913.756 3.108v2.716h-9.576v1.484c0 1.213.308 2.146.924 2.8.616.634 1.493.952 2.632.952.97 0 1.754-.168 2.352-.504a2.228 2.228 0 001.092-1.568h2.52c-.168 1.288-.803 2.314-1.904 3.08-1.083.746-2.436 1.12-4.06 1.12zm-3.556-9.268h7.112v-.812c0-1.214-.308-2.147-.924-2.8-.598-.654-1.475-.98-2.632-.98-1.139 0-2.016.326-2.632.98-.616.653-.924 1.586-.924 2.8v.812zm15.053 8.988v-15.4h2.464v2.744c.504-2.016 1.857-3.024 4.06-3.024 1.624 0 2.912.513 3.864 1.54.97 1.008 1.456 2.38 1.456 4.116v.924h-2.52v-.7c0-1.214-.299-2.138-.896-2.772-.579-.654-1.41-.98-2.492-.98-1.064 0-1.904.326-2.52.98-.598.653-.896 1.577-.896 2.772v9.8h-2.52zm32.85-11.48v-2.24h12.04v2.24h-12.04zm0 6.72v-2.24h12.04v2.24h-12.04zm33.718 4.76V248.5h5.544v-16.044l-5.544 4.144v-2.8l4.62-3.444h3.444V248.5h4.536v2.296h-12.6zm22.669.28c-1.885 0-3.388-.542-4.508-1.624-1.101-1.102-1.652-2.567-1.652-4.396v-8.96c0-1.83.551-3.286 1.652-4.368 1.12-1.102 2.623-1.652 4.508-1.652 1.885 0 3.379.55 4.48 1.652 1.12 1.082 1.68 2.538 1.68 4.368v8.96c0 1.213-.252 2.277-.756 3.192a5.313 5.313 0 01-2.156 2.1c-.915.485-1.997.728-3.248.728zm0-2.156c1.12 0 2.016-.355 2.688-1.064.691-.728 1.036-1.662 1.036-2.8v-8.96c0-1.139-.345-2.063-1.036-2.772-.672-.728-1.568-1.092-2.688-1.092s-2.025.364-2.716 1.092c-.672.709-1.008 1.633-1.008 2.772v8.96c0 1.138.336 2.072 1.008 2.8.691.709 1.596 1.064 2.716 1.064zm0-6.692c-.504 0-.915-.159-1.232-.476-.299-.318-.448-.738-.448-1.26 0-.504.149-.906.448-1.204.317-.318.728-.476 1.232-.476s.905.158 1.204.476c.317.298.476.7.476 1.204 0 .522-.159.942-.476 1.26-.299.317-.7.476-1.204.476zm16.509-2.912c-.616 0-1.12-.196-1.512-.588-.392-.392-.588-.896-.588-1.512 0-.598.196-1.092.588-1.484a2.055 2.055 0 011.512-.616h.56c.597 0 1.092.205 1.484.616.411.392.616.886.616 1.484 0 .616-.196 1.12-.588 1.512-.392.392-.896.588-1.512.588h-.56zm-3.36 15.96l2.24-8.708h3.64l-3.64 8.708h-2.24z" fill="#000"/><path d="M716.38 332.065v-2.296h5.46v-10.808h-4.76v-2.296h7.28v13.104h5.18v2.296h-13.16zm6.44-18.172c-.616 0-1.101-.159-1.456-.476-.355-.318-.532-.747-.532-1.288 0-.56.177-.999.532-1.316.355-.336.84-.504 1.456-.504s1.101.168 1.456.504c.355.317.532.756.532 1.316 0 .541-.177.97-.532 1.288-.355.317-.84.476-1.456.476zm14.129 18.172v-11.564h-4.48v-2.296h4.48v-2.66c0-1.214.383-2.166 1.148-2.856.765-.71 1.82-1.064 3.164-1.064h4.508v2.296h-4.508c-1.195 0-1.792.541-1.792 1.624v2.66h6.3v2.296h-6.3v11.564h-2.52z" fill="#973FFA"/><path d="M761.158 335.425c-2.651-.654-4.713-1.942-6.188-3.864-1.475-1.923-2.212-4.275-2.212-7.056v-5.04c0-1.83.336-3.482 1.008-4.956a10.544 10.544 0 012.912-3.78c1.269-1.027 2.763-1.755 4.48-2.184v2.38a6.825 6.825 0 00-3.108 1.624c-.877.784-1.559 1.764-2.044 2.94-.485 1.176-.728 2.501-.728 3.976v5.04c0 1.437.233 2.744.7 3.92.485 1.176 1.167 2.156 2.044 2.94a7.326 7.326 0 003.136 1.568v2.492zm5.785-3.36v-15.4h2.52v2.94h.028c.131-1.027.551-1.82 1.26-2.38.71-.56 1.652-.84 2.828-.84 1.55 0 2.782.476 3.696 1.428.915.952 1.372 2.249 1.372 3.892v10.36h-2.52v-10.08c0-1.102-.298-1.942-.896-2.52-.578-.598-1.372-.896-2.38-.896-1.045 0-1.876.317-2.492.952-.597.634-.896 1.549-.896 2.744v9.8h-2.52zm22.585.28c-1.773 0-3.192-.523-4.256-1.568-1.064-1.064-1.596-2.502-1.596-4.312v-9.8h2.52v9.8c0 1.157.299 2.062.896 2.716.598.634 1.41.952 2.436.952 1.046 0 1.867-.318 2.464-.952.616-.654.924-1.559.924-2.716v-9.8h2.52v9.8c0 1.81-.541 3.248-1.624 4.312-1.082 1.045-2.51 1.568-4.284 1.568zm10.265-.28v-15.4h2.212v1.848h.168c.112-.654.383-1.167.812-1.54.448-.392 1.008-.588 1.68-.588 1.326 0 2.166.709 2.52 2.128h.112c.112-.654.392-1.167.84-1.54.467-.392 1.036-.588 1.708-.588.971 0 1.718.364 2.24 1.092.542.728.812 1.689.812 2.884v11.704h-2.324v-11.732c0-.635-.14-1.13-.42-1.484-.261-.355-.653-.532-1.176-.532-.504 0-.905.177-1.204.532-.28.336-.42.821-.42 1.456v11.76h-2.016v-11.732c0-.654-.149-1.148-.448-1.484-.28-.355-.681-.532-1.204-.532-.522 0-.914.177-1.176.532-.261.336-.392.821-.392 1.456v11.76h-2.324zm24.237.28c-1.157 0-2.109-.28-2.856-.84-.746-.579-1.185-1.372-1.316-2.38h-.028v2.94h-2.52v-20.44h2.52v4.48l-.056 3.5h.084c.131-.99.57-1.774 1.316-2.352.747-.579 1.699-.868 2.856-.868 1.55 0 2.791.513 3.724 1.54.934 1.026 1.4 2.426 1.4 4.2v4.508c0 1.754-.466 3.145-1.4 4.172-.933 1.026-2.174 1.54-3.724 1.54zm-.84-2.184c1.064 0 1.904-.318 2.52-.952.616-.635.924-1.55.924-2.744v-4.2c0-1.195-.308-2.11-.924-2.744-.616-.635-1.456-.952-2.52-.952-1.026 0-1.848.326-2.464.98-.597.653-.896 1.558-.896 2.716v4.2c0 1.157.299 2.062.896 2.716.616.653 1.438.98 2.464.98zm16.733 2.184c-1.213 0-2.277-.243-3.192-.728a5.275 5.275 0 01-2.1-2.044c-.485-.896-.728-1.932-.728-3.108v-4.2c0-1.195.243-2.231.728-3.108a5.262 5.262 0 012.1-2.044c.915-.486 1.979-.728 3.192-.728 1.214 0 2.268.242 3.164.728a5.031 5.031 0 012.1 2.044c.504.877.756 1.913.756 3.108v2.716h-9.576v1.484c0 1.213.308 2.146.924 2.8.616.634 1.494.952 2.632.952.971 0 1.755-.168 2.352-.504a2.223 2.223 0 001.092-1.568h2.52c-.168 1.288-.802 2.314-1.904 3.08-1.082.746-2.436 1.12-4.06 1.12zm-3.556-9.268h7.112v-.812c0-1.214-.308-2.147-.924-2.8-.597-.654-1.474-.98-2.632-.98-1.138 0-2.016.326-2.632.98-.616.653-.924 1.586-.924 2.8v.812zm15.054 8.988v-15.4h2.464v2.744c.504-2.016 1.857-3.024 4.06-3.024 1.624 0 2.912.513 3.864 1.54.97 1.008 1.456 2.38 1.456 4.116v.924h-2.52v-.7c0-1.214-.299-2.138-.896-2.772-.579-.654-1.41-.98-2.492-.98-1.064 0-1.904.326-2.52.98-.598.653-.896 1.577-.896 2.772v9.8h-2.52zm44.89-1.82l-12.04-6.02v-2.8l12.04-6.02v2.436l-8.68 4.256c-.355.168-.691.317-1.008.448a7.124 7.124 0 01-.672.224c.168.037.41.121.728.252.317.112.634.252.952.42l8.68 4.284v2.52zm27.558 2.1c-1.886 0-3.388-.542-4.508-1.624-1.102-1.102-1.652-2.567-1.652-4.396v-8.96c0-1.83.55-3.286 1.652-4.368 1.12-1.102 2.622-1.652 4.508-1.652 1.885 0 3.378.55 4.48 1.652 1.12 1.082 1.68 2.538 1.68 4.368v8.96c0 1.213-.252 2.277-.756 3.192a5.313 5.313 0 01-2.156 2.1c-.915.485-1.998.728-3.248.728zm0-2.156c1.12 0 2.016-.355 2.688-1.064.69-.728 1.036-1.662 1.036-2.8v-8.96c0-1.139-.346-2.063-1.036-2.772-.672-.728-1.568-1.092-2.688-1.092s-2.026.364-2.716 1.092c-.672.709-1.008 1.633-1.008 2.772v8.96c0 1.138.336 2.072 1.008 2.8.69.709 1.596 1.064 2.716 1.064zm0-6.692c-.504 0-.915-.159-1.232-.476-.299-.318-.448-.738-.448-1.26 0-.504.149-.906.448-1.204.317-.318.728-.476 1.232-.476s.905.158 1.204.476c.317.298.476.7.476 1.204 0 .522-.159.942-.476 1.26-.299.317-.7.476-1.204.476zm11.609 11.928v-2.492c1.213-.28 2.258-.803 3.136-1.568.877-.784 1.549-1.764 2.016-2.94.485-1.176.728-2.483.728-3.92v-5.04c0-1.475-.243-2.8-.728-3.976-.486-1.176-1.167-2.156-2.044-2.94a6.835 6.835 0 00-3.108-1.624v-2.38c1.736.429 3.229 1.157 4.48 2.184a10.275 10.275 0 012.884 3.78c.69 1.474 1.036 3.126 1.036 4.956v5.04c0 2.781-.738 5.133-2.212 7.056-1.475 1.922-3.538 3.21-6.188 3.864zm43.518-.28c-1.643 0-2.94-.411-3.892-1.232-.933-.803-1.363-1.942-1.288-3.416l.28-4.592c.056-.99-.093-1.699-.448-2.128-.355-.448-1.139-.672-2.352-.672h-3.08v-2.24h3.08c1.213 0 1.997-.215 2.352-.644.355-.448.504-1.167.448-2.156l-.28-4.592c-.075-1.475.355-2.614 1.288-3.416.952-.822 2.249-1.232 3.892-1.232h1.26v2.24h-1.26c-.877 0-1.549.205-2.016.616-.467.392-.681.989-.644 1.792l.28 4.592c.056 1.064-.168 1.941-.672 2.632-.485.69-1.195 1.12-2.128 1.288.915.168 1.624.597 2.128 1.288.504.69.728 1.568.672 2.632l-.28 4.592c-.037.802.177 1.4.644 1.792.467.41 1.139.616 2.016.616h1.26v2.24h-1.26zm-262.616 74v-2.24h1.26c.877 0 1.549-.206 2.016-.616.467-.392.681-.99.644-1.792l-.28-4.592c-.056-1.064.168-1.942.672-2.632.504-.691 1.213-1.12 2.128-1.288-.933-.168-1.652-.598-2.156-1.288-.485-.691-.7-1.568-.644-2.632l.28-4.592c.037-.803-.177-1.4-.644-1.792-.467-.411-1.139-.616-2.016-.616h-1.26v-2.24h1.26c1.661 0 2.959.41 3.892 1.232.952.802 1.381 1.941 1.288 3.416l-.28 4.592c-.056.989.093 1.708.448 2.156.355.429 1.139.644 2.352.644h3.08v2.24h-3.08c-1.195 0-1.979.224-2.352.672-.355.429-.504 1.138-.448 2.128l.28 4.592c.093 1.474-.336 2.613-1.288 3.416-.933.821-2.231 1.232-3.892 1.232h-1.26z" fill="#000"/><path d="M764.367 372.145l9.94-26.32h2.66l-9.94 26.32h-2.66zm-12.6 0l9.94-26.32h2.66l-9.94 26.32h-2.66zm37.901-2.8c-1.866 0-3.36-.523-4.48-1.568-1.101-1.046-1.652-2.483-1.652-4.312v-4.2c0-1.83.551-3.267 1.652-4.312 1.12-1.046 2.614-1.568 4.48-1.568 1.774 0 3.202.476 4.284 1.428 1.083.952 1.652 2.249 1.708 3.892h-2.52c-.056-.99-.392-1.746-1.008-2.268-.597-.542-1.418-.812-2.464-.812-1.101 0-1.978.317-2.632.952-.653.616-.98 1.502-.98 2.66v4.228c0 1.157.327 2.053.98 2.688.654.634 1.531.952 2.632.952 1.046 0 1.867-.271 2.464-.812.616-.542.952-1.298 1.008-2.268h2.52c-.056 1.642-.625 2.94-1.708 3.892-1.082.952-2.51 1.428-4.284 1.428zm16.677-.056c-1.829 0-3.294-.523-4.396-1.568-1.082-1.046-1.624-2.483-1.624-4.312v-4.088c0-1.83.542-3.267 1.624-4.312 1.102-1.046 2.567-1.568 4.396-1.568 1.83 0 3.286.522 4.368 1.568 1.102 1.026 1.652 2.454 1.652 4.284v4.116c0 1.829-.55 3.266-1.652 4.312-1.082 1.045-2.538 1.568-4.368 1.568zm0-2.24c1.102 0 1.96-.308 2.576-.924.616-.616.924-1.522.924-2.716v-4.088c0-1.195-.308-2.1-.924-2.716-.616-.616-1.474-.924-2.576-.924-1.082 0-1.941.308-2.576.924-.616.616-.924 1.521-.924 2.716v4.088c0 1.194.308 2.1.924 2.716.635.616 1.494.924 2.576.924zm15.893 2.296c-1.53 0-2.772-.514-3.724-1.54-.933-1.027-1.4-2.418-1.4-4.172v-4.508c0-1.774.467-3.174 1.4-4.2.934-1.027 2.175-1.54 3.724-1.54 1.158 0 2.11.289 2.856.868.747.578 1.186 1.362 1.316 2.352h.084l-.056-3.5v-4.48h2.52v20.44h-2.52v-2.94h-.028c-.13 1.008-.569 1.801-1.316 2.38-.746.56-1.698.84-2.856.84zm.84-2.184c1.046 0 1.867-.327 2.464-.98.598-.654.896-1.559.896-2.716v-4.2c0-1.158-.298-2.063-.896-2.716-.597-.654-1.418-.98-2.464-.98-1.064 0-1.904.317-2.52.952-.616.634-.924 1.549-.924 2.744v4.2c0 1.194.308 2.109.924 2.744.616.634 1.456.952 2.52.952zm16.845 2.184c-1.213 0-2.277-.243-3.192-.728a5.275 5.275 0 01-2.1-2.044c-.485-.896-.728-1.932-.728-3.108v-4.2c0-1.195.243-2.231.728-3.108a5.262 5.262 0 012.1-2.044c.915-.486 1.979-.728 3.192-.728 1.214 0 2.268.242 3.164.728a5.031 5.031 0 012.1 2.044c.504.877.756 1.913.756 3.108v2.716h-9.576v1.484c0 1.213.308 2.146.924 2.8.616.634 1.494.952 2.632.952.971 0 1.755-.168 2.352-.504a2.223 2.223 0 001.092-1.568h2.52c-.168 1.288-.802 2.314-1.904 3.08-1.082.746-2.436 1.12-4.06 1.12zm-3.556-9.268h7.112v-.812c0-1.214-.308-2.147-.924-2.8-.597-.654-1.474-.98-2.632-.98-1.138 0-2.016.326-2.632.98-.616.653-.924 1.586-.924 2.8v.812zM730.789 483.145l9.94-26.32h2.66l-9.94 26.32h-2.66zm-12.6 0l9.94-26.32h2.66l-9.94 26.32h-2.66zm37.901-2.8c-1.867 0-3.36-.523-4.48-1.568-1.101-1.046-1.652-2.483-1.652-4.312v-4.2c0-1.83.551-3.267 1.652-4.312 1.12-1.046 2.613-1.568 4.48-1.568 1.773 0 3.201.476 4.284 1.428 1.083.952 1.652 2.249 1.708 3.892h-2.52c-.056-.99-.392-1.746-1.008-2.268-.597-.542-1.419-.812-2.464-.812-1.101 0-1.979.317-2.632.952-.653.616-.98 1.502-.98 2.66v4.228c0 1.157.327 2.053.98 2.688.653.634 1.531.952 2.632.952 1.045 0 1.867-.271 2.464-.812.616-.542.952-1.298 1.008-2.268h2.52c-.056 1.642-.625 2.94-1.708 3.892s-2.511 1.428-4.284 1.428zm16.677-.056c-1.829 0-3.294-.523-4.396-1.568-1.082-1.046-1.624-2.483-1.624-4.312v-4.088c0-1.83.542-3.267 1.624-4.312 1.102-1.046 2.567-1.568 4.396-1.568 1.83 0 3.286.522 4.368 1.568 1.102 1.026 1.652 2.454 1.652 4.284v4.116c0 1.829-.55 3.266-1.652 4.312-1.082 1.045-2.538 1.568-4.368 1.568zm0-2.24c1.102 0 1.96-.308 2.576-.924.616-.616.924-1.522.924-2.716v-4.088c0-1.195-.308-2.1-.924-2.716-.616-.616-1.474-.924-2.576-.924-1.082 0-1.941.308-2.576.924-.616.616-.924 1.521-.924 2.716v4.088c0 1.194.308 2.1.924 2.716.635.616 1.494.924 2.576.924zm15.893 2.296c-1.53 0-2.772-.514-3.724-1.54-.933-1.027-1.4-2.418-1.4-4.172v-4.508c0-1.774.467-3.174 1.4-4.2.934-1.027 2.175-1.54 3.724-1.54 1.158 0 2.11.289 2.856.868.747.578 1.186 1.362 1.316 2.352h.084l-.056-3.5v-4.48h2.52v20.44h-2.52v-2.94h-.028c-.13 1.008-.569 1.801-1.316 2.38-.746.56-1.698.84-2.856.84zm.84-2.184c1.046 0 1.867-.327 2.464-.98.598-.654.896-1.559.896-2.716v-4.2c0-1.158-.298-2.063-.896-2.716-.597-.654-1.418-.98-2.464-.98-1.064 0-1.904.317-2.52.952-.616.634-.924 1.549-.924 2.744v4.2c0 1.194.308 2.109.924 2.744.616.634 1.456.952 2.52.952zm16.845 2.184c-1.213 0-2.277-.243-3.192-.728a5.275 5.275 0 01-2.1-2.044c-.485-.896-.728-1.932-.728-3.108v-4.2c0-1.195.243-2.231.728-3.108a5.262 5.262 0 012.1-2.044c.915-.486 1.979-.728 3.192-.728 1.214 0 2.268.242 3.164.728a5.031 5.031 0 012.1 2.044c.504.877.756 1.913.756 3.108v2.716h-9.576v1.484c0 1.213.308 2.146.924 2.8.616.634 1.494.952 2.632.952.971 0 1.755-.168 2.352-.504a2.223 2.223 0 001.092-1.568h2.52c-.168 1.288-.802 2.314-1.904 3.08-1.082.746-2.436 1.12-4.06 1.12zm-3.556-9.268h7.112v-.812c0-1.214-.308-2.147-.924-2.8-.597-.654-1.474-.98-2.632-.98-1.138 0-2.016.326-2.632.98-.616.653-.924 1.586-.924 2.8v.812zm35.79 9.268c-1.624 0-2.902-.411-3.836-1.232-.933-.84-1.4-1.97-1.4-3.388 0-1.438.467-2.567 1.4-3.388.934-.822 2.194-1.232 3.78-1.232h4.76v-1.54c0-.952-.289-1.68-.868-2.184-.56-.523-1.362-.784-2.408-.784-.914 0-1.68.196-2.296.588-.616.373-.97.886-1.064 1.54h-2.52c.168-1.326.794-2.38 1.876-3.164 1.083-.784 2.436-1.176 4.06-1.176 1.774 0 3.174.457 4.2 1.372 1.027.914 1.54 2.156 1.54 3.724v10.584h-2.464v-2.94h-.028c-.112.989-.597 1.773-1.456 2.352-.84.578-1.932.868-3.276.868zm.616-1.988c1.195 0 2.175-.299 2.94-.896.766-.598 1.148-1.363 1.148-2.296v-2.184h-4.704c-.84 0-1.502.233-1.988.7-.485.466-.728 1.101-.728 1.904 0 .858.29 1.54.868 2.044.598.485 1.419.728 2.464.728zm15.278 1.708v-11.564h-4.48v-2.296h4.48v-2.66c0-1.214.382-2.166 1.148-2.856.765-.71 1.82-1.064 3.164-1.064h4.508v2.296h-4.508c-1.195 0-1.792.541-1.792 1.624v2.66h6.3v2.296h-6.3v11.564h-2.52zm20.709 0c-1.326 0-2.362-.355-3.108-1.064-.728-.71-1.092-1.708-1.092-2.996v-9.044h-4.34v-2.296h4.34v-4.34h2.52v4.34h6.16v2.296h-6.16v9.044c0 1.176.56 1.764 1.68 1.764h4.2v2.296h-4.2zm15.109.28c-1.214 0-2.278-.243-3.192-.728a5.275 5.275 0 01-2.1-2.044c-.486-.896-.728-1.932-.728-3.108v-4.2c0-1.195.242-2.231.728-3.108a5.262 5.262 0 012.1-2.044c.914-.486 1.978-.728 3.192-.728 1.213 0 2.268.242 3.164.728a5.043 5.043 0 012.1 2.044c.504.877.756 1.913.756 3.108v2.716h-9.576v1.484c0 1.213.308 2.146.924 2.8.616.634 1.493.952 2.632.952.97 0 1.754-.168 2.352-.504a2.228 2.228 0 001.092-1.568h2.52c-.168 1.288-.803 2.314-1.904 3.08-1.083.746-2.436 1.12-4.06 1.12zm-3.556-9.268h7.112v-.812c0-1.214-.308-2.147-.924-2.8-.598-.654-1.475-.98-2.632-.98-1.139 0-2.016.326-2.632.98-.616.653-.924 1.586-.924 2.8v.812zm15.053 8.988v-15.4h2.464v2.744c.504-2.016 1.857-3.024 4.06-3.024 1.624 0 2.912.513 3.864 1.54.97 1.008 1.456 2.38 1.456 4.116v.924h-2.52v-.7c0-1.214-.299-2.138-.896-2.772-.579-.654-1.41-.98-2.492-.98-1.064 0-1.904.326-2.52.98-.598.653-.896 1.577-.896 2.772v9.8h-2.52zm32.85 0v-2.296h5.46v-10.808h-4.76v-2.296h7.28v13.104h5.18v2.296h-13.16zm6.44-18.172c-.616 0-1.102-.159-1.456-.476-.355-.318-.532-.747-.532-1.288 0-.56.177-.999.532-1.316.354-.336.84-.504 1.456-.504s1.101.168 1.456.504c.354.317.532.756.532 1.316 0 .541-.178.97-.532 1.288-.355.317-.84.476-1.456.476zm14.129 18.172v-11.564h-4.48v-2.296h4.48v-2.66c0-1.214.383-2.166 1.148-2.856.765-.71 1.82-1.064 3.164-1.064h4.508v2.296h-4.508c-1.195 0-1.792.541-1.792 1.624v2.66h6.3v2.296h-6.3v11.564h-2.52z" fill="#DB6A05"/><path d="M707 326.5a1.5 1.5 0 000-3v3zm-.939 146.561a1.502 1.502 0 000-2.122l-9.546-9.546a1.502 1.502 0 00-2.122 0 1.502 1.502 0 000 2.122l8.486 8.485-8.486 8.485a1.502 1.502 0 000 2.122 1.502 1.502 0 002.122 0l9.546-9.546zM707 323.5h-47v3h47v-3zm-54.5 7.5v135h3V331h-3zm7.5 142.5h45v-3h-45v3zm-7.5-7.5a7.5 7.5 0 007.5 7.5v-3a4.5 4.5 0 01-4.5-4.5h-3zm7.5-142.5a7.5 7.5 0 00-7.5 7.5h3a4.5 4.5 0 014.5-4.5v-3z" fill="#3884FF"/><path d="M195.38 148.546c5.124 0 8.904-1.974 11.13-4.662l-4.284-3.654c-1.722 1.89-3.864 2.856-6.72 2.856-5.796 0-9.366-4.368-9.366-9.744 0-5.376 3.57-9.828 9.24-9.828 2.646 0 4.83.924 6.594 2.772l4.158-3.612c-2.646-3.15-5.964-4.62-10.752-4.62-9.072 0-15.33 6.846-15.33 15.288 0 8.4 6.594 15.204 15.33 15.204zm22.672 0c6.762 0 11.634-5.124 11.634-11.424s-4.872-11.466-11.634-11.466c-6.762 0-11.634 5.166-11.634 11.466 0 6.3 4.872 11.424 11.634 11.424zm-5.964-11.424c0-3.402 2.352-6.3 5.964-6.3 3.612 0 5.964 2.898 5.964 6.3 0 3.402-2.352 6.258-5.964 6.258-3.612 0-5.964-2.856-5.964-6.258zM232.196 148h5.67v-11.97c0-3.78 2.142-5.418 4.536-5.418 2.814 0 4.704 1.638 4.704 5.418V148h5.67v-13.356c0-5.502-3.612-8.988-8.316-8.988-3.36 0-5.544 1.26-6.678 3.696v-3.192h-5.586V148zm33.702.546c3.906 0 5.88-1.638 7.056-4.116V148h5.502v-30.66h-5.67v12.18c-1.176-2.31-3.15-3.822-6.888-3.822-6.006 0-10.794 5.166-10.794 11.466 0 6.3 4.788 11.382 10.794 11.382zm-5.124-11.424c0-3.402 2.436-6.3 6.048-6.3 3.738 0 6.132 2.94 6.132 6.342 0 3.402-2.394 6.258-6.132 6.258-3.612 0-6.048-2.982-6.048-6.3zM281.825 148h5.67v-21.84h-5.67V148zm-.588-27.006c0 1.848 1.47 3.36 3.402 3.36 1.974 0 3.402-1.47 3.402-3.36 0-1.806-1.428-3.318-3.402-3.318-1.932 0-3.402 1.512-3.402 3.318zM299.122 148h3.108v-5.04h-2.352c-1.092 0-1.764-.63-1.764-2.016v-9.954h4.62v-4.83h-4.62v-4.998l-5.67.588v4.41h-3.066v4.83h3.066v10.248c0 4.746 2.352 6.762 6.678 6.762zm5.507 0h5.67v-21.84h-5.67V148zm-.588-27.006c0 1.848 1.47 3.36 3.402 3.36 1.974 0 3.402-1.47 3.402-3.36 0-1.806-1.428-3.318-3.402-3.318-1.932 0-3.402 1.512-3.402 3.318zm20.406 27.552c6.762 0 11.634-5.124 11.634-11.424s-4.872-11.466-11.634-11.466c-6.762 0-11.634 5.166-11.634 11.466 0 6.3 4.872 11.424 11.634 11.424zm-5.964-11.424c0-3.402 2.352-6.3 5.964-6.3 3.612 0 5.964 2.898 5.964 6.3 0 3.402-2.352 6.258-5.964 6.258-3.612 0-5.964-2.856-5.964-6.258zM338.59 148h5.67v-11.97c0-3.78 2.142-5.418 4.536-5.418 2.814 0 4.704 1.638 4.704 5.418V148h5.67v-13.356c0-5.502-3.612-8.988-8.316-8.988-3.36 0-5.544 1.26-6.678 3.696v-3.192h-5.586V148zm30.639 0h5.67v-21.84h-5.67V148zm-.588-27.006c0 1.848 1.47 3.36 3.402 3.36 1.974 0 3.402-1.47 3.402-3.36 0-1.806-1.428-3.318-3.402-3.318-1.932 0-3.402 1.512-3.402 3.318zm17.087 27.552c4.83 0 8.484-3.024 8.484-7.056 0-3.276-1.47-5.628-7.812-7.266-2.604-.672-2.94-1.344-2.94-2.1 0-1.344 1.176-1.932 2.73-1.932 1.47 0 2.814.672 3.864 2.352l4.116-3.15c-2.226-2.898-4.578-3.78-8.106-3.78-5.124 0-8.148 2.856-8.148 6.678 0 2.772.882 5.418 6.72 6.804 3.444.798 3.99 1.428 3.99 2.562 0 1.302-1.092 2.268-3.024 2.268-1.848 0-3.528-.882-5.124-2.688l-3.822 3.486c2.394 2.562 5.376 3.822 9.072 3.822zm25.859-.546h3.108v-5.04h-2.352c-1.092 0-1.764-.63-1.764-2.016v-9.954h4.62v-4.83h-4.62v-4.998l-5.67.588v4.41h-3.066v4.83h3.066v10.248c0 4.746 2.352 6.762 6.678 6.762zm5.507 0h5.67v-11.172c0-3.654 2.52-5.838 5.796-5.838h.798v-5.334c-3.78-.21-6.006 1.512-6.762 4.662v-4.158h-5.502V148zm22.256.504c3.402 0 5.376-1.26 6.426-3.78V148h5.502v-21.84h-5.67v11.97c0 3.78-2.142 5.418-4.536 5.418-2.814 0-4.368-1.638-4.368-5.418v-11.97h-5.67v13.356c0 5.502 3.612 8.988 8.316 8.988zm25.731.042c4.326 0 7.98-1.932 9.744-4.662l-4.41-3.318c-1.008 1.68-2.898 2.94-5.334 2.94-2.856 0-4.788-1.806-5.418-4.368h16.338c.126-.714.168-1.386.168-2.016 0-6.3-4.536-11.508-11.088-11.508s-11.298 5.208-11.298 11.508c0 6.3 4.536 11.424 11.298 11.424zm-5.418-13.65c.63-2.604 2.646-4.41 5.334-4.41 2.772 0 4.83 1.974 5.46 4.41h-10.794z" fill="#000"/><path d="M181.38 255v-2.296h5.46v-10.808h-4.76V239.6h7.28v13.104h5.18V255h-13.16zm6.44-18.172c-.616 0-1.101-.159-1.456-.476-.355-.317-.532-.747-.532-1.288 0-.56.177-.999.532-1.316.355-.336.84-.504 1.456-.504s1.101.168 1.456.504c.355.317.532.756.532 1.316 0 .541-.177.971-.532 1.288-.355.317-.84.476-1.456.476zM198.365 255v-15.4h2.52v2.94h.028c.131-1.027.551-1.82 1.26-2.38.709-.56 1.652-.84 2.828-.84 1.549 0 2.781.476 3.696 1.428s1.372 2.249 1.372 3.892V255h-2.52v-10.08c0-1.101-.299-1.941-.896-2.52-.579-.597-1.372-.896-2.38-.896-1.045 0-1.876.317-2.492.952-.597.635-.896 1.549-.896 2.744v9.8h-2.52zm24.293 0c-1.325 0-2.361-.355-3.108-1.064-.728-.709-1.092-1.708-1.092-2.996v-9.044h-4.34V239.6h4.34v-4.34h2.52v4.34h6.16v2.296h-6.16v9.044c0 1.176.56 1.764 1.68 1.764h4.2V255h-4.2z" fill="#973FFA"/><path d="M248.732 255v-15.4h2.52v2.94h.028c.131-1.027.551-1.82 1.26-2.38.71-.56 1.652-.84 2.828-.84 1.55 0 2.782.476 3.696 1.428.915.952 1.372 2.249 1.372 3.892V255h-2.52v-10.08c0-1.101-.298-1.941-.896-2.52-.578-.597-1.372-.896-2.38-.896-1.045 0-1.876.317-2.492.952-.597.635-.896 1.549-.896 2.744v9.8h-2.52zm22.585.28c-1.773 0-3.192-.523-4.256-1.568-1.064-1.064-1.596-2.501-1.596-4.312v-9.8h2.52v9.8c0 1.157.299 2.063.896 2.716.598.635 1.41.952 2.436.952 1.046 0 1.867-.317 2.464-.952.616-.653.924-1.559.924-2.716v-9.8h2.52v9.8c0 1.811-.541 3.248-1.624 4.312-1.082 1.045-2.51 1.568-4.284 1.568zm10.265-.28v-15.4h2.212v1.848h.168c.112-.653.383-1.167.812-1.54.448-.392 1.008-.588 1.68-.588 1.326 0 2.166.709 2.52 2.128h.112c.112-.653.392-1.167.84-1.54.467-.392 1.036-.588 1.708-.588.971 0 1.718.364 2.24 1.092.542.728.812 1.689.812 2.884V255h-2.324v-11.732c0-.635-.14-1.129-.42-1.484-.261-.355-.653-.532-1.176-.532-.504 0-.905.177-1.204.532-.28.336-.42.821-.42 1.456V255h-2.016v-11.732c0-.653-.149-1.148-.448-1.484-.28-.355-.681-.532-1.204-.532-.522 0-.914.177-1.176.532-.261.336-.392.821-.392 1.456V255h-2.324zm24.237.28c-1.157 0-2.109-.28-2.856-.84-.746-.579-1.185-1.372-1.316-2.38h-.028V255h-2.52v-20.44h2.52v4.48l-.056 3.5h.084c.131-.989.57-1.773 1.316-2.352.747-.579 1.699-.868 2.856-.868 1.55 0 2.791.513 3.724 1.54.934 1.027 1.4 2.427 1.4 4.2v4.508c0 1.755-.466 3.145-1.4 4.172-.933 1.027-2.174 1.54-3.724 1.54zm-.84-2.184c1.064 0 1.904-.317 2.52-.952.616-.635.924-1.549.924-2.744v-4.2c0-1.195-.308-2.109-.924-2.744-.616-.635-1.456-.952-2.52-.952-1.026 0-1.848.327-2.464.98-.597.653-.896 1.559-.896 2.716v4.2c0 1.157.299 2.063.896 2.716.616.653 1.438.98 2.464.98zm16.734 2.184c-1.214 0-2.278-.243-3.192-.728a5.268 5.268 0 01-2.1-2.044c-.486-.896-.728-1.932-.728-3.108v-4.2c0-1.195.242-2.231.728-3.108a5.268 5.268 0 012.1-2.044c.914-.485 1.978-.728 3.192-.728 1.213 0 2.268.243 3.164.728a5.049 5.049 0 012.1 2.044c.504.877.756 1.913.756 3.108v2.716h-9.576v1.484c0 1.213.308 2.147.924 2.8.616.635 1.493.952 2.632.952.97 0 1.754-.168 2.352-.504a2.226 2.226 0 001.092-1.568h2.52c-.168 1.288-.803 2.315-1.904 3.08-1.083.747-2.436 1.12-4.06 1.12zm-3.556-9.268h7.112v-.812c0-1.213-.308-2.147-.924-2.8-.598-.653-1.475-.98-2.632-.98-1.139 0-2.016.327-2.632.98-.616.653-.924 1.587-.924 2.8v.812zM333.21 255v-15.4h2.464v2.744c.504-2.016 1.857-3.024 4.06-3.024 1.624 0 2.912.513 3.864 1.54.97 1.008 1.456 2.38 1.456 4.116v.924h-2.52v-.7c0-1.213-.299-2.137-.896-2.772-.579-.653-1.41-.98-2.492-.98-1.064 0-1.904.327-2.52.98-.598.653-.896 1.577-.896 2.772v9.8h-2.52zm32.85-11.48v-2.24h12.04v2.24h-12.04zm0 6.72V248h12.04v2.24h-12.04zm33.718 4.76v-2.296h5.544V236.66l-5.544 4.144v-2.8l4.62-3.444h3.444v18.144h4.536V255h-12.6zm22.669.28c-1.885 0-3.388-.541-4.508-1.624-1.101-1.101-1.652-2.567-1.652-4.396v-8.96c0-1.829.551-3.285 1.652-4.368 1.12-1.101 2.623-1.652 4.508-1.652 1.885 0 3.379.551 4.48 1.652 1.12 1.083 1.68 2.539 1.68 4.368v8.96c0 1.213-.252 2.277-.756 3.192a5.313 5.313 0 01-2.156 2.1c-.915.485-1.997.728-3.248.728zm0-2.156c1.12 0 2.016-.355 2.688-1.064.691-.728 1.036-1.661 1.036-2.8v-8.96c0-1.139-.345-2.063-1.036-2.772-.672-.728-1.568-1.092-2.688-1.092s-2.025.364-2.716 1.092c-.672.709-1.008 1.633-1.008 2.772v8.96c0 1.139.336 2.072 1.008 2.8.691.709 1.596 1.064 2.716 1.064zm0-6.692c-.504 0-.915-.159-1.232-.476-.299-.317-.448-.737-.448-1.26 0-.504.149-.905.448-1.204.317-.317.728-.476 1.232-.476s.905.159 1.204.476c.317.299.476.7.476 1.204 0 .523-.159.943-.476 1.26-.299.317-.7.476-1.204.476zm16.509-2.912c-.616 0-1.12-.196-1.512-.588-.392-.392-.588-.896-.588-1.512 0-.597.196-1.092.588-1.484a2.055 2.055 0 011.512-.616h.56c.597 0 1.092.205 1.484.616.411.392.616.887.616 1.484 0 .616-.196 1.12-.588 1.512-.392.392-.896.588-1.512.588h-.56zm-3.36 15.96l2.24-8.708h3.64l-3.64 8.708h-2.24z" fill="#000"/><path d="M181.38 335v-2.296h5.46v-10.808h-4.76V319.6h7.28v13.104h5.18V335h-13.16zm6.44-18.172c-.616 0-1.101-.159-1.456-.476-.355-.317-.532-.747-.532-1.288 0-.56.177-.999.532-1.316.355-.336.84-.504 1.456-.504s1.101.168 1.456.504c.355.317.532.756.532 1.316 0 .541-.177.971-.532 1.288-.355.317-.84.476-1.456.476zM201.949 335v-11.564h-4.48v-2.296h4.48v-2.66c0-1.213.383-2.165 1.148-2.856.765-.709 1.82-1.064 3.164-1.064h4.508v2.296h-4.508c-1.195 0-1.792.541-1.792 1.624v2.66h6.3v2.296h-6.3V335h-2.52z" fill="#973FFA"/><path d="M226.158 338.36c-2.651-.653-4.713-1.941-6.188-3.864-1.475-1.923-2.212-4.275-2.212-7.056v-5.04c0-1.829.336-3.481 1.008-4.956a10.561 10.561 0 012.912-3.78c1.269-1.027 2.763-1.755 4.48-2.184v2.38a6.825 6.825 0 00-3.108 1.624c-.877.784-1.559 1.764-2.044 2.94-.485 1.176-.728 2.501-.728 3.976v5.04c0 1.437.233 2.744.7 3.92.485 1.176 1.167 2.156 2.044 2.94a7.326 7.326 0 003.136 1.568v2.492zm5.785-3.36v-15.4h2.52v2.94h.028c.131-1.027.551-1.82 1.26-2.38.71-.56 1.652-.84 2.828-.84 1.55 0 2.782.476 3.696 1.428.915.952 1.372 2.249 1.372 3.892V335h-2.52v-10.08c0-1.101-.298-1.941-.896-2.52-.578-.597-1.372-.896-2.38-.896-1.045 0-1.876.317-2.492.952-.597.635-.896 1.549-.896 2.744v9.8h-2.52zm22.585.28c-1.773 0-3.192-.523-4.256-1.568-1.064-1.064-1.596-2.501-1.596-4.312v-9.8h2.52v9.8c0 1.157.299 2.063.896 2.716.598.635 1.41.952 2.436.952 1.046 0 1.867-.317 2.464-.952.616-.653.924-1.559.924-2.716v-9.8h2.52v9.8c0 1.811-.541 3.248-1.624 4.312-1.082 1.045-2.51 1.568-4.284 1.568zm10.265-.28v-15.4h2.212v1.848h.168c.112-.653.383-1.167.812-1.54.448-.392 1.008-.588 1.68-.588 1.326 0 2.166.709 2.52 2.128h.112c.112-.653.392-1.167.84-1.54.467-.392 1.036-.588 1.708-.588.971 0 1.718.364 2.24 1.092.542.728.812 1.689.812 2.884V335h-2.324v-11.732c0-.635-.14-1.129-.42-1.484-.261-.355-.653-.532-1.176-.532-.504 0-.905.177-1.204.532-.28.336-.42.821-.42 1.456V335h-2.016v-11.732c0-.653-.149-1.148-.448-1.484-.28-.355-.681-.532-1.204-.532-.522 0-.914.177-1.176.532-.261.336-.392.821-.392 1.456V335h-2.324zm24.237.28c-1.157 0-2.109-.28-2.856-.84-.746-.579-1.185-1.372-1.316-2.38h-.028V335h-2.52v-20.44h2.52v4.48l-.056 3.5h.084c.131-.989.57-1.773 1.316-2.352.747-.579 1.699-.868 2.856-.868 1.55 0 2.791.513 3.724 1.54.934 1.027 1.4 2.427 1.4 4.2v4.508c0 1.755-.466 3.145-1.4 4.172-.933 1.027-2.174 1.54-3.724 1.54zm-.84-2.184c1.064 0 1.904-.317 2.52-.952.616-.635.924-1.549.924-2.744v-4.2c0-1.195-.308-2.109-.924-2.744-.616-.635-1.456-.952-2.52-.952-1.026 0-1.848.327-2.464.98-.597.653-.896 1.559-.896 2.716v4.2c0 1.157.299 2.063.896 2.716.616.653 1.438.98 2.464.98zm16.733 2.184c-1.213 0-2.277-.243-3.192-.728a5.268 5.268 0 01-2.1-2.044c-.485-.896-.728-1.932-.728-3.108v-4.2c0-1.195.243-2.231.728-3.108a5.268 5.268 0 012.1-2.044c.915-.485 1.979-.728 3.192-.728 1.214 0 2.268.243 3.164.728a5.037 5.037 0 012.1 2.044c.504.877.756 1.913.756 3.108v2.716h-9.576v1.484c0 1.213.308 2.147.924 2.8.616.635 1.494.952 2.632.952.971 0 1.755-.168 2.352-.504a2.22 2.22 0 001.092-1.568h2.52c-.168 1.288-.802 2.315-1.904 3.08-1.082.747-2.436 1.12-4.06 1.12zm-3.556-9.268h7.112v-.812c0-1.213-.308-2.147-.924-2.8-.597-.653-1.474-.98-2.632-.98-1.138 0-2.016.327-2.632.98-.616.653-.924 1.587-.924 2.8v.812zM316.421 335v-15.4h2.464v2.744c.504-2.016 1.857-3.024 4.06-3.024 1.624 0 2.912.513 3.864 1.54.97 1.008 1.456 2.38 1.456 4.116v.924h-2.52v-.7c0-1.213-.299-2.137-.896-2.772-.579-.653-1.41-.98-2.492-.98-1.064 0-1.904.327-2.52.98-.598.653-.896 1.577-.896 2.772v9.8h-2.52zm32.85-1.82v-2.436l8.68-4.256c.354-.168.681-.308.98-.42.317-.131.55-.215.7-.252a6.764 6.764 0 01-.728-.224c-.318-.131-.635-.28-.952-.448l-8.68-4.284v-2.52l12.04 6.02v2.8l-12.04 6.02zm39.598 2.1c-1.886 0-3.388-.541-4.508-1.624-1.102-1.101-1.652-2.567-1.652-4.396v-8.96c0-1.829.55-3.285 1.652-4.368 1.12-1.101 2.622-1.652 4.508-1.652 1.885 0 3.378.551 4.48 1.652 1.12 1.083 1.68 2.539 1.68 4.368v8.96c0 1.213-.252 2.277-.756 3.192a5.313 5.313 0 01-2.156 2.1c-.915.485-1.998.728-3.248.728zm0-2.156c1.12 0 2.016-.355 2.688-1.064.69-.728 1.036-1.661 1.036-2.8v-8.96c0-1.139-.346-2.063-1.036-2.772-.672-.728-1.568-1.092-2.688-1.092s-2.026.364-2.716 1.092c-.672.709-1.008 1.633-1.008 2.772v8.96c0 1.139.336 2.072 1.008 2.8.69.709 1.596 1.064 2.716 1.064zm0-6.692c-.504 0-.915-.159-1.232-.476-.299-.317-.448-.737-.448-1.26 0-.504.149-.905.448-1.204.317-.317.728-.476 1.232-.476s.905.159 1.204.476c.317.299.476.7.476 1.204 0 .523-.159.943-.476 1.26-.299.317-.7.476-1.204.476zm11.609 11.928v-2.492c1.213-.28 2.258-.803 3.136-1.568.877-.784 1.549-1.764 2.016-2.94.485-1.176.728-2.483.728-3.92v-5.04c0-1.475-.243-2.8-.728-3.976-.486-1.176-1.167-2.156-2.044-2.94a6.835 6.835 0 00-3.108-1.624v-2.38c1.736.429 3.229 1.157 4.48 2.184a10.292 10.292 0 012.884 3.78c.69 1.475 1.036 3.127 1.036 4.956v5.04c0 2.781-.738 5.133-2.212 7.056-1.475 1.923-3.538 3.211-6.188 3.864zm43.518-.28c-1.643 0-2.94-.411-3.892-1.232-.933-.803-1.363-1.941-1.288-3.416l.28-4.592c.056-.989-.093-1.699-.448-2.128-.355-.448-1.139-.672-2.352-.672h-3.08v-2.24h3.08c1.213 0 1.997-.215 2.352-.644.355-.448.504-1.167.448-2.156l-.28-4.592c-.075-1.475.355-2.613 1.288-3.416.952-.821 2.249-1.232 3.892-1.232h1.26V314h-1.26c-.877 0-1.549.205-2.016.616-.467.392-.681.989-.644 1.792l.28 4.592c.056 1.064-.168 1.941-.672 2.632-.485.691-1.195 1.12-2.128 1.288.915.168 1.624.597 2.128 1.288.504.691.728 1.568.672 2.632l-.28 4.592c-.037.803.177 1.4.644 1.792.467.411 1.139.616 2.016.616h1.26v2.24h-1.26zm-262.616 74v-2.24h1.26c.877 0 1.549-.205 2.016-.616.467-.392.681-.989.644-1.792l-.28-4.592c-.056-1.064.168-1.941.672-2.632.504-.691 1.213-1.12 2.128-1.288-.933-.168-1.652-.597-2.156-1.288-.485-.691-.7-1.568-.644-2.632l.28-4.592c.037-.803-.177-1.4-.644-1.792-.467-.411-1.139-.616-2.016-.616h-1.26v-2.24h1.26c1.661 0 2.959.411 3.892 1.232.952.803 1.381 1.941 1.288 3.416l-.28 4.592c-.056.989.093 1.708.448 2.156.355.429 1.139.644 2.352.644h3.08v2.24h-3.08c-1.195 0-1.979.224-2.352.672-.355.429-.504 1.139-.448 2.128l.28 4.592c.093 1.475-.336 2.613-1.288 3.416-.933.821-2.231 1.232-3.892 1.232h-1.26z" fill="#000"/><path d="M229.367 375.08l9.94-26.32h2.66l-9.94 26.32h-2.66zm-12.6 0l9.94-26.32h2.66l-9.94 26.32h-2.66zm37.901-2.8c-1.866 0-3.36-.523-4.48-1.568-1.101-1.045-1.652-2.483-1.652-4.312v-4.2c0-1.829.551-3.267 1.652-4.312 1.12-1.045 2.614-1.568 4.48-1.568 1.774 0 3.202.476 4.284 1.428 1.083.952 1.652 2.249 1.708 3.892h-2.52c-.056-.989-.392-1.745-1.008-2.268-.597-.541-1.418-.812-2.464-.812-1.101 0-1.978.317-2.632.952-.653.616-.98 1.503-.98 2.66v4.228c0 1.157.327 2.053.98 2.688.654.635 1.531.952 2.632.952 1.046 0 1.867-.271 2.464-.812.616-.541.952-1.297 1.008-2.268h2.52c-.056 1.643-.625 2.94-1.708 3.892-1.082.952-2.51 1.428-4.284 1.428zm16.677-.056c-1.829 0-3.294-.523-4.396-1.568-1.082-1.045-1.624-2.483-1.624-4.312v-4.088c0-1.829.542-3.267 1.624-4.312 1.102-1.045 2.567-1.568 4.396-1.568 1.83 0 3.286.523 4.368 1.568 1.102 1.027 1.652 2.455 1.652 4.284v4.116c0 1.829-.55 3.267-1.652 4.312-1.082 1.045-2.538 1.568-4.368 1.568zm0-2.24c1.102 0 1.96-.308 2.576-.924.616-.616.924-1.521.924-2.716v-4.088c0-1.195-.308-2.1-.924-2.716-.616-.616-1.474-.924-2.576-.924-1.082 0-1.941.308-2.576.924-.616.616-.924 1.521-.924 2.716v4.088c0 1.195.308 2.1.924 2.716.635.616 1.494.924 2.576.924zm15.893 2.296c-1.53 0-2.772-.513-3.724-1.54-.933-1.027-1.4-2.417-1.4-4.172v-4.508c0-1.773.467-3.173 1.4-4.2.934-1.027 2.175-1.54 3.724-1.54 1.158 0 2.11.289 2.856.868.747.579 1.186 1.363 1.316 2.352h.084l-.056-3.5v-4.48h2.52V372h-2.52v-2.94h-.028c-.13 1.008-.569 1.801-1.316 2.38-.746.56-1.698.84-2.856.84zm.84-2.184c1.046 0 1.867-.327 2.464-.98.598-.653.896-1.559.896-2.716v-4.2c0-1.157-.298-2.063-.896-2.716-.597-.653-1.418-.98-2.464-.98-1.064 0-1.904.317-2.52.952-.616.635-.924 1.549-.924 2.744v4.2c0 1.195.308 2.109.924 2.744.616.635 1.456.952 2.52.952zm16.845 2.184c-1.213 0-2.277-.243-3.192-.728a5.268 5.268 0 01-2.1-2.044c-.485-.896-.728-1.932-.728-3.108v-4.2c0-1.195.243-2.231.728-3.108a5.268 5.268 0 012.1-2.044c.915-.485 1.979-.728 3.192-.728 1.214 0 2.268.243 3.164.728a5.037 5.037 0 012.1 2.044c.504.877.756 1.913.756 3.108v2.716h-9.576v1.484c0 1.213.308 2.147.924 2.8.616.635 1.494.952 2.632.952.971 0 1.755-.168 2.352-.504a2.22 2.22 0 001.092-1.568h2.52c-.168 1.288-.802 2.315-1.904 3.08-1.082.747-2.436 1.12-4.06 1.12zm-3.556-9.268h7.112v-.812c0-1.213-.308-2.147-.924-2.8-.597-.653-1.474-.98-2.632-.98-1.138 0-2.016.327-2.632.98-.616.653-.924 1.587-.924 2.8v.812zM195.789 486.08l9.94-26.32h2.66l-9.94 26.32h-2.66zm-12.6 0l9.94-26.32h2.66l-9.94 26.32h-2.66zm37.901-2.8c-1.867 0-3.36-.523-4.48-1.568-1.101-1.045-1.652-2.483-1.652-4.312v-4.2c0-1.829.551-3.267 1.652-4.312 1.12-1.045 2.613-1.568 4.48-1.568 1.773 0 3.201.476 4.284 1.428 1.083.952 1.652 2.249 1.708 3.892h-2.52c-.056-.989-.392-1.745-1.008-2.268-.597-.541-1.419-.812-2.464-.812-1.101 0-1.979.317-2.632.952-.653.616-.98 1.503-.98 2.66v4.228c0 1.157.327 2.053.98 2.688.653.635 1.531.952 2.632.952 1.045 0 1.867-.271 2.464-.812.616-.541.952-1.297 1.008-2.268h2.52c-.056 1.643-.625 2.94-1.708 3.892s-2.511 1.428-4.284 1.428zm16.677-.056c-1.829 0-3.294-.523-4.396-1.568-1.082-1.045-1.624-2.483-1.624-4.312v-4.088c0-1.829.542-3.267 1.624-4.312 1.102-1.045 2.567-1.568 4.396-1.568 1.83 0 3.286.523 4.368 1.568 1.102 1.027 1.652 2.455 1.652 4.284v4.116c0 1.829-.55 3.267-1.652 4.312-1.082 1.045-2.538 1.568-4.368 1.568zm0-2.24c1.102 0 1.96-.308 2.576-.924.616-.616.924-1.521.924-2.716v-4.088c0-1.195-.308-2.1-.924-2.716-.616-.616-1.474-.924-2.576-.924-1.082 0-1.941.308-2.576.924-.616.616-.924 1.521-.924 2.716v4.088c0 1.195.308 2.1.924 2.716.635.616 1.494.924 2.576.924zm15.893 2.296c-1.53 0-2.772-.513-3.724-1.54-.933-1.027-1.4-2.417-1.4-4.172v-4.508c0-1.773.467-3.173 1.4-4.2.934-1.027 2.175-1.54 3.724-1.54 1.158 0 2.11.289 2.856.868.747.579 1.186 1.363 1.316 2.352h.084l-.056-3.5v-4.48h2.52V483h-2.52v-2.94h-.028c-.13 1.008-.569 1.801-1.316 2.38-.746.56-1.698.84-2.856.84zm.84-2.184c1.046 0 1.867-.327 2.464-.98.598-.653.896-1.559.896-2.716v-4.2c0-1.157-.298-2.063-.896-2.716-.597-.653-1.418-.98-2.464-.98-1.064 0-1.904.317-2.52.952-.616.635-.924 1.549-.924 2.744v4.2c0 1.195.308 2.109.924 2.744.616.635 1.456.952 2.52.952zm16.845 2.184c-1.213 0-2.277-.243-3.192-.728a5.268 5.268 0 01-2.1-2.044c-.485-.896-.728-1.932-.728-3.108v-4.2c0-1.195.243-2.231.728-3.108a5.268 5.268 0 012.1-2.044c.915-.485 1.979-.728 3.192-.728 1.214 0 2.268.243 3.164.728a5.037 5.037 0 012.1 2.044c.504.877.756 1.913.756 3.108v2.716h-9.576v1.484c0 1.213.308 2.147.924 2.8.616.635 1.494.952 2.632.952.971 0 1.755-.168 2.352-.504a2.22 2.22 0 001.092-1.568h2.52c-.168 1.288-.802 2.315-1.904 3.08-1.082.747-2.436 1.12-4.06 1.12zm-3.556-9.268h7.112v-.812c0-1.213-.308-2.147-.924-2.8-.597-.653-1.474-.98-2.632-.98-1.138 0-2.016.327-2.632.98-.616.653-.924 1.587-.924 2.8v.812zm35.79 9.268c-1.624 0-2.902-.411-3.836-1.232-.933-.84-1.4-1.969-1.4-3.388 0-1.437.467-2.567 1.4-3.388.934-.821 2.194-1.232 3.78-1.232h4.76v-1.54c0-.952-.289-1.68-.868-2.184-.56-.523-1.362-.784-2.408-.784-.914 0-1.68.196-2.296.588-.616.373-.97.887-1.064 1.54h-2.52c.168-1.325.794-2.38 1.876-3.164 1.083-.784 2.436-1.176 4.06-1.176 1.774 0 3.174.457 4.2 1.372 1.027.915 1.54 2.156 1.54 3.724V483h-2.464v-2.94h-.028c-.112.989-.597 1.773-1.456 2.352-.84.579-1.932.868-3.276.868zm.616-1.988c1.195 0 2.175-.299 2.94-.896.766-.597 1.148-1.363 1.148-2.296v-2.184h-4.704c-.84 0-1.502.233-1.988.7-.485.467-.728 1.101-.728 1.904 0 .859.29 1.54.868 2.044.598.485 1.419.728 2.464.728zM319.473 483v-11.564h-4.48v-2.296h4.48v-2.66c0-1.213.382-2.165 1.148-2.856.765-.709 1.82-1.064 3.164-1.064h4.508v2.296h-4.508c-1.195 0-1.792.541-1.792 1.624v2.66h6.3v2.296h-6.3V483h-2.52zm20.709 0c-1.326 0-2.362-.355-3.108-1.064-.728-.709-1.092-1.708-1.092-2.996v-9.044h-4.34V467.6h4.34v-4.34h2.52v4.34h6.16v2.296h-6.16v9.044c0 1.176.56 1.764 1.68 1.764h4.2V483h-4.2zm15.109.28c-1.214 0-2.278-.243-3.192-.728a5.268 5.268 0 01-2.1-2.044c-.486-.896-.728-1.932-.728-3.108v-4.2c0-1.195.242-2.231.728-3.108a5.268 5.268 0 012.1-2.044c.914-.485 1.978-.728 3.192-.728 1.213 0 2.268.243 3.164.728a5.049 5.049 0 012.1 2.044c.504.877.756 1.913.756 3.108v2.716h-9.576v1.484c0 1.213.308 2.147.924 2.8.616.635 1.493.952 2.632.952.97 0 1.754-.168 2.352-.504a2.226 2.226 0 001.092-1.568h2.52c-.168 1.288-.803 2.315-1.904 3.08-1.083.747-2.436 1.12-4.06 1.12zm-3.556-9.268h7.112v-.812c0-1.213-.308-2.147-.924-2.8-.598-.653-1.475-.98-2.632-.98-1.139 0-2.016.327-2.632.98-.616.653-.924 1.587-.924 2.8v.812zM366.788 483v-15.4h2.464v2.744c.504-2.016 1.857-3.024 4.06-3.024 1.624 0 2.912.513 3.864 1.54.97 1.008 1.456 2.38 1.456 4.116v.924h-2.52v-.7c0-1.213-.299-2.137-.896-2.772-.579-.653-1.41-.98-2.492-.98-1.064 0-1.904.327-2.52.98-.598.653-.896 1.577-.896 2.772v9.8h-2.52zm32.85 0v-2.296h5.46v-10.808h-4.76V467.6h7.28v13.104h5.18V483h-13.16zm6.44-18.172c-.616 0-1.102-.159-1.456-.476-.355-.317-.532-.747-.532-1.288 0-.56.177-.999.532-1.316.354-.336.84-.504 1.456-.504s1.101.168 1.456.504c.354.317.532.756.532 1.316 0 .541-.178.971-.532 1.288-.355.317-.84.476-1.456.476zM420.207 483v-11.564h-4.48v-2.296h4.48v-2.66c0-1.213.383-2.165 1.148-2.856.765-.709 1.82-1.064 3.164-1.064h4.508v2.296h-4.508c-1.195 0-1.792.541-1.792 1.624v2.66h6.3v2.296h-6.3V483h-2.52z" fill="#DB6A05"/><path d="M173 328.5a1.5 1.5 0 000-3v3zm33.061 35.561a1.502 1.502 0 000-2.122l-9.546-9.546a1.502 1.502 0 00-2.122 0 1.502 1.502 0 000 2.122l8.486 8.485-8.486 8.485a1.502 1.502 0 000 2.122 1.502 1.502 0 002.122 0l9.546-9.546zM173 325.5h-54v3h54v-3zm-61.5 7.5v24h3v-24h-3zm7.5 31.5h86v-3h-86v3zm-7.5-7.5a7.5 7.5 0 007.5 7.5v-3a4.5 4.5 0 01-4.5-4.5h-3zm7.5-31.5a7.5 7.5 0 00-7.5 7.5h3a4.5 4.5 0 014.5-4.5v-3zM573 130a3 3 0 10-6 0h6zm-6 338a3 3 0 106 0h-6zm0-330.318a3 3 0 106 0h-6zm6 15.363a3 3 0 00-6 0h6zm-6 15.364a3 3 0 106 0h-6zm6 15.364a3 3 0 10-6 0h6zm-6 15.363a3 3 0 106 0h-6zm6 15.364a3 3 0 10-6 0h6zm-6 15.364a3 3 0 006 0h-6zm6 15.363a3 3 0 10-6 0h6zm-6 15.364a3 3 0 106 0h-6zm6 15.364a3 3 0 10-6 0h6zm-6 15.363a3 3 0 106 0h-6zm6 15.364a3 3 0 10-6 0h6zm-6 15.363a3 3 0 106 0h-6zm6 15.364a3 3 0 10-6 0h6zm-6 15.364a3 3 0 106 0h-6zm6 15.363a3 3 0 10-6 0h6zm-6 15.364a3 3 0 106 0h-6zm6 15.364a3 3 0 10-6 0h6zm-6 15.363a3 3 0 106 0h-6zm6 15.364a3 3 0 10-6 0h6zm-6 15.364a3 3 0 006 0h-6zm6 15.363a3 3 0 10-6 0h6zM567 130v7.682h6V130h-6zm0 23.045v15.364h6v-15.364h-6zm0 30.728v15.363h6v-15.363h-6zm0 30.727v15.364h6V214.5h-6zm0 30.727v15.364h6v-15.364h-6zm0 30.728v15.363h6v-15.363h-6zm0 30.727v15.363h6v-15.363h-6zm0 30.727v15.364h6v-15.364h-6zm0 30.727V383.5h6v-15.364h-6zm0 30.728v15.363h6v-15.363h-6zm0 30.727v15.364h6v-15.364h-6zm0 30.727V468h6v-7.682h-6z" fill="#3884FF"/></g><defs><linearGradient id="prefix__paint0_linear_846_139" x1="0" y1="0" x2="489.17" y2="936.482" gradientUnits="userSpaceOnUse"><stop stop-color="#38BDF8"/><stop offset="1" stop-color="#6366F1"/></linearGradient><filter id="prefix__filter0_d_846_139" x="25" y="41" width="1091" height="546" filterUnits="userSpaceOnUse" color-interpolation-filters="sRGB"><feFlood flood-opacity="0" result="BackgroundImageFix"/><feColorMatrix in="SourceAlpha" values="0 0 0 0 0 0 0 0 0 0 0 0 0 0 0 0 0 0 127 0" result="hardAlpha"/><feOffset dy="16"/><feGaussianBlur stdDeviation="12.5"/><feComposite in2="hardAlpha" operator="out"/><feColorMatrix values="0 0 0 0 0 0 0 0 0 0 0 0 0 0 0 0 0 0 0.15 0"/><feBlend in2="BackgroundImageFix" result="effect1_dropShadow_846_139"/><feBlend in="SourceGraphic" in2="effect1_dropShadow_846_139" result="shape"/></filter></defs></svg>