<svg width="864" height="864" viewBox="0 0 864 864" fill="none" xmlns="http://www.w3.org/2000/svg">
<path d="M476.723 11.9474L772.331 183.391C785.8 191.215 796.985 202.456 804.766 215.99C812.548 229.523 816.651 244.873 816.667 260.502V603.388C816.667 635.198 799.85 664.704 772.331 680.609L476.723 852.053C463.227 859.879 447.918 864 432.333 864C416.749 864 401.439 859.879 387.943 852.053L92.3357 680.609C78.8507 672.776 67.655 661.517 59.8728 647.963C52.0907 634.408 47.996 619.035 48 603.388V260.502C48 228.692 64.9262 199.296 92.3357 183.391L387.943 11.9474C401.439 4.12053 416.749 0 432.333 0C447.918 0 463.227 4.12053 476.723 11.9474ZM614.863 270.483L470.281 186.791C456.81 179.005 441.541 174.907 426 174.907C410.458 174.907 395.189 179.005 381.719 186.791L237.136 270.483C223.631 278.303 212.413 289.556 204.612 303.111C196.81 316.667 192.698 332.047 192.691 347.704V514.76C192.691 546.57 209.618 576.186 237.136 591.981L381.719 675.673C395.189 683.459 410.458 687.557 426 687.557C441.541 687.557 456.81 683.459 470.281 675.673L614.863 591.981C628.368 584.162 639.586 572.908 647.388 559.353C655.19 545.798 659.301 530.418 659.308 514.76V347.704C659.308 315.895 642.272 286.279 614.863 270.483Z" fill="black"/>
<path d="M548.666 431.128C548.666 493.912 497.896 544.808 435.267 544.808C372.638 544.808 321.868 493.912 321.868 431.128C321.868 368.345 372.638 317.448 435.267 317.448C497.896 317.448 548.666 368.345 548.666 431.128Z" fill="black"/>
</svg>
