<?xml version="1.0" standalone="no"?>
<!DOCTYPE svg PUBLIC "-//W3C//DTD SVG 20010904//EN" "http://www.w3.org/TR/2001/REC-SVG-20010904/DTD/svg10.dtd">
<svg version="1.0" xmlns="http://www.w3.org/2000/svg" width="2200.000000pt" height="2200.000000pt"
    viewBox="0 0 2200.000000 2200.000000" preserveAspectRatio="xMidYMid meet">
    <svg width="2200" height="2200" viewBox="0 0 2200 2200" fill="none" xmlns="http://www.w3.org/2000/svg">
        <path
            d="M1198.11 171.384L1852.52 549.988C1882.34 567.265 1907.1 592.091 1924.33 621.978C1941.55 651.864 1950.64 685.762 1950.67 720.275V1477.48C1950.67 1547.73 1913.44 1612.89 1852.52 1648.01L1198.11 2026.62C1168.23 2043.9 1134.34 2053 1099.84 2053C1065.34 2053 1031.44 2043.9 1001.57 2026.62L347.15 1648.01C317.297 1630.71 292.512 1605.85 275.284 1575.92C258.056 1545.98 248.991 1512.04 249 1477.48V720.275C249 650.028 286.471 585.111 347.15 549.988L1001.57 171.384C1031.44 154.099 1065.34 145 1099.84 145C1134.34 145 1168.23 154.099 1198.11 171.384ZM1503.92 742.318L1183.84 557.497C1154.02 540.302 1120.22 531.253 1085.82 531.253C1051.41 531.253 1017.61 540.302 987.786 557.497L667.71 742.318C637.812 759.585 612.978 784.436 595.707 814.371C578.435 844.306 569.333 878.27 569.318 912.847V1281.76C569.318 1352.01 606.789 1417.41 667.71 1452.29L987.786 1637.11C1017.61 1654.31 1051.41 1663.36 1085.82 1663.36C1120.22 1663.36 1154.02 1654.31 1183.84 1637.11L1503.92 1452.29C1533.82 1435.02 1558.65 1410.17 1575.92 1380.24C1593.2 1350.3 1602.3 1316.34 1602.31 1281.76V912.847C1602.31 842.601 1564.6 777.199 1503.92 742.318Z"
            fill="#3884FF" />
        <circle cx="1106.34" cy="1097.07" r="251.043" fill="black" />
    </svg>
</svg>