<?xml version="1.0" standalone="no"?>
<!DOCTYPE svg PUBLIC "-//W3C//DTD SVG 20010904//EN" "http://www.w3.org/TR/2001/REC-SVG-20010904/DTD/svg10.dtd">
<svg version="1.0" xmlns="http://www.w3.org/2000/svg" width="2200.000000pt" height="2200.000000pt"
    viewBox="0 0 2200.000000 2200.000000" preserveAspectRatio="xMidYMid meet">
    <metadata>
        Created by potrace 1.11, written by Peter Selinger 2001-2013
    </metadata>
    <svg width="2200" height="2200" viewBox="0 0 2200 2200" fill="none" xmlns="http://www.w3.org/2000/svg">
        <path
            d="M1198.36 173.356L1852.95 551.563C1882.77 568.823 1907.54 593.623 1924.77 623.478C1942 653.333 1951.09 687.195 1951.12 721.672V1478.09C1951.12 1548.26 1913.89 1613.35 1852.95 1648.44L1198.36 2026.64C1168.47 2043.91 1134.57 2053 1100.06 2053C1065.55 2053 1031.65 2043.91 1001.76 2026.64L347.176 1648.44C317.315 1631.16 292.524 1606.32 275.291 1576.42C258.058 1546.52 248.991 1512.6 249 1478.09V721.672C249 651.499 286.481 586.65 347.176 551.563L1001.76 173.356C1031.65 156.09 1065.55 147 1100.06 147C1134.57 147 1168.47 156.09 1198.36 173.356ZM1504.25 743.692L1184.09 559.065C1154.26 541.888 1120.45 532.848 1086.04 532.848C1051.62 532.848 1017.81 541.888 987.982 559.065L667.821 743.692C637.915 760.941 613.075 785.766 595.798 815.669C578.522 845.573 569.418 879.501 569.403 914.042V1282.57C569.403 1352.74 606.884 1418.08 667.821 1452.92L987.982 1637.55C1017.81 1654.72 1051.62 1663.76 1086.04 1663.76C1120.45 1663.76 1154.26 1654.72 1184.09 1637.55L1504.25 1452.92C1534.16 1435.67 1559 1410.85 1576.28 1380.94C1593.55 1351.04 1602.66 1317.11 1602.67 1282.57V914.042C1602.67 843.869 1564.95 778.536 1504.25 743.692ZM729 1078.59L914.229 892.99C921.615 885.632 931.614 881.5 942.037 881.5C952.46 881.5 962.459 885.632 969.846 892.99L1034.89 957.84C1050.13 973.326 1050.13 998.25 1034.89 1013.49L942.037 1106.41L1034.89 1199.09C1050.13 1214.58 1050.13 1239.5 1034.89 1254.74L969.846 1319.59C954.611 1335.08 929.705 1335.08 914.229 1319.59L729 1134.24C721.646 1126.85 717.517 1116.84 717.517 1106.41C717.517 1095.98 721.646 1085.98 729 1078.59ZM1479.1 1077.38L1293.63 891.78C1286.25 884.422 1276.25 880.291 1265.83 880.291C1255.4 880.291 1245.4 884.422 1238.02 891.78L1173.21 956.63C1165.86 964.021 1161.73 974.027 1161.73 984.457C1161.73 994.887 1165.86 1004.89 1173.21 1012.28L1265.83 1105.2L1173.21 1197.88C1165.86 1205.27 1161.73 1215.28 1161.73 1225.71C1161.73 1236.14 1165.86 1246.14 1173.21 1253.53L1238.26 1318.38C1253.49 1333.87 1278.4 1333.87 1293.88 1318.38L1479.1 1133.03C1494.58 1117.54 1494.58 1092.62 1479.1 1077.38Z"
            fill="#3884FF" />
    </svg>