<svg xmlns="http://www.w3.org/2000/svg" width="352" height="232" fill="none" viewBox="0 0 352 232"><g clip-path="url(#clip0)"><rect width="352" height="232" fill="#fff" rx="12"/><g opacity=".8"><g filter="url(#filter0_dd)" opacity=".8"><path fill="#fff" d="M340 0H12C5.37258 0 0 5.37258 0 12V220C0 226.627 5.37258 232 12 232H340C346.627 232 352 226.627 352 220V12C352 5.37258 346.627 0 340 0Z" opacity=".8"/></g><path fill="#DDD6FE" d="M107 27H315V28H107V27Z" opacity=".8"/><path fill="#C4B5FD" d="M71 43H50C48.8954 43 48 43.8954 48 45C48 46.1046 48.8954 47 50 47H71C72.1046 47 73 46.1046 73 45C73 43.8954 72.1046 43 71 43Z" opacity=".8"/><path fill="#DDD6FE" d="M278 43H257C255.895 43 255 43.8954 255 45C255 46.1046 255.895 47 257 47H278C279.105 47 280 46.1046 280 45C280 43.8954 279.105 43 278 43Z" opacity=".8"/><path fill="#DDD6FE" d="M285 51H257C255.895 51 255 51.8954 255 53C255 54.1046 255.895 55 257 55H285C286.105 55 287 54.1046 287 53C287 51.8954 286.105 51 285 51Z" opacity=".8"/><path fill="#DDD6FE" d="M277 59H257C255.895 59 255 59.8954 255 61C255 62.1046 255.895 63 257 63H277C278.105 63 279 62.1046 279 61C279 59.8954 278.105 59 277 59Z" opacity=".8"/><path fill="#DDD6FE" d="M288 67H257C255.895 67 255 67.8954 255 69C255 70.1046 255.895 71 257 71H288C289.105 71 290 70.1046 290 69C290 67.8954 289.105 67 288 67Z" opacity=".8"/><path fill="#DDD6FE" d="M275 75H257C255.895 75 255 75.8954 255 77C255 78.1046 255.895 79 257 79H275C276.105 79 277 78.1046 277 77C277 75.8954 276.105 75 275 75Z" opacity=".8"/><path fill="#A78BFA" d="M160 42H111C108.791 42 107 43.7909 107 46C107 48.2091 108.791 50 111 50H160C162.209 50 164 48.2091 164 46C164 43.7909 162.209 42 160 42Z" opacity=".8"/><path fill="#C4B5FD" d="M226 54H109C107.895 54 107 54.8954 107 56C107 57.1046 107.895 58 109 58H226C227.105 58 228 57.1046 228 56C228 54.8954 227.105 54 226 54Z" opacity=".8"/><path fill="#DDD6FE" d="M168 11H123C121.895 11 121 11.8954 121 13C121 14.1046 121.895 15 123 15H168C169.105 15 170 14.1046 170 13C170 11.8954 169.105 11 168 11Z" opacity=".8"/><path fill="#DDD6FE" d="M301 11H294C292.895 11 292 11.8954 292 13C292 14.1046 292.895 15 294 15H301C302.105 15 303 14.1046 303 13C303 11.8954 302.105 11 301 11Z" opacity=".8"/><path fill="#DDD6FE" d="M234 70H109C107.895 70 107 70.8954 107 72C107 73.1046 107.895 74 109 74H234C235.105 74 236 73.1046 236 72C236 70.8954 235.105 70 234 70Z" opacity=".8"/><path fill="#DDD6FE" d="M234 177H109C107.895 177 107 177.895 107 179C107 180.105 107.895 181 109 181H234C235.105 181 236 180.105 236 179C236 177.895 235.105 177 234 177Z" opacity=".8"/><path fill="#DDD6FE" d="M242 129H109C107.895 129 107 129.895 107 131C107 132.105 107.895 133 109 133H242C243.105 133 244 132.105 244 131C244 129.895 243.105 129 242 129Z" opacity=".8"/><path fill="#DDD6FE" d="M242 137H109C107.895 137 107 137.895 107 139C107 140.105 107.895 141 109 141H242C243.105 141 244 140.105 244 139C244 137.895 243.105 137 242 137Z" opacity=".8"/><path fill="#DDD6FE" d="M234 211H109C107.895 211 107 211.895 107 213C107 214.105 107.895 215 109 215H234C235.105 215 236 214.105 236 213C236 211.895 235.105 211 234 211Z" opacity=".8"/><path fill="#DDD6FE" d="M234 78H109C107.895 78 107 78.8954 107 80C107 81.1046 107.895 82 109 82H234C235.105 82 236 81.1046 236 80C236 78.8954 235.105 78 234 78Z" opacity=".8"/><path fill="#DDD6FE" d="M226 185H109C107.895 185 107 185.895 107 187C107 188.105 107.895 189 109 189H226C227.105 189 228 188.105 228 187C228 185.895 227.105 185 226 185Z" opacity=".8"/><path fill="#DDD6FE" d="M226 219H109C107.895 219 107 219.895 107 221C107 222.105 107.895 223 109 223H226C227.105 223 228 222.105 228 221C228 219.895 227.105 219 226 219Z" opacity=".8"/><path fill="#DDD6FE" d="M226 86H109C107.895 86 107 86.8954 107 88C107 89.1046 107.895 90 109 90H226C227.105 90 228 89.1046 228 88C228 86.8954 227.105 86 226 86Z" opacity=".8"/><path fill="#DDD6FE" d="M226 94H109C107.895 94 107 94.8954 107 96C107 97.1046 107.895 98 109 98H226C227.105 98 228 97.1046 228 96C228 94.8954 227.105 94 226 94Z" opacity=".8"/><path fill="#DDD6FE" d="M234 102H109C107.895 102 107 102.895 107 104C107 105.105 107.895 106 109 106H234C235.105 106 236 105.105 236 104C236 102.895 235.105 102 234 102Z" opacity=".8"/><path fill="#A78BFA" d="M161 118H110C108.343 118 107 119.343 107 121C107 122.657 108.343 124 110 124H161C162.657 124 164 122.657 164 121C164 119.343 162.657 118 161 118Z" opacity=".8"/><path fill="#A78BFA" d="M161 201H110C108.343 201 107 202.343 107 204C107 205.657 108.343 207 110 207H161C162.657 207 164 205.657 164 204C164 202.343 162.657 201 161 201Z" opacity=".8"/><path fill="#C4B5FD" d="M67 53H50C48.8954 53 48 53.8954 48 55C48 56.1046 48.8954 57 50 57H67C68.1046 57 69 56.1046 69 55C69 53.8954 68.1046 53 67 53Z" opacity=".8"/><path fill="#C4B5FD" d="M64 63H50C48.8954 63 48 63.8954 48 65C48 66.1046 48.8954 67 50 67H64C65.1046 67 66 66.1046 66 65C66 63.8954 65.1046 63 64 63Z" opacity=".8"/><path fill="#C4B5FD" d="M59 73H50C48.8954 73 48 73.8954 48 75C48 76.1046 48.8954 77 50 77H59C60.1046 77 61 76.1046 61 75C61 73.8954 60.1046 73 59 73Z" opacity=".8"/><path fill="#C4B5FD" d="M65 83H50C48.8954 83 48 83.8954 48 85C48 86.1046 48.8954 87 50 87H65C66.1046 87 67 86.1046 67 85C67 83.8954 66.1046 83 65 83Z" opacity=".8"/><path fill="#C4B5FD" d="M69 93H50C48.8954 93 48 93.8954 48 95C48 96.1046 48.8954 97 50 97H69C70.1046 97 71 96.1046 71 95C71 93.8954 70.1046 93 69 93Z" opacity=".8"/><path fill="#A78BFA" d="M58.5 112H38.5C37.6716 112 37 112.672 37 113.5C37 114.328 37.6716 115 38.5 115H58.5C59.3284 115 60 114.328 60 113.5C60 112.672 59.3284 112 58.5 112Z" opacity=".8"/><path fill="#A78BFA" d="M58.5 180H38.5C37.6716 180 37 180.672 37 181.5C37 182.328 37.6716 183 38.5 183H58.5C59.3284 183 60 182.328 60 181.5C60 180.672 59.3284 180 58.5 180Z" opacity=".8"/><path fill="#DDD6FE" d="M53 120H39C37.8954 120 37 120.895 37 122C37 123.105 37.8954 124 39 124H53C54.1046 124 55 123.105 55 122C55 120.895 54.1046 120 53 120Z" opacity=".8"/><path fill="#DDD6FE" d="M53 188H39C37.8954 188 37 188.895 37 190C37 191.105 37.8954 192 39 192H53C54.1046 192 55 191.105 55 190C55 188.895 54.1046 188 53 188Z" opacity=".8"/><path fill="#DDD6FE" d="M53 128H39C37.8954 128 37 128.895 37 130C37 131.105 37.8954 132 39 132H53C54.1046 132 55 131.105 55 130C55 128.895 54.1046 128 53 128Z" opacity=".8"/><path fill="#DDD6FE" d="M53 196H39C37.8954 196 37 196.895 37 198C37 199.105 37.8954 200 39 200H53C54.1046 200 55 199.105 55 198C55 196.895 54.1046 196 53 196Z" opacity=".8"/><path fill="#DDD6FE" d="M56 136H39C37.8954 136 37 136.895 37 138C37 139.105 37.8954 140 39 140H56C57.1046 140 58 139.105 58 138C58 136.895 57.1046 136 56 136Z" opacity=".8"/><path fill="#DDD6FE" d="M56 204H39C37.8954 204 37 204.895 37 206C37 207.105 37.8954 208 39 208H56C57.1046 208 58 207.105 58 206C58 204.895 57.1046 204 56 204Z" opacity=".8"/><path fill="#DDD6FE" d="M56 144H39C37.8954 144 37 144.895 37 146C37 147.105 37.8954 148 39 148H56C57.1046 148 58 147.105 58 146C58 144.895 57.1046 144 56 144Z" opacity=".8"/><path fill="#DDD6FE" d="M56 212H39C37.8954 212 37 212.895 37 214C37 215.105 37.8954 216 39 216H56C57.1046 216 58 215.105 58 214C58 212.895 57.1046 212 56 212Z" opacity=".8"/><path fill="#DDD6FE" d="M65 152H39C37.8954 152 37 152.895 37 154C37 155.105 37.8954 156 39 156H65C66.1046 156 67 155.105 67 154C67 152.895 66.1046 152 65 152Z" opacity=".8"/><path fill="#DDD6FE" d="M65 220H39C37.8954 220 37 220.895 37 222C37 223.105 37.8954 224 39 224H65C66.1046 224 67 223.105 67 222C67 220.895 66.1046 220 65 220Z" opacity=".8"/><path fill="#DDD6FE" d="M65 160H39C37.8954 160 37 160.895 37 162C37 163.105 37.8954 164 39 164H65C66.1046 164 67 163.105 67 162C67 160.895 66.1046 160 65 160Z" opacity=".8"/><path fill="#DDD6FE" d="M59 168H39C37.8954 168 37 168.895 37 170C37 171.105 37.8954 172 39 172H59C60.1046 172 61 171.105 61 170C61 168.895 60.1046 168 59 168Z" opacity=".8"/><path fill="#A78BFA" d="M40 48C41.6569 48 43 46.6569 43 45C43 43.3431 41.6569 42 40 42C38.3431 42 37 43.3431 37 45C37 46.6569 38.3431 48 40 48Z" opacity=".8"/><path fill="#DDD6FE" d="M312 16C313.657 16 315 14.6569 315 13C315 11.3431 313.657 10 312 10C310.343 10 309 11.3431 309 13C309 14.6569 310.343 16 312 16Z" opacity=".8"/><path fill="#A78BFA" d="M40 58C41.6569 58 43 56.6569 43 55C43 53.3431 41.6569 52 40 52C38.3431 52 37 53.3431 37 55C37 56.6569 38.3431 58 40 58Z" opacity=".8"/><path fill="#A78BFA" d="M40 68C41.6569 68 43 66.6569 43 65C43 63.3431 41.6569 62 40 62C38.3431 62 37 63.3431 37 65C37 66.6569 38.3431 68 40 68Z" opacity=".8"/><path fill="#A78BFA" d="M40 78C41.6569 78 43 76.6569 43 75C43 73.3431 41.6569 72 40 72C38.3431 72 37 73.3431 37 75C37 76.6569 38.3431 78 40 78Z" opacity=".8"/><path fill="#A78BFA" d="M40 88C41.6569 88 43 86.6569 43 85C43 83.3431 41.6569 82 40 82C38.3431 82 37 83.3431 37 85C37 86.6569 38.3431 88 40 88Z" opacity=".8"/><path fill="#A78BFA" d="M40 98C41.6569 98 43 96.6569 43 95C43 93.3431 41.6569 92 40 92C38.3431 92 37 93.3431 37 95C37 96.6569 38.3431 98 40 98Z" opacity=".8"/><path stroke="#C4B5FD" d="M115 17.5L112.621 15.121L115 17.5ZM112.621 15.121C112.903 14.8433 113.128 14.5124 113.282 14.1475C113.436 13.7826 113.516 13.3908 113.517 12.9948C113.519 12.5988 113.442 12.2064 113.291 11.8402C113.141 11.474 112.919 11.1412 112.639 10.8612C112.359 10.5811 112.026 10.3592 111.66 10.2084C111.294 10.0575 110.901 9.98069 110.505 9.98225C110.109 9.98382 109.718 10.0638 109.353 10.2175C108.988 10.3713 108.657 10.5957 108.379 10.878C107.824 11.4421 107.514 12.2027 107.517 12.9941C107.52 13.7855 107.836 14.5436 108.396 15.1033C108.955 15.663 109.713 15.9789 110.505 15.9822C111.296 15.9855 112.057 15.676 112.621 15.121V15.121Z" opacity=".8"/><path fill="#A78BFA" d="M235 147H111C108.791 147 107 148.791 107 151V166C107 168.209 108.791 170 111 170H235C237.209 170 239 168.209 239 166V151C239 148.791 237.209 147 235 147Z" opacity=".8"/></g><path fill="#A78BFA" d="M46.5775 8.15505L50.4232 10.3799C50.5984 10.4815 50.744 10.6274 50.8452 10.803C50.9464 10.9786 50.9998 11.1778 51 11.3806V15.8304C51 16.2432 50.7812 16.6261 50.4232 16.8326L46.5775 19.0574C46.4019 19.159 46.2027 19.2125 46 19.2125C45.7973 19.2125 45.5981 19.159 45.4225 19.0574L41.5768 16.8326C41.4014 16.7309 41.2557 16.5848 41.1545 16.4089C41.0532 16.233 40.9999 16.0335 41 15.8304V11.3806C41 10.9678 41.2202 10.5863 41.5768 10.3799L45.4225 8.15505C45.5981 8.05347 45.7973 8 46 8C46.2027 8 46.4019 8.05347 46.5775 8.15505ZM48.3746 11.5102L46.4937 10.4241C46.3184 10.323 46.1198 10.2698 45.9176 10.2698C45.7154 10.2698 45.5168 10.323 45.3415 10.4241L43.4606 11.5102C43.2849 11.6117 43.1389 11.7577 43.0374 11.9336C42.9359 12.1095 42.8825 12.3091 42.8824 12.5123V14.6803C42.8824 15.0931 43.1026 15.4774 43.4606 15.6824L45.3415 16.7685C45.5168 16.8695 45.7154 16.9227 45.9176 16.9227C46.1198 16.9227 46.3184 16.8695 46.4937 16.7685L48.3746 15.6824C48.5503 15.5809 48.6963 15.4349 48.7978 15.259C48.8993 15.083 48.9527 14.8835 48.9528 14.6803V12.5123C48.9528 12.0995 48.7312 11.7152 48.3746 11.5102Z"/><path fill="#A78BFA" d="M47.5135 13.5949C47.5135 14.4097 46.853 15.0702 46.0382 15.0702C45.2234 15.0702 44.5629 14.4097 44.5629 13.5949C44.5629 12.7802 45.2234 12.1197 46.0382 12.1197C46.853 12.1197 47.5135 12.7802 47.5135 13.5949Z"/></g><defs><filter id="filter0_dd" width="382" height="262" x="-15" y="-7" color-interpolation-filters="sRGB" filterUnits="userSpaceOnUse"><feFlood flood-opacity="0" result="BackgroundImageFix"/><feColorMatrix in="SourceAlpha" type="matrix" values="0 0 0 0 0 0 0 0 0 0 0 0 0 0 0 0 0 0 127 0"/><feOffset dy="3"/><feGaussianBlur stdDeviation="3"/><feColorMatrix type="matrix" values="0 0 0 0 0 0 0 0 0 0 0 0 0 0 0 0 0 0 0.05 0"/><feBlend in2="BackgroundImageFix" mode="normal" result="effect1_dropShadow"/><feColorMatrix in="SourceAlpha" type="matrix" values="0 0 0 0 0 0 0 0 0 0 0 0 0 0 0 0 0 0 127 0"/><feOffset dy="8"/><feGaussianBlur stdDeviation="7.5"/><feColorMatrix type="matrix" values="0 0 0 0 0 0 0 0 0 0 0 0 0 0 0 0 0 0 0.1 0"/><feBlend in2="effect1_dropShadow" mode="normal" result="effect2_dropShadow"/><feBlend in="SourceGraphic" in2="effect2_dropShadow" mode="normal" result="shape"/></filter><clipPath id="clip0"><rect width="352" height="232" fill="#fff" rx="12"/></clipPath></defs></svg>