<svg xmlns="http://www.w3.org/2000/svg" width="352" height="232" fill="none" viewBox="0 0 352 232"><g clip-path="url(#clip0)"><rect width="352" height="232" fill="#fff" rx="12"/><g opacity=".8"><g filter="url(#filter0_dd)" opacity=".8"><path fill="#fff" d="M340 0H12C5.37258 0 0 5.37258 0 12V220C0 226.627 5.37258 232 12 232H340C346.627 232 352 226.627 352 220V12C352 5.37258 346.627 0 340 0Z" opacity=".8"/></g><path stroke="#FDA4AF" d="M315 10.5H308C307.724 10.5 307.5 10.7239 307.5 11V16C307.5 16.2761 307.724 16.5 308 16.5H315C315.276 16.5 315.5 16.2761 315.5 16V11C315.5 10.7239 315.276 10.5 315 10.5Z" opacity=".8"/><path fill="#FECDD3" d="M265 11C265 10.7348 265.105 10.4804 265.293 10.2929C265.48 10.1054 265.735 10 266 10H270V17H266C265.735 17 265.48 16.8946 265.293 16.7071C265.105 16.5196 265 16.2652 265 16V11Z" opacity=".8"/><path stroke="#FDA4AF" d="M273 10.5H266C265.724 10.5 265.5 10.7239 265.5 11V16C265.5 16.2761 265.724 16.5 266 16.5H273C273.276 16.5 273.5 16.2761 273.5 16V11C273.5 10.7239 273.276 10.5 273 10.5Z" opacity=".8"/><path fill="#FDA4AF" d="M269 10H270V17H269V10Z" opacity=".8"/><path fill="#FECDD3" d="M286 11C286 10.7348 286.105 10.4804 286.293 10.2929C286.48 10.1054 286.735 10 287 10H294C294.265 10 294.52 10.1054 294.707 10.2929C294.895 10.4804 295 10.7348 295 11V14H286V11Z" opacity=".8"/><path stroke="#FDA4AF" d="M294 10.5H287C286.724 10.5 286.5 10.7239 286.5 11V16C286.5 16.2761 286.724 16.5 287 16.5H294C294.276 16.5 294.5 16.2761 294.5 16V11C294.5 10.7239 294.276 10.5 294 10.5Z" opacity=".8"/><path fill="#FDA4AF" d="M286 13H295V14H286V13Z" opacity=".8"/><path fill="#FDA4AF" fill-rule="evenodd" d="M335 10H330V11H331C331.265 11 331.52 11.1054 331.707 11.2929C331.895 11.4804 332 11.7348 332 12V16H335V10ZM331 16V12H328V16H331ZM329 11H328C327.735 11 327.48 11.1054 327.293 11.2929C327.105 11.4804 327 11.7348 327 12V16C327 16.2652 327.105 16.5196 327.293 16.7071C327.48 16.8946 327.735 17 328 17H335C335.265 17 335.52 16.8946 335.707 16.7071C335.895 16.5196 336 16.2652 336 16V10C336 9.73478 335.895 9.48043 335.707 9.29289C335.52 9.10536 335.265 9 335 9H330C329.735 9 329.48 9.10536 329.293 9.29289C329.105 9.48043 329 9.73478 329 10V11Z" clip-rule="evenodd" opacity=".8"/><path fill="#FDA4AF" d="M10 56C11.1046 56 12 55.1046 12 54C12 52.8954 11.1046 52 10 52C8.89543 52 8 52.8954 8 54C8 55.1046 8.89543 56 10 56Z" opacity=".8"/><path fill="#FDA4AF" d="M10 64C11.1046 64 12 63.1046 12 62C12 60.8954 11.1046 60 10 60C8.89543 60 8 60.8954 8 62C8 63.1046 8.89543 64 10 64Z" opacity=".8"/><path fill="#FDA4AF" d="M10 72C11.1046 72 12 71.1046 12 70C12 68.8954 11.1046 68 10 68C8.89543 68 8 68.8954 8 70C8 71.1046 8.89543 72 10 72Z" opacity=".8"/><path fill="#FDA4AF" d="M10 80C11.1046 80 12 79.1046 12 78C12 76.8954 11.1046 76 10 76C8.89543 76 8 76.8954 8 78C8 79.1046 8.89543 80 10 80Z" opacity=".8"/><path fill="#FDA4AF" d="M10 88C11.1046 88 12 87.1046 12 86C12 84.8954 11.1046 84 10 84C8.89543 84 8 84.8954 8 86C8 87.1046 8.89543 88 10 88Z" opacity=".8"/><path fill="#FDA4AF" d="M10 96C11.1046 96 12 95.1046 12 94C12 92.8954 11.1046 92 10 92C8.89543 92 8 92.8954 8 94C8 95.1046 8.89543 96 10 96Z" opacity=".8"/><path fill="#FDA4AF" d="M10 104C11.1046 104 12 103.105 12 102C12 100.895 11.1046 100 10 100C8.89543 100 8 100.895 8 102C8 103.105 8.89543 104 10 104Z" opacity=".8"/><path fill="#FDA4AF" d="M10 112C11.1046 112 12 111.105 12 110C12 108.895 11.1046 108 10 108C8.89543 108 8 108.895 8 110C8 111.105 8.89543 112 10 112Z" opacity=".8"/><path fill="#FDA4AF" d="M10 120C11.1046 120 12 119.105 12 118C12 116.895 11.1046 116 10 116C8.89543 116 8 116.895 8 118C8 119.105 8.89543 120 10 120Z" opacity=".8"/><path fill="#FDA4AF" d="M10 128C11.1046 128 12 127.105 12 126C12 124.895 11.1046 124 10 124C8.89543 124 8 124.895 8 126C8 127.105 8.89543 128 10 128Z" opacity=".8"/><path fill="#FDA4AF" d="M10 136C11.1046 136 12 135.105 12 134C12 132.895 11.1046 132 10 132C8.89543 132 8 132.895 8 134C8 135.105 8.89543 136 10 136Z" opacity=".8"/><path fill="#FDA4AF" d="M10 144C11.1046 144 12 143.105 12 142C12 140.895 11.1046 140 10 140C8.89543 140 8 140.895 8 142C8 143.105 8.89543 144 10 144Z" opacity=".8"/><path fill="#FDA4AF" d="M10 152C11.1046 152 12 151.105 12 150C12 148.895 11.1046 148 10 148C8.89543 148 8 148.895 8 150C8 151.105 8.89543 152 10 152Z" opacity=".8"/><path fill="#FDA4AF" d="M10 160C11.1046 160 12 159.105 12 158C12 156.895 11.1046 156 10 156C8.89543 156 8 156.895 8 158C8 159.105 8.89543 160 10 160Z" opacity=".8"/><path fill="#FDA4AF" d="M10 168C11.1046 168 12 167.105 12 166C12 164.895 11.1046 164 10 164C8.89543 164 8 164.895 8 166C8 167.105 8.89543 168 10 168Z" opacity=".8"/><path fill="#FDA4AF" d="M10 176C11.1046 176 12 175.105 12 174C12 172.895 11.1046 172 10 172C8.89543 172 8 172.895 8 174C8 175.105 8.89543 176 10 176Z" opacity=".8"/><path fill="#FDA4AF" d="M10 184C11.1046 184 12 183.105 12 182C12 180.895 11.1046 180 10 180C8.89543 180 8 180.895 8 182C8 183.105 8.89543 184 10 184Z" opacity=".8"/><path fill="#FDA4AF" d="M10 192C11.1046 192 12 191.105 12 190C12 188.895 11.1046 188 10 188C8.89543 188 8 188.895 8 190C8 191.105 8.89543 192 10 192Z" opacity=".8"/><path fill="#FDA4AF" d="M10 200C11.1046 200 12 199.105 12 198C12 196.895 11.1046 196 10 196C8.89543 196 8 196.895 8 198C8 199.105 8.89543 200 10 200Z" opacity=".8"/><path fill="#FDA4AF" d="M10 208C11.1046 208 12 207.105 12 206C12 204.895 11.1046 204 10 204C8.89543 204 8 204.895 8 206C8 207.105 8.89543 208 10 208Z" opacity=".8"/><path fill="#FDA4AF" d="M10 216C11.1046 216 12 215.105 12 214C12 212.895 11.1046 212 10 212C8.89543 212 8 212.895 8 214C8 215.105 8.89543 216 10 216Z" opacity=".8"/><path fill="#FDA4AF" d="M10 224C11.1046 224 12 223.105 12 222C12 220.895 11.1046 220 10 220C8.89543 220 8 220.895 8 222C8 223.105 8.89543 224 10 224Z" opacity=".8"/><g opacity=".8"><path fill="#FB7185" d="M16.5775 8.15505L20.4232 10.3799C20.5984 10.4815 20.744 10.6274 20.8452 10.803C20.9464 10.9786 20.9998 11.1778 21 11.3806V15.8304C21 16.2432 20.7812 16.6261 20.4232 16.8326L16.5775 19.0574C16.4019 19.159 16.2027 19.2125 16 19.2125C15.7973 19.2125 15.5981 19.159 15.4225 19.0574L11.5768 16.8326C11.4014 16.7309 11.2557 16.5848 11.1545 16.4089C11.0532 16.233 10.9999 16.0335 11 15.8304V11.3806C11 10.9678 11.2202 10.5863 11.5768 10.3799L15.4225 8.15505C15.5981 8.05347 15.7973 8 16 8C16.2027 8 16.4019 8.05347 16.5775 8.15505ZM18.3746 11.5102L16.4937 10.4241C16.3184 10.323 16.1198 10.2698 15.9176 10.2698C15.7154 10.2698 15.5168 10.323 15.3415 10.4241L13.4606 11.5102C13.2849 11.6117 13.1389 11.7577 13.0374 11.9336C12.9359 12.1095 12.8825 12.3091 12.8824 12.5123V14.6803C12.8824 15.0931 13.1026 15.4774 13.4606 15.6824L15.3415 16.7685C15.5168 16.8695 15.7154 16.9227 15.9176 16.9227C16.1198 16.9227 16.3184 16.8695 16.4937 16.7685L18.3746 15.6824C18.5503 15.5809 18.6963 15.4349 18.7978 15.259C18.8993 15.083 18.9527 14.8835 18.9528 14.6803V12.5123C18.9528 12.0995 18.7312 11.7152 18.3746 11.5102Z"/><path fill="#FB7185" d="M17.5135 13.5949C17.5135 14.4097 16.853 15.0702 16.0382 15.0702C15.2234 15.0702 14.5629 14.4097 14.5629 13.5949C14.5629 12.7802 15.2234 12.1197 16.0382 12.1197C16.853 12.1197 17.5135 12.7802 17.5135 13.5949Z"/></g><path fill="#FFF1F2" d="M177 29H352V220C352 226.627 346.627 232 340 232H177V29Z" opacity=".8"/><path fill="#FECDD3" d="M0 27H352V29H0V27ZM0 43H176V44H0V43Z" opacity=".8"/><path fill="#FECDD3" d="M175 29H177V232H175V29Z" opacity=".8"/><path fill="#FB7185" d="M49 52H22C20.8954 52 20 52.8954 20 54C20 55.1046 20.8954 56 22 56H49C50.1046 56 51 55.1046 51 54C51 52.8954 50.1046 52 49 52Z" opacity=".8"/><path fill="#FB7185" d="M21 34H10C8.89543 34 8 34.8954 8 36C8 37.1046 8.89543 38 10 38H21C22.1046 38 23 37.1046 23 36C23 34.8954 22.1046 34 21 34Z" opacity=".8"/><path fill="#FECDD3" d="M40 34H29C27.8954 34 27 34.8954 27 36C27 37.1046 27.8954 38 29 38H40C41.1046 38 42 37.1046 42 36C42 34.8954 41.1046 34 40 34Z" opacity=".8"/><path fill="#FECDD3" d="M59 34H48C46.8954 34 46 34.8954 46 36C46 37.1046 46.8954 38 48 38H59C60.1046 38 61 37.1046 61 36C61 34.8954 60.1046 34 59 34Z" opacity=".8"/><path fill="#FB7185" d="M113 60H30C28.8954 60 28 60.8954 28 62C28 63.1046 28.8954 64 30 64H113C114.105 64 115 63.1046 115 62C115 60.8954 114.105 60 113 60Z" opacity=".8"/><path fill="#FB7185" d="M129 68H38C36.8954 68 36 68.8954 36 70C36 71.1046 36.8954 72 38 72H129C130.105 72 131 71.1046 131 70C131 68.8954 130.105 68 129 68Z" opacity=".8"/><path fill="#FB7185" d="M121 76H38C36.8954 76 36 76.8954 36 78C36 79.1046 36.8954 80 38 80H121C122.105 80 123 79.1046 123 78C123 76.8954 122.105 76 121 76Z" opacity=".8"/><path fill="#FB7185" d="M49 84H38C36.8954 84 36 84.8954 36 86C36 87.1046 36.8954 88 38 88H49C50.1046 88 51 87.1046 51 86C51 84.8954 50.1046 84 49 84Z" opacity=".8"/><path fill="#FB7185" d="M41 92H30C28.8954 92 28 92.8954 28 94C28 95.1046 28.8954 96 30 96H41C42.1046 96 43 95.1046 43 94C43 92.8954 42.1046 92 41 92Z" opacity=".8"/><path fill="#FB7185" d="M33 100H22C20.8954 100 20 100.895 20 102C20 103.105 20.8954 104 22 104H33C34.1046 104 35 103.105 35 102C35 100.895 34.1046 100 33 100Z" opacity=".8"/><path fill="#FB7185" d="M57 108H22C20.8954 108 20 108.895 20 110C20 111.105 20.8954 112 22 112H57C58.1046 112 59 111.105 59 110C59 108.895 58.1046 108 57 108Z" opacity=".8"/><path fill="#FB7185" d="M89 116H30C28.8954 116 28 116.895 28 118C28 119.105 28.8954 120 30 120H89C90.1046 120 91 119.105 91 118C91 116.895 90.1046 116 89 116Z" opacity=".8"/><path fill="#FB7185" d="M121 124H38C36.8954 124 36 124.895 36 126C36 127.105 36.8954 128 38 128H121C122.105 128 123 127.105 123 126C123 124.895 122.105 124 121 124Z" opacity=".8"/><path fill="#FB7185" d="M49 164H38C36.8954 164 36 164.895 36 166C36 167.105 36.8954 168 38 168H49C50.1046 168 51 167.105 51 166C51 164.895 50.1046 164 49 164Z" opacity=".8"/><path fill="#FB7185" d="M49 172H38C36.8954 172 36 172.895 36 174C36 175.105 36.8954 176 38 176H49C50.1046 176 51 175.105 51 174C51 172.895 50.1046 172 49 172Z" opacity=".8"/><path fill="#FB7185" d="M44 134C44 133.47 44.2107 132.961 44.5858 132.586C44.9609 132.211 45.4696 132 46 132H175V136H46C45.4696 136 44.9609 135.789 44.5858 135.414C44.2107 135.039 44 134.53 44 134ZM52 142C52 141.47 52.2107 140.961 52.5858 140.586C52.9609 140.211 53.4696 140 54 140H175V144H54C53.4696 144 52.9609 143.789 52.5858 143.414C52.2107 143.039 52 142.53 52 142ZM52 150C52 149.47 52.2107 148.961 52.5858 148.586C52.9609 148.211 53.4696 148 54 148H175V152H54C53.4696 152 52.9609 151.789 52.5858 151.414C52.2107 151.039 52 150.53 52 150ZM44 158C44 157.47 44.2107 156.961 44.5858 156.586C44.9609 156.211 45.4696 156 46 156H105C105.53 156 106.039 156.211 106.414 156.586C106.789 156.961 107 157.47 107 158C107 158.53 106.789 159.039 106.414 159.414C106.039 159.789 105.53 160 105 160H46C45.4696 160 44.9609 159.789 44.5858 159.414C44.2107 159.039 44 158.53 44 158ZM44 182C44 181.47 44.2107 180.961 44.5858 180.586C44.9609 180.211 45.4696 180 46 180H65C65.5304 180 66.0391 180.211 66.4142 180.586C66.7893 180.961 67 181.47 67 182C67 182.53 66.7893 183.039 66.4142 183.414C66.0391 183.789 65.5304 184 65 184H46C45.4696 184 44.9609 183.789 44.5858 183.414C44.2107 183.039 44 182.53 44 182ZM52 190C52 189.47 52.2107 188.961 52.5858 188.586C52.9609 188.211 53.4696 188 54 188H105C105.53 188 106.039 188.211 106.414 188.586C106.789 188.961 107 189.47 107 190C107 190.53 106.789 191.039 106.414 191.414C106.039 191.789 105.53 192 105 192H54C53.4696 192 52.9609 191.789 52.5858 191.414C52.2107 191.039 52 190.53 52 190ZM52 214C52 213.47 52.2107 212.961 52.5858 212.586C52.9609 212.211 53.4696 212 54 212H105C105.53 212 106.039 212.211 106.414 212.586C106.789 212.961 107 213.47 107 214C107 214.53 106.789 215.039 106.414 215.414C106.039 215.789 105.53 216 105 216H54C53.4696 216 52.9609 215.789 52.5858 215.414C52.2107 215.039 52 214.53 52 214ZM44 222C44 221.47 44.2107 220.961 44.5858 220.586C44.9609 220.211 45.4696 220 46 220H81C81.5304 220 82.0391 220.211 82.4142 220.586C82.7893 220.961 83 221.47 83 222C83 222.53 82.7893 223.039 82.4142 223.414C82.0391 223.789 81.5304 224 81 224H46C45.4696 224 44.9609 223.789 44.5858 223.414C44.2107 223.039 44 222.53 44 222ZM60 198C60 197.47 60.2107 196.961 60.5858 196.586C60.9609 196.211 61.4696 196 62 196H175V200H62C61.4696 200 60.9609 199.789 60.5858 199.414C60.2107 199.039 60 198.53 60 198ZM60 206C60 205.47 60.2107 204.961 60.5858 204.586C60.9609 204.211 61.4696 204 62 204H175V208H62C61.4696 208 60.9609 207.789 60.5858 207.414C60.2107 207.039 60 206.53 60 206Z" opacity=".8"/><path fill="#fff" d="M288 99H240C235.582 99 232 102.582 232 107V155C232 159.418 235.582 163 240 163H288C292.418 163 296 159.418 296 155V107C296 102.582 292.418 99 288 99Z" opacity=".8"/><path fill="#FB7185" d="M286 115H242C240.895 115 240 115.895 240 117C240 118.105 240.895 119 242 119H286C287.105 119 288 118.105 288 117C288 115.895 287.105 115 286 115Z" opacity=".8"/><path fill="#FB7185" d="M282 123H246C244.895 123 244 123.895 244 125C244 126.105 244.895 127 246 127H282C283.105 127 284 126.105 284 125C284 123.895 283.105 123 282 123Z" opacity=".8"/><path fill="#FECDD3" d="M275 135H253C252.448 135 252 135.448 252 136C252 136.552 252.448 137 253 137H275C275.552 137 276 136.552 276 136C276 135.448 275.552 135 275 135Z" opacity=".8"/><path fill="#FB7185" d="M283 145H245C242.239 145 240 147.239 240 150C240 152.761 242.239 155 245 155H283C285.761 155 288 152.761 288 150C288 147.239 285.761 145 283 145Z" opacity=".8"/><path fill="#FECDD3" d="M264 107C268.418 107 272 103.418 272 99C272 94.5817 268.418 91 264 91C259.582 91 256 94.5817 256 99C256 103.418 259.582 107 264 107Z" opacity=".8"/></g></g><defs><filter id="filter0_dd" width="382" height="262" x="-15" y="-7" color-interpolation-filters="sRGB" filterUnits="userSpaceOnUse"><feFlood flood-opacity="0" result="BackgroundImageFix"/><feColorMatrix in="SourceAlpha" type="matrix" values="0 0 0 0 0 0 0 0 0 0 0 0 0 0 0 0 0 0 127 0"/><feOffset dy="3"/><feGaussianBlur stdDeviation="3"/><feColorMatrix type="matrix" values="0 0 0 0 0 0 0 0 0 0 0 0 0 0 0 0 0 0 0.05 0"/><feBlend in2="BackgroundImageFix" mode="normal" result="effect1_dropShadow"/><feColorMatrix in="SourceAlpha" type="matrix" values="0 0 0 0 0 0 0 0 0 0 0 0 0 0 0 0 0 0 127 0"/><feOffset dy="8"/><feGaussianBlur stdDeviation="7.5"/><feColorMatrix type="matrix" values="0 0 0 0 0 0 0 0 0 0 0 0 0 0 0 0 0 0 0.1 0"/><feBlend in2="effect1_dropShadow" mode="normal" result="effect2_dropShadow"/><feBlend in="SourceGraphic" in2="effect2_dropShadow" mode="normal" result="shape"/></filter><clipPath id="clip0"><rect width="352" height="232" fill="#fff" rx="12"/></clipPath></defs></svg>