<svg width="730" height="99" viewBox="0 0 730 99" fill="none" xmlns="http://www.w3.org/2000/svg">
<rect x="0.5" y="0.5" width="729" height="98" rx="4.5" fill="#FDFFFD" stroke="#C4C4C4"/>
<path d="M401.53 49.5303C401.823 49.2374 401.823 48.7626 401.53 48.4697L396.757 43.6967C396.464 43.4038 395.99 43.4038 395.697 43.6967C395.404 43.9896 395.404 44.4645 395.697 44.7574L399.939 49L395.697 53.2426C395.404 53.5355 395.404 54.0104 395.697 54.3033C395.99 54.5962 396.464 54.5962 396.757 54.3033L401.53 49.5303ZM330 49.75L401 49.75V48.25L330 48.25V49.75Z" fill="#C4C4C4"/>
<path d="M210.53 47.5303C210.823 47.2374 210.823 46.7626 210.53 46.4697L205.757 41.6967C205.464 41.4038 204.99 41.4038 204.697 41.6967C204.404 41.9896 204.404 42.4645 204.697 42.7574L208.939 47L204.697 51.2426C204.404 51.5355 204.404 52.0104 204.697 52.3033C204.99 52.5962 205.464 52.5962 205.757 52.3033L210.53 47.5303ZM139 47.75L210 47.75V46.25L139 46.25V47.75Z" fill="#C4C4C4"/>
<path d="M592.53 49.5303C592.823 49.2374 592.823 48.7626 592.53 48.4697L587.757 43.6967C587.464 43.4038 586.99 43.4038 586.697 43.6967C586.404 43.9896 586.404 44.4645 586.697 44.7574L590.939 49L586.697 53.2426C586.404 53.5355 586.404 54.0104 586.697 54.3033C586.99 54.5962 587.464 54.5962 587.757 54.3033L592.53 49.5303ZM521 49.75L592 49.75V48.25L521 48.25V49.75Z" fill="#C4C4C4"/>
<rect x="24" y="14" width="109" height="71" rx="6" fill="#3884FF"/>
<path d="M45.3027 34.4023C45.7246 34.4023 46.0762 34.2705 46.3486 33.9893C46.6211 33.708 46.7617 33.3652 46.7617 32.9521C46.7617 32.5479 46.6211 32.1963 46.3486 31.915C46.0674 31.6338 45.7246 31.4932 45.3027 31.4932C44.8809 31.4932 44.5293 31.6338 44.2568 31.915C43.9756 32.1963 43.8438 32.5479 43.8438 32.9521C43.8438 33.3652 43.9756 33.708 44.248 33.9893C44.5205 34.2705 44.8721 34.4023 45.3027 34.4023ZM43.9756 47.8848C44.7227 47.8848 45.2939 47.709 45.6895 47.3398C46.0762 46.9707 46.2783 46.4434 46.2783 45.749V35.6152H44.3184V45.1689C44.3184 45.4678 44.2568 45.6875 44.1338 45.8281C44.0107 45.9688 43.8174 46.0303 43.5537 46.0303C43.29 46.0303 43.0527 46.0127 42.8242 45.96V47.709C43.0527 47.832 43.4307 47.8848 43.9756 47.8848ZM52.29 44.2197C52.8174 44.2197 53.3359 44.0967 53.8457 43.8506C54.3555 43.6045 54.7334 43.2793 54.9883 42.8662V44H56.9307V35.6152H54.9883V36.749C54.7246 36.3271 54.3643 36.002 53.8896 35.7559C53.415 35.5186 52.9053 35.3955 52.3428 35.3955C51.0684 35.3955 50.0576 35.8174 49.3018 36.6523C48.5459 37.4873 48.168 38.542 48.168 39.8076C48.168 40.4316 48.2559 41.0117 48.4316 41.5391C48.6074 42.0752 48.8711 42.541 49.2139 42.9365C49.5479 43.3408 49.9873 43.6484 50.5146 43.877C51.042 44.1055 51.6309 44.2197 52.29 44.2197ZM52.5713 42.4707C51.8154 42.4707 51.2266 42.2246 50.7871 41.7236C50.3477 41.2314 50.1279 40.5898 50.1279 39.8076C50.1279 39.0342 50.3477 38.3926 50.7871 37.8916C51.2266 37.3994 51.8154 37.1445 52.5713 37.1445C53.3623 37.1445 53.9775 37.3994 54.4082 37.9092C54.8389 38.4189 55.0586 39.0518 55.0586 39.8076C55.0586 40.5723 54.8389 41.2051 54.4082 41.7148C53.9775 42.2246 53.3623 42.4707 52.5713 42.4707ZM61.8262 44H63.4082L67.0469 35.6152H64.9375L62.6172 41.3721L60.2969 35.6152H58.1875L61.8262 44ZM71.626 44.2197C72.1533 44.2197 72.6719 44.0967 73.1816 43.8506C73.6914 43.6045 74.0693 43.2793 74.3242 42.8662V44H76.2666V35.6152H74.3242V36.749C74.0605 36.3271 73.7002 36.002 73.2256 35.7559C72.751 35.5186 72.2412 35.3955 71.6787 35.3955C70.4043 35.3955 69.3936 35.8174 68.6377 36.6523C67.8818 37.4873 67.5039 38.542 67.5039 39.8076C67.5039 40.4316 67.5918 41.0117 67.7676 41.5391C67.9434 42.0752 68.207 42.541 68.5498 42.9365C68.8838 43.3408 69.3232 43.6484 69.8506 43.877C70.3779 44.1055 70.9668 44.2197 71.626 44.2197ZM71.9072 42.4707C71.1514 42.4707 70.5625 42.2246 70.123 41.7236C69.6836 41.2314 69.4639 40.5898 69.4639 39.8076C69.4639 39.0342 69.6836 38.3926 70.123 37.8916C70.5625 37.3994 71.1514 37.1445 71.9072 37.1445C72.6982 37.1445 73.3135 37.3994 73.7441 37.9092C74.1748 38.4189 74.3945 39.0518 74.3945 39.8076C74.3945 40.5723 74.1748 41.2051 73.7441 41.7148C73.3135 42.2246 72.6982 42.4707 71.9072 42.4707ZM49.0293 56.3955C48.4316 56.3955 47.8779 56.5273 47.3682 56.7734C46.8496 57.0195 46.4629 57.3447 46.208 57.749V56.6152H44.2568V68.7793H46.208V63.8662C46.4629 64.2705 46.8408 64.6045 47.333 64.8506C47.8252 65.0967 48.3438 65.2197 48.9062 65.2197C50.1191 65.2197 51.1035 64.8154 51.877 63.9893C52.6416 63.1631 53.0283 62.1084 53.0283 60.8076C53.0283 59.4893 52.6592 58.417 51.9209 57.6084C51.1826 56.7998 50.2246 56.3955 49.0293 56.3955ZM48.6162 63.4707C47.8779 63.4707 47.2715 63.2246 46.8145 62.7324C46.3574 62.2402 46.1289 61.5986 46.1289 60.8076C46.1289 60.0166 46.3574 59.375 46.8145 58.8828C47.2715 58.3906 47.8779 58.1445 48.6162 58.1445C49.3369 58.1445 49.9258 58.3994 50.3828 58.8916C50.8398 59.3838 51.0684 60.0254 51.0684 60.8076C51.0684 61.5986 50.8398 62.2402 50.3828 62.7324C49.9258 63.2246 49.3369 63.4707 48.6162 63.4707ZM54.9092 65H56.8779V61.291C56.8779 60.3506 57.0713 59.6211 57.4668 59.1113C57.8535 58.6016 58.4072 58.3379 59.1104 58.3379C59.418 58.3379 59.6729 58.3555 59.8838 58.373V56.5801C59.6641 56.5273 59.4092 56.501 59.1104 56.501C58.6094 56.501 58.1523 56.6504 57.7305 56.9492C57.3086 57.248 57.0186 57.6699 56.8779 58.2324V56.6152H54.9092V65ZM65.0166 65.2197C65.9131 65.2197 66.7041 65.0264 67.3809 64.6309C68.0576 64.2441 68.5674 63.7168 68.9189 63.0488C69.2705 62.3809 69.4463 61.6338 69.4463 60.8076C69.4463 59.9814 69.2705 59.2432 68.9189 58.5752C68.5674 57.9072 68.0576 57.3799 67.3809 56.9844C66.7041 56.5977 65.9131 56.3955 65.0166 56.3955C63.6631 56.3955 62.5908 56.8174 61.791 57.6523C60.9912 58.4873 60.5957 59.542 60.5957 60.8076C60.5957 62.082 60.9912 63.1367 61.791 63.9717C62.5908 64.8066 63.6631 65.2197 65.0166 65.2197ZM65.0166 63.4707C64.2432 63.4707 63.6367 63.2246 63.2061 62.7324C62.7666 62.2402 62.5557 61.5986 62.5557 60.8076C62.5557 60.0254 62.7666 59.3838 63.2061 58.8916C63.6367 58.3994 64.2432 58.1445 65.0166 58.1445C65.79 58.1445 66.3877 58.3994 66.8271 58.8916C67.2666 59.3838 67.4863 60.0254 67.4863 60.8076C67.4863 61.5986 67.2666 62.2402 66.8271 62.7324C66.3877 63.2246 65.79 63.4707 65.0166 63.4707ZM77.5059 56.6152V57.749C77.251 57.3271 76.8906 57.002 76.4248 56.7559C75.9502 56.5186 75.4404 56.3955 74.8779 56.3955C74.0518 56.3955 73.3223 56.5977 72.6807 56.9844C72.0391 57.3799 71.5469 57.9072 71.2129 58.5752C70.8701 59.2432 70.7031 59.9902 70.7031 60.8076C70.7031 61.6426 70.8613 62.3896 71.1777 63.0488C71.4941 63.708 71.9688 64.2354 72.6016 64.6309C73.2344 65.0264 73.9727 65.2197 74.8252 65.2197C75.3525 65.2197 75.8711 65.0967 76.3809 64.8506C76.8818 64.6045 77.2598 64.2793 77.5059 63.8662V64.7803C77.5059 65.7031 77.3037 66.3623 76.8994 66.7666C76.4951 67.1709 75.8799 67.373 75.0537 67.373C74.3945 67.373 73.8848 67.25 73.5156 67.0039C73.1465 66.7578 72.918 66.4062 72.8389 65.958H70.791C70.8086 66.4238 70.9316 66.8545 71.1689 67.25C71.3975 67.6455 71.7139 67.9795 72.1182 68.2432C72.8652 68.7529 73.8496 68.999 75.0713 68.999C76.3193 68.999 77.2861 68.7529 77.9541 68.2607C78.9561 67.5312 79.4658 66.3271 79.4658 64.6396V56.6152H77.5059ZM75.1064 63.4707C74.3682 63.4707 73.7793 63.2246 73.3311 62.7236C72.8828 62.2227 72.6631 61.5811 72.6631 60.8076C72.6631 60.0342 72.8828 59.4014 73.3311 58.9004C73.7793 58.3994 74.3682 58.1445 75.1064 58.1445C75.8799 58.1445 76.4863 58.3994 76.9258 58.9092C77.3652 59.4189 77.5938 60.0518 77.5938 60.8076C77.5938 61.5635 77.3652 62.1963 76.9258 62.7061C76.4863 63.2158 75.8799 63.4707 75.1064 63.4707ZM81.9795 65H83.9482V61.291C83.9482 60.3506 84.1416 59.6211 84.5371 59.1113C84.9238 58.6016 85.4775 58.3379 86.1807 58.3379C86.4883 58.3379 86.7432 58.3555 86.9541 58.373V56.5801C86.7344 56.5273 86.4795 56.501 86.1807 56.501C85.6797 56.501 85.2227 56.6504 84.8008 56.9492C84.3789 57.248 84.0889 57.6699 83.9482 58.2324V56.6152H81.9795V65ZM91.7002 65.2197C92.2275 65.2197 92.7461 65.0967 93.2559 64.8506C93.7656 64.6045 94.1436 64.2793 94.3984 63.8662V65H96.3408V56.6152H94.3984V57.749C94.1348 57.3271 93.7744 57.002 93.2998 56.7559C92.8252 56.5186 92.3154 56.3955 91.7529 56.3955C90.4785 56.3955 89.4678 56.8174 88.7119 57.6523C87.9561 58.4873 87.5781 59.542 87.5781 60.8076C87.5781 61.4316 87.666 62.0117 87.8418 62.5391C88.0176 63.0752 88.2812 63.541 88.624 63.9365C88.958 64.3408 89.3975 64.6484 89.9248 64.877C90.4521 65.1055 91.041 65.2197 91.7002 65.2197ZM91.9814 63.4707C91.2256 63.4707 90.6367 63.2246 90.1973 62.7236C89.7578 62.2314 89.5381 61.5898 89.5381 60.8076C89.5381 60.0342 89.7578 59.3926 90.1973 58.8916C90.6367 58.3994 91.2256 58.1445 91.9814 58.1445C92.7725 58.1445 93.3877 58.3994 93.8184 58.9092C94.249 59.4189 94.4688 60.0518 94.4688 60.8076C94.4688 61.5723 94.249 62.2051 93.8184 62.7148C93.3877 63.2246 92.7725 63.4707 91.9814 63.4707ZM98.8545 65H100.823V60.5527C100.823 60.0781 100.867 59.665 100.955 59.3311C101.043 58.9971 101.175 58.7422 101.351 58.5664C101.518 58.3906 101.702 58.2588 101.913 58.1885C102.115 58.1182 102.353 58.0742 102.616 58.0742C103.135 58.0742 103.521 58.2324 103.768 58.5488C104.014 58.8652 104.146 59.3662 104.146 60.0518V65H106.114V60.5527C106.114 60.0781 106.158 59.665 106.246 59.3311C106.334 58.9971 106.457 58.7422 106.624 58.5664C106.791 58.3906 106.976 58.2588 107.178 58.1885C107.371 58.1182 107.608 58.0742 107.872 58.0742C108.918 58.0742 109.445 58.7422 109.445 60.0693V65H111.405V59.6914C111.405 57.4941 110.395 56.3955 108.382 56.3955C107.802 56.3955 107.274 56.5361 106.809 56.8174C106.343 57.0986 106.009 57.459 105.807 57.8896C105.367 56.8965 104.488 56.3955 103.161 56.3955C102.625 56.3955 102.15 56.5273 101.729 56.791C101.307 57.0547 101.008 57.3799 100.823 57.7842V56.6152H98.8545V65Z" fill="white"/>
<rect x="215" y="14" width="109" height="71" rx="6" fill="#3884FF"/>
<path d="M233.303 34.4023C233.725 34.4023 234.076 34.2705 234.349 33.9893C234.621 33.708 234.762 33.3652 234.762 32.9521C234.762 32.5479 234.621 32.1963 234.349 31.915C234.067 31.6338 233.725 31.4932 233.303 31.4932C232.881 31.4932 232.529 31.6338 232.257 31.915C231.976 32.1963 231.844 32.5479 231.844 32.9521C231.844 33.3652 231.976 33.708 232.248 33.9893C232.521 34.2705 232.872 34.4023 233.303 34.4023ZM231.976 47.8848C232.723 47.8848 233.294 47.709 233.689 47.3398C234.076 46.9707 234.278 46.4434 234.278 45.749V35.6152H232.318V45.1689C232.318 45.4678 232.257 45.6875 232.134 45.8281C232.011 45.9688 231.817 46.0303 231.554 46.0303C231.29 46.0303 231.053 46.0127 230.824 45.96V47.709C231.053 47.832 231.431 47.8848 231.976 47.8848ZM240.29 44.2197C240.817 44.2197 241.336 44.0967 241.846 43.8506C242.355 43.6045 242.733 43.2793 242.988 42.8662V44H244.931V35.6152H242.988V36.749C242.725 36.3271 242.364 36.002 241.89 35.7559C241.415 35.5186 240.905 35.3955 240.343 35.3955C239.068 35.3955 238.058 35.8174 237.302 36.6523C236.546 37.4873 236.168 38.542 236.168 39.8076C236.168 40.4316 236.256 41.0117 236.432 41.5391C236.607 42.0752 236.871 42.541 237.214 42.9365C237.548 43.3408 237.987 43.6484 238.515 43.877C239.042 44.1055 239.631 44.2197 240.29 44.2197ZM240.571 42.4707C239.815 42.4707 239.227 42.2246 238.787 41.7236C238.348 41.2314 238.128 40.5898 238.128 39.8076C238.128 39.0342 238.348 38.3926 238.787 37.8916C239.227 37.3994 239.815 37.1445 240.571 37.1445C241.362 37.1445 241.978 37.3994 242.408 37.9092C242.839 38.4189 243.059 39.0518 243.059 39.8076C243.059 40.5723 242.839 41.2051 242.408 41.7148C241.978 42.2246 241.362 42.4707 240.571 42.4707ZM249.826 44H251.408L255.047 35.6152H252.938L250.617 41.3721L248.297 35.6152H246.188L249.826 44ZM259.626 44.2197C260.153 44.2197 260.672 44.0967 261.182 43.8506C261.691 43.6045 262.069 43.2793 262.324 42.8662V44H264.267V35.6152H262.324V36.749C262.061 36.3271 261.7 36.002 261.226 35.7559C260.751 35.5186 260.241 35.3955 259.679 35.3955C258.404 35.3955 257.394 35.8174 256.638 36.6523C255.882 37.4873 255.504 38.542 255.504 39.8076C255.504 40.4316 255.592 41.0117 255.768 41.5391C255.943 42.0752 256.207 42.541 256.55 42.9365C256.884 43.3408 257.323 43.6484 257.851 43.877C258.378 44.1055 258.967 44.2197 259.626 44.2197ZM259.907 42.4707C259.151 42.4707 258.562 42.2246 258.123 41.7236C257.684 41.2314 257.464 40.5898 257.464 39.8076C257.464 39.0342 257.684 38.3926 258.123 37.8916C258.562 37.3994 259.151 37.1445 259.907 37.1445C260.698 37.1445 261.313 37.3994 261.744 37.9092C262.175 38.4189 262.395 39.0518 262.395 39.8076C262.395 40.5723 262.175 41.2051 261.744 41.7148C261.313 42.2246 260.698 42.4707 259.907 42.4707ZM237.029 56.3955C236.432 56.3955 235.878 56.5273 235.368 56.7734C234.85 57.0195 234.463 57.3447 234.208 57.749V52.3965H232.257V65H234.208V63.8662C234.463 64.2705 234.841 64.6045 235.333 64.8506C235.825 65.0967 236.344 65.2197 236.906 65.2197C238.119 65.2197 239.104 64.8154 239.877 63.9893C240.642 63.1631 241.028 62.1084 241.028 60.8076C241.028 59.4893 240.659 58.417 239.921 57.6084C239.183 56.7998 238.225 56.3955 237.029 56.3955ZM236.616 63.4707C235.878 63.4707 235.271 63.2246 234.814 62.7324C234.357 62.2402 234.129 61.5986 234.129 60.8076C234.129 60.0166 234.357 59.375 234.814 58.8828C235.271 58.3906 235.878 58.1445 236.616 58.1445C237.337 58.1445 237.926 58.3994 238.383 58.8916C238.84 59.3838 239.068 60.0254 239.068 60.8076C239.068 61.5986 238.84 62.2402 238.383 62.7324C237.926 63.2246 237.337 63.4707 236.616 63.4707ZM248.622 56.6152V60.9482C248.622 61.7041 248.446 62.3193 248.104 62.7852C247.761 63.2598 247.26 63.4883 246.601 63.4883C245.388 63.4883 244.781 62.7676 244.781 61.3086V56.6152H242.821V61.7217C242.821 62.7764 243.085 63.6201 243.612 64.2617C244.14 64.9033 244.913 65.2197 245.915 65.2197C246.53 65.2197 247.075 65.1055 247.541 64.8682C247.998 64.6309 248.358 64.2881 248.622 63.8311V64.8945C248.622 65.7471 248.438 66.3711 248.077 66.7754C247.708 67.1797 247.216 67.373 246.601 67.373C245.994 67.373 245.555 67.2588 245.282 67.0303C245.001 66.8018 244.843 66.4414 244.799 65.958H242.821C242.839 66.8809 243.146 67.6016 243.762 68.1289C244.456 68.709 245.414 68.999 246.636 68.999C247.831 68.999 248.78 68.6738 249.483 68.0234C250.213 67.3115 250.582 66.3184 250.582 65.0352V56.6152H248.622ZM256.901 63.3477C256.682 63.3477 256.506 63.3301 256.374 63.2949C256.242 63.2598 256.119 63.1895 256.005 63.0752C255.882 62.9697 255.803 62.8027 255.75 62.5742C255.697 62.3545 255.68 62.0645 255.68 61.7041V58.25H257.604V56.6152H255.68V54.0752H253.72V56.6152H252.296V58.25H253.72V62.1523C253.72 62.5479 253.755 62.8994 253.825 63.207C253.896 63.5234 253.983 63.7783 254.089 63.9805C254.194 64.1826 254.326 64.3584 254.493 64.499C254.651 64.6484 254.81 64.7627 254.959 64.833C255.108 64.9121 255.284 64.9736 255.486 65.0176C255.68 65.0615 255.847 65.0879 255.979 65.0967C256.11 65.1055 256.26 65.1055 256.436 65.1055C256.998 65.1055 257.481 65.0703 257.895 65V63.2686C257.587 63.3213 257.253 63.3477 256.901 63.3477ZM267.211 60.377C267.211 59.1992 266.833 58.2412 266.095 57.5029C265.356 56.7646 264.39 56.3955 263.194 56.3955C261.911 56.3955 260.892 56.7998 260.127 57.5996C259.362 58.3994 258.984 59.4717 258.984 60.8076C258.984 62.1699 259.362 63.2422 260.127 64.0332C260.892 64.8242 261.938 65.2197 263.265 65.2197C264.267 65.2197 265.119 64.9736 265.84 64.4727C266.561 63.9805 266.982 63.3389 267.114 62.5479H265.137C264.82 63.1895 264.196 63.5059 263.265 63.5059C262.544 63.5059 261.973 63.3301 261.568 62.9785C261.164 62.627 260.944 62.126 260.927 61.458H267.149C267.185 60.9131 267.211 60.5527 267.211 60.377ZM260.927 59.9639C260.936 59.3662 261.138 58.874 261.533 58.5049C261.929 58.1357 262.474 57.9424 263.159 57.9424C263.827 57.9424 264.346 58.1182 264.715 58.4697C265.075 58.8213 265.26 59.3135 265.277 59.9639H260.927ZM272.827 65.2197C273.979 65.2197 274.91 64.9385 275.613 64.376C276.316 63.8135 276.712 63.0488 276.8 62.0996H274.84C274.611 63.0137 273.935 63.4707 272.827 63.4707C272.124 63.4707 271.579 63.2422 271.192 62.7764C270.806 62.3193 270.612 61.6602 270.612 60.8076C270.612 59.9639 270.806 59.3047 271.192 58.8389C271.579 58.3818 272.124 58.1445 272.827 58.1445C273.407 58.1445 273.855 58.2676 274.181 58.5137C274.506 58.7598 274.726 59.1201 274.84 59.6035H276.8C276.712 58.6279 276.316 57.8457 275.613 57.2656C274.91 56.6855 273.979 56.3955 272.827 56.3955C271.535 56.3955 270.516 56.7998 269.769 57.6084C269.021 58.417 268.652 59.4893 268.652 60.8076C268.652 62.1348 269.021 63.1982 269.769 64.0068C270.516 64.8154 271.535 65.2197 272.827 65.2197ZM282.671 65.2197C283.567 65.2197 284.358 65.0264 285.035 64.6309C285.712 64.2441 286.222 63.7168 286.573 63.0488C286.925 62.3809 287.101 61.6338 287.101 60.8076C287.101 59.9814 286.925 59.2432 286.573 58.5752C286.222 57.9072 285.712 57.3799 285.035 56.9844C284.358 56.5977 283.567 56.3955 282.671 56.3955C281.317 56.3955 280.245 56.8174 279.445 57.6523C278.646 58.4873 278.25 59.542 278.25 60.8076C278.25 62.082 278.646 63.1367 279.445 63.9717C280.245 64.8066 281.317 65.2197 282.671 65.2197ZM282.671 63.4707C281.897 63.4707 281.291 63.2246 280.86 62.7324C280.421 62.2402 280.21 61.5986 280.21 60.8076C280.21 60.0254 280.421 59.3838 280.86 58.8916C281.291 58.3994 281.897 58.1445 282.671 58.1445C283.444 58.1445 284.042 58.3994 284.481 58.8916C284.921 59.3838 285.141 60.0254 285.141 60.8076C285.141 61.5986 284.921 62.2402 284.481 62.7324C284.042 63.2246 283.444 63.4707 282.671 63.4707ZM295.178 52.3965V57.749C294.914 57.3271 294.554 57.002 294.079 56.7559C293.604 56.5186 293.095 56.3955 292.532 56.3955C291.258 56.3955 290.247 56.8174 289.491 57.6523C288.735 58.4873 288.357 59.542 288.357 60.8076C288.357 61.4316 288.445 62.0117 288.621 62.5391C288.797 63.0752 289.061 63.541 289.403 63.9365C289.737 64.3408 290.177 64.6484 290.704 64.877C291.231 65.1055 291.82 65.2197 292.479 65.2197C293.007 65.2197 293.525 65.0967 294.035 64.8506C294.545 64.6045 294.923 64.2793 295.178 63.8662V65H297.12V52.3965H295.178ZM292.761 63.4707C292.005 63.4707 291.416 63.2246 290.977 62.7236C290.537 62.2314 290.317 61.5898 290.317 60.8076C290.317 60.0342 290.537 59.3926 290.977 58.8916C291.416 58.3994 292.005 58.1445 292.761 58.1445C293.552 58.1445 294.167 58.3994 294.598 58.9092C295.028 59.4189 295.248 60.0518 295.248 60.8076C295.248 61.5723 295.028 62.2051 294.598 62.7148C294.167 63.2246 293.552 63.4707 292.761 63.4707ZM307.236 60.377C307.236 59.1992 306.858 58.2412 306.12 57.5029C305.382 56.7646 304.415 56.3955 303.22 56.3955C301.937 56.3955 300.917 56.7998 300.152 57.5996C299.388 58.3994 299.01 59.4717 299.01 60.8076C299.01 62.1699 299.388 63.2422 300.152 64.0332C300.917 64.8242 301.963 65.2197 303.29 65.2197C304.292 65.2197 305.145 64.9736 305.865 64.4727C306.586 63.9805 307.008 63.3389 307.14 62.5479H305.162C304.846 63.1895 304.222 63.5059 303.29 63.5059C302.569 63.5059 301.998 63.3301 301.594 62.9785C301.189 62.627 300.97 62.126 300.952 61.458H307.175C307.21 60.9131 307.236 60.5527 307.236 60.377ZM300.952 59.9639C300.961 59.3662 301.163 58.874 301.559 58.5049C301.954 58.1357 302.499 57.9424 303.185 57.9424C303.853 57.9424 304.371 58.1182 304.74 58.4697C305.101 58.8213 305.285 59.3135 305.303 59.9639H300.952Z" fill="white"/>
<path d="M159.696 36.0684C160.001 36.0684 160.255 35.9731 160.452 35.77C160.648 35.5669 160.75 35.3193 160.75 35.021C160.75 34.729 160.648 34.4751 160.452 34.272C160.249 34.0688 160.001 33.9673 159.696 33.9673C159.392 33.9673 159.138 34.0688 158.941 34.272C158.738 34.4751 158.643 34.729 158.643 35.021C158.643 35.3193 158.738 35.5669 158.935 35.77C159.131 35.9731 159.385 36.0684 159.696 36.0684ZM158.738 45.8057C159.277 45.8057 159.69 45.6787 159.976 45.4121C160.255 45.1455 160.401 44.7646 160.401 44.2632V36.9443H158.985V43.8442C158.985 44.0601 158.941 44.2188 158.852 44.3203C158.763 44.4219 158.624 44.4663 158.433 44.4663C158.243 44.4663 158.071 44.4536 157.906 44.4155V45.6787C158.071 45.7676 158.344 45.8057 158.738 45.8057ZM164.743 43.1587C165.124 43.1587 165.498 43.0698 165.866 42.8921C166.234 42.7144 166.507 42.4795 166.691 42.1812V43H168.094V36.9443H166.691V37.7632C166.501 37.4585 166.241 37.2236 165.898 37.0459C165.555 36.8745 165.187 36.7856 164.781 36.7856C163.86 36.7856 163.13 37.0903 162.584 37.6934C162.039 38.2964 161.766 39.0581 161.766 39.9722C161.766 40.4229 161.829 40.8418 161.956 41.2227C162.083 41.6099 162.273 41.9463 162.521 42.2319C162.762 42.5239 163.08 42.7461 163.46 42.9111C163.841 43.0762 164.267 43.1587 164.743 43.1587ZM164.946 41.8955C164.4 41.8955 163.975 41.7178 163.657 41.356C163.34 41.0005 163.181 40.5371 163.181 39.9722C163.181 39.4136 163.34 38.9502 163.657 38.5884C163.975 38.2329 164.4 38.0488 164.946 38.0488C165.517 38.0488 165.961 38.2329 166.272 38.6011C166.583 38.9692 166.742 39.4263 166.742 39.9722C166.742 40.5244 166.583 40.9814 166.272 41.3496C165.961 41.7178 165.517 41.8955 164.946 41.8955ZM171.63 43H172.772L175.4 36.9443H173.877L172.201 41.1021L170.525 36.9443H169.002L171.63 43ZM178.708 43.1587C179.088 43.1587 179.463 43.0698 179.831 42.8921C180.199 42.7144 180.472 42.4795 180.656 42.1812V43H182.059V36.9443H180.656V37.7632C180.466 37.4585 180.206 37.2236 179.863 37.0459C179.52 36.8745 179.152 36.7856 178.746 36.7856C177.825 36.7856 177.095 37.0903 176.549 37.6934C176.003 38.2964 175.73 39.0581 175.73 39.9722C175.73 40.4229 175.794 40.8418 175.921 41.2227C176.048 41.6099 176.238 41.9463 176.486 42.2319C176.727 42.5239 177.044 42.7461 177.425 42.9111C177.806 43.0762 178.231 43.1587 178.708 43.1587ZM178.911 41.8955C178.365 41.8955 177.939 41.7178 177.622 41.356C177.305 41.0005 177.146 40.5371 177.146 39.9722C177.146 39.4136 177.305 38.9502 177.622 38.5884C177.939 38.2329 178.365 38.0488 178.911 38.0488C179.482 38.0488 179.926 38.2329 180.237 38.6011C180.548 38.9692 180.707 39.4263 180.707 39.9722C180.707 40.5244 180.548 40.9814 180.237 41.3496C179.926 41.7178 179.482 41.8955 178.911 41.8955ZM148.562 58.1587C149.394 58.1587 150.067 57.9556 150.575 57.5493C151.083 57.1431 151.368 56.5908 151.432 55.9053H150.016C149.851 56.5654 149.362 56.8955 148.562 56.8955C148.055 56.8955 147.661 56.7305 147.382 56.394C147.103 56.064 146.963 55.5879 146.963 54.9722C146.963 54.3628 147.103 53.8867 147.382 53.5503C147.661 53.2202 148.055 53.0488 148.562 53.0488C148.981 53.0488 149.305 53.1377 149.54 53.3154C149.775 53.4932 149.934 53.7534 150.016 54.1025H151.432C151.368 53.3979 151.083 52.833 150.575 52.4141C150.067 51.9951 149.394 51.7856 148.562 51.7856C147.629 51.7856 146.893 52.0776 146.354 52.6616C145.814 53.2456 145.547 54.02 145.547 54.9722C145.547 55.9307 145.814 56.6987 146.354 57.2827C146.893 57.8667 147.629 58.1587 148.562 58.1587ZM155.672 58.1587C156.319 58.1587 156.891 58.019 157.379 57.7334C157.868 57.4541 158.236 57.0732 158.49 56.5908C158.744 56.1084 158.871 55.5688 158.871 54.9722C158.871 54.3755 158.744 53.8423 158.49 53.3599C158.236 52.8774 157.868 52.4966 157.379 52.2109C156.891 51.9316 156.319 51.7856 155.672 51.7856C154.694 51.7856 153.92 52.0903 153.342 52.6934C152.765 53.2964 152.479 54.0581 152.479 54.9722C152.479 55.8926 152.765 56.6543 153.342 57.2573C153.92 57.8604 154.694 58.1587 155.672 58.1587ZM155.672 56.8955C155.113 56.8955 154.675 56.7178 154.364 56.3623C154.047 56.0068 153.895 55.5435 153.895 54.9722C153.895 54.4072 154.047 53.9438 154.364 53.5884C154.675 53.2329 155.113 53.0488 155.672 53.0488C156.23 53.0488 156.662 53.2329 156.979 53.5884C157.297 53.9438 157.456 54.4072 157.456 54.9722C157.456 55.5435 157.297 56.0068 156.979 56.3623C156.662 56.7178 156.23 56.8955 155.672 56.8955ZM160.229 58H161.651V54.7881C161.651 54.4453 161.683 54.147 161.747 53.9058C161.81 53.6646 161.905 53.4805 162.032 53.3535C162.153 53.2266 162.286 53.1313 162.438 53.0806C162.584 53.0298 162.756 52.998 162.946 52.998C163.321 52.998 163.6 53.1123 163.778 53.3408C163.956 53.5693 164.051 53.9312 164.051 54.4263V58H165.473V54.7881C165.473 54.4453 165.504 54.147 165.568 53.9058C165.631 53.6646 165.72 53.4805 165.841 53.3535C165.961 53.2266 166.095 53.1313 166.241 53.0806C166.38 53.0298 166.552 52.998 166.742 52.998C167.498 52.998 167.878 53.4805 167.878 54.439V58H169.294V54.166C169.294 52.5791 168.564 51.7856 167.11 51.7856C166.691 51.7856 166.311 51.8872 165.974 52.0903C165.638 52.2935 165.396 52.5537 165.25 52.8647C164.933 52.1475 164.298 51.7856 163.34 51.7856C162.953 51.7856 162.61 51.8809 162.305 52.0713C162 52.2617 161.785 52.4966 161.651 52.7886V51.9443H160.229V58ZM174.493 51.7856C174.061 51.7856 173.661 51.8809 173.293 52.0586C172.918 52.2363 172.639 52.4712 172.455 52.7632V51.9443H171.046V60.7295H172.455V57.1812C172.639 57.4731 172.912 57.7144 173.268 57.8921C173.623 58.0698 173.998 58.1587 174.404 58.1587C175.28 58.1587 175.991 57.8667 176.549 57.27C177.102 56.6733 177.381 55.9116 177.381 54.9722C177.381 54.02 177.114 53.2456 176.581 52.6616C176.048 52.0776 175.356 51.7856 174.493 51.7856ZM174.194 56.8955C173.661 56.8955 173.223 56.7178 172.893 56.3623C172.563 56.0068 172.398 55.5435 172.398 54.9722C172.398 54.4009 172.563 53.9375 172.893 53.582C173.223 53.2266 173.661 53.0488 174.194 53.0488C174.715 53.0488 175.14 53.2329 175.47 53.5884C175.8 53.9438 175.965 54.4072 175.965 54.9722C175.965 55.5435 175.8 56.0068 175.47 56.3623C175.14 56.7178 174.715 56.8955 174.194 56.8955ZM179.444 51.0684C179.749 51.0684 180.002 50.9731 180.199 50.77C180.396 50.5669 180.498 50.3193 180.498 50.021C180.498 49.729 180.396 49.4751 180.199 49.272C179.996 49.0688 179.749 48.9673 179.444 48.9673C179.139 48.9673 178.885 49.0688 178.688 49.272C178.485 49.4751 178.39 49.729 178.39 50.021C178.39 50.3193 178.485 50.5669 178.682 50.77C178.879 50.9731 179.133 51.0684 179.444 51.0684ZM178.739 58H180.148V51.9443H178.739V58ZM181.964 58H183.386V48.8975H181.964V58ZM190.692 54.6611C190.692 53.8105 190.419 53.1187 189.886 52.5854C189.353 52.0522 188.654 51.7856 187.791 51.7856C186.864 51.7856 186.128 52.0776 185.576 52.6553C185.023 53.2329 184.75 54.0073 184.75 54.9722C184.75 55.9561 185.023 56.7305 185.576 57.3018C186.128 57.873 186.883 58.1587 187.842 58.1587C188.565 58.1587 189.181 57.981 189.702 57.6191C190.222 57.2637 190.527 56.8003 190.622 56.229H189.194C188.965 56.6924 188.515 56.9209 187.842 56.9209C187.321 56.9209 186.909 56.7939 186.617 56.54C186.325 56.2861 186.166 55.9243 186.153 55.4419H190.647C190.673 55.0483 190.692 54.7881 190.692 54.6611ZM186.153 54.3628C186.16 53.9312 186.306 53.5757 186.591 53.3091C186.877 53.0425 187.271 52.9028 187.766 52.9028C188.248 52.9028 188.623 53.0298 188.889 53.2837C189.149 53.5376 189.283 53.8931 189.295 54.3628H186.153ZM192.057 58H193.479V55.3213C193.479 54.6421 193.618 54.1152 193.904 53.7471C194.183 53.3789 194.583 53.1885 195.091 53.1885C195.313 53.1885 195.497 53.2012 195.649 53.2139V51.9189C195.491 51.8809 195.307 51.8618 195.091 51.8618C194.729 51.8618 194.399 51.9697 194.094 52.1855C193.79 52.4014 193.58 52.7061 193.479 53.1123V51.9443H192.057V58Z" fill="black"/>
<path d="M355.682 44.2222C356.621 44.2222 357.351 43.9365 357.872 43.3589C358.392 42.7876 358.659 42.0132 358.659 41.0483V34.8975H357.161V41.0483C357.161 41.6069 357.034 42.0576 356.78 42.3877C356.526 42.7178 356.164 42.8828 355.682 42.8828C355.206 42.8828 354.844 42.7178 354.596 42.3813C354.342 42.0449 354.222 41.5942 354.222 41.0356H352.73C352.73 42.0005 352.99 42.7749 353.511 43.3525C354.031 43.9365 354.755 44.2222 355.682 44.2222ZM362.455 44H363.883L366.904 34.8975H365.279L363.172 41.645L361.064 34.8975H359.439L362.455 44ZM367.882 44H369.31V37.9189L371.652 44H372.782L375.118 37.9824V44H376.553V34.8975H375.118L372.224 41.8672L369.31 34.8975H367.882V44Z" fill="black"/>
<path d="M548.211 44.2222C549.43 44.2222 550.439 43.9111 551.227 43.2891C552.014 42.667 552.477 41.8672 552.617 40.877H550.979C550.833 41.5117 550.522 42.0005 550.052 42.356C549.576 42.7114 548.967 42.8828 548.224 42.8828C547.228 42.8828 546.447 42.5781 545.888 41.9561C545.33 41.3403 545.05 40.5024 545.05 39.4487C545.05 38.395 545.33 37.5635 545.888 36.9478C546.447 36.332 547.228 36.021 548.224 36.021C548.967 36.021 549.576 36.1987 550.052 36.5479C550.522 36.9033 550.833 37.3921 550.979 38.0205H552.617C552.477 37.0366 552.014 36.2368 551.227 35.6147C550.439 34.9927 549.437 34.6816 548.211 34.6816C547.24 34.6816 546.396 34.8911 545.679 35.2974C544.955 35.7036 544.409 36.2686 544.041 36.9858C543.667 37.7031 543.482 38.522 543.482 39.4487C543.482 40.3755 543.667 41.2007 544.041 41.918C544.409 42.6353 544.955 43.2002 545.679 43.6064C546.396 44.019 547.24 44.2222 548.211 44.2222ZM557.409 34.8975H554.058V44H555.549V41.2705H557.409C558.317 41.2705 559.066 40.9722 559.65 40.3755C560.234 39.7788 560.532 39.0171 560.532 38.084C560.532 37.1572 560.234 36.3892 559.65 35.7925C559.066 35.1958 558.317 34.8975 557.409 34.8975ZM557.32 39.9312H555.549V36.2368H557.32C557.815 36.2368 558.222 36.4146 558.545 36.7637C558.869 37.1128 559.034 37.5508 559.034 38.084C559.034 38.6172 558.869 39.0615 558.545 39.4106C558.222 39.7598 557.815 39.9312 557.32 39.9312ZM564.817 44.2222C565.858 44.2222 566.683 43.9429 567.292 43.3843C567.896 42.8257 568.2 42.0259 568.2 40.9849V34.8975H566.702V40.896C566.702 41.5435 566.531 42.0322 566.194 42.375C565.858 42.7178 565.401 42.8828 564.817 42.8828C564.233 42.8828 563.77 42.7178 563.433 42.375C563.097 42.0322 562.932 41.5435 562.932 40.896V34.8975H561.44V40.9849C561.44 42.0259 561.738 42.8257 562.348 43.3843C562.951 43.9429 563.776 44.2222 564.817 44.2222Z" fill="black"/>
<rect x="406" y="14" width="109" height="71" rx="6" fill="#3884FF"/>
<path d="M426.257 44H428.226V39.5527C428.226 39.0781 428.27 38.665 428.357 38.3311C428.445 37.9971 428.577 37.7422 428.753 37.5664C428.92 37.3906 429.104 37.2588 429.315 37.1885C429.518 37.1182 429.755 37.0742 430.019 37.0742C430.537 37.0742 430.924 37.2324 431.17 37.5488C431.416 37.8652 431.548 38.3662 431.548 39.0518V44H433.517V39.5527C433.517 39.0781 433.561 38.665 433.648 38.3311C433.736 37.9971 433.859 37.7422 434.026 37.5664C434.193 37.3906 434.378 37.2588 434.58 37.1885C434.773 37.1182 435.011 37.0742 435.274 37.0742C436.32 37.0742 436.848 37.7422 436.848 39.0693V44H438.808V38.6914C438.808 36.4941 437.797 35.3955 435.784 35.3955C435.204 35.3955 434.677 35.5361 434.211 35.8174C433.745 36.0986 433.411 36.459 433.209 36.8896C432.77 35.8965 431.891 35.3955 430.563 35.3955C430.027 35.3955 429.553 35.5273 429.131 35.791C428.709 36.0547 428.41 36.3799 428.226 36.7842V35.6152H426.257V44ZM444.731 44.2197C445.259 44.2197 445.777 44.0967 446.287 43.8506C446.797 43.6045 447.175 43.2793 447.43 42.8662V44H449.372V35.6152H447.43V36.749C447.166 36.3271 446.806 36.002 446.331 35.7559C445.856 35.5186 445.347 35.3955 444.784 35.3955C443.51 35.3955 442.499 35.8174 441.743 36.6523C440.987 37.4873 440.609 38.542 440.609 39.8076C440.609 40.4316 440.697 41.0117 440.873 41.5391C441.049 42.0752 441.312 42.541 441.655 42.9365C441.989 43.3408 442.429 43.6484 442.956 43.877C443.483 44.1055 444.072 44.2197 444.731 44.2197ZM445.013 42.4707C444.257 42.4707 443.668 42.2246 443.229 41.7236C442.789 41.2314 442.569 40.5898 442.569 39.8076C442.569 39.0342 442.789 38.3926 443.229 37.8916C443.668 37.3994 444.257 37.1445 445.013 37.1445C445.804 37.1445 446.419 37.3994 446.85 37.9092C447.28 38.4189 447.5 39.0518 447.5 39.8076C447.5 40.5723 447.28 41.2051 446.85 41.7148C446.419 42.2246 445.804 42.4707 445.013 42.4707ZM455.437 44.2197C456.588 44.2197 457.52 43.9385 458.223 43.376C458.926 42.8135 459.321 42.0488 459.409 41.0996H457.449C457.221 42.0137 456.544 42.4707 455.437 42.4707C454.733 42.4707 454.188 42.2422 453.802 41.7764C453.415 41.3193 453.222 40.6602 453.222 39.8076C453.222 38.9639 453.415 38.3047 453.802 37.8389C454.188 37.3818 454.733 37.1445 455.437 37.1445C456.017 37.1445 456.465 37.2676 456.79 37.5137C457.115 37.7598 457.335 38.1201 457.449 38.6035H459.409C459.321 37.6279 458.926 36.8457 458.223 36.2656C457.52 35.6855 456.588 35.3955 455.437 35.3955C454.145 35.3955 453.125 35.7998 452.378 36.6084C451.631 37.417 451.262 38.4893 451.262 39.8076C451.262 41.1348 451.631 42.1982 452.378 43.0068C453.125 43.8154 454.145 44.2197 455.437 44.2197ZM466.01 35.3955C465.386 35.3955 464.841 35.5186 464.366 35.7559C463.892 36.002 463.531 36.3447 463.276 36.7842V31.3965H461.308V44H463.276V39.3945C463.276 38.6562 463.443 38.085 463.795 37.6807C464.138 37.2764 464.63 37.0742 465.271 37.0742C465.939 37.0742 466.414 37.2764 466.695 37.6719C466.968 38.0674 467.108 38.7178 467.108 39.623V44H469.068V38.7266C469.068 37.6367 468.805 36.8018 468.295 36.2393C467.776 35.6768 467.012 35.3955 466.01 35.3955ZM472.479 34.4023C472.9 34.4023 473.252 34.2705 473.524 33.9893C473.797 33.708 473.938 33.3652 473.938 32.9521C473.938 32.5479 473.797 32.1963 473.524 31.915C473.243 31.6338 472.9 31.4932 472.479 31.4932C472.057 31.4932 471.705 31.6338 471.433 31.915C471.151 32.1963 471.02 32.5479 471.02 32.9521C471.02 33.3652 471.151 33.708 471.424 33.9893C471.696 34.2705 472.048 34.4023 472.479 34.4023ZM471.503 44H473.454V35.6152H471.503V44ZM475.968 44H477.937V39.3945C477.937 38.6562 478.104 38.085 478.455 37.6807C478.798 37.2764 479.29 37.0742 479.932 37.0742C480.6 37.0742 481.074 37.2764 481.355 37.6719C481.628 38.0674 481.769 38.7178 481.769 39.623V44H483.729V38.7266C483.729 37.6367 483.465 36.8018 482.955 36.2393C482.437 35.6768 481.672 35.3955 480.67 35.3955C480.046 35.3955 479.501 35.5186 479.026 35.7559C478.552 36.002 478.191 36.3447 477.937 36.7842V35.6152H475.968V44ZM493.766 39.377C493.766 38.1992 493.388 37.2412 492.649 36.5029C491.911 35.7646 490.944 35.3955 489.749 35.3955C488.466 35.3955 487.446 35.7998 486.682 36.5996C485.917 37.3994 485.539 38.4717 485.539 39.8076C485.539 41.1699 485.917 42.2422 486.682 43.0332C487.446 43.8242 488.492 44.2197 489.819 44.2197C490.821 44.2197 491.674 43.9736 492.395 43.4727C493.115 42.9805 493.537 42.3389 493.669 41.5479H491.691C491.375 42.1895 490.751 42.5059 489.819 42.5059C489.099 42.5059 488.527 42.3301 488.123 41.9785C487.719 41.627 487.499 41.126 487.481 40.458H493.704C493.739 39.9131 493.766 39.5527 493.766 39.377ZM487.481 38.9639C487.49 38.3662 487.692 37.874 488.088 37.5049C488.483 37.1357 489.028 36.9424 489.714 36.9424C490.382 36.9424 490.9 37.1182 491.27 37.4697C491.63 37.8213 491.814 38.3135 491.832 38.9639H487.481ZM429.808 65.2197C430.959 65.2197 431.891 64.9385 432.594 64.376C433.297 63.8135 433.692 63.0488 433.78 62.0996H431.82C431.592 63.0137 430.915 63.4707 429.808 63.4707C429.104 63.4707 428.56 63.2422 428.173 62.7764C427.786 62.3193 427.593 61.6602 427.593 60.8076C427.593 59.9639 427.786 59.3047 428.173 58.8389C428.56 58.3818 429.104 58.1445 429.808 58.1445C430.388 58.1445 430.836 58.2676 431.161 58.5137C431.486 58.7598 431.706 59.1201 431.82 59.6035H433.78C433.692 58.6279 433.297 57.8457 432.594 57.2656C431.891 56.6855 430.959 56.3955 429.808 56.3955C428.516 56.3955 427.496 56.7998 426.749 57.6084C426.002 58.417 425.633 59.4893 425.633 60.8076C425.633 62.1348 426.002 63.1982 426.749 64.0068C427.496 64.8154 428.516 65.2197 429.808 65.2197ZM439.651 65.2197C440.548 65.2197 441.339 65.0264 442.016 64.6309C442.692 64.2441 443.202 63.7168 443.554 63.0488C443.905 62.3809 444.081 61.6338 444.081 60.8076C444.081 59.9814 443.905 59.2432 443.554 58.5752C443.202 57.9072 442.692 57.3799 442.016 56.9844C441.339 56.5977 440.548 56.3955 439.651 56.3955C438.298 56.3955 437.226 56.8174 436.426 57.6523C435.626 58.4873 435.23 59.542 435.23 60.8076C435.23 62.082 435.626 63.1367 436.426 63.9717C437.226 64.8066 438.298 65.2197 439.651 65.2197ZM439.651 63.4707C438.878 63.4707 438.271 63.2246 437.841 62.7324C437.401 62.2402 437.19 61.5986 437.19 60.8076C437.19 60.0254 437.401 59.3838 437.841 58.8916C438.271 58.3994 438.878 58.1445 439.651 58.1445C440.425 58.1445 441.022 58.3994 441.462 58.8916C441.901 59.3838 442.121 60.0254 442.121 60.8076C442.121 61.5986 441.901 62.2402 441.462 62.7324C441.022 63.2246 440.425 63.4707 439.651 63.4707ZM452.158 52.3965V57.749C451.895 57.3271 451.534 57.002 451.06 56.7559C450.585 56.5186 450.075 56.3955 449.513 56.3955C448.238 56.3955 447.228 56.8174 446.472 57.6523C445.716 58.4873 445.338 59.542 445.338 60.8076C445.338 61.4316 445.426 62.0117 445.602 62.5391C445.777 63.0752 446.041 63.541 446.384 63.9365C446.718 64.3408 447.157 64.6484 447.685 64.877C448.212 65.1055 448.801 65.2197 449.46 65.2197C449.987 65.2197 450.506 65.0967 451.016 64.8506C451.525 64.6045 451.903 64.2793 452.158 63.8662V65H454.101V52.3965H452.158ZM449.741 63.4707C448.985 63.4707 448.396 63.2246 447.957 62.7236C447.518 62.2314 447.298 61.5898 447.298 60.8076C447.298 60.0342 447.518 59.3926 447.957 58.8916C448.396 58.3994 448.985 58.1445 449.741 58.1445C450.532 58.1445 451.147 58.3994 451.578 58.9092C452.009 59.4189 452.229 60.0518 452.229 60.8076C452.229 61.5723 452.009 62.2051 451.578 62.7148C451.147 63.2246 450.532 63.4707 449.741 63.4707ZM464.217 60.377C464.217 59.1992 463.839 58.2412 463.101 57.5029C462.362 56.7646 461.396 56.3955 460.2 56.3955C458.917 56.3955 457.897 56.7998 457.133 57.5996C456.368 58.3994 455.99 59.4717 455.99 60.8076C455.99 62.1699 456.368 63.2422 457.133 64.0332C457.897 64.8242 458.943 65.2197 460.271 65.2197C461.272 65.2197 462.125 64.9736 462.846 64.4727C463.566 63.9805 463.988 63.3389 464.12 62.5479H462.143C461.826 63.1895 461.202 63.5059 460.271 63.5059C459.55 63.5059 458.979 63.3301 458.574 62.9785C458.17 62.627 457.95 62.126 457.933 61.458H464.155C464.19 60.9131 464.217 60.5527 464.217 60.377ZM457.933 59.9639C457.941 59.3662 458.144 58.874 458.539 58.5049C458.935 58.1357 459.479 57.9424 460.165 57.9424C460.833 57.9424 461.352 58.1182 461.721 58.4697C462.081 58.8213 462.266 59.3135 462.283 59.9639H457.933Z" fill="white"/>
<rect x="597" y="14" width="109" height="71" rx="6" fill="#3884FF"/>
<path d="M629.054 55.2197C629.95 55.2197 630.741 55.0264 631.418 54.6309C632.095 54.2441 632.604 53.7168 632.956 53.0488C633.308 52.3809 633.483 51.6338 633.483 50.8076C633.483 49.9814 633.308 49.2432 632.956 48.5752C632.604 47.9072 632.095 47.3799 631.418 46.9844C630.741 46.5977 629.95 46.3955 629.054 46.3955C627.7 46.3955 626.628 46.8174 625.828 47.6523C625.028 48.4873 624.633 49.542 624.633 50.8076C624.633 52.082 625.028 53.1367 625.828 53.9717C626.628 54.8066 627.7 55.2197 629.054 55.2197ZM629.054 53.4707C628.28 53.4707 627.674 53.2246 627.243 52.7324C626.804 52.2402 626.593 51.5986 626.593 50.8076C626.593 50.0254 626.804 49.3838 627.243 48.8916C627.674 48.3994 628.28 48.1445 629.054 48.1445C629.827 48.1445 630.425 48.3994 630.864 48.8916C631.304 49.3838 631.523 50.0254 631.523 50.8076C631.523 51.5986 631.304 52.2402 630.864 52.7324C630.425 53.2246 629.827 53.4707 629.054 53.4707ZM638.388 55.2197C639.601 55.2197 640.462 54.7627 640.98 53.8311V55H642.949V46.6152H640.98V51.3438C640.98 52.0029 640.813 52.5303 640.488 52.9346C640.163 53.3389 639.653 53.541 638.95 53.541C638.335 53.541 637.896 53.3652 637.632 53.0049C637.368 52.6445 637.236 52.1084 637.236 51.3965V46.6152H635.276V51.8887C635.276 52.9785 635.558 53.8135 636.12 54.376C636.683 54.9385 637.438 55.2197 638.388 55.2197ZM649.251 53.3477C649.031 53.3477 648.855 53.3301 648.724 53.2949C648.592 53.2598 648.469 53.1895 648.354 53.0752C648.231 52.9697 648.152 52.8027 648.1 52.5742C648.047 52.3545 648.029 52.0645 648.029 51.7041V48.25H649.954V46.6152H648.029V44.0752H646.069V46.6152H644.646V48.25H646.069V52.1523C646.069 52.5479 646.104 52.8994 646.175 53.207C646.245 53.5234 646.333 53.7783 646.438 53.9805C646.544 54.1826 646.676 54.3584 646.843 54.499C647.001 54.6484 647.159 54.7627 647.309 54.833C647.458 54.9121 647.634 54.9736 647.836 55.0176C648.029 55.0615 648.196 55.0879 648.328 55.0967C648.46 55.1055 648.609 55.1055 648.785 55.1055C649.348 55.1055 649.831 55.0703 650.244 55V53.2686C649.937 53.3213 649.603 53.3477 649.251 53.3477ZM656.818 46.3955C656.221 46.3955 655.667 46.5273 655.157 46.7734C654.639 47.0195 654.252 47.3447 653.997 47.749V46.6152H652.046V58.7793H653.997V53.8662C654.252 54.2705 654.63 54.6045 655.122 54.8506C655.614 55.0967 656.133 55.2197 656.695 55.2197C657.908 55.2197 658.893 54.8154 659.666 53.9893C660.431 53.1631 660.817 52.1084 660.817 50.8076C660.817 49.4893 660.448 48.417 659.71 47.6084C658.972 46.7998 658.014 46.3955 656.818 46.3955ZM656.405 53.4707C655.667 53.4707 655.061 53.2246 654.604 52.7324C654.146 52.2402 653.918 51.5986 653.918 50.8076C653.918 50.0166 654.146 49.375 654.604 48.8828C655.061 48.3906 655.667 48.1445 656.405 48.1445C657.126 48.1445 657.715 48.3994 658.172 48.8916C658.629 49.3838 658.857 50.0254 658.857 50.8076C658.857 51.5986 658.629 52.2402 658.172 52.7324C657.715 53.2246 657.126 53.4707 656.405 53.4707ZM665.722 55.2197C666.935 55.2197 667.796 54.7627 668.314 53.8311V55H670.283V46.6152H668.314V51.3438C668.314 52.0029 668.147 52.5303 667.822 52.9346C667.497 53.3389 666.987 53.541 666.284 53.541C665.669 53.541 665.229 53.3652 664.966 53.0049C664.702 52.6445 664.57 52.1084 664.57 51.3965V46.6152H662.61V51.8887C662.61 52.9785 662.892 53.8135 663.454 54.376C664.017 54.9385 664.772 55.2197 665.722 55.2197ZM676.585 53.3477C676.365 53.3477 676.189 53.3301 676.058 53.2949C675.926 53.2598 675.803 53.1895 675.688 53.0752C675.565 52.9697 675.486 52.8027 675.434 52.5742C675.381 52.3545 675.363 52.0645 675.363 51.7041V48.25H677.288V46.6152H675.363V44.0752H673.403V46.6152H671.979V48.25H673.403V52.1523C673.403 52.5479 673.438 52.8994 673.509 53.207C673.579 53.5234 673.667 53.7783 673.772 53.9805C673.878 54.1826 674.01 54.3584 674.177 54.499C674.335 54.6484 674.493 54.7627 674.643 54.833C674.792 54.9121 674.968 54.9736 675.17 55.0176C675.363 55.0615 675.53 55.0879 675.662 55.0967C675.794 55.1055 675.943 55.1055 676.119 55.1055C676.682 55.1055 677.165 55.0703 677.578 55V53.2686C677.271 53.3213 676.937 53.3477 676.585 53.3477Z" fill="white"/>
</svg>
