<svg xmlns="http://www.w3.org/2000/svg" width="354" height="99" fill="none" viewBox="0 0 354 99"><rect width="353" height="98" x=".5" y=".5" fill="#FDFFFD" stroke="#C4C4C4" rx="4.5"/><rect width="311" height="57" x="21" y="31" fill="#B6D2FF" rx="4"/><rect width="92" height="42" x="40" y="38" fill="#3884FF" rx="3"/><path fill="#fff" d="M72.4473 64.3076C73.748 64.3076 74.7588 63.9121 75.4795 63.1123C76.2002 62.3213 76.5693 61.249 76.5693 59.9131V51.3965H74.4951V59.9131C74.4951 60.6865 74.3193 61.3105 73.9678 61.7676C73.6162 62.2246 73.1152 62.4531 72.4473 62.4531C71.7881 62.4531 71.2871 62.2246 70.9443 61.7588C70.5928 61.293 70.4258 60.6689 70.4258 59.8955H68.3604C68.3604 61.2314 68.7207 62.3037 69.4414 63.1035C70.1621 63.9121 71.1641 64.3076 72.4473 64.3076ZM81.8252 64H83.8027L87.9863 51.3965H85.7363L82.8184 60.7393L79.9004 51.3965H77.6504L81.8252 64ZM89.3398 64H91.3174V55.5801L94.5605 64H96.125L99.3594 55.668V64H101.346V51.3965H99.3594L95.3516 61.0469L91.3174 51.3965H89.3398V64Z"/><path fill="#000" d="M163.006 64.6162H166.126V60.0166H170.623V57.1162H166.126V52.4873H163.006V57.1162H158.494V60.0166H163.006V64.6162Z"/><path fill="#000" d="M205.181 65.3076C206.868 65.3076 208.266 64.877 209.355 64.0156C210.445 63.1543 211.087 62.0469 211.28 60.6758H209.013C208.811 61.5547 208.38 62.2314 207.729 62.7236C207.07 63.2158 206.227 63.4531 205.198 63.4531C203.818 63.4531 202.737 63.0312 201.964 62.1699C201.19 61.3174 200.804 60.1572 200.804 58.6982C200.804 57.2393 201.19 56.0879 201.964 55.2354C202.737 54.3828 203.818 53.9521 205.198 53.9521C206.227 53.9521 207.07 54.1982 207.729 54.6816C208.38 55.1738 208.811 55.8506 209.013 56.7207H211.28C211.087 55.3584 210.445 54.251 209.355 53.3896C208.266 52.5283 206.877 52.0977 205.181 52.0977C203.836 52.0977 202.667 52.3877 201.674 52.9502C200.672 53.5127 199.916 54.2949 199.406 55.2881C198.888 56.2812 198.633 57.415 198.633 58.6982C198.633 59.9814 198.888 61.124 199.406 62.1172C199.916 63.1104 200.672 63.8926 201.674 64.4551C202.667 65.0264 203.836 65.3076 205.181 65.3076ZM213.179 65H215.147V52.3965H213.179V65ZM221.159 65.2197C221.687 65.2197 222.205 65.0967 222.715 64.8506C223.225 64.6045 223.603 64.2793 223.857 63.8662V65H225.8V56.6152H223.857V57.749C223.594 57.3271 223.233 57.002 222.759 56.7559C222.284 56.5186 221.774 56.3955 221.212 56.3955C219.938 56.3955 218.927 56.8174 218.171 57.6523C217.415 58.4873 217.037 59.542 217.037 60.8076C217.037 61.4316 217.125 62.0117 217.301 62.5391C217.477 63.0752 217.74 63.541 218.083 63.9365C218.417 64.3408 218.856 64.6484 219.384 64.877C219.911 65.1055 220.5 65.2197 221.159 65.2197ZM221.44 63.4707C220.685 63.4707 220.096 63.2246 219.656 62.7236C219.217 62.2314 218.997 61.5898 218.997 60.8076C218.997 60.0342 219.217 59.3926 219.656 58.8916C220.096 58.3994 220.685 58.1445 221.44 58.1445C222.231 58.1445 222.847 58.3994 223.277 58.9092C223.708 59.4189 223.928 60.0518 223.928 60.8076C223.928 61.5723 223.708 62.2051 223.277 62.7148C222.847 63.2246 222.231 63.4707 221.44 63.4707ZM231.249 65.2197C232.269 65.2197 233.068 64.9912 233.666 64.5254C234.264 64.0684 234.562 63.4268 234.562 62.6094C234.562 62.0293 234.387 61.5283 234.044 61.1064C233.692 60.6846 233.218 60.3857 232.62 60.21L230.941 59.7266C230.563 59.6211 230.3 59.498 230.142 59.3398C229.983 59.1816 229.904 58.9883 229.904 58.751C229.904 58.5049 230.01 58.2939 230.238 58.1357C230.467 57.9775 230.757 57.8896 231.108 57.8896C231.565 57.8896 231.917 57.9951 232.181 58.1885C232.436 58.3818 232.567 58.6543 232.567 59.0059H234.492C234.492 58.1973 234.193 57.5645 233.604 57.0986C233.007 56.6328 232.198 56.3955 231.179 56.3955C230.238 56.3955 229.465 56.6328 228.858 57.0986C228.252 57.5645 227.953 58.1533 227.953 58.8652C227.953 59.4629 228.111 59.9639 228.428 60.3682C228.744 60.7725 229.201 61.0625 229.79 61.2207L231.469 61.6689C231.891 61.7832 232.181 61.915 232.339 62.0645C232.488 62.2227 232.567 62.416 232.567 62.6621C232.567 62.9609 232.453 63.207 232.233 63.3828C232.014 63.5586 231.724 63.6465 231.354 63.6465C230.845 63.6465 230.44 63.541 230.124 63.3125C229.808 63.084 229.649 62.7939 229.649 62.4248H227.689C227.689 63.2334 228.023 63.9014 228.7 64.4287C229.368 64.9561 230.221 65.2197 231.249 65.2197ZM239.476 65.2197C240.495 65.2197 241.295 64.9912 241.893 64.5254C242.49 64.0684 242.789 63.4268 242.789 62.6094C242.789 62.0293 242.613 61.5283 242.271 61.1064C241.919 60.6846 241.444 60.3857 240.847 60.21L239.168 59.7266C238.79 59.6211 238.526 59.498 238.368 59.3398C238.21 59.1816 238.131 58.9883 238.131 58.751C238.131 58.5049 238.236 58.2939 238.465 58.1357C238.693 57.9775 238.983 57.8896 239.335 57.8896C239.792 57.8896 240.144 57.9951 240.407 58.1885C240.662 58.3818 240.794 58.6543 240.794 59.0059H242.719C242.719 58.1973 242.42 57.5645 241.831 57.0986C241.233 56.6328 240.425 56.3955 239.405 56.3955C238.465 56.3955 237.691 56.6328 237.085 57.0986C236.479 57.5645 236.18 58.1533 236.18 58.8652C236.18 59.4629 236.338 59.9639 236.654 60.3682C236.971 60.7725 237.428 61.0625 238.017 61.2207L239.695 61.6689C240.117 61.7832 240.407 61.915 240.565 62.0645C240.715 62.2227 240.794 62.416 240.794 62.6621C240.794 62.9609 240.68 63.207 240.46 63.3828C240.24 63.5586 239.95 63.6465 239.581 63.6465C239.071 63.6465 238.667 63.541 238.351 63.3125C238.034 63.084 237.876 62.7939 237.876 62.4248H235.916C235.916 63.2334 236.25 63.9014 236.927 64.4287C237.595 64.9561 238.447 65.2197 239.476 65.2197ZM249.363 65H256.491V63.0576H251.429V52.3965H249.363V65ZM259.436 55.4023C259.857 55.4023 260.209 55.2705 260.481 54.9893C260.754 54.708 260.895 54.3652 260.895 53.9521C260.895 53.5479 260.754 53.1963 260.481 52.915C260.2 52.6338 259.857 52.4932 259.436 52.4932C259.014 52.4932 258.662 52.6338 258.39 52.915C258.108 53.1963 257.977 53.5479 257.977 53.9521C257.977 54.3652 258.108 54.708 258.381 54.9893C258.653 55.2705 259.005 55.4023 259.436 55.4023ZM258.46 65H260.411V56.6152H258.46V65ZM267.697 56.3955C267.1 56.3955 266.546 56.5273 266.036 56.7734C265.518 57.0195 265.131 57.3447 264.876 57.749V52.3965H262.925V65H264.876V63.8662C265.131 64.2705 265.509 64.6045 266.001 64.8506C266.493 65.0967 267.012 65.2197 267.574 65.2197C268.787 65.2197 269.771 64.8154 270.545 63.9893C271.31 63.1631 271.696 62.1084 271.696 60.8076C271.696 59.4893 271.327 58.417 270.589 57.6084C269.851 56.7998 268.893 56.3955 267.697 56.3955ZM267.284 63.4707C266.546 63.4707 265.939 63.2246 265.482 62.7324C265.025 62.2402 264.797 61.5986 264.797 60.8076C264.797 60.0166 265.025 59.375 265.482 58.8828C265.939 58.3906 266.546 58.1445 267.284 58.1445C268.005 58.1445 268.594 58.3994 269.051 58.8916C269.508 59.3838 269.736 60.0254 269.736 60.8076C269.736 61.5986 269.508 62.2402 269.051 62.7324C268.594 63.2246 268.005 63.4707 267.284 63.4707ZM273.577 65H275.546V61.291C275.546 60.3506 275.739 59.6211 276.135 59.1113C276.521 58.6016 277.075 58.3379 277.778 58.3379C278.086 58.3379 278.341 58.3555 278.552 58.373V56.5801C278.332 56.5273 278.077 56.501 277.778 56.501C277.277 56.501 276.82 56.6504 276.398 56.9492C275.977 57.248 275.687 57.6699 275.546 58.2324V56.6152H273.577V65ZM283.298 65.2197C283.825 65.2197 284.344 65.0967 284.854 64.8506C285.363 64.6045 285.741 64.2793 285.996 63.8662V65H287.938V56.6152H285.996V57.749C285.732 57.3271 285.372 57.002 284.897 56.7559C284.423 56.5186 283.913 56.3955 283.351 56.3955C282.076 56.3955 281.065 56.8174 280.31 57.6523C279.554 58.4873 279.176 59.542 279.176 60.8076C279.176 61.4316 279.264 62.0117 279.439 62.5391C279.615 63.0752 279.879 63.541 280.222 63.9365C280.556 64.3408 280.995 64.6484 281.522 64.877C282.05 65.1055 282.639 65.2197 283.298 65.2197ZM283.579 63.4707C282.823 63.4707 282.234 63.2246 281.795 62.7236C281.355 62.2314 281.136 61.5898 281.136 60.8076C281.136 60.0342 281.355 59.3926 281.795 58.8916C282.234 58.3994 282.823 58.1445 283.579 58.1445C284.37 58.1445 284.985 58.3994 285.416 58.9092C285.847 59.4189 286.066 60.0518 286.066 60.8076C286.066 61.5723 285.847 62.2051 285.416 62.7148C284.985 63.2246 284.37 63.4707 283.579 63.4707ZM290.452 65H292.421V61.291C292.421 60.3506 292.614 59.6211 293.01 59.1113C293.396 58.6016 293.95 58.3379 294.653 58.3379C294.961 58.3379 295.216 58.3555 295.427 58.373V56.5801C295.207 56.5273 294.952 56.501 294.653 56.501C294.152 56.501 293.695 56.6504 293.273 56.9492C292.852 57.248 292.562 57.6699 292.421 58.2324V56.6152H290.452V65ZM298.02 55.4023C298.441 55.4023 298.793 55.2705 299.065 54.9893C299.338 54.708 299.479 54.3652 299.479 53.9521C299.479 53.5479 299.338 53.1963 299.065 52.915C298.784 52.6338 298.441 52.4932 298.02 52.4932C297.598 52.4932 297.246 52.6338 296.974 52.915C296.692 53.1963 296.561 53.5479 296.561 53.9521C296.561 54.3652 296.692 54.708 296.965 54.9893C297.237 55.2705 297.589 55.4023 298.02 55.4023ZM297.044 65H298.995V56.6152H297.044V65ZM309.111 60.377C309.111 59.1992 308.733 58.2412 307.995 57.5029C307.257 56.7646 306.29 56.3955 305.095 56.3955C303.812 56.3955 302.792 56.7998 302.027 57.5996C301.263 58.3994 300.885 59.4717 300.885 60.8076C300.885 62.1699 301.263 63.2422 302.027 64.0332C302.792 64.8242 303.838 65.2197 305.165 65.2197C306.167 65.2197 307.02 64.9736 307.74 64.4727C308.461 63.9805 308.883 63.3389 309.015 62.5479H307.037C306.721 63.1895 306.097 63.5059 305.165 63.5059C304.444 63.5059 303.873 63.3301 303.469 62.9785C303.064 62.627 302.845 62.126 302.827 61.458H309.05C309.085 60.9131 309.111 60.5527 309.111 60.377ZM302.827 59.9639C302.836 59.3662 303.038 58.874 303.434 58.5049C303.829 58.1357 304.374 57.9424 305.06 57.9424C305.728 57.9424 306.246 58.1182 306.615 58.4697C306.976 58.8213 307.16 59.3135 307.178 59.9639H302.827ZM313.937 65.2197C314.956 65.2197 315.756 64.9912 316.354 64.5254C316.951 64.0684 317.25 63.4268 317.25 62.6094C317.25 62.0293 317.074 61.5283 316.731 61.1064C316.38 60.6846 315.905 60.3857 315.308 60.21L313.629 59.7266C313.251 59.6211 312.987 59.498 312.829 59.3398C312.671 59.1816 312.592 58.9883 312.592 58.751C312.592 58.5049 312.697 58.2939 312.926 58.1357C313.154 57.9775 313.444 57.8896 313.796 57.8896C314.253 57.8896 314.604 57.9951 314.868 58.1885C315.123 58.3818 315.255 58.6543 315.255 59.0059H317.18C317.18 58.1973 316.881 57.5645 316.292 57.0986C315.694 56.6328 314.886 56.3955 313.866 56.3955C312.926 56.3955 312.152 56.6328 311.546 57.0986C310.939 57.5645 310.641 58.1533 310.641 58.8652C310.641 59.4629 310.799 59.9639 311.115 60.3682C311.432 60.7725 311.889 61.0625 312.478 61.2207L314.156 61.6689C314.578 61.7832 314.868 61.915 315.026 62.0645C315.176 62.2227 315.255 62.416 315.255 62.6621C315.255 62.9609 315.141 63.207 314.921 63.3828C314.701 63.5586 314.411 63.6465 314.042 63.6465C313.532 63.6465 313.128 63.541 312.812 63.3125C312.495 63.084 312.337 62.7939 312.337 62.4248H310.377C310.377 63.2334 310.711 63.9014 311.388 64.4287C312.056 64.9561 312.908 65.2197 313.937 65.2197Z"/><path fill="#000" d="M152.941 24.3418C154.387 24.3418 155.51 23.9023 156.311 23.0137C157.111 22.1348 157.521 20.9434 157.521 19.459V9.99609H155.217V19.459C155.217 20.3184 155.021 21.0117 154.631 21.5195C154.24 22.0273 153.684 22.2812 152.941 22.2812C152.209 22.2812 151.652 22.0273 151.271 21.5098C150.881 20.9922 150.695 20.2988 150.695 19.4395H148.4C148.4 20.9238 148.801 22.1152 149.602 23.0039C150.402 23.9023 151.516 24.3418 152.941 24.3418ZM170.188 14.8984C170.188 13.4727 169.729 12.291 168.83 11.373C167.932 10.4551 166.779 9.99609 165.383 9.99609H160.227V24H162.521V19.8008H164.787L167.346 24H169.963L167.199 19.4785C168.107 19.1367 168.83 18.5605 169.377 17.7402C169.914 16.9199 170.188 15.9727 170.188 14.8984ZM162.521 12.0566H165.246C166.008 12.0566 166.633 12.3301 167.131 12.8672C167.629 13.4043 167.883 14.0781 167.883 14.8984C167.883 15.7188 167.629 16.4023 167.131 16.9395C166.633 17.4766 166.008 17.7402 165.246 17.7402H162.521V12.0566ZM172.395 24H180.471V21.9395H174.689V18.082H180.471V16.0215H174.689V12.0566H180.471V9.99609H172.395V24Z"/></svg>