<svg width="411" height="99" viewBox="0 0 411 99" fill="none" xmlns="http://www.w3.org/2000/svg">
<rect x="0.5" y="0.5" width="410" height="98" rx="4.5" fill="#FDFFFD" stroke="#C4C4C4"/>
<rect x="21" y="31" width="368" height="57" rx="4" fill="#B6D2FF"/>
<rect x="32" y="38" width="78" height="42" rx="3" fill="#3884FF"/>
<path d="M59.4473 64.3076C60.748 64.3076 61.7588 63.9121 62.4795 63.1123C63.2002 62.3213 63.5693 61.249 63.5693 59.9131V51.3965H61.4951V59.9131C61.4951 60.6865 61.3193 61.3105 60.9678 61.7676C60.6162 62.2246 60.1152 62.4531 59.4473 62.4531C58.7881 62.4531 58.2871 62.2246 57.9443 61.7588C57.5928 61.293 57.4258 60.6689 57.4258 59.8955H55.3604C55.3604 61.2314 55.7207 62.3037 56.4414 63.1035C57.1621 63.9121 58.1641 64.3076 59.4473 64.3076ZM74.9688 55.8086C74.9688 54.5254 74.5557 53.4619 73.7471 52.6357C72.9385 51.8096 71.9014 51.3965 70.6445 51.3965H66.0039V64H68.0693V60.2207H70.1084L72.4111 64H74.7666L72.2793 59.9307C73.0967 59.623 73.7471 59.1045 74.2393 58.3662C74.7227 57.6279 74.9688 56.7754 74.9688 55.8086ZM68.0693 53.251H70.5215C71.207 53.251 71.7695 53.4971 72.2178 53.9805C72.666 54.4639 72.8945 55.0703 72.8945 55.8086C72.8945 56.5469 72.666 57.1621 72.2178 57.6455C71.7695 58.1289 71.207 58.3662 70.5215 58.3662H68.0693V53.251ZM76.9551 64H84.2236V62.1455H79.0205V58.6738H84.2236V56.8193H79.0205V53.251H84.2236V51.3965H76.9551V64Z" fill="white"/>
<path d="M128.006 65.6162H131.126V61.0166H135.623V58.1162H131.126V53.4873H128.006V58.1162H123.494V61.0166H128.006V65.6162Z" fill="black"/>
<path d="M251.006 65.6162H254.126V61.0166H258.623V58.1162H254.126V53.4873H251.006V58.1162H246.494V61.0166H251.006V65.6162Z" fill="black"/>
<path d="M157.181 65.3076C158.868 65.3076 160.266 64.877 161.355 64.0156C162.445 63.1543 163.087 62.0469 163.28 60.6758H161.013C160.811 61.5547 160.38 62.2314 159.729 62.7236C159.07 63.2158 158.227 63.4531 157.198 63.4531C155.818 63.4531 154.737 63.0312 153.964 62.1699C153.19 61.3174 152.804 60.1572 152.804 58.6982C152.804 57.2393 153.19 56.0879 153.964 55.2354C154.737 54.3828 155.818 53.9521 157.198 53.9521C158.227 53.9521 159.07 54.1982 159.729 54.6816C160.38 55.1738 160.811 55.8506 161.013 56.7207H163.28C163.087 55.3584 162.445 54.251 161.355 53.3896C160.266 52.5283 158.877 52.0977 157.181 52.0977C155.836 52.0977 154.667 52.3877 153.674 52.9502C152.672 53.5127 151.916 54.2949 151.406 55.2881C150.888 56.2812 150.633 57.415 150.633 58.6982C150.633 59.9814 150.888 61.124 151.406 62.1172C151.916 63.1104 152.672 63.8926 153.674 64.4551C154.667 65.0264 155.836 65.3076 157.181 65.3076ZM169.151 65.2197C170.048 65.2197 170.839 65.0264 171.516 64.6309C172.192 64.2441 172.702 63.7168 173.054 63.0488C173.405 62.3809 173.581 61.6338 173.581 60.8076C173.581 59.9814 173.405 59.2432 173.054 58.5752C172.702 57.9072 172.192 57.3799 171.516 56.9844C170.839 56.5977 170.048 56.3955 169.151 56.3955C167.798 56.3955 166.726 56.8174 165.926 57.6523C165.126 58.4873 164.73 59.542 164.73 60.8076C164.73 62.082 165.126 63.1367 165.926 63.9717C166.726 64.8066 167.798 65.2197 169.151 65.2197ZM169.151 63.4707C168.378 63.4707 167.771 63.2246 167.341 62.7324C166.901 62.2402 166.69 61.5986 166.69 60.8076C166.69 60.0254 166.901 59.3838 167.341 58.8916C167.771 58.3994 168.378 58.1445 169.151 58.1445C169.925 58.1445 170.522 58.3994 170.962 58.8916C171.401 59.3838 171.621 60.0254 171.621 60.8076C171.621 61.5986 171.401 62.2402 170.962 62.7324C170.522 63.2246 169.925 63.4707 169.151 63.4707ZM175.462 65H177.431V60.5527C177.431 60.0781 177.475 59.665 177.562 59.3311C177.65 58.9971 177.782 58.7422 177.958 58.5664C178.125 58.3906 178.31 58.2588 178.521 58.1885C178.723 58.1182 178.96 58.0742 179.224 58.0742C179.742 58.0742 180.129 58.2324 180.375 58.5488C180.621 58.8652 180.753 59.3662 180.753 60.0518V65H182.722V60.5527C182.722 60.0781 182.766 59.665 182.854 59.3311C182.941 58.9971 183.064 58.7422 183.231 58.5664C183.398 58.3906 183.583 58.2588 183.785 58.1885C183.979 58.1182 184.216 58.0742 184.479 58.0742C185.525 58.0742 186.053 58.7422 186.053 60.0693V65H188.013V59.6914C188.013 57.4941 187.002 56.3955 184.989 56.3955C184.409 56.3955 183.882 56.5361 183.416 56.8174C182.95 57.0986 182.616 57.459 182.414 57.8896C181.975 56.8965 181.096 56.3955 179.769 56.3955C179.232 56.3955 178.758 56.5273 178.336 56.791C177.914 57.0547 177.615 57.3799 177.431 57.7842V56.6152H175.462V65ZM195.211 56.3955C194.613 56.3955 194.06 56.5273 193.55 56.7734C193.031 57.0195 192.645 57.3447 192.39 57.749V56.6152H190.438V68.7793H192.39V63.8662C192.645 64.2705 193.022 64.6045 193.515 64.8506C194.007 65.0967 194.525 65.2197 195.088 65.2197C196.301 65.2197 197.285 64.8154 198.059 63.9893C198.823 63.1631 199.21 62.1084 199.21 60.8076C199.21 59.4893 198.841 58.417 198.103 57.6084C197.364 56.7998 196.406 56.3955 195.211 56.3955ZM194.798 63.4707C194.06 63.4707 193.453 63.2246 192.996 62.7324C192.539 62.2402 192.311 61.5986 192.311 60.8076C192.311 60.0166 192.539 59.375 192.996 58.8828C193.453 58.3906 194.06 58.1445 194.798 58.1445C195.519 58.1445 196.107 58.3994 196.564 58.8916C197.021 59.3838 197.25 60.0254 197.25 60.8076C197.25 61.5986 197.021 62.2402 196.564 62.7324C196.107 63.2246 195.519 63.4707 194.798 63.4707ZM202.066 55.4023C202.488 55.4023 202.84 55.2705 203.112 54.9893C203.385 54.708 203.525 54.3652 203.525 53.9521C203.525 53.5479 203.385 53.1963 203.112 52.915C202.831 52.6338 202.488 52.4932 202.066 52.4932C201.645 52.4932 201.293 52.6338 201.021 52.915C200.739 53.1963 200.607 53.5479 200.607 53.9521C200.607 54.3652 200.739 54.708 201.012 54.9893C201.284 55.2705 201.636 55.4023 202.066 55.4023ZM201.091 65H203.042V56.6152H201.091V65ZM205.556 65H207.524V52.3965H205.556V65ZM217.641 60.377C217.641 59.1992 217.263 58.2412 216.524 57.5029C215.786 56.7646 214.819 56.3955 213.624 56.3955C212.341 56.3955 211.321 56.7998 210.557 57.5996C209.792 58.3994 209.414 59.4717 209.414 60.8076C209.414 62.1699 209.792 63.2422 210.557 64.0332C211.321 64.8242 212.367 65.2197 213.694 65.2197C214.696 65.2197 215.549 64.9736 216.27 64.4727C216.99 63.9805 217.412 63.3389 217.544 62.5479H215.566C215.25 63.1895 214.626 63.5059 213.694 63.5059C212.974 63.5059 212.402 63.3301 211.998 62.9785C211.594 62.627 211.374 62.126 211.356 61.458H217.579C217.614 60.9131 217.641 60.5527 217.641 60.377ZM211.356 59.9639C211.365 59.3662 211.567 58.874 211.963 58.5049C212.358 58.1357 212.903 57.9424 213.589 57.9424C214.257 57.9424 214.775 58.1182 215.145 58.4697C215.505 58.8213 215.689 59.3135 215.707 59.9639H211.356ZM219.53 65H221.499V61.291C221.499 60.3506 221.692 59.6211 222.088 59.1113C222.475 58.6016 223.028 58.3379 223.731 58.3379C224.039 58.3379 224.294 58.3555 224.505 58.373V56.5801C224.285 56.5273 224.03 56.501 223.731 56.501C223.23 56.501 222.773 56.6504 222.352 56.9492C221.93 57.248 221.64 57.6699 221.499 58.2324V56.6152H219.53V65ZM228.882 65.2197C229.901 65.2197 230.701 64.9912 231.299 64.5254C231.896 64.0684 232.195 63.4268 232.195 62.6094C232.195 62.0293 232.02 61.5283 231.677 61.1064C231.325 60.6846 230.851 60.3857 230.253 60.21L228.574 59.7266C228.196 59.6211 227.933 59.498 227.774 59.3398C227.616 59.1816 227.537 58.9883 227.537 58.751C227.537 58.5049 227.643 58.2939 227.871 58.1357C228.1 57.9775 228.39 57.8896 228.741 57.8896C229.198 57.8896 229.55 57.9951 229.813 58.1885C230.068 58.3818 230.2 58.6543 230.2 59.0059H232.125C232.125 58.1973 231.826 57.5645 231.237 57.0986C230.64 56.6328 229.831 56.3955 228.812 56.3955C227.871 56.3955 227.098 56.6328 226.491 57.0986C225.885 57.5645 225.586 58.1533 225.586 58.8652C225.586 59.4629 225.744 59.9639 226.061 60.3682C226.377 60.7725 226.834 61.0625 227.423 61.2207L229.102 61.6689C229.523 61.7832 229.813 61.915 229.972 62.0645C230.121 62.2227 230.2 62.416 230.2 62.6621C230.2 62.9609 230.086 63.207 229.866 63.3828C229.646 63.5586 229.356 63.6465 228.987 63.6465C228.478 63.6465 228.073 63.541 227.757 63.3125C227.44 63.084 227.282 62.7939 227.282 62.4248H225.322C225.322 63.2334 225.656 63.9014 226.333 64.4287C227.001 64.9561 227.854 65.2197 228.882 65.2197Z" fill="black"/>
<path d="M274.354 65H278.616C279.425 65 280.181 64.8945 280.875 64.666C281.561 64.4375 282.158 64.1299 282.659 63.7256C283.151 63.3301 283.582 62.8643 283.934 62.3369C284.285 61.8096 284.54 61.2295 284.716 60.6143C284.883 59.999 284.971 59.3662 284.971 58.6982C284.971 58.0391 284.883 57.3975 284.716 56.7822C284.54 56.167 284.285 55.5957 283.934 55.0684C283.582 54.541 283.151 54.0752 282.659 53.6709C282.158 53.2754 281.561 52.9678 280.875 52.7393C280.181 52.5107 279.425 52.3965 278.616 52.3965H274.354V65ZM276.419 63.1455V54.251H278.432C279.17 54.251 279.829 54.3828 280.409 54.6289C280.989 54.875 281.446 55.2178 281.798 55.6396C282.141 56.0615 282.404 56.5361 282.58 57.0547C282.756 57.5732 282.844 58.1182 282.844 58.6982C282.844 59.2783 282.756 59.832 282.58 60.3506C282.404 60.8691 282.141 61.3438 281.798 61.7656C281.446 62.1875 280.989 62.5303 280.409 62.7764C279.829 63.0225 279.17 63.1455 278.432 63.1455H276.419ZM294.551 60.377C294.551 59.1992 294.173 58.2412 293.435 57.5029C292.696 56.7646 291.729 56.3955 290.534 56.3955C289.251 56.3955 288.231 56.7998 287.467 57.5996C286.702 58.3994 286.324 59.4717 286.324 60.8076C286.324 62.1699 286.702 63.2422 287.467 64.0332C288.231 64.8242 289.277 65.2197 290.604 65.2197C291.606 65.2197 292.459 64.9736 293.18 64.4727C293.9 63.9805 294.322 63.3389 294.454 62.5479H292.477C292.16 63.1895 291.536 63.5059 290.604 63.5059C289.884 63.5059 289.312 63.3301 288.908 62.9785C288.504 62.627 288.284 62.126 288.267 61.458H294.489C294.524 60.9131 294.551 60.5527 294.551 60.377ZM288.267 59.9639C288.275 59.3662 288.478 58.874 288.873 58.5049C289.269 58.1357 289.813 57.9424 290.499 57.9424C291.167 57.9424 291.686 58.1182 292.055 58.4697C292.415 58.8213 292.6 59.3135 292.617 59.9639H288.267ZM301.213 56.3955C300.615 56.3955 300.062 56.5273 299.552 56.7734C299.033 57.0195 298.646 57.3447 298.392 57.749V52.3965H296.44V65H298.392V63.8662C298.646 64.2705 299.024 64.6045 299.517 64.8506C300.009 65.0967 300.527 65.2197 301.09 65.2197C302.303 65.2197 303.287 64.8154 304.061 63.9893C304.825 63.1631 305.212 62.1084 305.212 60.8076C305.212 59.4893 304.843 58.417 304.104 57.6084C303.366 56.7998 302.408 56.3955 301.213 56.3955ZM300.8 63.4707C300.062 63.4707 299.455 63.2246 298.998 62.7324C298.541 62.2402 298.312 61.5986 298.312 60.8076C298.312 60.0166 298.541 59.375 298.998 58.8828C299.455 58.3906 300.062 58.1445 300.8 58.1445C301.521 58.1445 302.109 58.3994 302.566 58.8916C303.023 59.3838 303.252 60.0254 303.252 60.8076C303.252 61.5986 303.023 62.2402 302.566 62.7324C302.109 63.2246 301.521 63.4707 300.8 63.4707ZM310.116 65.2197C311.329 65.2197 312.19 64.7627 312.709 63.8311V65H314.678V56.6152H312.709V61.3438C312.709 62.0029 312.542 62.5303 312.217 62.9346C311.892 63.3389 311.382 63.541 310.679 63.541C310.063 63.541 309.624 63.3652 309.36 63.0049C309.097 62.6445 308.965 62.1084 308.965 61.3965V56.6152H307.005V61.8887C307.005 62.9785 307.286 63.8135 307.849 64.376C308.411 64.9385 309.167 65.2197 310.116 65.2197ZM323.361 56.6152V57.749C323.106 57.3271 322.746 57.002 322.28 56.7559C321.806 56.5186 321.296 56.3955 320.733 56.3955C319.907 56.3955 319.178 56.5977 318.536 56.9844C317.895 57.3799 317.402 57.9072 317.068 58.5752C316.726 59.2432 316.559 59.9902 316.559 60.8076C316.559 61.6426 316.717 62.3896 317.033 63.0488C317.35 63.708 317.824 64.2354 318.457 64.6309C319.09 65.0264 319.828 65.2197 320.681 65.2197C321.208 65.2197 321.727 65.0967 322.236 64.8506C322.737 64.6045 323.115 64.2793 323.361 63.8662V64.7803C323.361 65.7031 323.159 66.3623 322.755 66.7666C322.351 67.1709 321.735 67.373 320.909 67.373C320.25 67.373 319.74 67.25 319.371 67.0039C319.002 66.7578 318.773 66.4062 318.694 65.958H316.646C316.664 66.4238 316.787 66.8545 317.024 67.25C317.253 67.6455 317.569 67.9795 317.974 68.2432C318.721 68.7529 319.705 68.999 320.927 68.999C322.175 68.999 323.142 68.7529 323.81 68.2607C324.812 67.5312 325.321 66.3271 325.321 64.6396V56.6152H323.361ZM320.962 63.4707C320.224 63.4707 319.635 63.2246 319.187 62.7236C318.738 62.2227 318.519 61.5811 318.519 60.8076C318.519 60.0342 318.738 59.4014 319.187 58.9004C319.635 58.3994 320.224 58.1445 320.962 58.1445C321.735 58.1445 322.342 58.3994 322.781 58.9092C323.221 59.4189 323.449 60.0518 323.449 60.8076C323.449 61.5635 323.221 62.1963 322.781 62.7061C322.342 63.2158 321.735 63.4707 320.962 63.4707ZM334.014 56.6152V57.749C333.759 57.3271 333.398 57.002 332.933 56.7559C332.458 56.5186 331.948 56.3955 331.386 56.3955C330.56 56.3955 329.83 56.5977 329.188 56.9844C328.547 57.3799 328.055 57.9072 327.721 58.5752C327.378 59.2432 327.211 59.9902 327.211 60.8076C327.211 61.6426 327.369 62.3896 327.686 63.0488C328.002 63.708 328.477 64.2354 329.109 64.6309C329.742 65.0264 330.48 65.2197 331.333 65.2197C331.86 65.2197 332.379 65.0967 332.889 64.8506C333.39 64.6045 333.768 64.2793 334.014 63.8662V64.7803C334.014 65.7031 333.812 66.3623 333.407 66.7666C333.003 67.1709 332.388 67.373 331.562 67.373C330.902 67.373 330.393 67.25 330.023 67.0039C329.654 66.7578 329.426 66.4062 329.347 65.958H327.299C327.316 66.4238 327.439 66.8545 327.677 67.25C327.905 67.6455 328.222 67.9795 328.626 68.2432C329.373 68.7529 330.357 68.999 331.579 68.999C332.827 68.999 333.794 68.7529 334.462 68.2607C335.464 67.5312 335.974 66.3271 335.974 64.6396V56.6152H334.014ZM331.614 63.4707C330.876 63.4707 330.287 63.2246 329.839 62.7236C329.391 62.2227 329.171 61.5811 329.171 60.8076C329.171 60.0342 329.391 59.4014 329.839 58.9004C330.287 58.3994 330.876 58.1445 331.614 58.1445C332.388 58.1445 332.994 58.3994 333.434 58.9092C333.873 59.4189 334.102 60.0518 334.102 60.8076C334.102 61.5635 333.873 62.1963 333.434 62.7061C332.994 63.2158 332.388 63.4707 331.614 63.4707ZM346.09 60.377C346.09 59.1992 345.712 58.2412 344.974 57.5029C344.235 56.7646 343.269 56.3955 342.073 56.3955C340.79 56.3955 339.771 56.7998 339.006 57.5996C338.241 58.3994 337.863 59.4717 337.863 60.8076C337.863 62.1699 338.241 63.2422 339.006 64.0332C339.771 64.8242 340.816 65.2197 342.144 65.2197C343.146 65.2197 343.998 64.9736 344.719 64.4727C345.439 63.9805 345.861 63.3389 345.993 62.5479H344.016C343.699 63.1895 343.075 63.5059 342.144 63.5059C341.423 63.5059 340.852 63.3301 340.447 62.9785C340.043 62.627 339.823 62.126 339.806 61.458H346.028C346.063 60.9131 346.09 60.5527 346.09 60.377ZM339.806 59.9639C339.814 59.3662 340.017 58.874 340.412 58.5049C340.808 58.1357 341.353 57.9424 342.038 57.9424C342.706 57.9424 343.225 58.1182 343.594 58.4697C343.954 58.8213 344.139 59.3135 344.156 59.9639H339.806ZM347.979 65H349.948V61.291C349.948 60.3506 350.142 59.6211 350.537 59.1113C350.924 58.6016 351.478 58.3379 352.181 58.3379C352.488 58.3379 352.743 58.3555 352.954 58.373V56.5801C352.734 56.5273 352.479 56.501 352.181 56.501C351.68 56.501 351.223 56.6504 350.801 56.9492C350.379 57.248 350.089 57.6699 349.948 58.2324V56.6152H347.979V65ZM357.331 65.2197C358.351 65.2197 359.15 64.9912 359.748 64.5254C360.346 64.0684 360.645 63.4268 360.645 62.6094C360.645 62.0293 360.469 61.5283 360.126 61.1064C359.774 60.6846 359.3 60.3857 358.702 60.21L357.023 59.7266C356.646 59.6211 356.382 59.498 356.224 59.3398C356.065 59.1816 355.986 58.9883 355.986 58.751C355.986 58.5049 356.092 58.2939 356.32 58.1357C356.549 57.9775 356.839 57.8896 357.19 57.8896C357.647 57.8896 357.999 57.9951 358.263 58.1885C358.518 58.3818 358.649 58.6543 358.649 59.0059H360.574C360.574 58.1973 360.275 57.5645 359.687 57.0986C359.089 56.6328 358.28 56.3955 357.261 56.3955C356.32 56.3955 355.547 56.6328 354.94 57.0986C354.334 57.5645 354.035 58.1533 354.035 58.8652C354.035 59.4629 354.193 59.9639 354.51 60.3682C354.826 60.7725 355.283 61.0625 355.872 61.2207L357.551 61.6689C357.973 61.7832 358.263 61.915 358.421 62.0645C358.57 62.2227 358.649 62.416 358.649 62.6621C358.649 62.9609 358.535 63.207 358.315 63.3828C358.096 63.5586 357.806 63.6465 357.437 63.6465C356.927 63.6465 356.522 63.541 356.206 63.3125C355.89 63.084 355.731 62.7939 355.731 62.4248H353.771C353.771 63.2334 354.105 63.9014 354.782 64.4287C355.45 64.9561 356.303 65.2197 357.331 65.2197ZM363.589 65.1406C364.011 65.1406 364.371 64.9912 364.67 64.6924C364.969 64.3936 365.118 64.0332 365.118 63.6113C365.118 63.1982 364.969 62.8467 364.67 62.5479C364.371 62.249 364.011 62.0996 363.589 62.0996C363.167 62.0996 362.807 62.249 362.517 62.5479C362.218 62.8467 362.077 63.1982 362.077 63.6113C362.077 64.0332 362.218 64.3936 362.517 64.6924C362.815 64.9912 363.167 65.1406 363.589 65.1406ZM368.792 65.1406C369.214 65.1406 369.574 64.9912 369.873 64.6924C370.172 64.3936 370.321 64.0332 370.321 63.6113C370.321 63.1982 370.172 62.8467 369.873 62.5479C369.574 62.249 369.214 62.0996 368.792 62.0996C368.37 62.0996 368.01 62.249 367.72 62.5479C367.421 62.8467 367.28 63.1982 367.28 63.6113C367.28 64.0332 367.421 64.3936 367.72 64.6924C368.019 64.9912 368.37 65.1406 368.792 65.1406ZM373.995 65.1406C374.417 65.1406 374.777 64.9912 375.076 64.6924C375.375 64.3936 375.524 64.0332 375.524 63.6113C375.524 63.1982 375.375 62.8467 375.076 62.5479C374.777 62.249 374.417 62.0996 373.995 62.0996C373.573 62.0996 373.213 62.249 372.923 62.5479C372.624 62.8467 372.483 63.1982 372.483 63.6113C372.483 64.0332 372.624 64.3936 372.923 64.6924C373.222 64.9912 373.573 65.1406 373.995 65.1406Z" fill="black"/>
<path d="M191.941 24.3418C193.387 24.3418 194.51 23.9023 195.311 23.0137C196.111 22.1348 196.521 20.9434 196.521 19.459V9.99609H194.217V19.459C194.217 20.3184 194.021 21.0117 193.631 21.5195C193.24 22.0273 192.684 22.2812 191.941 22.2812C191.209 22.2812 190.652 22.0273 190.271 21.5098C189.881 20.9922 189.695 20.2988 189.695 19.4395H187.4C187.4 20.9238 187.801 22.1152 188.602 23.0039C189.402 23.9023 190.516 24.3418 191.941 24.3418ZM199.227 24H203.963C204.861 24 205.701 23.8828 206.473 23.6289C207.234 23.375 207.898 23.0332 208.455 22.584C209.002 22.1445 209.48 21.627 209.871 21.041C210.262 20.4551 210.545 19.8105 210.74 19.127C210.926 18.4434 211.023 17.7402 211.023 16.998C211.023 16.2656 210.926 15.5527 210.74 14.8691C210.545 14.1855 210.262 13.5508 209.871 12.9648C209.48 12.3789 209.002 11.8613 208.455 11.4121C207.898 10.9727 207.234 10.6309 206.473 10.377C205.701 10.123 204.861 9.99609 203.963 9.99609H199.227V24ZM201.521 21.9395V12.0566H203.758C204.578 12.0566 205.311 12.2031 205.955 12.4766C206.6 12.75 207.107 13.1309 207.498 13.5996C207.879 14.0684 208.172 14.5957 208.367 15.1719C208.562 15.748 208.66 16.3535 208.66 16.998C208.66 17.6426 208.562 18.2578 208.367 18.834C208.172 19.4102 207.879 19.9375 207.498 20.4062C207.107 20.875 206.6 21.2559 205.955 21.5293C205.311 21.8027 204.578 21.9395 203.758 21.9395H201.521ZM223.553 9.99609H220.652L215.428 16.3242V9.99609H213.133V24H215.428V17.7207L220.633 24H223.553L217.527 16.9004L223.553 9.99609Z" fill="black"/>
</svg>