<svg xmlns="http://www.w3.org/2000/svg" width="240" height="60" fill="none" viewBox="0 0 240 60"><g clip-path="url(#clip0)"><path fill="#000" d="M77.2037 17.8783H82.4209V13.0176H77.2037V17.8783ZM72.6746 46.967H75.1697C79.4191 46.967 82.4209 43.9442 82.4209 39.691V20.4758H77.2037V39.2961C77.2037 41.1644 76.2056 42.1366 74.3531 42.1366H72.667V46.967H72.6746ZM103.116 20.4758L102.579 22.3138C100.825 20.7643 98.5637 19.918 96.2276 19.9366C90.4433 19.9366 86.1259 24.334 86.1259 30.2125C86.1259 36.0834 90.4358 40.5188 96.2276 40.5188C98.685 40.5188 100.825 39.653 102.473 38.172L102.934 39.9416H107.002V20.4758H103.116ZM96.6511 35.5442C95.9528 35.559 95.2588 35.4307 94.6115 35.1673C93.9642 34.9038 93.3771 34.5106 92.886 34.0117C92.395 33.5127 92.0103 32.9186 91.7554 32.2654C91.5006 31.6122 91.3809 30.9137 91.4036 30.2125C91.3776 29.5101 91.495 28.8098 91.7486 28.1548C92.0023 27.4997 92.3867 26.9037 92.8783 26.4035C93.3699 25.9033 93.9582 25.5095 94.6071 25.2463C95.2559 24.9832 95.9515 24.8562 96.6511 24.8733C97.3506 24.8562 98.0462 24.9832 98.6951 25.2463C99.3439 25.5095 99.9322 25.9033 100.424 26.4035C100.915 26.9037 101.3 27.4997 101.553 28.1548C101.807 28.8098 101.925 29.5101 101.899 30.2125C101.923 30.9143 101.805 31.6137 101.551 32.2679C101.297 32.9221 100.912 33.5172 100.421 34.0165C99.9295 34.5159 99.3415 34.909 98.6932 35.1717C98.0449 35.4344 97.3499 35.5612 96.6511 35.5442ZM124.688 20.4758L120.045 33.5239L115.335 20.4758H109.762L117.618 39.9416H122.435L130.071 20.4758H124.68H124.688ZM147.901 20.4758L147.364 22.3138C145.61 20.7643 143.349 19.918 141.013 19.9366C135.228 19.9366 130.911 24.334 130.911 30.2125C130.911 36.0834 135.228 40.5188 141.013 40.5188C143.47 40.5188 145.617 39.653 147.258 38.172L147.719 39.9416H151.787V20.4758H147.901V20.4758ZM141.436 35.5442C140.738 35.559 140.044 35.4307 139.396 35.1673C138.749 34.9038 138.162 34.5106 137.671 34.0117C137.18 33.5127 136.795 32.9186 136.54 32.2654C136.285 31.6122 136.166 30.9137 136.188 30.2125C136.162 29.5101 136.28 28.8098 136.534 28.1548C136.787 27.4997 137.172 26.9037 137.663 26.4035C138.155 25.9033 138.743 25.5095 139.392 25.2463C140.041 24.9832 140.736 24.8562 141.436 24.8733C142.135 24.8562 142.831 24.9832 143.48 25.2463C144.129 25.5095 144.717 25.9033 145.209 26.4035C145.7 26.9037 146.085 27.4997 146.338 28.1548C146.592 28.8098 146.709 29.5101 146.683 30.2125C146.708 30.9143 146.59 31.6137 146.336 32.2679C146.082 32.9221 145.697 33.5172 145.206 34.0165C144.714 34.5159 144.126 34.909 143.478 35.1717C142.83 35.4344 142.135 35.5612 141.436 35.5442ZM156.838 17.8783H162.01V13.0176H156.838V17.8783ZM156.838 39.9416H162.048V20.4758H156.831V39.9492L156.838 39.9416ZM173.866 40.5188C178.758 40.5188 181.964 37.9214 181.964 33.9568C181.964 29.2024 177.934 28.5492 174.796 27.972C172.792 27.6151 171.151 27.2885 171.151 25.9973C171.151 24.8733 172.119 24.1518 173.722 24.1518C175.537 24.1518 176.611 24.9113 176.648 26.4606H181.609C181.571 22.5644 178.508 19.9366 173.866 19.9366C169.223 19.9366 166.123 22.4961 166.123 26.172C166.123 30.7518 170.047 31.5796 173.117 32.1188C175.151 32.4454 176.822 32.8404 176.822 34.1695C176.822 35.4758 175.507 36.1594 174.078 36.1594C172.225 36.1594 170.902 35.2935 170.864 33.5619H165.798C165.798 37.7087 169.049 40.5188 173.866 40.5188V40.5188ZM195.045 35.2556C193.117 35.2556 192.05 34.1771 192.05 32.2935V24.729H197.298V20.4758H191.975V15.4328H190.977L183.378 23.5745V24.729H186.841V33.0226C186.841 37.3138 189.442 39.9416 193.691 39.9416H197.396V35.2556H195.052H195.045ZM200.958 17.8783H206.137V13.0176H200.958V17.8783V17.8783ZM200.958 39.9416H206.175V20.4758H200.958V39.9492V39.9416ZM220.133 40.5188C225.161 40.5188 229.123 37.1999 230.015 32.3011H224.768C223.876 34.3897 222.235 35.5442 220.133 35.5442C217.343 35.5442 215.173 33.2049 215.173 30.2125C215.173 27.1745 217.312 24.8733 220.133 24.8733C221.122 24.8601 222.093 25.1455 222.919 25.6925C223.746 26.2396 224.39 27.023 224.768 27.9416H229.947C229.017 23.1416 225.161 19.9366 220.163 19.9366C214.311 19.9366 209.88 24.334 209.88 30.1745C209.88 36.015 214.311 40.5188 220.133 40.5188Z"/><path fill="#3884FF" d="M39.5503 0.829683L60.0786 12.7355C61.0139 13.2788 61.7907 14.0595 62.3311 14.9993C62.8714 15.9391 63.1564 17.0051 63.1575 18.0904V41.902C63.1575 44.111 61.9896 46.16 60.0786 47.2645L39.5503 59.1703C38.6131 59.7139 37.5499 60 36.4676 60C35.3854 60 34.3222 59.7139 33.385 59.1703L12.8567 47.2645C11.9202 46.7206 11.1428 45.9387 10.6023 44.9974C10.0619 44.0561 9.77755 42.9886 9.77783 41.902V18.0904C9.77783 15.8814 10.9533 13.84 12.8567 12.7355L33.385 0.829683C34.3222 0.286148 35.3854 0 36.4676 0C37.5499 0 38.6131 0.286148 39.5503 0.829683ZM49.1433 18.7836L39.1029 12.9716C38.1674 12.4309 37.1071 12.1463 36.0278 12.1463C34.9485 12.1463 33.8882 12.4309 32.9527 12.9716L22.9123 18.7836C21.9744 19.3266 21.1954 20.108 20.6536 21.0494C20.1118 21.9907 19.8263 23.0588 19.8258 24.1461V35.7472C19.8258 37.9562 21.0013 40.0129 22.9123 41.1098L32.9527 46.9218C33.8882 47.4625 34.9485 47.7471 36.0278 47.7471C37.1071 47.7471 38.1674 47.4625 39.1029 46.9218L49.1433 41.1098C50.0812 40.5668 50.8602 39.7853 51.402 38.844C51.9438 37.9026 52.2293 36.8346 52.2298 35.7472V24.1461C52.2298 21.9371 51.0467 19.8805 49.1433 18.7836Z"/><ellipse cx="36.671" cy="29.939" fill="#000" rx="7.875" ry="7.894"/></g><defs><clipPath id="clip0"><rect width="224" height="60" fill="#fff" transform="translate(8)"/></clipPath></defs></svg>