<svg width="1213" height="1023" viewBox="0 0 1213 1023" fill="none" xmlns="http://www.w3.org/2000/svg">
<g filter="url(#filter0_d_1029_1339)">
<g clip-path="url(#clip0_1029_1339)">
<rect x="40" y="24" width="1133" height="943" rx="40" fill="url(#paint0_linear_1029_1339)"/>
<g filter="url(#filter1_d_1029_1339)">
<g clip-path="url(#clip1_1029_1339)">
<path d="M1205.22 189H211.781C202.513 189 195 196.516 195 205.788V1045.21C195 1054.48 202.513 1062 211.781 1062H1205.22C1214.49 1062 1222 1054.48 1222 1045.21V205.788C1222 196.516 1214.49 189 1205.22 189Z" fill="#F5F5F5"/>
<path d="M228.588 228.986C230.37 228.986 232.078 228.279 233.338 227.019C234.598 225.759 235.306 224.05 235.306 222.269C235.306 220.487 234.598 218.778 233.338 217.518C232.078 216.259 230.37 215.551 228.588 215.551C226.806 215.551 225.098 216.259 223.838 217.518C222.578 218.778 221.87 220.487 221.87 222.269C221.87 224.05 222.578 225.759 223.838 227.019C225.098 228.279 226.806 228.986 228.588 228.986ZM252.1 228.986C253.882 228.986 255.591 228.279 256.851 227.019C258.111 225.759 258.818 224.05 258.818 222.269C258.818 220.487 258.111 218.778 256.851 217.518C255.591 216.259 253.882 215.551 252.1 215.551C250.319 215.551 248.61 216.259 247.35 217.518C246.09 218.778 245.383 220.487 245.383 222.269C245.383 224.05 246.09 225.759 247.35 227.019C248.61 228.279 250.319 228.986 252.1 228.986V228.986ZM275.613 228.986C277.395 228.986 279.103 228.279 280.363 227.019C281.623 225.759 282.331 224.05 282.331 222.269C282.331 220.487 281.623 218.778 280.363 217.518C279.103 216.259 277.395 215.551 275.613 215.551C273.831 215.551 272.123 216.259 270.863 217.518C269.603 218.778 268.895 220.487 268.895 222.269C268.895 224.05 269.603 225.759 270.863 227.019C272.123 228.279 273.831 228.986 275.613 228.986V228.986Z" fill="#111111"/>
<path d="M194.999 270.973C194.999 261.698 202.518 254.179 211.794 254.179H1207.71C1216.99 254.179 1224.51 261.698 1224.51 270.973V1045.21C1224.51 1054.48 1216.99 1062 1207.71 1062H211.794C202.518 1062 194.999 1054.48 194.999 1045.21V270.973Z" fill="#0D1117"/>
<path d="M194.999 274.332C194.999 263.202 204.023 254.179 215.153 254.179H1204.36C1215.49 254.179 1224.51 263.202 1224.51 274.332V1041.85C1224.51 1052.98 1215.49 1062 1204.36 1062H215.153C204.023 1062 194.999 1052.98 194.999 1041.85V274.332Z" fill="#0D1117"/>
<path d="M194.999 254.179H1224.51V355.202H194.999V254.179Z" fill="#0D1117"/>
<path fill-rule="evenodd" clip-rule="evenodd" d="M194.999 355.202V310.201H1224.51V355.202H194.999ZM194.999 354.284V310.201H1224.51V354.284H194.999Z" fill="#21262D"/>
<path fill-rule="evenodd" clip-rule="evenodd" d="M218.877 277.598C218.876 277.296 218.935 276.997 219.05 276.718C219.165 276.439 219.335 276.186 219.549 275.974C219.762 275.759 220.015 275.59 220.293 275.474C220.572 275.359 220.871 275.3 221.173 275.302H229.209C229.399 275.302 229.562 275.369 229.696 275.503C229.831 275.638 229.898 275.801 229.898 275.99V287.471C229.898 287.661 229.831 287.824 229.696 287.958C229.633 288.023 229.557 288.075 229.474 288.109C229.39 288.144 229.3 288.161 229.209 288.16H226.913C226.823 288.161 226.733 288.144 226.649 288.109C226.565 288.075 226.49 288.023 226.426 287.958C226.361 287.895 226.31 287.819 226.275 287.736C226.241 287.652 226.223 287.562 226.225 287.471C226.225 287.28 226.292 287.118 226.426 286.984C226.561 286.85 226.722 286.783 226.913 286.783H228.519V284.945H221.173C220.99 284.935 220.809 284.985 220.656 285.086C220.504 285.187 220.388 285.335 220.327 285.508C220.247 285.672 220.222 285.858 220.256 286.038C220.29 286.218 220.382 286.382 220.516 286.505C220.651 286.642 220.716 286.804 220.713 286.996C220.713 287.087 220.695 287.176 220.66 287.26C220.624 287.343 220.572 287.419 220.506 287.481C220.443 287.546 220.366 287.596 220.282 287.63C220.198 287.664 220.108 287.68 220.018 287.678C219.927 287.678 219.837 287.66 219.754 287.625C219.67 287.589 219.595 287.537 219.532 287.471C219.32 287.261 219.153 287.011 219.04 286.735C218.928 286.458 218.872 286.162 218.877 285.864V277.598V277.598ZM228.519 276.679V283.57H221.173C220.846 283.57 220.535 283.637 220.254 283.76V277.599C220.254 277.347 220.343 277.129 220.523 276.949C220.607 276.863 220.708 276.794 220.82 276.748C220.932 276.701 221.052 276.679 221.173 276.681H228.519V276.679ZM221.633 286.553V289.537C221.633 289.631 221.674 289.7 221.759 289.742C221.843 289.785 221.924 289.777 221.999 289.72L223.331 288.722C223.422 288.654 223.516 288.654 223.607 288.722L224.938 289.72C224.972 289.747 225.012 289.764 225.055 289.768C225.098 289.772 225.141 289.763 225.179 289.742C225.218 289.725 225.251 289.696 225.274 289.659C225.297 289.623 225.308 289.58 225.306 289.537V286.553C225.306 286.4 225.229 286.322 225.076 286.322H221.862C221.709 286.322 221.632 286.4 221.632 286.553H221.633Z" fill="#8B949E"/>
<path d="M217.04 353.363H298.776V355.201H217.04V353.363Z" fill="#F78166"/>
<path fill-rule="evenodd" clip-rule="evenodd" d="M236.069 327.851C236.132 327.789 236.208 327.741 236.291 327.709C236.374 327.678 236.462 327.663 236.551 327.666C236.735 327.669 236.895 327.736 237.026 327.867C237.089 327.929 237.14 328.003 237.175 328.085C237.209 328.166 237.227 328.254 237.227 328.343C237.23 328.431 237.215 328.52 237.184 328.602C237.152 328.685 237.104 328.761 237.043 328.825L233.627 332.239L237.043 335.655C237.185 335.789 237.259 335.952 237.261 336.147C237.264 336.24 237.248 336.332 237.213 336.418C237.178 336.504 237.126 336.581 237.059 336.646C236.995 336.712 236.917 336.765 236.831 336.799C236.745 336.834 236.653 336.851 236.561 336.847C236.468 336.848 236.376 336.828 236.291 336.791C236.207 336.753 236.131 336.698 236.069 336.629L232.165 332.726C232.1 332.663 232.049 332.587 232.014 332.503C231.98 332.42 231.962 332.33 231.964 332.239C231.964 332.049 232.031 331.886 232.165 331.752L236.069 327.849V327.851ZM242.094 327.851C242.032 327.782 241.956 327.727 241.872 327.689C241.787 327.652 241.695 327.632 241.602 327.632C241.51 327.629 241.418 327.645 241.332 327.68C241.246 327.715 241.168 327.767 241.104 327.834C241.037 327.898 240.985 327.976 240.95 328.062C240.915 328.148 240.899 328.24 240.902 328.333C240.902 328.425 240.921 328.517 240.959 328.602C240.997 328.686 241.052 328.762 241.12 328.825L244.536 332.241L241.12 335.657C241.052 335.719 240.997 335.795 240.959 335.88C240.921 335.964 240.902 336.056 240.902 336.149C240.899 336.241 240.915 336.334 240.95 336.42C240.985 336.505 241.037 336.583 241.104 336.648C241.168 336.714 241.246 336.766 241.332 336.801C241.418 336.836 241.51 336.852 241.602 336.849C241.695 336.849 241.787 336.83 241.872 336.792C241.956 336.755 242.032 336.7 242.094 336.631L245.998 332.728C246.132 332.593 246.199 332.43 246.199 332.241C246.199 332.051 246.132 331.888 245.998 331.754L242.094 327.851V327.851Z" fill="#C9D1D9"/>
<path d="M320.818 333.618C320.999 333.618 321.178 333.583 321.345 333.514C321.512 333.445 321.664 333.343 321.792 333.215C321.92 333.087 322.022 332.935 322.091 332.768C322.16 332.601 322.196 332.421 322.195 332.24C322.195 332.059 322.16 331.88 322.091 331.713C322.022 331.546 321.92 331.394 321.792 331.266C321.664 331.138 321.512 331.036 321.345 330.967C321.178 330.898 320.999 330.862 320.818 330.863C320.637 330.863 320.457 330.898 320.29 330.967C320.123 331.036 319.971 331.138 319.844 331.266C319.715 331.394 319.613 331.546 319.544 331.713C319.475 331.88 319.44 332.059 319.44 332.24C319.44 332.421 319.475 332.601 319.544 332.768C319.613 332.935 319.715 333.087 319.844 333.215C319.971 333.343 320.123 333.445 320.29 333.514C320.457 333.583 320.637 333.618 320.818 333.618V333.618Z" fill="#484F58"/>
<path fill-rule="evenodd" clip-rule="evenodd" d="M320.817 324.895C319.364 324.894 317.943 325.325 316.736 326.134C315.527 326.94 314.584 328.088 314.029 329.431C313.472 330.773 313.327 332.251 313.612 333.676C313.8 334.623 314.172 335.523 314.708 336.326C315.244 337.128 315.933 337.817 316.736 338.352C317.741 339.024 318.895 339.437 320.097 339.555C321.3 339.674 322.513 339.494 323.629 339.031C324.521 338.662 325.331 338.121 326.014 337.439C326.696 336.756 327.237 335.946 327.606 335.054C327.976 334.162 328.166 333.207 328.166 332.242C328.166 331.277 327.976 330.322 327.606 329.431C327.237 328.539 326.696 327.728 326.014 327.046C325.331 326.363 324.521 325.822 323.629 325.454C322.738 325.084 321.782 324.894 320.817 324.895V324.895ZM314.849 332.242C314.847 331.061 315.197 329.906 315.855 328.925C316.289 328.273 316.849 327.713 317.501 327.278C318.153 326.842 318.884 326.54 319.653 326.388C320.616 326.195 321.612 326.244 322.552 326.529C323.491 326.814 324.346 327.327 325.04 328.022C325.594 328.576 326.034 329.233 326.335 329.958C326.635 330.682 326.79 331.458 326.79 332.242C326.79 333.026 326.635 333.802 326.335 334.527C326.034 335.251 325.594 335.909 325.04 336.463C324.486 337.018 323.828 337.458 323.103 337.759C322.379 338.059 321.602 338.214 320.818 338.214C320.034 338.214 319.257 338.059 318.533 337.759C317.809 337.458 317.151 337.018 316.597 336.463C316.042 335.909 315.602 335.251 315.302 334.527C315.002 333.803 314.848 333.026 314.849 332.242ZM438.534 327.718L440.734 325.518C440.765 325.483 440.806 325.46 440.851 325.45C440.896 325.441 440.943 325.447 440.985 325.467C441.028 325.483 441.065 325.512 441.09 325.55C441.115 325.588 441.128 325.633 441.126 325.679V330.079C441.128 330.125 441.116 330.171 441.091 330.209C441.065 330.248 441.028 330.277 440.985 330.292C440.943 330.312 440.896 330.318 440.851 330.309C440.806 330.3 440.765 330.276 440.734 330.242L438.534 328.042C438.425 327.934 438.425 327.825 438.534 327.718ZM435.387 327.19C435.195 327.19 435.034 327.258 434.9 327.392C434.835 327.455 434.783 327.531 434.748 327.614C434.713 327.698 434.696 327.788 434.697 327.879C434.697 328.07 434.766 328.232 434.9 328.366C435.034 328.5 435.195 328.568 435.387 328.568C435.577 328.568 435.74 328.5 435.874 328.366C436.008 328.232 436.076 328.07 436.076 327.879C436.076 327.689 436.008 327.526 435.874 327.392C435.811 327.327 435.735 327.275 435.651 327.241C435.568 327.206 435.478 327.189 435.387 327.19V327.19ZM433.319 327.879C433.318 327.371 433.505 326.881 433.845 326.503C434.097 326.22 434.422 326.012 434.785 325.902C435.148 325.791 435.534 325.784 435.901 325.879C436.393 326.004 436.821 326.307 437.102 326.73C437.388 327.15 437.506 327.662 437.433 328.164C437.381 328.539 437.227 328.893 436.987 329.186C436.748 329.479 436.433 329.701 436.076 329.827V334.656C436.385 334.765 436.652 334.938 436.878 335.176C437.217 335.527 437.42 335.987 437.451 336.474C437.482 336.961 437.339 337.443 437.048 337.835C436.853 338.098 436.61 338.303 436.317 338.451C436.029 338.598 435.71 338.674 435.387 338.673C435.063 338.674 434.743 338.599 434.454 338.453C434.165 338.307 433.915 338.095 433.724 337.833C433.53 337.574 433.401 337.273 433.346 336.954C433.292 336.635 433.314 336.308 433.41 335.999C433.506 335.687 433.667 335.411 433.894 335.176C434.121 334.938 434.388 334.765 434.697 334.656V329.829C434.292 329.689 433.943 329.424 433.699 329.073C433.449 328.726 433.316 328.308 433.319 327.881V327.879ZM442.044 327.19H441.126V328.568H442.044C442.298 328.568 442.515 328.658 442.694 328.836C442.874 329.018 442.963 329.234 442.963 329.488V334.656C442.657 334.763 442.382 334.941 442.159 335.176C441.933 335.409 441.766 335.691 441.672 336.001C441.577 336.31 441.557 336.638 441.614 336.956C441.695 337.438 441.945 337.874 442.318 338.189C442.691 338.504 443.164 338.676 443.652 338.675C443.979 338.673 444.29 338.599 444.582 338.451C444.876 338.303 445.119 338.098 445.314 337.835C445.509 337.571 445.633 337.277 445.689 336.955C445.745 336.636 445.724 336.308 445.628 335.999C445.535 335.69 445.369 335.408 445.145 335.176C444.922 334.941 444.646 334.763 444.34 334.656V329.488C444.34 329.182 444.283 328.89 444.165 328.608C444.051 328.328 443.883 328.075 443.669 327.861C443.456 327.648 443.202 327.479 442.923 327.365C442.644 327.25 442.346 327.191 442.044 327.192V327.19ZM442.963 336.605C442.963 336.414 443.03 336.253 443.165 336.118C443.299 335.984 443.462 335.917 443.652 335.917C443.841 335.917 444.004 335.984 444.139 336.118C444.273 336.253 444.34 336.414 444.34 336.605C444.34 336.795 444.273 336.958 444.139 337.092C444.075 337.158 444 337.209 443.916 337.244C443.832 337.278 443.742 337.295 443.652 337.294C443.561 337.295 443.471 337.278 443.387 337.244C443.303 337.209 443.228 337.158 443.165 337.092C443.099 337.029 443.048 336.954 443.013 336.87C442.979 336.786 442.962 336.696 442.963 336.605ZM435.387 335.917C435.195 335.917 435.034 335.984 434.9 336.118C434.835 336.181 434.783 336.257 434.748 336.341C434.713 336.425 434.696 336.515 434.697 336.605C434.697 336.795 434.766 336.958 434.9 337.092C435.034 337.227 435.195 337.294 435.387 337.294C435.577 337.294 435.74 337.227 435.874 337.092C436.008 336.958 436.076 336.795 436.076 336.605C436.076 336.414 436.008 336.253 435.874 336.118C435.811 336.053 435.735 336.002 435.651 335.967C435.568 335.933 435.478 335.915 435.387 335.917ZM592.2 327.42C592.2 327.268 592.277 327.19 592.43 327.19H600.236C600.389 327.19 600.466 327.268 600.466 327.42V332.471C600.466 332.623 600.389 332.701 600.236 332.701H597.022C596.832 332.701 596.669 332.768 596.535 332.902L594.037 335.401V333.389C594.037 333.199 593.97 333.037 593.836 332.902C593.773 332.837 593.697 332.786 593.613 332.751C593.529 332.716 593.439 332.699 593.349 332.701H592.43C592.277 332.701 592.2 332.623 592.2 332.471V327.42V327.42ZM592.43 325.813C592.219 325.812 592.009 325.853 591.814 325.934C591.619 326.014 591.442 326.133 591.293 326.283C590.993 326.586 590.824 326.994 590.823 327.42V332.471C590.823 333.359 591.543 334.078 592.43 334.078H592.66V335.495C592.66 335.766 592.736 336.014 592.885 336.239C593.036 336.463 593.236 336.627 593.486 336.731C593.73 336.834 594 336.861 594.259 336.807C594.519 336.757 594.758 336.629 594.944 336.441L597.307 334.078H600.236C600.447 334.079 600.657 334.038 600.852 333.957C601.047 333.876 601.224 333.758 601.373 333.608C601.523 333.459 601.641 333.282 601.721 333.087C601.803 332.892 601.844 332.682 601.843 332.471V327.42C601.844 327.209 601.802 327 601.721 326.806C601.601 326.511 601.396 326.258 601.131 326.082C600.866 325.905 600.555 325.812 600.236 325.815H592.43V325.813ZM604.139 329.256C604.139 329.105 604.064 329.028 603.909 329.028H603.451C603.36 329.029 603.27 329.012 603.186 328.977C603.103 328.943 603.027 328.891 602.964 328.826C602.899 328.763 602.847 328.687 602.812 328.604C602.778 328.52 602.761 328.43 602.762 328.339C602.762 328.148 602.829 327.986 602.964 327.852C603.098 327.718 603.261 327.651 603.451 327.651H603.909C604.798 327.651 605.516 328.369 605.516 329.256V334.308C605.516 334.734 605.347 335.143 605.046 335.444C604.744 335.746 604.335 335.915 603.909 335.915H603.681V337.333C603.682 337.597 603.603 337.856 603.454 338.075C603.309 338.297 603.1 338.469 602.855 338.569C602.611 338.671 602.341 338.698 602.082 338.644C601.822 338.594 601.583 338.467 601.397 338.278L599.291 336.172C599.222 336.11 599.166 336.034 599.128 335.949C599.091 335.865 599.071 335.773 599.071 335.68C599.067 335.587 599.084 335.495 599.119 335.409C599.154 335.323 599.207 335.245 599.274 335.181C599.338 335.115 599.416 335.062 599.502 335.028C599.588 334.993 599.68 334.977 599.773 334.98C599.865 334.98 599.957 334.999 600.042 335.037C600.127 335.074 600.203 335.129 600.265 335.198L602.304 337.237V335.227C602.304 335.037 602.371 334.874 602.505 334.74C602.64 334.605 602.801 334.538 602.992 334.538H603.909C604.064 334.538 604.139 334.461 604.139 334.308V329.256V329.256ZM716.183 332.242C716.184 331.459 716.338 330.683 716.636 329.958C717.09 328.868 717.856 327.936 718.836 327.279C719.487 326.842 720.219 326.539 720.988 326.388C721.757 326.234 722.548 326.233 723.317 326.386C724.086 326.539 724.817 326.842 725.469 327.278C726.452 327.933 727.218 328.865 727.67 329.957C728.121 331.048 728.239 332.25 728.006 333.408C727.855 334.176 727.552 334.907 727.116 335.557C726.459 336.539 725.527 337.304 724.436 337.758C723.712 338.059 722.936 338.213 722.152 338.211C721.368 338.212 720.592 338.058 719.868 337.758C719.143 337.458 718.485 337.019 717.931 336.464C717.097 335.629 716.529 334.565 716.297 333.408C716.221 333.024 716.183 332.634 716.183 332.242V332.242ZM722.152 324.895C720.699 324.893 719.278 325.325 718.071 326.134C717.268 326.669 716.579 327.358 716.044 328.161C715.506 328.963 715.134 329.863 714.947 330.81C714.758 331.756 714.757 332.73 714.946 333.677C715.134 334.623 715.507 335.523 716.044 336.325C716.578 337.128 717.268 337.816 718.071 338.35C719.279 339.157 720.699 339.588 722.152 339.59C723.36 339.591 724.55 339.293 725.616 338.724C726.682 338.154 727.591 337.33 728.262 336.325C728.797 335.522 729.169 334.621 729.358 333.675C729.547 332.729 729.547 331.755 729.359 330.809C729.171 329.863 728.798 328.963 728.262 328.161C727.725 327.359 727.036 326.671 726.235 326.134C725.433 325.597 724.533 325.224 723.586 325.037C723.114 324.943 722.633 324.895 722.152 324.895V324.895ZM720.664 329.696C720.629 329.673 720.589 329.661 720.548 329.661C720.507 329.66 720.467 329.671 720.432 329.693C720.395 329.711 720.364 329.74 720.344 329.776C720.323 329.812 720.313 329.853 720.316 329.894V334.592C720.316 334.682 720.355 334.748 720.432 334.793C720.467 334.815 720.507 334.826 720.548 334.825C720.589 334.825 720.629 334.812 720.664 334.79L724.58 332.439C724.615 332.419 724.644 332.391 724.663 332.356C724.683 332.321 724.692 332.282 724.691 332.242C724.692 332.202 724.683 332.163 724.663 332.128C724.644 332.094 724.615 332.065 724.58 332.046L720.664 329.694V329.696ZM812.843 324.895C812.632 324.893 812.422 324.935 812.227 325.015C812.032 325.096 811.855 325.215 811.706 325.365C811.556 325.514 811.437 325.691 811.357 325.886C811.276 326.081 811.235 326.291 811.236 326.502V337.984C811.236 338.871 811.956 339.592 812.843 339.592H824.322C824.533 339.592 824.743 339.551 824.938 339.471C825.133 339.391 825.311 339.272 825.46 339.123C825.61 338.973 825.728 338.796 825.809 338.6C825.889 338.405 825.93 338.196 825.929 337.984V326.503C825.929 326.186 825.835 325.875 825.658 325.611C825.482 325.347 825.232 325.141 824.938 325.019C824.743 324.938 824.533 324.896 824.322 324.896H812.843V324.895ZM812.613 326.502C812.613 326.351 812.69 326.273 812.843 326.273H824.322C824.476 326.273 824.552 326.349 824.552 326.502V337.984C824.552 338.135 824.476 338.213 824.322 338.213H812.843C812.69 338.213 812.613 338.137 812.613 337.984V326.503V326.502ZM822.026 327.651C821.836 327.651 821.673 327.718 821.539 327.852C821.474 327.915 821.422 327.991 821.388 328.075C821.353 328.158 821.336 328.248 821.338 328.339V335.227C821.338 335.418 821.405 335.579 821.539 335.714C821.673 335.848 821.836 335.915 822.026 335.915C822.218 335.915 822.379 335.848 822.513 335.714C822.648 335.579 822.715 335.416 822.715 335.227V328.339C822.715 328.149 822.648 327.986 822.513 327.852C822.45 327.787 822.374 327.735 822.291 327.701C822.207 327.666 822.117 327.649 822.026 327.651V327.651ZM814.45 328.339C814.45 328.149 814.517 327.986 814.652 327.852C814.786 327.718 814.949 327.651 815.139 327.651C815.328 327.651 815.491 327.718 815.626 327.852C815.76 327.986 815.827 328.149 815.827 328.339V333.391C815.827 333.581 815.76 333.744 815.626 333.878C815.563 333.943 815.487 333.995 815.403 334.029C815.319 334.064 815.229 334.081 815.139 334.08C815.048 334.081 814.958 334.064 814.874 334.029C814.79 333.995 814.715 333.943 814.652 333.878C814.586 333.815 814.535 333.739 814.5 333.655C814.466 333.572 814.449 333.482 814.45 333.391V328.339ZM818.583 327.651C818.392 327.651 818.231 327.718 818.096 327.852C818.031 327.915 817.98 327.991 817.945 328.075C817.91 328.158 817.893 328.248 817.895 328.339V331.554C817.895 331.743 817.962 331.906 818.096 332.041C818.231 332.175 818.392 332.242 818.583 332.242C818.773 332.242 818.936 332.175 819.07 332.041C819.205 331.906 819.272 331.743 819.272 331.554V328.339C819.272 328.149 819.205 327.986 819.07 327.852C819.007 327.787 818.931 327.736 818.848 327.701C818.764 327.666 818.674 327.649 818.583 327.651V327.651ZM918.197 325.017C918.515 324.913 918.858 324.913 919.176 325.017L923.998 326.561C924.324 326.661 924.607 326.866 924.806 327.143C925.009 327.417 925.118 327.75 925.115 328.091V331.324C925.115 332.761 924.821 334.246 923.919 335.623C923.016 337 921.544 338.206 919.297 339.163C919.105 339.249 918.897 339.293 918.687 339.293C918.476 339.293 918.268 339.249 918.076 339.163C915.829 338.206 914.358 337 913.454 335.623C912.552 334.246 912.259 332.761 912.259 331.324V328.091C912.259 327.741 912.361 327.425 912.568 327.143C912.766 326.866 913.05 326.661 913.375 326.561L918.197 325.015V325.017ZM918.758 326.329C918.712 326.314 918.663 326.314 918.617 326.329L913.795 327.872C913.689 327.906 913.636 327.98 913.636 328.091V331.324C913.636 332.571 913.888 333.772 914.606 334.867C915.327 335.966 916.555 337.017 918.615 337.897C918.638 337.907 918.662 337.912 918.687 337.912C918.711 337.912 918.736 337.907 918.758 337.897C920.819 337.019 922.046 335.966 922.767 334.867C923.486 333.772 923.738 332.573 923.738 331.324V328.091C923.738 327.98 923.684 327.906 923.578 327.872L918.756 326.33H918.758V326.329ZM919.605 334.538C919.605 334.79 919.515 335.008 919.336 335.188C919.252 335.275 919.151 335.343 919.039 335.389C918.928 335.436 918.808 335.459 918.688 335.457C918.567 335.459 918.447 335.436 918.335 335.39C918.223 335.343 918.122 335.275 918.038 335.188C917.951 335.104 917.882 335.003 917.836 334.891C917.79 334.779 917.767 334.659 917.769 334.538C917.769 334.284 917.858 334.068 918.038 333.888C918.122 333.801 918.223 333.733 918.335 333.687C918.447 333.64 918.567 333.617 918.688 333.619C918.941 333.619 919.156 333.708 919.336 333.888C919.515 334.068 919.605 334.284 919.605 334.538ZM919.376 329.258C919.376 329.066 919.309 328.905 919.175 328.771C919.111 328.706 919.036 328.654 918.952 328.62C918.868 328.585 918.778 328.568 918.688 328.569C918.496 328.569 918.335 328.636 918.2 328.771C918.135 328.834 918.083 328.909 918.048 328.993C918.013 329.077 917.996 329.167 917.997 329.258V332.012C917.997 332.202 918.064 332.365 918.2 332.499C918.335 332.634 918.496 332.701 918.688 332.701C918.877 332.701 919.039 332.634 919.175 332.499C919.309 332.365 919.376 332.202 919.376 332.012V329.258ZM1036.7 326.502C1036.7 326.312 1036.63 326.149 1036.5 326.015C1036.43 325.95 1036.36 325.898 1036.27 325.863C1036.19 325.829 1036.1 325.812 1036.01 325.813C1035.92 325.812 1035.83 325.829 1035.75 325.864C1035.66 325.898 1035.59 325.95 1035.52 326.015C1035.46 326.078 1035.41 326.154 1035.37 326.237C1035.34 326.321 1035.32 326.411 1035.32 326.502V337.981C1035.32 338.362 1035.63 338.669 1036.01 338.669H1049.33C1049.52 338.669 1049.68 338.602 1049.81 338.468C1049.95 338.334 1050.02 338.172 1050.02 337.981C1050.02 337.791 1049.95 337.628 1049.81 337.494C1049.75 337.429 1049.68 337.378 1049.59 337.343C1049.51 337.308 1049.42 337.291 1049.33 337.292H1036.7V326.502V326.502ZM1049.81 328.824C1049.87 328.761 1049.92 328.686 1049.95 328.603C1049.99 328.521 1050 328.433 1050 328.344C1050 328.256 1049.98 328.168 1049.95 328.086C1049.91 328.005 1049.86 327.931 1049.8 327.869C1049.74 327.805 1049.66 327.755 1049.58 327.72C1049.5 327.686 1049.41 327.668 1049.32 327.667C1049.23 327.664 1049.15 327.679 1049.06 327.711C1048.98 327.743 1048.9 327.791 1048.84 327.852L1044.51 332.185L1042.24 329.918C1042.17 329.853 1042.1 329.801 1042.01 329.767C1041.93 329.732 1041.84 329.715 1041.75 329.716C1041.56 329.716 1041.4 329.783 1041.26 329.918L1038.28 332.902C1038.22 332.966 1038.17 333.042 1038.14 333.125C1038.11 333.207 1038.09 333.296 1038.09 333.384C1038.1 333.569 1038.16 333.729 1038.3 333.86C1038.36 333.923 1038.43 333.974 1038.51 334.008C1038.59 334.043 1038.68 334.061 1038.77 334.061C1038.86 334.064 1038.95 334.049 1039.03 334.017C1039.11 333.986 1039.19 333.938 1039.25 333.876L1041.75 331.379L1044.02 333.646C1044.15 333.781 1044.32 333.848 1044.51 333.848C1044.7 333.848 1044.86 333.781 1044.99 333.646L1049.81 328.826V328.824ZM1140.41 326.295C1140.76 326.265 1141.11 326.265 1141.46 326.295C1141.49 326.299 1141.56 326.329 1141.59 326.43L1141.85 327.444C1141.99 327.96 1142.36 328.334 1142.77 328.536C1142.93 328.616 1143.08 328.704 1143.23 328.804C1143.61 329.058 1144.12 329.191 1144.63 329.051L1145.65 328.772C1145.75 328.746 1145.8 328.788 1145.82 328.814C1146.02 329.1 1146.2 329.402 1146.35 329.723C1146.36 329.752 1146.37 329.824 1146.3 329.898L1145.55 330.637C1145.38 330.812 1145.24 331.022 1145.16 331.253C1145.07 331.484 1145.04 331.73 1145.06 331.975C1145.07 332.153 1145.07 332.331 1145.06 332.509C1145.04 332.754 1145.07 333 1145.16 333.231C1145.24 333.461 1145.38 333.671 1145.55 333.846L1146.3 334.587C1146.37 334.661 1146.36 334.733 1146.35 334.761C1146.2 335.079 1146.03 335.383 1145.82 335.67C1145.8 335.697 1145.74 335.737 1145.65 335.712L1144.63 335.433C1144.39 335.372 1144.15 335.362 1143.9 335.405C1143.66 335.448 1143.43 335.542 1143.23 335.682C1143.08 335.78 1142.93 335.87 1142.77 335.949C1142.55 336.055 1142.35 336.207 1142.19 336.395C1142.03 336.584 1141.92 336.804 1141.85 337.04L1141.59 338.055C1141.56 338.156 1141.49 338.186 1141.46 338.189C1141.11 338.219 1140.76 338.219 1140.41 338.189C1140.38 338.186 1140.31 338.156 1140.29 338.055L1140.02 337.04C1139.95 336.804 1139.84 336.584 1139.68 336.396C1139.52 336.207 1139.33 336.055 1139.11 335.949C1138.95 335.87 1138.79 335.781 1138.65 335.682C1138.44 335.542 1138.21 335.448 1137.97 335.405C1137.73 335.362 1137.48 335.372 1137.24 335.433L1136.23 335.712C1136.13 335.739 1136.07 335.697 1136.05 335.67C1135.85 335.383 1135.67 335.079 1135.52 334.761C1135.51 334.733 1135.5 334.661 1135.58 334.587L1136.33 333.848C1136.7 333.473 1136.84 332.968 1136.81 332.509C1136.8 332.331 1136.8 332.153 1136.81 331.975C1136.83 331.731 1136.8 331.485 1136.71 331.254C1136.63 331.023 1136.5 330.814 1136.33 330.638L1135.58 329.898C1135.5 329.824 1135.51 329.752 1135.52 329.723C1135.67 329.404 1135.85 329.102 1136.05 328.814C1136.07 328.788 1136.13 328.746 1136.23 328.772L1137.24 329.051C1137.75 329.192 1138.26 329.058 1138.65 328.803C1138.79 328.705 1138.95 328.616 1139.1 328.537C1139.33 328.432 1139.52 328.28 1139.68 328.091C1139.84 327.903 1139.96 327.683 1140.02 327.446L1140.29 326.43C1140.31 326.329 1140.38 326.299 1140.41 326.295V326.295ZM1140.94 324.895C1140.72 324.895 1140.5 324.905 1140.29 324.923C1139.98 324.954 1139.68 325.082 1139.44 325.29C1139.2 325.497 1139.03 325.774 1138.95 326.082L1138.69 327.096C1138.67 327.157 1138.61 327.242 1138.49 327.303C1138.28 327.407 1138.08 327.525 1137.88 327.656C1137.77 327.733 1137.67 327.74 1137.6 327.723L1136.59 327.444C1136.29 327.356 1135.96 327.365 1135.66 327.468C1135.36 327.572 1135.1 327.766 1134.92 328.023C1134.67 328.376 1134.46 328.749 1134.27 329.14C1134.14 329.429 1134.11 329.751 1134.17 330.061C1134.23 330.372 1134.38 330.657 1134.61 330.877L1135.36 331.617C1135.4 331.661 1135.45 331.752 1135.44 331.888C1135.42 332.123 1135.42 332.36 1135.44 332.597C1135.45 332.731 1135.4 332.823 1135.36 332.865L1134.61 333.608C1134.38 333.827 1134.23 334.112 1134.17 334.423C1134.11 334.734 1134.14 335.056 1134.27 335.344C1134.46 335.737 1134.67 336.11 1134.92 336.463C1135.31 337.022 1136 337.202 1136.59 337.04L1137.61 336.763C1137.67 336.747 1137.77 336.753 1137.88 336.827C1138.08 336.96 1138.28 337.079 1138.49 337.183C1138.61 337.244 1138.67 337.328 1138.69 337.388L1138.95 338.404C1139.03 338.712 1139.2 338.988 1139.44 339.195C1139.68 339.402 1139.98 339.53 1140.29 339.561C1140.72 339.598 1141.15 339.598 1141.58 339.561C1141.89 339.531 1142.19 339.403 1142.43 339.195C1142.67 338.987 1142.84 338.711 1142.92 338.402L1143.18 337.388C1143.2 337.328 1143.26 337.244 1143.38 337.181C1143.59 337.077 1143.8 336.96 1143.99 336.829C1144.1 336.753 1144.21 336.745 1144.27 336.762L1145.28 337.04C1145.58 337.128 1145.91 337.12 1146.21 337.016C1146.51 336.912 1146.77 336.718 1146.95 336.461C1147.2 336.11 1147.42 335.737 1147.6 335.344C1147.73 335.056 1147.77 334.734 1147.71 334.423C1147.65 334.112 1147.49 333.827 1147.26 333.608L1146.52 332.867C1146.47 332.823 1146.43 332.733 1146.44 332.598C1146.45 332.36 1146.45 332.125 1146.44 331.888C1146.43 331.753 1146.47 331.661 1146.52 331.619L1147.26 330.877C1147.49 330.657 1147.65 330.372 1147.71 330.062C1147.77 329.751 1147.73 329.429 1147.6 329.14C1147.42 328.749 1147.2 328.375 1146.95 328.022C1146.77 327.765 1146.51 327.572 1146.21 327.468C1145.91 327.365 1145.58 327.356 1145.28 327.444L1144.27 327.723C1144.21 327.74 1144.1 327.733 1143.99 327.656C1143.8 327.525 1143.59 327.407 1143.38 327.303C1143.26 327.242 1143.2 327.157 1143.18 327.096L1142.92 326.08C1142.84 325.773 1142.67 325.496 1142.43 325.289C1142.19 325.082 1141.89 324.954 1141.58 324.923C1141.37 324.904 1141.15 324.895 1140.94 324.895V324.895ZM1142.31 332.242C1142.31 332.423 1142.28 332.603 1142.21 332.77C1142.14 332.937 1142.04 333.089 1141.91 333.216C1141.78 333.345 1141.63 333.447 1141.46 333.516C1141.3 333.586 1141.12 333.621 1140.94 333.619C1140.75 333.62 1140.58 333.585 1140.41 333.515C1140.24 333.446 1140.09 333.345 1139.96 333.216C1139.83 333.089 1139.73 332.937 1139.66 332.77C1139.59 332.603 1139.56 332.423 1139.56 332.242C1139.56 332.061 1139.59 331.882 1139.66 331.715C1139.73 331.547 1139.83 331.396 1139.96 331.268C1140.15 331.075 1140.4 330.943 1140.67 330.889C1140.93 330.836 1141.21 330.864 1141.46 330.969C1141.63 331.037 1141.78 331.138 1141.91 331.266C1142.04 331.394 1142.14 331.547 1142.21 331.715C1142.28 331.883 1142.31 332.059 1142.31 332.242V332.242ZM1143.69 332.242C1143.69 332.604 1143.62 332.963 1143.48 333.297C1143.34 333.632 1143.14 333.935 1142.88 334.19C1142.63 334.447 1142.33 334.651 1141.99 334.789C1141.66 334.927 1141.3 334.998 1140.94 334.997C1140.57 334.998 1140.22 334.927 1139.88 334.789C1139.55 334.65 1139.24 334.447 1138.99 334.19C1138.73 333.935 1138.53 333.631 1138.39 333.297C1138.25 332.963 1138.18 332.604 1138.18 332.242C1138.18 331.876 1138.25 331.525 1138.39 331.187C1138.6 330.682 1138.95 330.25 1139.4 329.947C1139.86 329.643 1140.39 329.483 1140.94 329.486C1141.3 329.485 1141.66 329.556 1141.99 329.694C1142.33 329.833 1142.63 330.037 1142.88 330.294C1143.14 330.549 1143.34 330.853 1143.48 331.187C1143.62 331.522 1143.69 331.88 1143.69 332.242V332.242Z" fill="#484F58"/>
<path d="M217.5 1460.02V434.182C217.499 433.183 217.795 432.206 218.351 431.376C218.719 430.824 219.193 430.35 219.745 429.983C220.296 429.612 220.915 429.356 221.566 429.229C221.892 429.164 222.221 429.132 222.552 429.132H947.158C947.821 429.13 948.478 429.261 949.091 429.516C950.016 429.895 950.806 430.542 951.358 431.376C951.725 431.929 951.981 432.547 952.112 433.198C952.178 433.522 952.209 433.851 952.209 434.182V1460.02C952.211 1460.68 952.08 1461.34 951.825 1461.95C951.31 1463.19 950.327 1464.17 949.091 1464.69C948.477 1464.94 947.821 1465.07 947.158 1465.07H222.552C221.889 1465.07 221.233 1464.94 220.619 1464.69C219.698 1464.3 218.91 1463.65 218.351 1462.83C217.797 1462 217.501 1461.02 217.5 1460.02V1460.02Z" fill="#0D1117"/>
<path d="M217.5 1460.02V434.182C217.499 433.183 217.795 432.206 218.351 431.376C218.719 430.824 219.193 430.35 219.745 429.983C220.296 429.612 220.915 429.356 221.566 429.229C221.892 429.164 222.221 429.132 222.552 429.132H947.158C947.821 429.13 948.478 429.261 949.091 429.516C950.016 429.895 950.806 430.542 951.358 431.376C951.725 431.929 951.981 432.547 952.112 433.198C952.178 433.522 952.209 433.851 952.209 434.182V1460.02C952.211 1460.68 952.08 1461.34 951.825 1461.95C951.31 1463.19 950.327 1464.17 949.091 1464.69C948.477 1464.94 947.821 1465.07 947.158 1465.07H222.552C221.889 1465.07 221.233 1464.94 220.619 1464.69C219.698 1464.3 218.91 1463.65 218.351 1462.83C217.797 1462 217.501 1461.02 217.5 1460.02V1460.02Z" stroke="#30363D" stroke-width="1.67946" stroke-miterlimit="10"/>
<path d="M967.361 818.985H1202.47V819.903H967.361V818.985ZM967.361 704.187H1202.47V705.105H967.361V704.187ZM967.361 589.389H1202.47V590.307H967.361V589.389Z" fill="#21262D"/>
<path fill-rule="evenodd" clip-rule="evenodd" d="M974.501 485.864C974.44 485.928 974.392 486.004 974.36 486.086C974.329 486.169 974.314 486.257 974.316 486.346C974.317 486.435 974.334 486.522 974.369 486.604C974.404 486.686 974.454 486.759 974.518 486.821C974.58 486.885 974.654 486.935 974.735 486.97C974.817 487.004 974.904 487.022 974.993 487.023C975.082 487.026 975.17 487.011 975.253 486.979C975.335 486.947 975.411 486.899 975.475 486.838L976.624 485.689C976.794 485.518 976.996 485.383 977.219 485.29C977.442 485.198 977.681 485.151 977.922 485.152C978.285 485.152 978.64 485.26 978.942 485.462C979.244 485.664 979.479 485.951 979.618 486.287C979.757 486.622 979.794 486.992 979.723 487.348C979.653 487.704 979.478 488.032 979.222 488.289L976.926 490.585C976.756 490.756 976.553 490.891 976.33 490.983C976.107 491.077 975.868 491.125 975.626 491.125C975.385 491.125 975.145 491.077 974.923 490.983C974.699 490.891 974.496 490.756 974.326 490.585C974.263 490.524 974.187 490.476 974.105 490.444C974.022 490.412 973.934 490.397 973.846 490.4C973.757 490.4 973.67 490.418 973.588 490.453C973.506 490.488 973.433 490.538 973.371 490.602C973.307 490.663 973.257 490.737 973.222 490.819C973.187 490.901 973.169 490.988 973.169 491.077C973.167 491.166 973.181 491.254 973.213 491.337C973.245 491.419 973.293 491.495 973.354 491.559C973.655 491.86 974.002 492.093 974.397 492.256C974.79 492.419 975.2 492.499 975.626 492.499C976.049 492.501 976.467 492.419 976.857 492.257C977.248 492.096 977.602 491.858 977.9 491.559L980.196 489.263C980.495 488.965 980.732 488.61 980.893 488.22C981.054 487.83 981.137 487.411 981.137 486.989C981.138 486.567 981.055 486.149 980.893 485.759C980.731 485.369 980.494 485.015 980.194 484.717C979.896 484.418 979.542 484.182 979.151 484.022C978.762 483.859 978.344 483.776 977.922 483.776C977.495 483.776 977.086 483.857 976.693 484.02C976.302 484.181 975.948 484.418 975.65 484.717L974.501 485.864V485.864ZM970.195 494.718C970.024 494.548 969.888 494.345 969.795 494.122C969.702 493.899 969.655 493.66 969.655 493.418C969.655 493.177 969.702 492.937 969.795 492.714C969.888 492.491 970.024 492.289 970.195 492.118L972.491 489.822C972.662 489.651 972.862 489.517 973.087 489.424C973.309 489.33 973.548 489.282 973.79 489.282C974.031 489.282 974.27 489.33 974.493 489.424C974.718 489.517 974.918 489.651 975.089 489.822C975.153 489.884 975.228 489.932 975.311 489.964C975.394 489.995 975.482 490.01 975.571 490.007C975.659 490.007 975.747 489.989 975.829 489.954C975.91 489.92 975.984 489.869 976.046 489.806C976.11 489.744 976.16 489.67 976.195 489.588C976.229 489.507 976.247 489.419 976.248 489.33C976.251 489.242 976.236 489.154 976.204 489.071C976.172 488.989 976.124 488.914 976.063 488.85C975.765 488.55 975.411 488.314 975.02 488.153C974.63 487.99 974.212 487.906 973.79 487.906C973.367 487.906 972.949 487.99 972.56 488.153C972.169 488.314 971.815 488.551 971.517 488.85L969.221 491.146C968.922 491.444 968.686 491.798 968.525 492.189C968.362 492.578 968.278 492.996 968.278 493.418C968.278 493.84 968.362 494.258 968.525 494.648C968.688 495.041 968.92 495.388 969.222 495.69C969.52 495.99 969.874 496.227 970.264 496.389C970.654 496.55 971.073 496.633 971.495 496.631C971.917 496.632 972.335 496.55 972.725 496.388C973.115 496.227 973.469 495.99 973.767 495.69L974.914 494.543C974.976 494.48 975.024 494.404 975.056 494.321C975.087 494.238 975.102 494.15 975.099 494.061C975.099 493.973 975.081 493.885 975.046 493.803C975.011 493.722 974.961 493.648 974.897 493.586C974.836 493.523 974.762 493.472 974.681 493.438C974.6 493.403 974.512 493.385 974.424 493.385C974.335 493.382 974.247 493.397 974.164 493.428C974.081 493.46 974.006 493.508 973.942 493.569L972.793 494.718C972.623 494.89 972.42 495.025 972.197 495.116C971.974 495.21 971.735 495.259 971.494 495.259C971.252 495.259 971.013 495.21 970.791 495.116C970.567 495.025 970.365 494.89 970.195 494.718V494.718Z" fill="#C9D1D9"/>
<path fill-rule="evenodd" clip-rule="evenodd" d="M967.362 518.444C967.362 518.255 967.429 518.092 967.563 517.957C967.698 517.823 967.861 517.756 968.051 517.756H971.955C973.082 517.756 974.083 518.298 974.711 519.135C975.037 518.7 975.442 518.362 975.927 518.119C976.413 517.877 976.926 517.756 977.469 517.756H981.367C981.558 517.756 981.72 517.823 981.854 517.957C981.99 518.092 982.057 518.255 982.057 518.444V528.088C982.057 528.278 981.988 528.441 981.854 528.575C981.791 528.64 981.715 528.692 981.631 528.726C981.548 528.761 981.458 528.778 981.367 528.777H977.229C976.658 528.777 976.171 528.978 975.768 529.383L975.197 529.952C975.133 530.017 975.058 530.069 974.974 530.103C974.89 530.138 974.8 530.155 974.71 530.154C974.619 530.155 974.529 530.138 974.445 530.103C974.362 530.069 974.286 530.017 974.223 529.952L973.652 529.383C973.463 529.187 973.235 529.032 972.984 528.928C972.733 528.824 972.462 528.772 972.19 528.777H968.051C967.96 528.778 967.87 528.761 967.786 528.726C967.702 528.691 967.627 528.64 967.563 528.575C967.498 528.512 967.447 528.436 967.412 528.352C967.378 528.269 967.361 528.179 967.362 528.088V518.444V518.444ZM975.402 521.2C975.402 520.927 975.454 520.663 975.559 520.409C975.664 520.156 975.813 519.932 976.008 519.739C976.199 519.547 976.427 519.394 976.678 519.29C976.928 519.186 977.197 519.132 977.469 519.133H980.678V527.399H977.227C976.575 527.399 975.942 527.584 975.398 527.925L975.402 521.2ZM974.021 527.927L974.024 523.268L974.023 521.199C974.023 520.927 973.969 520.659 973.865 520.408C973.761 520.157 973.609 519.929 973.417 519.737C973.225 519.546 972.997 519.394 972.746 519.29C972.496 519.186 972.227 519.133 971.955 519.133H968.739V527.399H972.189C972.85 527.399 973.46 527.576 974.021 527.927ZM975.396 551.506C975.396 551.317 975.329 551.154 975.195 551.019C975.132 550.954 975.056 550.903 974.972 550.868C974.889 550.833 974.799 550.816 974.708 550.818C974.518 550.818 974.355 550.885 974.221 551.019C974.156 551.082 974.104 551.158 974.07 551.242C974.035 551.326 974.018 551.416 974.019 551.506V552.655H973.116C972.836 552.656 972.561 552.728 972.318 552.867L971.136 553.544C971.1 553.563 971.06 553.574 971.02 553.574H968.969C968.778 553.574 968.616 553.641 968.482 553.775C968.417 553.838 968.366 553.914 968.331 553.998C968.296 554.082 968.279 554.172 968.281 554.262C968.281 554.452 968.348 554.615 968.482 554.749C968.616 554.884 968.778 554.951 968.969 554.951H969.362L967.422 559.26C967.356 559.386 967.334 559.53 967.36 559.669C967.386 559.809 967.457 559.936 967.563 560.03L968.051 559.543L967.563 560.03L967.565 560.033L967.567 560.035L967.572 560.04L967.587 560.053L967.629 560.09C967.822 560.253 968.032 560.391 968.259 560.503C968.845 560.789 969.465 560.928 970.116 560.92C970.924 560.92 971.545 560.718 971.974 560.503C972.2 560.391 972.41 560.253 972.605 560.09L972.646 560.053L972.661 560.04L972.666 560.035L972.667 560.033L972.669 560.03L972.184 559.543L972.669 560.03C972.776 559.936 972.848 559.809 972.873 559.67C972.899 559.53 972.878 559.386 972.812 559.26L970.872 554.951H971.02C971.3 554.951 971.575 554.878 971.818 554.739L973.002 554.063C973.036 554.043 973.076 554.032 973.116 554.032H974.019V562.757H971.724C971.534 562.757 971.371 562.824 971.236 562.959C971.171 563.022 971.12 563.098 971.085 563.181C971.051 563.265 971.034 563.355 971.035 563.446C971.035 563.635 971.102 563.798 971.236 563.933C971.371 564.067 971.534 564.134 971.724 564.134H977.694C977.884 564.134 978.045 564.067 978.181 563.933C978.315 563.798 978.383 563.635 978.383 563.446C978.383 563.256 978.315 563.093 978.181 562.959C978.118 562.894 978.042 562.842 977.958 562.808C977.875 562.773 977.785 562.756 977.694 562.757H975.396V554.032H976.302C976.342 554.032 976.379 554.042 976.414 554.063L977.6 554.739C977.842 554.878 978.117 554.951 978.396 554.951H978.545L976.606 559.26C976.54 559.386 976.518 559.53 976.544 559.669C976.569 559.809 976.641 559.936 976.747 560.03L977.234 559.543L976.747 560.03L976.748 560.033L976.752 560.035L976.757 560.04L976.772 560.053L976.812 560.09C977.007 560.253 977.217 560.391 977.442 560.503C978.028 560.789 978.648 560.928 979.301 560.92C980.109 560.92 980.729 560.718 981.159 560.503C981.384 560.391 981.595 560.253 981.789 560.09L981.831 560.053L981.839 560.045L981.844 560.04L981.851 560.035L981.852 560.033V560.03L981.367 559.543L981.854 560.03C981.96 559.936 982.032 559.809 982.057 559.669C982.083 559.53 982.061 559.386 981.995 559.26L980.057 554.951H980.448C980.638 554.951 980.801 554.884 980.935 554.749C981.07 554.615 981.137 554.452 981.137 554.262C981.137 554.073 981.07 553.91 980.935 553.775C980.872 553.71 980.796 553.659 980.713 553.624C980.629 553.59 980.539 553.572 980.448 553.574H978.396C978.356 553.574 978.318 553.563 978.284 553.544L977.098 552.867C976.856 552.727 976.581 552.654 976.302 552.655H975.396V551.506V551.506ZM968.919 559.292C969.179 559.417 969.577 559.543 970.116 559.543C970.655 559.543 971.053 559.417 971.315 559.292L970.116 556.629L968.919 559.292ZM978.102 559.292C978.364 559.417 978.762 559.543 979.301 559.543C979.84 559.543 980.237 559.417 980.499 559.292L979.301 556.629L978.102 559.292Z" fill="#8B949E"/>
<path d="M217.5 408.467V390.099C217.498 389.1 217.795 388.123 218.351 387.293C218.719 386.741 219.193 386.267 219.745 385.9C220.295 385.529 220.914 385.273 221.566 385.146C221.892 385.081 222.221 385.049 222.552 385.049H307.961C308.624 385.047 309.281 385.178 309.894 385.433C310.201 385.559 310.492 385.716 310.767 385.9C311.6 386.452 312.249 387.241 312.628 388.166C312.882 388.779 313.012 389.436 313.012 390.099V408.467C313.014 409.467 312.718 410.444 312.162 411.275C311.607 412.106 310.817 412.753 309.894 413.134C309.28 413.385 308.625 413.516 307.962 413.519H222.55C221.887 413.518 221.23 413.387 220.617 413.134C219.696 412.748 218.908 412.101 218.35 411.274C217.795 410.443 217.499 409.466 217.498 408.467H217.5Z" stroke="#F0F6FC" stroke-opacity="0.102" stroke-width="1.67946" stroke-miterlimit="10"/>
<path fill-rule="evenodd" clip-rule="evenodd" d="M243.443 394.232C243.253 394.232 243.09 394.299 242.955 394.433C242.89 394.497 242.839 394.572 242.804 394.656C242.77 394.74 242.753 394.83 242.754 394.921C242.754 395.11 242.821 395.273 242.955 395.408C243.09 395.542 243.253 395.609 243.443 395.609C243.634 395.609 243.795 395.542 243.93 395.408C244.064 395.273 244.131 395.11 244.131 394.921C244.131 394.731 244.064 394.568 243.93 394.433C243.866 394.368 243.791 394.317 243.707 394.282C243.623 394.248 243.533 394.231 243.443 394.232V394.232ZM241.377 394.921C241.375 394.413 241.562 393.922 241.902 393.545C242.07 393.355 242.269 393.202 242.494 393.087C242.943 392.851 243.465 392.791 243.956 392.92C244.449 393.044 244.878 393.347 245.159 393.77C245.443 394.191 245.561 394.702 245.492 395.205C245.422 395.708 245.169 396.168 244.781 396.496C244.59 396.659 244.37 396.786 244.133 396.87V397.446C244.133 397.75 244.074 398.044 243.956 398.325C243.842 398.604 243.673 398.857 243.459 399.071C243.246 399.284 242.993 399.453 242.714 399.568C242.435 399.683 242.137 399.743 241.835 399.742H238.162C238.041 399.74 237.921 399.763 237.809 399.809C237.698 399.855 237.596 399.924 237.512 400.011C237.426 400.095 237.357 400.196 237.311 400.308C237.265 400.42 237.242 400.54 237.244 400.661V401.697C237.553 401.806 237.821 401.979 238.048 402.216C238.275 402.453 238.436 402.727 238.532 403.041C238.627 403.355 238.649 403.672 238.592 403.995C238.539 404.314 238.411 404.615 238.218 404.875C238.023 405.138 237.779 405.345 237.485 405.491C237.197 405.638 236.878 405.714 236.555 405.713C236.228 405.713 235.917 405.639 235.625 405.491C235.335 405.347 235.085 405.136 234.894 404.875C234.7 404.615 234.572 404.314 234.518 403.995C234.462 403.676 234.483 403.349 234.578 403.041C234.674 402.727 234.837 402.453 235.062 402.216C235.29 401.979 235.557 401.806 235.868 401.697V396.87C235.562 396.764 235.286 396.586 235.062 396.351C234.839 396.118 234.673 395.836 234.58 395.527C234.484 395.218 234.463 394.891 234.518 394.573C234.575 394.249 234.699 393.957 234.894 393.693C235.089 393.429 235.332 393.224 235.625 393.076C235.917 392.929 236.229 392.855 236.555 392.855C236.883 392.855 237.193 392.929 237.485 393.076C237.778 393.224 238.023 393.429 238.216 393.693C238.411 393.957 238.535 394.249 238.592 394.573C238.649 394.891 238.629 395.218 238.534 395.528C238.439 395.837 238.273 396.119 238.048 396.351C237.825 396.586 237.549 396.764 237.244 396.87V398.557C237.538 398.427 237.843 398.365 238.162 398.365H241.837C241.958 398.367 242.077 398.344 242.189 398.297C242.3 398.251 242.401 398.183 242.485 398.096C242.572 398.012 242.641 397.911 242.687 397.799C242.733 397.687 242.756 397.567 242.754 397.446V396.87C242.35 396.73 242 396.466 241.756 396.115C241.506 395.767 241.374 395.349 241.377 394.921V394.921ZM236.557 402.957C236.365 402.957 236.204 403.024 236.07 403.158C236.005 403.221 235.953 403.297 235.918 403.381C235.884 403.465 235.867 403.555 235.868 403.645C235.868 403.835 235.935 403.998 236.07 404.132C236.204 404.267 236.365 404.334 236.557 404.334C236.746 404.334 236.909 404.267 237.044 404.132C237.178 403.998 237.245 403.835 237.245 403.645C237.245 403.456 237.178 403.293 237.044 403.158C236.981 403.093 236.905 403.042 236.821 403.007C236.737 402.972 236.647 402.955 236.557 402.957V402.957ZM235.868 394.921C235.868 394.731 235.935 394.568 236.07 394.433C236.204 394.299 236.365 394.232 236.557 394.232C236.746 394.232 236.909 394.299 237.044 394.433C237.178 394.568 237.245 394.731 237.245 394.921C237.245 395.11 237.178 395.273 237.044 395.408C236.981 395.473 236.905 395.524 236.821 395.559C236.737 395.593 236.647 395.611 236.557 395.609C236.466 395.611 236.376 395.593 236.292 395.559C236.209 395.524 236.133 395.473 236.07 395.408C236.005 395.344 235.953 395.269 235.918 395.185C235.884 395.101 235.867 395.011 235.868 394.921Z" fill="#8B949E"/>
<path opacity="0.8" d="M290.511 398.364L294.185 402.037L297.857 398.364" fill="#C9D1D9"/>
<path d="M685.876 408.467V390.099C685.878 389.1 686.175 388.124 686.727 387.293C687.284 386.464 688.073 385.817 688.995 385.433C689.607 385.178 690.264 385.047 690.928 385.049H766.235C766.898 385.047 767.556 385.178 768.168 385.433C769.093 385.812 769.883 386.459 770.435 387.293C770.802 387.846 771.058 388.464 771.189 389.115C771.255 389.439 771.287 389.768 771.287 390.099V408.467C771.288 409.131 771.157 409.788 770.902 410.4C770.387 411.637 769.405 412.62 768.168 413.134C767.554 413.386 766.898 413.517 766.235 413.519H690.928C690.265 413.518 689.608 413.387 688.995 413.134C688.689 413.007 688.397 412.851 688.121 412.668C687.847 412.483 687.59 412.273 687.356 412.039C686.41 411.091 685.878 409.807 685.876 408.467V408.467ZM779.551 408.467V390.099C779.554 389.1 779.85 388.124 780.403 387.293C780.96 386.464 781.748 385.817 782.67 385.433C783.282 385.178 783.94 385.047 784.603 385.049H861.748C862.411 385.047 863.068 385.178 863.681 385.433C864.294 385.685 864.851 386.058 865.318 386.528C866.028 387.233 866.51 388.134 866.702 389.115C866.766 389.439 866.798 389.768 866.798 390.099V408.467C866.798 408.798 866.766 409.127 866.702 409.453C866.436 410.765 865.665 411.92 864.554 412.668C864.278 412.851 863.986 413.007 863.681 413.134C863.067 413.387 862.411 413.517 861.748 413.519H784.603C783.94 413.518 783.283 413.387 782.67 413.134C782.058 412.879 781.501 412.507 781.031 412.039C780.085 411.091 779.554 409.807 779.551 408.467V408.467Z" stroke="#F0F6FC" stroke-opacity="0.102" stroke-width="1.67946" stroke-miterlimit="10"/>
<path opacity="0.8" d="M844.298 397.446L847.971 401.119L851.644 397.446" fill="#C9D1D9"/>
<path d="M875.063 408.467V390.099C875.063 389.768 875.095 389.439 875.161 389.115C875.287 388.463 875.544 387.843 875.915 387.293C876.282 386.74 876.756 386.267 877.309 385.9C877.584 385.716 877.875 385.559 878.182 385.433C878.794 385.177 879.452 385.047 880.115 385.049H947.156C947.82 385.047 948.477 385.178 949.089 385.433C950.014 385.812 950.804 386.459 951.356 387.293C951.723 387.846 951.979 388.464 952.111 389.115C952.176 389.439 952.208 389.768 952.208 390.099V408.467C952.209 409.131 952.079 409.788 951.823 410.4C951.309 411.637 950.326 412.62 949.089 413.135C948.476 413.386 947.819 413.517 947.156 413.519H880.115C879.452 413.518 878.795 413.387 878.182 413.135C877.57 412.879 877.013 412.507 876.543 412.039C875.838 411.332 875.357 410.432 875.161 409.453C875.096 409.129 875.063 408.798 875.063 408.467V408.467Z" stroke="#F0F6FC" stroke-opacity="0.102" stroke-width="1.67946" stroke-miterlimit="10"/>
<path opacity="0.8" d="M929.708 398.364L933.379 402.037L937.052 398.364" fill="#C9D1D9"/>
<path d="M217.5 478.725V434.182C217.499 433.183 217.795 432.206 218.351 431.376C218.719 430.824 219.193 430.35 219.745 429.983C220.296 429.612 220.915 429.356 221.566 429.229C221.892 429.164 222.221 429.132 222.552 429.132H947.158C947.821 429.13 948.478 429.261 949.091 429.516C950.016 429.895 950.806 430.542 951.358 431.376C951.725 431.929 951.981 432.547 952.112 433.198C952.178 433.522 952.209 433.851 952.209 434.182V478.725H217.5V478.725Z" fill="#6E7681" fill-opacity="0.102"/>
<path d="M217.5 478.725V434.182C217.499 433.183 217.795 432.206 218.351 431.376C218.719 430.824 219.193 430.35 219.745 429.983C220.296 429.612 220.915 429.356 221.566 429.229C221.892 429.164 222.221 429.132 222.552 429.132H947.158C947.821 429.13 948.478 429.261 949.091 429.516C950.016 429.895 950.806 430.542 951.358 431.376C951.725 431.929 951.981 432.547 952.112 433.198C952.178 433.522 952.209 433.851 952.209 434.182V478.725H217.5V478.725Z" stroke="#30363D" stroke-width="1.67946" stroke-miterlimit="10"/>
<path fill-rule="evenodd" clip-rule="evenodd" d="M891.726 449.927L890.609 448.81C890.579 448.776 890.538 448.752 890.493 448.743C890.448 448.734 890.401 448.74 890.359 448.76C890.316 448.775 890.279 448.804 890.253 448.843C890.228 448.881 890.215 448.927 890.218 448.973V452.32C890.218 452.448 890.321 452.55 890.447 452.55H893.795C893.841 452.553 893.887 452.54 893.925 452.515C893.964 452.489 893.993 452.452 894.009 452.409C894.028 452.367 894.034 452.32 894.025 452.275C894.016 452.229 893.992 452.188 893.958 452.157L892.71 450.911C893.251 450.16 893.957 449.543 894.774 449.109C895.593 448.677 896.501 448.441 897.426 448.419C898.822 448.389 900.185 448.846 901.279 449.714C902.006 450.287 902.587 451.024 902.975 451.865C903.368 452.704 903.559 453.623 903.531 454.549C903.52 455.01 903.454 455.468 903.335 455.914C903.101 456.81 902.659 457.638 902.045 458.331C901.434 459.027 900.669 459.571 899.811 459.919C898.953 460.268 898.025 460.411 897.102 460.338C896.179 460.268 895.285 459.982 894.492 459.505C893.699 459.028 893.027 458.374 892.529 457.593C892.032 456.812 891.723 455.926 891.627 455.006C891.62 454.915 891.594 454.827 891.551 454.747C891.507 454.667 891.448 454.596 891.377 454.54C891.307 454.482 891.227 454.439 891.14 454.413C891.053 454.387 890.962 454.379 890.871 454.389C890.781 454.397 890.693 454.424 890.613 454.467C890.533 454.511 890.463 454.57 890.406 454.641C890.348 454.711 890.305 454.791 890.279 454.878C890.253 454.965 890.246 455.057 890.257 455.147C890.371 456.274 890.747 457.359 891.355 458.316C891.96 459.274 892.78 460.079 893.748 460.667C894.717 461.254 895.809 461.61 896.938 461.708C898.067 461.807 899.204 461.641 900.258 461.223C901.313 460.81 902.257 460.156 903.016 459.315C904.163 458.047 904.831 456.418 904.905 454.71C904.95 453.72 904.794 452.732 904.447 451.804C904.099 450.876 903.567 450.028 902.884 449.311C902.2 448.594 901.378 448.023 900.467 447.633C899.557 447.242 898.577 447.04 897.586 447.038C896.452 447.034 895.334 447.293 894.317 447.795C893.3 448.296 892.414 449.026 891.726 449.927V449.927ZM897.336 450.713C897.525 450.713 897.688 450.78 897.823 450.914C897.957 451.05 898.024 451.212 898.024 451.401V454.151L899.887 454.896C899.969 454.931 900.043 454.981 900.105 455.044C900.167 455.108 900.216 455.183 900.248 455.266C900.283 455.347 900.301 455.435 900.302 455.524C900.302 455.613 900.285 455.701 900.251 455.783C900.219 455.866 900.171 455.942 900.109 456.006C900.048 456.07 899.974 456.121 899.892 456.156C899.811 456.193 899.724 456.214 899.635 456.217C899.546 456.221 899.458 456.206 899.375 456.174L897.079 455.256C896.946 455.211 896.833 455.125 896.755 455.009C896.676 454.893 896.639 454.755 896.647 454.616V451.401C896.647 451.212 896.714 451.05 896.849 450.914C896.983 450.78 897.144 450.713 897.336 450.713Z" fill="#C9D1D9"/>
<path fill-rule="evenodd" clip-rule="evenodd" d="M800.932 450.916C801.066 451.051 801.133 451.212 801.133 451.402C801.133 451.593 801.066 451.754 800.932 451.889L794.272 458.548C794.209 458.613 794.133 458.664 794.05 458.699C793.966 458.734 793.876 458.751 793.785 458.749C793.695 458.751 793.605 458.734 793.521 458.699C793.437 458.664 793.362 458.613 793.298 458.548L790.314 455.563C790.253 455.499 790.205 455.424 790.173 455.341C790.141 455.258 790.127 455.17 790.129 455.081C790.129 454.993 790.147 454.905 790.182 454.823C790.217 454.742 790.267 454.668 790.331 454.606C790.393 454.543 790.466 454.492 790.548 454.458C790.63 454.423 790.717 454.405 790.806 454.405C790.895 454.402 790.983 454.417 791.066 454.449C791.148 454.48 791.224 454.528 791.288 454.589L793.785 457.087L799.957 450.916C800.092 450.782 800.255 450.715 800.444 450.715C800.634 450.715 800.797 450.782 800.932 450.916V450.916Z" fill="#3FB950"/>
<path d="M217.957 478.264H951.749V513.163H217.959V478.264H217.957Z" fill="#161B22"/>
<path d="M217.957 478.264H951.749V479.182H217.959V478.264H217.957Z" fill="#21262D"/>
<path fill-rule="evenodd" clip-rule="evenodd" d="M234.26 490.204C233.942 490.206 233.632 490.301 233.368 490.477C233.104 490.654 232.898 490.904 232.775 491.197C232.694 491.391 232.652 491.6 232.652 491.811V501.455C232.652 502.342 233.373 503.062 234.26 503.062H245.739C246.056 503.06 246.366 502.965 246.63 502.789C246.894 502.612 247.1 502.362 247.223 502.07C247.305 501.875 247.346 501.666 247.346 501.455V493.649C247.347 493.437 247.306 493.228 247.225 493.033C247.145 492.838 247.026 492.66 246.876 492.512C246.727 492.362 246.55 492.244 246.355 492.164C246.16 492.082 245.95 492.041 245.739 492.041H239.77C239.734 492.043 239.698 492.035 239.666 492.019C239.634 492.003 239.606 491.979 239.585 491.949L238.761 490.847C238.611 490.648 238.417 490.485 238.193 490.374C237.97 490.262 237.724 490.204 237.474 490.204H234.26V490.204Z" fill="#8B949E"/>
<path d="M217.957 512.245H951.749V513.164H217.959V512.245H217.957Z" fill="#21262D"/>
<path fill-rule="evenodd" clip-rule="evenodd" d="M234.26 524.184C233.941 524.182 233.63 524.276 233.365 524.453C233.101 524.63 232.895 524.882 232.775 525.176C232.694 525.371 232.652 525.58 232.652 525.791V535.434C232.652 536.321 233.373 537.042 234.26 537.042H245.739C246.165 537.04 246.573 536.87 246.874 536.569C247.175 536.268 247.345 535.86 247.346 535.434V527.628C247.346 527.417 247.305 527.208 247.225 527.013C247.144 526.817 247.026 526.64 246.876 526.491C246.727 526.341 246.55 526.223 246.354 526.142C246.159 526.062 245.95 526.021 245.739 526.021H239.77C239.734 526.022 239.698 526.014 239.666 525.998C239.634 525.982 239.606 525.958 239.585 525.929L238.761 524.827C238.611 524.627 238.417 524.465 238.193 524.353C237.97 524.242 237.724 524.184 237.474 524.184H234.26V524.184Z" fill="#8B949E"/>
<path d="M217.957 546.225H951.749V547.143H217.959V546.225H217.957Z" fill="#21262D"/>
<path fill-rule="evenodd" clip-rule="evenodd" d="M234.26 558.165C234.049 558.164 233.84 558.206 233.645 558.288C233.35 558.407 233.098 558.613 232.921 558.877C232.745 559.142 232.652 559.454 232.654 559.772V569.416C232.654 570.303 233.373 571.021 234.26 571.021H245.739C246.057 571.021 246.368 570.927 246.632 570.751C246.897 570.575 247.103 570.324 247.225 570.03C247.306 569.836 247.347 569.627 247.346 569.416V561.608C247.347 561.397 247.306 561.188 247.225 560.993C247.144 560.798 247.026 560.621 246.876 560.473C246.727 560.323 246.55 560.204 246.355 560.123C246.16 560.042 245.95 560 245.739 560.001H239.77C239.734 560.002 239.699 559.994 239.667 559.978C239.634 559.963 239.606 559.939 239.586 559.91L238.761 558.808C238.611 558.609 238.417 558.446 238.194 558.335C237.97 558.223 237.724 558.165 237.474 558.165H234.26V558.165Z" fill="#8B949E"/>
<path d="M217.957 580.206H951.749V581.125H217.959V580.206H217.957Z" fill="#21262D"/>
<path fill-rule="evenodd" clip-rule="evenodd" d="M234.26 592.146C233.942 592.146 233.631 592.24 233.367 592.416C233.103 592.593 232.897 592.843 232.775 593.136C232.694 593.332 232.652 593.541 232.652 593.753V603.395C232.652 604.283 233.373 605.002 234.26 605.002H245.739C245.95 605.003 246.16 604.961 246.355 604.879C246.649 604.758 246.9 604.552 247.077 604.288C247.253 604.023 247.347 603.712 247.346 603.395V595.588C247.347 595.377 247.306 595.168 247.225 594.974C247.144 594.779 247.025 594.602 246.876 594.453C246.727 594.303 246.55 594.184 246.354 594.103C246.159 594.022 245.95 593.981 245.739 593.981H239.77C239.734 593.982 239.698 593.975 239.666 593.959C239.634 593.943 239.606 593.92 239.585 593.89L238.761 592.787C238.61 592.588 238.416 592.426 238.193 592.315C237.97 592.204 237.724 592.146 237.474 592.146H234.26V592.146Z" fill="#8B949E"/>
<path d="M217.957 614.188H951.749V615.104H217.959V614.188H217.957Z" fill="#21262D"/>
<path fill-rule="evenodd" clip-rule="evenodd" d="M234.26 626.124C233.834 626.125 233.425 626.295 233.124 626.596C232.823 626.897 232.653 627.305 232.652 627.731V637.375C232.652 638.261 233.373 638.982 234.26 638.982H245.739C245.95 638.983 246.16 638.941 246.355 638.859C246.65 638.74 246.902 638.534 247.079 638.269C247.255 638.005 247.348 637.693 247.346 637.375V629.569C247.347 629.357 247.306 629.148 247.225 628.953C247.144 628.758 247.026 628.58 246.876 628.432C246.573 628.131 246.165 627.963 245.739 627.961H239.77C239.734 627.963 239.698 627.955 239.666 627.939C239.634 627.922 239.606 627.899 239.585 627.869L238.761 626.767C238.611 626.568 238.416 626.406 238.193 626.294C237.97 626.183 237.724 626.124 237.474 626.124H234.26V626.124Z" fill="#8B949E"/>
<path d="M217.957 648.165H951.749V649.084H217.959V648.165H217.957Z" fill="#21262D"/>
<path fill-rule="evenodd" clip-rule="evenodd" d="M234.26 660.105C233.834 660.106 233.425 660.276 233.124 660.577C232.823 660.878 232.653 661.287 232.652 661.713V671.356C232.652 672.243 233.373 672.963 234.26 672.963H245.739C246.057 672.965 246.368 672.871 246.633 672.694C246.897 672.517 247.103 672.266 247.223 671.971C247.305 671.776 247.346 671.567 247.346 671.356V663.55C247.347 663.339 247.306 663.129 247.225 662.934C247.144 662.739 247.026 662.562 246.876 662.413C246.727 662.263 246.55 662.145 246.354 662.064C246.159 661.983 245.95 661.942 245.739 661.943H239.77C239.734 661.944 239.698 661.936 239.666 661.92C239.634 661.904 239.606 661.88 239.585 661.85L238.761 660.749C238.611 660.549 238.417 660.387 238.193 660.275C237.97 660.163 237.724 660.105 237.474 660.105H234.26V660.105Z" fill="#8B949E"/>
<path d="M217.957 682.146H951.749V683.065H217.959V682.146H217.957Z" fill="#21262D"/>
<path fill-rule="evenodd" clip-rule="evenodd" d="M234.26 694.085C233.942 694.087 233.632 694.182 233.368 694.358C233.104 694.535 232.898 694.785 232.775 695.077C232.694 695.272 232.652 695.481 232.652 695.692V705.336C232.652 706.222 233.373 706.943 234.26 706.943H245.739C246.056 706.941 246.366 706.846 246.63 706.67C246.894 706.493 247.1 706.243 247.223 705.95C247.305 705.756 247.346 705.547 247.346 705.336V697.53C247.347 697.318 247.306 697.109 247.225 696.914C247.145 696.719 247.026 696.541 246.876 696.393C246.727 696.243 246.55 696.125 246.355 696.045C246.16 695.963 245.95 695.921 245.739 695.922H239.77C239.734 695.923 239.698 695.916 239.666 695.9C239.634 695.883 239.606 695.859 239.585 695.83L238.761 694.728C238.611 694.528 238.417 694.366 238.193 694.255C237.97 694.143 237.724 694.085 237.474 694.085H234.26V694.085Z" fill="#8B949E"/>
<path d="M217.957 716.126H951.749V717.045H217.959V716.126H217.957Z" fill="#21262D"/>
<path fill-rule="evenodd" clip-rule="evenodd" d="M234.26 728.065C233.941 728.064 233.63 728.158 233.365 728.335C233.101 728.511 232.895 728.763 232.775 729.058C232.694 729.253 232.652 729.462 232.652 729.673V739.316C232.652 740.203 233.373 740.923 234.26 740.923H245.739C246.165 740.922 246.573 740.752 246.874 740.451C247.175 740.15 247.345 739.742 247.346 739.316V731.51C247.346 731.299 247.305 731.09 247.225 730.894C247.144 730.699 247.026 730.522 246.876 730.373C246.727 730.223 246.55 730.105 246.354 730.024C246.159 729.944 245.95 729.902 245.739 729.903H239.77C239.734 729.904 239.698 729.896 239.666 729.88C239.634 729.864 239.606 729.84 239.585 729.81L238.761 728.709C238.611 728.509 238.417 728.347 238.193 728.235C237.97 728.123 237.724 728.065 237.474 728.065H234.26V728.065Z" fill="#8B949E"/>
<path d="M217.957 750.107H951.749V751.026H217.959V750.107H217.957Z" fill="#21262D"/>
<path fill-rule="evenodd" clip-rule="evenodd" d="M234.26 762.047C234.049 762.046 233.84 762.088 233.645 762.169C233.351 762.29 233.099 762.496 232.923 762.76C232.746 763.025 232.653 763.336 232.654 763.654V773.296C232.654 774.184 233.373 774.903 234.26 774.903H245.739C246.057 774.903 246.368 774.809 246.632 774.633C246.897 774.457 247.103 774.206 247.225 773.912C247.306 773.717 247.347 773.507 247.346 773.296V765.49C247.347 765.279 247.306 765.07 247.225 764.875C247.144 764.68 247.026 764.503 246.876 764.355C246.727 764.205 246.55 764.086 246.355 764.005C246.16 763.924 245.95 763.882 245.739 763.883H239.77C239.734 763.884 239.699 763.876 239.666 763.86C239.634 763.845 239.606 763.821 239.585 763.792L238.761 762.69C238.611 762.49 238.417 762.328 238.194 762.217C237.97 762.105 237.724 762.047 237.474 762.047H234.26V762.047Z" fill="#8B949E"/>
<path d="M217.957 784.089H951.749V785.008H217.959V784.089H217.957Z" fill="#21262D"/>
<path fill-rule="evenodd" clip-rule="evenodd" d="M234.26 796.026C233.942 796.027 233.631 796.121 233.367 796.297C233.103 796.473 232.897 796.724 232.775 797.017C232.694 797.213 232.652 797.422 232.652 797.634V807.275C232.652 808.164 233.373 808.883 234.26 808.883H245.739C245.95 808.884 246.16 808.842 246.355 808.76C246.65 808.64 246.902 808.435 247.079 808.17C247.255 807.905 247.348 807.594 247.346 807.275V799.469C247.347 799.258 247.306 799.049 247.225 798.854C247.144 798.659 247.025 798.483 246.876 798.334C246.727 798.184 246.55 798.065 246.354 797.984C246.159 797.903 245.95 797.862 245.739 797.862H239.77C239.734 797.863 239.698 797.856 239.666 797.84C239.634 797.824 239.606 797.8 239.585 797.771L238.761 796.668C238.61 796.469 238.416 796.307 238.193 796.196C237.97 796.085 237.724 796.026 237.474 796.026H234.26V796.026Z" fill="#8B949E"/>
<path d="M217.957 818.068H951.749V818.985H217.959V818.068H217.957Z" fill="#21262D"/>
<path fill-rule="evenodd" clip-rule="evenodd" d="M236.095 830.467C235.944 830.467 235.866 830.543 235.866 830.697V841.258C235.866 841.385 235.969 841.488 236.097 841.488H243.903C244.056 841.488 244.133 841.41 244.133 841.258V834.6H241.607C241.181 834.6 240.772 834.43 240.471 834.129C240.17 833.828 240 833.419 240 832.993V830.467H236.095ZM241.377 830.981V832.993C241.377 833.119 241.479 833.221 241.607 833.221H243.617L241.377 830.981ZM234.489 830.697C234.489 829.809 235.21 829.09 236.097 829.09H240.767C241.194 829.09 241.602 829.258 241.902 829.56L245.038 832.696C245.34 832.996 245.508 833.406 245.508 833.831V841.258C245.51 841.469 245.469 841.678 245.388 841.874C245.307 842.069 245.188 842.246 245.038 842.395C244.89 842.544 244.713 842.662 244.517 842.742C244.323 842.824 244.114 842.865 243.903 842.865H236.095C235.884 842.865 235.675 842.824 235.48 842.742C235.185 842.622 234.933 842.417 234.757 842.152C234.58 841.887 234.487 841.576 234.489 841.258V830.697Z" fill="#8B949E"/>
<path d="M217.957 852.048H951.749V852.967H217.959V852.048H217.957Z" fill="#21262D"/>
<path fill-rule="evenodd" clip-rule="evenodd" d="M236.095 864.446C235.943 864.446 235.866 864.522 235.866 864.675V875.237C235.866 875.363 235.969 875.467 236.096 875.467H243.902C244.055 875.467 244.133 875.39 244.133 875.237V868.578H241.607C241.18 868.578 240.772 868.408 240.47 868.107C240.169 867.806 239.999 867.397 239.999 866.97V864.446H236.095V864.446ZM241.377 864.96V866.97C241.377 867.098 241.479 867.201 241.607 867.201H243.617L241.377 864.96ZM234.489 864.675C234.489 863.788 235.21 863.067 236.096 863.067H240.767C241.193 863.067 241.602 863.237 241.902 863.539L245.038 866.675C245.34 866.976 245.508 867.385 245.508 867.81V875.237C245.509 875.448 245.468 875.657 245.388 875.853C245.307 876.048 245.188 876.225 245.038 876.374C244.889 876.523 244.712 876.642 244.517 876.723C244.322 876.803 244.113 876.845 243.902 876.844H236.095C235.883 876.846 235.673 876.805 235.478 876.725C235.282 876.645 235.104 876.526 234.955 876.377C234.805 876.227 234.687 876.049 234.607 875.854C234.526 875.658 234.486 875.448 234.487 875.237V864.675H234.489Z" fill="#8B949E"/>
<path d="M217.957 886.027H951.749V886.946H217.959V886.027H217.957Z" fill="#21262D"/>
<path fill-rule="evenodd" clip-rule="evenodd" d="M236.095 898.428C235.943 898.428 235.866 898.503 235.866 898.656V909.218C235.866 909.344 235.969 909.448 236.096 909.448H243.902C244.055 909.448 244.132 909.371 244.132 909.218V902.559H241.607C241.396 902.56 241.187 902.518 240.992 902.437C240.698 902.316 240.446 902.11 240.27 901.845C240.093 901.581 240 901.27 240.001 900.952V898.428H236.095V898.428ZM241.376 898.942V900.952C241.376 901.08 241.479 901.182 241.607 901.182H243.617L241.376 898.942ZM234.489 898.656C234.489 897.769 235.209 897.049 236.096 897.049H240.767C241.193 897.049 241.602 897.218 241.902 897.521L245.038 900.656C245.34 900.957 245.508 901.365 245.508 901.792V909.218C245.509 909.429 245.468 909.638 245.387 909.833C245.306 910.028 245.188 910.205 245.038 910.354C244.889 910.503 244.712 910.622 244.517 910.703C244.322 910.784 244.113 910.826 243.902 910.825H236.095C235.668 910.825 235.26 910.656 234.959 910.354C234.657 910.053 234.488 909.644 234.487 909.218V898.656H234.489Z" fill="#8B949E"/>
<path d="M217.957 920.009H951.749V920.927H217.959V920.009H217.957Z" fill="#21262D"/>
<path fill-rule="evenodd" clip-rule="evenodd" d="M236.095 932.405C235.943 932.405 235.866 932.483 235.866 932.636V943.198C235.866 943.324 235.969 943.426 236.096 943.426H243.902C244.055 943.426 244.132 943.351 244.132 943.198V936.539H241.607C241.396 936.539 241.187 936.498 240.992 936.416C240.697 936.296 240.445 936.091 240.268 935.826C240.092 935.561 239.998 935.25 240.001 934.931V932.405H236.095ZM241.376 932.921V934.931C241.376 935.059 241.479 935.161 241.607 935.161H243.617L241.376 932.921ZM234.489 932.636C234.489 931.749 235.209 931.028 236.096 931.028H240.767C241.193 931.028 241.602 931.198 241.902 931.5L245.038 934.636C245.34 934.936 245.508 935.345 245.508 935.771V943.198C245.509 943.409 245.468 943.618 245.387 943.813C245.306 944.008 245.188 944.185 245.038 944.333C244.889 944.483 244.712 944.601 244.517 944.682C244.322 944.763 244.113 944.805 243.902 944.805H236.095C235.668 944.805 235.26 944.635 234.959 944.334C234.657 944.032 234.488 943.624 234.487 943.198V932.636H234.489Z" fill="#8B949E"/>
<path d="M217.957 953.989H951.749V954.908H217.959V953.989H217.957Z" fill="#21262D"/>
<path fill-rule="evenodd" clip-rule="evenodd" d="M236.095 966.387C235.943 966.387 235.866 966.464 235.866 966.617V977.177C235.866 977.305 235.969 977.408 236.096 977.408H243.902C244.055 977.408 244.132 977.332 244.132 977.177V970.52H241.607C241.395 970.522 241.185 970.481 240.99 970.401C240.794 970.321 240.616 970.202 240.467 970.053C240.317 969.903 240.199 969.725 240.118 969.53C240.038 969.334 239.998 969.124 239.999 968.913V966.387H236.095ZM241.376 966.901V968.913C241.376 969.039 241.479 969.143 241.607 969.143H243.617L241.376 966.901ZM234.489 966.617C234.489 965.73 235.209 965.01 236.096 965.01H240.767C241.193 965.01 241.602 965.179 241.902 965.48L245.038 968.616C245.34 968.918 245.508 969.326 245.508 969.753V977.177C245.509 977.389 245.468 977.598 245.387 977.793C245.307 977.988 245.188 978.166 245.039 978.315C244.89 978.464 244.713 978.583 244.518 978.663C244.323 978.744 244.113 978.785 243.902 978.785H236.095C235.668 978.785 235.259 978.615 234.958 978.314C234.657 978.013 234.487 977.604 234.487 977.177V966.617H234.489Z" fill="#8B949E"/>
<path d="M251.939 454.387C251.94 455.954 251.631 457.507 251.031 458.956C250.431 460.404 249.55 461.72 248.441 462.828C247.333 463.937 246.017 464.817 244.568 465.416C243.12 466.017 241.568 466.326 240 466.324C238.036 466.326 236.102 465.843 234.37 464.917C232.638 463.992 231.162 462.653 230.073 461.019C228.76 459.056 228.059 456.748 228.061 454.387C228.058 452.025 228.759 449.716 230.073 447.753C231.383 445.789 233.248 444.258 235.43 443.356C236.878 442.754 238.43 442.445 239.998 442.447C241.962 442.445 243.896 442.928 245.629 443.854C247.361 444.779 248.837 446.119 249.927 447.753C251.24 449.716 251.941 452.025 251.939 454.387V454.387Z" fill="#F0F6FC" fill-opacity="0.102"/>
<path d="M251.021 454.388C251.022 455.835 250.738 457.269 250.184 458.606C249.63 459.943 248.818 461.158 247.793 462.181C246.51 463.46 244.933 464.404 243.199 464.93C241.465 465.456 239.628 465.548 237.851 465.197C236.431 464.916 235.08 464.356 233.877 463.551C232.063 462.343 230.649 460.621 229.818 458.605C229.125 456.93 228.856 455.111 229.034 453.307C229.211 451.504 229.831 449.772 230.837 448.265C231.64 447.061 232.673 446.027 233.877 445.225C235.08 444.419 236.43 443.859 237.851 443.579C239.988 443.152 242.204 443.37 244.218 444.205C245.556 444.758 246.771 445.57 247.793 446.595C248.818 447.617 249.63 448.833 250.181 450.171C250.737 451.507 251.022 452.941 251.021 454.388V454.388Z" fill="#0D1117"/>
<path d="M288.647 324.873H254.678V339.563H288.647V324.873Z" fill="#959595"/>
<path d="M281.302 391.896H254.678V406.587H281.302V391.896V391.896ZM872.567 447.902H813.808V462.592H872.567V447.902ZM940.508 489.216H881.749V503.907H940.508V489.216V489.216Z" fill="#707070"/>
<path d="M287.73 447.902H261.104V462.592H287.73V447.902ZM940.507 447.902H913.882V462.592H940.507V447.902ZM911.129 391.896H884.503V406.587H911.129V391.896V391.896ZM837.68 391.896H787.183V406.587H837.68V391.896V391.896ZM765.149 392.813H692.618V407.504H765.149V392.813V392.813Z" fill="#959595"/>
<path d="M523.684 447.9H295.076V462.591H523.684V447.9ZM664.156 489.215H462.17V503.905H664.156V489.215V489.215ZM940.508 523.186H869.813V537.876H940.508V523.186ZM621.923 523.186H462.17V537.876H621.923V523.186ZM940.508 557.154H892.766V571.845H940.508V557.154V557.154ZM632.94 557.154H462.17V571.845H632.94V557.154ZM940.508 591.125H856.041V605.815H940.508V591.125ZM594.379 591.125H462.17V605.815H594.379V591.125ZM940.508 625.095H872.567V639.786H940.508V625.095ZM641.203 625.095H462.17V639.786H641.203V625.095ZM940.508 659.066H881.749V673.756H940.508V659.066V659.066ZM582.443 659.066H462.17V673.756H582.443V659.066ZM940.508 693.036H890.012V707.727H940.508V693.036ZM632.94 693.036H462.17V707.727H632.94V693.036ZM940.508 727.005H872.567V741.696H940.508V727.005ZM550.309 727.005H462.17V741.696H550.309V727.005ZM940.508 760.976H869.813V775.666H940.508V760.976ZM621.923 760.976H462.17V775.666H621.923V760.976ZM940.508 794.946H875.322V809.636H940.508V794.946ZM638.449 794.946H462.17V809.636H638.449V794.946ZM940.508 828.917H881.749V843.607H940.508V828.917V828.917ZM705.471 828.917H462.17V843.607H705.471V828.917V828.917ZM940.508 862.887H890.012V877.577H940.508V862.887ZM601.724 862.887H462.17V877.577H601.724V862.887ZM940.508 896.856H884.503V911.546H940.508V896.856ZM523.684 896.856H462.17V911.546H523.684V896.856ZM940.508 930.826H875.322V945.517H940.508V930.826ZM546.637 930.826H462.17V945.517H546.637V930.826ZM940.507 964.797H866.14V979.487H940.507V964.797V964.797ZM573.262 964.797H462.17V979.487H573.262V964.797ZM312.519 489.215H261.104V503.905H312.519V489.215V489.215ZM298.747 523.186H261.104V537.876H298.747V523.186ZM334.553 557.154H261.104V571.845H334.553V557.154ZM285.892 591.125H261.104V605.815H285.892V591.125ZM290.484 625.095H261.104V639.786H290.484V625.095ZM298.747 659.066H261.104V673.756H298.747V659.066ZM318.944 693.036H261.104V707.727H318.944V693.036ZM347.406 727.005H261.104V741.696H347.406V727.005ZM315.273 760.976H261.104V775.666H315.273V760.976ZM298.747 794.946H261.104V809.636H298.747V794.946ZM290.484 828.917H261.104V843.607H290.484V828.917ZM298.747 862.887H261.104V877.577H298.747V862.887Z" fill="#707070"/>
<path d="M338.224 862.889H261.104V877.579H338.224V862.889ZM358.423 896.858H261.104V911.548H358.423V896.858ZM324.453 930.828H261.104V945.518H324.453V930.828ZM298.747 964.798H261.104V979.489H298.747V964.798Z" fill="#707070"/>
<path d="M275.793 275.295H241.822V289.985H275.793V275.295ZM550.308 447.902H531.027V462.592H550.308V447.902ZM692.615 489.216H673.335V503.907H692.615V489.216V489.216ZM650.383 523.187H631.103V537.877H650.383V523.187ZM662.318 557.156H643.037V571.846H662.318V557.156ZM622.839 591.126H603.558V605.817H622.839V591.126ZM670.581 625.097H651.3V639.787H670.581V625.097ZM610.904 659.067H591.624V673.758H610.904V659.067ZM661.401 693.038H642.12V707.728H661.401V693.038ZM578.769 727.007H559.489V741.697H578.769V727.007ZM648.546 760.977H629.266V775.667H648.546V760.977ZM667.826 794.948H648.546V809.638H667.826V794.948ZM731.177 828.918H711.897V843.608H731.177V828.918ZM628.349 862.888H609.069V877.579H628.349V862.888ZM550.308 896.857H531.027V911.548H550.308V896.857ZM574.179 930.828H554.899V945.518H574.179V930.828ZM599.887 964.798H580.607V979.489H599.887V964.798ZM315.272 275.295H281.301V289.985H315.272V275.295ZM1030.48 485.543H988.248V494.725H1030.48V485.543ZM1062.62 669.166H970.805V678.347H1062.62V669.166Z" fill="#69A6F8"/>
<path d="M372.194 324.873H338.226V339.563H372.194V324.873ZM520.929 324.873H459.416V339.563H520.929V324.873ZM692.617 324.873H617.332V339.563H692.617V324.873ZM794.527 324.873H737.603V339.563H794.527V324.873ZM892.766 324.873H835.842V339.563H892.766V324.873ZM990.085 324.873H933.162V339.563H990.085V324.873ZM1116.79 324.873H1059.86V339.563H1116.79V324.873ZM1215.02 324.873H1158.1V339.563H1215.02V324.873Z" fill="#707070"/>
<path d="M1215.02 324.873H1158.1V339.563H1215.02V324.873Z" fill="#707070"/>
<path d="M1027.73 391.896H970.806V406.587H1027.73V391.896V391.896Z" fill="#959595"/>
<path d="M1073.63 428.62H970.806V437.802H1073.63V428.62Z" fill="#707070"/>
<path d="M1073.63 428.62H970.806V437.802H1073.63V428.62ZM1027.73 615.915H970.806V630.606H1027.73V615.915V615.915ZM1073.63 652.64H970.806V661.822H1073.63V652.64Z" fill="#707070"/>
<path d="M1062.62 669.165H970.806V678.347H1062.62V669.165Z" fill="#69A6F8"/>
<path d="M1027.73 615.914H970.806V630.604H1027.73V615.914V615.914Z" fill="#959595"/>
<path d="M1073.63 652.64H970.806V661.821H1073.63V652.64Z" fill="#707070"/>
<path d="M1062.62 779.34H970.806V788.521H1062.62V779.34ZM1062.62 957.454H970.806V966.635H1062.62V957.454Z" fill="#69A6F8"/>
<path d="M1027.73 726.09H970.806V740.78H1027.73V726.09Z" fill="#959595"/>
<path d="M1084.65 847.28H970.806V861.97H1084.65V847.28ZM1073.63 762.815H970.806V771.996H1073.63V762.815ZM1019.46 442.394H970.806V451.575H1019.46V442.394ZM1019.46 518.596H988.249V527.777H1019.46V518.596ZM1027.73 552.566H988.249V561.748H1027.73V552.566Z" fill="#707070"/>
<path d="M986.866 909.169C991.098 909.169 995.156 907.488 998.148 904.496C1001.14 901.503 1002.82 897.445 1002.82 893.214C1002.82 888.982 1001.14 884.924 998.148 881.932C995.156 878.94 991.098 877.259 986.866 877.259C982.635 877.259 978.576 878.94 975.584 881.932C972.592 884.924 970.911 888.982 970.911 893.214C970.911 897.445 972.592 901.503 975.584 904.496C978.576 907.488 982.635 909.169 986.866 909.169V909.169ZM1025.49 909.169C1029.73 909.169 1033.78 907.488 1036.78 904.496C1039.77 901.503 1041.45 897.445 1041.45 893.214C1041.45 888.982 1039.77 884.924 1036.78 881.932C1033.78 878.94 1029.73 877.259 1025.49 877.259C1021.26 877.259 1017.2 878.94 1014.21 881.932C1011.22 884.924 1009.54 888.982 1009.54 893.214C1009.54 897.445 1011.22 901.503 1014.21 904.496C1017.2 907.488 1021.26 909.169 1025.49 909.169V909.169Z" fill="#616161"/>
<path d="M986.866 909.169C991.098 909.169 995.156 907.488 998.148 904.496C1001.14 901.503 1002.82 897.445 1002.82 893.214C1002.82 888.982 1001.14 884.924 998.148 881.932C995.156 878.94 991.098 877.259 986.866 877.259C982.635 877.259 978.576 878.94 975.584 881.932C972.592 884.924 970.911 888.982 970.911 893.214C970.911 897.445 972.592 901.503 975.584 904.496C978.576 907.488 982.635 909.169 986.866 909.169V909.169ZM1025.49 909.169C1029.73 909.169 1033.78 907.488 1036.78 904.496C1039.77 901.503 1041.45 897.445 1041.45 893.214C1041.45 888.982 1039.77 884.924 1036.78 881.932C1033.78 878.94 1029.73 877.259 1025.49 877.259C1021.26 877.259 1017.2 878.94 1014.21 881.932C1011.22 884.924 1009.54 888.982 1009.54 893.214C1009.54 897.445 1011.22 901.503 1014.21 904.496C1017.2 907.488 1021.26 909.169 1025.49 909.169V909.169ZM1065.8 909.169C1070.03 909.169 1074.09 907.488 1077.08 904.496C1080.07 901.503 1081.76 897.445 1081.76 893.214C1081.76 888.982 1080.07 884.924 1077.08 881.932C1074.09 878.94 1070.03 877.259 1065.8 877.259C1061.57 877.259 1057.51 878.94 1054.52 881.932C1051.53 884.924 1049.85 888.982 1049.85 893.214C1049.85 897.445 1051.53 901.503 1054.52 904.496C1057.51 907.488 1061.57 909.169 1065.8 909.169V909.169ZM1104.43 909.169C1108.66 909.169 1112.72 907.488 1115.71 904.496C1118.7 901.503 1120.38 897.445 1120.38 893.214C1120.38 888.982 1118.7 884.924 1115.71 881.932C1112.72 878.94 1108.66 877.259 1104.43 877.259C1100.2 877.259 1096.14 878.94 1093.15 881.932C1090.15 884.924 1088.47 888.982 1088.47 893.214C1088.47 897.445 1090.15 901.503 1093.15 904.496C1096.14 907.488 1100.2 909.169 1104.43 909.169V909.169Z" fill="#616161"/>
<path d="M986.866 909.169C991.098 909.169 995.156 907.488 998.148 904.496C1001.14 901.503 1002.82 897.445 1002.82 893.214C1002.82 888.982 1001.14 884.924 998.148 881.932C995.156 878.94 991.098 877.259 986.866 877.259C982.635 877.259 978.576 878.94 975.584 881.932C972.592 884.924 970.911 888.982 970.911 893.214C970.911 897.445 972.592 901.503 975.584 904.496C978.576 907.488 982.635 909.169 986.866 909.169V909.169ZM1025.49 909.169C1029.73 909.169 1033.78 907.488 1036.78 904.496C1039.77 901.503 1041.45 897.445 1041.45 893.214C1041.45 888.982 1039.77 884.924 1036.78 881.932C1033.78 878.94 1029.73 877.259 1025.49 877.259C1021.26 877.259 1017.2 878.94 1014.21 881.932C1011.22 884.924 1009.54 888.982 1009.54 893.214C1009.54 897.445 1011.22 901.503 1014.21 904.496C1017.2 907.488 1021.26 909.169 1025.49 909.169V909.169ZM1065.8 947.796C1070.03 947.796 1074.09 946.115 1077.08 943.123C1080.07 940.131 1081.76 936.073 1081.76 931.841C1081.76 927.61 1080.07 923.552 1077.08 920.559C1074.09 917.567 1070.03 915.886 1065.8 915.886C1061.57 915.886 1057.51 917.567 1054.52 920.559C1051.53 923.552 1049.85 927.61 1049.85 931.841C1049.85 936.073 1051.53 940.131 1054.52 943.123C1057.51 946.115 1061.57 947.796 1065.8 947.796V947.796ZM1104.43 947.796C1108.66 947.796 1112.72 946.115 1115.71 943.123C1118.7 940.131 1120.38 936.073 1120.38 931.841C1120.38 927.61 1118.7 923.552 1115.71 920.559C1112.72 917.567 1108.66 915.886 1104.43 915.886C1100.2 915.886 1096.14 917.567 1093.15 920.559C1090.15 923.552 1088.47 927.61 1088.47 931.841C1088.47 936.073 1090.15 940.131 1093.15 943.123C1096.14 946.115 1100.2 947.796 1104.43 947.796V947.796ZM986.866 947.796C991.098 947.796 995.156 946.115 998.148 943.123C1001.14 940.131 1002.82 936.073 1002.82 931.841C1002.82 927.61 1001.14 923.552 998.148 920.559C995.156 917.567 991.098 915.886 986.866 915.886C982.635 915.886 978.576 917.567 975.584 920.559C972.592 923.552 970.911 927.61 970.911 931.841C970.911 936.073 972.592 940.131 975.584 943.123C978.576 946.115 982.635 947.796 986.866 947.796V947.796ZM1025.49 947.796C1029.73 947.796 1033.78 946.115 1036.78 943.123C1039.77 940.131 1041.45 936.073 1041.45 931.841C1041.45 927.61 1039.77 923.552 1036.78 920.559C1033.78 917.567 1029.73 915.886 1025.49 915.886C1021.26 915.886 1017.2 917.567 1014.21 920.559C1011.22 923.552 1009.54 927.61 1009.54 931.841C1009.54 936.073 1011.22 940.131 1014.21 943.123C1017.2 946.115 1021.26 947.796 1025.49 947.796V947.796Z" fill="#616161"/>
</g>
</g>
</g>
</g>
<defs>
<filter id="filter0_d_1029_1339" x="0" y="0" width="1213" height="1023" filterUnits="userSpaceOnUse" color-interpolation-filters="sRGB">
<feFlood flood-opacity="0" result="BackgroundImageFix"/>
<feColorMatrix in="SourceAlpha" type="matrix" values="0 0 0 0 0 0 0 0 0 0 0 0 0 0 0 0 0 0 127 0" result="hardAlpha"/>
<feOffset dy="16"/>
<feGaussianBlur stdDeviation="20"/>
<feComposite in2="hardAlpha" operator="out"/>
<feColorMatrix type="matrix" values="0 0 0 0 0 0 0 0 0 0 0 0 0 0 0 0 0 0 0.08 0"/>
<feBlend mode="normal" in2="BackgroundImageFix" result="effect1_dropShadow_1029_1339"/>
<feBlend mode="normal" in="SourceGraphic" in2="effect1_dropShadow_1029_1339" result="shape"/>
</filter>
<filter id="filter1_d_1029_1339" x="170" y="178" width="1079.51" height="925" filterUnits="userSpaceOnUse" color-interpolation-filters="sRGB">
<feFlood flood-opacity="0" result="BackgroundImageFix"/>
<feColorMatrix in="SourceAlpha" type="matrix" values="0 0 0 0 0 0 0 0 0 0 0 0 0 0 0 0 0 0 127 0" result="hardAlpha"/>
<feOffset dy="16"/>
<feGaussianBlur stdDeviation="12.5"/>
<feComposite in2="hardAlpha" operator="out"/>
<feColorMatrix type="matrix" values="0 0 0 0 0 0 0 0 0 0 0 0 0 0 0 0 0 0 0.15 0"/>
<feBlend mode="normal" in2="BackgroundImageFix" result="effect1_dropShadow_1029_1339"/>
<feBlend mode="normal" in="SourceGraphic" in2="effect1_dropShadow_1029_1339" result="shape"/>
</filter>
<linearGradient id="paint0_linear_1029_1339" x1="40" y1="24" x2="967.334" y2="1138.18" gradientUnits="userSpaceOnUse">
<stop stop-color="#38BDF8"/>
<stop offset="1" stop-color="#6366F1"/>
</linearGradient>
<clipPath id="clip0_1029_1339">
<rect x="40" y="24" width="1133" height="943" rx="40" fill="white"/>
</clipPath>
<clipPath id="clip1_1029_1339">
<rect x="195" y="187" width="1029.51" height="875" rx="40" fill="white"/>
</clipPath>
</defs>
</svg>
