<svg width="1213" height="1023" viewBox="0 0 1213 1023" fill="none" xmlns="http://www.w3.org/2000/svg">
<g filter="url(#filter0_d_1029_1172)">
<g clip-path="url(#clip0_1029_1172)">
<rect x="40" y="24" width="1133" height="943" rx="40" fill="url(#paint0_linear_1029_1172)"/>
<path d="M1395.59 187H236.409C212.987 187 194 205.966 194 229.362V963.638C194 987.034 212.987 1006 236.409 1006H1395.59C1419.01 1006 1438 987.034 1438 963.638V229.362C1438 205.966 1419.01 187 1395.59 187Z" fill="white"/>
<g opacity="0.8">
<g opacity="0.8" filter="url(#filter1_dd_1029_1172)">
<g clip-path="url(#clip1_1029_1172)">
<path opacity="0.8" d="M1395.59 187H236.41C212.988 187 194.001 205.966 194.001 229.362V963.638C194.001 987.032 212.988 1006 236.41 1006H1395.59C1419.01 1006 1438 987.032 1438 963.638V229.362C1438 205.966 1419.01 187 1395.59 187Z" fill="white"/>
<path opacity="0.8" d="M572.128 655C572.128 649.477 576.605 645 582.128 645H1018.13C1023.65 645 1028.13 649.477 1028.13 655V1053.34C1028.13 1067.51 1014.13 1079 996.859 1079H582.128C576.605 1079 572.128 1074.52 572.128 1069V655Z" fill="#FFE7E8"/>
<path opacity="0.8" d="M607.598 694.433C611.723 694.433 615.068 691.426 615.068 687.716C615.068 684.007 611.723 681 607.598 681C603.472 681 600.128 684.007 600.128 687.716C600.128 691.426 603.472 694.433 607.598 694.433Z" fill="#FDA4AF"/>
<path opacity="0.8" d="M607.598 781.024C611.723 781.024 615.068 778.018 615.068 774.308C615.068 770.599 611.723 767.592 607.598 767.592C603.472 767.592 600.128 770.599 600.128 774.308C600.128 778.018 603.472 781.024 607.598 781.024Z" fill="#FDA4AF"/>
<path opacity="0.8" d="M607.598 752.419C611.723 752.419 615.068 749.412 615.068 745.703C615.068 741.993 611.723 738.986 607.598 738.986C603.472 738.986 600.128 741.993 600.128 745.703C600.128 749.412 603.472 752.419 607.598 752.419Z" fill="#FDA4AF"/>
<path opacity="0.8" d="M607.598 723.556C611.723 723.556 615.068 720.549 615.068 716.839C615.068 713.13 611.723 710.123 607.598 710.123C603.472 710.123 600.128 713.13 600.128 716.839C600.128 720.549 603.472 723.556 607.598 723.556Z" fill="#FDA4AF"/>
<path opacity="0.8" d="M607.598 809.456C611.723 809.456 615.068 806.449 615.068 802.74C615.068 799.03 611.723 796.023 607.598 796.023C603.472 796.023 600.128 799.03 600.128 802.74C600.128 806.449 603.472 809.456 607.598 809.456Z" fill="#FDA4AF"/>
<path opacity="0.8" d="M607.598 837.89C611.723 837.89 615.068 834.883 615.068 831.173C615.068 827.464 611.723 824.457 607.598 824.457C603.472 824.457 600.128 827.464 600.128 831.173C600.128 834.883 603.472 837.89 607.598 837.89Z" fill="#FDA4AF"/>
<path opacity="0.8" d="M607.598 866.321C611.723 866.321 615.068 863.316 615.068 859.605C615.068 855.894 611.723 852.889 607.598 852.889C603.472 852.889 600.128 855.894 600.128 859.605C600.128 863.316 603.472 866.321 607.598 866.321Z" fill="#FDA4AF"/>
<path opacity="0.8" d="M607.598 894.755C611.723 894.755 615.068 891.749 615.068 888.039C615.068 884.328 611.723 881.322 607.598 881.322C603.472 881.322 600.128 884.328 600.128 888.039C600.128 891.749 603.472 894.755 607.598 894.755Z" fill="#FDA4AF"/>
<path opacity="0.8" d="M607.598 923.187C611.723 923.187 615.068 920.181 615.068 916.47C615.068 912.759 611.723 909.754 607.598 909.754C603.472 909.754 600.128 912.759 600.128 916.47C600.128 920.181 603.472 923.187 607.598 923.187Z" fill="#FDA4AF"/>
<path opacity="0.8" d="M607.598 951.62C611.723 951.62 615.068 948.615 615.068 944.904C615.068 941.193 611.723 938.188 607.598 938.188C603.472 938.188 600.128 941.193 600.128 944.904C600.128 948.615 603.472 951.62 607.598 951.62Z" fill="#FDA4AF"/>
<path opacity="0.8" d="M607.598 980.052C611.723 980.052 615.068 977.046 615.068 973.335C615.068 969.625 611.723 966.619 607.598 966.619C603.472 966.619 600.128 969.625 600.128 973.335C600.128 977.046 603.472 980.052 607.598 980.052Z" fill="#FDA4AF"/>
<path opacity="0.8" d="M752.828 681H651.985C647.859 681 644.515 684.007 644.515 687.716C644.515 691.426 647.859 694.433 651.985 694.433H752.828C756.953 694.433 760.297 691.426 760.297 687.716C760.297 684.007 756.953 681 752.828 681Z" fill="#FB7185"/>
<path opacity="0.8" d="M961.984 709.433H651.985C647.859 709.433 644.515 712.44 644.515 716.149C644.515 719.858 647.859 722.865 651.985 722.865H961.984C966.111 722.865 969.453 719.858 969.453 716.149C969.453 712.44 966.111 709.433 961.984 709.433Z" fill="#FB7185"/>
<path opacity="0.8" d="M991.863 738.555H651.985C647.859 738.555 644.515 741.562 644.515 745.271C644.515 748.98 647.859 751.987 651.985 751.987H991.863C995.99 751.987 999.333 748.98 999.333 745.271C999.333 741.562 995.99 738.555 991.863 738.555Z" fill="#FB7185"/>
<path opacity="0.8" d="M961.984 767.419H651.985C647.859 767.419 644.515 770.426 644.515 774.135C644.515 777.845 647.859 780.852 651.985 780.852H961.984C966.111 780.852 969.453 777.845 969.453 774.135C969.453 770.426 966.111 767.419 961.984 767.419Z" fill="#FB7185"/>
<path opacity="0.8" d="M693.069 796.023H651.985C647.859 796.023 644.515 799.03 644.515 802.74C644.515 806.449 647.859 809.456 651.985 809.456H693.069C697.194 809.456 700.539 806.449 700.539 802.74C700.539 799.03 697.194 796.023 693.069 796.023Z" fill="#FB7185"/>
<path opacity="0.8" d="M693.069 824.457H651.985C647.859 824.457 644.515 827.464 644.515 831.173C644.515 834.883 647.859 837.89 651.985 837.89H693.069C697.194 837.89 700.539 834.883 700.539 831.173C700.539 827.464 697.194 824.457 693.069 824.457Z" fill="#FB7185"/>
<path opacity="0.8" d="M693.069 852.889H651.985C647.859 852.889 644.515 855.894 644.515 859.605C644.515 863.316 647.859 866.321 651.985 866.321H693.069C697.194 866.321 700.539 863.316 700.539 859.605C700.539 855.894 697.194 852.889 693.069 852.889Z" fill="#FB7185"/>
<path opacity="0.8" d="M782.707 881.322H651.985C647.859 881.322 644.515 884.328 644.515 888.039C644.515 891.749 647.859 894.755 651.985 894.755H782.707C786.833 894.755 790.177 891.749 790.177 888.039C790.177 884.328 786.833 881.322 782.707 881.322Z" fill="#FB7185"/>
<path opacity="0.8" d="M872.345 909.754H651.985C647.859 909.754 644.515 912.759 644.515 916.47C644.515 920.181 647.859 923.187 651.985 923.187H872.345C876.471 923.187 879.815 920.181 879.815 916.47C879.815 912.759 876.471 909.754 872.345 909.754Z" fill="#FB7185"/>
<path opacity="0.8" d="M961.984 938.188H651.985C647.859 938.188 644.515 941.193 644.515 944.904C644.515 948.615 647.859 951.62 651.985 951.62H961.984C966.111 951.62 969.453 948.615 969.453 944.904C969.453 941.193 966.111 938.188 961.984 938.188Z" fill="#FB7185"/>
<path opacity="0.8" d="M693.069 966.619H651.985C647.859 966.619 644.515 969.625 644.515 973.335C644.515 977.046 647.859 980.052 651.985 980.052H693.069C697.194 980.052 700.539 977.046 700.539 973.335C700.539 969.625 697.194 966.619 693.069 966.619Z" fill="#FB7185"/>
</g>
</g>
<path opacity="0.8" d="M572.148 282.314H1307.24V285.845H572.148V282.314Z" fill="#FBE0E3"/>
<path opacity="0.8" d="M444.921 338.798H370.705C366.801 338.798 363.637 341.959 363.637 345.858C363.637 349.758 366.801 352.919 370.705 352.919H444.921C448.825 352.919 451.989 349.758 451.989 345.858C451.989 341.959 448.825 338.798 444.921 338.798Z" fill="#F79CA9"/>
<path opacity="0.8" d="M1176.48 338.798H1102.26C1098.36 338.798 1095.19 341.959 1095.19 345.858C1095.19 349.758 1098.36 352.919 1102.26 352.919H1176.48C1180.38 352.919 1183.55 349.758 1183.55 345.858C1183.55 341.959 1180.38 338.798 1176.48 338.798Z" fill="#FBE0E3"/>
<path opacity="0.8" d="M1201.22 367.039H1102.26C1098.36 367.039 1095.19 370.2 1095.19 374.099C1095.19 377.999 1098.36 381.16 1102.26 381.16H1201.22C1205.12 381.16 1208.28 377.999 1208.28 374.099C1208.28 370.2 1205.12 367.039 1201.22 367.039Z" fill="#FBE0E3"/>
<path opacity="0.8" d="M1172.94 395.28H1102.26C1098.36 395.28 1095.19 398.441 1095.19 402.341C1095.19 406.24 1098.36 409.401 1102.26 409.401H1172.94C1176.85 409.401 1180.01 406.24 1180.01 402.341C1180.01 398.441 1176.85 395.28 1172.94 395.28Z" fill="#FBE0E3"/>
<path opacity="0.8" d="M1211.82 423.521H1102.26C1098.36 423.521 1095.19 426.682 1095.19 430.582C1095.19 434.481 1098.36 437.642 1102.26 437.642H1211.82C1215.72 437.642 1218.89 434.481 1218.89 430.582C1218.89 426.682 1215.72 423.521 1211.82 423.521Z" fill="#FBE0E3"/>
<path opacity="0.8" d="M1165.88 451.763H1102.26C1098.36 451.763 1095.19 454.924 1095.19 458.823C1095.19 462.722 1098.36 465.883 1102.26 465.883H1165.88C1169.78 465.883 1172.94 462.722 1172.94 458.823C1172.94 454.924 1169.78 451.763 1165.88 451.763Z" fill="#FBE0E3"/>
<path opacity="0.8" d="M759.455 335.268H586.285C578.478 335.268 572.148 341.59 572.148 349.388C572.148 357.187 578.478 363.509 586.285 363.509H759.455C767.262 363.509 773.592 357.187 773.592 349.388C773.592 341.59 767.262 335.268 759.455 335.268Z" fill="#F5C3C9"/>
<path opacity="0.8" d="M992.705 377.629H579.217C575.311 377.629 572.148 380.79 572.148 384.689C572.148 388.589 575.311 391.75 579.217 391.75H992.705C996.61 391.75 999.773 388.589 999.773 384.689C999.773 380.79 996.61 377.629 992.705 377.629Z" fill="#F79CA9"/>
<path opacity="0.8" d="M787.727 225.832H628.693C624.788 225.832 621.625 228.993 621.625 232.892C621.625 236.792 624.788 239.953 628.693 239.953H787.727C791.632 239.953 794.795 236.792 794.795 232.892C794.795 228.993 791.632 225.832 787.727 225.832Z" fill="#FBE0E3"/>
<path opacity="0.8" d="M1020.98 434.112H579.217C575.311 434.112 572.148 437.273 572.148 441.173C572.148 445.072 575.311 448.233 579.217 448.233H1020.98C1024.88 448.233 1028.05 445.072 1028.05 441.173C1028.05 437.273 1024.88 434.112 1020.98 434.112Z" fill="#FBE0E3"/>
<path opacity="0.8" d="M1020.98 462.354H579.217C575.311 462.354 572.148 465.514 572.148 469.414C572.148 473.313 575.311 476.474 579.217 476.474H1020.98C1024.88 476.474 1028.05 473.313 1028.05 469.414C1028.05 465.514 1024.88 462.354 1020.98 462.354Z" fill="#FBE0E3"/>
<path opacity="0.8" d="M992.705 490.595H579.217C575.311 490.595 572.148 493.756 572.148 497.655C572.148 501.554 575.311 504.715 579.217 504.715H992.705C996.61 504.715 999.773 501.554 999.773 497.655C999.773 493.756 996.61 490.595 992.705 490.595Z" fill="#FBE0E3"/>
<path opacity="0.8" d="M992.705 518.836H579.217C575.311 518.836 572.148 521.997 572.148 525.896C572.148 529.796 575.311 532.957 579.217 532.957H992.705C996.61 532.957 999.773 529.796 999.773 525.896C999.773 521.997 996.61 518.836 992.705 518.836Z" fill="#FBE0E3"/>
<path opacity="0.8" d="M1020.98 547.077H579.217C575.311 547.077 572.148 550.237 572.148 554.137C572.148 558.038 575.311 561.198 579.217 561.198H1020.98C1024.88 561.198 1028.05 558.038 1028.05 554.137C1028.05 550.237 1024.88 547.077 1020.98 547.077Z" fill="#FBE0E3"/>
<path opacity="0.8" d="M762.989 603.561H582.751C576.895 603.561 572.148 608.302 572.148 614.151C572.148 620 576.895 624.741 582.751 624.741H762.989C768.845 624.741 773.592 620 773.592 614.151C773.592 608.302 768.845 603.561 762.989 603.561Z" fill="#F5C3C9"/>
<path opacity="0.8" d="M430.784 374.1H370.705C366.801 374.1 363.637 377.261 363.637 381.16C363.637 385.059 366.801 388.22 370.705 388.22H430.784C434.688 388.22 437.853 385.059 437.853 381.16C437.853 377.261 434.688 374.1 430.784 374.1Z" fill="#F79CA9"/>
<path opacity="0.8" d="M420.182 409.4H370.705C366.801 409.4 363.637 412.561 363.637 416.461C363.637 420.36 366.801 423.521 370.705 423.521H420.182C424.086 423.521 427.25 420.36 427.25 416.461C427.25 412.561 424.086 409.4 420.182 409.4Z" fill="#F79CA9"/>
<path opacity="0.8" d="M402.512 444.703H370.705C366.801 444.703 363.637 447.864 363.637 451.763C363.637 455.663 366.801 458.824 370.705 458.824H402.512C406.415 458.824 409.58 455.663 409.58 451.763C409.58 447.864 406.415 444.703 402.512 444.703Z" fill="#F79CA9"/>
<path opacity="0.8" d="M423.716 480.004H370.705C366.801 480.004 363.637 483.165 363.637 487.064C363.637 490.964 366.801 494.125 370.705 494.125H423.716C427.62 494.125 430.784 490.964 430.784 487.064C430.784 483.165 427.62 480.004 423.716 480.004Z" fill="#F79CA9"/>
<path opacity="0.8" d="M437.853 515.306H370.705C366.801 515.306 363.637 518.467 363.637 522.366C363.637 526.265 366.801 529.426 370.705 529.426H437.853C441.756 529.426 444.921 526.265 444.921 522.366C444.921 518.467 441.756 515.306 437.853 515.306Z" fill="#F79CA9"/>
<path opacity="0.8" d="M400.745 582.379H330.063C327.135 582.379 324.762 584.751 324.762 587.674C324.762 590.597 327.135 592.969 330.063 592.969H400.745C403.672 592.969 406.046 590.597 406.046 587.674C406.046 584.751 403.672 582.379 400.745 582.379Z" fill="#F5C3C9"/>
<path opacity="0.8" d="M400.745 822.431H330.063C327.135 822.431 324.762 824.803 324.762 827.726C324.762 830.649 327.135 833.021 330.063 833.021H400.745C403.672 833.021 406.046 830.649 406.046 827.726C406.046 824.803 403.672 822.431 400.745 822.431Z" fill="#F5C3C9"/>
<path opacity="0.8" d="M381.307 610.621H331.83C327.926 610.621 324.762 613.781 324.762 617.681C324.762 621.582 327.926 624.742 331.83 624.742H381.307C385.211 624.742 388.375 621.582 388.375 617.681C388.375 613.781 385.211 610.621 381.307 610.621Z" fill="#FBE0E3"/>
<path opacity="0.8" d="M381.307 850.673H331.83C327.926 850.673 324.762 853.832 324.762 857.733C324.762 861.634 327.926 864.794 331.83 864.794H381.307C385.211 864.794 388.375 861.634 388.375 857.733C388.375 853.832 385.211 850.673 381.307 850.673Z" fill="#FBE0E3"/>
<path opacity="0.8" d="M381.307 638.862H331.83C327.926 638.862 324.762 642.022 324.762 645.923C324.762 649.823 327.926 652.983 331.83 652.983H381.307C385.211 652.983 388.375 649.823 388.375 645.923C388.375 642.022 385.211 638.862 381.307 638.862Z" fill="#FBE0E3"/>
<path opacity="0.8" d="M381.307 878.914H331.83C327.926 878.914 324.762 882.074 324.762 885.974C324.762 889.875 327.926 893.035 331.83 893.035H381.307C385.211 893.035 388.375 889.875 388.375 885.974C388.375 882.074 385.211 878.914 381.307 878.914Z" fill="#FBE0E3"/>
<path opacity="0.8" d="M391.909 667.104H331.83C327.926 667.104 324.762 670.263 324.762 674.164C324.762 678.065 327.926 681.224 331.83 681.224H391.909C395.813 681.224 398.978 678.065 398.978 674.164C398.978 670.263 395.813 667.104 391.909 667.104Z" fill="#FBE0E3"/>
<path opacity="0.8" d="M391.909 907.155H331.83C327.926 907.155 324.762 910.315 324.762 914.216C324.762 918.116 327.926 921.276 331.83 921.276H391.909C395.813 921.276 398.978 918.116 398.978 914.216C398.978 910.315 395.813 907.155 391.909 907.155Z" fill="#FBE0E3"/>
<path opacity="0.8" d="M391.909 695.345H331.83C327.926 695.345 324.762 698.504 324.762 702.405C324.762 706.306 327.926 709.465 331.83 709.465H391.909C395.813 709.465 398.978 706.306 398.978 702.405C398.978 698.504 395.813 695.345 391.909 695.345Z" fill="#FBE0E3"/>
<path opacity="0.8" d="M391.909 935.396H331.83C327.926 935.396 324.762 938.556 324.762 942.457C324.762 946.358 327.926 949.517 331.83 949.517H391.909C395.813 949.517 398.978 946.358 398.978 942.457C398.978 938.556 395.813 935.396 391.909 935.396Z" fill="#FBE0E3"/>
<path opacity="0.8" d="M423.716 723.586H331.83C327.926 723.586 324.762 726.745 324.762 730.646C324.762 734.547 327.926 737.707 331.83 737.707H423.716C427.62 737.707 430.784 734.547 430.784 730.646C430.784 726.745 427.62 723.586 423.716 723.586Z" fill="#FBE0E3"/>
<path opacity="0.8" d="M423.716 963.638H331.83C327.926 963.638 324.762 966.797 324.762 970.698C324.762 974.599 327.926 977.758 331.83 977.758H423.716C427.62 977.758 430.784 974.599 430.784 970.698C430.784 966.797 427.62 963.638 423.716 963.638Z" fill="#FBE0E3"/>
<path opacity="0.8" d="M423.716 751.827H331.83C327.926 751.827 324.762 754.987 324.762 758.888C324.762 762.788 327.926 765.948 331.83 765.948H423.716C427.62 765.948 430.784 762.788 430.784 758.888C430.784 754.987 427.62 751.827 423.716 751.827Z" fill="#FBE0E3"/>
<path opacity="0.8" d="M402.512 780.069H331.83C327.926 780.069 324.762 783.229 324.762 787.13C324.762 791.031 327.926 794.19 331.83 794.19H402.512C406.415 794.19 409.58 791.031 409.58 787.13C409.58 783.229 406.415 780.069 402.512 780.069Z" fill="#FBE0E3"/>
<path opacity="0.8" d="M335.364 356.449C341.22 356.449 345.966 351.707 345.966 345.858C345.966 340.009 341.22 335.268 335.364 335.268C329.508 335.268 324.762 340.009 324.762 345.858C324.762 351.707 329.508 356.449 335.364 356.449Z" fill="#F5C3C9"/>
<path opacity="0.8" d="M335.364 391.75C341.22 391.75 345.966 387.009 345.966 381.16C345.966 375.311 341.22 370.569 335.364 370.569C329.508 370.569 324.762 375.311 324.762 381.16C324.762 387.009 329.508 391.75 335.364 391.75Z" fill="#F5C3C9"/>
<path opacity="0.8" d="M335.364 427.052C341.22 427.052 345.966 422.311 345.966 416.462C345.966 410.612 341.22 405.871 335.364 405.871C329.508 405.871 324.762 410.612 324.762 416.462C324.762 422.311 329.508 427.052 335.364 427.052Z" fill="#F5C3C9"/>
<path opacity="0.8" d="M335.364 462.354C341.22 462.354 345.966 457.612 345.966 451.763C345.966 445.914 341.22 441.173 335.364 441.173C329.508 441.173 324.762 445.914 324.762 451.763C324.762 457.612 329.508 462.354 335.364 462.354Z" fill="#F5C3C9"/>
<path opacity="0.8" d="M335.364 497.656C341.22 497.656 345.966 492.914 345.966 487.065C345.966 481.216 341.22 476.475 335.364 476.475C329.508 476.475 324.762 481.216 324.762 487.065C324.762 492.914 329.508 497.656 335.364 497.656Z" fill="#F5C3C9"/>
<path opacity="0.8" d="M335.364 532.956C341.22 532.956 345.966 528.215 345.966 522.366C345.966 516.517 341.22 511.775 335.364 511.775C329.508 511.775 324.762 516.517 324.762 522.366C324.762 528.215 329.508 532.956 335.364 532.956Z" fill="#F5C3C9"/>
<path opacity="0.8" d="M600.421 248.778L592.014 240.38L600.421 248.778ZM592.014 240.38C593.01 239.4 593.805 238.232 594.35 236.943C594.894 235.655 595.177 234.272 595.18 232.874C595.187 231.476 594.915 230.091 594.382 228.798C593.851 227.505 593.067 226.331 592.077 225.342C591.088 224.353 589.911 223.57 588.617 223.038C587.324 222.505 585.935 222.234 584.536 222.239C583.136 222.245 581.754 222.527 580.464 223.07C579.174 223.613 578.005 224.405 577.022 225.401C575.061 227.393 573.965 230.078 573.976 232.872C573.986 235.665 575.103 238.342 577.082 240.318C579.058 242.293 581.737 243.409 584.536 243.42C587.331 243.432 590.02 242.339 592.014 240.38Z" stroke="#F79CA9" stroke-width="3.73511"/>
</g>
<path d="M358.61 215.789L372.201 223.643C372.82 224.001 373.335 224.516 373.692 225.136C374.05 225.756 374.239 226.459 374.239 227.175V242.884C374.239 244.341 373.466 245.693 372.201 246.422L358.61 254.276C357.989 254.634 357.285 254.823 356.569 254.823C355.853 254.823 355.149 254.634 354.528 254.276L340.937 246.422C340.317 246.063 339.802 245.547 339.444 244.926C339.086 244.305 338.898 243.601 338.898 242.884V227.175C338.898 225.718 339.677 224.371 340.937 223.643L354.528 215.789C355.149 215.43 355.853 215.241 356.569 215.241C357.285 215.241 357.989 215.43 358.61 215.789ZM364.961 227.633L358.314 223.799C357.694 223.442 356.992 223.254 356.278 223.254C355.563 223.254 354.861 223.442 354.242 223.799L347.594 227.633C346.973 227.991 346.458 228.507 346.099 229.128C345.74 229.748 345.551 230.453 345.551 231.17V238.824C345.551 240.281 346.329 241.638 347.594 242.361L354.242 246.196C354.861 246.552 355.563 246.74 356.278 246.74C356.992 246.74 357.694 246.552 358.314 246.196L364.961 242.361C365.582 242.003 366.098 241.488 366.457 240.867C366.815 240.245 367.004 239.541 367.004 238.824V231.17C367.004 229.713 366.221 228.357 364.961 227.633Z" fill="#F5C3C9"/>
<path d="M361.918 234.992C361.918 237.868 359.584 240.2 356.704 240.2C353.825 240.2 351.49 237.868 351.49 234.992C351.49 232.116 353.825 229.784 356.704 229.784C359.584 229.784 361.918 232.116 361.918 234.992Z" fill="#F5C3C9"/>
</g>
</g>
<defs>
<filter id="filter0_d_1029_1172" x="0" y="0" width="1213" height="1023" filterUnits="userSpaceOnUse" color-interpolation-filters="sRGB">
<feFlood flood-opacity="0" result="BackgroundImageFix"/>
<feColorMatrix in="SourceAlpha" type="matrix" values="0 0 0 0 0 0 0 0 0 0 0 0 0 0 0 0 0 0 127 0" result="hardAlpha"/>
<feOffset dy="16"/>
<feGaussianBlur stdDeviation="20"/>
<feComposite in2="hardAlpha" operator="out"/>
<feColorMatrix type="matrix" values="0 0 0 0 0 0 0 0 0 0 0 0 0 0 0 0 0 0 0.08 0"/>
<feBlend mode="normal" in2="BackgroundImageFix" result="effect1_dropShadow_1029_1172"/>
<feBlend mode="normal" in="SourceGraphic" in2="effect1_dropShadow_1029_1172" result="shape"/>
</filter>
<filter id="filter1_dd_1029_1172" x="137.974" y="160.854" width="1356.05" height="931.053" filterUnits="userSpaceOnUse" color-interpolation-filters="sRGB">
<feFlood flood-opacity="0" result="BackgroundImageFix"/>
<feColorMatrix in="SourceAlpha" type="matrix" values="0 0 0 0 0 0 0 0 0 0 0 0 0 0 0 0 0 0 127 0" result="hardAlpha"/>
<feOffset dy="11.2053"/>
<feGaussianBlur stdDeviation="11.2053"/>
<feColorMatrix type="matrix" values="0 0 0 0 0 0 0 0 0 0 0 0 0 0 0 0 0 0 0.05 0"/>
<feBlend mode="normal" in2="BackgroundImageFix" result="effect1_dropShadow_1029_1172"/>
<feColorMatrix in="SourceAlpha" type="matrix" values="0 0 0 0 0 0 0 0 0 0 0 0 0 0 0 0 0 0 127 0" result="hardAlpha"/>
<feOffset dy="29.8809"/>
<feGaussianBlur stdDeviation="28.0133"/>
<feColorMatrix type="matrix" values="0 0 0 0 0 0 0 0 0 0 0 0 0 0 0 0 0 0 0.1 0"/>
<feBlend mode="normal" in2="effect1_dropShadow_1029_1172" result="effect2_dropShadow_1029_1172"/>
<feBlend mode="normal" in="SourceGraphic" in2="effect2_dropShadow_1029_1172" result="shape"/>
</filter>
<linearGradient id="paint0_linear_1029_1172" x1="40" y1="24" x2="967.334" y2="1138.18" gradientUnits="userSpaceOnUse">
<stop stop-color="#EC4899"/>
<stop offset="1" stop-color="#F43F5E"/>
<stop offset="1" stop-color="#F43F5E"/>
</linearGradient>
<clipPath id="clip0_1029_1172">
<rect x="40" y="24" width="1133" height="943" rx="40" fill="white"/>
</clipPath>
<clipPath id="clip1_1029_1172">
<rect width="1244" height="819" fill="white" transform="translate(194.001 187)"/>
</clipPath>
</defs>
</svg>
