<svg width="212" height="44" fill="none" xmlns="http://www.w3.org/2000/svg"><rect width="212" height="44" rx="5" fill="#fff"/><mask id="a" maskUnits="userSpaceOnUse" x="20" y="15.227" width="55" height="13" fill="#000"><path fill="#fff" d="M20 15.227h55v13H20z"/><path d="M21 25.286v-9.059h5.617v1.177h-4.25v2.76h3.848v1.172h-3.848v3.95H21ZM30.555 25.423c-.637 0-1.193-.146-1.668-.438a2.953 2.953 0 0 1-1.106-1.225c-.262-.525-.393-1.139-.393-1.84 0-.705.131-1.321.393-1.849a2.947 2.947 0 0 1 1.106-1.23c.475-.292 1.03-.437 1.668-.437.637 0 1.192.145 1.667.437.475.292.843.702 1.106 1.23.262.528.393 1.144.393 1.849 0 .701-.13 1.315-.393 1.84a2.952 2.952 0 0 1-1.106 1.225c-.475.292-1.03.438-1.667.438Zm.004-1.11c.413 0 .755-.11 1.026-.328a1.92 1.92 0 0 0 .602-.871c.132-.363.199-.762.199-1.199 0-.433-.067-.831-.2-1.194a1.947 1.947 0 0 0-.6-.88c-.272-.221-.614-.332-1.027-.332-.416 0-.76.11-1.035.332a1.976 1.976 0 0 0-.606.88c-.13.363-.194.76-.194 1.194 0 .437.064.836.194 1.199.133.363.335.653.606.871.274.218.62.328 1.035.328ZM35.198 25.286v-6.794h1.278v1.08h.07c.124-.366.343-.654.655-.863a1.873 1.873 0 0 1 1.07-.319 5.64 5.64 0 0 1 .562.031v1.265a2.364 2.364 0 0 0-.283-.048 2.695 2.695 0 0 0-.407-.031c-.312 0-.591.066-.836.199a1.48 1.48 0 0 0-.787 1.33v4.15h-1.322ZM39.978 25.286v-6.794h1.269v1.106h.084c.142-.375.373-.667.694-.876.322-.212.707-.318 1.155-.318.454 0 .834.106 1.141.318.31.212.538.504.686.876h.07c.163-.363.42-.652.774-.867.354-.218.776-.327 1.265-.327.617 0 1.12.193 1.508.579.393.386.589.969.589 1.747v4.556H47.89v-4.432c0-.46-.125-.793-.376-1-.25-.206-.55-.31-.898-.31-.43 0-.765.133-1.004.399-.238.262-.358.6-.358 1.013v4.33h-1.318V20.77c0-.369-.115-.665-.345-.89-.23-.223-.53-.335-.898-.335-.25 0-.482.066-.694.199a1.46 1.46 0 0 0-.509.544c-.127.233-.19.503-.19.81v4.188h-1.322ZM56.076 20.15l-1.199.213a1.42 1.42 0 0 0-.239-.438 1.181 1.181 0 0 0-.433-.34 1.57 1.57 0 0 0-.685-.133c-.375 0-.688.084-.938.252-.25.165-.376.379-.376.641 0 .227.084.41.252.549.168.138.44.252.814.34l1.08.248c.624.144 1.09.367 1.397.668.306.3.46.691.46 1.172 0 .407-.118.77-.354 1.088-.233.315-.559.563-.978.743-.415.18-.898.27-1.446.27-.76 0-1.381-.162-1.862-.487-.48-.327-.776-.791-.885-1.393l1.279-.195c.08.334.243.586.49.757.248.168.571.252.97.252.433 0 .78-.09 1.039-.27.26-.183.389-.405.389-.668 0-.212-.08-.39-.239-.535-.156-.145-.397-.254-.72-.327l-1.15-.252c-.635-.145-1.104-.375-1.407-.69-.301-.316-.452-.715-.452-1.199 0-.401.112-.752.337-1.053.224-.3.533-.535.928-.703a3.39 3.39 0 0 1 1.358-.256c.734 0 1.312.159 1.734.477.422.316.7.739.836 1.27ZM61.065 25.286v-9.059h1.323v3.366h.08c.076-.141.186-.305.33-.49.145-.186.346-.349.602-.487.257-.142.596-.212 1.018-.212.548 0 1.037.138 1.468.415.43.277.768.677 1.013 1.199.248.522.371 1.15.371 1.884s-.122 1.364-.367 1.889c-.244.522-.58.924-1.008 1.207a2.61 2.61 0 0 1-1.464.42c-.413 0-.75-.069-1.013-.208-.26-.138-.463-.3-.61-.486a3.677 3.677 0 0 1-.34-.495h-.112v1.057h-1.291Zm1.296-3.397c0 .477.07.896.208 1.256.138.36.339.641.601.845.263.2.584.3.965.3.395 0 .725-.104.99-.314.266-.212.466-.5.602-.862.138-.363.208-.771.208-1.225 0-.448-.068-.85-.204-1.208a1.849 1.849 0 0 0-.601-.844c-.266-.207-.597-.31-.995-.31-.384 0-.708.099-.974.296a1.82 1.82 0 0 0-.597.827c-.135.354-.203.767-.203 1.239ZM69.36 27.833c-.197 0-.377-.016-.54-.048a1.698 1.698 0 0 1-.362-.098l.318-1.083c.242.065.457.093.646.084a.773.773 0 0 0 .5-.213c.147-.132.277-.349.39-.65l.163-.45-2.486-6.883h1.415l1.721 5.272h.07l1.721-5.272h1.42l-2.8 7.7a3.07 3.07 0 0 1-.495.898c-.2.248-.44.434-.717.558a2.344 2.344 0 0 1-.964.185Z"/></mask><path d="M21 25.286v-9.059h5.617v1.177h-4.25v2.76h3.848v1.172h-3.848v3.95H21ZM30.555 25.423c-.637 0-1.193-.146-1.668-.438a2.953 2.953 0 0 1-1.106-1.225c-.262-.525-.393-1.139-.393-1.84 0-.705.131-1.321.393-1.849a2.947 2.947 0 0 1 1.106-1.23c.475-.292 1.03-.437 1.668-.437.637 0 1.192.145 1.667.437.475.292.843.702 1.106 1.23.262.528.393 1.144.393 1.849 0 .701-.13 1.315-.393 1.84a2.952 2.952 0 0 1-1.106 1.225c-.475.292-1.03.438-1.667.438Zm.004-1.11c.413 0 .755-.11 1.026-.328a1.92 1.92 0 0 0 .602-.871c.132-.363.199-.762.199-1.199 0-.433-.067-.831-.2-1.194a1.947 1.947 0 0 0-.6-.88c-.272-.221-.614-.332-1.027-.332-.416 0-.76.11-1.035.332a1.976 1.976 0 0 0-.606.88c-.13.363-.194.76-.194 1.194 0 .437.064.836.194 1.199.133.363.335.653.606.871.274.218.62.328 1.035.328ZM35.198 25.286v-6.794h1.278v1.08h.07c.124-.366.343-.654.655-.863a1.873 1.873 0 0 1 1.07-.319 5.64 5.64 0 0 1 .562.031v1.265a2.364 2.364 0 0 0-.283-.048 2.695 2.695 0 0 0-.407-.031c-.312 0-.591.066-.836.199a1.48 1.48 0 0 0-.787 1.33v4.15h-1.322ZM39.978 25.286v-6.794h1.269v1.106h.084c.142-.375.373-.667.694-.876.322-.212.707-.318 1.155-.318.454 0 .834.106 1.141.318.31.212.538.504.686.876h.07c.163-.363.42-.652.774-.867.354-.218.776-.327 1.265-.327.617 0 1.12.193 1.508.579.393.386.589.969.589 1.747v4.556H47.89v-4.432c0-.46-.125-.793-.376-1-.25-.206-.55-.31-.898-.31-.43 0-.765.133-1.004.399-.238.262-.358.6-.358 1.013v4.33h-1.318V20.77c0-.369-.115-.665-.345-.89-.23-.223-.53-.335-.898-.335-.25 0-.482.066-.694.199a1.46 1.46 0 0 0-.509.544c-.127.233-.19.503-.19.81v4.188h-1.322ZM56.076 20.15l-1.199.213a1.42 1.42 0 0 0-.239-.438 1.181 1.181 0 0 0-.433-.34 1.57 1.57 0 0 0-.685-.133c-.375 0-.688.084-.938.252-.25.165-.376.379-.376.641 0 .227.084.41.252.549.168.138.44.252.814.34l1.08.248c.624.144 1.09.367 1.397.668.306.3.46.691.46 1.172 0 .407-.118.77-.354 1.088-.233.315-.559.563-.978.743-.415.18-.898.27-1.446.27-.76 0-1.381-.162-1.862-.487-.48-.327-.776-.791-.885-1.393l1.279-.195c.08.334.243.586.49.757.248.168.571.252.97.252.433 0 .78-.09 1.039-.27.26-.183.389-.405.389-.668 0-.212-.08-.39-.239-.535-.156-.145-.397-.254-.72-.327l-1.15-.252c-.635-.145-1.104-.375-1.407-.69-.301-.316-.452-.715-.452-1.199 0-.401.112-.752.337-1.053.224-.3.533-.535.928-.703a3.39 3.39 0 0 1 1.358-.256c.734 0 1.312.159 1.734.477.422.316.7.739.836 1.27ZM61.065 25.286v-9.059h1.323v3.366h.08c.076-.141.186-.305.33-.49.145-.186.346-.349.602-.487.257-.142.596-.212 1.018-.212.548 0 1.037.138 1.468.415.43.277.768.677 1.013 1.199.248.522.371 1.15.371 1.884s-.122 1.364-.367 1.889c-.244.522-.58.924-1.008 1.207a2.61 2.61 0 0 1-1.464.42c-.413 0-.75-.069-1.013-.208-.26-.138-.463-.3-.61-.486a3.677 3.677 0 0 1-.34-.495h-.112v1.057h-1.291Zm1.296-3.397c0 .477.07.896.208 1.256.138.36.339.641.601.845.263.2.584.3.965.3.395 0 .725-.104.99-.314.266-.212.466-.5.602-.862.138-.363.208-.771.208-1.225 0-.448-.068-.85-.204-1.208a1.849 1.849 0 0 0-.601-.844c-.266-.207-.597-.31-.995-.31-.384 0-.708.099-.974.296a1.82 1.82 0 0 0-.597.827c-.135.354-.203.767-.203 1.239ZM69.36 27.833c-.197 0-.377-.016-.54-.048a1.698 1.698 0 0 1-.362-.098l.318-1.083c.242.065.457.093.646.084a.773.773 0 0 0 .5-.213c.147-.132.277-.349.39-.65l.163-.45-2.486-6.883h1.415l1.721 5.272h.07l1.721-5.272h1.42l-2.8 7.7a3.07 3.07 0 0 1-.495.898c-.2.248-.44.434-.717.558a2.344 2.344 0 0 1-.964.185Z" fill="#000"/><path d="M21 25.286v-9.059h5.617v1.177h-4.25v2.76h3.848v1.172h-3.848v3.95H21ZM30.555 25.423c-.637 0-1.193-.146-1.668-.438a2.953 2.953 0 0 1-1.106-1.225c-.262-.525-.393-1.139-.393-1.84 0-.705.131-1.321.393-1.849a2.947 2.947 0 0 1 1.106-1.23c.475-.292 1.03-.437 1.668-.437.637 0 1.192.145 1.667.437.475.292.843.702 1.106 1.23.262.528.393 1.144.393 1.849 0 .701-.13 1.315-.393 1.84a2.952 2.952 0 0 1-1.106 1.225c-.475.292-1.03.438-1.667.438Zm.004-1.11c.413 0 .755-.11 1.026-.328a1.92 1.92 0 0 0 .602-.871c.132-.363.199-.762.199-1.199 0-.433-.067-.831-.2-1.194a1.947 1.947 0 0 0-.6-.88c-.272-.221-.614-.332-1.027-.332-.416 0-.76.11-1.035.332a1.976 1.976 0 0 0-.606.88c-.13.363-.194.76-.194 1.194 0 .437.064.836.194 1.199.133.363.335.653.606.871.274.218.62.328 1.035.328ZM35.198 25.286v-6.794h1.278v1.08h.07c.124-.366.343-.654.655-.863a1.873 1.873 0 0 1 1.07-.319 5.64 5.64 0 0 1 .562.031v1.265a2.364 2.364 0 0 0-.283-.048 2.695 2.695 0 0 0-.407-.031c-.312 0-.591.066-.836.199a1.48 1.48 0 0 0-.787 1.33v4.15h-1.322ZM39.978 25.286v-6.794h1.269v1.106h.084c.142-.375.373-.667.694-.876.322-.212.707-.318 1.155-.318.454 0 .834.106 1.141.318.31.212.538.504.686.876h.07c.163-.363.42-.652.774-.867.354-.218.776-.327 1.265-.327.617 0 1.12.193 1.508.579.393.386.589.969.589 1.747v4.556H47.89v-4.432c0-.46-.125-.793-.376-1-.25-.206-.55-.31-.898-.31-.43 0-.765.133-1.004.399-.238.262-.358.6-.358 1.013v4.33h-1.318V20.77c0-.369-.115-.665-.345-.89-.23-.223-.53-.335-.898-.335-.25 0-.482.066-.694.199a1.46 1.46 0 0 0-.509.544c-.127.233-.19.503-.19.81v4.188h-1.322ZM56.076 20.15l-1.199.213a1.42 1.42 0 0 0-.239-.438 1.181 1.181 0 0 0-.433-.34 1.57 1.57 0 0 0-.685-.133c-.375 0-.688.084-.938.252-.25.165-.376.379-.376.641 0 .227.084.41.252.549.168.138.44.252.814.34l1.08.248c.624.144 1.09.367 1.397.668.306.3.46.691.46 1.172 0 .407-.118.77-.354 1.088-.233.315-.559.563-.978.743-.415.18-.898.27-1.446.27-.76 0-1.381-.162-1.862-.487-.48-.327-.776-.791-.885-1.393l1.279-.195c.08.334.243.586.49.757.248.168.571.252.97.252.433 0 .78-.09 1.039-.27.26-.183.389-.405.389-.668 0-.212-.08-.39-.239-.535-.156-.145-.397-.254-.72-.327l-1.15-.252c-.635-.145-1.104-.375-1.407-.69-.301-.316-.452-.715-.452-1.199 0-.401.112-.752.337-1.053.224-.3.533-.535.928-.703a3.39 3.39 0 0 1 1.358-.256c.734 0 1.312.159 1.734.477.422.316.7.739.836 1.27ZM61.065 25.286v-9.059h1.323v3.366h.08c.076-.141.186-.305.33-.49.145-.186.346-.349.602-.487.257-.142.596-.212 1.018-.212.548 0 1.037.138 1.468.415.43.277.768.677 1.013 1.199.248.522.371 1.15.371 1.884s-.122 1.364-.367 1.889c-.244.522-.58.924-1.008 1.207a2.61 2.61 0 0 1-1.464.42c-.413 0-.75-.069-1.013-.208-.26-.138-.463-.3-.61-.486a3.677 3.677 0 0 1-.34-.495h-.112v1.057h-1.291Zm1.296-3.397c0 .477.07.896.208 1.256.138.36.339.641.601.845.263.2.584.3.965.3.395 0 .725-.104.99-.314.266-.212.466-.5.602-.862.138-.363.208-.771.208-1.225 0-.448-.068-.85-.204-1.208a1.849 1.849 0 0 0-.601-.844c-.266-.207-.597-.31-.995-.31-.384 0-.708.099-.974.296a1.82 1.82 0 0 0-.597.827c-.135.354-.203.767-.203 1.239ZM69.36 27.833c-.197 0-.377-.016-.54-.048a1.698 1.698 0 0 1-.362-.098l.318-1.083c.242.065.457.093.646.084a.773.773 0 0 0 .5-.213c.147-.132.277-.349.39-.65l.163-.45-2.486-6.883h1.415l1.721 5.272h.07l1.721-5.272h1.42l-2.8 7.7a3.07 3.07 0 0 1-.495.898c-.2.248-.44.434-.717.558a2.344 2.344 0 0 1-.964.185Z" stroke="#000" stroke-width=".4" mask="url(#a)"/><path fill-rule="evenodd" clip-rule="evenodd" d="M80.204 12a2 2 0 0 1 2-2h17.333a2 2 0 0 1 2 2v2.857a2 2 0 0 1-2 2H82.204a2 2 0 0 1-2-2V12Zm0 8.572a2 2 0 0 1 2-2h17.333a2 2 0 0 1 2 2v2.857a2 2 0 0 1-2 2H82.204a2 2 0 0 1-2-2v-2.857Zm2 6.57a2 2 0 0 0-2 2.001V32a2 2 0 0 0 2 2h8a2 2 0 0 0 2-2v-2.857a2 2 0 0 0-2-2h-8Z" fill="url(#b)"/><path d="M107.793 15.758v10.176c0 .328.184.512.512.512h1.248c.328 0 .512-.184.512-.512V21.91h3.648c.328 0 .512-.184.512-.512v-.928c0-.328-.184-.512-.512-.512h-3.648v-2.76h4.032c.328 0 .512-.184.512-.512v-.928c0-.328-.184-.512-.512-.512h-5.792c-.328 0-.512.184-.512.512Zm7.686 6.544c0 2.425 1.968 4.336 4.6 4.336 2.64 0 4.6-1.912 4.6-4.336 0-2.424-1.96-4.335-4.6-4.335-2.632 0-4.6 1.911-4.6 4.335Zm2.208 0a2.358 2.358 0 0 1 2.392-2.392c1.36 0 2.4 1.049 2.4 2.392 0 1.352-1.04 2.392-2.4 2.392-1.352 0-2.392-1.04-2.392-2.392Zm12.707-2.392c.104 0 .216.009.336.024.352.056.56-.072.592-.416l.072-.928c.024-.296-.096-.536-.392-.592a1.478 1.478 0 0 0-.328-.032c-.952 0-1.688.504-2.216 1.208v-.504c0-.328-.184-.512-.512-.512h-1.176c-.328 0-.512.184-.512.512v7.264c0 .328.184.512.512.512h1.176c.328 0 .512-.184.512-.512v-3.88c0-1.287.88-2.144 1.936-2.144Zm12.386-1.944c-1.129 0-2.097.648-2.665 1.672-.535-1.04-1.568-1.672-2.783-1.672-.904 0-1.705.416-2.281 1.104v-.4c0-.328-.183-.512-.511-.512h-1.176c-.328 0-.513.184-.513.512v7.264c0 .328.185.512.513.512h1.176c.328 0 .511-.184.511-.512v-4c0-1.248.865-2.024 1.8-2.024.848 0 1.448.72 1.448 1.64v4.384c0 .328.185.512.513.512h1.176c.328 0 .511-.184.511-.512v-4c0-1.248.865-2.024 1.8-2.024.848 0 1.448.72 1.448 1.64v4.384c0 .328.185.512.513.512h1.176c.328 0 .511-.184.511-.512v-4.616c0-2.008-1.383-3.352-3.167-3.352Zm5.334 6.312-.248.28c-.208.232-.232.48-.016.72.784.889 1.696 1.36 2.792 1.36 2.056 0 3.28-1.096 3.28-2.56 0-1.4-.88-2.28-2.8-2.672-.928-.192-1.32-.551-1.32-.992 0-.424.432-.688.952-.688.408 0 .712.16.896.456.152.257.288.4.584.4h1.056c.36 0 .56-.224.448-.567-.416-1.257-1.456-2.049-3.096-2.049-1.8 0-2.992 1.024-2.992 2.416 0 1.377.896 2.288 2.696 2.656 1.072.216 1.424.52 1.424 1.017 0 .503-.456.823-1.216.823-.656 0-1.2-.224-1.72-.64-.264-.215-.504-.207-.72.04Zm16.314-1.976c0-2.424-1.688-4.335-4-4.335-1.16 0-2.104.447-2.76 1.183v-.48c0-.328-.184-.512-.512-.512h-1.152c-.328 0-.512.184-.512.512v10.976c0 .328.184.512.512.512h1.152c.328 0 .512-.184.512-.512v-4.192c.656.736 1.6 1.184 2.76 1.184 2.312 0 4-1.912 4-4.336Zm-2.208 0c0 1.352-.992 2.392-2.264 2.392-1.28 0-2.288-1.04-2.288-2.392 0-1.343 1.008-2.392 2.288-2.392 1.272 0 2.264 1.049 2.264 2.392Zm7.924-2.392c.104 0 .216.009.336.024.352.056.56-.072.592-.416l.072-.928c.024-.296-.096-.536-.392-.592a1.478 1.478 0 0 0-.328-.032c-.952 0-1.688.504-2.216 1.208v-.504c0-.328-.184-.512-.512-.512h-1.176c-.328 0-.512.184-.512.512v7.264c0 .328.184.512.512.512h1.176c.328 0 .512-.184.512-.512v-3.88c0-1.287.88-2.144 1.936-2.144Zm3.887 3.048h6.056c.313 0 .52-.151.553-.463.008-.113.015-.233.015-.337 0-2.312-1.808-4.192-4.343-4.192-2.568 0-4.504 1.912-4.504 4.336 0 2.425 1.88 4.336 4.711 4.336 1.512 0 2.617-.568 3.48-1.392.233-.232.217-.495-.015-.728l-.393-.392c-.224-.224-.471-.232-.727-.032-.665.52-1.4.792-2.352.792-1.329 0-2.289-.776-2.481-1.928Zm2.265-3.24c1.072 0 1.856.688 2.096 1.672h-4.305c.297-1.008 1.169-1.672 2.209-1.672Zm7.626 3.24h6.056c.312 0 .52-.151.552-.463.008-.113.016-.233.016-.337 0-2.312-1.808-4.192-4.344-4.192-2.568 0-4.504 1.912-4.504 4.336 0 2.425 1.88 4.336 4.712 4.336 1.512 0 2.616-.568 3.48-1.392.232-.232.216-.495-.016-.728l-.392-.392c-.224-.224-.472-.232-.728-.032-.664.52-1.4.792-2.352.792-1.328 0-2.288-.776-2.48-1.928Zm2.264-3.24c1.072 0 1.856.688 2.096 1.672h-4.304c.296-1.008 1.168-1.672 2.208-1.672Z" fill="#000"/><defs><linearGradient id="b" x1="80.204" y1="10" x2="104.204" y2="34" gradientUnits="userSpaceOnUse"><stop stop-color="#EA1330"/><stop offset="1" stop-color="#AF041A"/></linearGradient></defs></svg>
