<svg width="151" height="47" viewBox="0 0 151 47" fill="none" xmlns="http://www.w3.org/2000/svg">
    <rect x="0.253418" y="0.852539" width="150.217" height="45.3826" rx="6" fill="white" />
    <g clip-path="url(#clip0_1804_54)">
        <path
            d="M47.2167 27.4397C47.2167 27.8238 47.1353 28.1628 46.9726 28.461C46.8099 28.7593 46.584 28.9898 46.2857 29.1525C45.9874 29.3152 45.653 29.3965 45.2688 29.3965H43.3662V32.1669H45.6711C46.5388 32.1669 47.3161 31.9725 48.0075 31.5839C48.699 31.1952 49.2413 30.6574 49.6345 29.975C50.0277 29.2926 50.2265 28.5243 50.2265 27.6656V18.5592H47.2167V27.4397ZM55.32 26.6126H61.6241V24.0683H55.32V21.1804H62.2885V18.5592H52.3867V32.1623H62.4827V29.5412H55.32V26.6126ZM63.4276 21.2573H67.4585V32.1578H70.4687V21.2573H74.4815V18.5592H63.4231V21.2618L63.4276 21.2573ZM84.7674 25.3427C84.5328 25.2162 84.275 25.1213 84.0082 25.049C84.2119 24.9902 84.4062 24.9179 84.5868 24.8275C85.0842 24.5699 85.4772 24.2084 85.7572 23.7429C86.0377 23.2774 86.182 22.7441 86.182 22.1385C86.182 21.447 85.9923 20.8279 85.6174 20.2811C85.2421 19.7387 84.7134 19.314 84.0354 19.0066C83.3574 18.7038 82.5804 18.5502 81.7127 18.5502H75.67V32.1533H81.8303C82.7429 32.1533 83.5566 31.9951 84.275 31.6742C84.9889 31.3534 85.5448 30.9105 85.9428 30.3366C86.3359 29.7671 86.5346 29.1163 86.5346 28.3842C86.5346 27.7108 86.3812 27.1098 86.069 26.5765C85.7572 26.0432 85.3279 25.632 84.772 25.3382L84.7674 25.3427ZM78.594 20.8415H81.2652C81.6356 20.8415 81.961 20.9093 82.246 21.0403C82.5305 21.1714 82.752 21.3612 82.9104 21.6097C83.0683 21.8538 83.1495 22.143 83.1495 22.473C83.1495 22.8029 83.0683 23.1147 82.9104 23.3723C82.752 23.6299 82.5305 23.8242 82.246 23.9643C81.961 24.1044 81.6356 24.1722 81.2652 24.1722H78.594V20.837V20.8415ZM83.1949 29.0711C83.0234 29.3287 82.7792 29.5276 82.4674 29.6677C82.1511 29.8078 81.794 29.8756 81.3828 29.8756H78.594V26.3867H81.3828C81.7849 26.3867 82.142 26.4635 82.4584 26.6126C82.7701 26.7618 83.0188 26.9697 83.1904 27.2408C83.3619 27.512 83.4527 27.8193 83.4527 28.1673C83.4527 28.5153 83.3665 28.8136 83.1949 29.0711ZM96.6264 26.6624C97.3811 26.3008 97.9638 25.7901 98.38 25.1348C98.7957 24.4795 99.0035 23.7203 99.0035 22.8526C99.0035 21.9849 98.8002 21.2527 98.3936 20.602C97.9865 19.9512 97.4083 19.4495 96.6627 19.0925C95.9166 18.7355 95.0534 18.5592 94.0681 18.5592H88.1121V32.1623H91.1264V27.2092H93.0879L95.849 32.1623H99.2881L96.1789 26.8431C96.3327 26.7889 96.4861 26.7301 96.6309 26.6624H96.6264ZM95.6502 23.883C95.4827 24.1677 95.2436 24.3892 94.9318 24.5383C94.6195 24.6919 94.2538 24.7688 93.8335 24.7688H91.1219V21.0042H93.8335C94.2538 21.0042 94.6195 21.081 94.9318 21.2301C95.2436 21.3793 95.4827 21.6007 95.6502 21.8809C95.8172 22.1611 95.9034 22.4956 95.9034 22.8751C95.9034 23.2548 95.8172 23.5892 95.6502 23.8739V23.883ZM104.996 18.5592L100.138 32.1623H103.197L104.16 29.1615H109.204L110.234 32.1623H113.235L108.259 18.5592H104.996ZM104.842 26.8838L106.406 22.0843L106.591 21.2121L106.777 22.0843L108.449 26.8838H104.842ZM114.233 32.1623H117.343V18.5592H114.233V32.1623ZM128.311 27.7605L122.459 18.5592H119.526V32.1623H122.273V22.9611L128.094 32.1623H131.059V18.5592H128.311V27.7605ZM142.619 26.2375C142.326 25.6726 141.91 25.1981 141.381 24.8139C140.852 24.4298 140.242 24.1767 139.555 24.0457L137.242 23.5711C136.88 23.4853 136.591 23.3361 136.378 23.1192C136.166 22.9023 136.057 22.6311 136.057 22.3103C136.057 22.0165 136.134 21.7634 136.292 21.5465C136.446 21.3295 136.667 21.1624 136.947 21.0403C137.228 20.9183 137.553 20.8596 137.924 20.8596C138.294 20.8596 138.629 20.9228 138.913 21.0494C139.198 21.1759 139.419 21.3521 139.578 21.5826C139.736 21.8131 139.817 22.0707 139.817 22.3645H142.832C142.814 21.5736 142.592 20.8731 142.176 20.2675C141.761 19.6574 141.178 19.1829 140.436 18.8394C139.695 18.4959 138.846 18.3242 137.896 18.3242C136.947 18.3242 136.107 18.5005 135.37 18.8575C134.634 19.2145 134.055 19.7071 133.644 20.3398C133.233 20.9725 133.025 21.6911 133.025 22.5001C133.025 23.1554 133.156 23.7474 133.423 24.2716C133.689 24.8004 134.064 25.2388 134.548 25.5868C135.036 25.9348 135.596 26.1788 136.238 26.3144L138.687 26.8205C139.09 26.9154 139.406 27.0917 139.641 27.3447C139.876 27.5978 139.989 27.9097 139.989 28.2893C139.989 28.5921 139.903 28.8678 139.732 29.1073C139.56 29.3468 139.32 29.5321 139.013 29.6632C138.706 29.7942 138.344 29.8575 137.928 29.8575C137.512 29.8575 137.119 29.7852 136.78 29.6406C136.441 29.496 136.179 29.2881 135.994 29.0169C135.804 28.7503 135.714 28.4384 135.714 28.0905H132.7C132.713 28.9401 132.939 29.6858 133.386 30.3366C133.829 30.9828 134.439 31.489 135.217 31.8505C135.994 32.2121 136.884 32.3928 137.888 32.3928C138.891 32.3928 139.795 32.2075 140.572 31.8369C141.354 31.4664 141.96 30.9557 142.398 30.3049C142.836 29.6541 143.053 28.9175 143.053 28.095C143.053 27.4216 142.904 26.8025 142.61 26.233L142.619 26.2375Z"
            fill="black" />
        <path
            d="M17.1986 10.6815L9.62878 18.2513C8.56682 19.3133 7.96777 20.7565 7.96777 22.2632V35.7963C7.96777 37.0488 8.98434 38.0654 10.2369 38.0654H23.77C25.2767 38.0654 26.7153 37.4663 27.7818 36.4044L35.3517 28.8346C36.4136 27.7726 37.0127 26.3294 37.0127 24.8227V11.2896C37.0127 10.0371 35.9961 9.02051 34.7435 9.02051H21.2104C19.7037 9.02051 18.2651 9.61956 17.1986 10.6815Z"
            fill="url(#paint0_linear_1804_54)" />
        <path d="M29.7512 16.2812H11.5981V34.4343H29.7512V16.2812Z" fill="black" />
        <path d="M21.5827 30.3506H13.8677V32.1659H21.5827V30.3506Z" fill="white" />
    </g>
    <defs>
        <linearGradient id="paint0_linear_1804_54" x1="8.35353" y1="37.4845" x2="36.3864" y2="9.84193"
            gradientUnits="userSpaceOnUse">
            <stop stop-color="#FF9419" />
            <stop offset="0.43" stop-color="#FF021D" />
            <stop offset="0.99" stop-color="#E600FF" />
        </linearGradient>
        <clipPath id="clip0_1804_54">
            <rect width="135.24" height="29.0449" fill="white" transform="translate(7.96777 9.02051)" />
        </clipPath>
    </defs>
</svg>