<svg xmlns="http://www.w3.org/2000/svg" width="212" height="44" fill="none" viewBox="0 0 212 44"><rect width="212" height="44" fill="#000" rx="6"/><path fill="#000" d="M111.632 15.9678V15.1958C111.632 14.9365 111.528 14.688 111.345 14.5048C111.162 14.3216 110.913 14.2188 110.654 14.2188H108.374C108.115 14.2188 107.866 14.3216 107.683 14.5048C107.499 14.688 107.396 14.9365 107.396 15.1958V15.9887C107.396 16.0768 107.478 16.1388 107.567 16.1188C108.212 15.9325 108.88 15.8382 109.551 15.8387C110.201 15.8387 110.846 15.9268 111.468 16.0978C111.55 16.1178 111.632 16.0578 111.632 15.9678ZM105.384 16.9777L104.994 16.5887C104.903 16.498 104.795 16.426 104.677 16.3769C104.558 16.3277 104.431 16.3024 104.303 16.3024C104.174 16.3024 104.047 16.3277 103.929 16.3769C103.81 16.426 103.703 16.498 103.612 16.5887L103.147 17.0538C103.056 17.1442 102.984 17.2517 102.934 17.3701C102.885 17.4885 102.86 17.6155 102.86 17.7438C102.86 17.872 102.885 17.999 102.934 18.1174C102.984 18.2358 103.056 18.3433 103.147 18.4337L103.53 18.8168C103.592 18.8777 103.68 18.8637 103.735 18.8028C103.961 18.4957 104.207 18.2018 104.481 17.9288C104.762 17.6488 105.049 17.4028 105.364 17.1778C105.432 17.1358 105.439 17.0407 105.384 16.9777ZM109.544 19.4308V22.7717C109.544 22.8677 109.648 22.9367 109.736 22.8887L112.706 21.3517C112.774 21.3177 112.795 21.2347 112.761 21.1677C112.449 20.6198 112.003 20.1607 111.463 19.8341C110.924 19.5075 110.311 19.3242 109.681 19.3017C109.613 19.3017 109.545 19.3557 109.545 19.4317L109.544 19.4308ZM109.545 27.4797C108.355 27.48 107.214 27.0081 106.372 26.1678C105.531 25.3274 105.057 24.1872 105.055 22.9977C105.056 21.8081 105.53 20.6678 106.372 19.8274C107.214 18.987 108.355 18.5152 109.545 18.5158C110.734 18.5155 111.875 18.9874 112.717 19.8278C113.559 20.6681 114.032 21.8083 114.034 22.9977C114.034 23.5869 113.917 24.1703 113.691 24.7144C113.465 25.2586 113.135 25.753 112.718 26.1692C112.301 26.5855 111.806 26.9154 111.261 27.1403C110.717 27.3652 110.133 27.4805 109.544 27.4797H109.545ZM109.544 16.6298C107.856 16.6298 106.237 17.3003 105.043 18.4939C103.85 19.6874 103.179 21.3062 103.179 22.9942C103.179 24.6822 103.85 26.301 105.043 27.4946C106.237 28.6882 107.856 29.3587 109.544 29.3587C110.38 29.359 111.209 29.1945 111.982 28.8746C112.755 28.5547 113.457 28.0857 114.049 27.4944C114.64 26.9031 115.11 26.201 115.43 25.4283C115.75 24.6555 115.916 23.8272 115.916 22.9907C115.916 22.1545 115.751 21.3265 115.431 20.554C115.111 19.7816 114.641 19.0798 114.05 18.4891C113.458 17.8983 112.755 17.43 111.982 17.1112C111.209 16.7923 110.381 16.629 109.545 16.6308"/><path fill="#fff" d="M28.612 16H25V25.8H26.61V22.44H28.612C29.536 22.44 30.306 22.132 30.922 21.516C31.538 20.9 31.86 20.13 31.86 19.22C31.86 18.31 31.538 17.54 30.922 16.924C30.306 16.308 29.536 16 28.612 16ZM28.612 20.928H26.61V17.512H28.612C29.088 17.512 29.48 17.68 29.788 18.002C30.096 18.324 30.25 18.73 30.25 19.22C30.25 19.724 30.096 20.13 29.788 20.452C29.48 20.774 29.088 20.928 28.612 20.928Z"/><path fill="#fff" d="M35.9716 25.982C37.0076 25.982 37.8756 25.632 38.5896 24.918C39.3036 24.218 39.6676 23.336 39.6676 22.3C39.6676 21.264 39.3036 20.396 38.5896 19.682C37.8756 18.982 37.0076 18.618 35.9716 18.618C34.9356 18.618 34.0676 18.982 33.3536 19.682C32.6256 20.396 32.2756 21.264 32.2756 22.3C32.2756 23.336 32.6256 24.218 33.3536 24.918C34.0676 25.632 34.9356 25.982 35.9716 25.982ZM35.9716 24.512C35.3556 24.512 34.8376 24.302 34.4176 23.882C33.9976 23.462 33.7876 22.944 33.7876 22.3C33.7876 21.67 33.9976 21.138 34.4176 20.718C34.8376 20.298 35.3556 20.088 35.9716 20.088C36.5876 20.088 37.1056 20.298 37.5256 20.718C37.9456 21.138 38.1556 21.67 38.1556 22.3C38.1556 22.944 37.9456 23.462 37.5256 23.882C37.1056 24.302 36.5876 24.512 35.9716 24.512Z"/><path fill="#fff" d="M48.8254 18.8L47.4534 23.63L45.9974 18.8H44.5554L43.0854 23.63L41.7274 18.8H40.1314L42.3294 25.8H43.8134L45.2834 21.082L46.7394 25.8H48.2234L50.4214 18.8H48.8254Z"/><path fill="#fff" d="M52.4514 22.944H58.0234C58.0514 22.692 58.0794 22.482 58.0794 22.314C58.0794 21.292 57.7434 20.424 57.0854 19.696C56.4274 18.982 55.5874 18.618 54.5654 18.618C53.4734 18.618 52.5914 18.982 51.9054 19.682C51.2054 20.382 50.8694 21.264 50.8694 22.3C50.8694 23.364 51.2194 24.246 51.9194 24.946C52.6194 25.646 53.5294 25.982 54.6774 25.982C56.0214 25.982 57.0434 25.478 57.7434 24.456L56.4974 23.728C56.0914 24.316 55.4894 24.596 54.6914 24.596C54.1034 24.596 53.6134 24.456 53.2214 24.176C52.8154 23.896 52.5634 23.476 52.4514 22.944ZM52.4374 21.712C52.5354 21.18 52.7734 20.76 53.1514 20.452C53.5154 20.144 53.9914 19.99 54.5514 19.99C55.0414 19.99 55.4754 20.144 55.8394 20.424C56.2034 20.718 56.4414 21.152 56.5534 21.712H52.4374Z"/><path fill="#fff" d="M60.9218 19.976V18.8H59.4098V25.8H60.9218V22.272C60.9218 21.558 61.1318 21.04 61.5658 20.732C61.9858 20.424 62.4898 20.284 63.0778 20.312V18.674C62.0138 18.674 61.2998 19.108 60.9218 19.976Z"/><path fill="#fff" d="M65.0568 22.944H70.6288C70.6568 22.692 70.6848 22.482 70.6848 22.314C70.6848 21.292 70.3488 20.424 69.6908 19.696C69.0328 18.982 68.1928 18.618 67.1708 18.618C66.0788 18.618 65.1968 18.982 64.5108 19.682C63.8108 20.382 63.4748 21.264 63.4748 22.3C63.4748 23.364 63.8248 24.246 64.5248 24.946C65.2248 25.646 66.1348 25.982 67.2828 25.982C68.6268 25.982 69.6488 25.478 70.3488 24.456L69.1028 23.728C68.6968 24.316 68.0948 24.596 67.2968 24.596C66.7088 24.596 66.2188 24.456 65.8268 24.176C65.4208 23.896 65.1688 23.476 65.0568 22.944ZM65.0428 21.712C65.1408 21.18 65.3788 20.76 65.7568 20.452C66.1208 20.144 66.5968 19.99 67.1568 19.99C67.6468 19.99 68.0808 20.144 68.4448 20.424C68.8088 20.718 69.0468 21.152 69.1588 21.712H65.0428Z"/><path fill="#fff" d="M77.5183 16V19.794C76.9443 19.01 76.1323 18.618 75.0683 18.618C74.1023 18.618 73.2763 18.982 72.6043 19.682C71.9183 20.396 71.5823 21.264 71.5823 22.3C71.5823 23.336 71.9183 24.204 72.6043 24.918C73.2763 25.632 74.1023 25.982 75.0683 25.982C76.1323 25.982 76.9443 25.59 77.5183 24.792V25.8H79.0303V16H77.5183ZM75.3063 24.54C74.6623 24.54 74.1443 24.33 73.7243 23.91C73.3043 23.49 73.0943 22.944 73.0943 22.3C73.0943 21.656 73.3043 21.124 73.7243 20.704C74.1443 20.284 74.6623 20.06 75.3063 20.06C75.9363 20.06 76.4683 20.284 76.8883 20.704C77.3083 21.124 77.5183 21.656 77.5183 22.3C77.5183 22.944 77.3083 23.49 76.8883 23.91C76.4683 24.33 75.9363 24.54 75.3063 24.54Z"/><path fill="#fff" d="M88.2546 18.618C87.1906 18.618 86.3646 19.01 85.8046 19.794V16H84.2926V25.8H85.8046V24.792C86.3646 25.59 87.1906 25.982 88.2546 25.982C89.2066 25.982 90.0326 25.632 90.7186 24.918C91.3906 24.204 91.7406 23.336 91.7406 22.3C91.7406 21.264 91.3906 20.396 90.7186 19.682C90.0326 18.982 89.2066 18.618 88.2546 18.618ZM88.0166 24.54C87.3726 24.54 86.8546 24.33 86.4346 23.91C86.0146 23.49 85.8046 22.944 85.8046 22.3C85.8046 21.656 86.0146 21.124 86.4346 20.704C86.8546 20.284 87.3726 20.06 88.0166 20.06C88.6466 20.06 89.1786 20.284 89.5986 20.704C90.0186 21.124 90.2286 21.656 90.2286 22.3C90.2286 22.944 90.0186 23.49 89.5986 23.91C89.1786 24.33 88.6466 24.54 88.0166 24.54Z"/><path fill="#fff" d="M97.5555 18.8L95.7635 23.882L93.6775 18.8H92.0255L94.9935 25.674L94.9235 25.814C94.7275 26.304 94.4895 26.668 94.2095 26.892C93.9155 27.116 93.5375 27.214 93.0615 27.186V28.6C94.6575 28.698 95.8055 27.844 96.4775 26.024L99.1655 18.8H97.5555Z"/><path fill="#fff" d="M144.927 17.5C141.725 17.5 139.416 19.525 139.416 22.5625C139.416 25.6 142.015 27.625 145.217 27.625C147.152 27.625 148.857 26.8825 149.913 25.6309L147.694 24.3878C147.108 25.0094 146.218 25.3722 145.217 25.3722C143.828 25.3722 142.647 24.6691 142.21 23.5441H150.336C150.4 23.2291 150.438 22.9028 150.438 22.5597C150.438 19.525 148.129 17.5 144.927 17.5ZM142.183 21.5781C142.546 20.4559 143.538 19.75 144.924 19.75C146.314 19.75 147.306 20.4559 147.665 21.5781H142.183ZM176.159 17.5C172.957 17.5 170.648 19.525 170.648 22.5625C170.648 25.6 173.247 27.625 176.449 27.625C178.383 27.625 180.089 26.8825 181.144 25.6309L178.926 24.3878C178.34 25.0094 177.449 25.3722 176.449 25.3722C175.059 25.3722 173.879 24.6691 173.441 23.5441H181.568C181.632 23.2291 181.669 22.9028 181.669 22.5597C181.669 19.525 179.361 17.5 176.159 17.5ZM173.418 21.5781C173.78 20.4559 174.772 19.75 176.159 19.75C177.548 19.75 178.54 20.4559 178.9 21.5781H173.418ZM162.098 22.5625C162.098 24.25 163.235 25.375 164.998 25.375C166.193 25.375 167.089 24.8491 167.55 23.9913L169.778 25.2372C168.855 26.7278 167.127 27.625 164.998 27.625C161.793 27.625 159.487 25.6 159.487 22.5625C159.487 19.525 161.796 17.5 164.998 17.5C167.127 17.5 168.853 18.3972 169.778 19.8878L167.55 21.1337C167.089 20.2759 166.193 19.75 164.998 19.75C163.237 19.75 162.098 20.875 162.098 22.5625ZM186.02 14.4062V27.3438H183.41V14.4062H186.02ZM114.737 13L125.454 31H104.02L114.737 13ZM141.531 14.4062L133.494 27.9062L125.457 14.4062H128.47L133.494 22.8438L138.517 14.4062H141.531ZM158.617 17.7812V20.5066C158.327 20.425 158.02 20.3688 157.689 20.3688C156.004 20.3688 154.789 21.4938 154.789 23.1813V27.3438H152.178V17.7812H154.789V20.3688C154.789 18.94 156.503 17.7812 158.617 17.7812Z"/></svg>