<svg xmlns="http://www.w3.org/2000/svg" width="212" height="44" fill="none"><g clip-path="url(#a)"><path fill="#003DFF" d="M206 0H6a6 6 0 0 0-6 6v32a6 6 0 0 0 6 6h200a6 6 0 0 0 6-6V6a6 6 0 0 0-6-6Z"/><path fill="#fff" d="M28.972 16.676v1.627c-.712-.446-1.52-.67-2.425-.67-.585 0-1.045.13-1.38.39a1.24 1.24 0 0 0-.502 1.03c0 .426.164.766.494 1.02.33.257.835.533 1.516.83.447.193.795.357 1.045.496.25.138.537.332.862.582.324.25.563.548.718.894.154.345.23.74.23 1.188 0 .947-.334 1.69-1.004 2.234-.67.542-1.537.814-2.601.814-1.18 0-2.16-.23-2.936-.686v-1.708c.84.628 1.814.942 2.92.942.585 0 1.048-.136 1.388-.407.34-.271.51-.646.51-1.125 0-.287-.1-.55-.302-.79-.203-.24-.42-.42-.655-.542-.234-.123-.585-.29-1.053-.503-.195-.09-.389-.18-.582-.271a13.658 13.658 0 0 1-.55-.287 4.276 4.276 0 0 1-.567-.351 6.913 6.913 0 0 1-.455-.4c-.18-.17-.31-.34-.39-.51-.08-.17-.155-.37-.224-.598a2.551 2.551 0 0 1-.104-.742c0-.915.333-1.638.998-2.17.664-.532 1.523-.798 2.576-.798.968 0 1.793.17 2.473.51Zm7.468 5.696v-.287c-.022-.607-.187-1.088-.495-1.444-.31-.357-.75-.535-1.324-.535-.532 0-.99.194-1.373.583-.382.388-.622.949-.717 1.683h3.909Zm1.005 2.792v1.404c-.596.34-1.383.51-2.362.51-1.255 0-2.255-.377-3-1.132-.744-.755-1.116-1.744-1.116-2.968 0-1.297.34-2.316 1.02-3.055.68-.74 1.549-1.11 2.6-1.11 1.034 0 1.853.323 2.459.966.606.644.91 1.572.91 2.784 0 .33-.033.676-.096 1.038h-5.314c.107.702.405 1.239.894 1.61.49.373 1.106.559 1.85.559.862 0 1.58-.202 2.155-.606Zm6.605-1.77h-1.212c-.596 0-1.045.116-1.35.35-.302.234-.453.532-.453.894 0 .372.117.664.35.877.235.213.575.32 1.022.32.51 0 .912-.142 1.204-.424.293-.281.44-.651.44-1.108v-.91h-.001Zm-4.068-2.554v-1.516c.627-.361 1.457-.542 2.489-.542 2.116 0 3.175 1.026 3.175 3.08v5.137h-1.548v-.957c-.415.68-1.143 1.02-2.186 1.02-.766 0-1.38-.22-1.843-.661-.462-.442-.694-1.003-.694-1.684 0-.776.293-1.38.878-1.81.585-.431 1.404-.647 2.457-.647h1.34v-.461c0-.554-.133-.971-.4-1.253-.265-.282-.706-.423-1.323-.423a4.07 4.07 0 0 0-2.345.718v-.001Zm9.333-1.93v1.42c.394-1 1.1-1.5 2.123-1.5.148 0 .313.016.494.048v1.53a1.884 1.884 0 0 0-.75-.142c-.542 0-.99.24-1.34.718-.351.479-.527 1.048-.527 1.707v4.308h-1.563v-8.09h1.563Zm5.01 4.084c.022.82.272 1.492.75 2.019.479.526 1.15.79 2.01.79.639 0 1.235-.176 1.788-.527v1.404c-.521.319-1.186.479-1.995.479-1.265 0-2.276-.4-3.031-1.197-.755-.798-1.133-1.792-1.133-2.984 0-1.16.38-2.151 1.14-2.975.76-.825 1.79-1.237 3.088-1.237.702 0 1.346.149 1.93.447v1.436a3.242 3.242 0 0 0-1.77-.495c-.84 0-1.513.266-2.02.798-.504.532-.757 1.213-.757 2.042Zm7.915-7.275v4.579c.458-1 1.293-1.5 2.505-1.5.787 0 1.42.245 1.899.734.479.49.718 1.17.718 2.042v5.425h-1.564v-5.106c0-.553-.14-.98-.422-1.284-.282-.303-.652-.455-1.11-.455-.531 0-1.002.202-1.411.606-.41.405-.615 1.022-.615 1.85V27h-1.563v-11.28h1.563Zm14.966 10.02c.596 0 1.096-.253 1.5-.758.404-.506.606-1.157.606-1.955 0-.915-.202-1.62-.606-2.114-.404-.495-.92-.742-1.548-.742-.553 0-1.05.224-1.491.67-.442.447-.662 1.133-.662 2.058 0 .958.212 1.67.638 2.138.425.469.946.703 1.563.703Zm-2.202-10.02v4.42c.574-.894 1.388-1.341 2.44-1.341 1.022 0 1.857.383 2.506 1.149.649.766.973 1.78.973 3.047 0 1.138-.31 2.109-.925 2.912-.617.803-1.463 1.205-2.537 1.205-1.075 0-1.894-.447-2.457-1.34v1.228h-1.58v-11.28h1.58Zm9.908 11.104-3.223-7.913h1.739l1.005 2.632 1.26 3.415c.096-.32.48-1.458 1.15-3.415l.909-2.632h1.66l-2.92 7.866c-.777 2.074-1.963 3.11-3.56 3.11a2.92 2.92 0 0 1-.733-.08v-1.34c.17.043.35.065.543.065 1.032 0 1.755-.57 2.17-1.708Z"/><path fill="#fff" fill-rule="evenodd" d="M144.954 23.562V12.248a.248.248 0 0 0-.287-.244l-2.119.333a.248.248 0 0 0-.209.245l.007 11.475c0 .543 0 3.893 4.03 4.01a.249.249 0 0 0 .256-.248v-1.713a.245.245 0 0 0-.215-.245c-1.464-.168-1.464-1.998-1.464-2.298h.001Z" clip-rule="evenodd"/><path fill="#fff" d="M179.904 16.399h-2.133a.248.248 0 0 0-.248.247v11.176c0 .137.111.248.248.248h2.133c.137 0 .248-.111.248-.248V16.646a.248.248 0 0 0-.248-.247Z"/><path fill="#fff" fill-rule="evenodd" d="M177.771 14.998h2.132c.137 0 .248-.111.248-.248v-2.502a.248.248 0 0 0-.286-.245l-2.132.334a.248.248 0 0 0-.21.245v2.168c0 .137.111.248.248.248ZM174.086 23.562V12.248a.248.248 0 0 0-.287-.244l-2.119.333a.248.248 0 0 0-.209.245l.007 11.475c0 .543 0 3.893 4.03 4.01a.249.249 0 0 0 .256-.248v-1.713a.245.245 0 0 0-.215-.245c-1.464-.168-1.464-1.998-1.464-2.298h.001ZM168.539 17.994a4.762 4.762 0 0 0-1.713-1.189 5.709 5.709 0 0 0-2.187-.414c-.789 0-1.518.134-2.18.414-.655.28-1.23.674-1.712 1.19a5.427 5.427 0 0 0-1.124 1.848c-.268.721-.388 1.57-.388 2.451a6.2 6.2 0 0 0 .401 2.277c.268.727.636 1.348 1.111 1.863a4.984 4.984 0 0 0 1.705 1.195c.662.287 1.685.434 2.201.44.514 0 1.544-.16 2.213-.44a4.88 4.88 0 0 0 1.713-1.195 5.39 5.39 0 0 0 1.102-1.863 6.328 6.328 0 0 0 .388-2.277c0-.881-.14-1.73-.421-2.45a5.52 5.52 0 0 0-1.11-1.85h.001Zm-1.866 6.877c-.482.662-1.158.996-2.02.996-.863 0-1.538-.328-2.02-.996-.482-.661-.723-1.428-.723-2.57 0-1.13.235-2.064.717-2.724.481-.662 1.156-.988 2.018-.988.864 0 1.539.327 2.02.988.482.653.729 1.595.729 2.724 0 1.142-.24 1.902-.722 2.57h.001ZM135.492 16.399c-2.031 0-3.818 1.07-4.861 2.692a6.094 6.094 0 0 0-.966 3.306c0 1.885.846 3.567 2.167 4.666.123.11.254.21.391.3a3.378 3.378 0 0 0 2.024.562l.045-.003a2.29 2.29 0 0 0 .11-.008l.043-.005.115-.015.026-.004c1.381-.213 2.586-1.294 2.978-2.638v2.429c0 .137.111.248.248.248h2.117c.137 0 .248-.111.248-.248V16.646a.248.248 0 0 0-.248-.247h-4.437Zm2.072 8.69c-.513.427-1.175.587-1.883.635l-.021.002a2.289 2.289 0 0 1-.141.004c-1.774 0-3.239-1.508-3.239-3.334 0-.43.082-.84.228-1.217.471-1.223 1.628-2.089 2.984-2.089h2.072v5.999ZM187.551 16.399c-2.031 0-3.818 1.07-4.861 2.692a6.094 6.094 0 0 0-.966 3.306 6.05 6.05 0 0 0 2.167 4.666c.123.11.254.21.391.3a3.377 3.377 0 0 0 2.024.562l.045-.003.11-.008.043-.005.114-.015.027-.004c1.381-.213 2.585-1.294 2.978-2.638v2.429c0 .137.11.248.247.248h2.118c.137 0 .248-.111.248-.248V16.646a.248.248 0 0 0-.248-.247h-4.437Zm2.072 8.69c-.513.427-1.175.587-1.884.635l-.02.002a2.289 2.289 0 0 1-.141.004c-1.774 0-3.239-1.508-3.239-3.334 0-.43.082-.84.227-1.217.472-1.223 1.629-2.089 2.985-2.089h2.072v5.999ZM155.188 16.399h-2.072c-2.031 0-3.818 1.07-4.862 2.692a6.073 6.073 0 0 0-.965 3.306c0 .23.013.468.039.697.18 1.6.972 3.007 2.128 3.97.123.109.254.209.391.3a3.377 3.377 0 0 0 3.892-.106 3.8 3.8 0 0 0 1.448-2.005v2.11h-.005v.466c0 .917-.239 1.607-.728 2.073-.487.466-1.303.699-2.446.699a20.45 20.45 0 0 1-1.957-.102.25.25 0 0 0-.264.178l-.536 1.81a.248.248 0 0 0 .202.316c.904.13 1.786.197 2.296.197 2.054 0 3.576-.452 4.573-1.353.902-.815 1.392-2.053 1.478-3.717V16.646a.248.248 0 0 0-.248-.247h-2.365.001Zm0 2.692s.027 5.843 0 6.02c-.508.41-1.139.571-1.827.618l-.021.002a2.213 2.213 0 0 1-.306 0c-1.697-.09-3.13-1.565-3.13-3.334 0-.43.082-.84.228-1.217.471-1.223 1.628-2.09 2.984-2.09h2.072Z" clip-rule="evenodd"/><path fill="#fff" d="M110.492 12c-5.734 0-10.408 4.624-10.491 10.338-.084 5.804 4.625 10.613 10.43 10.647a10.42 10.42 0 0 0 5.052-1.261.246.246 0 0 0 .045-.4l-.982-.87a.693.693 0 0 0-.729-.123 8.478 8.478 0 0 1-3.431.674c-4.691-.058-8.48-3.96-8.406-8.65.074-4.631 3.864-8.375 8.512-8.375h8.513v15.13l-4.83-4.29a.357.357 0 0 0-.522.054 3.955 3.955 0 0 1-3.44 1.568 3.972 3.972 0 0 1-3.669-3.645 3.964 3.964 0 0 1 3.948-4.264 3.964 3.964 0 0 1 3.944 3.61c.016.18.097.347.232.467l1.258 1.115c.143.126.369.049.404-.139.091-.485.123-.99.087-1.508-.202-2.955-2.595-5.331-5.551-5.513a5.946 5.946 0 0 0-6.311 5.764c-.087 3.238 2.566 6.03 5.804 6.1a5.907 5.907 0 0 0 3.618-1.131l6.31 5.594a.42.42 0 0 0 .698-.314v-20.18a.398.398 0 0 0-.399-.398h-10.094Z"/></g><defs><clipPath id="a"><path fill="#fff" d="M0 0h212v44H0z"/></clipPath></defs></svg>
