<svg width="212" height="44" viewBox="0 0 212 44" fill="none" xmlns="http://www.w3.org/2000/svg">
<rect width="212" height="44" rx="6" fill="#5468FF"/>
<path d="M100.988 10.9375H117.582C118.368 10.938 119.122 11.2507 119.679 11.8068C120.235 12.3629 120.547 13.117 120.548 13.9035V30.4995C120.547 31.2857 120.234 32.0394 119.678 32.5952C119.122 33.1509 118.368 33.4632 117.582 33.4635H100.988C100.202 33.4632 99.4478 33.1509 98.8917 32.5952C98.3356 32.0394 98.0228 31.2857 98.022 30.4995V13.8965C98.0222 13.5074 98.0992 13.1222 98.2484 12.7628C98.3976 12.4035 98.6162 12.0771 98.8917 11.8023C99.1672 11.5275 99.4941 11.3097 99.8538 11.1613C100.213 11.0129 100.599 10.9368 100.988 10.9375ZM142.925 28.8035C138.539 28.8235 138.539 25.2635 138.539 24.6975L138.532 11.3615L141.207 10.9375V24.1915C141.207 24.5135 141.207 26.5495 142.925 26.5555V28.8035ZM132.079 26.6235C132.9 26.6235 133.509 26.5765 133.934 26.4945V23.7755C133.42 23.6435 132.891 23.5766 132.36 23.5765C132.06 23.5758 131.76 23.5989 131.463 23.6455C131.181 23.6821 130.906 23.7631 130.649 23.8855C130.409 24.0015 130.21 24.1655 130.067 24.3765C129.917 24.5885 129.848 24.7115 129.848 25.0325C129.848 25.6605 130.067 26.0235 130.464 26.2625C130.861 26.5015 131.402 26.6245 132.079 26.6245V26.6235ZM131.846 16.9235C132.729 16.9235 133.475 17.0325 134.077 17.2515C134.679 17.4695 135.165 17.7765 135.521 18.1665C135.884 18.5625 136.13 19.0885 136.281 19.6495C136.438 20.2095 136.513 20.8245 136.513 21.4995V28.3735C135.893 28.4963 135.271 28.601 134.645 28.6875C133.811 28.8105 132.873 28.8725 131.832 28.8725C131.142 28.8725 130.505 28.8035 129.937 28.6745C129.409 28.5639 128.908 28.3475 128.466 28.0385C128.062 27.7433 127.735 27.3541 127.515 26.9045C127.289 26.4395 127.172 25.7845 127.172 25.1015C127.172 24.4455 127.302 24.0285 127.556 23.5765C127.812 23.1299 128.171 22.7507 128.603 22.4705C129.048 22.1835 129.553 21.9785 130.135 21.8555C130.734 21.7308 131.344 21.6688 131.955 21.6705C132.619 21.6722 133.281 21.7528 133.927 21.9105V21.4725C133.927 21.1655 133.892 20.8725 133.817 20.5985C133.745 20.3297 133.613 20.0804 133.433 19.8685C133.236 19.6466 132.988 19.4771 132.709 19.3755C132.344 19.2372 131.956 19.1677 131.566 19.1705C130.95 19.1705 130.389 19.2455 129.876 19.3345C129.448 19.4014 129.027 19.5041 128.616 19.6415L128.295 17.4495C128.63 17.3325 129.129 17.2165 129.773 17.1005C130.457 16.9757 131.151 16.9161 131.846 16.9225V16.9235ZM184.688 26.5495C185.51 26.5495 186.118 26.5015 186.542 26.4195V23.6995C186.028 23.5676 185.499 23.5007 184.968 23.5005C184.674 23.5005 184.373 23.5215 184.072 23.5695C183.79 23.6061 183.515 23.6871 183.258 23.8095C183.024 23.9188 182.823 24.0882 182.676 24.3005C182.526 24.5125 182.458 24.6355 182.458 24.9565C182.458 25.5845 182.676 25.9475 183.073 26.1865C183.477 26.4315 184.011 26.5485 184.688 26.5485V26.5495ZM184.462 16.8555C185.345 16.8555 186.091 16.9635 186.693 17.1825C187.295 17.4015 187.781 17.7085 188.137 18.0975C188.492 18.4875 188.746 19.0205 188.896 19.5805C189.058 20.1842 189.137 20.8074 189.129 21.4325V28.3055C188.719 28.3935 188.095 28.4955 187.261 28.6195C186.427 28.7425 185.489 28.8035 184.448 28.8035C183.758 28.8035 183.121 28.7355 182.553 28.6055C182.025 28.4952 181.524 28.2792 181.082 27.9705C180.678 27.6753 180.351 27.2861 180.131 26.8365C179.905 26.3715 179.788 25.7165 179.788 25.0325C179.788 24.3765 179.918 23.9595 180.172 23.5085C180.432 23.0585 180.78 22.6885 181.219 22.4015C181.664 22.1155 182.169 21.9105 182.751 21.7875C183.655 21.6001 184.584 21.5562 185.502 21.6575C185.831 21.6915 186.173 21.7535 186.542 21.8425V21.4055C186.545 21.1103 186.508 20.816 186.433 20.5305C186.361 20.2613 186.23 20.0116 186.049 19.7995C185.852 19.5779 185.603 19.4088 185.325 19.3075C184.96 19.1693 184.572 19.0998 184.182 19.1025C183.566 19.1025 183.005 19.1775 182.492 19.2665C182.064 19.3335 181.643 19.4362 181.232 19.5735L180.911 17.3805C181.246 17.2645 181.745 17.1485 182.389 17.0325C183.073 16.9117 183.767 16.8525 184.462 16.8555ZM176.428 15.5845C175.997 15.585 175.584 15.4148 175.279 15.1111C174.974 14.8074 174.802 14.3951 174.8 13.9645C174.8 13.0695 175.525 12.3445 176.428 12.3445C177.332 12.3445 178.058 13.0695 178.058 13.9645C178.058 14.8595 177.325 15.5845 176.428 15.5845ZM177.776 28.8045H175.087V17.2695L177.777 16.8465V28.8025L177.776 28.8045ZM173.062 28.8045C168.676 28.8245 168.676 25.2645 168.676 24.6975L168.668 11.3615L171.344 10.9375V24.1915C171.344 24.5135 171.344 26.5495 173.062 26.5555V28.8035V28.8045ZM164.364 22.9015C164.364 21.7455 164.111 20.7825 163.618 20.1135C163.125 19.4365 162.435 19.1035 161.551 19.1035C160.669 19.1035 159.977 19.4365 159.486 20.1135C158.993 20.7895 158.753 21.7455 158.753 22.9015C158.753 24.0695 158.999 24.8545 159.493 25.5315C159.985 26.2145 160.676 26.5495 161.559 26.5495C162.441 26.5495 163.133 26.2075 163.626 25.5305C164.118 24.8475 164.364 24.0705 164.364 22.9005V22.9015ZM167.101 22.8945C167.101 23.7965 166.971 24.4785 166.704 25.2245C166.461 25.9295 166.077 26.5779 165.576 27.1305C165.087 27.66 164.489 28.0772 163.824 28.3535C163.139 28.6395 162.085 28.8035 161.559 28.8035C161.031 28.7975 159.985 28.6465 159.307 28.3535C158.646 28.0732 158.052 27.6565 157.563 27.1305C157.076 26.6035 156.7 25.9685 156.426 25.2245C156.144 24.4804 156.005 23.69 156.016 22.8945C156.016 21.9925 156.139 21.1245 156.413 20.3865C156.665 19.6851 157.057 19.0416 157.563 18.4945C158.055 17.9712 158.651 17.557 159.313 17.2785C159.992 16.9915 160.738 16.8555 161.545 16.8555C162.353 16.8555 163.098 16.9975 163.782 17.2785C164.449 17.5496 165.047 17.9648 165.535 18.4945C166.034 19.0444 166.42 19.6873 166.67 20.3865C166.957 21.1245 167.101 21.9925 167.101 22.8945ZM146.963 22.8945C146.963 24.0145 147.209 25.2575 147.701 25.7765C148.194 26.2965 148.831 26.5565 149.611 26.5565C150.035 26.5565 150.439 26.4945 150.815 26.3785C151.192 26.2625 151.492 26.1255 151.732 25.9615V19.3295C151.151 19.2042 150.56 19.1286 149.966 19.1035C148.995 19.0755 148.256 19.4735 147.736 20.1075C147.223 20.7435 146.963 21.8575 146.963 22.8955V22.8945ZM154.401 28.1685C154.401 29.9925 153.935 31.3245 152.997 32.1725C152.061 33.0185 150.63 33.4425 148.701 33.4425C147.996 33.4425 146.531 33.3055 145.361 33.0465L145.792 30.9285C146.772 31.1335 148.064 31.1885 148.742 31.1885C149.816 31.1885 150.582 30.9695 151.041 30.5325C151.5 30.0955 151.725 29.4465 151.725 28.5845V28.1475C151.386 28.3039 151.036 28.4366 150.678 28.5445C150.248 28.6745 149.748 28.7425 149.186 28.7425C148.447 28.7425 147.776 28.6265 147.168 28.3935C146.575 28.1739 146.04 27.8236 145.601 27.3685C145.17 26.9185 144.827 26.3515 144.588 25.6745C144.348 24.9975 144.225 23.7895 144.225 22.9015C144.225 22.0675 144.355 21.0215 144.609 20.3245C144.869 19.6285 145.238 19.0265 145.738 18.5285C146.231 18.0305 146.833 17.6475 147.538 17.3665C148.311 17.0628 149.135 16.9078 149.966 16.9095C150.836 16.9095 151.636 17.0185 152.416 17.1495C153.196 17.2785 153.86 17.4145 154.401 17.5645V28.1695V28.1685Z" fill="white"/>
<path d="M28.9719 16.6757V18.3028C28.2599 17.8568 27.4519 17.6327 26.5469 17.6327C25.9619 17.6327 25.5019 17.7627 25.1669 18.0237C25.0065 18.1424 24.8772 18.298 24.7898 18.4773C24.7024 18.6566 24.6595 18.8543 24.6649 19.0537C24.6649 19.4787 24.8289 19.8187 25.1589 20.0738C25.4889 20.3298 25.9939 20.6058 26.6749 20.9038C27.1219 21.0958 27.4699 21.2598 27.7199 21.3988C27.9699 21.5368 28.2569 21.7308 28.5819 21.9808C28.9059 22.2308 29.1449 22.5288 29.2999 22.8748C29.4539 23.2198 29.5299 23.6158 29.5299 24.0628C29.5299 25.0098 29.1959 25.7538 28.5259 26.2968C27.8559 26.8388 26.9889 27.1108 25.9249 27.1108C24.7449 27.1108 23.7649 26.8818 22.9889 26.4248V24.7168C23.8289 25.3448 24.8029 25.6588 25.9089 25.6588C26.4939 25.6588 26.9569 25.5228 27.2969 25.2518C27.6369 24.9808 27.8069 24.6058 27.8069 24.1268C27.8069 23.8398 27.7069 23.5768 27.5049 23.3368C27.3019 23.0968 27.0849 22.9168 26.8499 22.7948C26.6159 22.6718 26.2649 22.5048 25.7969 22.2918C25.6024 22.2025 25.4084 22.1121 25.2149 22.0208C25.0294 21.9293 24.846 21.8336 24.6649 21.7338C24.467 21.6317 24.2775 21.5144 24.0979 21.3828C23.9404 21.2561 23.7886 21.1227 23.6429 20.9828C23.4629 20.8128 23.3329 20.6428 23.2529 20.4728C23.1729 20.3028 23.0979 20.1028 23.0289 19.8747C22.9579 19.6339 22.9229 19.3839 22.9249 19.1328C22.9249 18.2178 23.2579 17.4948 23.9229 16.9627C24.5869 16.4307 25.4459 16.1647 26.4989 16.1647C27.4669 16.1647 28.2919 16.3347 28.9719 16.6747V16.6757ZM36.4399 22.3718V22.0848C36.4179 21.4778 36.2529 20.9968 35.9449 20.6408C35.6359 20.2838 35.1949 20.1058 34.6209 20.1058C34.0889 20.1058 33.6309 20.2998 33.2479 20.6888C32.8659 21.0768 32.6259 21.6378 32.5309 22.3718H36.4399ZM37.4449 25.1638V26.5678C36.8489 26.9078 36.0619 27.0778 35.0829 27.0778C33.8279 27.0778 32.8279 26.7008 32.0829 25.9458C31.3389 25.1908 30.9669 24.2018 30.9669 22.9778C30.9669 21.6808 31.3069 20.6618 31.9879 19.9227C32.6679 19.1827 33.5359 18.8127 34.5879 18.8127C35.6209 18.8127 36.4399 19.1357 37.0459 19.7787C37.6519 20.4228 37.9559 21.3508 37.9559 22.5628C37.9559 22.8928 37.9229 23.2388 37.8599 23.6008H32.5459C32.6529 24.3028 32.9509 24.8398 33.4399 25.2118C33.9299 25.5838 34.5459 25.7698 35.2899 25.7698C36.1519 25.7698 36.8699 25.5678 37.4449 25.1638ZM44.0499 23.3938H42.8379C42.2419 23.3938 41.7929 23.5098 41.4889 23.7438C41.1859 23.9778 41.0349 24.2758 41.0349 24.6378C41.0349 25.0098 41.1519 25.3018 41.3849 25.5148C41.6199 25.7278 41.9599 25.8348 42.4069 25.8348C42.9169 25.8348 43.3189 25.6928 43.6109 25.4108C43.9039 25.1298 44.0509 24.7598 44.0509 24.3028V23.3928L44.0499 23.3938ZM39.9819 20.8398V19.3238C40.6089 18.9627 41.4389 18.7818 42.4709 18.7818C44.5869 18.7818 45.6459 19.8077 45.6459 21.8618V26.9988H44.0979V26.0418C43.6829 26.7218 42.9549 27.0618 41.9119 27.0618C41.1459 27.0618 40.5319 26.8418 40.0689 26.4008C39.6069 25.9588 39.3749 25.3978 39.3749 24.7168C39.3749 23.9408 39.6679 23.3368 40.2529 22.9068C40.8379 22.4758 41.6569 22.2598 42.7099 22.2598H44.0499V21.7988C44.0499 21.2448 43.9169 20.8278 43.6509 20.5458C43.3849 20.2638 42.9439 20.1228 42.3269 20.1228C41.49 20.1153 40.6711 20.366 39.9819 20.8408V20.8398ZM49.3149 18.9097V20.3298C49.7089 19.3298 50.4159 18.8297 51.4379 18.8297C51.5859 18.8297 51.7509 18.8457 51.9319 18.8777V20.4088C51.6943 20.3104 51.439 20.2618 51.1819 20.2658C50.6399 20.2658 50.1929 20.5058 49.8419 20.9838C49.4909 21.4628 49.3149 22.0318 49.3149 22.6908V26.9988H47.7519V18.9088H49.3149V18.9097ZM54.3249 22.9938C54.3469 23.8138 54.5969 24.4858 55.0749 25.0128C55.5539 25.5388 56.2249 25.8028 57.0849 25.8028C57.7239 25.8028 58.3199 25.6268 58.8729 25.2758V26.6798C58.3519 26.9988 57.6869 27.1588 56.8779 27.1588C55.6129 27.1588 54.6019 26.7588 53.8469 25.9618C53.0919 25.1638 52.7139 24.1698 52.7139 22.9778C52.7139 21.8178 53.0939 20.8268 53.8539 20.0028C54.6149 19.1777 55.6439 18.7657 56.9419 18.7657C57.6439 18.7657 58.2879 18.9147 58.8719 19.2127V20.6488C58.342 20.3165 57.7273 20.1446 57.1019 20.1538C56.2619 20.1538 55.5889 20.4198 55.0829 20.9518C54.5779 21.4838 54.3249 22.1648 54.3249 22.9938ZM62.2399 15.7188V20.2978C62.6979 19.2977 63.5329 18.7977 64.7449 18.7977C65.5319 18.7977 66.1649 19.0428 66.6439 19.5318C67.1229 20.0218 67.3619 20.7018 67.3619 21.5738V26.9988H65.7979V21.8928C65.7979 21.3398 65.6579 20.9128 65.3759 20.6088C65.0939 20.3058 64.7239 20.1538 64.2659 20.1538C63.7349 20.1538 63.2639 20.3558 62.8549 20.7598C62.4449 21.1648 62.2399 21.7818 62.2399 22.6108V26.9988H60.6769V15.7188H62.2399ZM77.2059 25.7388C77.8019 25.7388 78.3019 25.4858 78.7059 24.9808C79.1099 24.4748 79.3119 23.8238 79.3119 23.0258C79.3119 22.1108 79.1099 21.4058 78.7059 20.9118C78.3019 20.4168 77.7859 20.1698 77.1579 20.1698C76.6049 20.1698 76.1079 20.3938 75.6669 20.8398C75.2249 21.2868 75.0049 21.9728 75.0049 22.8978C75.0049 23.8558 75.2169 24.5678 75.6429 25.0358C76.0679 25.5048 76.5889 25.7388 77.2059 25.7388ZM75.0039 15.7188V20.1388C75.5779 19.2448 76.3919 18.7977 77.4439 18.7977C78.4659 18.7977 79.3009 19.1808 79.9499 19.9468C80.5989 20.7128 80.9229 21.7278 80.9229 22.9938C80.9229 24.1318 80.6139 25.1028 79.9979 25.9058C79.3809 26.7088 78.5349 27.1108 77.4609 27.1108C76.3859 27.1108 75.5669 26.6638 75.0039 25.7708V26.9988H73.4239V15.7188H75.0039ZM84.9119 26.8228L81.6889 18.9097H83.4279L84.4329 21.5418L85.6929 24.9568C85.7889 24.6368 86.1729 23.4988 86.8429 21.5418L87.7519 18.9097H89.4119L86.4919 26.7758C85.7149 28.8498 84.5289 29.8858 82.9329 29.8858C82.6859 29.8906 82.4392 29.8641 82.1989 29.8068V28.4668C82.3689 28.5088 82.5499 28.5308 82.7419 28.5308C83.7739 28.5308 84.4969 27.9608 84.9119 26.8228Z" fill="white"/>
<path d="M111.632 15.9678V15.1958C111.632 14.9365 111.528 14.688 111.345 14.5048C111.162 14.3216 110.913 14.2188 110.654 14.2188H108.374C108.115 14.2188 107.866 14.3216 107.683 14.5048C107.499 14.688 107.396 14.9365 107.396 15.1958V15.9887C107.396 16.0768 107.478 16.1388 107.567 16.1188C108.212 15.9325 108.88 15.8382 109.551 15.8387C110.201 15.8387 110.846 15.9268 111.468 16.0978C111.55 16.1178 111.632 16.0578 111.632 15.9678ZM105.384 16.9777L104.994 16.5887C104.903 16.498 104.795 16.426 104.677 16.3769C104.558 16.3277 104.431 16.3024 104.303 16.3024C104.174 16.3024 104.047 16.3277 103.929 16.3769C103.81 16.426 103.703 16.498 103.612 16.5887L103.147 17.0538C103.056 17.1442 102.984 17.2517 102.934 17.3701C102.885 17.4885 102.86 17.6155 102.86 17.7438C102.86 17.872 102.885 17.999 102.934 18.1174C102.984 18.2358 103.056 18.3433 103.147 18.4337L103.53 18.8168C103.592 18.8777 103.68 18.8637 103.735 18.8028C103.961 18.4957 104.207 18.2018 104.481 17.9288C104.762 17.6488 105.049 17.4028 105.364 17.1778C105.432 17.1358 105.439 17.0407 105.384 16.9777ZM109.544 19.4308V22.7717C109.544 22.8677 109.648 22.9367 109.736 22.8887L112.706 21.3517C112.774 21.3177 112.795 21.2347 112.761 21.1677C112.449 20.6198 112.003 20.1607 111.463 19.8341C110.924 19.5075 110.311 19.3242 109.681 19.3017C109.613 19.3017 109.545 19.3557 109.545 19.4317L109.544 19.4308ZM109.545 27.4797C108.355 27.48 107.214 27.0081 106.372 26.1678C105.531 25.3274 105.057 24.1872 105.055 22.9977C105.056 21.8081 105.53 20.6678 106.372 19.8274C107.214 18.987 108.355 18.5152 109.545 18.5158C110.734 18.5155 111.875 18.9874 112.717 19.8278C113.559 20.6681 114.032 21.8083 114.034 22.9977C114.034 23.5869 113.917 24.1703 113.691 24.7144C113.465 25.2586 113.135 25.753 112.718 26.1692C112.301 26.5855 111.806 26.9154 111.261 27.1403C110.717 27.3652 110.133 27.4805 109.544 27.4797H109.545ZM109.544 16.6298C107.856 16.6298 106.237 17.3003 105.043 18.4939C103.85 19.6874 103.179 21.3062 103.179 22.9942C103.179 24.6822 103.85 26.301 105.043 27.4946C106.237 28.6882 107.856 29.3587 109.544 29.3587C110.38 29.359 111.209 29.1945 111.982 28.8746C112.755 28.5547 113.457 28.0857 114.049 27.4944C114.64 26.9031 115.11 26.201 115.43 25.4283C115.75 24.6555 115.916 23.8272 115.916 22.9907C115.916 22.1545 115.751 21.3265 115.431 20.554C115.111 19.7816 114.641 19.0798 114.05 18.4891C113.458 17.8983 112.755 17.43 111.982 17.1112C111.209 16.7923 110.381 16.629 109.545 16.6308" fill="#5468FF"/>
</svg>
