<svg width="34" height="33" fill="none" xmlns="http://www.w3.org/2000/svg"><g opacity=".4" filter="url(#prefix__filter0_d)"><path d="M30.333 21.254A6.729 6.729 0 0123.627 28H10.4c-3.707 0-6.733-3-6.733-6.72v-.013s.008-5.901.018-8.87a.665.665 0 011.078-.522c3.168 2.513 8.833 7.096 8.903 7.156a5.423 5.423 0 003.374 1.187 5.35 5.35 0 003.373-1.202c.07-.046 5.61-4.492 8.825-7.046a.666.666 0 011.082.52c.013 2.945.013 8.764.013 8.764" fill="#fff"/></g><g filter="url(#prefix__filter1_d)"><path d="M29.635 7.565A6.714 6.714 0 0023.707 4H10.4a6.713 6.713 0 00-5.928 3.565 1.151 1.151 0 00.295 1.437l9.9 7.919c.693.56 1.533.838 2.373.838h.027c.84 0 1.68-.278 2.373-.838l9.9-7.919c.43-.344.553-.95.295-1.437" fill="#fff"/></g><defs><filter id="prefix__filter0_d" x=".667" y="10.729" width="32.667" height="22.271" filterUnits="userSpaceOnUse" color-interpolation-filters="sRGB"><feFlood flood-opacity="0" result="BackgroundImageFix"/><feColorMatrix in="SourceAlpha" values="0 0 0 0 0 0 0 0 0 0 0 0 0 0 0 0 0 0 127 0" result="hardAlpha"/><feOffset dy="2"/><feGaussianBlur stdDeviation="1.5"/><feComposite in2="hardAlpha" operator="out"/><feColorMatrix values="0 0 0 0 0 0 0 0 0 0 0 0 0 0 0 0 0 0 0.15 0"/><feBlend in2="BackgroundImageFix" result="effect1_dropShadow"/><feBlend in="SourceGraphic" in2="effect1_dropShadow" result="shape"/></filter><filter id="prefix__filter1_d" x="1.337" y="3" width="31.432" height="19.76" filterUnits="userSpaceOnUse" color-interpolation-filters="sRGB"><feFlood flood-opacity="0" result="BackgroundImageFix"/><feColorMatrix in="SourceAlpha" values="0 0 0 0 0 0 0 0 0 0 0 0 0 0 0 0 0 0 127 0" result="hardAlpha"/><feOffset dy="2"/><feGaussianBlur stdDeviation="1.5"/><feComposite in2="hardAlpha" operator="out"/><feColorMatrix values="0 0 0 0 0 0 0 0 0 0 0 0 0 0 0 0 0 0 0.15 0"/><feBlend in2="BackgroundImageFix" result="effect1_dropShadow"/><feBlend in="SourceGraphic" in2="effect1_dropShadow" result="shape"/></filter></defs></svg>